/* XPM */
static char *result[] = {
/* columns rows colors chars-per-pixel */
"64 64 25 1 ",
"  c #563A2C",
". c #5A3D2F",
"X c #5B3F31",
"o c #5E4334",
"O c #634636",
"+ c #634738",
"@ c #65493A",
"# c #694D3D",
"$ c #71523E",
"% c #6A4F40",
"& c #6C5141",
"* c #735544",
"= c #765846",
"- c #795B46",
"; c #775A4A",
": c #7B5E4D",
"> c #7F604E",
", c #81634E",
"< c #83694F",
"1 c #856452",
"2 c #886652",
"3 c #856B52",
"4 c #896D54",
"5 c #877053",
"6 c #8A7155",
/* pixels */
";;;;;;;;****;:-;;;;;;;;;;;;;;;;;;;;:;;;;;;;;;;;;;;;;;;;;;;;;;;;;",
";;;;;$$555644-$;;;;;;;;;;;;;;;;;;:#=;;;;;;$$<654<=$*;;;;;;;;;;;;",
";;;**<>>,:,::,,61&*;;;;$;;;;;;;;;;;#;;;*$<1,:1:1:,,366;%*$$$=;;;",
";=*$>:>>:,:,,-::>>14:$*;;=*=;;;;;;;;;;;*-:,,,:::*$$:>>,>::,1<*;;",
";;$>:>:**;*;:::,>>>>>>26>$*=;*;;;;;;;;;$$:,&>>:>:,:;;::;*;::4$=;",
";;**:::::::::::;;>;>;>::::>6*;*;;;;;;*;***::;;;>,;=:>=*:*;,,:**;",
";;**::;:;;***;;::=***&**:-****;;-*;;;*;*&*;:::>:::::;::>;;::;**-",
";;********;:;;*****&*=*&******;;;**,;*;******&&****:;;**;;:::**;",
";;********************=;**=*=;;;;;*-1;*;;*******&****;::>;;:***;",
";;;;**;*****;*;**=**;;:2>==;;;;;;;*%*;;;;*&*&************;****;;",
";;;;:;;;;;*****;;;;;;%%*&;;;*=;;;;;=;;;*;;;;;;;;;;********;***;;",
";;;:1;;;;;;;;;*;;;=;;*  **;;;;;;;;;;;;;;=;*;;;;;;;;;;**;*****;;;",
";;*o@;;;;;;;;;;;;;;;;;;;;;;;;;;;;;;;*;;;;;;;;;*;;11;;;;;**;;;;;;",
";;;;;;;***;;;;;;;;;;;;;;;;;;;;;;;;;;;;;;;;;;;;;;;:;;;;;;;;;;;;;;",
";;;;;;;;;;;;;;;;;;;==**=;;;:;;;*4-;;;;*;;;;;;;;;;o;;;;;;;;;;;;;;",
";;;;;;;;;;;;;*%*46641,1*&;;;;;=4;;*;;;;;;;;;;;;;;;;;;;;;;;;1;;;;",
";;;;;:;;;*&>66>>>>:1:,-$*==;;*&=;**;;;;;;;;;*,*,;;;;;;;;;;O*;;;;",
";;;:;&&>6>>>>>>*&:::-**$*=;;11;=**;:;;;;;;;;$$##;;;;;;;;;;;;;=;;",
";;;&3>>>::>;;*:>>>:**$$*-=;;#=;;;;;;;;;;;;;*21,,64$*;;;;=;;;;;;;",
";**:>;>>:;:::::::****$*;;;;;==;;;;;;;*&44221,1,,,,16*;;;;:;;;;;;",
";=;:;=*;;:;:**&******=;;;;;;;*;;;;;**2>>,,,,,##*,>>>6&-=;;;;;;;;",
";&;:;>:;;;;*********-=**;<,;;;;;;**2111:,,;*,,1,>>,,,1**;;;;;;;;",
"&=***************&;;;*;;;22;;;;*&4,,,;,:;*,,,,,1>,,:,:,6*;;;;;;;",
"=************;;;=-;;*;;;&&&;;;$6,,:,,:,;1:,:,,$&$;:;:,,:$&;;;;;;",
";:2=****==*=;;;*;==;;;&;;;;;%41>,:-&,,,,,,,,#2222*%,:,,,$$;;;;;;",
";o&;;;;;;;;;;*;;=;;;;*;;;;*41>:>,*,,-&$$#,12222224&,,::2$*;;;,2;",
";;=;;;;;;;;=;;;;;;;*;;;;;$*,>>:,*;;&4222221122212=&-:,:*$*-;;**;",
";;;;;;;=;;;;;;;;;*;;;;;;;&$:>>>*;;$22111211,**&,2**:*:,**--;;.%;",
";;;;**;;;;;;;*;;;;;;;;;;;*<:,:;:,*222221,#$122,*2&$,:*:4&;;-;;;;",
";;;$6-$-;;;*;;;;;;;;;;;;=*,:::::*:1221;*111112*122&,,*,:2*;;;;;;",
";;&=5$$:;;*;;;;;>2;;;;;;-**::;:,*111:*11111111221,&*:*,,,&*;;;;;",
";&*56$*;;;;;;;;;o%;;;;;;=*-,;::*11111111,*1111,,,$*&*,;;,2*;;;;;",
";$$<-*;;;;;;;;$=&;;;;;;;;*>:::&*111111*;1111111%*&*;:::>:1**;;;;",
";*$*;,;;;;;;*;;;;;;;;;;;**::::**1;;1,*11111>1******;>:::;***;;;;",
";**$:1*;;;;;;;;;;;;;;;;;*>:*::**1111111111;*&*****::::::**&;;;;;",
"-**=:**;;;;;;;;;*;;;;;;**::*::*%;1,,1111********:::::**&***;;;;*",
";**:***;;;*$*;;;;;;;;;;**::;::;;*111:1&*****&;:::::;******;;;;;*",
";******;;;;;;*;;;;;;;;;**::;::;***%;*****;*;:::*::*******;;;;;*;",
";=****;;;;;;;;;;;;;;;;;**:::*;;;*****;*;;;:;:;;;:****%;;;;;;***:",
";*=**;;-*$$$;;-1>;;;;;;***:;;;::*;*;***;:;;;;;;;****;;;;;;;*:;;;",
";;;;;;;;$$$-$;@&*;;;;;;*;**:::;;;:;;::::;;;;;;;;***;:;;;1*;;;;;*",
";;;;;;;*$$,5$;;;;;;;;;;;****;;;;;;;;;;;:;;&;****;*;;;;;+,2;;;;*:",
";;;;;;;=$$>-;;;;;;;;;;;;;***;;*;;;;:;;;;*;;*%;;&*;;;;;*& ;;;;**:",
";;;;;2>;$$5$;;:;;;;;;;*;;;******;;*;;*;*;&;*;**;;;;;;*;;*:;*;;;;",
";;;;#=1:$*--*;;;;;;;;;;;*;;;*****;;;&;*;&;;;;;;;;;;**:;;;*;;;;;;",
";;;;OO#:;$$5&;;;;;;;;;;;;;;;;;;;;&&;;****;;;;;;;*;;;;;;;;;;;1;;;",
":;;;;#;;;*&5*;;;*;;;;;;;;;;;;;;;;;;;;;;;;;;;;;;;;;;;*;;;;:;%*;;;",
";;;;;;;;;*;>&&;;;;;;;;;;;;;;;;*;;;;;;;;;;;;;;;;>1;*;;;;;;;;;;;;;",
"$;;;;;;;;&>>5*;;;;;*;;;;;:1>;;;;;**;;;;;;*;;;;;21;;;;%&#$,;;;;;;",
"$;;;;;;;=&::>**;;;;;**;;;%*;;;;;;;:;;;;;;;;;;;+%%;:&;,1,2#;;;;;;",
"*;;;=;;;**:*>5&;;;;;;;;;;XX;;;;;;;;;;;*;;;;***;;;;*&,*,,2$**;;;;",
"*;;;=;;;**:**:<*;;;;;;;;**;;;:;;;;;;;;1;;*;;;;;;;;&,,***$*$,;;;;",
"*;;;=;;;**:*:::3*;;;;;;;;;;;;;;;;;;;;;*1;;;;;;;;;&*,*;****;;;;;;",
";;;;=;;;*=:;::::6**;;;;;;;;;;;;;;;;;;;%;;;;;;;;;;******&&;;;;;;;",
";;;;;;;=**:;:::34146*;;;;;;;;;;;;;;;;;;;;;;;;;;;;**;****;;;;;;;;",
";;;;;;;;**:;;********;;;;;;;;;;;;;;;;;;;;;;;;;;*;;****;;*;*,;;;;",
";*;;;;;;************;;;;;;;;;;;;;;;**1,:11,6*;;;*;;;;**;,*;;;;;;",
";;;;;;;;*;**;**;****;;;*;;;,1:;;;;***;;**::4**;;;;*;:;:;;;;,;;;;",
";;;;;;;;;***;*;;;;;;;;*;;;;%*;;;;;;**;**&****;;;;;;;**;;;*,4&;;;",
";;*;;;;;;;;*;;;;*=;;;;;;;;;;;;;;;;;;****;***;;;;;;;;;;;;*,;2*;;;",
";>:;;;;;;;;;;;;*;;;;2,;;;;;;;;;;*;;;;;;;;;;;;;*;;;;;;;;;*****;;;",
"&@;;;;;;;;;;*;;;;;;;2>;;;;;;;;;;*;;;;;;;;;;;;;;;;;;;;;;;****-;;;",
";;;;;;;;;;;;;;;;;;%%%*:;;;;;;;;;;*;;;;;;;;;;;*;;;;;;;;;;-;;;;;;;",
";;;;;;;;;;;;;;;;;;=;;;;;;;;;;;;;;;;;;**;;;;;;;;;;;;;;;;;;;;;;;;;"
};
