/* XPM */
static char *result[] = {
/* columns rows colors chars-per-pixel */
"64 64 79 1 ",
"  c #1C340C",
". c #1E390D",
"X c #213D0E",
"o c #23400F",
"O c #254510",
"+ c #274911",
"@ c #294D12",
"# c #2B5013",
"$ c #315614",
"% c #375C15",
"& c #395C16",
"* c #3E6216",
"= c #416617",
"- c #416718",
"; c #446818",
": c #4A6D19",
"> c #4E721B",
", c #52741C",
"< c #567A1C",
"1 c #5A7E1C",
"2 c #577621",
"3 c #587722",
"4 c #5B7B22",
"5 c #607F24",
"6 c #5D801C",
"7 c #63861E",
"8 c #698C1E",
"9 c #6F921F",
"0 c #5E8223",
"q c #638425",
"w c #668D22",
"e c #6B8C25",
"r c #668D28",
"t c #6B8E29",
"y c #718E29",
"u c #679022",
"i c #6B9424",
"p c #6E9926",
"a c #6C942A",
"s c #6F992B",
"d c #729523",
"f c #789526",
"g c #739B25",
"h c #7A9D22",
"j c #74942A",
"k c #799629",
"l c #729D2A",
"z c #799D2C",
"x c #76A127",
"c c #7CA225",
"v c #75A32A",
"b c #7BA62B",
"n c #7CAB2E",
"m c #7FB02F",
"M c #77A430",
"N c #79A730",
"B c #7DAB31",
"V c #7FB030",
"C c #81A524",
"Z c #85A924",
"A c #8AAC25",
"S c #81A52F",
"D c #81AB2C",
"F c #8BAE2F",
"G c #8EB025",
"H c #83B12F",
"J c #8CB22E",
"K c #82A730",
"L c #83AB30",
"P c #8BAE31",
"I c #82B431",
"U c #8CB432",
"Y c #86BA34",
"T c #89BD35",
"R c #91B430",
"E c #91BD35",
"W c #8BC137",
"Q c #8EC539",
"! c None",
/* pixels */
"!!!!!!!!!!!!!!!!!!!!!!!!!!!!! !!!!!!!!!!!!!!!!!!!!!!!!!!!!!!!!!!",
"!!!!!!!!!!!!!!!!!! ! !! ! .!!+!!!+!!!+! !o!!!  !!!!!!!!!!!!!!!!!",
"!!!!!!!!!!! !! # !.@+ !+o+#.!#+! @X!o# +.#!!#+ !!O!  !!!!!!!!!!!",
"!!!!!!!!!.! # X###o##@ #$#,@o#@+@;+O@A@### +##. @#O# . !!!!!!!!!",
"!!!!!!!!+.# ####g@##Ch##G#Ag#c<@#g##CZC#G##g*###%#;#o# ! !!!!!!!",
"!!!!!!!X+##%#u<#hhG1zZG@xGix#gc#>s>>pchAi#<u9##9dhG#1#@#!!!!!!!!",
"!!!! .  ##>6Z>w7w8iZeegcpgppggvlxplwgppgpvpuuuiuAwGA8##.+!!!!!!!",
"!!!! ####=GAwhuww8uidq0pgvvvvxlvvlvrvvlvppppiuu88uuucG=#O  !!!!!",
"!!!.!@#6%9p8ww8uwuptq4<vvvvbbvrygelrbvvjvvgp0ppuwwwi8AZ#@@  !!!!",
"!!!X#X#GZgAukwwwppprq40NbNnnbltqq5lrNnnipvtrippiu9wwwhh####!!!!!",
"!!! ##698w8weeuirppvv,lbnnbBVsaa2rBbBnbiqu5tvvlppuud8ugd##X  !!!",
"!!! @#gGACwwwq4p0vvvbbnnnmIBnsaBbIVVVVVV224tvvvlppujuwu8g##+!!!!",
"!!! ##Zuwwetq3,lvvbnNnmmmVVIcBaIIIVVIVVVBnabNbvvxsutry8w:6@.!!!!",
"!!!!+#Ggu8wu53ivvvnnamVVmVIYcIYYYYYIYYIIIInnnnbbvpqqqe8ui&# !!!!",
"! O+@#<w8uuppqvvbnnVaamIIIYYccYYYYYYYYYInIImmnnNa043qwuiA1o!!!!!",
"!!#@###w00ipiavbNnVVvaNIYYYYDbTYTYYTYYYvIIIImmvra0q,6pu8G###!!!!",
"!! #,iw8w0ppvrrnnVVVYssVUTTYDbTTTYTYTTDbYIYIJVravbbvspiucg#+!!!!",
"!!!@#uwuuppvvvrrVVVYYNsWUDTTHDWTWWWTTHDLTYYYPIVHnbNvvppuhg#.!!!!",
"!!!! %uuiplvnvnnVVYVYYUYSSWWTIWWWWTWWbbTTTYnBILHVVnbxxpi9>+o.!!!",
"!!+##*#uppvvnnnVVVVWYTLBbzbWWWWWWEWWWDYTTTTjjKLBVsrusvlpZ7%+!!!!",
"!!!#-gjespvbnnmIIIYYTTTllaaWWWRQWRWWQTQQTWTujllPIBarrapsp8@OO !!",
"!! o#8uq40vnnmVIIYDDDTTWNTIWQQUPQSYQQEWTWTTTIlKIIVVBbvvgA9d#X!!!",
" ###;eyq4ubnnVIIYTTDDPKlbQQQQQQLbzbQLTQWWWWTilIYIIV4abvvgg#@!!!!",
"!X#hduigxvNnmVHIYYYTISbbTQWQWQQbssbKMQWWWWWWTTYYYIVwqezlp%#  !!!",
"!!O;AippxvnnBIIYYTTTWTDDbWQQQQQWaYQjTQQQWWWWTYYYYII30bbvp0>$## !",
"! +@#GCxvbnmHIYYYTTWTQWQQQQQQQQQTQQQQQQTWQQWWWWYYYn,rnnvvpid@!!!",
"!o@8ZirrrsnmDnIYTTTWQTQQQQQQQQQQQQQQQQLDDDHWWTYTYYYrqrnvvpho!!!!",
"!!!X>AxvsvnmfnkcbnTWTQQQQQQQQQQQQQQQQQQYDDDDWWWYYYIIDivvl8@@+.!!",
"! @#;GcvbnnIBtHwbCnHWQQQQQQQQQQQQQQQQQQQQQWWWWTTYYIIVmvbvpcA$@@ ",
"!o@$ApgvvnnnIq0rDnCDQTLzjTQQWHDYQQQQQQQQQQWQWTTTTYYIVmnNvlpcg@ !",
"!!!+#Cgvvgjr5qqYYWYTRUFblsQHDDZQQQQQQQQQQQQWnIWTIsIIVVnbvGG#o!!!",
"!!!! ##vbnnVr,IYTTWWWWQbljsDDDWQQQQQQQQQTEUDDQTTsTYIVmnbvvZ:#.!!",
"!!!o@%hvNnmVHYYYTTWWWWRSLWDDDQQLQQQQQQQMKWYIWWTTTY,4vnnbvA#.!!!!",
"!!!o#@ivbbmVIYYYTWTWWRWQQDDQQEUIIQQQQQazQQQQQWTTT404rjlbvvc6# !!",
"!!!!+%ivbnVVIIYYTTWWWQQQDTQQQQQKMjVQQQalLQQQWWTTrqqssVnNvZ>##X!!",
"! @#AppxvnnVVccnCnWWWQQQQQQQQQRTQzTQQQQTUUWWWWWTaNttraanv8# !!!!",
"!!X#*ZpvvnnmVITnbDTWWWQQQQQQQQQQQSQQDDTQQWQWWTTTYnIkaarrvg># !!!",
"!! @##AvvnnnIIITYTTWWWWQQQQQQQQQQFQQQDSTQQWWWTTTYIIIInnsa###+ !!",
"!!!@,ZpzpvnnVIIIYTTWWWWQQQDDQQQQQUQQQQDDQDDYTWTYYYIInnbvv@# !!!!",
"!!X@@:Cpr0nnVVYYYTTYDDWQWWDDQQQQQQQQQQQYDTDbITTYYIIInnbbx=@ !!!!",
"!!!@#Apgv2NnmmIYYbbDDDWWQWDDWQDDQQQQQQTQLTTUBITTYYVVnbblx$# !!!!",
"!!+@AAdq40NnmmVIMlacDYWWWQDDWQDDQQQQQQQMsNPTTTTIIIVavr4tjd#o!!!!",
"! X+;ftq42vnnmmJSclITTWWQWDaiLaDQQQQQYTsYszNYYTTIVVrr,4id## !!!!",
"!!!#GCdqq4,rnmmbDKaiTTTWTTzlbzbYQWQWTaasMTTTYTIIIIBvrrqtA@@!!!!!",
"!X###AjewwwvnnmIFIznYYTTTWKITKSTWWWBsBzBMLTYYYIIVVnnrrrpjG#!!!!!",
"!!!+hf8uillvbbnVVILYYTTTTUIWQUDWWWWTssSBTPYYYYIIVBnbburiGG##!!!!",
"!!##hgwwippvvNnnBIDYIYYYTTTTTJWTWWWTssLPTUYYIIVVmnNbvlwrA@## !!!",
"!!###@$g0ippvbbnnmIIIYYYYTYTTTTTYWbvYsMEYYYIIIVBnnvvgppu8go! !!!",
"!   @#h00iisxvvNnmmmmVYYYYWYaTTTTTMaYvsYYYIVVVnavvvvgpuuGA#X!!!!",
"!!!!@g88uuuppvvbbnmmVVIVIYYIaMITYYNsBYsYIIImVVbawv0sgiuwg&## !!!",
"!!!@##wwuuuipllvvNbBmmmVVIVYssYYYIYaMIVYVVmmnnnvr020wu8iCZ#  !!!",
"!! X#$c88uw4<pl0vNbbnmm0lYVVsaIIYIVaMVVVVVmnnNvva220eyAA8*#o!!!!",
"!!!.###cwww7,uw0gvvg4v,30mmVVsIsVVIMsVVmVmnavvvlp0qiww7#*@o#!!!!",
"!!! ####Cw4wqursplvrpl450nnnmaq2rVVBsVmnnl2itllgpiqwcCc#XX+!!!!!",
"!!!! @#,ihwtw8wuiglilvqbrdbnnNq7qnBnvnnbb420qigiiuwj##8#X!!!!!!!",
"!!!!  @7@hwuwwuwuippgltvvjbNNbrxigNNnbvvv24reji9uw66,#o@+!!!!!!!",
"!!!!!.###G$AdAuh8wupppglsvgvvvzvbvvvvvvllqqgZZigg6;##@ ! !!!!!!!",
"!!!!!X @###G6GZdACw6i=idgxlZGGgvAlvgxugbZCte7@Gc@###+@ !!!!!!!!!",
"!!!!!!!#XX@##,#A=gh#=6h##AC*#9gc@Gcg,#p8$8&C&##G@#+# ! !!!!!!!!!",
"!!!!!! !!O@ #o##@*+#o;###>>###Cg@#Ab##u#+@@&#o o# !! !!!!!!!!!!!",
"!!!!!!!!! ! .X@o+@ +X@O o##  @A# @<$# ## X@ # !!@ !!!!!!!!!!!!!!",
"!!!!!!!!!!!!! !!+!!!X+!! + !!.@+! +#.!+#!!!! !!!!!!!!!!!!!!!!!!!",
"!!!!!!!!!!!!!!!!!!!! !!!!!!!!!#!!!!@!!!X!!!!!!!!!!!!!!!!!!!!!!!!",
"!!!!!!!!!!!!!!!!!!!!!!!!!!!!!! !!!! !!!!!!!!!!!!!!!!!!!!!!!!!!!!"
};
