/* XPM */
static char *result[] = {
/* columns rows colors chars-per-pixel */
"64 64 188 2 ",
"   c black",
".  c #081114",
"X  c #353734",
"o  c #353836",
"O  c #383C3A",
"+  c #343C39",
"@  c #39403E",
"#  c #37403F",
"$  c #1A3741",
"%  c #374442",
"&  c #384543",
"*  c #394D4C",
"=  c #38504E",
"-  c #3B5150",
";  c #3D5859",
":  c #295868",
">  c #235178",
",  c #2C677E",
"<  c #435655",
"1  c #475E5D",
"2  c #476E6D",
"3  c #4D7474",
"4  c #447171",
"5  c #527373",
"6  c #567B7B",
"7  c #42687D",
"8  c #1D4B8A",
"9  c #225895",
"0  c #255983",
"q  c #29648E",
"w  c #31778D",
"e  c #266395",
"r  c #286997",
"t  c #2D6B99",
"y  c #306D9B",
"u  c #2D739A",
"i  c #3F7D9B",
"p  c #2862AA",
"a  c #2974A3",
"s  c #3B78A3",
"d  c #4D689B",
"f  c #46739C",
"g  c #407B9B",
"h  c #427CA8",
"j  c #357ECB",
"k  c #39888A",
"l  c #37838B",
"z  c #3F9592",
"x  c #2F8DAE",
"c  c #368CA4",
"v  c #3688A5",
"b  c #3997A9",
"n  c #3C9DAB",
"m  c #3790A5",
"M  c #2D81B2",
"N  c #3D81BB",
"B  c #3FA9B5",
"V  c #5A8888",
"C  c #43948F",
"Z  c #559497",
"A  c #608F8F",
"S  c #629595",
"D  c #4398AA",
"F  c #488AB4",
"G  c #629CBC",
"H  c #45A2AF",
"J  c #4DA9AA",
"K  c #48B7AC",
"L  c #4BB9AE",
"P  c #43AEB1",
"I  c #44B1B2",
"U  c #47BCBE",
"Y  c #4DB7B2",
"T  c #5AB9BC",
"R  c #53ACB6",
"E  c #6CA5A6",
"W  c #65AAB8",
"Q  c #60C1BE",
"!  c #3682CC",
"~  c #3884CC",
"^  c #3C8CCE",
"/  c #3A83C7",
"(  c #3F91CF",
")  c #3F91D0",
"_  c #3C9BD6",
"`  c #35A8C1",
"'  c #3DB2C4",
"]  c #4095D1",
"[  c #449CD2",
"{  c #569DD8",
"}  c #45B9C6",
"|  c #47A2D4",
" . c #49A6D4",
".. c #4DABD6",
"X. c #50B1D7",
"o. c #53B6D9",
"O. c #57BCDA",
"+. c #59BFDB",
"@. c #56BAD1",
"#. c #6EAACD",
"$. c #74AFCC",
"%. c #7ABDC0",
"&. c #49BCE2",
"*. c #79BDE5",
"=. c #3FC6DA",
"-. c #49C6CA",
";. c #46CAD3",
":. c #5AC2DC",
">. c #5EC8DE",
",. c #45D6DE",
"<. c #5FDCD8",
"1. c #5BD4CE",
"2. c #66C5C4",
"3. c #69C3C3",
"4. c #6CC8C7",
"5. c #6EC9C8",
"6. c #75CCCC",
"7. c #79CECE",
"8. c #7AC3CA",
"9. c #61CCDF",
"0. c #7ED1D1",
"q. c #4BCBE7",
"w. c #5DC7E0",
"e. c #55DFE1",
"r. c #63CFE0",
"t. c #64C9E9",
"y. c #65CAE9",
"u. c #65D2E0",
"i. c #69D7E2",
"p. c #6CDCE4",
"a. c #68D8EA",
"s. c #71DFEA",
"d. c #75DBF2",
"f. c #5CEAEC",
"g. c #51EFF3",
"h. c #56F7F9",
"j. c #56F6F8",
"k. c #6FE0E5",
"l. c #67EEEB",
"z. c #71E2E6",
"x. c #79E7EA",
"c. c #7DE9ED",
"v. c #7DE2E6",
"b. c #63EFF0",
"n. c #65E6F3",
"m. c #77EAF5",
"M. c #64F4F9",
"N. c #69FFFF",
"B. c #67F2F0",
"V. c #75FFFF",
"C. c #7CFFFF",
"Z. c #75F2F7",
"A. c #84BCD1",
"S. c #91CCDE",
"D. c #A2DAD9",
"F. c #91D1E2",
"G. c #B0DDE0",
"H. c #81ECEF",
"J. c #8EEBEF",
"K. c #9BE4E5",
"L. c #97E3E4",
"P. c #83E4F8",
"I. c #8AE9F9",
"U. c #93EEF1",
"Y. c #90EDFA",
"T. c #8BF2F3",
"R. c #87FCFC",
"E. c #9AF1F3",
"W. c #93F5FA",
"Q. c #94F9FA",
"!. c #9CFFFF",
"~. c #9BF4FB",
"^. c #A6EDEF",
"/. c #AAE9ED",
"(. c #B9E3E2",
"). c #A8EFF0",
"_. c #ADF4F5",
"`. c #A7F6F9",
"'. c #AAF7F9",
"]. c #AFF9FA",
"[. c #A2F4F7",
"{. c #B4FAFA",
"}. c #B3F7F7",
"|. c #D1EDEC",
" X c #DCF1F1",
".X c #F4FBFA",
"XX c white",
"oX c None",
/* pixels */
"oXoXoXoXoXoXoXoXoXoXoXoXoXoXoXoXoXoXoXoXoXoXoXoXoXoXoXoXoXoXoXoXoXoXoXoXoXoXoXoXoXoXoXoXoXoXoXoXoXoXoXoXoXoXoXoXoXoXoXoXoXoXoXoX",
"oXoXoXoXoXoXoXoXoXoXoXoXoXoXoXoXoXoXoXoXoXoXoXoXoXoXoXoXoXoXoXoXoXoXoXoXoXoXoXoXoXoXoXoXoXoXoXoXoXoXoXoXoXoXoXoXoXoXoXoXoXoXoXoX",
"oXoXoXoXoXoXoXoXoXoXoXoXoXoXoXoXoXoXoXoXoXoXoXoXoXoXoXoXoXoXoXoXoXoXoXoXoXoXoXoXoXoXoXoXoXoXoXoXoXoXoXoXoXoXoXoXoXoXoXoXoXoXoXoX",
"oXoXoXoXoXoXoXoXoXoXoXoXoXoXoXoXoXoXoXoXoXoXoXoXoXoXoXoXoXoXoXoXoXoXoXoXoXoXoXoXoXoXoXoXoXoXoXoXoXoXoXoXoXoXoXoXoXoXoXoXoXoXoXoX",
"oXoXoXoXoXoXoXoXoXoXoXoXoXoXoXoXoXoXoXoXoXoXoXoXoXoXoXoXoXoXoXoXoXoXoXoXoXoXoXoXoXoXoXoXoXoXoXoXoXoXoXoXoXoXoXoXoXoXoXoXoXoXoXoX",
"oXoXoXoXoXoXoXoXoXoXoXoXoXoXoXoXoXoXoXoXoXoXoXoXoXoXoXoXoXoXoXoXoXoXoXoXoXoXoXoXoXoXoXoXoXoXoXoXoXoXoXoXoXoXoXoXoXoXoXoXoXoXoXoX",
"oXoXoXoXoXoXoXoXoXoXoXoXoXoXoXoXoXoXoXoXoXoXoXoXoXoXoXoXoXoXoXoXoXoXoXoXoXoXoXoXoXoXoXoXoXoXoXoXoXoXoXoXoXoXoXoXoXoXoXoXoXoXoXoX",
"oXoXoXoXoXoXoXoXoXoXoXoXoXoXoXoXoXoXoXoXoXoXoXoXoXoXoXoXoXoXoXoXoXoXoXoXoXoXoXoXoXoXoXoXoXoXoXoXoXoXoXoXoXoXoXoXoXoXoXoXoXoXoXoX",
"oXoXoXoXoXoXoXoXoXoXoXoXoXoXoXoXoXoXoXoXoXoXoXoXoXoXoXoXoXoXoXoXoXoXoXoXoXoXoXoXoXoXoXoXoXoXoXoXoXoXoXoXoXoXoXoXoXoXoXoXoXoXoXoX",
"oXoXoXoXoXoXoXoXoXoXoXoXoXoXoXoXoXoXoXoXoXoXoXoXoXoXoXoXoXoXoXoXoXoXoXoXoXoXoXoXoXoXoXoXoXoXoXoXoXoXoXoXoXoXoXoXoXoXoXoXoXoXoXoX",
"oXoXoXoXoXoXoXoXoXoXoXoXoXoXoXoXoXoXoXoXoXoXoXoXoXoXoXoXoXoXoXoXoXoXoXoXoXoXoXoXoXoXoXoXoXoXoXoXoXoXoXoXoXoXoXoXoXoXoXoXoXoXoXoX",
"oXoXoXoXoXoXoXoXoXoXoXoXoXoXoXoXoXoXoXoXoXoXoXoXoXoXoXoXoXoXoXoXoXoXoXoXoXoXoXoXoXoXoXoXoXoXoXoXoXoXoXoXoXoXoXoXoXoXoXoXoXoXoXoX",
"oXoXoXoXoXoXoXoXoXoXoXoXoXoXoXoXoXoXoXoXoXoXoXoXoXoXoXoXoXoXoXoXoXoXoXoXoXoXoXoXoXoXoXoXoXoXoXoXoXoXoXoXoXoXoXoXoXoXoXoXoXoXoXoX",
"oXoXoXoXoXoXoXoXoXoXoXoXoXoXoXoXoXoXoXoXoXoXoXoXoXoXoXoXoXoXoXoXoXoXoXoXoXoXoXoXoXoXoXoXoXoXoXoXoXoXoXoXoXoXoXoXoXoXoXoXoXoXoXoX",
"oXoXoXoXoXoXoXoXoXoXoXoXoXoXoXoXoXoXoXoXoXoXoXoX                              oXoXoXoXoXoXoXoXoXoXoXoXoXoXoXoXoXoXoXoXoXoXoXoXoX",
"oXoXoXoXoXoXoXoXoXoXoXoXoXoXoXoXoXoXoXoXoXoXoX  $ 8 j j j j j j j j j j j p :   oXoXoXoXoXoXoXoXoXoXoXoXoXoXoXoXoXoXoXoXoXoXoXoX",
"oXoXoXoXoXoXoXoXoXoXoXoXoXoXoXoXoXoXoXoXoXoX  $ M l q.( [ ( ] ~.t.[ ] ( ] 9 q j   oXoXoXoXoXoXoXoXoXoXoXoXoXoXoXoXoXoXoXoXoXoXoX",
"oXoXoXoXoXoXoXoXoXoXoXoXoXoXoXoXoXoXoXoXoX  $ ~ ] r t ....X...I.t.........t 9 ] j     oXoXoXoXoXoXoXoXoXoXoXoXoXoXoXoXoXoXoXoXoX",
"oXoXoXoXoXoXoXoXoXoXoXoXoXoXoXoXoXoXoXoX  # N ]  .x D u.:.:.:.P.y.:.:.:.g.Q n. .] o X   oXoXoXoXoXoXoXoXoXoXoXoXoXoXoXoXoXoXoXoX",
"oXoXoXoXoXoXoXoXoXoXoXoXoXoXoXoXoXoXoX  O 1 = ..@.m.@.g.u.u.u.u.u.u.u.u.c v +.X. .* & o   oXoXoXoXoXoXoXoXoXoXoXoXoXoXoXoXoXoXoX",
"oXoXoXoXoXoXoXoXoXoXoXoXoXoXoXoXoXoX  @ & 6 5 @.:.u.b n z.z.z.z.z.k.z.!.7.N.r.O.C V 5 & o   oXoXoXoXoXoXoXoXoXoXoXoXoXoXoXoXoXoX",
"oXoXoXoXoXoXoXoXoXoXoXoXoXoXoXoXoX  o & f S S.:.u.i.C.0.P P P P I I I I I c.i.r.+.4 A 5 < o   oXoXoXoXoXoXoXoXoXoXoXoXoXoXoXoXoX",
"oXoXoXoXoXoXoXoXoXoXoXoXoXoXoXoX  $ ; - S E -.9.i.!.P ).F { { { { { { $.7.P x.i.r.+.E 3 * h   oXoXoXoXoXoXoXoXoXoXoXoXoXoXoXoXoX",
"oXoXoXoXoXoXoXoXoXoXoXoXoXoXoX  $ ^ (  .@.:.r.p.!.P ).^ s  . .|  . . .s ! 7.P H.i.r.+.X.| ) j   oXoXoXoXoXoXoXoXoXoXoXoXoXoXoXoX",
"oXoXoXoXoXoXoXoXoXoXoXoXoXoX  $ _ )  .o.:.r.p.!.P ^.^  .v a.9.>.>.>.' M. .! 0.I H.i.r.+.X.| ( 9   oXoXoXoXoXoXoXoXoXoXoXoXoXoXoX",
"oXoXoXoXoXoXoXoXoXoXoXoXoXoX  0 l r h.:.r.p.!.P ).^ ..:.R.-.W.W.Q.Q.|.u.O.[ ! 7.I x.u.r.a.` e k : oXoXoXoXoXoXoXoXoXoXoXoXoXoXoX",
"oXoXoXoXoXoXoXoXoXoXoXoXoXoX  j ` t 2.m ,.!.P ).^  .:.i.e.XXXXXXXXXX(.Q.r.O. .! 7.I !.b R n t q.: oXoXoXoXoXoXoXoXoXoXoXoXoXoXoX",
"oXoXoXoXoXoXoXoXoXoXoXoXoXoX  ! ] X.V.b T 2.).^ ..:.u.f.XX.XK K K K XX(.Q.u.+.[ ~ 6.0.n =.a...( : oXoXoXoXoXoXoXoXoXoXoXoXoXoXoX",
"oXoXoXoXoXoXoXoXoXoXoXoXoXoX  j [ ..:.u.Q.I 8 /.} p.e.XX.Xv.`.'.'.E.1.XX(.Q.c.u G _.P z.r.O. .^ : oXoXoXoXoXoXoXoXoXoXoXoXoXoXoX",
"oXoXoXoXoXoXoXoXoXoXoXoXoXoX  j [ X.>.u.Q.I ~  .N.8.XX.Xv.'.].d d ].[.B.XX XB s.[ _.P p.r.O. .] : oXoXoXoXoXoXoXoXoXoXoXoXoXoXoX",
"oXoXoXoXoXoXoXoXoXoXoXoXoXoX  ! [ ..:.u.Q.I ! ..9.C.XXK '.{.S.f }.{.].U.|.|.k.w.[ }.P p.r.+. .] : oXoXoXoXoXoXoXoXoXoXoXoXoXoXoX",
"oXoXoXoXoXoXoXoXoXoXoXoXoXoX  j d.d.d.u.Q.I !  .9.C.XX<.'.{.f i g {.{.U.|.|.p.w.[ }.P p.r.d.d.m.: oXoXoXoXoXoXoXoXoXoXoXoXoXoXoX",
"oXoXoXoXoXoXoXoXoXoXoXoXoXoX  j Y.I.m.u.Q.I j ..9.C.XXl.'.{.{./.#.{.{.U.|.|.k.:.| }.P p.u.P.I.W.: oXoXoXoXoXoXoXoXoXoXoXoXoXoXoX",
"oXoXoXoXoXoXoXoXoXoXoXoXoXoX  ! [ X.:.u.Q.I ! ..9.C.XXf.`.{.{.f {.{.{.J.|.|.k.>.[ _.P p.9.O. .] : oXoXoXoXoXoXoXoXoXoXoXoXoXoXoX",
"oXoXoXoXoXoXoXoXoXoXoXoXoXoX  j [ X.:.u.Q.I ! ..f.G.XXXX!.'._.{.{.{.U.Y XXD.H Z.[ _.P p.u.+. .( : oXoXoXoXoXoXoXoXoXoXoXoXoXoXoX",
"oXoXoXoXoXoXoXoXoXoXoXoXoXoX  j [ ..:.u.!.I 8 A.f.i.b.XXXX!.`.'._.U.L XX2.T.s.v S._.P x.9.O. .] : oXoXoXoXoXoXoXoXoXoXoXoXoXoXoX",
"oXoXoXoXoXoXoXoXoXoXoXoXoXoX  ! [ ..N.c 3.T L.^  .:.i.b.XXXXK K K K XX3.T.u.O.[ ~ 5.6.H ` Z. .) : oXoXoXoXoXoXoXoXoXoXoXoXoXoXoX",
"oXoXoXoXoXoXoXoXoXoXoXoXoXoX  j a r 2.v h.!.P K.^  .:.i.b.XXXXXXXXXX3.T.u.O.| ~ 5.} !.U D J r ;.: oXoXoXoXoXoXoXoXoXoXoXoXoXoXoX",
"oXoXoXoXoXoXoXoXoXoXoXoXoXoX  , w e N.:.r.p.!.I K.^  .:.R.-.T.H.T.T.|.u.O.| ~ 5.U z.i.>.w.=.9 k : oXoXoXoXoXoXoXoXoXoXoXoXoXoXoX",
"oXoXoXoXoXoXoXoXoXoXoXoXoXoXoX. ~ [  .o.:.r.p.!.I K.^ ..D 9.>.>.>.:.;.M.| ~ 5.-.z.i.r.:.X. .] p   oXoXoXoXoXoXoXoXoXoXoXoXoXoXoX",
"oXoXoXoXoXoXoXoXoXoXoXoXoXoXoXoX. ~ )  .} 9.i.p.!.P K.^ y  . . . . . .G ! 5.U z.i.r.+.X.[ ] j   oXoXoXoXoXoXoXoXoXoXoXoXoXoXoXoX",
"oXoXoXoXoXoXoXoXoXoXoXoXoXoXoXoXoX. & - S W 9.u.p.!.P L.#.*.*.*.*.*.*.F.5.U z.i.r.+.4 5 * 7   oXoXoXoXoXoXoXoXoXoXoXoXoXoXoXoXoX",
"oXoXoXoXoXoXoXoXoXoXoXoXoXoXoXoXoX  @ 1 6 6 Z +.r.p.N.S.P P P K I I I I I c.i.>.:.E 3 5 & X   oXoXoXoXoXoXoXoXoXoXoXoXoXoXoXoXoX",
"oXoXoXoXoXoXoXoXoXoXoXoXoXoXoXoXoXoX  o < 6 V o.:.r.b D k.k.z.k.p.k.k.!.6.N.9.:.z V 5 < o   oXoXoXoXoXoXoXoXoXoXoXoXoXoXoXoXoXoX",
"oXoXoXoXoXoXoXoXoXoXoXoXoXoXoXoXoXoXoX  o & = ..o.Z.2.h.u.u.u.u.u.u.u.u.c c :.X.| - < o   oXoXoXoXoXoXoXoXoXoXoXoXoXoXoXoXoXoXoX",
"oXoXoXoXoXoXoXoXoXoXoXoXoXoXoXoXoXoXoXoX  X / ] ..a m w.+.:.+.P.y.:.:.:.j.T b.| ) + o   oXoXoXoXoXoXoXoXoXoXoXoXoXoXoXoXoXoXoXoX",
"oXoXoXoXoXoXoXoXoXoXoXoXoXoXoXoXoXoXoXoXoX  . ~ ) u r X.......I.y.......X.t q ( j     oXoXoXoXoXoXoXoXoXoXoXoXoXoXoXoXoXoXoXoXoX",
"oXoXoXoXoXoXoXoXoXoXoXoXoXoXoXoXoXoXoXoXoXoXoX. a l &.) ] ) ) ~.t.( ( _ ] 9 q !   oXoXoXoXoXoXoXoXoXoXoXoXoXoXoXoXoXoXoXoXoXoXoX",
"oXoXoXoXoXoXoXoXoXoXoXoXoXoXoXoXoXoXoXoXoXoXoXoX. > t y t y y y y y t y y q :   oXoXoXoXoXoXoXoXoXoXoXoXoXoXoXoXoXoXoXoXoXoXoXoX",
"oXoXoXoXoXoXoXoXoXoXoXoXoXoXoXoXoXoXoXoXoXoXoXoXoX                            oXoXoXoXoXoXoXoXoXoXoXoXoXoXoXoXoXoXoXoXoXoXoXoXoX",
"oXoXoXoXoXoXoXoXoXoXoXoXoXoXoXoXoXoXoXoXoXoXoXoXoXoXoXoXoXoXoXoXoXoXoXoXoXoXoXoXoXoXoXoXoXoXoXoXoXoXoXoXoXoXoXoXoXoXoXoXoXoXoXoX",
"oXoXoXoXoXoXoXoXoXoXoXoXoXoXoXoXoXoXoXoXoXoXoXoXoXoXoXoXoXoXoXoXoXoXoXoXoXoXoXoXoXoXoXoXoXoXoXoXoXoXoXoXoXoXoXoXoXoXoXoXoXoXoXoX",
"oXoXoXoXoXoXoXoXoXoXoXoXoXoXoXoXoXoXoXoXoXoXoXoXoXoXoXoXoXoXoXoXoXoXoXoXoXoXoXoXoXoXoXoXoXoXoXoXoXoXoXoXoXoXoXoXoXoXoXoXoXoXoXoX",
"oXoXoXoXoXoXoXoXoXoXoXoXoXoXoXoXoXoXoXoXoXoXoXoXoXoXoXoXoXoXoXoXoXoXoXoXoXoXoXoXoXoXoXoXoXoXoXoXoXoXoXoXoXoXoXoXoXoXoXoXoXoXoXoX",
"oXoXoXoXoXoXoXoXoXoXoXoXoXoXoXoXoXoXoXoXoXoXoXoXoXoXoXoXoXoXoXoXoXoXoXoXoXoXoXoXoXoXoXoXoXoXoXoXoXoXoXoXoXoXoXoXoXoXoXoXoXoXoXoX",
"oXoXoXoXoXoXoXoXoXoXoXoXoXoXoXoXoXoXoXoXoXoXoXoXoXoXoXoXoXoXoXoXoXoXoXoXoXoXoXoXoXoXoXoXoXoXoXoXoXoXoXoXoXoXoXoXoXoXoXoXoXoXoXoX",
"oXoXoXoXoXoXoXoXoXoXoXoXoXoXoXoXoXoXoXoXoXoXoXoXoXoXoXoXoXoXoXoXoXoXoXoXoXoXoXoXoXoXoXoXoXoXoXoXoXoXoXoXoXoXoXoXoXoXoXoXoXoXoXoX",
"oXoXoXoXoXoXoXoXoXoXoXoXoXoXoXoXoXoXoXoXoXoXoXoXoXoXoXoXoXoXoXoXoXoXoXoXoXoXoXoXoXoXoXoXoXoXoXoXoXoXoXoXoXoXoXoXoXoXoXoXoXoXoXoX",
"oXoXoXoXoXoXoXoXoXoXoXoXoXoXoXoXoXoXoXoXoXoXoXoXoXoXoXoXoXoXoXoXoXoXoXoXoXoXoXoXoXoXoXoXoXoXoXoXoXoXoXoXoXoXoXoXoXoXoXoXoXoXoXoX",
"oXoXoXoXoXoXoXoXoXoXoXoXoXoXoXoXoXoXoXoXoXoXoXoXoXoXoXoXoXoXoXoXoXoXoXoXoXoXoXoXoXoXoXoXoXoXoXoXoXoXoXoXoXoXoXoXoXoXoXoXoXoXoXoX",
"oXoXoXoXoXoXoXoXoXoXoXoXoXoXoXoXoXoXoXoXoXoXoXoXoXoXoXoXoXoXoXoXoXoXoXoXoXoXoXoXoXoXoXoXoXoXoXoXoXoXoXoXoXoXoXoXoXoXoXoXoXoXoXoX",
"oXoXoXoXoXoXoXoXoXoXoXoXoXoXoXoXoXoXoXoXoXoXoXoXoXoXoXoXoXoXoXoXoXoXoXoXoXoXoXoXoXoXoXoXoXoXoXoXoXoXoXoXoXoXoXoXoXoXoXoXoXoXoXoX",
"oXoXoXoXoXoXoXoXoXoXoXoXoXoXoXoXoXoXoXoXoXoXoXoXoXoXoXoXoXoXoXoXoXoXoXoXoXoXoXoXoXoXoXoXoXoXoXoXoXoXoXoXoXoXoXoXoXoXoXoXoXoXoXoX",
"oXoXoXoXoXoXoXoXoXoXoXoXoXoXoXoXoXoXoXoXoXoXoXoXoXoXoXoXoXoXoXoXoXoXoXoXoXoXoXoXoXoXoXoXoXoXoXoXoXoXoXoXoXoXoXoXoXoXoXoXoXoXoXoX"
};
