/* XPM */
static char *result[] = {
/* columns rows colors chars-per-pixel */
"64 64 86 1 ",
"  c #000000",
". c #080707",
"X c #070708",
"o c #0E0E0F",
"O c #171616",
"+ c #181717",
"@ c #1B1A1A",
"# c #201F1E",
"$ c #242323",
"% c #292827",
"& c #2C2C2C",
"* c #302F2E",
"= c #32312F",
"- c #343333",
"; c #3C3B3A",
": c #403F3E",
"> c #42413F",
", c #424243",
"< c #484846",
"1 c #47484C",
"2 c #4C4B4B",
"3 c #504F4E",
"4 c #51504F",
"5 c #545353",
"6 c #585756",
"7 c #585857",
"8 c #54565C",
"9 c #5C5C5B",
"0 c #605F5F",
"q c #5C5D63",
"w c #5F6066",
"e c #626262",
"r c #63656B",
"t c #6C6D6D",
"y c #6A6C72",
"u c #6F7077",
"i c #737474",
"p c #75767B",
"a c #77787D",
"s c #7A7B7B",
"d c #807F7F",
"f c #7A7C82",
"g c #838383",
"h c #868789",
"j c #878A89",
"k c #8C8D8D",
"l c #91908F",
"z c #8E9192",
"x c #929494",
"c c #999795",
"v c #9A9997",
"b c #97979B",
"n c #979A9B",
"m c #9B9C9C",
"M c #A09F9E",
"N c #A1A09E",
"B c #A5A5A4",
"V c #A8A7A6",
"C c #ACACAC",
"Z c #B1B0AF",
"A c #B3B3B2",
"S c #B8B7B6",
"D c #BAB9B7",
"F c #BCBCBC",
"G c #C1BFBF",
"H c #C0C0BF",
"J c #C4C3C3",
"K c #C8C7C5",
"L c #C9C8C7",
"P c #CACACA",
"I c #D0CFCE",
"U c #D3D1CF",
"Y c #D4D3D2",
"T c #D8D7D6",
"R c #D9D8D6",
"E c #DDDCDB",
"W c #E0DFDE",
"Q c #E0E0DF",
"! c #E3E3E3",
"~ c #E8E7E6",
"^ c #E8E8E7",
"/ c #ECECEC",
"( c #F0EFEF",
") c #F0F0EF",
"_ c #F2F1F1",
"` c None",
/* pixels */
"````````````````````````````````````````````````````````````````",
"````````````````````````````````````````````````````````````````",
"````````````````````````````````````````````````````````````````",
"````````````````````````````````````````````````````````````````",
"````````````````````````````````````````````````````````````````",
"````````````````````````````````````````````````````````````````",
"````````````````````````````````````````````````````````````````",
"````````````````````````````````````````````````````````````````",
"````````````````````````````````````````````````````````````````",
"````````````````````````````````````````````````````````````````",
"````````````````````````````````````````````````````````````````",
"````````````````````````````````````````````````````````````````",
"````````````````````````````````````````````````````````````````",
"````````````````````````````````````````````````````````````````",
"````````````````````````````````````````````````````````````````",
"``````````````````````````````    ``````````````````````````````",
"``````````````````````````  -fnVCbrX  ``````````````````````````",
"```````````````````````` ,PV/////_//Ei  ````````````````````````",
"`````````````````````` &$>&VE_/)(_/_/!kC ```````````````````````",
"````````````````````` &995,@HQQ__(__/_!kQ, `````````````````````",
"```````````````````` 5eew93*+FLPQ!^__!JDFEi ````````````````````",
"``````````````````` ;7eewq;+BQFnzFPQ!K@;<fEy ```````````````````",
"`````````````````` x,6eew:+F_____Qmxe&2597gE&```````````````````",
"``````````````````,C;579,@D________!+-69eqqAT ``````````````````",
"````````````````` Ph&;2;+B(_________p-qweee7Fk `````````````````",
"`````````````````rL5OO++t_(_________Q@>eeee5*A `````````````````",
"```````````````` GsREREJJ/__________^+;9w0q4@J8`````````````````",
"```````````````` NC^//^Fx!___________x;5755,5EJ ````````````````",
"````````````````ri!^^//!kE___________I+-----HE! ````````````````",
"``````````````` hA^~///!DK__________^FPVOOOOH(/O````````````````",
"``````````````` tQ!~^/(^HnQ________^PbI!!EJxHQ(1````````````````",
"``````````````` tQ!~/^//QzY_______^IzP!____LFE/q````````````````",
"``````````````` lW!!~//)EJF!!^!!_!PbP!___((EnE/8````````````````",
"``````````````` @E!^~^//EJOO+tLLPPzL!____((/hT^,````````````````",
"``````````````` -JQ!~^/EFO&=-=*#+qJ!____((((hF^X````````````````",
"````````````````&eE!^^^Rt&<4653,-O!___)_((//hZY ````````````````",
"```````````````` @HW!~RAO<590066,OE_))/)(///nZZ ````````````````",
"```````````````` ;evNLUx=59eee061@J_)))////^OOe`````````````````",
"`````````````````@vciisO>6qeeee64%H//)////^J@& `````````````````",
"````````````````` cFHLPc;60eeee04&FQ////^^!+;& `````````````````",
"``````````````````-YTEYD#36000061&DR//~^^!@,9 ``````````````````",
"`````````````````` sYTEKN#506063;#zgNHUYR+,eX```````````````````",
"``````````````````` dYTEHV#235:%ZJTHCCVm@;9@ ```````````````````",
"```````````````````` dUTRGGi+NNII!^!EUPL@<@ ````````````````````",
"````````````````````` aHYRKckKK!Q!!!QQQS%. `````````````````````",
"`````````````````````` odIKksGEEEEQEEEEy ```````````````````````",
"```````````````````````` o+-7SYTRRRRDa  ````````````````````````",
"``````````````````````````  @;%ffp,  ```````````````````````````",
"```````````````````````````````  ```````````````````````````````",
"````````````````````````````````````````````````````````````````",
"````````````````````````````````````````````````````````````````",
"````````````````````````````````````````````````````````````````",
"````````````````````````````````````````````````````````````````",
"````````````````````````````````````````````````````````````````",
"````````````````````````````````````````````````````````````````",
"````````````````````````````````````````````````````````````````",
"````````````````````````````````````````````````````````````````",
"````````````````````````````````````````````````````````````````",
"````````````````````````````````````````````````````````````````",
"````````````````````````````````````````````````````````````````",
"````````````````````````````````````````````````````````````````",
"````````````````````````````````````````````````````````````````",
"````````````````````````````````````````````````````````````````",
"````````````````````````````````````````````````````````````````"
};
