/* XPM */
static char *result[] = {
/* columns rows colors chars-per-pixel */
"64 64 69 1 ",
"  c black",
". c #272423",
"X c #282625",
"o c #2C2B2A",
"O c #302F2E",
"+ c #353434",
"@ c #3B3737",
"# c #3C3837",
"$ c #3C3B3B",
"% c #413E3C",
"& c #43403F",
"* c #454342",
"= c #494644",
"- c #4C4846",
"; c #4B4749",
": c #4D4B4B",
"> c #514E4C",
", c #55514E",
"< c #59544E",
"1 c #544F51",
"2 c #555352",
"3 c #595654",
"4 c #5D5955",
"5 c #595659",
"6 c #5E5B5B",
"7 c #625B56",
"8 c #625E5C",
"9 c #63615E",
"0 c #69635E",
"q c #5F5F60",
"w c #635E61",
"e c #666362",
"r c #696663",
"t c #6B6966",
"y c #666469",
"u c #696669",
"i c #6E6B6A",
"p c #706E6C",
"a c #72706E",
"s c #6D6B70",
"d c #716E71",
"f c #757472",
"g c #787776",
"h c #797877",
"j c #777678",
"k c #797678",
"l c #7C7C7B",
"z c #807F7D",
"x c #82817F",
"c c #858483",
"v c #888785",
"b c #898887",
"n c #88878B",
"m c #8C8C8B",
"M c #908F8E",
"N c #8F908F",
"B c #90908E",
"V c #8D8F91",
"C c #8E9191",
"Z c #959493",
"A c #989897",
"S c #979B9C",
"D c #9C9C9B",
"F c #A3A2A2",
"G c #A8A7A7",
"H c #A7A8A8",
"J c #ACACAC",
"K c #B4B4B3",
"L c None",
/* pixels */
"LLLLLLLLLLLLLLLLLL                            LLLLLLLLLLLLLLLLLL",
"LLLLLLLLLLLLLLLLL 9$rryrrrrrrerrrrrrrerrrerr$= LLLLLLLLLLLLLLLLL",
"LLLLLLLLLLLLLLLL zr$rSrrrrrrttttertrrrreetCclr= LLLLLLLLLLLLLLLL",
"LLLLLLLLLLLLLLL vrmmcrtiitiitttieriiiitwqit$tSr= LLLLLLLLLLLLLLL",
"LLLLLLLLLLLLLL mrrtt*riipiiipiiieiiiiiieeix2iqr0= LLLLLLLLLLLLLL",
"LLLLLLLLLLLLL Br8tiiqmpppppppppawppaapiwea;litttr= LLLLLLLLLLLLL",
"LLLLLLLLLLLL Brrt9ia*+>222333333;433222::2o8eittrr= LLLLLLLLLLLL",
"LLLLLLLLLLL Brtrtiy&r=dffff4%%%%+$%%fffyrmD&6pitter: LLLLLLLLLLL",
"LLLLLLLLLL Brrripp&8gZfgggh>iuuy8tr2jjfeu;fa=qii<790: LLLLLLLLLL",
"LLLLLLLLL Zrttiip&rapg;pghhhtppiyip:hjhynfyff-q0774<e: LLLLLLLLL",
"LLLLLLLL Zrrrira*rgtypzShhlh-gjdgggilhhi>h5qfa#,774trr- LLLLLLLL",
"LLLLLLL Zrrriia&rpg07>l:zzlldzldll=lllzz>hq2fia:>40ierr: LLLLLLL",
"LLLLLL Brrttia&rpf0r-7l2zlxzzzzjlxxzxlzqNljesjfa-9irtrr0= LLLLLL",
"LLLLL Brrttia=rfff7trp<h@@$$%%&$&&$$$$@5z:ldhgffa>4iiiirr= LLLLL",
"LLLL Brrtiip=e:,ggguizc+eeee0000yeeeeee6gzpllhgf=e;9iirtrr= LLLL",
"LLL Mrr8iip=ra:i3hhlzb+pZSDFGJKKKJHHFSAZqfzllhl>i,a:qiittrr= LLL",
"LL crriiqa*taff2g2lzn+pNZDDFGJKKKKJGDDAZNqjxzl:h4gfa=qpittrr= LL",
"L zertiip&tafjgh22znOfmNZADFGJKKKJGFFDAZmmqjll44hhgpa-8ipttr0- L",
" rrSirip*esfjhhllhnOavmNZDDFGJKKKJJFDDABNvxehfllljgfaa=qptttNr- ",
" $*arip&eatpghllzbOfxvbNZADFGJKKKJJGFDABNvczejzzlljfjfa=6pitv$$ ",
" rf*&Z#rffep2llzvOalxvbNZDDFGJKKKJJFDDAZmvcxz0lzllj5e3aa*6f$prr ",
" eSiiv&afsp:hllnOghlxvbNZAFFGJKKKKJGFDABmvczhfrhzrlj2rfN*.ZitSr ",
" rriipaA=:CfzqxOgaglxvmNZDDFGJKKKKGFFSAZmvczlfaidz2lhC*eh$piirr ",
" r6qeytfjls>clohaagzxxmNZDDFGJKKKJJGFDZZmvczhfaipjx2=Csst#reerr ",
" rriipafghllCohtpaglxxMBZADFGJKKKJJFFDABMvczhfatys2clhgff%piitr ",
" rrripaffhllzoetpaglxmmBZDDFGJKKKJJFFDABBbczhgaiycCllhggf%pitrr ",
" r777iafgghlzoeipfgxxxmBZDDGGJKKKJGGDDABmvxlhfaircZzllgff%piirr ",
" r477746igllzoetpaghxxmBZDDFGJKKKKJFFDAAMvcxlfairvSzlhk4f%pitrr ",
" r4<33r$e-3lloetiahzxxMBZADFGJKKKJJGFDDBmvcxlfairbCji*67#&pitrr ",
" rrripf%idk>zoeiiffhxxxBZDFFGJKKKJGGDDABNvxxlfairmSllgpy%&ppttr ",
" rrippa%tfgxzoyrpahzxmBBZADFGJKKKKGFFDAZNvxzhaaiymFllgpr%&piirr ",
" rriipa%ipgzzoerifhzxxmBZADFGJJKKJJFFDABmmxzlgairZSzlgpr%*pitrr ",
" yttiip&idhzzoetpaggxxbMZDDFGJKKKKJFFDAMMvczhgai0BDzlgir%*ppurr ",
" 656qqy@qshzzoetpagzxvmMZDDFGJKKKJJGFDABMbxxhfairNzstyy5$%pirrr ",
" rriipa&iah=loetpagzxvmMZDDFGJKKKKGFFDABmvxzlgatrmlhlgpr%&piirr ",
" rrtiap&i-elzoeypagzxvmBBADFGJKKKJJFDDAZBvxxhfairbDpl223%%ppttr ",
" rriidfragllxoeipfzzxvmBADDFGJKKKJJFFDAMmvxxlgairvHllhgqf&aitrr ",
" rrriipfjghlloeiiafgxvbBBDDFGJKKKJJGFDABNvcxgaaiycHxlhhga&iiirr ",
" 556qqeyufhzloeiiazzxxbBBADFGJKKKJJFFDABNvxxlaaircNllhjff%piirr ",
" rrippdfuhhlcOjuiafgxvmBADFFGJKKKKGFFDAZmmxxhgairi:Clljhf%pprur ",
" rtiipiggv;>CzOhaafzzxMBZDDFGJKKKKGGDDAMMvxzhfaiplze>chff%pitrr ",
" rr6ippF*5cls:lOzfazzxmMZADFGJKKKJJFFDAZMvczlgatlliljD:,x%aiirr ",
" rCtaq$Cfg>pjfjxOfzzxxmMZDDFGJKKKKJFFDAZMbczhfucz5lf>jgx9.ZitSr ",
" rc%*m*6ffr:gfllz+azxxmMZDDFGJKKKJJFDDAZMbxzhyclllh>t=ga&0B&2rr ",
" $6rrip*8ffgdhhllx@axxMMZZDFHJKKKJGGFDABMvczyccllhjjfaa&0iiil$# ",
" qrSiiip=8fughhhlzl+zxmMZDDHHJKKKKJFFDABMvcwclllljgffa&riiirSrO ",
"L l0riiip=3fggggu:zz@amMZDSFHJKKKJJGDDAZMb8xft<70t999&eiiirrrO L",
"LL hrrriie=6ffgedgzzz#aMZSDFHJKKKJJFFDABm8czhl5gpgfa=er904<rO LL",
"LLL crritip-9f4ifhlllx#iZDDFHJKKKJHHFSACqzzzlhh,itf=0piirrrO LLL",
"LLLL crrtiia-9-89rr0r9i+eeeeeqeeeetq0ee6dllllhjg&a=rpitrrrO LLLL",
"LLLLL crr<4r9=9ffgfhrlxmfhslnnvvvvncfll2l2rlhgffa=riiitrrO LLLLL",
"LLLLLL crritip-9fpgh8yl,zzjzllzzlzzzhllgA5fhhfga=rtittrrO LLLLLL",
"LLLLLLL crrtipp-9ffhiql:llllazzlzz=ljlll>lp>gaa=riirtrrO LLLLLLL",
"LLLLLLLL crrttip=6a2ehjAlhlh=gggjjhsjhgl:l&qga*rpittrrO LLLLLLLL",
"LLLLLLLLL crrttpt=8ffh*hjjjgipapppp=agjjCqffa*eiittrrO LLLLLLLLL",
"LLLLLLLLLL crrtrip=8aDmffjf:ttttttt2jffjf;fi&0aittrrO LLLLLLLLLL",
"LLLLLLLLLLL cretiip&8$ff0af7%%%%$&%%aaafaDC&0iiirrrO LLLLLLLLLLL",
"LLLLLLLLLLLL zrutipp-#223---333>33333333,,XeiitirrO LLLLLLLLLLLL",
"LLLLLLLLLLLLL crrtti2cippp79779448tppaiipp3hitrrrO LLLLLLLLLLLLL",
"LLLLLLLLLLLLLL grrti&iiiiiiipp4,68774iiiiil=irrrO LLLLLLLLLLLLLL",
"LLLLLLLLLLLLLLL hrCvZttttitiiitqttttttttiii$tSrO LLLLLLLLLLLLLLL",
"LLLLLLLLLLLLLLLL he$uStrrrrrrrr0ttttttttrrSNprO LLLLLLLLLLLLLLLL",
"LLLLLLLLLLLLLLLLL 2&0rrrrrrrrrrr0rtr0t00rrer$O LLLLLLLLLLLLLLLLL",
"LLLLLLLLLLLLLLLLLL                            LLLLLLLLLLLLLLLLLL"
};
