/* XPM */
static char *_33f7b1b31874934c3ea67b181dfb7507Oucbnop4P0UiIcy[] = {
/* columns rows colors chars-per-pixel */
"64 64 217 2 ",
"   c None",
".  c #141312",
"X  c #1A1817",
"o  c #1A1917",
"O  c #1B1917",
"+  c #1B1A17",
"@  c #1B1918",
"#  c #1B1A18",
"$  c #1B1B19",
"%  c #1E1B19",
"&  c #1C1B1A",
"*  c #1D1D19",
"=  c #1D1D1D",
"-  c #20201A",
";  c #25221E",
":  c #2B231E",
">  c #29291E",
",  c #372218",
"<  c #3A241A",
"1  c #3F281C",
"2  c #2E2E22",
"3  c #232429",
"4  c #26272C",
"5  c #26272D",
"6  c #27282E",
"7  c #332721",
"8  c #3F2C23",
"9  c #303020",
"0  c #303023",
"q  c #323322",
"w  c #333322",
"e  c #323223",
"r  c #343423",
"t  c #353523",
"y  c #353424",
"u  c #373724",
"i  c #373825",
"p  c #393A27",
"a  c #3A3A26",
"s  c #3A3B26",
"d  c #3B3B27",
"f  c #37362A",
"g  c #38322C",
"h  c #3F362E",
"j  c #39392A",
"k  c #3D3D28",
"l  c #3C3C29",
"z  c #3E3E29",
"x  c #3F3F29",
"c  c #3E3E2A",
"v  c #2B2C33",
"b  c #2E2F37",
"n  c #432B1E",
"m  c #432A1F",
"M  c #462B1F",
"N  c #472C1F",
"B  c #472E20",
"V  c #482C20",
"C  c #492D20",
"Z  c #4A2E21",
"A  c #4B2F21",
"S  c #4C2F22",
"D  c #4C3022",
"F  c #4D3022",
"G  c #4F3123",
"H  c #4E3426",
"J  c #503223",
"K  c #513324",
"L  c #533425",
"P  c #523525",
"I  c #543525",
"U  c #553625",
"Y  c #553626",
"T  c #563726",
"R  c #563627",
"E  c #573727",
"W  c #573827",
"Q  c #583827",
"!  c #593928",
"~  c #5A3A28",
"^  c #5B3A29",
"/  c #5C3B2A",
"(  c #5E3C2A",
")  c #5E3D2B",
"_  c #5F3D2B",
"`  c #5B3C30",
"'  c #613E2C",
"]  c #623F2C",
"[  c #40402A",
"{  c #41412A",
"}  c #43442D",
"|  c #44452D",
" . c #45452D",
".. c #44452F",
"X. c #47472E",
"o. c #47492F",
"O. c #48482F",
"+. c #48492F",
"@. c #484930",
"#. c #494A30",
"$. c #484A31",
"%. c #4A4B30",
"&. c #4B4C31",
"*. c #4C4E34",
"=. c #4D4E35",
"-. c #5B4132",
";. c #50453B",
":. c #4E5034",
">. c #4F5135",
",. c #4F5136",
"<. c #505136",
"1. c #505236",
"2. c #515237",
"3. c #505337",
"4. c #515337",
"5. c #515437",
"6. c #525437",
"7. c #535538",
"8. c #545639",
"9. c #545739",
"0. c #55583A",
"q. c #56593B",
"w. c #575A3B",
"e. c #57593C",
"r. c #575A3C",
"t. c #585B3D",
"y. c #585A3E",
"u. c #595C3D",
"i. c #595C3E",
"p. c #5A5C3E",
"a. c #5B5C3F",
"s. c #5A5D3F",
"d. c #5B5D3F",
"f. c #63402D",
"g. c #65412D",
"h. c #68432F",
"j. c #69442F",
"k. c #6A4530",
"l. c #6B4530",
"z. c #6C4630",
"x. c #6E4731",
"c. c #6D4833",
"v. c #624738",
"b. c #6C4838",
"n. c #6D4938",
"m. c #6F4C39",
"M. c #724C3A",
"N. c #744D3B",
"B. c #78513E",
"V. c #5C5E40",
"C. c #5D5F41",
"Z. c #675A4A",
"A. c #5D6042",
"S. c #5E6042",
"D. c #636545",
"F. c #636546",
"G. c #656746",
"H. c #666846",
"J. c #666847",
"K. c #6B6E49",
"L. c #6C6E4B",
"P. c #74604F",
"I. c #71734F",
"U. c #72744F",
"Y. c #716250",
"T. c #7B6452",
"R. c #737550",
"E. c #757651",
"W. c #787954",
"Q. c #7B7E54",
"!. c #79785A",
"~. c #7E7F5A",
"^. c #805541",
"/. c #8E5E47",
"(. c #835F4B",
"). c #94765F",
"_. c #8A7C72",
"`. c #81825B",
"'. c #83835D",
"]. c #84855E",
"[. c #86865F",
"{. c #898962",
"}. c #8A8B63",
"|. c #8C8C64",
" X c #8D8D65",
".X c #929269",
"XX c #98976E",
"oX c #99986F",
"OX c #9A9A71",
"+X c #9F9E74",
"@X c #A48A70",
"#X c #A78D72",
"$X c #AC9276",
"%X c #AF9679",
"&X c #BB9477",
"*X c #BC9477",
"=X c #B1987B",
"-X c #B39A7C",
";X c #A3A278",
":X c #C0987B",
">X c #CCA585",
",X c #C6AA89",
"<X c #D0AA89",
"1X c #D7B391",
"2X c #DBB895",
"3X c #DCB996",
"4X c #DFBB97",
"5X c #DFBC98",
"6X c #E0BD99",
"7X c #CFBAAB",
"8X c #E0C09B",
"9X c #EBC9A2",
"0X c #EEC8A2",
"qX c #EFC9A3",
"wX c #EFCDA5",
"eX c #EFD0B6",
"rX c #F9DFCD",
/* pixels */
"                                                                                                                                ",
"                                                                                                                                ",
"                                                                                                                                ",
"                                                                                                                                ",
"                                                                                                                                ",
"                                                            O $ $ $                                                             ",
"                                                  O $ O $ O !.;X;X!.O $ $ O $                                                   ",
"                                            $ O $ ;XXX X|.XX;X;X;X;XXX.X;X;X;X$ # #                                             ",
"                                          # $ XX X;XR.|.|.'.{.|.U.R.R.R.~. X X+X;X+ +                                           ",
"                                      # #  X`.'.|.{.|.R.0.0.L.R.R.R.R.R.R.U.[. XD. XOX+ #                                       ",
"                                    # ;XR. X}.R.i.U.R.R.R.R.R.i.S.S.S.S.0.t 0.R.J.R.`.|.;X#                                     ",
"                                  # |.|.t.R.R.R.t.S.0.0.V.S.S.V.0.0.L.R.L.i.A.A.i.S.R.R.U. X#                                   ",
"                                # |.|.R.R.r.V.S.S.S.V.9 S.i.0.0.9.e.V.Z.V.:.o.0.0.S.S.0.S.0.|.#                                 ",
"                              # |.}.R.R.S.S.7.r.0.0.7.<.0.0.0.0.9.9.0.9.0.0.0.S.9.k S.S.S.0.I.R.#                               ",
"                            # f ].R.J.0.S.:.0.:.0.&.7.7.0.s 9 9 9 9 9 9 0.0.0.+.0.0.0.9 0.S.S.0.f #                             ",
"                            # R.R.r.S.3.:.r.&.0.0.7.k k k [ +.&.&.+.k k | +.:.| 9 0.0.0.S.S.0.0.0.#                             ",
"                          # 0.0.S...6.&.&.6.@.k 9 z k x s [ k k k &.&.&.k k &.+.&.&.&.:.0.0.0.i r &.+                           ",
"                          # 0.r.<.0.<.*.k k 9 9 9 9 + + $ + + + # + $ + % O 9 9 9 k &.&.&.0.0.0.0.0.#                           ",
"                        # k 9.0.:.&.&.k 9 9 $ $ + + M H -.v.v.v.-.B B 1 M B * + $ $ k 9 &.&.&.&.0.&.9 $                         ",
"                        # &.0.9.&.@.@.9 # # B C B B (.) ) ) ' ) ' P ) ) j.f.N P P P + + k k &.&.&.k k $                         ",
"                        # k &.&.k [ > # B C ) ) (.x.x.' m.(.( ' ) ) (.) j.j.' (.' ) P N + > } k k 9 s #                         ",
"                        # k k k @.9 # B ) ) ' z.h.' j.x.(.x.) ) ) ' ) ' ) ' (.x.) (.) ' P * 9 u 9 9 9 +                         ",
"                        # # k r 9 $ % z.z.) ) j.x.x.) ( ' x.( g.j.' ) j.' ) (.' ' x.) ' j.% * 9 9 > % %                         ",
"                          # # # % N N ) ' ' ) z.) ( ' x.f.( x.x.x.' ' ' ' j.x.j.' ' j.) ) M N O $ $ %                           ",
"                              . , D ) ' ' j.' ' ( ) ' ( ' ' ) ' ' x.x.' ' ' ' ( j.' ' (.( I J < .                               ",
"                            # M M ) R ) ( ' x.x.' ( j.) j.x.x.x.x.x.j.j.x.j.' ) ) ' ' I I Q Q N #                               ",
"                            # M M P P ) ' ' x.j.( ' ' I Q ) ) ( ' ' ) ) ' ) ( ) (.' Q I I I I N M #                             ",
"                            # M M ' I I Q ' T P ) ( ' x.j.( ' ' I I I ' ( ( (.' ' I I I I I ) M M #                             ",
"                            # R I M ) I I I ) ' ( I P ' ( ( ( ) ) ( ( ' ) ) I I ' P I I P ) M N M #                             ",
"                              # M I I ' I I ' I ( ' ' ) ' I ' ( ' ' ) I ' ( P ' ' J I I I M R P M #                             ",
"                              # M I M I L I I I ) ' P I P I I I P Q ' ( I ' ~ I I ' I N I ' M R #                               ",
"                            # # M L M J I I I I I I ( ( T Q ' ' ' ' I I I I I I I I M I P M M M # #                             ",
"                            $ O M M M J I P R M A A I I ' ) I I P I I I ' I I M M R J R M M M M O $                             ",
"                            O >X+ + R M Q R ! M N I M ) ( I I ( ' I I I I I I M P M M M N M M $ $ O                             ",
"                              $ . # # M M I M P R L R M M J P R P I I I I N I I R M P M N O $ . $                               ",
"                                # &X@X+ + + # V M M M J M R R P M M M J M I F J M M M + O @X).O                                 ",
"                                  # >X@X@X-XZ.# M M M ) M C M M M J N M I J N F # # # -X#X>X#                                   ",
"                                  # ; >X2X2X5X-XO O + M M B M M M M M M M O O O Y.-X8X2X>X; #                                   ",
"                                    # # >X2X2X5X2X-X-X+ # # # # M M + + O -X-X-X9X2X2X>X# #                                     ",
"                                      # # &X>X2X2X2XwX,X-X$X$X%XO $ * @X@X2X2X9X2X>X:X# #                                       ",
"                                          # # *X>X2X2X2X2X2X2X2X-X-X@X2X3X2X>X>X>X# #                                           ",
"                                              # # # >X>X>X>X<X1X3X3X1X>X>X*X+ # #                                               ",
"                                            + # # # # # # P.&X&X*X*XT.+ $ O @.O - #                                             ",
"                                            # Q.+ 0.t.S.R.# # # $ O $ U.R.S.&.$ L.# +                                           ",
"                                          # :.L.# 0.0.S.R.R.|.R.U. XS.U.S.t.<.O j 0.#                                           ",
"                                        + # 0.# } 0.0.S.R.S.S.W.R.U.S.S.S.S.0.&.+ 0.o.#                                         ",
"                                        $ O :.$ &.&.0.S.S.J.R.R.F.R.S.S.S.0.0.7.+ :.% # #                                       ",
"                                      O rX7X$ $ &.&.0.r.S.S.S.S.S.S.S.S.S.0.<.0.# # g 2X# #                                     ",
"                                      O eXeXeX$ O $ 0.0.S.S.S.S.C.C.C.0.0.9.$ O # _.eXqX>XO                                     ",
"                                      $ qXqX;.O ` /.$ O # # # # & # # # $ O n.N.7 # eXqX>X$                                     ",
"                                      $ 3X9XO $ $ $ O $ ` b.M.M.N.N.b.) : $ $ $ # # 3X,X$                                       ",
"                                        O $ $ O B ) ^.B.# # # # # # $ O $ O $ &.2 # H $                                         ",
"                                            O r X # # # # # # # # # # 0 &.9.@.k 9 #                                             ",
"                                            % w k j &.&.&.&.&.&.@.&.9.r.:.&.[ k 9 #                                             ",
"                                            $ > 0 9 k k [ k k k 2 &.k X.k k X.k 9 #                                             ",
"                                              $ % # # # $ y # # # # # % # # # # #                                               ",
"                                                $ b 3 b b $ #     # v # b 6 b #                                                 ",
"                                                O 6 6 6 6 6 $     # 6 6 6 6 4 #                                                 ",
"                                                $ O $ O $ $ # #   # = $ # # # #                                                 ",
"                                                                  #                                                             ",
"                                                                                                                                ",
"                                                                                                                                ",
"                                                                                                                                ",
"                                                                                                                                "
};
