/* XPM */
static char *result[] = {
/* columns rows colors chars-per-pixel */
"64 64 229 2 ",
"   c #141312",
".  c #1B1A17",
"X  c #1A1918",
"o  c #1B1918",
"O  c #1A1A18",
"+  c #1B1A18",
"@  c #1C1A18",
"#  c #1E1B19",
"$  c #211D1A",
"%  c #281F1A",
"&  c #22221A",
"*  c #28201B",
"=  c #2B2B1E",
"-  c #2D2C1F",
";  c #372218",
":  c #31241C",
">  c #34261D",
",  c #3A241A",
"<  c #3B271D",
"1  c #3F281C",
"2  c gray13",
"3  c #2C2C21",
"4  c #2F2924",
"5  c #2C2927",
"6  c #232429",
"7  c #24252A",
"8  c #25262C",
"9  c #26272C",
"0  c #26272D",
"q  c #27282E",
"w  c #28282D",
"e  c #322721",
"r  c #2F3023",
"t  c #303020",
"y  c #313120",
"u  c #313121",
"i  c #323221",
"p  c #303022",
"a  c #323222",
"s  c #333422",
"d  c #383825",
"f  c #383925",
"g  c #3A3A26",
"h  c #3B3B27",
"j  c #3A332C",
"k  c #3D3D28",
"l  c #3C3C29",
"z  c #3D3D29",
"x  c #3E3E29",
"c  c #3F3F29",
"v  c #282930",
"b  c #2E2F37",
"n  c #432A1F",
"m  c #462B1F",
"M  c #472C1F",
"N  c #472E20",
"B  c #402D25",
"V  c #482C20",
"C  c #492D20",
"Z  c #492F21",
"A  c #4A2E21",
"S  c #4C3022",
"D  c #4D3022",
"F  c #4E3122",
"G  c #4F3123",
"H  c #4F3324",
"J  c #4E3426",
"K  c #503223",
"L  c #523424",
"P  c #533425",
"I  c #523525",
"U  c #543525",
"Y  c #553625",
"T  c #563626",
"R  c #563726",
"E  c #563727",
"W  c #573727",
"Q  c #573827",
"!  c #52372B",
"~  c #52372C",
"^  c #583828",
"/  c #593928",
"(  c #593929",
")  c #5A3928",
"_  c #5A3A28",
"`  c #5A3A29",
"'  c #5B3A29",
"]  c #5C3B29",
"[  c #5C3B2A",
"{  c #5E3C2A",
"}  c #5E3D2B",
"|  c #5F3D2B",
" . c #413A31",
".. c #433B32",
"X. c #473D33",
"o. c #5B3C30",
"O. c #613E2C",
"+. c #41412A",
"@. c #40422B",
"#. c #42432B",
"$. c #41412C",
"%. c #42432E",
"&. c #43442C",
"*. c #43442D",
"=. c #43452F",
"-. c #44452D",
";. c #46462E",
":. c #46472E",
">. c #47482E",
",. c #47492F",
"<. c #48492F",
"1. c #474831",
"2. c #484A30",
"3. c #494A30",
"4. c #4B4C31",
"5. c #4C4D32",
"6. c #4C4E32",
"7. c #4D4E33",
"8. c #4D4F33",
"9. c #4E4F33",
"0. c #4A4B34",
"q. c #4D4E35",
"w. c #4C4F35",
"e. c #4E5135",
"r. c #4F5136",
"t. c #505136",
"y. c #505137",
"u. c #515336",
"i. c #515337",
"p. c #535538",
"a. c #535638",
"s. c #53543A",
"d. c #545739",
"f. c #55583A",
"g. c #575A3C",
"h. c #595C3D",
"j. c #595C3E",
"k. c #5A5D3F",
"l. c #63402D",
"z. c #65412D",
"x. c #67422E",
"c. c #68432F",
"v. c #69442F",
"b. c #624033",
"n. c #674435",
"m. c #6A4530",
"M. c #6D4631",
"N. c #6E4731",
"B. c #684435",
"V. c #624738",
"C. c #6E4938",
"Z. c #714B39",
"A. c #724C3A",
"S. c #714E3B",
"D. c #754F39",
"F. c #774F3C",
"G. c #7A523E",
"H. c #5B5E40",
"J. c #5C5E40",
"K. c #5D5F40",
"L. c #5D5F41",
"P. c #5A524C",
"I. c #785441",
"U. c #7A5743",
"Y. c #5E6141",
"T. c #5D6042",
"R. c #5E6042",
"E. c #606243",
"W. c #616344",
"Q. c #636545",
"!. c #646646",
"~. c #686A48",
"^. c #686A49",
"/. c #696B49",
"(. c #6A6A4B",
"). c #6A6C49",
"_. c #6C6E4B",
"`. c #6D704C",
"'. c #6E704C",
"]. c #6F714D",
"[. c #71734F",
"{. c #72744F",
"}. c #7A6A57",
"|. c #737550",
" X c #777756",
".X c #787B52",
"XX c #797C52",
"oX c #787954",
"OX c #736960",
"+X c #8E5E47",
"@X c #815D49",
"#X c #835F4B",
"$X c #8D6F59",
"%X c #997C64",
"&X c #9A7E66",
"*X c #86865F",
"=X c #888765",
"-X c #878860",
";X c #8A8B63",
":X c #8A8966",
">X c #8C8C64",
",X c #8D8D65",
"<X c #919169",
"1X c #929269",
"2X c #9A9A71",
"3X c #9C9B72",
"4X c #9D9D73",
"5X c #A08A70",
"6X c #A48A70",
"7X c #A78D72",
"8X c #AC9377",
"9X c #BC9477",
"0X c #B3977B",
"qX c #B39A7C",
"wX c #A3A278",
"eX c #BBA081",
"rX c #C69F80",
"tX c #C8A182",
"yX c #CCA585",
"uX c #CFA988",
"iX c #DBB895",
"pX c #EAC8A1",
"aX c #EFC9A3",
"sX c #EFC9A4",
"dX c #EFCDA5",
"fX c #E5C7AD",
"gX c #EFD0B6",
"hX c #F9DFCD",
"jX c None",
/* pixels */
"jXjXjXjXjXjXjXjXjXjXjXjXjXjXjXjXjXjXjXjXjXjXjXjXjXjXjXjXjXjXjXjXjXjXjXjXjXjXjXjXjXjXjXjXjXjXjXjXjXjXjXjXjXjXjXjXjXjXjXjXjXjXjXjX",
"jXjXjXjXjXjXjXjXjXjXjXjXjXjXjXjXjXjXjXjXjXjXjXjXjXjXjXjXjXjXjXjXjXjXjXjXjXjXjXjXjXjXjXjXjXjXjXjXjXjXjXjXjXjXjXjXjXjXjXjXjXjXjXjX",
"jXjXjXjXjXjXjXjXjXjXjXjXjXjXjXjXjXjXjXjXjXjXjXjXjXjXjXjXjXjXjXjXjXjXjXjXjXjXjXjXjXjXjXjXjXjXjXjXjXjXjXjXjXjXjXjXjXjXjXjXjXjXjXjX",
"jXjXjXjXjXjXjXjXjXjXjXjXjXjXjXjXjXjXjXjXjXjXjXjXjXjXjXjXjXjXjXjXjXjXjXjXjXjXjXjXjXjXjXjXjXjXjXjXjXjXjXjXjXjXjXjXjXjXjXjXjXjXjXjX",
"jXjXjXjXjXjXjXjXjXjXjXjXjXjXjXjXjXjXjXjXjXjXjXjXjXjXjXjXjXjXjXjXjXjXjXjXjXjXjXjXjXjXjXjXjXjXjXjXjXjXjXjXjXjXjXjXjXjXjXjXjXjXjXjX",
"jXjXjXjXjXjXjXjXjXjXjXjXjXjXjXjXjXjXjXjXjXjXjXjXjXjXjXjXjXjXjXjXjXjXjXjXjXjXjXjXjXjXjXjXjXjXjXjXjXjXjXjXjXjXjXjXjXjXjXjXjXjXjXjX",
"jXjXjXjXjXjXjXjXjXjXjXjXjXjXjXjXjXjXjXjXjXjXjXjXjXjXjXjXjXjXjXjXjXjXjXjXjXjXjXjXjXjXjXjXjXjXjXjXjXjXjXjXjXjXjXjXjXjXjXjXjXjXjXjX",
"jXjXjXjXjXjXjXjXjXjXjXjXjXjXjXjXjXjXjXjXjXjXjXjXjXjX+ + + + + + + + + + + + jXjXjXjXjXjXjXjXjXjXjXjXjXjXjXjXjXjXjXjXjXjXjXjXjXjX",
"jXjXjXjXjXjXjXjXjXjXjXjXjXjXjXjXjXjXjXjXjXjXjX+ + + wXwX4X>X>X>X<X2XwXwX3X>X+ + + jXjXjXjXjXjXjXjXjXjXjXjXjXjXjXjXjXjXjXjXjXjXjX",
"jXjXjXjXjXjXjXjXjXjXjXjXjXjXjXjXjXjXjXjXjX+ + wX>X,XwX|.>X>X>X>X>X>X>X>X>X1X3XwXwX+ + jXjXjXjXjXjXjXjXjXjXjXjXjXjXjXjXjXjXjXjXjX",
"jXjXjXjXjXjXjXjXjXjXjXjXjXjXjXjXjXjXjX+ + wX>X|.;X>X|.>X>Xf.f.|.|.|.|.|.|.>X>Xf.>X>XwX+ + jXjXjXjXjXjXjXjXjXjXjXjXjXjXjXjXjXjXjX",
"jXjXjXjXjXjXjXjXjXjXjXjXjXjXjXjXjXjX+ + >X*X>X>X|.K.|.|.|.q.t $.t t t t f.f.|.Y.|.>X-X>X+ + jXjXjXjXjXjXjXjXjXjXjXjXjXjXjXjXjXjX",
"jXjXjXjXjXjXjXjXjXjXjXjXjXjXjXjXjX+ =X|.>X>X|.|.|.].R.R.|._.R.R.R.R.R.J.R.R.R.H.L.|.).|.|.:X+ jXjXjXjXjXjXjXjXjXjXjXjXjXjXjXjXjX",
"jXjXjXjXjXjXjXjXjXjXjXjXjXjXjXjX+ >X>X`.|.|.f.R.R.R.R.R.R.t s.R.R.R.R.y.t f.f.f.R.R.f.1.`.|.>X+ jXjXjXjXjXjXjXjXjXjXjXjXjXjXjXjX",
"jXjXjXjXjXjXjXjXjXjXjXjXjXjXjX+  X(.|.z f.R.f.*.f.f.f.p.t.f.f.f.f.f.f.f.f.f.R.t.t.R.R.R.f./.t L.+ jXjXjXjXjXjXjXjXjXjXjXjXjXjXjX",
"jXjXjXjXjXjXjXjXjXjXjXjXjXjX. + >X|.|.R.R.t t.f.t.f.6.4.f.f.f.f.f.f.f.f.f.f.9.f.f.f.p.R.R.R.R.f.+ . jXjXjXjXjXjXjXjXjXjXjXjXjXjX",
"jXjXjXjXjXjXjXjXjXjXjXjXjXjX+ |.[.R.H.t t.t.f.4.9.f.f.4.-.k k k k x 4.9.4.4.4.@.f.4.f.R.R.f.R.h.f.+ jXjXjXjXjXjXjXjXjXjXjXjXjXjX",
"jXjXjXjXjXjXjXjXjXjXjXjXjX+ =.|.f.R.t.f.f.d.f.c #.4.4.k t k +.4.4.4.-.k t 4.4.4.4.4.i f.f.f.f.f.e.l + jXjXjXjXjXjXjXjXjXjXjXjXjX",
"jXjXjXjXjXjXjXjXjXjXjXjXjX+ f.R.f.f.4.<.p.k k u t t t = + + + + + + + + = t t t f 3.4.4.4.f.f.f.f.4.+ jXjXjXjXjXjXjXjXjXjXjXjXjX",
"jXjXjXjXjXjXjXjXjXjXjXjX+ + i.t.f.5.6.+.t t t + + + + + V.N N J V.V.N N + + + + + k ;.t 4.:.4.4.4.3.+ + jXjXjXjXjXjXjXjXjXjXjXjX",
"jXjXjXjXjXjXjXjXjXjXjXjX+ 4.f.4.4.4.k t + + + Z I V.V.E | | | | | | | | ^ I N N I + + + k 4.4.t t 4.k + jXjXjXjXjXjXjXjXjXjXjXjX",
"jXjXjXjXjXjXjXjXjXjXjXjX+ k s t k 4.t + > N N | #X#X| | #XQ U U | | ( @XN.N.| D.S.V.I : + k k 4.k k k + jXjXjXjXjXjXjXjXjXjXjXjX",
"jXjXjXjXjXjXjXjXjXjXjXjX+ k k k k t + N N | | | N.N.D.#X| N.U ) | | | N.| | #XN.N.l.#XN I + h k k g t + jXjXjXjXjXjXjXjXjXjXjXjX",
"jXjXjXjXjXjXjXjXjXjXjXjX+ u t t t + + H x.| | N.N.| | | | #X| l.| N.N.z.N.| | #X| | | | I + + t t t t + jXjXjXjXjXjXjXjXjXjXjXjX",
"jXjXjXjXjXjXjXjXjXjXjXjXjX+ + + + + N | | | | x.| v.N.N.N.N.N.| | D.#X| | | | N.N.| | | N.N + + + + + jXjXjXjXjXjXjXjXjXjXjXjXjX",
"jXjXjXjXjXjXjXjXjXjXjXjXjXjXjX  , 1 | | | N.| | | | | | | | | | | U.#X#X#X| | | | N.| m.' U N ;   jXjXjXjXjXjXjXjXjXjXjXjXjXjXjX",
"jXjXjXjXjXjXjXjXjXjXjXjXjXjX+ U m U | | | | N.| | M.| O.N.N.N.c.| | l.N.m.N.N.| | | #X| U U U D + jXjXjXjXjXjXjXjXjXjXjXjXjXjXjX",
"jXjXjXjXjXjXjXjXjXjXjXjXjXjX+ m m U U | U T N.N.N.| U ) | N.N.N.| N.N.| | | | | N.| | Y U U U m m + jXjXjXjXjXjXjXjXjXjXjXjXjXjX",
"jXjXjXjXjXjXjXjXjXjXjXjXjXjX+ m m U R | U U U | | | N.| | | U U U ) } | | | | #X| | U U U U [ m m + jXjXjXjXjXjXjXjXjXjXjXjXjXjX",
"jXjXjXjXjXjXjXjXjXjXjXjXjXjX+ ^ U m U U U U | | U | | | | | | | l.#X#XI.| | | ' { U | U U ) m m m + jXjXjXjXjXjXjXjXjXjXjXjXjXjX",
"jXjXjXjXjXjXjXjXjXjXjXjXjXjX@ % m V U V U U U | | | | | U | | | | U | ] U | Y | | U U U U U m U m + jXjXjXjXjXjXjXjXjXjXjXjXjXjX",
"jXjXjXjXjXjXjXjXjXjXjXjXjXjXjX+ m U A | C U U | [ U U W | | U | ) U | | U | | ) U | | U K U | U % @ jXjXjXjXjXjXjXjXjXjXjXjXjXjX",
"jXjXjXjXjXjXjXjXjXjXjXjXjXjXjX+ m U m M | m U U U Y U U U U U | U U ' _ U U U U U U U U U m U m + jXjXjXjXjXjXjXjXjXjXjXjXjXjXjX",
"jXjXjXjXjXjXjXjXjXjXjXjXjXjX+ + m m m m U m S D m U U U | U U U U U U U U W U U m m U U m L m m + + jXjXjXjXjXjXjXjXjXjXjXjXjXjX",
"jXjXjXjXjXjXjXjXjXjXjXjXjXjX+ X.+ n U / m U P U | U | | U U U ) | U U U U U U m U U C m m m m + + + jXjXjXjXjXjXjXjXjXjXjXjXjXjX",
"jXjXjXjXjXjXjXjXjXjXjXjXjXjXjX+   + n m m | V U U ` m V m m m A U Y U U ) C m U m m m G m + +   + jXjXjXjXjXjXjXjXjXjXjXjXjXjXjX",
"jXjXjXjXjXjXjXjXjXjXjXjXjXjXjXjX+ %X+ + < m m m U m m m m U | L D A m m m U U m m m m + + + $X+ jXjXjXjXjXjXjXjXjXjXjXjXjXjXjXjX",
"jXjXjXjXjXjXjXjXjXjXjXjXjXjXjXjXjX+ yX6X+ + + + m m m m m m m M A U U m m U m m m + + }.6XyX+ jXjXjXjXjXjXjXjXjXjXjXjXjXjXjXjXjX",
"jXjXjXjXjXjXjXjXjXjXjXjXjXjXjXjXjX+ 9XyXiX6XeX .+ + + m m G m m m m F m m n + + + qXqXiXuX9X+ jXjXjXjXjXjXjXjXjXjXjXjXjXjXjXjXjX",
"jXjXjXjXjXjXjXjXjXjXjXjXjXjXjXjXjXjX+ 9XiXiXiXiXqXqX5X+ + + + m m C m + + + qXqXqXpXiXyX9X+ jXjXjXjXjXjXjXjXjXjXjXjXjXjXjXjXjXjX",
"jXjXjXjXjXjXjXjXjXjXjXjXjXjXjXjXjXjXjX+ + yXiXiXiXdXiX6X6XqX .+ + + + qXqX8XiXiXiXiXyX+ + jXjXjXjXjXjXjXjXjXjXjXjXjXjXjXjXjXjXjX",
"jXjXjXjXjXjXjXjXjXjXjXjXjXjXjXjXjXjXjXjX+ + 4 yXiXiXiXiXiXiXpX6X6X6X7XdXdXiXiXyXyX4 + + jXjXjXjXjXjXjXjXjXjXjXjXjXjXjXjXjXjXjXjX",
"jXjXjXjXjXjXjXjXjXjXjXjXjXjXjXjXjXjXjXjXjXjX+ + + yXyXyXiXiXiXiXiXiXiXiXyXyX9X+ + + jXjXjXjXjXjXjXjXjXjXjXjXjXjXjXjXjXjXjXjXjXjX",
"jXjXjXjXjXjXjXjXjXjXjXjXjXjXjXjXjXjXjXjXjXjXO + + + + + 9X9XrXyXtX9X9X9X+ + + + + X jXjXjXjXjXjXjXjXjXjXjXjXjXjXjXjXjXjXjXjXjXjX",
"jXjXjXjXjXjXjXjXjXjXjXjXjXjXjXjXjXjXjXjXjXjX+ XX+ d.j.R.+ + + + + + + + |.R.4.+ .X+ jXjXjXjXjXjXjXjXjXjXjXjXjXjXjXjXjXjXjXjXjXjX",
"jXjXjXjXjXjXjXjXjXjXjXjXjXjXjXjXjXjXjXjXjX+ %.J.+ f.f.W.|.{.>X|.|.>XQ.~.L.j.8.+ 0.f.+ jXjXjXjXjXjXjXjXjXjXjXjXjXjXjXjXjXjXjXjXjX",
"jXjXjXjXjXjXjXjXjXjXjXjXjXjXjXjXjXjXjXjXjX+ r.+ >.f.f.R.|.R.R.oX|.'.E.R.R.R.f.4.+ f.,.+ jXjXjXjXjXjXjXjXjXjXjXjXjXjXjXjXjXjXjXjX",
"jXjXjXjXjXjXjXjXjXjXjXjXjXjXjXjXjXjXjXjX+ + r + 4.4.f.R.R.!.|.|.^.|.R.R.R.f.f.a.+ r.2.+ + jXjXjXjXjXjXjXjXjXjXjXjXjXjXjXjXjXjXjX",
"jXjXjXjXjXjXjXjXjXjXjXjXjXjXjXjXjXjXjX. P.hX5 + 4.4.f.g.R.R.J.R.R.R.H.R.k.f.7.f.+ + + 0X..+ jXjXjXjXjXjXjXjXjXjXjXjXjXjXjXjXjXjX",
"jXjXjXjXjXjXjXjXjXjXjXjXjXjXjXjXjXjXjX+ sXgXfX+ + + w.f.R.R.R.R.L.R.T.f.f.f.+ + + OXhXaXyX+ jXjXjXjXjXjXjXjXjXjXjXjXjXjXjXjXjXjX",
"jXjXjXjXjXjXjXjXjXjXjXjXjXjXjXjXjXjXjX+ iXaXj + ! +X+ + + + + + + + + + + + F.n.$ + gXaXyX+ jXjXjXjXjXjXjXjXjXjXjXjXjXjXjXjXjXjX",
"jXjXjXjXjXjXjXjXjXjXjXjXjXjXjXjXjXjXjXjX+ iX+ + + + + + B b.C.A.C.B.b.~ # + + + + + aXiXyX+ jXjXjXjXjXjXjXjXjXjXjXjXjXjXjXjXjXjX",
"jXjXjXjXjXjXjXjXjXjXjXjXjXjXjXjXjXjXjXjXjX+ + + * o.Z.G.e + + + + + + + + + + 4.t + yX&X+ jXjXjXjXjXjXjXjXjXjXjXjXjXjXjXjXjXjXjX",
"jXjXjXjXjXjXjXjXjXjXjXjXjXjXjXjXjXjXjXjXjXjX+ y 3 + + + + + + + + + + &.4.u.4.k t + + + jXjXjXjXjXjXjXjXjXjXjXjXjXjXjXjXjXjXjXjX",
"jXjXjXjXjXjXjXjXjXjXjXjXjXjXjXjXjXjXjXjXjXjX+ t k k 4.4.4.4.4.4.4.4.f.f.4.4.k k t + jXjXjXjXjXjXjXjXjXjXjXjXjXjXjXjXjXjXjXjXjXjX",
"jXjXjXjXjXjXjXjXjXjXjXjXjXjXjXjXjXjXjXjXjXjX+ t d - k k k k k k p 4.k 3.k k k k t + jXjXjXjXjXjXjXjXjXjXjXjXjXjXjXjXjXjXjXjXjXjX",
"jXjXjXjXjXjXjXjXjXjXjXjXjXjXjXjXjXjXjXjXjXjXjX+ + + + + + a + + + + + & + + + + + jXjXjXjXjXjXjXjXjXjXjXjXjXjXjXjXjXjXjXjXjXjXjX",
"jXjXjXjXjXjXjXjXjXjXjXjXjXjXjXjXjXjXjXjXjXjXjXjX+ b q 6 0 + + jXjX+ q 2 q q q + jXjXjXjXjXjXjXjXjXjXjXjXjXjXjXjXjXjXjXjXjXjXjXjX",
"jXjXjXjXjXjXjXjXjXjXjXjXjXjXjXjXjXjXjXjXjXjXjXjX+ q q v q q + jXjX+ 6 6 6 6 0 + jXjXjXjXjXjXjXjXjXjXjXjXjXjXjXjXjXjXjXjXjXjXjXjX",
"jXjXjXjXjXjXjXjXjXjXjXjXjXjXjXjXjXjXjXjXjXjXjXjX+ 6 9 7 6 8 w o jX+ + + + + + + jXjXjXjXjXjXjXjXjXjXjXjXjXjXjXjXjXjXjXjXjXjXjXjX",
"jXjXjXjXjXjXjXjXjXjXjXjXjXjXjXjXjXjXjXjXjXjXjXjX+ + + + + + + jXjXjXjXjXjXjXjXjXjXjXjXjXjXjXjXjXjXjXjXjXjXjXjXjXjXjXjXjXjXjXjXjX",
"jXjXjXjXjXjXjXjXjXjXjXjXjXjXjXjXjXjXjXjXjXjXjXjXjXjXjXjXjXjXjXjXjXjXjXjXjXjXjXjXjXjXjXjXjXjXjXjXjXjXjXjXjXjXjXjXjXjXjXjXjXjXjXjX",
"jXjXjXjXjXjXjXjXjXjXjXjXjXjXjXjXjXjXjXjXjXjXjXjXjXjXjXjXjXjXjXjXjXjXjXjXjXjXjXjXjXjXjXjXjXjXjXjXjXjXjXjXjXjXjXjXjXjXjXjXjXjXjXjX",
"jXjXjXjXjXjXjXjXjXjXjXjXjXjXjXjXjXjXjXjXjXjXjXjXjXjXjXjXjXjXjXjXjXjXjXjXjXjXjXjXjXjXjXjXjXjXjXjXjXjXjXjXjXjXjXjXjXjXjXjXjXjXjXjX"
};
