/* XPM */
static char *result[] = {
/* columns rows colors chars-per-pixel */
"64 64 246 2 ",
"   c #141312",
".  c #1A1917",
"X  c #1B1917",
"o  c #1A1A17",
"O  c #1B1B17",
"+  c #1C1A17",
"@  c #1B1918",
"#  c #1B1A18",
"$  c #1C1B19",
"%  c #1F1E1A",
"&  c #1F1E1F",
"*  c #201D1A",
"=  c #241F1B",
"-  c #20201A",
";  c #21201B",
":  c #22211D",
">  c #22221C",
",  c #24231E",
"<  c #26251D",
"1  c #26261C",
"2  c #2C221B",
"3  c #28211D",
"4  c #372218",
"5  c #31231C",
"6  c #33241C",
"7  c #32251E",
"8  c #3A251A",
"9  c #3E281E",
"0  c #242220",
"q  c #2E2E20",
"w  c #2E2A25",
"e  c #232429",
"r  c #26272D",
"t  c #27282E",
"y  c #292A2F",
"u  c #312822",
"i  c #302C26",
"p  c #303020",
"a  c #323221",
"s  c #323222",
"d  c #323322",
"f  c #333323",
"g  c #343423",
"h  c #363623",
"j  c #353424",
"k  c #343525",
"l  c #383825",
"z  c #383826",
"x  c #393A27",
"c  c #3A3A26",
"v  c #3A332C",
"b  c #3D3D28",
"n  c #3E3E28",
"m  c #3E3E29",
"M  c #3F3F29",
"N  c #3C3D2A",
"B  c #3D3E2A",
"V  c #2B2C34",
"C  c #2E2F37",
"Z  c #2E3038",
"A  c #3E3935",
"S  c #432B1E",
"D  c #462B1F",
"F  c #472C1F",
"G  c #442E21",
"H  c #472E20",
"J  c #482C20",
"K  c #492D20",
"L  c #482E20",
"P  c #4A2E21",
"I  c #4B2F21",
"U  c #4C2F22",
"Y  c #493022",
"T  c #4D3022",
"R  c #4E3122",
"E  c #4F3123",
"W  c #4C332A",
"Q  c #4D372A",
"!  c #503223",
"~  c #503324",
"^  c #513324",
"/  c #533425",
"(  c #523525",
")  c #543525",
"_  c #553625",
"`  c #553626",
"'  c #563726",
"]  c #573727",
"[  c #573827",
"{  c #583827",
"}  c #563A2A",
"|  c #56392D",
" . c #56392E",
".. c #583828",
"X. c #593928",
"o. c #5A3928",
"O. c #5A3A28",
"+. c #5B3A29",
"@. c #5C3B29",
"#. c #5C3B2A",
"$. c #5D3C2A",
"%. c #5E3C2A",
"&. c #5F3D2B",
"*. c #413A31",
"=. c #5B3C30",
"-. c #613E2C",
";. c #623F2C",
":. c #3F402B",
">. c #41412A",
",. c #42432B",
"<. c #44452D",
"1. c #45452D",
"2. c #46472E",
"3. c #47492F",
"4. c #48482F",
"5. c #464536",
"6. c #474831",
"7. c #484A30",
"8. c #494A30",
"9. c #4A4B33",
"0. c #4B4C31",
"q. c #4C4D32",
"w. c #4D4E33",
"e. c #4E4F33",
"r. c #4C4E34",
"t. c #4E4F37",
"y. c #4E5034",
"u. c #4F5136",
"i. c #505136",
"p. c #505337",
"a. c #525337",
"s. c #515437",
"d. c #525437",
"f. c #525338",
"g. c #535638",
"h. c #53543A",
"j. c #545639",
"k. c #545739",
"l. c #55583A",
"z. c #575A3B",
"x. c #57593C",
"c. c #575A3C",
"v. c #585B3D",
"b. c #595B3D",
"n. c #595C3E",
"m. c #5B5D3E",
"M. c #5A5D3F",
"N. c #63402D",
"B. c #64402D",
"V. c #65412D",
"C. c #64412F",
"Z. c #66412E",
"A. c #67422E",
"S. c #68432F",
"D. c #664435",
"F. c #6A4530",
"G. c #6D4631",
"H. c #6E4731",
"J. c #6C4737",
"K. c #6A4835",
"L. c #6C4837",
"P. c #6D4A37",
"I. c #624738",
"U. c #704A39",
"Y. c #724C3A",
"T. c #734C3A",
"R. c #714E3B",
"E. c #784F3D",
"W. c #76503B",
"Q. c #73503D",
"!. c #77503D",
"~. c #79533E",
"^. c #574F48",
"/. c #5B5E40",
"(. c #5C5E40",
"). c #5D5F41",
"_. c #6C5748",
"`. c #7A5743",
"'. c #7C5945",
"]. c #7E5945",
"[. c #5E6141",
"{. c #5D6042",
"}. c #5E6042",
"|. c #606243",
" X c #636545",
".X c #636546",
"XX c #646745",
"oX c #646646",
"OX c #666847",
"+X c #676948",
"@X c #686A48",
"#X c #6A6C49",
"$X c #6B6D4A",
"%X c #72744F",
"&X c #706F54",
"*X c #737550",
"=X c #777756",
"-X c #787B52",
";X c #787954",
":X c #797B55",
">X c #7A7B55",
",X c #7B7E54",
"<X c #7B7C57",
"1X c #7C7E58",
"2X c #7E7F5A",
"3X c #8E5E47",
"4X c #835F4B",
"5X c #8D6F59",
"6X c #83705B",
"7X c #997C64",
"8X c #80815A",
"9X c #81825B",
"0X c #8B8B63",
"qX c #8C8C64",
"wX c #8D8D65",
"eX c #95946C",
"rX c #A48A70",
"tX c #B08F74",
"yX c #A09F76",
"uX c #BC9477",
"iX c #BE9679",
"pX c #B39A7C",
"aX c #B99B7E",
"sX c #A2A177",
"dX c #A3A278",
"fX c #C49D7E",
"gX c #BC9E80",
"hX c #C8A182",
"jX c #C9A283",
"kX c #CCA585",
"lX c #CFA988",
"zX c #CDAD8C",
"xX c #D4AF8D",
"cX c #DAB794",
"vX c #DBB895",
"bX c #DCB996",
"nX c #DFBB98",
"mX c #E0BD99",
"MX c #E8C59F",
"NX c #EFC9A3",
"BX c #EDCAA3",
"VX c #EFCDA5",
"CX c #EACCB2",
"ZX c #EFD0B6",
"AX c #F9DFCD",
"SX c None",
/* pixels */
"SXSXSXSXSXSXSXSXSXSXSXSXSXSXSXSXSXSXSXSXSXSXSXSXSXSXSXSXSXSXSXSXSXSXSXSXSXSXSXSXSXSXSXSXSXSXSXSXSXSXSXSXSXSXSXSXSXSXSXSXSXSXSXSX",
"SXSXSXSXSXSXSXSXSXSXSXSXSXSXSXSXSXSXSXSXSXSXSXSXSXSXSXSXSXSXSXSXSXSXSXSXSXSXSXSXSXSXSXSXSXSXSXSXSXSXSXSXSXSXSXSXSXSXSXSXSXSXSXSX",
"SXSXSXSXSXSXSXSXSXSXSXSXSXSXSXSXSXSXSXSXSXSXSXSXSXSXSXSXSXSXSXSXSXSXSXSXSXSXSXSXSXSXSXSXSXSXSXSXSXSXSXSXSXSXSXSXSXSXSXSXSXSXSXSX",
"SXSXSXSXSXSXSXSXSXSXSXSXSXSXSXSXSXSXSXSXSXSXSXSXSXSXSXSXSXSXSXSXSXSXSXSXSXSXSXSXSXSXSXSXSXSXSXSXSXSXSXSXSXSXSXSXSXSXSXSXSXSXSXSX",
"SXSXSXSXSXSXSXSXSXSXSXSXSXSXSXSXSXSXSXSXSXSXSXSXSXSXSXSXSXSXSXSXSXSXSXSXSXSXSXSXSXSXSXSXSXSXSXSXSXSXSXSXSXSXSXSXSXSXSXSXSXSXSXSX",
"SXSXSXSXSXSXSXSXSXSXSXSXSXSXSXSXSXSXSXSXSXSXSXSXSXSXSXSXSXSXSXSXSXSXSXSXSXSXSXSXSXSXSXSXSXSXSXSXSXSXSXSXSXSXSXSXSXSXSXSXSXSXSXSX",
"SXSXSXSXSXSXSXSXSXSXSXSXSXSXSXSXSXSXSXSXSXSXSXSXSXSXSXSXSXSXSXSXSXSXSXSXSXSXSXSXSXSXSXSXSXSXSXSXSXSXSXSXSXSXSXSXSXSXSXSXSXSXSXSX",
"SXSXSXSXSXSXSXSXSXSXSXSXSXSXSXSXSXSXSXSXSXSXSXSXSXSX# # # # # # # # # # # # SXSXSXSXSXSXSXSXSXSXSXSXSXSXSXSXSXSXSXSXSXSXSXSXSXSX",
"SXSXSXSXSXSXSXSXSXSXSXSXSXSXSXSXSXSXSXSXSXSXSX# # # # dXdXqXqXqXdXdXdXdXqX# # # # SXSXSXSXSXSXSXSXSXSXSXSXSXSXSXSXSXSXSXSXSXSXSX",
"SXSXSXSXSXSXSXSXSXSXSXSXSXSXSXSXSXSXSXSXSX# # 5.eXqXdXyX*XqXqXqXqXqXqXqXqXdXsXdX5.# # SXSXSXSXSXSXSXSXSXSXSXSXSXSXSXSXSXSXSXSXSX",
"SXSXSXSXSXSXSXSXSXSXSXSXSXSXSXSXSXSXSXSX# &XqX1X*XqX*X8XqX2Xl.@X*X*X*X*X9XqX$X<XqXqX&X# SXSXSXSXSXSXSXSXSXSXSXSXSXSXSXSXSXSXSXSX",
"SXSXSXSXSXSXSXSXSXSXSXSXSXSXSXSXSXSX# # wX*XqXqX*X*Xz.*X*X*Xp p p p x l.l.z.*X#X*XqX:XqX# # SXSXSXSXSXSXSXSXSXSXSXSXSXSXSXSXSXSX",
"SXSXSXSXSXSXSXSXSXSXSXSXSXSXSXSXSX# , ;XqXqX*X*X*Xp .X}.OX*Xl.}.}.}.}.}.}.}.}.}.l.*X*X*X*X, # SXSXSXSXSXSXSXSXSXSXSXSXSXSXSXSXSX",
"SXSXSXSXSXSXSXSXSXSXSXSXSXSXSXSX# =XqXz.*X*XXX}.v.}.}.}.}.h.p 9.}.}.6.p x l.l.z.}.}.l.9.z.*X=X# SXSXSXSXSXSXSXSXSXSXSXSXSXSXSXSX",
"SXSXSXSXSXSXSXSXSXSXSXSXSXSXSX# : p *Xg l.}.n.l.d l.l.l.i.j.l.l.l.l.l.l.l.l.f.i.x./.}.}.l.p p % # SXSXSXSXSXSXSXSXSXSXSXSXSXSXSX",
"SXSXSXSXSXSXSXSXSXSXSXSXSXSXSX# qX*X*X}.}.p.i.l.i.l.l.0.y.l.l.l.l.l.l.l.k.l.l.l.l.l.z }.}.}..Xl.# SXSXSXSXSXSXSXSXSXSXSXSXSXSXSX",
"SXSXSXSXSXSXSXSXSXSXSXSXSXSX# *X*X}.l.:.i.i.l.0.0.l.l.0.0.4.<.<.<.0.0.0.0.0.0.l.l.0.l.}.v.l.}.*Xm.# SXSXSXSXSXSXSXSXSXSXSXSXSXSX",
"SXSXSXSXSXSXSXSXSXSXSXSXSX# > *Xl.}.i.l.l.q.l.0.b 0.0.0.p b b b >.>.b b p 0.0.0.0.0.0.l.l.l.r.(.l.; # SXSXSXSXSXSXSXSXSXSXSXSXSX",
"SXSXSXSXSXSXSXSXSXSXSXSXSX# l.}.k.l.y.0.l.,.b b p p p p - # # # # # # - p p p p c 0.0.0.e.l.l.l.l.0.# SXSXSXSXSXSXSXSXSXSXSXSXSX",
"SXSXSXSXSXSXSXSXSXSXSXSXSX# a.i.l.k.l.0.p p p # # # # # u H H H I.I.Y 2 # # # # # b 0.l 0.a 0.0.0.m # SXSXSXSXSXSXSXSXSXSXSXSXSX",
"SXSXSXSXSXSXSXSXSXSXSXSX# 0.l.d.0.0.b p # # # Q } I.I.H &.&.&.&.&.&.{ &.H ( H H G # # # b 0.0.p p 0.b # SXSXSXSXSXSXSXSXSXSXSXSX",
"SXSXSXSXSXSXSXSXSXSXSXSX# b p p b 1.p # # H H &.Q.4X&.C.4X) &.) &.&.&.4X&.N.&.H.4XI.( # # b b 0.8.b b # SXSXSXSXSXSXSXSXSXSXSXSX",
"SXSXSXSXSXSXSXSXSXSXSXSX# b b b b p # H H '.&.&.H.H.4XW.G.%.] ) &.&.&.H.&.&.'.Z.H.H.4XH ( # b b b p p # SXSXSXSXSXSXSXSXSXSXSXSX",
"SXSXSXSXSXSXSXSXSXSXSXSX# s p p p $ # L &.&.&.H.H.&.&.&.S.4X&.H.&.H.H.F.H.&.&.4X&.&.&.&.( # $ p p p p # SXSXSXSXSXSXSXSXSXSXSXSX",
"SXSXSXSXSXSXSXSXSXSXSXSXSX# # # # # H &.&.&.&.&.&.H.H.A.H.H.H.&.&.H.4XK.&.&.&.V.H.&.&.&.~.H # # # # # SXSXSXSXSXSXSXSXSXSXSXSXSX",
"SXSXSXSXSXSXSXSXSXSXSXSXSXSXSX  8 S &.H.&.H.&.&.&.&.&.&.&.&.&.&.`.4X4X4X4XR.&.&.&.H.&.&.' ) H 4   SXSXSXSXSXSXSXSXSXSXSXSXSXSXSX",
"SXSXSXSXSXSXSXSXSXSXSXSXSXSX# ~ D ) &.&.&.&.H.&.&.H.&.H.H.H.H.H.&.B.&.-.&.H.H.;.&.&.4X&.) ) ) T # SXSXSXSXSXSXSXSXSXSXSXSXSXSXSX",
"SXSXSXSXSXSXSXSXSXSXSXSXSXSX# D D ) ) &.) ) H.H.H.&.) &.&.H.H.H.&.H.H.&.&.&.&.&.H.&.&.@.) ) ) D 9 # SXSXSXSXSXSXSXSXSXSXSXSXSXSX",
"SXSXSXSXSXSXSXSXSXSXSXSXSXSX# D D ) &.&.) ) ) &.&.&.;.&.&.' ) ) #.&.&.&.&.&.&.4X&.&.+.) ) ) ` D D # SXSXSXSXSXSXSXSXSXSXSXSXSXSX",
"SXSXSXSXSXSXSXSXSXSXSXSXSXSX# ` ) D ) ) _ ) &.&.) &.&.&.&.&.A.H.H.].4X4XP.&.&.&.) ) &.) ) ) D D D # SXSXSXSXSXSXSXSXSXSXSXSXSXSX",
"SXSXSXSXSXSXSXSXSXSXSXSXSXSX+ 5 D D #...) ) ) &.&.&.&.O.) &.&.&.&.&.&.&.) [ ) &.&.' ) ) ) ) D ) D # SXSXSXSXSXSXSXSXSXSXSXSXSXSX",
"SXSXSXSXSXSXSXSXSXSXSXSXSXSXSX# D ) F &./ ) ) &.) ) O.&.&.&.O.&.&.) ` &.] &.&.&.) $.&.) D ) &.) 5 # SXSXSXSXSXSXSXSXSXSXSXSXSXSX",
"SXSXSXSXSXSXSXSXSXSXSXSXSXSXSX# D ) D ^ &.F ) ) { $.) ) #.) ) &.o.) ) &.) ) ) ) _ ) ) ) ) D ) D # SXSXSXSXSXSXSXSXSXSXSXSXSXSXSX",
"SXSXSXSXSXSXSXSXSXSXSXSXSXSX# # D D F D ) D D _ D ) ) ) o.) ) ) ) ) ) ) ) ) ) ) D D ) ) D ) D D # # SXSXSXSXSXSXSXSXSXSXSXSXSXSX",
"SXSXSXSXSXSXSXSXSXSXSXSXSXSX# # # D ) ` D ) K ) &.) &.#.) ) ) ) ) ) ) ) ) ) ) D R ) ) D D D D # # # SXSXSXSXSXSXSXSXSXSXSXSXSXSX",
"SXSXSXSXSXSXSXSXSXSXSXSXSXSXSX#   # D D D &.) ) ) D D D D ! &.D ) ] ) ) X.) D T D D D ) D # # . # @ SXSXSXSXSXSXSXSXSXSXSXSXSXSX",
"SXSXSXSXSXSXSXSXSXSXSXSXSXSXSXSX# 7X# # D D D D ) E U D D ) &.D D P I D D ) ) D D D D 6 # # 5X# SXSXSXSXSXSXSXSXSXSXSXSXSXSXSXSX",
"SXSXSXSXSXSXSXSXSXSXSXSXSXSXSXSXSX# jXrX# # # # D D D R F D ^ D D ) ) R D J D D D # # # rXkX# SXSXSXSXSXSXSXSXSXSXSXSXSXSXSXSXSX",
"SXSXSXSXSXSXSXSXSXSXSXSXSXSXSXSXSX# fXkXgXrXpX# # # # T E F D ! D D ) D D D # # # w pXvXcXuX# SXSXSXSXSXSXSXSXSXSXSXSXSXSXSXSXSX",
"SXSXSXSXSXSXSXSXSXSXSXSXSXSXSXSXSXSX# iXvXvXvXvXpXpX# # # # # D D ) D # # # pXpXpXVXvXlXuX# SXSXSXSXSXSXSXSXSXSXSXSXSXSXSXSXSXSX",
"SXSXSXSXSXSXSXSXSXSXSXSXSXSXSXSXSXSXSX# _.kXvXvXMXmXzXrXpXpX# # # # # *.pXpXvXvXvXvXkX_.# SXSXSXSXSXSXSXSXSXSXSXSXSXSXSXSXSXSXSX",
"SXSXSXSXSXSXSXSXSXSXSXSXSXSXSXSXSXSXSXSX# # uXkXvXvXvXvXvXBXaXrXrXrXrXbXVXBXvXkXkXhX# # SXSXSXSXSXSXSXSXSXSXSXSXSXSXSXSXSXSXSXSX",
"SXSXSXSXSXSXSXSXSXSXSXSXSXSXSXSXSXSXSXSXSXSX# # # kXkXxXvXvXvXvXvXvXvXvXkXkXkX# # # SXSXSXSXSXSXSXSXSXSXSXSXSXSXSXSXSXSXSXSXSXSX",
"SXSXSXSXSXSXSXSXSXSXSXSXSXSXSXSXSXSXSXSXSXSXSX# $ # # # uXuXuXkXkXfXuXuX# # # # # o SXSXSXSXSXSXSXSXSXSXSXSXSXSXSXSXSXSXSXSXSXSX",
"SXSXSXSXSXSXSXSXSXSXSXSXSXSXSXSXSXSXSXSXSXSX# ,X# g.M.}.# # # # # # # # *X}.0.# -X# SXSXSXSXSXSXSXSXSXSXSXSXSXSXSXSXSXSXSXSXSXSX",
"SXSXSXSXSXSXSXSXSXSXSXSXSXSXSXSXSXSXSXSXSX# N [.# l.l. X*X*X0X*X*XqX|.$X}.b.w.# t.l.# SXSXSXSXSXSXSXSXSXSXSXSXSXSXSXSXSXSXSXSXSX",
"SXSXSXSXSXSXSXSXSXSXSXSXSXSXSXSXSXSXSXSXSX# u.# 2.l.l.}.*X}.}.>X*X%X}.}.}.}.l.0.# l.3.# SXSXSXSXSXSXSXSXSXSXSXSXSXSXSXSXSXSXSXSX",
"SXSXSXSXSXSXSXSXSXSXSXSXSXSXSXSXSXSXSXSX# # k # 0.0.l.}.}.+X*X*XoX*X}.}.}.l.l.g.# u.7.# X SXSXSXSXSXSXSXSXSXSXSXSXSXSXSXSXSXSXSX",
"SXSXSXSXSXSXSXSXSXSXSXSXSXSXSXSXSXSXSX@ A AX0 # 0.0.l.c.}.}.).}.}.}.(.}./.l.w.l.# # # 6Xi # SXSXSXSXSXSXSXSXSXSXSXSXSXSXSXSXSXSX",
"SXSXSXSXSXSXSXSXSXSXSXSXSXSXSXSXSXSXSX# NXZXCX# # # s.l.}.}.}.}.).}.{.l.l.l.# # # ^.AXNXkX# SXSXSXSXSXSXSXSXSXSXSXSXSXSXSXSXSXSX",
"SXSXSXSXSXSXSXSXSXSXSXSXSXSXSXSXSXSXSX# vXNXv # | 3X# # # # # # # # # # # # T.J.= # ZXNXkX# SXSXSXSXSXSXSXSXSXSXSXSXSXSXSXSXSXSX",
"SXSXSXSXSXSXSXSXSXSXSXSXSXSXSXSXSXSXSXSX# vX# # # # # # W D.U.Y.U.L.D. .* # # # # # NXnXkX# SXSXSXSXSXSXSXSXSXSXSXSXSXSXSXSXSXSX",
"SXSXSXSXSXSXSXSXSXSXSXSXSXSXSXSXSXSXSXSXSX# # # 7 =.E.!.3 # # # # # # # # # # 0.p # kXtX# SXSXSXSXSXSXSXSXSXSXSXSXSXSXSXSXSXSXSX",
"SXSXSXSXSXSXSXSXSXSXSXSXSXSXSXSXSXSXSXSXSXSX# a < # # # # # # # # # # B 0.d.0.b p # # # SXSXSXSXSXSXSXSXSXSXSXSXSXSXSXSXSXSXSXSX",
"SXSXSXSXSXSXSXSXSXSXSXSXSXSXSXSXSXSXSXSXSXSX# p b b 0.0.0.0.0.0.0.q.l.l.q.0.b b p # SXSXSXSXSXSXSXSXSXSXSXSXSXSXSXSXSXSXSXSXSXSX",
"SXSXSXSXSXSXSXSXSXSXSXSXSXSXSXSXSXSXSXSXSXSX# p h q b b n b b b f 0.b 4.b b M b p # SXSXSXSXSXSXSXSXSXSXSXSXSXSXSXSXSXSXSXSXSXSX",
"SXSXSXSXSXSXSXSXSXSXSXSXSXSXSXSXSXSXSXSXSXSXSX# # # # # # j # # # # # 1 # # # # # SXSXSXSXSXSXSXSXSXSXSXSXSXSXSXSXSXSXSXSXSXSXSX",
"SXSXSXSXSXSXSXSXSXSXSXSXSXSXSXSXSXSXSXSXSXSXSXSX# C Z V C # # SXSX# t & t t t # SXSXSXSXSXSXSXSXSXSXSXSXSXSXSXSXSXSXSXSXSXSXSXSX",
"SXSXSXSXSXSXSXSXSXSXSXSXSXSXSXSXSXSXSXSXSXSXSXSX# t t C t t # SXSX# e e e e r # SXSXSXSXSXSXSXSXSXSXSXSXSXSXSXSXSXSXSXSXSXSXSXSX",
"SXSXSXSXSXSXSXSXSXSXSXSXSXSXSXSXSXSXSXSXSXSXSXSX# e t t t t y O SX# # # # # # # SXSXSXSXSXSXSXSXSXSXSXSXSXSXSXSXSXSXSXSXSXSXSXSX",
"SXSXSXSXSXSXSXSXSXSXSXSXSXSXSXSXSXSXSXSXSXSXSXSX# # # # # # # SXSXSXSXSXSXSXSXSXSXSXSXSXSXSXSXSXSXSXSXSXSXSXSXSXSXSXSXSXSXSXSXSX",
"SXSXSXSXSXSXSXSXSXSXSXSXSXSXSXSXSXSXSXSXSXSXSXSXSXSXSXSXSXSXSXSXSXSXSXSXSXSXSXSXSXSXSXSXSXSXSXSXSXSXSXSXSXSXSXSXSXSXSXSXSXSXSXSX",
"SXSXSXSXSXSXSXSXSXSXSXSXSXSXSXSXSXSXSXSXSXSXSXSXSXSXSXSXSXSXSXSXSXSXSXSXSXSXSXSXSXSXSXSXSXSXSXSXSXSXSXSXSXSXSXSXSXSXSXSXSXSXSXSX",
"SXSXSXSXSXSXSXSXSXSXSXSXSXSXSXSXSXSXSXSXSXSXSXSXSXSXSXSXSXSXSXSXSXSXSXSXSXSXSXSXSXSXSXSXSXSXSXSXSXSXSXSXSXSXSXSXSXSXSXSXSXSXSXSX"
};
