/* XPM */
static char *result[] = {
/* columns rows colors chars-per-pixel */
"64 64 107 2 ",
"   c #141312",
".  c #1B1A17",
"X  c #1B1A18",
"o  c #2A1E17",
"O  c #241E1A",
"+  c #24241C",
"@  c #2C231E",
"#  c #2B2B1E",
"$  c #342017",
"%  c #31231C",
"&  c #3C271D",
"*  c #222226",
"=  c #2D2D22",
"-  c #242429",
";  c #27282E",
":  c #372A22",
">  c #3D2C25",
",  c #303120",
"<  c #373827",
"1  c #3A3A27",
"2  c #35342A",
"3  c #3D3D28",
"4  c #2D2E35",
"5  c #462B1F",
"6  c #472E20",
"7  c #492D21",
"8  c #4C3122",
"9  c #473128",
"0  c #4F362B",
"q  c #543525",
"w  c #583827",
"e  c #51372C",
"r  c #5F3D2B",
"t  c #5D3D30",
"y  c #613F2C",
"u  c #43432C",
"i  c #47482E",
"p  c #48482F",
"a  c #4B4237",
"s  c #474932",
"d  c #4B4C31",
"f  c #5E4333",
"g  c #544539",
"h  c #544A3E",
"j  c #4E5135",
"k  c #515236",
"l  c #535639",
"z  c #55583A",
"x  c #595C3E",
"c  c #66422E",
"v  c #68432F",
"b  c #6D4731",
"n  c #624738",
"m  c #6E4B39",
"M  c #724C36",
"N  c #734D39",
"B  c #554B43",
"V  c #5D5244",
"C  c #5C5E40",
"Z  c #5F5E48",
"A  c #605244",
"S  c #735342",
"D  c #7C5641",
"F  c #7E5945",
"G  c #725D4C",
"H  c #5E6042",
"J  c #636645",
"K  c #6B6D4A",
"L  c #6E704C",
"P  c #72744F",
"I  c #786856",
"U  c #737550",
"Y  c #767853",
"T  c #797B55",
"R  c #8E5E47",
"E  c #835F4B",
"W  c #997C64",
"Q  c #86865F",
"!  c #8C8C64",
"~  c #9F836A",
"^  c #94946B",
"/  c #99986F",
"(  c #9F8B79",
")  c #9D9D73",
"_  c #A48A70",
"`  c #AA9276",
"'  c #A09F76",
"]  c #BC9477",
"[  c #BD9578",
"{  c #B39A7C",
"}  c #A3A278",
"|  c #C0987B",
" . c #C0A183",
".. c #CCA585",
"X. c #D1AB8A",
"o. c #D4B08E",
"O. c #D5B592",
"+. c #DAB693",
"@. c #DBB895",
"#. c #DFBC98",
"$. c #E0BD99",
"%. c #E9C39E",
"&. c #EFCBA4",
"*. c #EFD0B6",
"=. c #F3D6BF",
"-. c #F9DFCD",
";. c None",
/* pixels */
";.;.;.;.;.;.;.;.;.;.;.;.;.;.;.;.;.;.;.;.;.;.;.;.;.;.;.;.;.;.;.;.;.;.;.;.;.;.;.;.;.;.;.;.;.;.;.;.;.;.;.;.;.;.;.;.;.;.;.;.;.;.;.;.",
";.;.;.;.;.;.;.;.;.;.;.;.;.;.;.;.;.;.;.;.;.;.;.;.;.;.;.;.;.;.;.;.;.;.;.;.;.;.;.;.;.;.;.;.;.;.;.;.;.;.;.;.;.;.;.;.;.;.;.;.;.;.;.;.",
";.;.;.;.;.;.;.;.;.;.;.;.;.;.;.;.;.;.;.;.;.;.;.;.;.;.;.;.;.;.;.;.;.;.;.;.;.;.;.;.;.;.;.;.;.;.;.;.;.;.;.;.;.;.;.;.;.;.;.;.;.;.;.;.",
";.;.;.;.;.;.;.;.;.;.;.;.;.;.;.;.;.;.;.;.;.;.;.;.;.;.;.;.;.;.;.;.;.;.;.;.;.;.;.;.;.;.;.;.;.;.;.;.;.;.;.;.;.;.;.;.;.;.;.;.;.;.;.;.",
";.;.;.;.;.;.;.;.;.;.;.;.;.;.;.;.;.;.;.;.;.;.;.;.;.;.;.;.;.;.;.;.;.;.;.;.;.;.;.;.;.;.;.;.;.;.;.;.;.;.;.;.;.;.;.;.;.;.;.;.;.;.;.;.",
";.;.;.;.;.;.;.;.;.;.;.;.;.;.;.;.;.;.;.;.;.;.;.;.;.;.;.;.;.;.;.;.;.;.;.;.;.;.;.;.;.;.;.;.;.;.;.;.;.;.;.;.;.;.;.;.;.;.;.;.;.;.;.;.",
";.;.;.;.;.;.;.;.;.;.;.;.;.;.;.;.;.;.;.;.;.;.;.;.;.;.;.X X X X . X X X X X ;.;.;.;.;.;.;.;.;.;.;.;.;.;.;.;.;.;.;.;.;.;.;.;.;.;.;.",
";.;.;.;.;.;.;.;.;.;.;.;.;.;.;.;.;.;.;.;.;.;.;.;.X X X Z } } ^ ! } } ) ^ Z X X X ;.;.;.;.;.;.;.;.;.;.;.;.;.;.;.;.;.;.;.;.;.;.;.;.",
";.;.;.;.;.;.;.;.;.;.;.;.;.;.;.;.;.;.;.;.;.;.X X } ^ ! } } } ' ) ) ) } } } } } } X X ;.;.;.;.;.;.;.;.;.;.;.;.;.;.;.;.;.;.;.;.;.;.",
";.;.;.;.;.;.;.;.;.;.;.;.;.;.;.;.;.;.;.;.X X } ! U U ! U U Q ! ! ! ! ! ! ! K ! ! / } X X ;.;.;.;.;.;.;.;.;.;.;.;.;.;.;.;.;.;.;.;.",
";.;.;.;.;.;.;.;.;.;.;.;.;.;.;.;.;.;.;.X } ! Y ! ! T U l U U P P z z z z J U J U ! ! ! } X ;.;.;.;.;.;.;.;.;.;.;.;.;.;.;.;.;.;.;.",
";.;.;.;.;.;.;.;.;.;.;.;.;.;.;.;.;.X X ! ! ! ! P U U U P J C J x H H H H H C x j U z U U ^ X X ;.;.;.;.;.;.;.;.;.;.;.;.;.;.;.;.;.",
";.;.;.;.;.;.;.;.;.;.;.;.;.;.;.;.X X ! ! L P P L l z H H J C H H s s j z z z U H H x , U U ! X X ;.;.;.;.;.;.;.;.;.;.;.;.;.;.;.;.",
";.;.;.;.;.;.;.;.;.;.;.;.;.;.;.X X ! U U , z H H J : H H z k k l z z z l k k k H z x H C l U U X X ;.;.;.;.;.;.;.;.;.;.;.;.;.;.;.",
";.;.;.;.;.;.;.;.;.;.;.;.;.;.;.X ! U U U x H < z z j z z k p d d d d z z l z z z z z d H K C U U X ;.;.;.;.;.;.;.;.;.;.;.;.;.;.;.",
";.;.;.;.;.;.;.;.;.;.;.;.;.;.X U U U C H , j j z d d i 1 k d d d d d d d d u z z z z l z 1 z H U U X ;.;.;.;.;.;.;.;.;.;.;.;.;.;.",
";.;.;.;.;.;.;.;.;.;.;.;.;.;.. U U H , j z d z z i 3 d d , d d p 3 u d d p u u d d , d z z k C H z X ;.;.;.;.;.;.;.;.;.;.;.;.;.;.",
";.;.;.;.;.;.;.;.;.;.;.;.;.X z , 1 j z z 1 d 1 u , 3 , , , , , + + , , , , , 3 p u d d < z z z z z d X ;.;.;.;.;.;.;.;.;.;.;.;.;.",
";.;.;.;.;.;.;.;.;.;.;.;.;.. z z z p j p , , , , X X X X X X X + + . . . . . . . , 3 3 d l d z z d z X ;.;.;.;.;.;.;.;.;.;.;.;.;.",
";.;.;.;.;.;.;.;.;.;.;.;.X j z z l , u p , . . . : 6 6 n 6 n S E y q 6 6 5 8 f % X X X 3 3 z , d d d 3 X ;.;.;.;.;.;.;.;.;.;.;.;.",
";.;.;.;.;.;.;.;.;.;.;.;.X i , d < < 3 X . n 6 6 w N f E r D E E E y r r b c w v n q q . X 3 d d 3 s 3 X ;.;.;.;.;.;.;.;.;.;.;.;.",
";.;.;.;.;.;.;.;.;.;.;.;.X 9 d # p 3 X X 5 E E E E F M b b r y r w m r r v r f r y b c 5 X X u 3 3 , , X ;.;.;.;.;.;.;.;.;.;.;.;.",
";.;.;.;.;.;.;.;.;.;.;.;.X 3 < 3 3 , . 6 c w r b v c r r D c b y r r c b b b b c E b r r q . , , , = , X ;.;.;.;.;.;.;.;.;.;.;.;.",
";.;.;.;.;.;.;.;.;.;.;.;.X X + + . . 5 c w c w c r b b r r c b b y y M E r r r r b v r r F 6 X X + + . . ;.;.;.;.;.;.;.;.;.;.;.;.",
";.;.;.;.;.;.;.;.;.;.;.;.;.;.X X & 6 q b b b r r r y r r y r r r E E y y v E c y y y w y q 5 5 $ X X ;.;.;.;.;.;.;.;.;.;.;.;.;.;.",
";.;.;.;.;.;.;.;.;.;.;.;.;.;.X o 5 q w c r y b y r r r b r r r r M v y y y y c v r r y y r q q q   ;.;.;.;.;.;.;.;.;.;.;.;.;.;.;.",
";.;.;.;.;.;.;.;.;.;.;.;.;.;.X 5 6 q q c w q c b b r c r y r r r r y y v r r y y r E r y q q q 5 % X ;.;.;.;.;.;.;.;.;.;.;.;.;.;.",
";.;.;.;.;.;.;.;.;.;.;.;.;.;.X 5 5 q w w r r q y r b r r q q w c r r r r r y y v r y q q q w q 5 5 X ;.;.;.;.;.;.;.;.;.;.;.;.;.;.",
";.;.;.;.;.;.;.;.;.;.;.;.;.;.X 6 8 5 q q r r r q w y r r r r b v v v b b b E r r w w q q q q q 5 5 X ;.;.;.;.;.;.;.;.;.;.;.;.;.;.",
";.;.;.;.;.;.;.;.;.;.;.;.;.;.X & q 5 r w q q q r r r q q y r r r r r y r w q q r r y q y q q 5 q 5 X ;.;.;.;.;.;.;.;.;.;.;.;.;.;.",
";.;.;.;.;.;.;.;.;.;.;.;.;.;.;.X 5 q 5 r w q q q q q q q q q r r r y q y y q q q q q w q 5 q r q & X ;.;.;.;.;.;.;.;.;.;.;.;.;.;.",
";.;.;.;.;.;.;.;.;.;.;.;.;.;.;.X 5 q 5 q q q q q q y y q q q q q q q w q y q q q q w q 5 q 5 5 5 X ;.;.;.;.;.;.;.;.;.;.;.;.;.;.;.",
";.;.;.;.;.;.;.;.;.;.;.;.;.;.X X 5 5 5 q 5 q q y q q q q q q q w q q q q q q q q q 5 5 q 7 q 5 w X X ;.;.;.;.;.;.;.;.;.;.;.;.;.;.",
";.;.;.;.;.;.;.;.;.;.;.;.;.;.X X & 5 5 q q q 5 q y 6 q q q q q q q q q q q q q q 5 q q 5 5 5 r 5 X X ;.;.;.;.;.;.;.;.;.;.;.;.;.;.",
";.;.;.;.;.;.;.;.;.;.;.;.;.;.X X X X 5 5 r 5 q q 5 5 q 8 q q q r 5 q q q q q 5 5 5 5 5 q 5 5 X X X X ;.;.;.;.;.;.;.;.;.;.;.;.;.;.",
";.;.;.;.;.;.;.;.;.;.;.;.;.;.;.X X G X X 5 q q 5 q 5 5 7 q 6 5 5 5 5 5 5 5 5 q 5 5 5 5 5 X X g   X ;.;.;.;.;.;.;.;.;.;.;.;.;.;.;.",
";.;.;.;.;.;.;.;.;.;.;.;.;.;.;.;.. X W V X X X 5 5 5 5 5 q 5 q 5 5 5 q q 5 5 5 5 5 5 X X _ ~ X . ;.;.;.;.;.;.;.;.;.;.;.;.;.;.;.;.",
";.;.;.;.;.;.;.;.;.;.;.;.;.;.;.;.;.X ..@._ { { X X X q q q 5 5 5 5 5 5 q 5 5 5 X X X { _ @.[ X ;.;.;.;.;.;.;.;.;.;.;.;.;.;.;.;.;.",
";.;.;.;.;.;.;.;.;.;.;.;.;.;.;.;.;.;.X ..@.@.@.{ { ` X X X X 5 q 5 5 5 5 X . X { { { @.@...X ;.;.;.;.;.;.;.;.;.;.;.;.;.;.;.;.;.;.",
";.;.;.;.;.;.;.;.;.;.;.;.;.;.;.;.;.;.. X | @.@.@.&.@.{ { { a X X X X X X h { +.@.@.@.X.[ X . ;.;.;.;.;.;.;.;.;.;.;.;.;.;.;.;.;.;.",
";.;.;.;.;.;.;.;.;.;.;.;.;.;.;.;.;.;.;.;.X X ..o.@.@.@.@.&. ._ _ _ X _ _ O.@.&.@.@...X X ;.;.;.;.;.;.;.;.;.;.;.;.;.;.;.;.;.;.;.;.",
";.;.;.;.;.;.;.;.;.;.;.;.;.;.;.;.;.;.;.;.;.X X X ....@.@.@.@.@.@.@.@.@.$.#.....O.X X ;.;.;.;.;.;.;.;.;.;.;.;.;.;.;.;.;.;.;.;.;.;.",
";.;.;.;.;.;.;.;.;.;.;.;.;.;.;.;.;.;.;.;.;.;.;.X X X . ................[ ] X X X X ;.;.;.;.;.;.;.;.;.;.;.;.;.;.;.;.;.;.;.;.;.;.;.",
";.;.;.;.;.;.;.;.;.;.;.;.;.;.;.;.;.;.;.;.;.;.X P X d H X X X X V I X X X X H d X x X ;.;.;.;.;.;.;.;.;.;.;.;.;.;.;.;.;.;.;.;.;.;.",
";.;.;.;.;.;.;.;.;.;.;.;.;.;.;.;.;.;.;.;.;.. X K . z z U U L U 2 2 U U U L x p . L s X ;.;.;.;.;.;.;.;.;.;.;.;.;.;.;.;.;.;.;.;.;.",
";.;.;.;.;.;.;.;.;.;.;.;.;.;.;.;.;.;.;.;.;.X k X X z z H J J Y ! ! ! ! U x H l # . z X . ;.;.;.;.;.;.;.;.;.;.;.;.;.;.;.;.;.;.;.;.",
";.;.;.;.;.;.;.;.;.;.;.;.;.;.;.;.;.;.;.;.X # z . d j z H H L U H H H P H H x z d . l i X ;.;.;.;.;.;.;.;.;.;.;.;.;.;.;.;.;.;.;.;.",
";.;.;.;.;.;.;.;.;.;.;.;.;.;.;.;.;.;.;.;.X X X . d d z H H H H H H H H z x z l z X d X X X ;.;.;.;.;.;.;.;.;.;.;.;.;.;.;.;.;.;.;.",
";.;.;.;.;.;.;.;.;.;.;.;.;.;.;.;.;.;.;.X -.-.*.X - d z z H H H H H x C H z z s u X X *.%.X.X ;.;.;.;.;.;.;.;.;.;.;.;.;.;.;.;.;.;.",
";.;.;.;.;.;.;.;.;.;.;.;.;.;.;.;.;.;.;.X %.*._ X @ X X . s H x z z C z l X X X X X B *.&...X ;.;.;.;.;.;.;.;.;.;.;.;.;.;.;.;.;.;.",
";.;.;.;.;.;.;.;.;.;.;.;.;.;.;.;.;.;.;.X +.&.. . . o t E X X X X X X X X N R e X X X &.&...X ;.;.;.;.;.;.;.;.;.;.;.;.;.;.;.;.;.;.",
";.;.;.;.;.;.;.;.;.;.;.;.;.;.;.;.;.;.;.;.. X.. . m . . . X X X X X X X X X X X X # X @...X ;.;.;.;.;.;.;.;.;.;.;.;.;.;.;.;.;.;.;.",
";.;.;.;.;.;.;.;.;.;.;.;.;.;.;.;.;.;.;.;.;.X X X . . . @ 9 e 0 > O X X X . 1 d p , X X X ;.;.;.;.;.;.;.;.;.;.;.;.;.;.;.;.;.;.;.;.",
";.;.;.;.;.;.;.;.;.;.;.;.;.;.;.;.;.;.;.;.;.;.X , u 1 p < + X X , u d d l l d d 3 , . ;.;.;.;.;.;.;.;.;.;.;.;.;.;.;.;.;.;.;.;.;.;.",
";.;.;.;.;.;.;.;.;.;.;.;.;.;.;.;.;.;.;.;.;.;.X , : 3 3 j d d d d s 3 d u 3 u u 3 , X ;.;.;.;.;.;.;.;.;.;.;.;.;.;.;.;.;.;.;.;.;.;.",
";.;.;.;.;.;.;.;.;.;.;.;.;.;.;.;.;.;.;.;.;.;.X X . X X 3 3 j 3 3 X , 3 3 , , X X X X ;.;.;.;.;.;.;.;.;.;.;.;.;.;.;.;.;.;.;.;.;.;.",
";.;.;.;.;.;.;.;.;.;.;.;.;.;.;.;.;.;.;.;.;.;.;.;.X 4 X X X X X X X X . . X X X . ;.;.;.;.;.;.;.;.;.;.;.;.;.;.;.;.;.;.;.;.;.;.;.;.",
";.;.;.;.;.;.;.;.;.;.;.;.;.;.;.;.;.;.;.;.;.;.;.;.X ; 4 4 - 4 X ;.;.X ; ; ; ; ; X ;.;.;.;.;.;.;.;.;.;.;.;.;.;.;.;.;.;.;.;.;.;.;.;.",
";.;.;.;.;.;.;.;.;.;.;.;.;.;.;.;.;.;.;.;.;.;.;.;.X - 4 * - - - ;.;.X - - * * * . ;.;.;.;.;.;.;.;.;.;.;.;.;.;.;.;.;.;.;.;.;.;.;.;.",
";.;.;.;.;.;.;.;.;.;.;.;.;.;.;.;.;.;.;.;.;.;.;.;.X X X X X X X . ;.X . X X . . ;.;.;.;.;.;.;.;.;.;.;.;.;.;.;.;.;.;.;.;.;.;.;.;.;.",
";.;.;.;.;.;.;.;.;.;.;.;.;.;.;.;.;.;.;.;.;.;.;.;.;.;.;.;.;.;.;.;.;.;.;.;.;.;.;.;.;.;.;.;.;.;.;.;.;.;.;.;.;.;.;.;.;.;.;.;.;.;.;.;.",
";.;.;.;.;.;.;.;.;.;.;.;.;.;.;.;.;.;.;.;.;.;.;.;.;.;.;.;.;.;.;.;.;.;.;.;.;.;.;.;.;.;.;.;.;.;.;.;.;.;.;.;.;.;.;.;.;.;.;.;.;.;.;.;.",
";.;.;.;.;.;.;.;.;.;.;.;.;.;.;.;.;.;.;.;.;.;.;.;.;.;.;.;.;.;.;.;.;.;.;.;.;.;.;.;.;.;.;.;.;.;.;.;.;.;.;.;.;.;.;.;.;.;.;.;.;.;.;.;.",
";.;.;.;.;.;.;.;.;.;.;.;.;.;.;.;.;.;.;.;.;.;.;.;.;.;.;.;.;.;.;.;.;.;.;.;.;.;.;.;.;.;.;.;.;.;.;.;.;.;.;.;.;.;.;.;.;.;.;.;.;.;.;.;."
};
