/* XPM */
static char *result[] = {
/* columns rows colors chars-per-pixel */
"64 64 246 2 ",
"   c #141312",
".  c #1A1917",
"X  c #1B1917",
"o  c #1A1A17",
"O  c #1B1918",
"+  c #1A1A18",
"@  c #1B1A18",
"#  c #1C1A18",
"$  c #1C1B18",
"%  c #1E1B19",
"&  c #1C1B1A",
"*  c #1D1C19",
"=  c #1E1D19",
"-  c #1D1D1D",
";  c #211D1A",
":  c #22221B",
">  c #24221E",
",  c #25221E",
"<  c #27261E",
"1  c #29211D",
"2  c #2E241E",
"3  c #29291E",
"4  c #372218",
"5  c #3A241A",
"6  c #3F281C",
"7  c #212225",
"8  c #222224",
"9  c #222326",
"0  c #222327",
"q  c #2C2C22",
"w  c #2F2F22",
"e  c #232429",
"r  c #242529",
"t  c #25262C",
"y  c #26272C",
"u  c #27282E",
"i  c #303020",
"p  c #313120",
"a  c #323220",
"s  c #333222",
"d  c #323322",
"f  c #333322",
"g  c #323223",
"h  c #343423",
"j  c #353523",
"k  c #373724",
"l  c #373825",
"z  c #393A27",
"x  c #3A3A26",
"c  c #3A3B26",
"v  c #3A3A27",
"b  c #3B3B27",
"n  c #37362A",
"m  c #3D3D28",
"M  c #3C3C29",
"N  c #3E3E29",
"B  c #3F3F29",
"V  c #3E3E2A",
"C  c #282930",
"Z  c #2E2F37",
"A  c #3F3730",
"S  c #432B1E",
"D  c #432A1F",
"F  c #462B1F",
"G  c #472C1F",
"H  c #472E20",
"J  c #442E24",
"K  c #482C20",
"L  c #492D20",
"P  c #4A2E21",
"I  c #4B2F21",
"U  c #4C2F22",
"Y  c #4C3022",
"T  c #4D3022",
"R  c #4F3123",
"E  c #4E3426",
"W  c #503223",
"Q  c #513324",
"!  c #533425",
"~  c #523525",
"^  c #543525",
"/  c #553625",
"(  c #553626",
")  c #563726",
"_  c #563627",
"`  c #573727",
"'  c #573827",
"]  c #583827",
"[  c #593928",
"{  c #5A3A28",
"}  c #5B3A29",
"|  c #5C3B2A",
" . c #5E3C2A",
".. c #5E3D2B",
"X. c #5F3D2B",
"o. c #423C37",
"O. c #5B3C30",
"+. c #613E2C",
"@. c #623F2C",
"#. c #603F32",
"$. c #40402A",
"%. c #41412A",
"&. c #42432B",
"*. c #43442C",
"=. c #44442C",
"-. c #44452D",
";. c #45452E",
":. c #44452F",
">. c #47492F",
",. c #48482F",
"<. c #48492F",
"1. c #494A30",
"2. c #484A31",
"3. c #4A4B30",
"4. c #4B4C31",
"5. c #4B4D31",
"6. c #4D4E33",
"7. c #4D4F33",
"8. c #4E4F33",
"9. c #4C4E34",
"0. c #4D4E35",
"q. c #5B4132",
"w. c #5F4132",
"e. c #4E5034",
"r. c #4F5135",
"t. c #4F5136",
"y. c #505136",
"u. c #505236",
"i. c #515237",
"p. c #505337",
"a. c #515337",
"s. c #515437",
"d. c #525437",
"f. c #525537",
"g. c #505238",
"h. c #535538",
"j. c #535638",
"k. c #545639",
"l. c #545739",
"z. c #55583A",
"x. c #56593B",
"c. c #575A3B",
"v. c #57593C",
"b. c #575A3C",
"n. c #585B3D",
"m. c #595B3D",
"M. c #585A3E",
"N. c #595C3D",
"B. c #595C3E",
"V. c #5A5C3E",
"C. c #5B5C3F",
"Z. c #5A5D3F",
"A. c #5B5D3F",
"S. c #63402D",
"D. c #65412D",
"F. c #68432F",
"G. c #69442F",
"H. c #634435",
"J. c #6A4530",
"K. c #6B4530",
"L. c #6C4630",
"P. c #6E4731",
"I. c #6D4833",
"U. c #624738",
"Y. c #6D4838",
"T. c #6D4938",
"R. c #6F4C39",
"E. c #714B3A",
"W. c #724C3A",
"Q. c #744D3A",
"!. c #754E3B",
"~. c #774F3C",
"^. c #5C5E40",
"/. c #5C5F41",
"(. c #5D5F41",
"). c #605042",
"_. c #675A4A",
"`. c #5D6042",
"'. c #5E6042",
"]. c #606342",
"[. c #606243",
"{. c #626445",
"}. c #636545",
"|. c #656746",
" X c #666846",
".X c #6A6C49",
"XX c #6B6E49",
"oX c #6C6E4B",
"OX c #74604F",
"+X c #71734F",
"@X c #72744F",
"#X c #716250",
"$X c #7B6452",
"%X c #737550",
"&X c #757651",
"*X c #7B7E54",
"=X c #79785A",
"-X c #7E7E59",
";X c #7E7F5A",
":X c #845742",
">X c #885A43",
",X c #835F4B",
"<X c #94765F",
"1X c #81825B",
"2X c #83835D",
"3X c #84855E",
"4X c #86865F",
"5X c #888961",
"6X c #898962",
"7X c #8A8B63",
"8X c #8C8C64",
"9X c #8D8D65",
"0X c #929269",
"qX c #98976E",
"wX c #99986F",
"eX c #9A9A71",
"rX c #9F9E74",
"tX c #A48A70",
"yX c #A78D72",
"uX c #AC9276",
"iX c #AF9679",
"pX c #BB9477",
"aX c #BC9477",
"sX c #B1987B",
"dX c #B39A7C",
"fX c #A3A278",
"gX c #C0987B",
"hX c #BFAB9D",
"jX c #CCA585",
"kX c #CCA685",
"lX c #C6AA89",
"zX c #D0AA89",
"xX c #D7B391",
"cX c #DAB794",
"vX c #DBB895",
"bX c #DCB996",
"nX c #DFBC98",
"mX c #E0BD99",
"MX c #E3BF9A",
"NX c #E0C09B",
"BX c #EBC9A2",
"VX c #EFC9A3",
"CX c #EFCDA5",
"ZX c #EFD0B6",
"AX c #F9DFCD",
"SX c None",
/* pixels */
"SXSXSXSXSXSXSXSXSXSXSXSXSXSXSXSXSXSXSXSXSXSXSXSXSXSXSXSXSXSXSXSXSXSXSXSXSXSXSXSXSXSXSXSXSXSXSXSXSXSXSXSXSXSXSXSXSXSXSXSXSXSXSXSX",
"SXSXSXSXSXSXSXSXSXSXSXSXSXSXSXSXSXSXSXSXSXSXSXSXSXSXSXSXSXSXSXSXSXSXSXSXSXSXSXSXSXSXSXSXSXSXSXSXSXSXSXSXSXSXSXSXSXSXSXSXSXSXSXSX",
"SXSXSXSXSXSXSXSXSXSXSXSXSXSXSXSXSXSXSXSXSXSXSXSXSXSXSXSXSXSXSXSXSXSXSXSXSXSXSXSXSXSXSXSXSXSXSXSXSXSXSXSXSXSXSXSXSXSXSXSXSXSXSXSX",
"SXSXSXSXSXSXSXSXSXSXSXSXSXSXSXSXSXSXSXSXSXSXSXSXSXSXSXSXSXSXSXSXSXSXSXSXSXSXSXSXSXSXSXSXSXSXSXSXSXSXSXSXSXSXSXSXSXSXSXSXSXSXSXSX",
"SXSXSXSXSXSXSXSXSXSXSXSXSXSXSXSXSXSXSXSXSXSXSXSXSXSXSXSXSXSXSXSXSXSXSXSXSXSXSXSXSXSXSXSXSXSXSXSXSXSXSXSXSXSXSXSXSXSXSXSXSXSXSXSX",
"SXSXSXSXSXSXSXSXSXSXSXSXSXSXSXSXSXSXSXSXSXSXSXSXSXSXSXSXSXSX@ @ @ @ SXSXSXSXSXSXSXSXSXSXSXSXSXSXSXSXSXSXSXSXSXSXSXSXSXSXSXSXSXSX",
"SXSXSXSXSXSXSXSXSXSXSXSXSXSXSXSXSXSXSXSXSXSXSXSXSX@ @ @ @ @ =XfXfX=X@ @ @ @ @ SXSXSXSXSXSXSXSXSXSXSXSXSXSXSXSXSXSXSXSXSXSXSXSXSX",
"SXSXSXSXSXSXSXSXSXSXSXSXSXSXSXSXSXSXSXSXSXSX@ @ @ fXwX8X8XqXfXfXfXfXqX0XfXfXfX@ @ @ SXSXSXSXSXSXSXSXSXSXSXSXSXSXSXSXSXSXSXSXSXSX",
"SXSXSXSXSXSXSXSXSXSXSXSXSXSXSXSXSXSXSXSXSX@ @ qX8XfX%X8X8X2X6X8X%X%X%X%X;X8X8XrXfX@ @ SXSXSXSXSXSXSXSXSXSXSXSXSXSXSXSXSXSXSXSXSX",
"SXSXSXSXSXSXSXSXSXSXSXSXSXSXSXSXSXSXSX@ @ 9X1X1X8X7X8X%Xz.z.oX%X%X%X%X%X%X%X4X8X}.8XeX@ @ SXSXSXSXSXSXSXSXSXSXSXSXSXSXSXSXSXSXSX",
"SXSXSXSXSXSXSXSXSXSXSXSXSXSXSXSXSXSX@ fX%X8X8X&XN.%X%X%X%X%X%XV.'.'.'.'.x.d z.%X X%X1X8XfX@ SXSXSXSXSXSXSXSXSXSXSXSXSXSXSXSXSXSX",
"SXSXSXSXSXSXSXSXSXSXSXSXSXSXSXSXSX@ 8X8Xn.%X%X%XM.'.z.z.^.'.'.Z.z.z.oX%XoXn.'.'.V.'.%X%X%X8X@ SXSXSXSXSXSXSXSXSXSXSXSXSXSXSXSXSX",
"SXSXSXSXSXSXSXSXSXSXSXSXSXSXSXSX@ 8X8X%X%Xc.A.'.'.'.Z.i '.B.z.z.h.v.C.'.'.0.2.z.z.'.'.z.'.z.8X@ SXSXSXSXSXSXSXSXSXSXSXSXSXSXSXSX",
"SXSXSXSXSXSXSXSXSXSXSXSXSXSXSX@ 8X8X%X%X'.'.z.z.z.z.a.i.z.z.z.z.z.z.z.z.z.z.z.'.k.V '.'.'.z.+X%X@ SXSXSXSXSXSXSXSXSXSXSXSXSXSXSX",
"SXSXSXSXSXSXSXSXSXSXSXSXSXSX@ n 3X%X|.z.`.y.z.y.z.4.h.z.z.z i i i i i i z.z.z.4.z.z.z.i z.'.(.z.n @ SXSXSXSXSXSXSXSXSXSXSXSXSXSX",
"SXSXSXSXSXSXSXSXSXSXSXSXSXSX@ %X%Xx.'.u.y.z.4.z.z.s.m m m %.,.4.4.,.m m -.4.4.-.i z.z.z.'.'.z.z.z.@ SXSXSXSXSXSXSXSXSXSXSXSXSXSX",
"SXSXSXSXSXSXSXSXSXSXSXSXSX@ z.z.'.:.i.4.4.p.4.m i m m N c %.m m m 4.4.4.N m 4.1.4.4.4.r.z.z.z.l j 4.@ SXSXSXSXSXSXSXSXSXSXSXSXSX",
"SXSXSXSXSXSXSXSXSXSXSXSXSX@ z.b.y.z.d.9.N b i i i i @ @ @ @ @ @ @ @ @ @ @ @ i i i m 4.4.4.z.z.z.z.l.@ SXSXSXSXSXSXSXSXSXSXSXSXSX",
"SXSXSXSXSXSXSXSXSXSXSXSX@ M z.z.e.4.4.m i i @ @ @ @ H E q.U.U.U.q.H H 6 H H @ @ @ @ m i 4.4.4.4.z.4.g @ SXSXSXSXSXSXSXSXSXSXSXSX",
"SXSXSXSXSXSXSXSXSXSXSXSX@ 4.z.l.4.<.,.i @ @ H H H H ,XX.X.X.X.X.X.^ X.X.J.X.H ~ ~ ~ @ @ m m 4.4.4.m m @ SXSXSXSXSXSXSXSXSXSXSXSX",
"SXSXSXSXSXSXSXSXSXSXSXSX@ m 4.4.m $.3 @ H H X.X.,XP.P.+.R.,XX.X.X.X.,XX.J.L.X.,XX.X.~ H @ 3 -.m m i x @ SXSXSXSXSXSXSXSXSXSXSXSX",
"SXSXSXSXSXSXSXSXSXSXSXSX@ m m m 3.i @ H X.X.X.L.F.X.G.I.,XP.X.X.X.X.X.X.X.X.,XP.X.,XX.X.~ @ i k i i i @ SXSXSXSXSXSXSXSXSXSXSXSX",
"SXSXSXSXSXSXSXSXSXSXSXSX@ @ m h i @ % K.P.X.X.J.P.P.X.X.X.P.X.D.P.@.X.P.X.X.,XX.X.P.X.X.K.% @ i i i @ @ SXSXSXSXSXSXSXSXSXSXSXSX",
"SXSXSXSXSXSXSXSXSXSXSXSXSX@ @ @ @ H H X.X.X.X.K.X.X.X.P.@.X.P.P.P.X.X.X.X.K.P.P.X.X.P.X.X.S H @ @ @ @ SXSXSXSXSXSXSXSXSXSXSXSXSX",
"SXSXSXSXSXSXSXSXSXSXSXSXSXSXSX  4 Y X.X.X.P.X.X.X.X.X.X.X.X.X.X.X.P.P.X.X.X.X.X.P.X.X.,XX.^ Y 5   SXSXSXSXSXSXSXSXSXSXSXSXSXSXSX",
"SXSXSXSXSXSXSXSXSXSXSXSXSXSX@ F F X.^ X.X.X.P.P.X.X.L.X.L.P.P.P.P.P.P.K.P.G.X.X.X.+.X./ ^ ' ' P @ SXSXSXSXSXSXSXSXSXSXSXSXSXSXSX",
"SXSXSXSXSXSXSXSXSXSXSXSXSXSX@ F F ^ ^ X...S.P.P.X.X.X.^ ' X.X.X.X.X.X.X.X.X.X.X.,XX.[ ^ ^ ^ ^ I F @ SXSXSXSXSXSXSXSXSXSXSXSXSXSX",
"SXSXSXSXSXSXSXSXSXSXSXSXSXSX@ F F X.^ ^ ] X./ ^ X.X.X.P.J.X.X.X.^ ^ ^ X.X.X.,XX.X.^ ^ ^ ^ ^ X.F F @ SXSXSXSXSXSXSXSXSXSXSXSXSXSX",
"SXSXSXSXSXSXSXSXSXSXSXSXSXSX@ _ ^ F X.^ ^ ^ X.X. .^ ^ X.X.X.X.X.X.X.X.X.X.X.^ ^ X.^ ^ / ^ X.F K F @ SXSXSXSXSXSXSXSXSXSXSXSXSXSX",
"SXSXSXSXSXSXSXSXSXSXSXSXSXSXSX@ F ^ ^ X.^ ^ X.( X.X.X.X.X.^ X.X.X.X.X.^ X.X.^ X.X.^ ^ ^ ^ F ! ^ F @ SXSXSXSXSXSXSXSXSXSXSXSXSXSX",
"SXSXSXSXSXSXSXSXSXSXSXSXSXSXSX@ F ^ F ) ! ^ ^ ^ X.X.^ ^ ^ ^ ^ ^ ^ { X.X./ X.| ^ ^ X.^ G ^ X.F ^ @ SXSXSXSXSXSXSXSXSXSXSXSXSXSXSX",
"SXSXSXSXSXSXSXSXSXSXSXSXSXSX@ @ F ! F R ^ ^ ^ ^ ^ ^ | X.` { X.X.X.X.^ ^ ^ ^ ^ ^ ^ ^ F ^ ^ F F F @ @ SXSXSXSXSXSXSXSXSXSXSXSXSXSX",
"SXSXSXSXSXSXSXSXSXSXSXSXSXSX@ @ F F F W ^ ^ ^ F T U ^ ^ X.X.^ ^ ^ ^ ^ ^ X.^ ^ F F ^ ^ ! F F F F @ @ SXSXSXSXSXSXSXSXSXSXSXSXSXSX",
"SXSXSXSXSXSXSXSXSXSXSXSXSXSX@ jX@ @ ^ F ] ^ } F F / F X.X.^ ^ X.X.^ ^ ^ ^ ^ ^ F ^ F F F I F F @ @ @ SXSXSXSXSXSXSXSXSXSXSXSXSXSX",
"SXSXSXSXSXSXSXSXSXSXSXSXSXSXSX@   @ @ F F ^ F ^ ^ ! ! F F Q ^ ^ ^ ^ ^ ^ ^ F ^ ^ ^ F ^ F F @ @   @ SXSXSXSXSXSXSXSXSXSXSXSXSXSXSX",
"SXSXSXSXSXSXSXSXSXSXSXSXSXSXSXSX@ pXtX@ @ @ @ F F F F ! F ^ ^ ^ F F F Q F ^ T ! F F F @ @ tX<X@ SXSXSXSXSXSXSXSXSXSXSXSXSXSXSXSX",
"SXSXSXSXSXSXSXSXSXSXSXSXSXSXSXSXSX@ jXtXtXdX_.@ F F F ..F L F F F W L F ^ Q F T @ @ @ sXyXjX@ SXSXSXSXSXSXSXSXSXSXSXSXSXSXSXSXSX",
"SXSXSXSXSXSXSXSXSXSXSXSXSXSXSXSXSX@ , jXvXvXnXdX@ @ @ D F F F F F F F F F @ @ @ #XdXNXvXjX, @ SXSXSXSXSXSXSXSXSXSXSXSXSXSXSXSXSX",
"SXSXSXSXSXSXSXSXSXSXSXSXSXSXSXSXSXSX@ @ jXvXvXmXvXdXdX@ @ @ @ @ F F @ @ @ dXdXdXBXvXvXjX@ @ SXSXSXSXSXSXSXSXSXSXSXSXSXSXSXSXSXSX",
"SXSXSXSXSXSXSXSXSXSXSXSXSXSXSXSXSXSXSX@ @ aXjXvXvXvXCXlXdXuXuXiX@ @ @ tXtXvXvXBXvXjXgX@ @ SXSXSXSXSXSXSXSXSXSXSXSXSXSXSXSXSXSXSX",
"SXSXSXSXSXSXSXSXSXSXSXSXSXSXSXSXSXSXSXSXSX@ @ aXjXvXvXvXvXvXvXbXdXdXtXvXvXvXjXjXjX@ @ SXSXSXSXSXSXSXSXSXSXSXSXSXSXSXSXSXSXSXSXSX",
"SXSXSXSXSXSXSXSXSXSXSXSXSXSXSXSXSXSXSXSXSXSXSX@ @ @ jXjXjXjXzXxXvXvXxXjXjXaX@ @ @ SXSXSXSXSXSXSXSXSXSXSXSXSXSXSXSXSXSXSXSXSXSXSX",
"SXSXSXSXSXSXSXSXSXSXSXSXSXSXSXSXSXSXSXSXSXSXo @ * q @ @ @ OXaXaXaXaX$X@ @ @ v @ = @ SXSXSXSXSXSXSXSXSXSXSXSXSXSXSXSXSXSXSXSXSXSX",
"SXSXSXSXSXSXSXSXSXSXSXSXSXSXSXSXSXSXSXSXSXSX@ *X@ j.A.'.@X@ @ @ @ @ @ %X%X'.4.@ XX@ . SXSXSXSXSXSXSXSXSXSXSXSXSXSXSXSXSXSXSXSXSX",
"SXSXSXSXSXSXSXSXSXSXSXSXSXSXSXSXSXSXSXSXSX@ t.].@ z.z.}.%X%X5X%X%X8X[.oX'.m.6.@ g.z.@ SXSXSXSXSXSXSXSXSXSXSXSXSXSXSXSXSXSXSXSXSX",
"SXSXSXSXSXSXSXSXSXSXSXSXSXSXSXSXSXSXSXSXo @ l.@ ;.z.z.'.%X'.'.-X%X%X'.'.'.'.z.3.@ z.>.@ SXSXSXSXSXSXSXSXSXSXSXSXSXSXSXSXSXSXSXSX",
"SXSXSXSXSXSXSXSXSXSXSXSXSXSXSXSXSXSXSXSX@ = t.@ 4.4.z.`.'..X%X%X{.%X'.'.'.z.z.f.@ t.< @ o SXSXSXSXSXSXSXSXSXSXSXSXSXSXSXSXSXSXSX",
"SXSXSXSXSXSXSXSXSXSXSXSXSXSXSXSXSXSXSX@ AXo.@ @ 4.4.z.n.'.'.'.'.'.'.`.'./.z.7.z.@ @ > vX@ + SXSXSXSXSXSXSXSXSXSXSXSXSXSXSXSXSXSX",
"SXSXSXSXSXSXSXSXSXSXSXSXSXSXSXSXSXSXSX@ ZXZXZX@ @ @ z.z.'.'.'.'.'.'.`.z.z.z.$ @ @ hXZXVXjX@ SXSXSXSXSXSXSXSXSXSXSXSXSXSXSXSXSXSX",
"SXSXSXSXSXSXSXSXSXSXSXSXSXSXSXSXSXSXSX@ VXVXA # O.>X@ @ @ @ @ @ @ @ @ @ @ @ w.!.1 @ ZXVXjX@ SXSXSXSXSXSXSXSXSXSXSXSXSXSXSXSXSXSX",
"SXSXSXSXSXSXSXSXSXSXSXSXSXSXSXSXSXSXSX@ cXVX@ @ @ @ @ ; O.Y.W.Q.T.~.E.#.2 @ @ @ @ @ MXkX@ SXSXSXSXSXSXSXSXSXSXSXSXSXSXSXSXSXSXSX",
"SXSXSXSXSXSXSXSXSXSXSXSXSXSXSXSXSXSXSXSX@ @ @ @ J #.:XH.@ @ @ @ @ @ @ @ @ @ @ 4.i @ ).@ X SXSXSXSXSXSXSXSXSXSXSXSXSXSXSXSXSXSXSX",
"SXSXSXSXSXSXSXSXSXSXSXSXSXSXSXSXSXSXSXSXSXSX@ f @ @ @ @ @ @ @ @ @ @ @ w 5.d.4.m i @ SXSXSXSXSXSXSXSXSXSXSXSXSXSXSXSXSXSXSXSXSXSX",
"SXSXSXSXSXSXSXSXSXSXSXSXSXSXSXSXSXSXSXSXSXSX@ i m m 4.4.4.4.4.4.4.6.z.z.8.4.B m i @ SXSXSXSXSXSXSXSXSXSXSXSXSXSXSXSXSXSXSXSXSXSX",
"SXSXSXSXSXSXSXSXSXSXSXSXSXSXSXSXSXSXSXSXSXSX@ i p a m m &.m B m z 4.m *.m m =.m i @ SXSXSXSXSXSXSXSXSXSXSXSXSXSXSXSXSXSXSXSXSXSX",
"SXSXSXSXSXSXSXSXSXSXSXSXSXSXSXSXSXSXSXSXSXSXSX@ @ @ @ @ @ s @ @ @ @ @ : @ @ @ @ @ SXSXSXSXSXSXSXSXSXSXSXSXSXSXSXSXSXSXSXSXSXSXSX",
"SXSXSXSXSXSXSXSXSXSXSXSXSXSXSXSXSXSXSXSXSXSXSXSX@ Z e e 0 @ . SXSX@ C @ Z t Z @ SXSXSXSXSXSXSXSXSXSXSXSXSXSXSXSXSXSXSXSXSXSXSXSX",
"SXSXSXSXSXSXSXSXSXSXSXSXSXSXSXSXSXSXSXSXSXSXSXSX@ u u u u u @ SXSX@ u u u u y @ SXSXSXSXSXSXSXSXSXSXSXSXSXSXSXSXSXSXSXSXSXSXSXSX",
"SXSXSXSXSXSXSXSXSXSXSXSXSXSXSXSXSXSXSXSXSXSXSXSX@ r r 7 9 9 8 O SX@ - & @ @ @ @ SXSXSXSXSXSXSXSXSXSXSXSXSXSXSXSXSXSXSXSXSXSXSXSX",
"SXSXSXSXSXSXSXSXSXSXSXSXSXSXSXSXSXSXSXSXSXSXSXSX# @ @ @ @ @ @ SXSX+ SXSXSXSXSXSXSXSXSXSXSXSXSXSXSXSXSXSXSXSXSXSXSXSXSXSXSXSXSXSX",
"SXSXSXSXSXSXSXSXSXSXSXSXSXSXSXSXSXSXSXSXSXSXSXSXSXSXSXSXSXSXSXSXSXSXSXSXSXSXSXSXSXSXSXSXSXSXSXSXSXSXSXSXSXSXSXSXSXSXSXSXSXSXSXSX",
"SXSXSXSXSXSXSXSXSXSXSXSXSXSXSXSXSXSXSXSXSXSXSXSXSXSXSXSXSXSXSXSXSXSXSXSXSXSXSXSXSXSXSXSXSXSXSXSXSXSXSXSXSXSXSXSXSXSXSXSXSXSXSXSX",
"SXSXSXSXSXSXSXSXSXSXSXSXSXSXSXSXSXSXSXSXSXSXSXSXSXSXSXSXSXSXSXSXSXSXSXSXSXSXSXSXSXSXSXSXSXSXSXSXSXSXSXSXSXSXSXSXSXSXSXSXSXSXSXSX",
"SXSXSXSXSXSXSXSXSXSXSXSXSXSXSXSXSXSXSXSXSXSXSXSXSXSXSXSXSXSXSXSXSXSXSXSXSXSXSXSXSXSXSXSXSXSXSXSXSXSXSXSXSXSXSXSXSXSXSXSXSXSXSXSX"
};
