/* XPM */
static char *result[] = {
/* columns rows colors chars-per-pixel */
"64 64 251 2 ",
"   c #141312",
".  c #1A1917",
"X  c #1B1A17",
"o  c #1B1918",
"O  c #1B1A18",
"+  c #1C1A18",
"@  c #1E1B19",
"#  c #1C1B1A",
"$  c #1E1C19",
"%  c #1C1B1C",
"&  c #2A1E17",
"*  c #211D1A",
"=  c #201F1B",
"-  c #241F1B",
";  c #261F1A",
":  c #20201A",
">  c #22211B",
",  c #24231B",
"<  c #25201C",
"1  c #26251C",
"2  c #28211D",
"3  c #2E231C",
"4  c #2E241F",
"5  c #2F251F",
"6  c #2A2A1D",
"7  c #342017",
"8  c #31231C",
"9  c #3E271B",
"0  c #3B271D",
"q  c #212225",
"w  c #222224",
"e  c #222326",
"r  c #2B2723",
"t  c #2B2B21",
"y  c #2E2D21",
"u  c #232429",
"i  c #242529",
"p  c #25262C",
"a  c #26272C",
"s  c #26272D",
"d  c #27282E",
"f  c #352721",
"g  c #372A22",
"h  c #382922",
"j  c #3D2E25",
"k  c #303020",
"l  c #323221",
"z  c #333422",
"x  c #353523",
"c  c #313126",
"v  c #333227",
"b  c #373724",
"n  c #343526",
"m  c #343527",
"M  c #373726",
"N  c #393926",
"B  c #393A27",
"V  c #3A3A26",
"C  c #3A3B26",
"Z  c #3B3B27",
"A  c #3C3C27",
"S  c #3C3D28",
"D  c #3D3D28",
"F  c #3F3F29",
"G  c #3D3E2C",
"H  c #2C2D35",
"J  c #2D2E35",
"K  c #2D2E36",
"L  c #2E2F37",
"P  c #462B1F",
"I  c #472C1F",
"U  c #472D1F",
"Y  c #472E20",
"T  c #482C20",
"R  c #482D20",
"E  c #4A2E21",
"W  c #4A3021",
"Q  c #4E3123",
"!  c #493429",
"~  c #503223",
"^  c #513324",
"/  c #503424",
"(  c #513424",
")  c #533425",
"_  c #523525",
"`  c #533626",
"'  c #543525",
"]  c #553625",
"[  c #553626",
"{  c #563726",
"}  c #573727",
"|  c #583827",
" . c #593928",
".. c #5A3928",
"X. c #5A3A28",
"o. c #5B3A29",
"O. c #5C3B29",
"+. c #5C3B2A",
"@. c #5D3C2A",
"#. c #5E3C2A",
"$. c #5F3D2B",
"%. c #5B3C30",
"&. c #603E2B",
"*. c #613E2C",
"=. c #613F2D",
"-. c #623F2C",
";. c #41412A",
":. c #42422B",
">. c #43442C",
",. c #44452D",
"<. c #45452D",
"1. c #46472D",
"2. c #44452F",
"3. c #45472F",
"4. c #46462E",
"5. c #47482E",
"6. c #48482F",
"7. c #444630",
"8. c #4B4237",
"9. c #474831",
"0. c #484A30",
"q. c #494A30",
"w. c #494B30",
"e. c #4A4B30",
"r. c #4B4C31",
"t. c #4C4D32",
"y. c #4D4F33",
"u. c #4E4F33",
"i. c #4B4C34",
"p. c #4A423B",
"a. c #5E4333",
"s. c #544539",
"d. c #544A3E",
"f. c #4D5035",
"g. c #4E5135",
"h. c #4F5136",
"j. c #505136",
"k. c #505236",
"l. c #515336",
"z. c #515237",
"x. c #515337",
"c. c #525437",
"v. c #525538",
"b. c #535538",
"n. c #545639",
"m. c #545739",
"M. c #54573A",
"N. c #55583A",
"B. c #56593B",
"V. c #575A3C",
"C. c #585B3D",
"Z. c #595C3E",
"A. c #5A5D3F",
"S. c #5B5D3F",
"D. c #63402D",
"F. c #64412F",
"G. c #67422E",
"H. c #67432E",
"J. c #68432F",
"K. c #6A4530",
"L. c #6B4530",
"P. c #684633",
"I. c #6D4631",
"U. c #6E4731",
"Y. c #624738",
"T. c #6F4C39",
"R. c #724C36",
"E. c #734D38",
"W. c #724C3A",
"Q. c #744C3A",
"!. c #5D5244",
"~. c #5B5D40",
"^. c #5C5E40",
"/. c #5D5F41",
"(. c #5F5E48",
"). c #605244",
"_. c #735342",
"`. c #7B5641",
"'. c #7A5743",
"]. c #7E5945",
"[. c #725D4C",
"{. c #5E6141",
"}. c #5D6042",
"|. c #5E6042",
" X c #5F6143",
".X c #606342",
"XX c #606243",
"oX c #646745",
"OX c #696C47",
"+X c #686A49",
"@X c #6A6C49",
"#X c #6B6E49",
"$X c #6B6D4A",
"%X c #6B6D4B",
"&X c #6E714B",
"*X c #6D704C",
"=X c #6F714D",
"-X c #71734F",
";X c #72744F",
":X c #786856",
">X c #737550",
",X c #757651",
"<X c #767853",
"1X c #797B55",
"2X c #885A44",
"3X c #8E5E47",
"4X c #835F4B",
"5X c #997C64",
"6X c #86865F",
"7X c #8A8B63",
"8X c #8C8C64",
"9X c #9F836A",
"0X c #929269",
"qX c #93936A",
"wX c #95946C",
"eX c #96966D",
"rX c #99986F",
"tX c #938071",
"yX c #9D9D73",
"uX c #A48A70",
"iX c #A78E73",
"pX c #AA9276",
"aX c #A09F76",
"sX c #BC9477",
"dX c #BD9578",
"fX c #B39A7C",
"gX c #A3A278",
"hX c #C0987B",
"jX c #C0A183",
"kX c #C9A282",
"lX c #CCA585",
"zX c #D0AA89",
"xX c #D4B08E",
"cX c #D4B290",
"vX c #D5B793",
"bX c #D9B491",
"nX c #D8B492",
"mX c #DAB794",
"MX c #D9B895",
"NX c #DBB895",
"BX c #DBB896",
"VX c #DFBC98",
"CX c #E0BD99",
"ZX c #E4C09B",
"AX c #E5C19C",
"SX c #EFC9A3",
"DX c #EFCDA5",
"FX c #EFCDAF",
"GX c #EFD0B6",
"HX c #F9DFCD",
"JX c None",
/* pixels */
"JXJXJXJXJXJXJXJXJXJXJXJXJXJXJXJXJXJXJXJXJXJXJXJXJXJXJXJXJXJXJXJXJXJXJXJXJXJXJXJXJXJXJXJXJXJXJXJXJXJXJXJXJXJXJXJXJXJXJXJXJXJXJXJX",
"JXJXJXJXJXJXJXJXJXJXJXJXJXJXJXJXJXJXJXJXJXJXJXJXJXJXJXJXJXJXJXJXJXJXJXJXJXJXJXJXJXJXJXJXJXJXJXJXJXJXJXJXJXJXJXJXJXJXJXJXJXJXJXJX",
"JXJXJXJXJXJXJXJXJXJXJXJXJXJXJXJXJXJXJXJXJXJXJXJXJXJXJXJXJXJXJXJXJXJXJXJXJXJXJXJXJXJXJXJXJXJXJXJXJXJXJXJXJXJXJXJXJXJXJXJXJXJXJXJX",
"JXJXJXJXJXJXJXJXJXJXJXJXJXJXJXJXJXJXJXJXJXJXJXJXJXJXJXJXJXJXJXJXJXJXJXJXJXJXJXJXJXJXJXJXJXJXJXJXJXJXJXJXJXJXJXJXJXJXJXJXJXJXJXJX",
"JXJXJXJXJXJXJXJXJXJXJXJXJXJXJXJXJXJXJXJXJXJXJXJXJXJXJXJXJXJXJXJXJXJXJXJXJXJXJXJXJXJXJXJXJXJXJXJXJXJXJXJXJXJXJXJXJXJXJXJXJXJXJXJX",
"JXJXJXJXJXJXJXJXJXJXJXJXJXJXJXJXJXJXJXJXJXJXJXJXJXJXJXJXJXJXJXJXJXJXJXJXJXJXJXJXJXJXJXJXJXJXJXJXJXJXJXJXJXJXJXJXJXJXJXJXJXJXJXJX",
"JXJXJXJXJXJXJXJXJXJXJXJXJXJXJXJXJXJXJXJXJXJXJXJXJXJXJXO O O O O O O O O O JXJXJXJXJXJXJXJXJXJXJXJXJXJXJXJXJXJXJXJXJXJXJXJXJXJXJX",
"JXJXJXJXJXJXJXJXJXJXJXJXJXJXJXJXJXJXJXJXJXJXJXJXO O O (.gXgX0X8XgXgXyXeX(.O O O JXJXJXJXJXJXJXJXJXJXJXJXJXJXJXJXJXJXJXJXJXJXJXJX",
"JXJXJXJXJXJXJXJXJXJXJXJXJXJXJXJXJXJXJXJXJXJXO O gXqX8XgXgXgXaXyXyXyXgXgXgXgXgXgXO O JXJXJXJXJXJXJXJXJXJXJXJXJXJXJXJXJXJXJXJXJXJX",
"JXJXJXJXJXJXJXJXJXJXJXJXJXJXJXJXJXJXJXJXO O gX8X>X,X8X>X>X6X8X8X8X8X8X8X8X@X8X8XrXgXO O JXJXJXJXJXJXJXJXJXJXJXJXJXJXJXJXJXJXJXJX",
"JXJXJXJXJXJXJXJXJXJXJXJXJXJXJXJXJXJXJXO gX8X<X8X8X1X>XN.>X>X>X>XN.N.N.N.oX>X.X>X8X8X8XgXO JXJXJXJXJXJXJXJXJXJXJXJXJXJXJXJXJXJXJX",
"JXJXJXJXJXJXJXJXJXJXJXJXJXJXJXJXJXO O 8X8X8X8X-X>X>X>X>X|.|.|.^.|.|.|.|.|.|.Z.g.>XN.>X>XwXO O JXJXJXJXJXJXJXJXJXJXJXJXJXJXJXJXJX",
"JXJXJXJXJXJXJXJXJXJXJXJXJXJXJXJXO O 8X8X-X>X>X*XN.C.|.|.|.|.|.|.9.9.f.N.N.N.>X|.|.V.k >X>X8XO O JXJXJXJXJXJXJXJXJXJXJXJXJXJXJXJX",
"JXJXJXJXJXJXJXJXJXJXJXJXJXJXJXO O 7X>X>Xk N.|.|.|.k |.^.N.j.j.m.N.N.N.b.j.j.z.|.V.C.|.S.N.;X>XO O JXJXJXJXJXJXJXJXJXJXJXJXJXJXJX",
"JXJXJXJXJXJXJXJXJXJXJXJXJXJXJXO 8X>X-X>XC.|.x N.N.j.N.N.l.r.r.r.u.r.N.N.N.N.N.N.N.N.i.|.%XS.>X-XO JXJXJXJXJXJXJXJXJXJXJXJXJXJXJX",
"JXJXJXJXJXJXJXJXJXJXJXJXJXJXO >X>X>X/.|.k j.j.N.r.r.3.S k.r.r.r.r.r.r.r.r.,.N.N.N.N.N.N.B B. X>X>XO JXJXJXJXJXJXJXJXJXJXJXJXJXJX",
"JXJXJXJXJXJXJXJXJXJXJXJXJXJXO >X>X}.k j.N.r.N.N.6.D r.r.z r.r.6.;.;.r.r.q.;.>.r.r.k r.N.N.z.~.|.N.O JXJXJXJXJXJXJXJXJXJXJXJXJXJX",
"JXJXJXJXJXJXJXJXJXJXJXJXJXO N.k N j.N.m.B r.D D k D k k k k k 1 1 k k k k k Z e.<.r.r.C N.N.N.N.N.r.O JXJXJXJXJXJXJXJXJXJXJXJXJX",
"JXJXJXJXJXJXJXJXJXJXJXJXJXO N.N.M.r.r.r.k k k k O O O O O O O ; ; O O O O O O O k D D r.c.r.N.N.r.N.O JXJXJXJXJXJXJXJXJXJXJXJXJX",
"JXJXJXJXJXJXJXJXJXJXJXJXO r.N.N.b.l ;.r.k O O O g Y Y Y.Y Y._.4X$.` Y Y Y W a.3 O O O D D N.k r.r.r.D O JXJXJXJXJXJXJXJXJXJXJXJX",
"JXJXJXJXJXJXJXJXJXJXJXJXO <.k r.x b D O O Y.Y Y +.T.$.4X$.'.4X4X4X$.$.$.U.$.$.L.Y.( _ O O D r.t.D q.D O JXJXJXJXJXJXJXJXJXJXJXJX",
"JXJXJXJXJXJXJXJXJXJXJXJXO D r.k r.D O @ Y 4X4X4X4X4XE.U.U.$.$.$.| T.$.$.H.$.$.$.$.U.D.Y $ O 4.D D k k O JXJXJXJXJXJXJXJXJXJXJXJX",
"JXJXJXJXJXJXJXJXJXJXJXJXO D V D D k O Y $.$.$.U.J.$.$.$.`.=.U.$.$.$.G.U.U.U.U.F.4XU.$.$._ O k k k k k O JXJXJXJXJXJXJXJXJXJXJXJX",
"JXJXJXJXJXJXJXJXJXJXJXJX+ O : 1 O O Y $.&.$.$.$.$.U.U.$.$.H.U.U.$.$.R.4X$.$.$.$.U.J.$.$.].Y O O 1 : O + JXJXJXJXJXJXJXJXJXJXJXJX",
"JXJXJXJXJXJXJXJXJXJXJXJXJXJXO O 9 Y / U.U.U.$.$.$.$.$.$.$.$.$.$.4X4X$.-.U.4XG.$.$.*.$.$.' U Y 7 O O JXJXJXJXJXJXJXJXJXJXJXJXJXJX",
"JXJXJXJXJXJXJXJXJXJXJXJXJXJXo & P ' $.$.$.$.U.$.$.$.$.U.$.$.$.$.U.I.$.$.$.$.G.U.$.$.$.$.$.' ' Q   JXJXJXJXJXJXJXJXJXJXJXJXJXJXJX",
"JXJXJXJXJXJXJXJXJXJXJXJXJXJXO P P ' ' $.@.' *.U.U.$.D.$.$.$.$.$.$.$.-.U.$.$.$.$.$.4X$.#.' ' ' P 8 O JXJXJXJXJXJXJXJXJXJXJXJXJXJX",
"JXJXJXJXJXJXJXJXJXJXJXJXJXJXO P P ' O.$.$.$.' $.$.U.$.$.' ' +.$.$.$.$.$.$.$.$.P.$.$.] ' ' X.' P P O JXJXJXJXJXJXJXJXJXJXJXJXJXJX",
"JXJXJXJXJXJXJXJXJXJXJXJXJXJXO R E P ' ' $.@.$.'  .$.$.$.$.$.U.K.G.K.U.U.P.4X$.$.....' ' ' ' ) P P O JXJXJXJXJXJXJXJXJXJXJXJXJXJX",
"JXJXJXJXJXJXJXJXJXJXJXJXJXJXO 0 ' P $...' ' ' $.$.$.' ' $.$.$.$.$.$.$.$.o.' ' $.$.$.' $.' ' P ' P O JXJXJXJXJXJXJXJXJXJXJXJXJXJX",
"JXJXJXJXJXJXJXJXJXJXJXJXJXJXJXO P ' P $.| ' ' ' [ [ ' ' ' ' $.$.$.$.' $.$.' } ' ' ' X.' P ' $.' 0 O JXJXJXJXJXJXJXJXJXJXJXJXJXJX",
"JXJXJXJXJXJXJXJXJXJXJXJXJXJXJXO P ' P ' ' ' ' ' ' $.$.' ' ' ' ' ' ' X.' $.' ' ' ' | ' P ' P P P O JXJXJXJXJXJXJXJXJXJXJXJXJXJXJX",
"JXJXJXJXJXJXJXJXJXJXJXJXJXJXO O P P P ' P ' ^ $.' ' ' ' ' ' ' ..' ' ' ' ' ' ' ' ' P I ' E ) P  .O O JXJXJXJXJXJXJXJXJXJXJXJXJXJX",
"JXJXJXJXJXJXJXJXJXJXJXJXJXJXO O 0 P P ' ' ' P ' $.P ' ' ' ' ' ' ' ' ' { ' ' ' ) P ' ' P P P @.P O O JXJXJXJXJXJXJXJXJXJXJXJXJXJX",
"JXJXJXJXJXJXJXJXJXJXJXJXJXJXO O O O P P $.P ' } I P ^ ^ } ' ' $.I ' ' ' ' ' P P P P P ' P P O O O O JXJXJXJXJXJXJXJXJXJXJXJXJXJX",
"JXJXJXJXJXJXJXJXJXJXJXJXJXJXJXo O [.O O P ' ' P ' P P T ' P P P P P P P I I ' P P P P P O O s.  O JXJXJXJXJXJXJXJXJXJXJXJXJXJXJX",
"JXJXJXJXJXJXJXJXJXJXJXJXJXJXJXJXX O 5X).O O O P P P P P ' P ' P P P ' ' P P P P P P O O uX9XO X JXJXJXJXJXJXJXJXJXJXJXJXJXJXJXJX",
"JXJXJXJXJXJXJXJXJXJXJXJXJXJXJXJXJXO lXNXuXfXfXO O O ' ' ' P P P P P P ' P P P O O O fXuXNXdXO JXJXJXJXJXJXJXJXJXJXJXJXJXJXJXJXJX",
"JXJXJXJXJXJXJXJXJXJXJXJXJXJXJXJXJXJXO lXNXNXNXfXfXpXO O O O P ~ P P P P O O O fXfXfXNXNXlXO JXJXJXJXJXJXJXJXJXJXJXJXJXJXJXJXJXJX",
"JXJXJXJXJXJXJXJXJXJXJXJXJXJXJXJXJXJXX O hXmXNXNXDXNXfXfXfX8.O O O O O O d.fXvXNXNXNXzXdXO X JXJXJXJXJXJXJXJXJXJXJXJXJXJXJXJXJXJX",
"JXJXJXJXJXJXJXJXJXJXJXJXJXJXJXJXJXJXJXJXO O lXxXNXNXNXNXDXjXuXuXuXO uXuXcXNXDXNXNXlXO O JXJXJXJXJXJXJXJXJXJXJXJXJXJXJXJXJXJXJXJX",
"JXJXJXJXJXJXJXJXJXJXJXJXJXJXJXJXJXJXJXJXJX+ O O lXlXNXNXNXNXNXNXNXMXNXCXVXlXlXbXO O JXJXJXJXJXJXJXJXJXJXJXJXJXJXJXJXJXJXJXJXJXJX",
"JXJXJXJXJXJXJXJXJXJXJXJXJXJXJXJXJXJXJXJXJXJXJXO O O O kXlXlXlXlXlXlXlXdXsXO O O O JXJXJXJXJXJXJXJXJXJXJXJXJXJXJXJXJXJXJXJXJXJXJX",
"JXJXJXJXJXJXJXJXJXJXJXJXJXJXJXJXJXJXJXJXJXJXO {.O y.|.O O O O !.:XO O O O |.r.O OXO JXJXJXJXJXJXJXJXJXJXJXJXJXJXJXJXJXJXJXJXJXJX",
"JXJXJXJXJXJXJXJXJXJXJXJXJXJXJXJXJXJXJXJXJXO = &XO N.N.>X>X+X>Xc v >X>X>X$XA.r.O #XG O JXJXJXJXJXJXJXJXJXJXJXJXJXJXJXJXJXJXJXJXJX",
"JXJXJXJXJXJXJXJXJXJXJXJXJXJXJXJXJXJXJXJXJXO n.O > N.N.|.XX|.>X8X8X8X8X>XA.|.m.y O h.O JXJXJXJXJXJXJXJXJXJXJXJXJXJXJXJXJXJXJXJXJX",
"JXJXJXJXJXJXJXJXJXJXJXJXJXJXJXJXJXJXJXJXO h.N.O r.r.N.|.|.$X>X|.|.|.=X|.|.V.N.u.O h.0.O JXJXJXJXJXJXJXJXJXJXJXJXJXJXJXJXJXJXJXJX",
"JXJXJXJXJXJXJXJXJXJXJXJXJXJXJXJXJXJXJXO O O w.O r.r.N.|.|.|.|.|.|.|.|.N.Z.N.x.N.O O O r O JXJXJXJXJXJXJXJXJXJXJXJXJXJXJXJXJXJXJX",
"JXJXJXJXJXJXJXJXJXJXJXJXJXJXJXJXJXJXO BXHXGXO O O r.N.N.|.|.|.|.|.B.|.|.N.N.r.t O HXFXnXO JXJXJXJXJXJXJXJXJXJXJXJXJXJXJXJXJXJXJX",
"JXJXJXJXJXJXJXJXJXJXJXJXJXJXJXJXJXJXO ZXGXGXtX* ! O O O n |.C.N.N.|.N.2.O O O < O p.GXAXO JXJXJXJXJXJXJXJXJXJXJXJXJXJXJXJXJXJXJX",
"JXJXJXJXJXJXJXJXJXJXJXJXJXJXJXJXJXJX. iXSXSXO O O O %.Q.j O O O O O O 5 3X2Xf O O O SXlXO JXJXJXJXJXJXJXJXJXJXJXJXJXJXJXJXJXJXJX",
"JXJXJXJXJXJXJXJXJXJXJXJXJXJXJXJXJXJXJXO nXNXO O W.2 O O O O O O O O O O O O O O k O lXO JXJXJXJXJXJXJXJXJXJXJXJXJXJXJXJXJXJXJXJX",
"JXJXJXJXJXJXJXJXJXJXJXJXJXJXJXJXJXJXJXJXO O O O O O O O 4 h h - O O O O O r.r.1.k O O JXJXJXJXJXJXJXJXJXJXJXJXJXJXJXJXJXJXJXJXJX",
"JXJXJXJXJXJXJXJXJXJXJXJXJXJXJXJXJXJXJXJXJXJXO k :.D r.q.M m m 7.v.t.r.N.N.r.r.D k O JXJXJXJXJXJXJXJXJXJXJXJXJXJXJXJXJXJXJXJXJXJX",
"JXJXJXJXJXJXJXJXJXJXJXJXJXJXJXJXJXJXJXJXJXJXO k k D D r.r.e.r.r.;.D r.F D D e.D k O JXJXJXJXJXJXJXJXJXJXJXJXJXJXJXJXJXJXJXJXJXJX",
"JXJXJXJXJXJXJXJXJXJXJXJXJXJXJXJXJXJXJXJXJXJXO O O O O D D 5.D V O > D A , 6 O O O O JXJXJXJXJXJXJXJXJXJXJXJXJXJXJXJXJXJXJXJXJXJX",
"JXJXJXJXJXJXJXJXJXJXJXJXJXJXJXJXJXJXJXJXJXJXJXJXO L % O O O O O O . O O O O # O JXJXJXJXJXJXJXJXJXJXJXJXJXJXJXJXJXJXJXJXJXJXJXJX",
"JXJXJXJXJXJXJXJXJXJXJXJXJXJXJXJXJXJXJXJXJXJXJXJXO d d d d d O JXJXO L s K J d O JXJXJXJXJXJXJXJXJXJXJXJXJXJXJXJXJXJXJXJXJXJXJXJX",
"JXJXJXJXJXJXJXJXJXJXJXJXJXJXJXJXJXJXJXJXJXJXJXJXO i i q e e w o JX# a p u H u O JXJXJXJXJXJXJXJXJXJXJXJXJXJXJXJXJXJXJXJXJXJXJXJX",
"JXJXJXJXJXJXJXJXJXJXJXJXJXJXJXJXJXJXJXJXJXJXJXJX+ O O O O O O JXJXO O O O O O O JXJXJXJXJXJXJXJXJXJXJXJXJXJXJXJXJXJXJXJXJXJXJXJX",
"JXJXJXJXJXJXJXJXJXJXJXJXJXJXJXJXJXJXJXJXJXJXJXJXJXJXJXJXJXJXJXJXJXJXJXJXJXJXJXJXJXJXJXJXJXJXJXJXJXJXJXJXJXJXJXJXJXJXJXJXJXJXJXJX",
"JXJXJXJXJXJXJXJXJXJXJXJXJXJXJXJXJXJXJXJXJXJXJXJXJXJXJXJXJXJXJXJXJXJXJXJXJXJXJXJXJXJXJXJXJXJXJXJXJXJXJXJXJXJXJXJXJXJXJXJXJXJXJXJX",
"JXJXJXJXJXJXJXJXJXJXJXJXJXJXJXJXJXJXJXJXJXJXJXJXJXJXJXJXJXJXJXJXJXJXJXJXJXJXJXJXJXJXJXJXJXJXJXJXJXJXJXJXJXJXJXJXJXJXJXJXJXJXJXJX",
"JXJXJXJXJXJXJXJXJXJXJXJXJXJXJXJXJXJXJXJXJXJXJXJXJXJXJXJXJXJXJXJXJXJXJXJXJXJXJXJXJXJXJXJXJXJXJXJXJXJXJXJXJXJXJXJXJXJXJXJXJXJXJXJX"
};
