/* XPM */
static char *result[] = {
/* columns rows colors chars-per-pixel */
"64 64 251 2 ",
"   c #141312",
".  c #1A1917",
"X  c #1B1917",
"o  c #1B1B17",
"O  c #1C1A17",
"+  c #1A1918",
"@  c #1B1918",
"#  c #1A1A18",
"$  c #1B1A18",
"%  c #1B1B19",
"&  c #1F1C19",
"*  c #1F1F19",
"=  c #1F1E1B",
"-  c #1E1D1D",
";  c #231E1A",
":  c #22211D",
">  c #24231D",
",  c #26231F",
"<  c #24241C",
"1  c #26261F",
"2  c #28201B",
"3  c #2B201B",
"4  c #2B2B1E",
"5  c #2C2C1F",
"6  c #2D2D1F",
"7  c #352118",
"8  c #33241C",
"9  c #34251D",
"0  c #3C261B",
"q  c #3B271D",
"w  c #2D2D20",
"e  c #2E2D20",
"r  c #2F2F20",
"t  c #2F2E22",
"y  c #2F2924",
"u  c #232429",
"i  c #242529",
"p  c #24252A",
"a  c #26262A",
"s  c #26272C",
"d  c #26272D",
"f  c #27282E",
"g  c #322721",
"h  c #303020",
"j  c #323221",
"k  c #323222",
"l  c #353523",
"z  c #373725",
"x  c #393926",
"c  c #393A27",
"v  c #3A3A26",
"b  c #3A3B26",
"n  c #3C3C27",
"m  c #3A332C",
"M  c #3C3C28",
"N  c #3C3D28",
"B  c #3D3D28",
"V  c #3D3D29",
"C  c #3F3F29",
"Z  c #282930",
"A  c #2B2C33",
"S  c #2E2F37",
"D  c #41291E",
"F  c #462B1F",
"G  c #472E20",
"H  c #462E22",
"J  c #432F26",
"K  c #482C20",
"L  c #492D20",
"P  c #4A2E21",
"I  c #4B2F21",
"U  c #4C2F22",
"Y  c #4A3021",
"T  c #4A3123",
"R  c #4D3022",
"E  c #4F3123",
"W  c #4D3223",
"Q  c #4E3223",
"!  c #4F3223",
"~  c #47362C",
"^  c #503224",
"/  c #513324",
"(  c #523424",
")  c #533425",
"_  c #523525",
"`  c #543525",
"'  c #553625",
"]  c #553626",
"[  c #573727",
"{  c #583827",
"}  c #53372C",
"|  c #54382C",
" . c #553B2C",
".. c #593928",
"X. c #5A3928",
"o. c #5A3A28",
"O. c #5B3A29",
"+. c #5C3B29",
"@. c #5C3B2A",
"#. c #5D3C2A",
"$. c #5E3C2A",
"%. c #5E3D2B",
"&. c #5F3D2B",
"*. c #5B3C30",
"=. c #5A3F31",
"-. c #613E2C",
";. c #613F2D",
":. c #623F2C",
">. c #40402A",
",. c #41422B",
"<. c #43442D",
"1. c #44452D",
"2. c #45462D",
"3. c #44452E",
"4. c #45462E",
"5. c #46462E",
"6. c #47472E",
"7. c #46482F",
"8. c #47482F",
"9. c #48492F",
"0. c #484A30",
"q. c #4A4B30",
"w. c #4B4C31",
"e. c #4C4D32",
"r. c #4C4E32",
"t. c #4D4E33",
"y. c #4E4F33",
"u. c #4D4F34",
"i. c #4D4F35",
"p. c #5D4234",
"a. c #4E5034",
"s. c #4F5134",
"d. c #4F5136",
"f. c #4F5238",
"g. c #505136",
"h. c #505236",
"j. c #515237",
"k. c #515337",
"l. c #515437",
"z. c #525437",
"x. c #525438",
"c. c #535539",
"v. c #535638",
"b. c #535639",
"n. c #545739",
"m. c #55573C",
"M. c #55583A",
"N. c #56593B",
"B. c #575A3B",
"V. c #575A3C",
"C. c #595B3D",
"Z. c #5B5D3F",
"A. c #63402D",
"S. c #65412D",
"D. c #66412E",
"F. c #67422E",
"G. c #68432F",
"H. c #634133",
"J. c #6A4530",
"K. c #6B4530",
"L. c #684633",
"P. c #6C4630",
"I. c #6E4731",
"U. c #694536",
"Y. c #694636",
"T. c #624738",
"R. c #664A3A",
"E. c #6E4938",
"W. c #6F4C39",
"Q. c #714B39",
"!. c #724C3A",
"~. c #754D3B",
"^. c #73503D",
"/. c #7A523E",
"(. c #5B5D40",
"). c #5B5E40",
"_. c #5C5E40",
"`. c #5C5F41",
"'. c #5D5F41",
"]. c #7B5641",
"[. c #7A5743",
"{. c #7E5945",
"}. c #5D6042",
"|. c #5E6042",
" X c #616342",
".X c #606243",
"XX c #626444",
"oX c #636546",
"OX c #646645",
"+X c #646745",
"@X c #656846",
"#X c #676948",
"$X c #696B49",
"%X c #6B6E49",
"&X c #6C6E4B",
"*X c #6F714D",
"=X c #737550",
"-X c #747552",
";X c #797C53",
":X c #797B55",
">X c #7D7D57",
",X c #7C7E58",
"<X c #8E5E47",
"1X c #835F4B",
"2X c #8D6F59",
"3X c #997C64",
"4X c #9C7F66",
"5X c #7F805A",
"6X c #81825B",
"7X c #82825C",
"8X c #86865F",
"9X c #888861",
"0X c #898962",
"qX c #8A8B63",
"wX c #8C8C64",
"eX c #8F8F67",
"rX c #929269",
"tX c #96966D",
"yX c #98976E",
"uX c #9F9E74",
"iX c #A08A70",
"pX c #A48A70",
"aX c #A09F76",
"sX c #BC9477",
"dX c #BF977A",
"fX c #B39A7C",
"gX c #A3A278",
"hX c #C1997B",
"jX c #C29A7C",
"kX c #AD9784",
"lX c #C0A183",
"zX c #C8A182",
"xX c #CBA484",
"cX c #CCA585",
"vX c #CDA686",
"bX c #D4AF8D",
"nX c #D6B290",
"mX c #D8B592",
"MX c #D9B794",
"NX c #DAB794",
"BX c #DBB895",
"VX c #E0BD99",
"CX c #E2BE99",
"ZX c #E1BF9A",
"AX c #E6C19C",
"SX c #E8C59F",
"DX c #EFC9A3",
"FX c #EFCDA5",
"GX c #EFD0B6",
"HX c #F7DCC9",
"JX c None",
/* pixels */
"JXJXJXJXJXJXJXJXJXJXJXJXJXJXJXJXJXJXJXJXJXJXJXJXJXJXJXJXJXJXJXJXJXJXJXJXJXJXJXJXJXJXJXJXJXJXJXJXJXJXJXJXJXJXJXJXJXJXJXJXJXJXJXJX",
"JXJXJXJXJXJXJXJXJXJXJXJXJXJXJXJXJXJXJXJXJXJXJXJXJXJXJXJXJXJXJXJXJXJXJXJXJXJXJXJXJXJXJXJXJXJXJXJXJXJXJXJXJXJXJXJXJXJXJXJXJXJXJXJX",
"JXJXJXJXJXJXJXJXJXJXJXJXJXJXJXJXJXJXJXJXJXJXJXJXJXJXJXJXJXJXJXJXJXJXJXJXJXJXJXJXJXJXJXJXJXJXJXJXJXJXJXJXJXJXJXJXJXJXJXJXJXJXJXJX",
"JXJXJXJXJXJXJXJXJXJXJXJXJXJXJXJXJXJXJXJXJXJXJXJXJXJXJXJXJXJXJXJXJXJXJXJXJXJXJXJXJXJXJXJXJXJXJXJXJXJXJXJXJXJXJXJXJXJXJXJXJXJXJXJX",
"JXJXJXJXJXJXJXJXJXJXJXJXJXJXJXJXJXJXJXJXJXJXJXJXJXJXJXJXJXJXJXJXJXJXJXJXJXJXJXJXJXJXJXJXJXJXJXJXJXJXJXJXJXJXJXJXJXJXJXJXJXJXJXJX",
"JXJXJXJXJXJXJXJXJXJXJXJXJXJXJXJXJXJXJXJXJXJXJXJXJXJXJXJXJXJXJXJXJXJXJXJXJXJXJXJXJXJXJXJXJXJXJXJXJXJXJXJXJXJXJXJXJXJXJXJXJXJXJXJX",
"JXJXJXJXJXJXJXJXJXJXJXJXJXJXJXJXJXJXJXJXJXJXJXJXJXJXJXJXJXJXJXJXJXJXJXJXJXJXJXJXJXJXJXJXJXJXJXJXJXJXJXJXJXJXJXJXJXJXJXJXJXJXJXJX",
"JXJXJXJXJXJXJXJXJXJXJXJXJXJXJXJXJXJXJXJXJXJXJXJXJXJXO $ $ $ $ $ $ $ $ $ $ O JXJXJXJXJXJXJXJXJXJXJXJXJXJXJXJXJXJXJXJXJXJXJXJXJXJX",
"JXJXJXJXJXJXJXJXJXJXJXJXJXJXJXJXJXJXJXJXJXJXJXo $ $ $ gXgXrXwXwXgXgXgXtXyX$ $ $ o JXJXJXJXJXJXJXJXJXJXJXJXJXJXJXJXJXJXJXJXJXJXJX",
"JXJXJXJXJXJXJXJXJXJXJXJXJXJXJXJXJXJXJXJXJX$ $ $ gXwXgXgX5X:XwXwXwXwXwXwXuXgXgXgX$ $ $ JXJXJXJXJXJXJXJXJXJXJXJXJXJXJXJXJXJXJXJXJX",
"JXJXJXJXJXJXJXJXJXJXJXJXJXJXJXJXJXJXJXJX$ $ wXwX=XwX=X=XwXwX-XM.=X=X=X,XwXwXM.wXwXwX$ $ JXJXJXJXJXJXJXJXJXJXJXJXJXJXJXJXJXJXJXJX",
"JXJXJXJXJXJXJXJXJXJXJXJXJXJXJXJXJXJX$ $ aX=XwXwX8X=XM.=X=X=XXXh h <.M.M.M.=X=X=X6XwXwXeX$ $ JXJXJXJXJXJXJXJXJXJXJXJXJXJXJXJXJXJX",
"JXJXJXJXJXJXJXJXJXJXJXJXJXJXJXJXJX$ $ qXwX7X=X=X=XV =X|.|.$XM.V.|.|.|.|.|.|.|.m.+X=X=X=X=X$ $ JXJXJXJXJXJXJXJXJXJXJXJXJXJXJXJXJX",
"JXJXJXJXJXJXJXJXJXJXJXJXJXJXJXJX$ : 0X@X=X=X=XM.M.|.|.|.|.|.c h h h h h M.M.M.=X|.|.N.|.M.=X: $ JXJXJXJXJXJXJXJXJXJXJXJXJXJXJXJX",
"JXJXJXJXJXJXJXJXJXJXJXJXJXJXJX$ $ h =X=XM.|.|.V.h M.}.M.j.g.M.M.M.M.M.M.M.k.g.g.|.M.|.|.M.h h $ $ JXJXJXJXJXJXJXJXJXJXJXJXJXJXJX",
"JXJXJXJXJXJXJXJXJXJXJXJXJXJXJX$ wX=X=X|.`.M.j.M.x.c.M.r.w.z.M.M.M.M.M.M.w.M.M.M.M.M.h |.|.|.*XM.$ JXJXJXJXJXJXJXJXJXJXJXJXJXJXJX",
"JXJXJXJXJXJXJXJXJXJXJXJXJXJX$ =X=X$XM.|.g.g.M.w.w.w.N M.w.w.w.w.w.w.w.w.w.w.w.M.M.r.M.|.<.M.|.=X=X$ JXJXJXJXJXJXJXJXJXJXJXJXJXJX",
"JXJXJXJXJXJXJXJXJXJXJXJXJX$ $ =XB.|.3.M.M.w.M.s.B w.w.w.h B B B B B B 8.h w.>.w.w.9.w.M.M.M.h |.M.$ $ JXJXJXJXJXJXJXJXJXJXJXJXJX",
"JXJXJXJXJXJXJXJXJXJXJXJXJX$ M.(.h g.M.w.M.w.B B x h h h h $ $ $ $ $ $ h h h h B M w.w.w.M.M.M.M.M.w.$ JXJXJXJXJXJXJXJXJXJXJXJXJX",
"JXJXJXJXJXJXJXJXJXJXJXJXJX$ M.g.M.e.y.w.h h h < $ $ $ $ $ 9 G G G T.~ $ $ $ $ $ < B 1.w.w.l a.M.w.,.$ JXJXJXJXJXJXJXJXJXJXJXJXJX",
"JXJXJXJXJXJXJXJXJXJXJXJX$ w.M.M.w.b B h 6 $ $ $ T.T p. .W &.[.&.&.&.` W G _ Q G $ $ $ x B v.1.b h w.B $ JXJXJXJXJXJXJXJXJXJXJXJX",
"JXJXJXJXJXJXJXJXJXJXJXJX$ B h h B B h $ $ G G Y &.1X&.1XW.X.&.%.+.&.&.1X&.&.&.I.R.=._ $ $ B B l.w.B B $ JXJXJXJXJXJXJXJXJXJXJXJX",
"JXJXJXJXJXJXJXJXJXJXJXJX$ B 6.j C k $ G G 1XL.&.I.].1XI.I...&.X.o.&.&.J.&.&.;.&.I.I.1XG _ $ B 5.B h h $ JXJXJXJXJXJXJXJXJXJXJXJX",
"JXJXJXJXJXJXJXJXJXJXJXJX$ h h h z 5 $ G &.&.&.I.I.&.&.&.I.1X&.I.&.F.I.I.I.P.&.1X&.&.&.&._ $ 6 h h h h $ JXJXJXJXJXJXJXJXJXJXJXJX",
"JXJXJXJXJXJXJXJXJXJXJXJXJX$ $ $ $ $ G &.&.&.&.&.&.I.I.&.J.A.I.A.&.-.1X1X&.&.&.&.I.&.&.&.{.G $ $ $ $ $ JXJXJXJXJXJXJXJXJXJXJXJXJX",
"JXJXJXJXJXJXJXJXJXJXJXJXJXJXJX  0 G &.I.&.D.&.&.&.&.&.&.&.&.&.&.1X1X1X{.1X1X&.&.&.I.&.&.` ` G 7   JXJXJXJXJXJXJXJXJXJXJXJXJXJXJX",
"JXJXJXJXJXJXJXJXJXJXJXJXJXJX$ H F ` &.&.&.&.I.&.&.:.&.I.S.&.S.I.J.I.&.&.&.J.I.I.&.&.1X&.] ` ` ! $ JXJXJXJXJXJXJXJXJXJXJXJXJXJXJX",
"JXJXJXJXJXJXJXJXJXJXJXJXJXJX$ F F ` ` &.` ` G.I.I.&.` &.&.I.I.J.&.A.I.K.&.&.&.&.J.^.&.&.` ` ` F q $ JXJXJXJXJXJXJXJXJXJXJXJXJXJX",
"JXJXJXJXJXJXJXJXJXJXJXJXJXJX$ F F ` &.&.` ' ` &.&.&.&.&.&.` ` X.&.&.&.&.&.&.&.1X&.&.&.` ` ` ` F F $ JXJXJXJXJXJXJXJXJXJXJXJXJXJX",
"JXJXJXJXJXJXJXJXJXJXJXJXJXJX$ ^ / F ` ` $.` &.] ` &.&.&.&.&.I.I.I.I.I.[.1X&.&.&.` ` &.` ` ` K F F $ JXJXJXJXJXJXJXJXJXJXJXJXJXJX",
"JXJXJXJXJXJXJXJXJXJXJXJXJXJX@ 8 P F &.O.` ` ` &.&.&.&.` +.&.&.&.&.&.&.&.` ` ` &.&.&.` +.` ` F ` F $ JXJXJXJXJXJXJXJXJXJXJXJXJXJX",
"JXJXJXJXJXJXJXJXJXJXJXJXJXJXJX$ F ` F &.{ #.` &.` ` &.&.@.[ &.&.&.` ` &.&.' &.&.` ` &.` F ` &.` 8 @ JXJXJXJXJXJXJXJXJXJXJXJXJXJX",
"JXJXJXJXJXJXJXJXJXJXJXJXJXJXJX$ F ` F ` O./ ` ` o.&.$.` &.` ` o.&.] ` &.` ` ` ` ` ` ` ` ` F P F $ JXJXJXJXJXJXJXJXJXJXJXJXJXJXJX",
"JXJXJXJXJXJXJXJXJXJXJXJXJXJX$ $ F F P L U R F { / ` ` ` ` ` ` ` ` ` ` ` ` ` ] ` F F ` ` F ` F F $ $ JXJXJXJXJXJXJXJXJXJXJXJXJXJX",
"JXJXJXJXJXJXJXJXJXJXJXJXJXJX$ $ $ F I ` F ` F ` &.I &.` ` ` ` ` ` ` ` ` ` ` ` F F ` ` F F F F 8 $ $ JXJXJXJXJXJXJXJXJXJXJXJXJXJX",
"JXJXJXJXJXJXJXJXJXJXJXJXJXJX$ $   $ F F U &.` $.` F F F R ` &.F ` ` ` ` ` ` F F F F F ` F 3 $ $ $ $ JXJXJXJXJXJXJXJXJXJXJXJXJXJX",
"JXJXJXJXJXJXJXJXJXJXJXJXJXJXJXJX$ 3X$ $ F F F F ` F F F ..` F F F F F F F ` ` F F F F F $ $ 2X$ JXJXJXJXJXJXJXJXJXJXJXJXJXJXJXJX",
"JXJXJXJXJXJXJXJXJXJXJXJXJXJXJXJXJX$ 4XpX$ $ $ $ F F F P ( F ` F F E ` ` F F F F F H $ $ pXcX$ JXJXJXJXJXJXJXJXJXJXJXJXJXJXJXJXJX",
"JXJXJXJXJXJXJXJXJXJXJXJXJXJXJXJXJX$ xXbXpXpXfX$ $ $ D ` ` F F R F F ) P F F $ $ $ $ fXpXBXsX$ JXJXJXJXJXJXJXJXJXJXJXJXJXJXJXJXJX",
"JXJXJXJXJXJXJXJXJXJXJXJXJXJXJXJXJXJX$ xXBXBXBXMXfXfX$ $ $ $ q F P ` F 3 $ $ iXfXfXFXBXNXdX$ JXJXJXJXJXJXJXJXJXJXJXJXJXJXJXJXJXJX",
"JXJXJXJXJXJXJXJXJXJXJXJXJXJXJXJXJXJXJX$ sXvXBXBXFXBXpXfXfXfX$ $ $ $ $ $ fXfXSXBXBXBXcXsX$ JXJXJXJXJXJXJXJXJXJXJXJXJXJXJXJXJXJXJX",
"JXJXJXJXJXJXJXJXJXJXJXJXJXJXJXJXJXJXJXJX$ $ hXcXBXBXBXBXFXZXpXpXpXpXpXlXVXFXBXcXcXcX$ $ JXJXJXJXJXJXJXJXJXJXJXJXJXJXJXJXJXJXJXJX",
"JXJXJXJXJXJXJXJXJXJXJXJXJXJXJXJXJXJXJXJXJXJX$ $ , cXcXBXBXBXBXBXBXBXBXBXnXcXCX$ $ $ JXJXJXJXJXJXJXJXJXJXJXJXJXJXJXJXJXJXJXJXJXJX",
"JXJXJXJXJXJXJXJXJXJXJXJXJXJXJXJXJXJXJXJXJXJXJX$ $ $ $ y zXjXsXcXcXcXsXsXy $ $ $ $ # JXJXJXJXJXJXJXJXJXJXJXJXJXJXJXJXJXJXJXJXJXJX",
"JXJXJXJXJXJXJXJXJXJXJXJXJXJXJXJXJXJXJXJXJXJX$ ;X$ v.Z.> $ $ $ $ $ $ $ $ 1 |.w.$ %X$ JXJXJXJXJXJXJXJXJXJXJXJXJXJXJXJXJXJXJXJXJXJX",
"JXJXJXJXJXJXJXJXJXJXJXJXJXJXJXJXJXJXJXJXJX$ n. X$ M.M.OX=X=X9X=X=XwX.X&X|.C.t.$ f.i.$ JXJXJXJXJXJXJXJXJXJXJXJXJXJXJXJXJXJXJXJXJX",
"JXJXJXJXJXJXJXJXJXJXJXJXJXJXJXJXJXJXJXJX$ u.%X$ 4.M.M.|.=X|.|.>X=X=X|.|.|.|.M.q.$ d.$ JXJXJXJXJXJXJXJXJXJXJXJXJXJXJXJXJXJXJXJXJX",
"JXJXJXJXJXJXJXJXJXJXJXJXJXJXJXJXJXJXJX. $ b.M.$ w.w.M.|.|.#X=X=XoX=X|.|.|.M.M.v.$ 7.$ $ JXJXJXJXJXJXJXJXJXJXJXJXJXJXJXJXJXJXJXJX",
"JXJXJXJXJXJXJXJXJXJXJXJXJXJXJXJXJXJX$ $ $ $ 0.$ w.w.M.V.|.|.'.|.|.|._.|.).M.t.M.$ $ BX= + JXJXJXJXJXJXJXJXJXJXJXJXJXJXJXJXJXJXJX",
"JXJXJXJXJXJXJXJXJXJXJXJXJXJXJXJXJXJX$ GXHXGX. $ $ $ h.M.|.|.|.|.'.|.}.M.M.M.$ $ $ kXDXcX$ JXJXJXJXJXJXJXJXJXJXJXJXJXJXJXJXJXJXJX",
"JXJXJXJXJXJXJXJXJXJXJXJXJXJXJXJXJXJX$ DXGXGXm $ | <X$ $ $ $ $ $ $ $ $ $ $ $ ~.Y.; $ DXcX$ JXJXJXJXJXJXJXJXJXJXJXJXJXJXJXJXJXJXJX",
"JXJXJXJXJXJXJXJXJXJXJXJXJXJXJXJXJXJX$ AXDXDX$ $ $ $ $ $ J H.E.!.E.U.H.} & $ $ $ $ $ cX$ JXJXJXJXJXJXJXJXJXJXJXJXJXJXJXJXJXJXJXJX",
"JXJXJXJXJXJXJXJXJXJXJXJXJXJXJXJXJXJXJX$ mXBX$ $ 2 *.Q./.g $ $ $ $ $ $ $ $ $ $ w.h $ $ X JXJXJXJXJXJXJXJXJXJXJXJXJXJXJXJXJXJXJXJX",
"JXJXJXJXJXJXJXJXJXJXJXJXJXJXJXJXJXJXJXJX$ $ $ h t $ $ $ $ $ $ $ $ $ $ 2.w.h.w.B h $ JXJXJXJXJXJXJXJXJXJXJXJXJXJXJXJXJXJXJXJXJXJX",
"JXJXJXJXJXJXJXJXJXJXJXJXJXJXJXJXJXJXJXJXJXJX$ h B B w.w.w.w.w.w.w.w.M.M.w.w.B B h $ JXJXJXJXJXJXJXJXJXJXJXJXJXJXJXJXJXJXJXJXJXJX",
"JXJXJXJXJXJXJXJXJXJXJXJXJXJXJXJXJXJXJXJXJXJX$ h v 4 B B B B B B e q.B w.B B B n r $ JXJXJXJXJXJXJXJXJXJXJXJXJXJXJXJXJXJXJXJXJXJX",
"JXJXJXJXJXJXJXJXJXJXJXJXJXJXJXJXJXJXJXJXJXJXJX$ $ $ $ $ $ w $ $ $ $ $ * $ $ $ $ $ JXJXJXJXJXJXJXJXJXJXJXJXJXJXJXJXJXJXJXJXJXJXJX",
"JXJXJXJXJXJXJXJXJXJXJXJXJXJXJXJXJXJXJXJXJXJXJXJX$ f f f f - $ JXJX$ p a Z f S $ JXJXJXJXJXJXJXJXJXJXJXJXJXJXJXJXJXJXJXJXJXJXJXJX",
"JXJXJXJXJXJXJXJXJXJXJXJXJXJXJXJXJXJXJXJXJXJXJXJX$ f u u u u i @ JX$ f f A f f $ JXJXJXJXJXJXJXJXJXJXJXJXJXJXJXJXJXJXJXJXJXJXJXJX",
"JXJXJXJXJXJXJXJXJXJXJXJXJXJXJXJXJXJXJXJXJXJXJXJX$ $ $ $ $ $ $ JXJX% f d s d u $ JXJXJXJXJXJXJXJXJXJXJXJXJXJXJXJXJXJXJXJXJXJXJXJX",
"JXJXJXJXJXJXJXJXJXJXJXJXJXJXJXJXJXJXJXJXJXJXJXJXJXJXJXJXJXJXJXJXJX$ $ $ $ $ $ $ JXJXJXJXJXJXJXJXJXJXJXJXJXJXJXJXJXJXJXJXJXJXJXJX",
"JXJXJXJXJXJXJXJXJXJXJXJXJXJXJXJXJXJXJXJXJXJXJXJXJXJXJXJXJXJXJXJXJXJXJXJXJXJXJXJXJXJXJXJXJXJXJXJXJXJXJXJXJXJXJXJXJXJXJXJXJXJXJXJX",
"JXJXJXJXJXJXJXJXJXJXJXJXJXJXJXJXJXJXJXJXJXJXJXJXJXJXJXJXJXJXJXJXJXJXJXJXJXJXJXJXJXJXJXJXJXJXJXJXJXJXJXJXJXJXJXJXJXJXJXJXJXJXJXJX",
"JXJXJXJXJXJXJXJXJXJXJXJXJXJXJXJXJXJXJXJXJXJXJXJXJXJXJXJXJXJXJXJXJXJXJXJXJXJXJXJXJXJXJXJXJXJXJXJXJXJXJXJXJXJXJXJXJXJXJXJXJXJXJXJX"
};
