/* XPM */
static char *ffb18fbf299d4de090ad0cc2d5f8382dznZuc8vLrgSJwr7u[] = {
/* columns rows colors chars-per-pixel */
"64 64 123 2 ",
"   c None",
".  c #141312",
"X  c #1E1414",
"o  c #1A1917",
"O  c #1B1A18",
"+  c #231E1A",
"@  c #25231D",
"#  c #2B221D",
"$  c #222A1F",
"%  c #29291E",
"&  c #342017",
"*  c #32251D",
"=  c #3C261B",
"-  c #3F281C",
";  c #252526",
":  c #2C2B24",
">  c #242529",
",  c #2E2E2E",
"<  c #312721",
"1  c #3B2B24",
"2  c #213423",
"3  c #203D27",
"4  c #303120",
"5  c #373825",
"6  c #3A3B27",
"7  c #37362A",
"8  c #3C342D",
"9  c #3D3D28",
"0  c #2E2F37",
"q  c #343434",
"w  c #3A3A3A",
"e  c #462B1F",
"r  c #462E22",
"t  c #4A2E21",
"y  c #453024",
"u  c #4D3123",
"i  c #543525",
"p  c #583827",
"a  c #55392D",
"s  c #5E3D2B",
"d  c #433C32",
"f  c #5B3C30",
"g  c #23442B",
"h  c #2B5634",
"j  c #2C5A37",
"k  c #2D5B38",
"l  c #31653E",
"z  c #42432C",
"x  c #47492F",
"c  c #48482F",
"v  c #4B4C31",
"b  c #50453B",
"n  c #4F5135",
"m  c #515237",
"M  c #54563A",
"N  c #55583A",
"B  c #595C3E",
"V  c #66412E",
"C  c #614033",
"Z  c #6E4731",
"A  c #6B4838",
"S  c #704A35",
"D  c #744E3A",
"F  c #393B44",
"G  c #3A764C",
"H  c #3D7C51",
"J  c #434343",
"K  c #5D5F41",
"L  c #454754",
"P  c #7C5843",
"I  c #5E6042",
"U  c #57745E",
"Y  c #646646",
"T  c #666846",
"R  c #6C6E4A",
"E  c #71734F",
"W  c #6F645C",
"Q  c #796755",
"!  c #737550",
"~  c #7B7E54",
"^  c #7B7A5A",
"/  c #6D6D6D",
"(  c #805541",
")  c #8C5D46",
"_  c #835F4B",
"`  c #86725D",
"'  c #867361",
"]  c #997C64",
"[  c #708C77",
"{  c #DBCC3B",
"}  c #83835D",
"|  c #8C8C64",
" . c #929269",
".. c #98976E",
"X. c #99986F",
"o. c #9D9C73",
"O. c #A48A70",
"+. c #AD9175",
"@. c #B3977A",
"#. c #B39A7C",
"$. c #A3A278",
"%. c #B39A81",
"&. c #9BA89E",
"*. c #BEA484",
"=. c #CCA585",
"-. c #D4B392",
";. c #DEB794",
":. c #DCB995",
">. c #DCBD98",
",. c #E4BF9B",
"<. c #CFBAAB",
"1. c #E2C29C",
"2. c #F7EB94",
"3. c #EFCAA3",
"4. c #EFCDAC",
"5. c #EFD0B6",
"6. c #BFBFC1",
"7. c #C3C3C4",
"8. c #C7C7C8",
"9. c #CDCDCD",
"0. c #D5D5D5",
"q. c #F9DFCD",
"w. c #E2E2E3",
/* pixels */
"                                                                                                                                ",
"                                                                                                                                ",
"                                                                                                                                ",
"                                                                                                                                ",
"                                                                                                                                ",
"                                                            O O O O                                                             ",
"                                                  O O O O O ^ $.$.^ O O O O O                                                   ",
"                                            o o O $.X.| | ..$.$.$.$... .$.$.$.O O O                                             ",
"                                          O o ..| $.! | | } | | ! ! ! ! [ | | o.$.X X                                           ",
"                                      O o  .} } | | | ! N N R E ! ! ! ! ! ! } | T | X.+ O                                       ",
"                                    O $.E | | ~ B E E E E ! E B I I K K N 4 N E T E } } $.O                                     ",
"                                  O | | B E E ! B Y N N B Y I B N N R ! R B I I B I E ~ ! | O                                   ",
"                                O | | ! E N B Y K I B 4 I B N N M N B I I v v M N Y I N I N | o                                 ",
"                              O | | ! ! Y K M N N N m m N M N N N N N N N N N I m d K K I N E ! O                               ",
"                            O 7 } ! Y N K m N m N x M N N 6 4 4 4 : 4 4 N M N c N N N 4 N I K N 6 O                             ",
"                            O ! E N I n m N v N N m 9 9 6 z 2.v v v { 9 c v v c 4 N N N I I N N N O                             ",
"                          O N N I x m v v M v d 4 9 { z 6 z 9 9 z v v v z g 2.v v v c m N N N 6 5 v O                           ",
"                          O N N n N m v g u { 4 % * O O o o o o o o o X X O 4 4 4 y n n x N N N N M O                           ",
"                        O 6 N N n v v 9 4 4 o o + X @.@.@.@.@.@.@.@.@.@.O.+.O O O O g - v v x x N v 4 O                         ",
"                        O n N N v x x 4 o o ` ` ] @.3.3.3.3.3.3.3.3.3.3.3.3.#.@.` ` o o z { n x v 9 9 O                         ",
"                        + g { m 2.z % O . ` #.3.3.3.3.3.3.3.3.3.3.3.3.3.3.3.3.3.4.@.. . o % x 6 9 4 6 o                         ",
"                        X d u g x 4 O . #.#.3.3.3.3.3.3.3.3.3.3.3.3.3.3.3.3.3.3.3.@.#.O e o 4 5 4 4 4 O                         ",
"                        + X 6 4 4 O O O %.>.3.3.3.3.3.3.3.3.3.3.3.3.3.3.3.3.3.4.3.3.#.#.o O o 4 4 4 O O                         ",
"                          X o o o e & O %.3.3.3.3.3.3.3.,.3.3.3.3.3.3.3.3.3.3.3.3.4.3.#.o - y o O O O                           ",
"                          O e e r u s o 4.4.3.3.3.3.3.3.3.3.3.3.3.3.3.3.3.3.3.3.3.3.3.*.O p i = - = O                           ",
"                          O t i s s o @ 4.3.3.3.3.3.3.3.3.3.3.,.3.3.3.=.3.3.3.3.3.3.3.3.o y e V i e O                           ",
"                          O e e i e o %.4.3.3.3.3.3.3.3.3.3.3.3.3.3.3.3.3.3.3.3.3.3.3.3.: o e i i t O                           ",
"                          O e e V O #.%.3.3.3.3.3.3.3.3.3.3.3.3.3.3.3.3.3.3.3.3.3.3.3.3.#.O O i i e O                           ",
"                          O e t i o #.4.r e u r e 3.3.1.3.3.3.3.3.3.3.3.3.3.3.e r e e e #.#.O t i e O                           ",
"                          O * e e O #.4.r 3.3.1.i e e 3.3.3.3.3.3.3.3.3.,.,.e e 3.3.4.+.3.#.O e i e O                           ",
"                            O e e O 3.3.O o o O o X 3.e 3.3.3.3.3.3.=.3.u 1.X + O O O O 3.3.O e i e O                           ",
"                            O e u o 4.3.O 0.[ k 3 h o 3.3.3.3.3.3.3.3.3.3.X h @ h g w.O 3.>.Q O e O O                           ",
"                            O O o O.3.3.O 9.3 g X 3 g O 3.3.3.3.3.;.3.3.+ &.l + 2 g 9.O 3.:.] o o o                             ",
"                            O ] . O.>.4.O 8.w.H h G w.w.O 3.3.3.3.3.1.X w.w.h h H U 9.o 3.3.| . ] .                             ",
"                              . o O d 3.d J 0.w.w.w.w.O -.3.3.3.3.3.3.3.O 9.w.w.w.w.6.O 4.+.O O .                               ",
"                                O S O O 3.O / 7.9.7.O X 3.3.3.3.3.3.3.=.O X 7.9.6.6.O 3.o o A O                                 ",
"                                O r _ * O 3.O O o O -.3.3.3.3.4.3.3.3.3.3.3.O O O O ` O * s O                                   ",
"                                  O u Z P o O 1.3.3.4.4.3.3.O O O O o ` 3.3.4.3.O O O _ i + O                                   ",
"                                    o p i i _ o O O O O o o Z D Z Q V @ o o O O _ Z s s e O                                     ",
"                                    o o e i p s _ Z Z Z V V # s V r V p V Z V V Z i i e O O                                     ",
"                                      O e e e e u i i s s V _ Z p V p _ _ V s i e e e O O                                       ",
"                                        O O o u O t r i i s i p i i i i e i s e O O O                                           ",
"                                            o O O # o o e e i e V u i e e e O O O O                                             ",
"                                            X [ o o J o O O O O e o e o O O O O R O o                                           ",
"                                          O m R O O w J + O > O o o o J J w O O + N O                                           ",
"                                        o O N o v O O w J J J O + h J J w O O v O N x O                                         ",
"                                        O O m o v v O O J J J O + F w q o O M M O n O O o                                       ",
"                                      O q.<.O o v v N N O , , O X X , o M M m M O O 8 :.O o                                     ",
"                                      O 5.5.5.O O o M N I O O n B O O N N N O O o W 5.3.=.O                                     ",
"                                      O 3.3.b O f ) O O O O O O O O O O O O ) a o o 5.3.=.O                                     ",
"                                      O :.3.o o O O O O y f C S D A f 1 O O o o o o ,.=.O                                       ",
"                                        o O O 9 z O O O O O O O O O O < ( A s @ o o d O                                         ",
"                                            o 4 v v v v m O O O O O O o O O O % 4 o                                             ",
"                                            O 4 9 9 v v v v v v v v M M c x g i 4 o                                             ",
"                                            O 4 9 % 9 9 9 9 9 9 @ v 9 v 9 d 9 9 4 O                                             ",
"                                              O o o O O O O O O O O O O O O O O O                                               ",
"                                                O O O L F O O     O O > L ; o o                                                 ",
"                                                O O 0 0 0 F O     O F 0 0 0 > o                                                 ",
"                                                O O O O O O O O   O O O O O o o                                                 ",
"                                                                  o                                                             ",
"                                                                                                                                ",
"                                                                                                                                ",
"                                                                                                                                ",
"                                                                                                                                "
};
