/* XPM */
static char *result[] = {
/* columns rows colors chars-per-pixel */
"64 64 123 2 ",
"   c #141312",
".  c #1E1414",
"X  c #1A1917",
"o  c #1B1A18",
"O  c #231E1A",
"+  c #25231D",
"@  c #2B221D",
"#  c #222A1F",
"$  c #29291E",
"%  c #342017",
"&  c #32251D",
"*  c #3C261B",
"=  c #3F281C",
"-  c #252526",
";  c #2C2B24",
":  c #242529",
">  c #2E2E2E",
",  c #312721",
"<  c #3B2B24",
"1  c #213423",
"2  c #203D27",
"3  c #303120",
"4  c #373825",
"5  c #3A3B27",
"6  c #37362A",
"7  c #3C342D",
"8  c #3D3D28",
"9  c #2E2F37",
"0  c #343434",
"q  c #3A3A3A",
"w  c #462B1F",
"e  c #462E22",
"r  c #4A2E21",
"t  c #453024",
"y  c #4D3123",
"u  c #543525",
"i  c #583827",
"p  c #55392D",
"a  c #5E3D2B",
"s  c #433C32",
"d  c #5B3C30",
"f  c #23442B",
"g  c #2B5634",
"h  c #2C5A37",
"j  c #2D5B38",
"k  c #31653E",
"l  c #42432C",
"z  c #47492F",
"x  c #48482F",
"c  c #4B4C31",
"v  c #50453B",
"b  c #4F5135",
"n  c #515237",
"m  c #54563A",
"M  c #55583A",
"N  c #595C3E",
"B  c #66412E",
"V  c #614033",
"C  c #6E4731",
"Z  c #6B4838",
"A  c #704A35",
"S  c #744E3A",
"D  c #393B44",
"F  c #3A764C",
"G  c #3D7C51",
"H  c #434343",
"J  c #5D5F41",
"K  c #454754",
"L  c #7C5843",
"P  c #5E6042",
"I  c #57745E",
"U  c #646646",
"Y  c #666846",
"T  c #6C6E4A",
"R  c #71734F",
"E  c #6F645C",
"W  c #796755",
"Q  c #737550",
"!  c #7B7E54",
"~  c #7B7A5A",
"^  c #6D6D6D",
"/  c #805541",
"(  c #8C5D46",
")  c #835F4B",
"_  c #86725D",
"`  c #867361",
"'  c #997C64",
"]  c #708C77",
"[  c #DBCC3B",
"{  c #83835D",
"}  c #8C8C64",
"|  c #929269",
" . c #98976E",
".. c #99986F",
"X. c #9D9C73",
"o. c #A48A70",
"O. c #AD9175",
"+. c #B3977A",
"@. c #B39A7C",
"#. c #A3A278",
"$. c #B39A81",
"%. c #9BA89E",
"&. c #BEA484",
"*. c #CCA585",
"=. c #D4B392",
"-. c #DEB794",
";. c #DCB995",
":. c #DCBD98",
">. c #E4BF9B",
",. c #CFBAAB",
"<. c #E2C29C",
"1. c #F7EB94",
"2. c #EFCAA3",
"3. c #EFCDAC",
"4. c #EFD0B6",
"5. c #BFBFC1",
"6. c #C3C3C4",
"7. c #C7C7C8",
"8. c #CDCDCD",
"9. c #D5D5D5",
"0. c #F9DFCD",
"q. c #E2E2E3",
"w. c None",
/* pixels */
"w.w.w.w.w.w.w.w.w.w.w.w.w.w.w.w.w.w.w.w.w.w.w.w.w.w.w.w.w.w.w.w.w.w.w.w.w.w.w.w.w.w.w.w.w.w.w.w.w.w.w.w.w.w.w.w.w.w.w.w.w.w.w.w.",
"w.w.w.w.w.w.w.w.w.w.w.w.w.w.w.w.w.w.w.w.w.w.w.w.w.w.w.w.w.w.w.w.w.w.w.w.w.w.w.w.w.w.w.w.w.w.w.w.w.w.w.w.w.w.w.w.w.w.w.w.w.w.w.w.",
"w.w.w.w.w.w.w.w.w.w.w.w.w.w.w.w.w.w.w.w.w.w.w.w.w.w.w.w.w.w.w.w.w.w.w.w.w.w.w.w.w.w.w.w.w.w.w.w.w.w.w.w.w.w.w.w.w.w.w.w.w.w.w.w.",
"w.w.w.w.w.w.w.w.w.w.w.w.w.w.w.w.w.w.w.w.w.w.w.w.w.w.w.w.w.w.w.w.w.w.w.w.w.w.w.w.w.w.w.w.w.w.w.w.w.w.w.w.w.w.w.w.w.w.w.w.w.w.w.w.",
"w.w.w.w.w.w.w.w.w.w.w.w.w.w.w.w.w.w.w.w.w.w.w.w.w.w.w.w.w.w.w.w.w.w.w.w.w.w.w.w.w.w.w.w.w.w.w.w.w.w.w.w.w.w.w.w.w.w.w.w.w.w.w.w.",
"w.w.w.w.w.w.w.w.w.w.w.w.w.w.w.w.w.w.w.w.w.w.w.w.w.w.w.w.w.w.o o o o w.w.w.w.w.w.w.w.w.w.w.w.w.w.w.w.w.w.w.w.w.w.w.w.w.w.w.w.w.w.",
"w.w.w.w.w.w.w.w.w.w.w.w.w.w.w.w.w.w.w.w.w.w.w.w.w.o o o o o ~ #.#.~ o o o o o w.w.w.w.w.w.w.w.w.w.w.w.w.w.w.w.w.w.w.w.w.w.w.w.w.",
"w.w.w.w.w.w.w.w.w.w.w.w.w.w.w.w.w.w.w.w.w.w.o o o #. .} }  .#.#.#.#. .| #.#.#.o o o w.w.w.w.w.w.w.w.w.w.w.w.w.w.w.w.w.w.w.w.w.w.",
"w.w.w.w.w.w.w.w.w.w.w.w.w.w.w.w.w.w.w.w.w.o o  .} #.Q } } { } } Q Q Q Q ] } } X.#.. . w.w.w.w.w.w.w.w.w.w.w.w.w.w.w.w.w.w.w.w.w.",
"w.w.w.w.w.w.w.w.w.w.w.w.w.w.w.w.w.w.w.o X | { { } } } Q M M T R Q Q Q Q Q Q { } Y } ..O o w.w.w.w.w.w.w.w.w.w.w.w.w.w.w.w.w.w.w.",
"w.w.w.w.w.w.w.w.w.w.w.w.w.w.w.w.w.w.o #.R } } Q N R R R R Q R N P P P P M 3 M Q Y R { { #.o w.w.w.w.w.w.w.w.w.w.w.w.w.w.w.w.w.w.",
"w.w.w.w.w.w.w.w.w.w.w.w.w.w.w.w.w.o } } N R Q Q N U m M N U P N M M T Q T N P P M U R ! Q } o w.w.w.w.w.w.w.w.w.w.w.w.w.w.w.w.w.",
"w.w.w.w.w.w.w.w.w.w.w.w.w.w.w.w.o } } Q R M N U J P N 3 P N M M m M N U N c z M M U P M P M } X w.w.w.w.w.w.w.w.w.w.w.w.w.w.w.w.",
"w.w.w.w.w.w.w.w.w.w.w.w.w.w.w.o } } Q Q U J m M M M n n M M M M M M M M M M M P m 8 P P P M R Q o w.w.w.w.w.w.w.w.w.w.w.w.w.w.w.",
"w.w.w.w.w.w.w.w.w.w.w.w.w.w.o 6 { Q U M J n M n M x m M M 5 3 3 3 3 3 ; M M M x m M M 3 M P J M 5 o w.w.w.w.w.w.w.w.w.w.w.w.w.w.",
"w.w.w.w.w.w.w.w.w.w.w.w.w.w.o Q R M P n b M c M M n 8 8 8 l 1.z c x [ 8 x c c x & M M M P P M M M o w.w.w.w.w.w.w.w.w.w.w.w.w.w.",
"w.w.w.w.w.w.w.w.w.w.w.w.w.o M M P z n c c m c s 3 8 [ l 5 l 8 8 t x c x f l 1.x x x c n M M M 5 4 c o w.w.w.w.w.w.w.w.w.w.w.w.w.",
"w.w.w.w.w.w.w.w.w.w.w.w.w.o M M b M n c f y [ 3 $ & o o X X X X o . O O O o 3 3 3 l c x z M M M M M o w.w.w.w.w.w.w.w.w.w.w.w.w.",
"w.w.w.w.w.w.w.w.w.w.w.w.o 5 M M b c c 8 3 3 X X O . +.+.+.+.+.+.@.@.+.+.' +.o o o o t 3 c c c c M c 3 o w.w.w.w.w.w.w.w.w.w.w.w.",
"w.w.w.w.w.w.w.w.w.w.w.w.o b M M c z z 3 X X _ _ ' +.2.2.2.2.2.2.2.<.2.2.2.2.@.@._ _ O O f [ c z c 8 8 o w.w.w.w.w.w.w.w.w.w.w.w.",
"w.w.w.w.w.w.w.w.w.w.w.w.O f [ n 1.l $ o   _ @.2.2.2.2.2.2.2.2.2.2.2.2.2.2.2.2.2.2.@.    X $ z 5 8 3 5 X w.w.w.w.w.w.w.w.w.w.w.w.",
"w.w.w.w.w.w.w.w.w.w.w.w.. s y f z 3 o   @.@.2.2.2.2.2.2.2.2.2.2.2.2.2.2.2.2.2.2.2.@.@.o w o 3 4 3 3 3 o w.w.w.w.w.w.w.w.w.w.w.w.",
"w.w.w.w.w.w.w.w.w.w.w.w.O . 5 3 3 o o o $.:.2.2.2.2.2.2.2.2.2.2.2.2.2.2.2.2.2.2.2.2.@.@.X o X 3 3 3 o o w.w.w.w.w.w.w.w.w.w.w.w.",
"w.w.w.w.w.w.w.w.w.w.w.w.w.. X X X w % o $.2.2.2.2.2.2.2.>.2.2.2.2.2.2.2.2.2.2.3.2.3.2.@.X = t X o o o w.w.w.w.w.w.w.w.w.w.w.w.w.",
"w.w.w.w.w.w.w.w.w.w.w.w.w.o w w e y a X 3.3.2.2.2.2.2.2.2.2.2.2.2.2.2.2.2.2.2.2.2.2.2.&.o i y = = * o w.w.w.w.w.w.w.w.w.w.w.w.w.",
"w.w.w.w.w.w.w.w.w.w.w.w.w.o r u a a X + 3.2.2.2.2.2.2.2.2.2.2.>.2.2.2.*.2.2.2.2.2.2.2.2.X t w B u w o w.w.w.w.w.w.w.w.w.w.w.w.w.",
"w.w.w.w.w.w.w.w.w.w.w.w.w.o w w u w X $.3.2.2.2.2.2.2.2.2.2.2.2.2.2.2.2.2.2.2.2.2.2.2.2.; o w u u r o w.w.w.w.w.w.w.w.w.w.w.w.w.",
"w.w.w.w.w.w.w.w.w.w.w.w.w.o w w B o @.$.2.2.2.2.2.2.2.2.2.2.2.2.2.2.2.2.2.2.2.2.2.2.2.2.@.o o u u w o w.w.w.w.w.w.w.w.w.w.w.w.w.",
"w.w.w.w.w.w.w.w.w.w.w.w.w.o w r u X @.3.e w y e w 2.2.<.2.2.2.2.2.2.2.2.2.2.2.w e w w w @.@.o r u w o w.w.w.w.w.w.w.w.w.w.w.w.w.",
"w.w.w.w.w.w.w.w.w.w.w.w.w.o & w w o @.3.e 2.2.<.u w w 2.2.2.2.2.2.2.2.2.2.>.w w 2.2.3.O.2.@.o w u w o w.w.w.w.w.w.w.w.w.w.w.w.w.",
"w.w.w.w.w.w.w.w.w.w.w.w.w.w.o w w o 2.2.o X X o X . 2.w 2.2.2.2.2.2.*.2.y <.O . o o o o 2.2.o w u w o w.w.w.w.w.w.w.w.w.w.w.w.w.",
"w.w.w.w.w.w.w.w.w.w.w.w.w.w.o w y X 3.2.o 9.] j 2 g X 2.2.2.2.2.2.2.2.2.2.X g + g f q.o 2.:.W o w o o w.w.w.w.w.w.w.w.w.w.w.w.w.",
"w.w.w.w.w.w.w.w.w.w.w.w.w.w.o o X o.2.3.o 8.2 f . 2 f X 2.2.2.2.2.-.2.2.. %.k . 1 2 8.o 2.;.' o o o w.w.w.w.w.w.w.w.w.w.w.w.w.w.",
"w.w.w.w.w.w.w.w.w.w.w.w.w.w.o '   o.;.2.o 7.q.G g F q.q.X 2.2.2.2.2.2.. q.q.h g G I 8.o 3.2.}   '   w.w.w.w.w.w.w.w.w.w.w.w.w.w.",
"w.w.w.w.w.w.w.w.w.w.w.w.w.w.w.  X X s 2.l H 9.q.q.q.q.X =.2.2.2.2.2.2.2.o 8.q.q.q.q.6.o 2.O.o o   w.w.w.w.w.w.w.w.w.w.w.w.w.w.w.",
"w.w.w.w.w.w.w.w.w.w.w.w.w.w.w.w.o A o o 3.o ^ 6.8.6.X . 2.2.2.2.2.2.2.*.o X 6.8.5.5.o 2.X X Z o w.w.w.w.w.w.w.w.w.w.w.w.w.w.w.w.",
"w.w.w.w.w.w.w.w.w.w.w.w.w.w.w.w.o e ) & X 2.X o o o =.2.2.2.2.3.2.2.2.2.2.2.o o o o _ o & a o w.w.w.w.w.w.w.w.w.w.w.w.w.w.w.w.w.",
"w.w.w.w.w.w.w.w.w.w.w.w.w.w.w.w.w.o y C L X X <.2.2.3.3.2.2.o o o o o _ 2.2.2.2.o o o ) u O o w.w.w.w.w.w.w.w.w.w.w.w.w.w.w.w.w.",
"w.w.w.w.w.w.w.w.w.w.w.w.w.w.w.w.w.w.X u y i ) X o o o o X o A S C W C O o o o o ) C a a e X w.w.w.w.w.w.w.w.w.w.w.w.w.w.w.w.w.w.",
"w.w.w.w.w.w.w.w.w.w.w.w.w.w.w.w.w.w.X X w i i a ) C C C B B @ a B e B i V C B B C u u w o X w.w.w.w.w.w.w.w.w.w.w.w.w.w.w.w.w.w.",
"w.w.w.w.w.w.w.w.w.w.w.w.w.w.w.w.w.w.w.o w e w w y u u a B B ) C i a a ) ) B a u w e w . o w.w.w.w.w.w.w.w.w.w.w.w.w.w.w.w.w.w.w.",
"w.w.w.w.w.w.w.w.w.w.w.w.w.w.w.w.w.w.w.w.o o X y X r w u u a u u u u u u r r a e . o o w.w.w.w.w.w.w.w.w.w.w.w.w.w.w.w.w.w.w.w.w.",
"w.w.w.w.w.w.w.w.w.w.w.w.w.w.w.w.w.w.w.w.w.w.X X o & o X w w u w B y u w e e o o o o w.w.w.w.w.w.w.w.w.w.w.w.w.w.w.w.w.w.w.w.w.w.",
"w.w.w.w.w.w.w.w.w.w.w.w.w.w.w.w.w.w.w.w.w.w.. ] o X H X X o o o w X w X o o o o T o o w.w.w.w.w.w.w.w.w.w.w.w.w.w.w.w.w.w.w.w.w.",
"w.w.w.w.w.w.w.w.w.w.w.w.w.w.w.w.w.w.w.w.w.o n T o o q D o o ; o X X X H H s o o o M o w.w.w.w.w.w.w.w.w.w.w.w.w.w.w.w.w.w.w.w.w.",
"w.w.w.w.w.w.w.w.w.w.w.w.w.w.w.w.w.w.w.w.X o M X c o o q H H H o O g D H q o o c o M z o w.w.w.w.w.w.w.w.w.w.w.w.w.w.w.w.w.w.w.w.",
"w.w.w.w.w.w.w.w.w.w.w.w.w.w.w.w.w.w.w.w.o o n X c c o o H H H o O D q 0 o X m M o n o o o w.w.w.w.w.w.w.w.w.w.w.w.w.w.w.w.w.w.w.",
"w.w.w.w.w.w.w.w.w.w.w.w.w.w.w.w.w.w.w.o 0.,.o X c c m m o 0 > o . . > X J m c M o o 7 ;.o X w.w.w.w.w.w.w.w.w.w.w.w.w.w.w.w.w.w.",
"w.w.w.w.w.w.w.w.w.w.w.w.w.w.w.w.w.w.w.o 4.4.4.o o X m m P o o b J o o M M M o o X E 4.2.*.o w.w.w.w.w.w.w.w.w.w.w.w.w.w.w.w.w.w.",
"w.w.w.w.w.w.w.w.w.w.w.w.w.w.w.w.w.w.w.o 2.2.v o d ( o o o o o o X o o o o o ( p . O 4.<.*.o w.w.w.w.w.w.w.w.w.w.w.w.w.w.w.w.w.w.",
"w.w.w.w.w.w.w.w.w.w.w.w.w.w.w.w.w.w.w.o ;.2.o o o o o o e d B C Z Z d < o o o o o o >.*.o w.w.w.w.w.w.w.w.w.w.w.w.w.w.w.w.w.w.w.",
"w.w.w.w.w.w.w.w.w.w.w.w.w.w.w.w.w.w.w.w.o o o 8 l o o o X X X O o o o , / Z a + o o s o w.w.w.w.w.w.w.w.w.w.w.w.w.w.w.w.w.w.w.w.",
"w.w.w.w.w.w.w.w.w.w.w.w.w.w.w.w.w.w.w.w.w.w.o 3 c c c c n o O . o o o o X o o + ; o w.w.w.w.w.w.w.w.w.w.w.w.w.w.w.w.w.w.w.w.w.w.",
"w.w.w.w.w.w.w.w.w.w.w.w.w.w.w.w.w.w.w.w.w.w.o 3 8 8 c x c c c c c c m m c z 8 8 3 o w.w.w.w.w.w.w.w.w.w.w.w.w.w.w.w.w.w.w.w.w.w.",
"w.w.w.w.w.w.w.w.w.w.w.w.w.w.w.w.w.w.w.w.w.w.o 3 8 ; 8 8 f t s f + c 8 c 8 l 8 8 3 o w.w.w.w.w.w.w.w.w.w.w.w.w.w.w.w.w.w.w.w.w.w.",
"w.w.w.w.w.w.w.w.w.w.w.w.w.w.w.w.w.w.w.w.w.w.w.o o o X X O O X X o o o o o o X o o w.w.w.w.w.w.w.w.w.w.w.w.w.w.w.w.w.w.w.w.w.w.w.",
"w.w.w.w.w.w.w.w.w.w.w.w.w.w.w.w.w.w.w.w.w.w.w.w.o o o K D o o w.w.o o : K o o o w.w.w.w.w.w.w.w.w.w.w.w.w.w.w.w.w.w.w.w.w.w.w.w.",
"w.w.w.w.w.w.w.w.w.w.w.w.w.w.w.w.w.w.w.w.w.w.w.w.o o 9 9 9 D o w.w.o D 9 9 9 : o w.w.w.w.w.w.w.w.w.w.w.w.w.w.w.w.w.w.w.w.w.w.w.w.",
"w.w.w.w.w.w.w.w.w.w.w.w.w.w.w.w.w.w.w.w.w.w.w.w.o o o o o o o o w.o O o o o o o w.w.w.w.w.w.w.w.w.w.w.w.w.w.w.w.w.w.w.w.w.w.w.w.",
"w.w.w.w.w.w.w.w.w.w.w.w.w.w.w.w.w.w.w.w.w.w.w.w.w.w.w.w.w.w.w.w.w.X w.w.w.w.w.w.w.w.w.w.w.w.w.w.w.w.w.w.w.w.w.w.w.w.w.w.w.w.w.w.",
"w.w.w.w.w.w.w.w.w.w.w.w.w.w.w.w.w.w.w.w.w.w.w.w.w.w.w.w.w.w.w.w.w.w.w.w.w.w.w.w.w.w.w.w.w.w.w.w.w.w.w.w.w.w.w.w.w.w.w.w.w.w.w.w.",
"w.w.w.w.w.w.w.w.w.w.w.w.w.w.w.w.w.w.w.w.w.w.w.w.w.w.w.w.w.w.w.w.w.w.w.w.w.w.w.w.w.w.w.w.w.w.w.w.w.w.w.w.w.w.w.w.w.w.w.w.w.w.w.w.",
"w.w.w.w.w.w.w.w.w.w.w.w.w.w.w.w.w.w.w.w.w.w.w.w.w.w.w.w.w.w.w.w.w.w.w.w.w.w.w.w.w.w.w.w.w.w.w.w.w.w.w.w.w.w.w.w.w.w.w.w.w.w.w.w.",
"w.w.w.w.w.w.w.w.w.w.w.w.w.w.w.w.w.w.w.w.w.w.w.w.w.w.w.w.w.w.w.w.w.w.w.w.w.w.w.w.w.w.w.w.w.w.w.w.w.w.w.w.w.w.w.w.w.w.w.w.w.w.w.w."
};
