/* XPM */
static char *result[] = {
/* columns rows colors chars-per-pixel */
"64 64 136 2 ",
"   c #141312",
".  c #181715",
"X  c #1A1917",
"o  c #1B1A18",
"O  c #231717",
"+  c #211D1A",
"@  c #24241C",
"#  c #2D251F",
"$  c #342017",
"%  c #3B261C",
"&  c #3F281C",
"*  c #1E1F20",
"=  c #212123",
"-  c #2E2E22",
";  c #242529",
":  c #27282E",
">  c #2D2D2D",
",  c #392A23",
"<  c #213122",
"1  c #203C27",
"2  c #213F28",
"3  c #313120",
"4  c #3A3A26",
"5  c #3D3D28",
"6  c #2E2F37",
"7  c #2F3039",
"8  c #353535",
"9  c #33353E",
"0  c #393939",
"q  c #462B1F",
"w  c #472E20",
"e  c #4B2E21",
"r  c #4D3123",
"t  c #4F3628",
"y  c #543525",
"u  c #51392D",
"i  c #5E3D2B",
"p  c #433B33",
"a  c #5B3C30",
"s  c #623F2D",
"d  c #23442B",
"f  c #264B2F",
"g  c #2A5433",
"h  c #2C5936",
"j  c #43442C",
"k  c #48482F",
"l  c #5B5727",
"z  c #4A4136",
"x  c #474831",
"c  c #4B4C31",
"v  c #40403E",
"b  c #5D4132",
"n  c #50463B",
"m  c #4F5036",
"M  c #505236",
"N  c #535639",
"B  c #55583A",
"V  c #595C3E",
"C  c #65412D",
"Z  c #624333",
"A  c #6E4731",
"S  c #6E4B39",
"D  c #734D39",
"F  c #7B513E",
"G  c #7B742C",
"H  c #666433",
"J  c #383A44",
"K  c #367046",
"L  c #3D7C51",
"P  c #424242",
"I  c gray30",
"U  c #5C5E40",
"Y  c #5F5E48",
"T  c #454754",
"R  c #535353",
"E  c #675A4D",
"W  c #6B5D4D",
"Q  c #7C5945",
"!  c #5E6042",
"~  c #626544",
"^  c #6B6D4A",
"/  c #6D704C",
"(  c #71734F",
")  c #737550",
"_  c #767853",
"`  c #797B55",
"'  c #8E5E47",
"]  c #835F4B",
"[  c #86735D",
"{  c #8A796B",
"}  c #997C64",
"|  c #968D33",
" . c #C0B439",
".. c #DBCC3B",
"X. c #86865F",
"o. c #8C8C64",
"O. c #9D836A",
"+. c #94946B",
"@. c #99986F",
"#. c #9D9D73",
"$. c #A3876D",
"%. c #A48A70",
"&. c #AF8D72",
"*. c #AD9377",
"=. c #A09F76",
"-. c #AC9278",
";. c #B59377",
":. c #B3977A",
">. c #B39A7C",
",. c #A3A278",
"<. c #E9DC68",
"1. c gray53",
"2. c #B39A81",
"3. c #C5A282",
"4. c #CCA585",
"5. c #C7A989",
"6. c #CFA988",
"7. c #D1AB8A",
"8. c #D1B08F",
"9. c #DBB996",
"0. c #E0B996",
"q. c #E2BE9B",
"w. c #E3C19C",
"e. c #E8C39E",
"r. c #EDC7A1",
"t. c #EFCAA3",
"y. c #EFCDAB",
"u. c #EFD0B6",
"i. c #F1D3BB",
"p. c #BFBFC1",
"a. c #C0C0C2",
"s. c #CECECE",
"d. c #D2D2D2",
"f. c #F9DFCD",
"g. c #E2E2E3",
"h. c None",
/* pixels */
"h.h.h.h.h.h.h.h.h.h.h.h.h.h.h.h.h.h.h.h.h.h.h.h.h.h.h.h.h.h.h.h.h.h.h.h.h.h.h.h.h.h.h.h.h.h.h.h.h.h.h.h.h.h.h.h.h.h.h.h.h.h.h.h.",
"h.h.h.h.h.h.h.h.h.h.h.h.h.h.h.h.h.h.h.h.h.h.h.h.h.h.h.h.h.h.h.h.h.h.h.h.h.h.h.h.h.h.h.h.h.h.h.h.h.h.h.h.h.h.h.h.h.h.h.h.h.h.h.h.",
"h.h.h.h.h.h.h.h.h.h.h.h.h.h.h.h.h.h.h.h.h.h.h.h.h.h.h.h.h.h.h.h.h.h.h.h.h.h.h.h.h.h.h.h.h.h.h.h.h.h.h.h.h.h.h.h.h.h.h.h.h.h.h.h.",
"h.h.h.h.h.h.h.h.h.h.h.h.h.h.h.h.h.h.h.h.h.h.h.h.h.h.h.h.h.h.h.h.h.h.h.h.h.h.h.h.h.h.h.h.h.h.h.h.h.h.h.h.h.h.h.h.h.h.h.h.h.h.h.h.",
"h.h.h.h.h.h.h.h.h.h.h.h.h.h.h.h.h.h.h.h.h.h.h.h.h.h.h.h.h.h.h.h.h.h.h.h.h.h.h.h.h.h.h.h.h.h.h.h.h.h.h.h.h.h.h.h.h.h.h.h.h.h.h.h.",
"h.h.h.h.h.h.h.h.h.h.h.h.h.h.h.h.h.h.h.h.h.h.h.h.h.h.h.h.h.h.h.h.h.h.h.h.h.h.h.h.h.h.h.h.h.h.h.h.h.h.h.h.h.h.h.h.h.h.h.h.h.h.h.h.",
"h.h.h.h.h.h.h.h.h.h.h.h.h.h.h.h.h.h.h.h.h.h.h.h.h.h.h.o o o o o o o o o o h.h.h.h.h.h.h.h.h.h.h.h.h.h.h.h.h.h.h.h.h.h.h.h.h.h.h.",
"h.h.h.h.h.h.h.h.h.h.h.h.h.h.h.h.h.h.h.h.h.h.h.h.o o o ! ,.,.+.o.,.,.#.@.Y o o o h.h.h.h.h.h.h.h.h.h.h.h.h.h.h.h.h.h.h.h.h.h.h.h.",
"h.h.h.h.h.h.h.h.h.h.h.h.h.h.h.h.h.h.h.h.h.h.o o ,.+.o.,.,.,.=.#.#.#.,.,.,.,.,.,.o o h.h.h.h.h.h.h.h.h.h.h.h.h.h.h.h.h.h.h.h.h.h.",
"h.h.h.h.h.h.h.h.h.h.h.h.h.h.h.h.h.h.h.h.o o ,.o.) ) o.) ( X.o.o.o.o.o.o.o.^ o.o.@.,.o o h.h.h.h.h.h.h.h.h.h.h.h.h.h.h.h.h.h.h.h.",
"h.h.h.h.h.h.h.h.h.h.h.h.h.h.h.h.h.h.h.o ,.o._ o.o.` ) B ) ( ( ( B B B B ~ ) ~ ) o.o.o.,.o h.h.h.h.h.h.h.h.h.h.h.h.h.h.h.h.h.h.h.",
"h.h.h.h.h.h.h.h.h.h.h.h.h.h.h.h.h.o o o.o.o.o.( ) ) ) ) U ~ ~ V ! ! ! ! ! ! V m ) B ) ) @.o o h.h.h.h.h.h.h.h.h.h.h.h.h.h.h.h.h.",
"h.h.h.h.h.h.h.h.h.h.h.h.h.h.h.h.o o o.o.( ( ( / B V ! ! ~ ! ! ! x x m B B B ) ! ! V 3 ) ) o.o o h.h.h.h.h.h.h.h.h.h.h.h.h.h.h.h.",
"h.h.h.h.h.h.h.h.h.h.h.h.h.h.h.o o o.) ) 3 B ! ! ~ # ! ! B M M N B B B N M M M ! B V U U N ) ) o o h.h.h.h.h.h.h.h.h.h.h.h.h.h.h.",
"h.h.h.h.h.h.h.h.h.h.h.h.h.h.h.o o.) ( ( V ! 4 N B M B B M c k c c c B B N B B B B B c ! ^ U ) ) o h.h.h.h.h.h.h.h.h.h.h.h.h.h.h.",
"h.h.h.h.h.h.h.h.h.h.h.h.h.h.o ) ) ( ! ! 3 m m B c k k 5 M c c c c c c c c j B B B B B B 4 V U ) ) o h.h.h.h.h.h.h.h.h.h.h.h.h.h.",
"h.h.h.h.h.h.h.h.h.h.h.h.h.h.o ( ) ~ 3 M N c B B x 5 c c 3 c <.k j j <.k k j k c c 3 k B B M ! ! B o h.h.h.h.h.h.h.h.h.h.h.h.h.h.",
"h.h.h.h.h.h.h.h.h.h.h.h.h.+ B 3 4 M B N 4 c 5 5 3 5 G 3 3 3 - @ @ 3 3 3 3 3 ..k k c c 5 B B B B B c o h.h.h.h.h.h.h.h.h.h.h.h.h.",
"h.h.h.h.h.h.h.h.h.h.h.h.h.o B B N c c c # 3 l 3 o o O O o o o p p . o o o o o o 3 d | k M c B B c B o h.h.h.h.h.h.h.h.h.h.h.h.h.",
"h.h.h.h.h.h.h.h.h.h.h.h.o c B B M 3 j H 3 o o o z O.>.;.>.:.8.t.t.7.:.:.>.:.:.x O O + t d ..3 c c c 5 o h.h.h.h.h.h.h.h.h.h.h.h.",
"h.h.h.h.h.h.h.h.h.h.h.h.o j 3 m 3 4 5 o o   [ [ ;.t.t.t.t.t.t.t.t.t.t.t.t.t.t.e.;.[ . o o d M k 5 x d O h.h.h.h.h.h.h.h.h.h.h.h.",
"h.h.h.h.h.h.h.h.h.h.h.h.o 5 ..#  .5 o o . >.>.t.r.r.t.t.t.r.t.t.t.t.t.t.t.t.t.t.t.>.>.  o o k r 5 3 3 o h.h.h.h.h.h.h.h.h.h.h.h.",
"h.h.h.h.h.h.h.h.h.h.h.h.o d 4 5 5 3 o   >.>.t.t.t.t.t.t.t.t.r.t.t.t.t.e.r.t.t.t.t.t.>.W   o 3 3 3 # 3 o h.h.h.h.h.h.h.h.h.h.h.h.",
"h.h.h.h.h.h.h.h.h.h.h.h.O O @ @ o o $ o 2.t.t.t.t.t.t.t.t.t.t.t.t.t.t.t.t.t.t.t.t.t.9.$.X & X X @ @ o o h.h.h.h.h.h.h.h.h.h.h.h.",
"h.h.h.h.h.h.h.h.h.h.h.h.h.  o o y & % o y.t.t.t.t.t.t.t.r.t.t.t.t.t.t.t.t.t.t.t.t.y.y.>.o w w q o o   h.h.h.h.h.h.h.h.h.h.h.h.h.",
"h.h.h.h.h.h.h.h.h.h.h.h.h.o y & i i i o y.y.t.t.t.t.r.t.t.t.t.t.t.y.t.t.t.r.t.t.t.t.t.t.o q q y q q o h.h.h.h.h.h.h.h.h.h.h.h.h.",
"h.h.h.h.h.h.h.h.h.h.h.h.h.o e y y i o 2.y.t.t.t.t.t.t.t.r.t.t.t.t.t.t.t.t.t.t.t.t.t.t.t.o q q e y q + h.h.h.h.h.h.h.h.h.h.h.h.h.",
"h.h.h.h.h.h.h.h.h.h.h.h.h.o q q y q o 2.y.t.t.9.t.r.t.t.t.t.r.t.t.r.t.t.r.t.4.t.t.t.t.t.>.o q C y q + h.h.h.h.h.h.h.h.h.h.h.h.h.",
"h.h.h.h.h.h.h.h.h.h.h.h.h.o e q i o >.>.y.3.q t.t.t.4.t.t.4.t.t.t.t.r.t.t.t.t.r.t.q t.t.>.>.X y y q o h.h.h.h.h.h.h.h.h.h.h.h.h.",
"h.h.h.h.h.h.h.h.h.h.h.h.h.o q q y o >.y.q q q q q t.r.t.t.r.r.t.t.t.t.t.t.r.t.q w w w w >.>.o e y q o h.h.h.h.h.h.h.h.h.h.h.h.h.",
"h.h.h.h.h.h.h.h.h.h.h.h.h.h.o q q o 5.y.t.y.[ *.t.b q t.t.t.6.t.t.t.t.r.t.q q t.5.[ t.y.q >.o q y q o h.h.h.h.h.h.h.h.h.h.h.h.h.",
"h.h.h.h.h.h.h.h.h.h.h.h.h.h.o q q o t.t.o o g.h o o n &.q t.t.t.r.t.t.q q r.+ O h g.v o t.t.o q q q o h.h.h.h.h.h.h.h.h.h.h.h.h.",
"h.h.h.h.h.h.h.h.h.h.h.h.h.h.o o o z t.y.o s.1 f O 2 o o t.t.t.t.4.t.t.t.O o h O 1 1 g.o t.9.O.o q o h.h.h.h.h.h.h.h.h.h.h.h.h.h.",
"h.h.h.h.h.h.h.h.h.h.h.h.h.h.o o o %.y.t.o s.2 h = h 2 p O 6.t.t.t.t.r.q.o g.K < 2 d s.o t.9.O.  o   h.h.h.h.h.h.h.h.h.h.h.h.h.h.",
"h.h.h.h.h.h.h.h.h.h.h.h.h.h.o   . o 9.t.o s.g.g L 2 g.s.o r.t.t.t.t.t.O s.g.1 L h g.d.o y.t.o X     h.h.h.h.h.h.h.h.h.h.h.h.h.h.",
"h.h.h.h.h.h.h.h.h.h.h.h.h.h.h.  o o o q.y.o a.s.g.g.s.o t.r.r.t.t.t.r.t.o s.g.g.d.s.o n t.o o o o h.h.h.h.h.h.h.h.h.h.h.h.h.h.h.",
"h.h.h.h.h.h.h.h.h.h.h.h.h.h.h.h.o y i o t.p o p.a.1.o t.t.t.t.t.t.t.t.t.t.o o a.a.o o w.o i q o h.h.h.h.h.h.h.h.h.h.h.h.h.h.h.h.",
"h.h.h.h.h.h.h.h.h.h.h.h.h.h.h.h.o o ] i o o t.^ o ;.t.t.r.r.t.y.{ t.t.t.t.t.t.o o t.o o A y o h.h.h.h.h.h.h.h.h.h.h.h.h.h.h.h.h.",
"h.h.h.h.h.h.h.h.h.h.h.h.h.h.h.h.h.o & y s t o o o t.y.y.o o o o . . o o o o o o o o ] ] y o o h.h.h.h.h.h.h.h.h.h.h.h.h.h.h.h.h.",
"h.h.h.h.h.h.h.h.h.h.h.h.h.h.h.h.h.h.. q w ] y y ] o o o s ] ] s A A A A ] i ] C A A i r w o h.h.h.h.h.h.h.h.h.h.h.h.h.h.h.h.h.h.",
"h.h.h.h.h.h.h.h.h.h.h.h.h.h.h.h.h.h.o o q y i i ] ] i A i w q o o w A b s A Q D y y e w o o h.h.h.h.h.h.h.h.h.h.h.h.h.h.h.h.h.h.",
"h.h.h.h.h.h.h.h.h.h.h.h.h.h.h.h.h.h.h.o o o o q w A y y i A s ] A C C D A y i y e w X . h.h.h.h.h.h.h.h.h.h.h.h.h.h.h.h.h.h.h.h.",
"h.h.h.h.h.h.h.h.h.h.h.h.h.h.h.h.h.h.h.h.o o o + o w X w q y y e y y r q w w w o o o X h.h.h.h.h.h.h.h.h.h.h.h.h.h.h.h.h.h.h.h.h.",
"h.h.h.h.h.h.h.h.h.h.h.h.h.h.h.h.h.h.h.h.h.h.o x o o X o q q y q q q q q o o o o ~ o h.h.h.h.h.h.h.h.h.h.h.h.h.h.h.h.h.h.h.h.h.h.",
"h.h.h.h.h.h.h.h.h.h.h.h.h.h.h.h.h.h.h.h.h.o o ^ o o P o o o o o q o y o o 8 o o ^ c o h.h.h.h.h.h.h.h.h.h.h.h.h.h.h.h.h.h.h.h.h.",
"h.h.h.h.h.h.h.h.h.h.h.h.h.h.h.h.h.h.h.h.h.o m o # o 0 P I P R o o I o v v > o , o V o o h.h.h.h.h.h.h.h.h.h.h.h.h.h.h.h.h.h.h.h.",
"h.h.h.h.h.h.h.h.h.h.h.h.h.h.h.h.h.h.h.h.o - N o c c o : g P v o o g P 0 : o B m o M x o h.h.h.h.h.h.h.h.h.h.h.h.h.h.h.h.h.h.h.h.",
"h.h.h.h.h.h.h.h.h.h.h.h.h.h.h.h.h.h.h.o o o o o c z N * O p 8 o o 0 8 O O B M B o x o o o h.h.h.h.h.h.h.h.h.h.h.h.h.h.h.h.h.h.h.",
"h.h.h.h.h.h.h.h.h.h.h.h.h.h.h.h.h.h.h.o i.f.u.o o c B B o o o m c o o o N B c o o o u.r.7.o h.h.h.h.h.h.h.h.h.h.h.h.h.h.h.h.h.h.",
"h.h.h.h.h.h.h.h.h.h.h.h.h.h.h.h.h.h.h.o t.u.{ o u o o o @ o m N M m o * o o o Z , p u.t.4.o h.h.h.h.h.h.h.h.h.h.h.h.h.h.h.h.h.h.",
"h.h.h.h.h.h.h.h.h.h.h.h.h.h.h.h.h.h.h.o 9.t.o o o o F ' C X o o o o o S D i o o o o t.t.4.o h.h.h.h.h.h.h.h.h.h.h.h.h.h.h.h.h.h.",
"h.h.h.h.h.h.h.h.h.h.h.h.h.h.h.h.h.h.h.h.o 6.o 5 o o o o o o o o o o o o o o # D o o 9.4.o h.h.h.h.h.h.h.h.h.h.h.h.h.h.h.h.h.h.h.",
"h.h.h.h.h.h.h.h.h.h.h.h.h.h.h.h.h.h.h.h.h.o o 5 x c c + o o o o o + + + o o o o o o o o h.h.h.h.h.h.h.h.h.h.h.h.h.h.h.h.h.h.h.h.",
"h.h.h.h.h.h.h.h.h.h.h.h.h.h.h.h.h.h.h.h.h.h.o 3 j p c k k B B B N x j N N c c 5 3 o h.h.h.h.h.h.h.h.h.h.h.h.h.h.h.h.h.h.h.h.h.h.",
"h.h.h.h.h.h.h.h.h.h.h.h.h.h.h.h.h.h.h.h.h.h.o 3 3 d t k c k c c 5 5 c 5 j 5 x 5 3 o h.h.h.h.h.h.h.h.h.h.h.h.h.h.h.h.h.h.h.h.h.h.",
"h.h.h.h.h.h.h.h.h.h.h.h.h.h.h.h.h.h.h.h.h.h.o o . X + 5 j j d r o o 5 5 o @ o o o o h.h.h.h.h.h.h.h.h.h.h.h.h.h.h.h.h.h.h.h.h.h.",
"h.h.h.h.h.h.h.h.h.h.h.h.h.h.h.h.h.h.h.h.h.h.h.h.o : o o o o o o o o o o o o o o h.h.h.h.h.h.h.h.h.h.h.h.h.h.h.h.h.h.h.h.h.h.h.h.",
"h.h.h.h.h.h.h.h.h.h.h.h.h.h.h.h.h.h.h.h.h.h.h.h.o o T T T o o h.h.o J 7 9 6 o o h.h.h.h.h.h.h.h.h.h.h.h.h.h.h.h.h.h.h.h.h.h.h.h.",
"h.h.h.h.h.h.h.h.h.h.h.h.h.h.h.h.h.h.h.h.h.h.h.h.o : 6 6 6 6 o h.h.o ; ; ; = = o h.h.h.h.h.h.h.h.h.h.h.h.h.h.h.h.h.h.h.h.h.h.h.h.",
"h.h.h.h.h.h.h.h.h.h.h.h.h.h.h.h.h.h.h.h.h.h.h.h.o o o o o o o o h.o o o o o o h.h.h.h.h.h.h.h.h.h.h.h.h.h.h.h.h.h.h.h.h.h.h.h.h.",
"h.h.h.h.h.h.h.h.h.h.h.h.h.h.h.h.h.h.h.h.h.h.h.h.h.h.h.h.h.h.h.h.h.h.h.h.h.h.h.h.h.h.h.h.h.h.h.h.h.h.h.h.h.h.h.h.h.h.h.h.h.h.h.h.",
"h.h.h.h.h.h.h.h.h.h.h.h.h.h.h.h.h.h.h.h.h.h.h.h.h.h.h.h.h.h.h.h.h.h.h.h.h.h.h.h.h.h.h.h.h.h.h.h.h.h.h.h.h.h.h.h.h.h.h.h.h.h.h.h.",
"h.h.h.h.h.h.h.h.h.h.h.h.h.h.h.h.h.h.h.h.h.h.h.h.h.h.h.h.h.h.h.h.h.h.h.h.h.h.h.h.h.h.h.h.h.h.h.h.h.h.h.h.h.h.h.h.h.h.h.h.h.h.h.h.",
"h.h.h.h.h.h.h.h.h.h.h.h.h.h.h.h.h.h.h.h.h.h.h.h.h.h.h.h.h.h.h.h.h.h.h.h.h.h.h.h.h.h.h.h.h.h.h.h.h.h.h.h.h.h.h.h.h.h.h.h.h.h.h.h."
};
