/* XPM */
static char *result[] = {
/* columns rows colors chars-per-pixel */
"64 64 125 2 ",
"   c #141312",
".  c #1B1615",
"X  c #1B1A17",
"o  c #1B1A18",
"O  c #241F1B",
"+  c #21221D",
"@  c #2B211D",
"#  c #2A2A1E",
"$  c #342017",
"%  c #33241C",
"&  c #3B261C",
"*  c #3F281C",
"=  c #252527",
"-  c #292522",
";  c #2D2C23",
":  c #222328",
">  c #27282E",
",  c #2B2A29",
"<  c #372A23",
"1  c #2F3023",
"2  c #203D27",
"3  c #213F28",
"4  c #303020",
"5  c #393A26",
"6  c #3D3D28",
"7  c #353535",
"8  c #34363E",
"9  c #3A3A3A",
"0  c #462B1F",
"q  c #462E21",
"w  c #4A2E21",
"e  c #4E3123",
"r  c #543525",
"t  c #573827",
"y  c #50362B",
"u  c #55382D",
"i  c #5E3C2B",
"p  c #433B32",
"a  c #5C3D31",
"s  c #603F32",
"d  c #3F4029",
"f  c #2B5634",
"g  c #2C5936",
"h  c #30643D",
"j  c #42432D",
"k  c #47492F",
"l  c #48492F",
"z  c #58562F",
"x  c #474831",
"c  c #4B4C31",
"v  c #4F5135",
"b  c #505136",
"n  c #535639",
"m  c #55583A",
"M  c #595C3D",
"N  c #65412E",
"B  c #68432F",
"V  c #624133",
"C  c #6E4731",
"Z  c #744E3B",
"A  c #77523E",
"S  c #7E533F",
"D  c #383A44",
"F  c #336940",
"G  c #39744A",
"H  c #3D7C51",
"J  c #424242",
"K  c #5E5246",
"L  c #5C5E40",
"P  c #5A524C",
"I  c #635547",
"U  c #7F5A46",
"Y  c #695F58",
"T  c #5E6042",
"R  c #6A6C4A",
"E  c #6E704C",
"W  c #71734F",
"Q  c #786757",
"!  c #737550",
"~  c #797C52",
"^  c #597A60",
"/  c #895A45",
"(  c #835F4B",
")  c #866851",
"_  c #86725C",
"`  c #9A7C64",
"'  c #6E8774",
"]  c #DBCC3B",
"[  c #86865F",
"{  c #888765",
"}  c #878860",
"|  c #8C8C64",
" . c #929269",
".. c #9C9B72",
"X. c #A48A70",
"o. c #B3977A",
"O. c #B39A7C",
"+. c #A3A278",
"@. c #B39A81",
"#. c #9EAFA2",
"$. c #A2A2A3",
"%. c #A9B7AD",
"&. c #C5A282",
"*. c #CCA585",
"=. c #CFAE92",
"-. c #D5B793",
";. c #DBB895",
":. c #DCBD98",
">. c #E1BE9A",
",. c #D3B8A0",
"<. c #B5C0B8",
"1. c #E6C09C",
"2. c #F7EB94",
"3. c #E8C7A7",
"4. c #EFCAA3",
"5. c #EFCDAB",
"6. c #EFD0B6",
"7. c #BFBFC1",
"8. c #C2C2C3",
"9. c #CECECE",
"0. c #D4D4D5",
"q. c #DCDCDD",
"w. c #F9DFCD",
"e. c #E2E2E3",
"r. c None",
/* pixels */
"r.r.r.r.r.r.r.r.r.r.r.r.r.r.r.r.r.r.r.r.r.r.r.r.r.r.r.r.r.r.r.r.r.r.r.r.r.r.r.r.r.r.r.r.r.r.r.r.r.r.r.r.r.r.r.r.r.r.r.r.r.r.r.r.",
"r.r.r.r.r.r.r.r.r.r.r.r.r.r.r.r.r.r.r.r.r.r.r.r.r.r.r.r.r.r.r.r.r.r.r.r.r.r.r.r.r.r.r.r.r.r.r.r.r.r.r.r.r.r.r.r.r.r.r.r.r.r.r.r.",
"r.r.r.r.r.r.r.r.r.r.r.r.r.r.r.r.r.r.r.r.r.r.r.r.r.r.r.r.r.r.r.r.r.r.r.r.r.r.r.r.r.r.r.r.r.r.r.r.r.r.r.r.r.r.r.r.r.r.r.r.r.r.r.r.",
"r.r.r.r.r.r.r.r.r.r.r.r.r.r.r.r.r.r.r.r.r.r.r.r.r.r.r.r.r.r.r.r.r.r.r.r.r.r.r.r.r.r.r.r.r.r.r.r.r.r.r.r.r.r.r.r.r.r.r.r.r.r.r.r.",
"r.r.r.r.r.r.r.r.r.r.r.r.r.r.r.r.r.r.r.r.r.r.r.r.r.r.r.r.r.r.r.r.r.r.r.r.r.r.r.r.r.r.r.r.r.r.r.r.r.r.r.r.r.r.r.r.r.r.r.r.r.r.r.r.",
"r.r.r.r.r.r.r.r.r.r.r.r.r.r.r.r.r.r.r.r.r.r.r.r.r.r.r.r.r.r.r.r.r.r.r.r.r.r.r.r.r.r.r.r.r.r.r.r.r.r.r.r.r.r.r.r.r.r.r.r.r.r.r.r.",
"r.r.r.r.r.r.r.r.r.r.r.r.r.r.r.r.r.r.r.r.r.r.r.r.r.r.r.r.r.r.r.r.r.r.r.r.r.r.r.r.r.r.r.r.r.r.r.r.r.r.r.r.r.r.r.r.r.r.r.r.r.r.r.r.",
"r.r.r.r.r.r.r.r.r.r.r.r.r.r.r.r.r.r.r.r.r.r.r.r.r.r.o o o o o o o o o o o o r.r.r.r.r.r.r.r.r.r.r.r.r.r.r.r.r.r.r.r.r.r.r.r.r.r.",
"r.r.r.r.r.r.r.r.r.r.r.r.r.r.r.r.r.r.r.r.r.r.r.o o o +.+...| | |  ...+.+...| X X X r.r.r.r.r.r.r.r.r.r.r.r.r.r.r.r.r.r.r.r.r.r.r.",
"r.r.r.r.r.r.r.r.r.r.r.r.r.r.r.r.r.r.r.r.r.o o +.|  .+.W | | | | | | | | |  ...+.+.X o r.r.r.r.r.r.r.r.r.r.r.r.r.r.r.r.r.r.r.r.r.",
"r.r.r.r.r.r.r.r.r.r.r.r.r.r.r.r.r.r.r.o o +.| ! | | ! | | m m ! ! E ! ! ! | | m | | +.o o r.r.r.r.r.r.r.r.r.r.r.r.r.r.r.r.r.r.r.",
"r.r.r.r.r.r.r.r.r.r.r.r.r.r.r.r.r.r.o o | } | | W M ! ! W b # j 1 4 4 < m m ! T ! | } | o o r.r.r.r.r.r.r.r.r.r.r.r.r.r.r.r.r.r.",
"r.r.r.r.r.r.r.r.r.r.r.r.r.r.r.r.r.o { ! | | W ! ! E L T W E T T T T T L T T T L T ! R ! ! | X r.r.r.r.r.r.r.r.r.r.r.r.r.r.r.r.r.",
"r.r.r.r.r.r.r.r.r.r.r.r.r.r.r.r.o | | E ! ! m L R M T T T 4 n T T T T v 4 m m m T T m x E W | X r.r.r.r.r.r.r.r.r.r.r.r.r.r.r.r.",
"r.r.r.r.r.r.r.r.r.r.r.r.r.r.r.o ! R W 5 m R m k m m m n b m m m m m m m m m T v v T T T m R 4 T o r.r.r.r.r.r.r.r.r.r.r.r.r.r.r.",
"r.r.r.r.r.r.r.r.r.r.r.r.r.r.X o | W W R M # b m b m c l m m m m m m m m m m v m m m n T T T T m o X r.r.r.r.r.r.r.r.r.r.r.r.r.r.",
"r.r.r.r.r.r.r.r.r.r.r.r.r.r.o ! ! T L 4 v b m c v n m l k 6 6 6 6 d l v c c c d m c m T T m T M m o r.r.r.r.r.r.r.r.r.r.r.r.r.r.",
"r.r.r.r.r.r.r.r.r.r.r.r.r.o j ! m T b m m n m 6 j l ] 6 4 6 ] l l c ] 6 1 c 2.l c c 4 m m m m m v 6 o r.r.r.r.r.r.r.r.r.r.r.r.r.",
"r.r.r.r.r.r.r.r.r.r.r.r.r.o m L m m c l n 6 ] 4 < 4 < O X X X X o o X X # 4 4 4 6 k l c c m m m m c o r.r.r.r.r.r.r.r.r.r.r.r.r.",
"r.r.r.r.r.r.r.r.r.r.r.r.o o n b m c c j 4 4 4 o o o o O O.O.o.o.o.O.O.O.X X X X X 6 z 4 c k c l c c o o r.r.r.r.r.r.r.r.r.r.r.r.",
"r.r.r.r.r.r.r.r.r.r.r.r.o l m c c c 6 1 X o o _ ) o.&.;.4.4.4.4.4.4.4.4.:.o.O.O._ X X o 6 ] l 4 4 c 6 X r.r.r.r.r.r.r.r.r.r.r.r.",
"r.r.r.r.r.r.r.r.r.r.r.r.o 6 5 # 2.l 4 o .   _ o.4.4.4.4.4.4.4.4.4.4.4.4.4.4.4.4.4._   X X 6 d c 6 6 6 X r.r.r.r.r.r.r.r.r.r.r.r.",
"r.r.r.r.r.r.r.r.r.r.r.r.o 6 6 6 6 4 o   Q O.4.4.4.4.4.4.4.4.4.4.4.4.4.4.4.4.4.4.4.o.O.  q X 6 d 6 6 4 X r.r.r.r.r.r.r.r.r.r.r.r.",
"r.r.r.r.r.r.r.r.r.r.r.r.o 4 4 4 4 X o   @.O.4.4.4.4.4.4.4.4.4.>.4.4.4.4.4.4.4.4.4.4.O.@.  X X 4 # 4 4 X r.r.r.r.r.r.r.r.r.r.r.r.",
"r.r.r.r.r.r.r.r.r.r.r.r.r.o o X X X $ X @.4.4.4.4.4.4.4.4.4.4.4.4.4.4.4.4.4.4.4.4.5.4.O.o * X X o o o r.r.r.r.r.r.r.r.r.r.r.r.r.",
"r.r.r.r.r.r.r.r.r.r.r.r.r.  * q q * e o 5.4.4.4.4.4.4.4.4.4.4.4.4.4.4.4.4.4.4.4.4.4.5.O.X t q * 0 &   r.r.r.r.r.r.r.r.r.r.r.r.r.",
"r.r.r.r.r.r.r.r.r.r.r.r.r.o r r i i i X 5.4.4.4.4.1.4.4.4.4.4.4.4.4.4.*.4.4.4.4.4.4.4.4.o q 0 r r 0 o r.r.r.r.r.r.r.r.r.r.r.r.r.",
"r.r.r.r.r.r.r.r.r.r.r.r.r.X w r r 0 o @.5.4.4.4.4.4.4.4.4.4.4.4.4.4.4.4.4.4.4.4.4.4.4.4.o @ 0 0 r w o r.r.r.r.r.r.r.r.r.r.r.r.r.",
"r.r.r.r.r.r.r.r.r.r.r.r.r.o 0 0 i o ; @.5.4.4.4.4.4.4.4.4.4.4.4.4.4.4.>.4.4.4.4.4.4.4.4.O.o % i r 0 X r.r.r.r.r.r.r.r.r.r.r.r.r.",
"r.r.r.r.r.r.r.r.r.r.r.r.r.o 0 w i o O.3.5.q 0 0 0 4.4.4.4.>.>.4.4.4.4.4.4.4.4.0 0 0 0 ) O.O.o w r 0 o r.r.r.r.r.r.r.r.r.r.r.r.r.",
"r.r.r.r.r.r.r.r.r.r.r.r.r.o 0 0 r o O.5.0 ` 4.0 0 w 4.4.4.4.4.4.4.4.4.4.4.4.0 0 0 4.-.0 4.O.o 0 r 0 o r.r.r.r.r.r.r.r.r.r.r.r.r.",
"r.r.r.r.r.r.r.r.r.r.r.r.r.r.o 0 0 o 4.4.1.X X X o 4.0 &.4.4.4.4.4.4.*.4.4.0 4.. X X X K 5.-.o 0 r 0 o r.r.r.r.r.r.r.r.r.r.r.r.r.",
"r.r.r.r.r.r.r.r.r.r.r.r.r.r.o q w X 4.4.o q.q.H 2 o . 4.4.4.4.4.4.4.4.4.4.O . 1 g f e.X 4.>.o & w e o r.r.r.r.r.r.r.r.r.r.r.r.r.",
"r.r.r.r.r.r.r.r.r.r.r.r.r.r.  o o ..4.5.o 9.3 2 O 3 3 o 4.4.4.4.>.4.4.4.O %.F . 2 2 0.X 4.:.| X . . r.r.r.r.r.r.r.r.r.r.r.r.r.r.",
"r.r.r.r.r.r.r.r.r.r.r.r.r.r.o `   X.4.4.o 8.#.h O h %.e.. 4.4.4.4.4.4.O e.e.G 2 g 2 9.o 4.4.`   X.  r.r.r.r.r.r.r.r.r.r.r.r.r.r.",
"r.r.r.r.r.r.r.r.r.r.r.r.r.r.r.  o o -.5.o 7.0.' 2 ' e.9.o 4.4.4.4.4.4.4.o e.e.2 2 q.8.o 4.:.X X   r.r.r.r.r.r.r.r.r.r.r.r.r.r.r.",
"r.r.r.r.r.r.r.r.r.r.r.r.r.r.r.r.o ( X I 4.o 9.q.q.9.e.. 4.4.4.4.4.4.4.4.o $.9.q.e.8.o 5.;.o ( o r.r.r.r.r.r.r.r.r.r.r.r.r.r.r.r.",
"r.r.r.r.r.r.r.r.r.r.r.r.r.r.r.r.o q A o o 4.o o o o o 4.4.4.4.4.4.4.5.4.4.o . . o o 4.o o C o o r.r.r.r.r.r.r.r.r.r.r.r.r.r.r.r.",
"r.r.r.r.r.r.r.r.r.r.r.r.r.r.r.r.r.o 0 C @ X o 5.4.4.4.4.4.4.4.o X X 4.4.4.4.5.5.4.o o A r r o r.r.r.r.r.r.r.r.r.r.r.r.r.r.r.r.r.",
"r.r.r.r.r.r.r.r.r.r.r.r.r.r.r.r.r.X X r N U o o o o o o o o o C A U o o o o o X o Z B ( w o o r.r.r.r.r.r.r.r.r.r.r.r.r.r.r.r.r.",
"r.r.r.r.r.r.r.r.r.r.r.r.r.r.r.r.r.r.o o i ( N B B C C ( ( U C i C B N N C C C i C i e r & o r.r.r.r.r.r.r.r.r.r.r.r.r.r.r.r.r.r.",
"r.r.r.r.r.r.r.r.r.r.r.r.r.r.r.r.r.r.o o 0 0 0 r ( i r i i i i ( 0 N B U r C ( i r 0 0 0 o o r.r.r.r.r.r.r.r.r.r.r.r.r.r.r.r.r.r.",
"r.r.r.r.r.r.r.r.r.r.r.r.r.r.r.r.r.r.r.r.o o X 0 < r 0 r r C r t r r r r i r i q 0 o o o r.r.r.r.r.r.r.r.r.r.r.r.r.r.r.r.r.r.r.r.",
"r.r.r.r.r.r.r.r.r.r.r.r.r.r.r.r.r.r.r.r.r.r.X X . q . q 0 r r 0 e r r 0 q q q o o o o r.r.r.r.r.r.r.r.r.r.r.r.r.r.r.r.r.r.r.r.r.",
"r.r.r.r.r.r.r.r.r.r.r.r.r.r.r.r.r.r.r.r.r.r.o ~ o o o o % % t o 0 * q o o o o o ~ o r.r.r.r.r.r.r.r.r.r.r.r.r.r.r.r.r.r.r.r.r.r.",
"r.r.r.r.r.r.r.r.r.r.r.r.r.r.r.r.r.r.r.r.r.o j m o o 9 o o o o o 0 o o o J 9 o o 6 m o r.r.r.r.r.r.r.r.r.r.r.r.r.r.r.r.r.r.r.r.r.",
"r.r.r.r.r.r.r.r.r.r.r.r.r.r.r.r.r.r.r.r.r.o v o c . o 9 D x J o o J d 9 9 o o c . m x o r.r.r.r.r.r.r.r.r.r.r.r.r.r.r.r.r.r.r.r.",
"r.r.r.r.r.r.r.r.r.r.r.r.r.r.r.r.r.r.r.r.o o 1 o c c - o J D J o o J D 7 o o m m o b x o o r.r.r.r.r.r.r.r.r.r.r.r.r.r.r.r.r.r.r.",
"r.r.r.r.r.r.r.r.r.r.r.r.r.r.r.r.r.r.r.o P w., o c c m m o , + o o o = o m M c n o o o o.p o r.r.r.r.r.r.r.r.r.r.r.r.r.r.r.r.r.r.",
"r.r.r.r.r.r.r.r.r.r.r.r.r.r.r.r.r.r.r.o 4.6.,.o o o 6 m T o o b n o o M m 1 o o o Y w.4.*.o r.r.r.r.r.r.r.r.r.r.r.r.r.r.r.r.r.r.",
"r.r.r.r.r.r.r.r.r.r.r.r.r.r.r.r.r.r.r.o ;.4.- o a / O o o o o o o o o o o < S q o o 6.4.*.o r.r.r.r.r.r.r.r.r.r.r.r.r.r.r.r.r.r.",
"r.r.r.r.r.r.r.r.r.r.r.r.r.r.r.r.r.r.r.r.o ;.o o . o o o @ u a V V s y O o o o o o o 4.;.*.o r.r.r.r.r.r.r.r.r.r.r.r.r.r.r.r.r.r.",
"r.r.r.r.r.r.r.r.r.r.r.r.r.r.r.r.r.r.r.r.r.o o 6 d 4 o o o o o o o o o V Z V u X o o *.` o r.r.r.r.r.r.r.r.r.r.r.r.r.r.r.r.r.r.r.",
"r.r.r.r.r.r.r.r.r.r.r.r.r.r.r.r.r.r.r.r.r.r.o 4 c c c c c ; o o o o o o o X o 5 < o o o r.r.r.r.r.r.r.r.r.r.r.r.r.r.r.r.r.r.r.r.",
"r.r.r.r.r.r.r.r.r.r.r.r.r.r.r.r.r.r.r.r.r.r.o 4 6 6 c v c c c c c c M c c c 6 6 4 o r.r.r.r.r.r.r.r.r.r.r.r.r.r.r.r.r.r.r.r.r.r.",
"r.r.r.r.r.r.r.r.r.r.r.r.r.r.r.r.r.r.r.r.r.r.o 4 5 o 6 6 6 6 6 6 - 6 6 n 6 6 6 5 1 o r.r.r.r.r.r.r.r.r.r.r.r.r.r.r.r.r.r.r.r.r.r.",
"r.r.r.r.r.r.r.r.r.r.r.r.r.r.r.r.r.r.r.r.r.r.r.o o o o o o o o o o o o o o X X o o r.r.r.r.r.r.r.r.r.r.r.r.r.r.r.r.r.r.r.r.r.r.r.",
"r.r.r.r.r.r.r.r.r.r.r.r.r.r.r.r.r.r.r.r.r.r.r.r.o o o o o o o r.r.o D 9 D D o o r.r.r.r.r.r.r.r.r.r.r.r.r.r.r.r.r.r.r.r.r.r.r.r.",
"r.r.r.r.r.r.r.r.r.r.r.r.r.r.r.r.r.r.r.r.r.r.r.r.o o D D D D o r.r.o > > > : : o r.r.r.r.r.r.r.r.r.r.r.r.r.r.r.r.r.r.r.r.r.r.r.r.",
"r.r.r.r.r.r.r.r.r.r.r.r.r.r.r.r.r.r.r.r.r.r.r.r.o > > > > > : o r.o o o o o o o r.r.r.r.r.r.r.r.r.r.r.r.r.r.r.r.r.r.r.r.r.r.r.r.",
"r.r.r.r.r.r.r.r.r.r.r.r.r.r.r.r.r.r.r.r.r.r.r.r.o o o o o o o r.r.r.r.r.r.r.r.r.r.r.r.r.r.r.r.r.r.r.r.r.r.r.r.r.r.r.r.r.r.r.r.r.",
"r.r.r.r.r.r.r.r.r.r.r.r.r.r.r.r.r.r.r.r.r.r.r.r.r.r.r.r.r.r.r.r.r.r.r.r.r.r.r.r.r.r.r.r.r.r.r.r.r.r.r.r.r.r.r.r.r.r.r.r.r.r.r.r.",
"r.r.r.r.r.r.r.r.r.r.r.r.r.r.r.r.r.r.r.r.r.r.r.r.r.r.r.r.r.r.r.r.r.r.r.r.r.r.r.r.r.r.r.r.r.r.r.r.r.r.r.r.r.r.r.r.r.r.r.r.r.r.r.r.",
"r.r.r.r.r.r.r.r.r.r.r.r.r.r.r.r.r.r.r.r.r.r.r.r.r.r.r.r.r.r.r.r.r.r.r.r.r.r.r.r.r.r.r.r.r.r.r.r.r.r.r.r.r.r.r.r.r.r.r.r.r.r.r.r."
};
