/* XPM */
static char *result[] = {
/* columns rows colors chars-per-pixel */
"64 64 138 2 ",
"   c #141312",
".  c #1E1414",
"X  c #1B1A17",
"o  c #1B1A18",
"O  c #231E1B",
"+  c #22221C",
"@  c #2A221E",
"#  c #2A291F",
"$  c #342017",
"%  c #36251C",
"&  c #3F281C",
"*  c #3C261B",
"=  c #232222",
"-  c #292521",
";  c #2F2F20",
":  c #222328",
">  c #27282E",
",  c #2A2A2A",
"<  c #312C27",
"1  c #382922",
"2  c #203D27",
"3  c #213F28",
"4  c #303020",
"5  c #393926",
"6  c #30302F",
"7  c #3D3D28",
"8  c #353535",
"9  c #3E3935",
"0  c #32343D",
"q  c #3B3B3B",
"w  c #462B1F",
"e  c #472E20",
"r  c #4B2F21",
"t  c #463024",
"y  c #4E3224",
"u  c #4C352A",
"i  c #543525",
"p  c #56392D",
"a  c #5F3D2B",
"s  c #5D3D31",
"d  c #3F402D",
"f  c #2B5634",
"g  c #2C5936",
"h  c #30643D",
"j  c #43442C",
"k  c #47492F",
"l  c #48482F",
"z  c #464536",
"x  c #4B4237",
"c  c #474831",
"v  c #4B4C31",
"b  c #54493D",
"n  c #4F5035",
"m  c #505236",
"M  c #545639",
"N  c #55583A",
"B  c #595C3E",
"V  c #64412E",
"C  c #68432E",
"Z  c #654334",
"A  c #6E4731",
"S  c #76523F",
"D  c #79503D",
"F  c #6E6A2E",
"G  c #373943",
"H  c #383A44",
"J  c #3D3F4A",
"K  c #336940",
"L  c #39744A",
"P  c #3D7C51",
"I  c #424242",
"U  c #4F4943",
"Y  c #5E5245",
"T  c #5C5E40",
"R  c #444653",
"E  c #775542",
"W  c #785441",
"Q  c #7F5B47",
"!  c #5E6042",
"~  c #636646",
"^  c #666847",
"/  c #6A6C49",
"(  c #72614E",
")  c #706F54",
"_  c #737550",
"`  c #797B54",
"'  c #7D7F59",
"]  c #597A60",
"[  c #865943",
"{  c #835F4B",
"}  c #866851",
"|  c #837E51",
" . c #85725D",
".. c #9A7B63",
"X. c #6E8774",
"o. c #9C9437",
"O. c #DBCC3B",
"+. c #81825B",
"@. c #8C8C64",
"#. c #9C8067",
"$. c #95946C",
"%. c #A48B71",
"&. c #B08F74",
"*. c #A09F76",
"=. c #B3977A",
"-. c #B39A7C",
";. c #A2A177",
":. c #A3A278",
">. c #C1B975",
",. c #B39A81",
"<. c #BEA484",
"1. c #9EAFA2",
"2. c #A2A2A3",
"3. c #A9B7AD",
"4. c #C5A282",
"5. c #CCA585",
"6. c #C2A78C",
"7. c #D3AC8B",
"8. c #CFAE92",
"9. c #D5B793",
"0. c #DBB895",
"q. c #DFBB98",
"w. c #E3BE9B",
"e. c #D6BAA3",
"r. c #B5C0B8",
"t. c #E8C29D",
"y. c #EAC6A0",
"u. c #EFCAA3",
"i. c #EFCDAB",
"p. c #EFD0B6",
"a. c #BFBFC1",
"s. c #C2C2C3",
"d. c #CECECE",
"f. c #DCDCDD",
"g. c #D4D4D5",
"h. c #F9DFCD",
"j. c #E2E2E3",
"k. c None",
/* pixels */
"k.k.k.k.k.k.k.k.k.k.k.k.k.k.k.k.k.k.k.k.k.k.k.k.k.k.k.k.k.k.k.k.k.k.k.k.k.k.k.k.k.k.k.k.k.k.k.k.k.k.k.k.k.k.k.k.k.k.k.k.k.k.k.k.",
"k.k.k.k.k.k.k.k.k.k.k.k.k.k.k.k.k.k.k.k.k.k.k.k.k.k.k.k.k.k.k.k.k.k.k.k.k.k.k.k.k.k.k.k.k.k.k.k.k.k.k.k.k.k.k.k.k.k.k.k.k.k.k.k.",
"k.k.k.k.k.k.k.k.k.k.k.k.k.k.k.k.k.k.k.k.k.k.k.k.k.k.k.k.k.k.k.k.k.k.k.k.k.k.k.k.k.k.k.k.k.k.k.k.k.k.k.k.k.k.k.k.k.k.k.k.k.k.k.k.",
"k.k.k.k.k.k.k.k.k.k.k.k.k.k.k.k.k.k.k.k.k.k.k.k.k.k.k.k.k.k.k.k.k.k.k.k.k.k.k.k.k.k.k.k.k.k.k.k.k.k.k.k.k.k.k.k.k.k.k.k.k.k.k.k.",
"k.k.k.k.k.k.k.k.k.k.k.k.k.k.k.k.k.k.k.k.k.k.k.k.k.k.k.k.k.k.k.k.k.k.k.k.k.k.k.k.k.k.k.k.k.k.k.k.k.k.k.k.k.k.k.k.k.k.k.k.k.k.k.k.",
"k.k.k.k.k.k.k.k.k.k.k.k.k.k.k.k.k.k.k.k.k.k.k.k.k.k.k.k.k.k.k.k.k.k.k.k.k.k.k.k.k.k.k.k.k.k.k.k.k.k.k.k.k.k.k.k.k.k.k.k.k.k.k.k.",
"k.k.k.k.k.k.k.k.k.k.k.k.k.k.k.k.k.k.k.k.k.k.k.k.k.k.k.k.k.k.k.k.k.k.k.k.k.k.k.k.k.k.k.k.k.k.k.k.k.k.k.k.k.k.k.k.k.k.k.k.k.k.k.k.",
"k.k.k.k.k.k.k.k.k.k.k.k.k.k.k.k.k.k.k.k.k.k.k.k.k.k.o o o o o o o o o o o o k.k.k.k.k.k.k.k.k.k.k.k.k.k.k.k.k.k.k.k.k.k.k.k.k.k.",
"k.k.k.k.k.k.k.k.k.k.k.k.k.k.k.k.k.k.k.k.k.k.k.o o o o :.;.@.@.@.:.:.:.:.@.o o o o k.k.k.k.k.k.k.k.k.k.k.k.k.k.k.k.k.k.k.k.k.k.k.",
"k.k.k.k.k.k.k.k.k.k.k.k.k.k.k.k.k.k.k.k.k.o o z $.@.:.*._ @.@.@.@.@.@.@.@.:.;.:.z o o k.k.k.k.k.k.k.k.k.k.k.k.k.k.k.k.k.k.k.k.k.",
"k.k.k.k.k.k.k.k.k.k.k.k.k.k.k.k.k.k.k.k.o ) @.' _ @._ +.@.' N / _ _ _ _ +.@./ ' @.@._ o k.k.k.k.k.k.k.k.k.k.k.k.k.k.k.k.k.k.k.k.",
"k.k.k.k.k.k.k.k.k.k.k.k.k.k.k.k.k.k.o X @._ @.@._ _ N _ _ _ 4 4 ; 4 5 N N N _ / _ @.` @.o o k.k.k.k.k.k.k.k.k.k.k.k.k.k.k.k.k.k.",
"k.k.k.k.k.k.k.k.k.k.k.k.k.k.k.k.k.o + ` @.@._ _ _ ; ~ ! ^ _ N ! ! ! ! ! ! ! ! ! N _ _ _ _ = o k.k.k.k.k.k.k.k.k.k.k.k.k.k.k.k.k.",
"k.k.k.k.k.k.k.k.k.k.k.k.k.k.k.k.X ` @.B _ _ ~ ! B T ! ! T N ; v ! ! c ; 5 N N N ! T N v N _ ` o k.k.k.k.k.k.k.k.k.k.k.k.k.k.k.k.",
"k.k.k.k.k.k.k.k.k.k.k.k.k.k.k.o + # _ 5 N ! B N 4 N N N m m N N N N N N N N m m N T ! ! N 4 4 O o k.k.k.k.k.k.k.k.k.k.k.k.k.k.k.",
"k.k.k.k.k.k.k.k.k.k.k.k.k.k.k.o @._ _ ! ! m m N m N N v n N N N N N N N M N N N N N 5 T ! ! ~ N o k.k.k.k.k.k.k.k.k.k.k.k.k.k.k.",
"k.k.k.k.k.k.k.k.k.k.k.k.k.k.X _ _ T N j v m N v v N N v v l l j k v l l v v k N N v N ! B M ! _ T o k.k.k.k.k.k.k.k.k.k.k.k.k.k.",
"k.k.k.k.k.k.k.k.k.k.k.k.k.o + _ N T m N N v N v 7 l O.v ; 7 O.7 j j O.d ; v >.n v v k N M M n T N O o k.k.k.k.k.k.k.k.k.k.k.k.k.",
"k.k.k.k.k.k.k.k.k.k.k.k.k.o N ~ N N v v N j O.7 < ; % 1 + X X X X X X + ; 4 4 4 7 k k v n M N N N v o k.k.k.k.k.k.k.k.k.k.k.k.k.",
"k.k.k.k.k.k.k.k.k.k.k.k.k.o m m N N N v 4 4 4 o o o o O x =.=.=.=.=.-.b X X o o X d o.5 n 4 v v v 7 o k.k.k.k.k.k.k.k.k.k.k.k.k.",
"k.k.k.k.k.k.k.k.k.k.k.k.o v N m v v 7 4 o o o ( } ,.=.,.u.u.u.u.u.u.u.u.-.=.=.-.( X X X 7 O.v ; 4 v 7 X k.k.k.k.k.k.k.k.k.k.k.k.",
"k.k.k.k.k.k.k.k.k.k.k.k.o 7 4 ; | l 4 o o    .=.u.u.u.u.u.u.u.u.u.u.u.u.u.u.u.u.u. .  X X 7 7 v v 7 d X k.k.k.k.k.k.k.k.k.k.k.k.",
"k.k.k.k.k.k.k.k.k.k.k.k.o 7 F 7 7 ; o   - -.y.u.u.u.u.u.u.u.u.u.u.u.u.u.u.u.u.u.u.=.-.  e X 7 d 7 ; ; X k.k.k.k.k.k.k.k.k.k.k.k.",
"k.k.k.k.k.k.k.k.k.k.k.k.o 4 4 4 4 o o   ,.-.u.u.u.u.u.u.u.u.t.u.u.u.u.u.u.u.u.u.u.u.-.-.  X X 4 ; < ; X k.k.k.k.k.k.k.k.k.k.k.k.",
"k.k.k.k.k.k.k.k.k.k.k.k.k.o o o o o $ o ,.u.u.u.u.u.u.u.u.u.u.u.u.u.u.u.u.u.u.u.u.i.i.-.X & X X o o o k.k.k.k.k.k.k.k.k.k.k.k.k.",
"k.k.k.k.k.k.k.k.k.k.k.k.k.  & e e & e o i.u.u.u.u.u.u.u.u.u.u.u.u.u.u.u.u.u.u.u.u.u.u.-.X i e & & *   k.k.k.k.k.k.k.k.k.k.k.k.k.",
"k.k.k.k.k.k.k.k.k.k.k.k.k.o i i a a a o i.u.u.u.u.u.y.u.u.t.u.u.u.u.u.t.u.u.u.u.u.u.u.u.o w w i i w o k.k.k.k.k.k.k.k.k.k.k.k.k.",
"k.k.k.k.k.k.k.k.k.k.k.k.k.o r i i w o ,.i.u.u.u.u.u.u.u.u.u.u.u.u.u.u.u.u.u.u.u.u.u.u.u.o e w w i y o k.k.k.k.k.k.k.k.k.k.k.k.k.",
"k.k.k.k.k.k.k.k.k.k.k.k.k.o w w a o o ,.i.u.u.u.u.u.u.u.u.u.u.u.u.u.u.u.u.u.u.u.u.u.u.u.-.X w a i w X k.k.k.k.k.k.k.k.k.k.k.k.k.",
"k.k.k.k.k.k.k.k.k.k.k.k.k.o w w a o -.6.i.e w w w u.u.u.y.5.u.u.u.y.u.u.u.u.y.w w e e } -.-.X y i w o k.k.k.k.k.k.k.k.k.k.k.k.k.",
"k.k.k.k.k.k.k.k.k.k.k.k.k.o w w i o -.i.e ..u.w w e u.u.u.u.u.u.y.u.u.u.u.u.w w e u.8.e u.-.o w i w o k.k.k.k.k.k.k.k.k.k.k.k.k.",
"k.k.k.k.k.k.k.k.k.k.k.k.k.k.o w w o u.u.w.o o o . u.e 4.u.u.u.y.u.u.7.u.u.w u.. o o o Y u.<.o w i w o k.k.k.k.k.k.k.k.k.k.k.k.k.",
"k.k.k.k.k.k.k.k.k.k.k.k.k.k.o e e X u.i.o f.j.P 2 o o u.u.u.u.u.u.u.u.u.u.O O 2 g f j.o u.i.X e w w X k.k.k.k.k.k.k.k.k.k.k.k.k.",
"k.k.k.k.k.k.k.k.k.k.k.k.k.k.  o X %.u.u.o d.3 3 . 2 2 o u.u.u.u.w.u.u.w.O 3.g . 2 2 g.X u.0.#.X X X k.k.k.k.k.k.k.k.k.k.k.k.k.k.",
"k.k.k.k.k.k.k.k.k.k.k.k.k.k.o o   %.i.u.o s.1.h + K 3.j.X u.u.u.u.u.u.O j.j.L 2 g 2 d.o i.t.#.  %.  k.k.k.k.k.k.k.k.k.k.k.k.k.k.",
"k.k.k.k.k.k.k.k.k.k.k.k.k.k.k.  X X 0.u.o s.f.] 2 X.j.d.. u.u.u.u.u.u.u.O j.j.2 2 f.s.+ u.0.X X   o k.k.k.k.k.k.k.k.k.k.k.k.k.k.",
"k.k.k.k.k.k.k.k.k.k.k.k.k.k.k.k.X ( X 0.i.X d.f.f.d.j.X u.u.u.u.u.u.u.u.. 2.d.f.j.s.o u.0.o { o k.k.k.k.k.k.k.k.k.k.k.k.k.k.k.k.",
"k.k.k.k.k.k.k.k.k.k.k.k.k.k.k.k.X y C X o u.X o o o o u.u.u.u.u.u.u.i.u.u.o o o o o u.o o A % o k.k.k.k.k.k.k.k.k.k.k.k.k.k.k.k.",
"k.k.k.k.k.k.k.k.k.k.k.k.k.k.k.k.k.X i C o o 9.u.u.u.u.u.u.u.u.o X Y u.u.u.u.u.i.u.o X u i i o k.k.k.k.k.k.k.k.k.k.k.k.k.k.k.k.k.",
"k.k.k.k.k.k.k.k.k.k.k.k.k.k.k.k.k.X X i V { o o o o o o o o o A { + o o o o o o o t A { w o o k.k.k.k.k.k.k.k.k.k.k.k.k.k.k.k.k.",
"k.k.k.k.k.k.k.k.k.k.k.k.k.k.k.k.k.k.o & a { a A E A Q { { { A a A C a A A A A V A a a i w o k.k.k.k.k.k.k.k.k.k.k.k.k.k.k.k.k.k.",
"k.k.k.k.k.k.k.k.k.k.k.k.k.k.k.k.k.k.o o e w a a Q a i a a a a { w a A S i A { a i w w w o o k.k.k.k.k.k.k.k.k.k.k.k.k.k.k.k.k.k.",
"k.k.k.k.k.k.k.k.k.k.k.k.k.k.k.k.k.k.k.k.o o o e w i w i a A i E i i i a a i a i e o . o k.k.k.k.k.k.k.k.k.k.k.k.k.k.k.k.k.k.k.k.",
"k.k.k.k.k.k.k.k.k.k.k.k.k.k.k.k.k.k.k.k.X o o o o w o w w i i i w i i w w w e o o o o k.k.k.k.k.k.k.k.k.k.k.k.k.k.k.k.k.k.k.k.k.",
"k.k.k.k.k.k.k.k.k.k.k.k.k.k.k.k.k.k.k.k.k.k.o ` o o o o e e i o w w e O o o o o ` o k.k.k.k.k.k.k.k.k.k.k.k.k.k.k.k.k.k.k.k.k.k.",
"k.k.k.k.k.k.k.k.k.k.k.k.k.k.k.k.k.k.k.k.k.o 7 N o o q X o o o o w X o o I q o o 7 N o k.k.k.k.k.k.k.k.k.k.k.k.k.k.k.k.k.k.k.k.k.",
"k.k.k.k.k.k.k.k.k.k.k.k.k.k.k.k.k.k.k.k.k.o m o v o o q I q I o o I z q q o o v o N c o k.k.k.k.k.k.k.k.k.k.k.k.k.k.k.k.k.k.k.k.",
"k.k.k.k.k.k.k.k.k.k.k.k.k.k.k.k.k.k.k.k.o o 5 o v v o o I I I o o I q 8 o o m N o m v o o k.k.k.k.k.k.k.k.k.k.k.k.k.k.k.k.k.k.k.",
"k.k.k.k.k.k.k.k.k.k.k.k.k.k.k.k.k.k.k.o 9 h.= X v v N N o 6 = o o O , o N N v N o o o  .4 o k.k.k.k.k.k.k.k.k.k.k.k.k.k.k.k.k.k.",
"k.k.k.k.k.k.k.k.k.k.k.k.k.k.k.k.k.k.k.o u.p.e.o X o v N ! o X n M o o N N j X X o U h.u.5.o k.k.k.k.k.k.k.k.k.k.k.k.k.k.k.k.k.k.",
"k.k.k.k.k.k.k.k.k.k.k.k.k.k.k.k.k.k.k.o 0.u.< o s [ o o o o X X o o o o o + [ u o o p.u.5.o k.k.k.k.k.k.k.k.k.k.k.k.k.k.k.k.k.k.",
"k.k.k.k.k.k.k.k.k.k.k.k.k.k.k.k.k.k.k.k.o 0.o o o o o o 1 p V A Z Z p @ o o X X o o u.q.5.o k.k.k.k.k.k.k.k.k.k.k.k.k.k.k.k.k.k.",
"k.k.k.k.k.k.k.k.k.k.k.k.k.k.k.k.k.k.k.k.k.o X 7 u # X X X X X X o o o p D Z p X o o 5.&.o k.k.k.k.k.k.k.k.k.k.k.k.k.k.k.k.k.k.k.",
"k.k.k.k.k.k.k.k.k.k.k.k.k.k.k.k.k.k.k.k.k.k.o 4 v v v v n + X X o o o o o o o < ; o o o k.k.k.k.k.k.k.k.k.k.k.k.k.k.k.k.k.k.k.k.",
"k.k.k.k.k.k.k.k.k.k.k.k.k.k.k.k.k.k.k.k.k.k.o 4 d 5 k k v k k k v v N m v v 7 7 4 o k.k.k.k.k.k.k.k.k.k.k.k.k.k.k.k.k.k.k.k.k.k.",
"k.k.k.k.k.k.k.k.k.k.k.k.k.k.k.k.k.k.k.k.k.k.o 4 5 + d d d d d 7 - j 7 m 7 7 7 5 ; o k.k.k.k.k.k.k.k.k.k.k.k.k.k.k.k.k.k.k.k.k.k.",
"k.k.k.k.k.k.k.k.k.k.k.k.k.k.k.k.k.k.k.k.k.k.k.o X X o o o + o o o o o o o o o o o k.k.k.k.k.k.k.k.k.k.k.k.k.k.k.k.k.k.k.k.k.k.k.",
"k.k.k.k.k.k.k.k.k.k.k.k.k.k.k.k.k.k.k.k.k.k.k.k.o : o X o o o k.k.o H 0 H 0 o o k.k.k.k.k.k.k.k.k.k.k.k.k.k.k.k.k.k.k.k.k.k.k.k.",
"k.k.k.k.k.k.k.k.k.k.k.k.k.k.k.k.k.k.k.k.k.k.k.k.o o J H J R o k.k.o > > > > : o k.k.k.k.k.k.k.k.k.k.k.k.k.k.k.k.k.k.k.k.k.k.k.k.",
"k.k.k.k.k.k.k.k.k.k.k.k.k.k.k.k.k.k.k.k.k.k.k.k.o > > > > > = o k.o o o o o o o k.k.k.k.k.k.k.k.k.k.k.k.k.k.k.k.k.k.k.k.k.k.k.k.",
"k.k.k.k.k.k.k.k.k.k.k.k.k.k.k.k.k.k.k.k.k.k.k.k.o o o o o o o k.k.k.k.k.k.k.k.k.k.k.k.k.k.k.k.k.k.k.k.k.k.k.k.k.k.k.k.k.k.k.k.k.",
"k.k.k.k.k.k.k.k.k.k.k.k.k.k.k.k.k.k.k.k.k.k.k.k.k.k.k.k.k.k.k.k.k.k.k.k.k.k.k.k.k.k.k.k.k.k.k.k.k.k.k.k.k.k.k.k.k.k.k.k.k.k.k.k.",
"k.k.k.k.k.k.k.k.k.k.k.k.k.k.k.k.k.k.k.k.k.k.k.k.k.k.k.k.k.k.k.k.k.k.k.k.k.k.k.k.k.k.k.k.k.k.k.k.k.k.k.k.k.k.k.k.k.k.k.k.k.k.k.k.",
"k.k.k.k.k.k.k.k.k.k.k.k.k.k.k.k.k.k.k.k.k.k.k.k.k.k.k.k.k.k.k.k.k.k.k.k.k.k.k.k.k.k.k.k.k.k.k.k.k.k.k.k.k.k.k.k.k.k.k.k.k.k.k.k."
};
