/* XPM */
static char *result[] = {
/* columns rows colors chars-per-pixel */
"64 64 136 2 ",
"   c #141312",
".  c #181715",
"X  c #1A1917",
"o  c #1B1A18",
"O  c #231717",
"+  c #221E1A",
"@  c #24231B",
"#  c #2B231E",
"$  c #29291E",
"%  c #342017",
"&  c #3B261C",
"*  c #3F281C",
"=  c #1F1F20",
"-  c #212124",
";  c #2D2D22",
":  c #242529",
">  c #27282E",
",  c #2E2E2E",
"<  c #3C2C24",
"1  c #213122",
"2  c #203C27",
"3  c #213F28",
"4  c #313120",
"5  c #3A3A26",
"6  c #3D3D28",
"7  c #2E2F37",
"8  c #353534",
"9  c #32333C",
"0  c #393939",
"q  c #462B1F",
"w  c #472E20",
"e  c #4B2E21",
"r  c #4D3123",
"t  c #4C3529",
"y  c #4F382C",
"u  c #543525",
"i  c #533A2E",
"p  c #5E3D2B",
"a  c #433B32",
"s  c #5B3C30",
"d  c #623F2D",
"f  c #23442B",
"g  c #264B2F",
"h  c #2A5433",
"j  c #2C5936",
"k  c #43442C",
"l  c #48482F",
"z  c #5B5727",
"x  c #454731",
"c  c #4A4136",
"v  c #474931",
"b  c #4B4C31",
"n  c #40403E",
"m  c #484039",
"M  c #5B4030",
"N  c #50463B",
"B  c #4F5036",
"V  c #505236",
"C  c #535639",
"Z  c #55583A",
"A  c #595C3E",
"S  c #65412D",
"D  c #6E4731",
"F  c #6F4C39",
"G  c #744D3A",
"H  c #7B742C",
"J  c #666433",
"K  c #383A44",
"L  c #367046",
"P  c #3D7C51",
"I  c #424242",
"U  c #4E4E4E",
"Y  c #5C5E40",
"T  c #5F5E48",
"R  c #454754",
"E  c #535353",
"W  c #675A4D",
"Q  c #6B5D4D",
"!  c #7C5945",
"~  c #5E6042",
"^  c #626544",
"/  c #6B6D4A",
"(  c #6D704C",
")  c #71734F",
"_  c #737550",
"`  c #767853",
"'  c #797B55",
"]  c #815540",
"[  c #8E5E47",
"{  c #835F4B",
"}  c #86735D",
"|  c #8E7D6E",
" . c #997C64",
".. c #968D33",
"X. c #C0B439",
"o. c #DBCC3B",
"O. c #86865F",
"+. c #8C8C64",
"@. c #9D836A",
"#. c #94946B",
"$. c #99986F",
"%. c #9D9D73",
"&. c #A3876D",
"*. c #A48A70",
"=. c #AF8D72",
"-. c #AD9377",
";. c #A09F76",
":. c #AC9278",
">. c #B59377",
",. c #B3977A",
"<. c #B39A7C",
"1. c #A3A278",
"2. c #E9DC68",
"3. c gray53",
"4. c #B39A81",
"5. c #C5A282",
"6. c #CCA585",
"7. c #C7A989",
"8. c #D1AB8A",
"9. c #D1B08F",
"0. c #DBB996",
"q. c #E0B996",
"w. c #E2BE9B",
"e. c #E3C19C",
"r. c #E9C39E",
"t. c #EFCAA3",
"y. c #EFCDAB",
"u. c #EFD0B6",
"i. c #F3D6BF",
"p. c #BFBFC1",
"a. c #C0C0C2",
"s. c #CECECE",
"d. c #D2D2D2",
"f. c #F9DFCD",
"g. c #E2E2E3",
"h. c None",
/* pixels */
"h.h.h.h.h.h.h.h.h.h.h.h.h.h.h.h.h.h.h.h.h.h.h.h.h.h.h.h.h.h.h.h.h.h.h.h.h.h.h.h.h.h.h.h.h.h.h.h.h.h.h.h.h.h.h.h.h.h.h.h.h.h.h.h.",
"h.h.h.h.h.h.h.h.h.h.h.h.h.h.h.h.h.h.h.h.h.h.h.h.h.h.h.h.h.h.h.h.h.h.h.h.h.h.h.h.h.h.h.h.h.h.h.h.h.h.h.h.h.h.h.h.h.h.h.h.h.h.h.h.",
"h.h.h.h.h.h.h.h.h.h.h.h.h.h.h.h.h.h.h.h.h.h.h.h.h.h.h.h.h.h.h.h.h.h.h.h.h.h.h.h.h.h.h.h.h.h.h.h.h.h.h.h.h.h.h.h.h.h.h.h.h.h.h.h.",
"h.h.h.h.h.h.h.h.h.h.h.h.h.h.h.h.h.h.h.h.h.h.h.h.h.h.h.h.h.h.h.h.h.h.h.h.h.h.h.h.h.h.h.h.h.h.h.h.h.h.h.h.h.h.h.h.h.h.h.h.h.h.h.h.",
"h.h.h.h.h.h.h.h.h.h.h.h.h.h.h.h.h.h.h.h.h.h.h.h.h.h.h.h.h.h.h.h.h.h.h.h.h.h.h.h.h.h.h.h.h.h.h.h.h.h.h.h.h.h.h.h.h.h.h.h.h.h.h.h.",
"h.h.h.h.h.h.h.h.h.h.h.h.h.h.h.h.h.h.h.h.h.h.h.h.h.h.h.h.h.h.h.h.h.h.h.h.h.h.h.h.h.h.h.h.h.h.h.h.h.h.h.h.h.h.h.h.h.h.h.h.h.h.h.h.",
"h.h.h.h.h.h.h.h.h.h.h.h.h.h.h.h.h.h.h.h.h.h.h.h.h.h.h.o o o o X o o o o o h.h.h.h.h.h.h.h.h.h.h.h.h.h.h.h.h.h.h.h.h.h.h.h.h.h.h.",
"h.h.h.h.h.h.h.h.h.h.h.h.h.h.h.h.h.h.h.h.h.h.h.h.o o o T 1.1.#.+.1.1.%.#.T o o o h.h.h.h.h.h.h.h.h.h.h.h.h.h.h.h.h.h.h.h.h.h.h.h.",
"h.h.h.h.h.h.h.h.h.h.h.h.h.h.h.h.h.h.h.h.h.h.o o 1.#.+.1.1.1.;.%.%.%.1.1.1.1.1.1.o X h.h.h.h.h.h.h.h.h.h.h.h.h.h.h.h.h.h.h.h.h.h.",
"h.h.h.h.h.h.h.h.h.h.h.h.h.h.h.h.h.h.h.h.o o 1.+._ _ +._ _ O.+.+.+.+.+.+.+./ +.+.%.1.o o h.h.h.h.h.h.h.h.h.h.h.h.h.h.h.h.h.h.h.h.",
"h.h.h.h.h.h.h.h.h.h.h.h.h.h.h.h.h.h.h.o 1.+.` +.+.' _ Z _ _ _ _ Z Z Z Z ^ _ ^ _ +.+.+.1.o h.h.h.h.h.h.h.h.h.h.h.h.h.h.h.h.h.h.h.",
"h.h.h.h.h.h.h.h.h.h.h.h.h.h.h.h.h.o o +.+.+.+.) _ _ _ _ ~ ~ ~ Y ~ ~ ~ ~ ~ ~ A B _ Z _ _ #.o o h.h.h.h.h.h.h.h.h.h.h.h.h.h.h.h.h.",
"h.h.h.h.h.h.h.h.h.h.h.h.h.h.h.h.o o +.+.) _ ) ( Z A ^ Y Y ~ ~ Y b x b Z Z Z _ ~ ~ Z 4 _ _ +.o o h.h.h.h.h.h.h.h.h.h.h.h.h.h.h.h.",
"h.h.h.h.h.h.h.h.h.h.h.h.h.h.h.o o +._ _ 4 Z ~ ~ ^ $ W Y Z V V Z Z Z Z Z V V V ~ Z A ~ Y Z _ _ o o h.h.h.h.h.h.h.h.h.h.h.h.h.h.h.",
"h.h.h.h.h.h.h.h.h.h.h.h.h.h.h.o +._ ) _ A ~ < Z Z z C Z V b b b b b Z Z Z Z Z Z Z Z b ~ / Y _ _ o h.h.h.h.h.h.h.h.h.h.h.h.h.h.h.",
"h.h.h.h.h.h.h.h.h.h.h.h.h.h.o _ _ _ Y Y 4 V V Z b b l f V b b b b b b b b k Z Z Z Z Z Z 5 Z ~ _ _ o h.h.h.h.h.h.h.h.h.h.h.h.h.h.",
"h.h.h.h.h.h.h.h.h.h.h.h.h.h.o ) _ ~ 4 V Z b Z Z b 6 b b 4 b 2.l k k 2.b l k k b b 4 b Z Z V Y Y Z o h.h.h.h.h.h.h.h.h.h.h.h.h.h.",
"h.h.h.h.h.h.h.h.h.h.h.h.h.o Z 4 5 V Z Z 5 l 6 6 4 6 H 4 4 4 4 @ @ 4 4 4 $ 4 o.b k b b 6 Z Z Z Z Z b o h.h.h.h.h.h.h.h.h.h.h.h.h.",
"h.h.h.h.h.h.h.h.h.h.h.h.h.o Z Z Z b b l 4 4 z 4 o o O O o o o a a X o o o o o o 4 6 ..b V b Z Z b Z o h.h.h.h.h.h.h.h.h.h.h.h.h.",
"h.h.h.h.h.h.h.h.h.h.h.h.o b Z Z C 4 k J 4 o o o c @.<.>.,.,.9.t.t.9.,.,.<.,.,.a o o o 6 6 o.4 b b b 6 o h.h.h.h.h.h.h.h.h.h.h.h.",
"h.h.h.h.h.h.h.h.h.h.h.h.X k $ b 4 5 6 o X   } } >.t.t.t.t.t.t.t.t.t.t.t.t.t.t.t.,.}   o X 6 b b 6 b 6 o h.h.h.h.h.h.h.h.h.h.h.h.",
"h.h.h.h.h.h.h.h.h.h.h.h.o k o.4 X.6 o o   4.,.t.t.t.t.t.t.t.t.w.t.t.r.t.t.t.t.t.t.<.<.  O o x 6 6 ; 4 o h.h.h.h.h.h.h.h.h.h.h.h.",
"h.h.h.h.h.h.h.h.h.h.h.h.o 6 5 6 6 4 o   <.,.t.t.t.t.t.t.t.t.t.t.t.t.t.t.t.t.t.t.t.t.<.W   o ; ; 4 4 4 X h.h.h.h.h.h.h.h.h.h.h.h.",
"h.h.h.h.h.h.h.h.h.h.h.h.o o @ @ o o % o 4.t.t.t.t.t.t.t.t.t.t.t.t.t.t.t.t.t.t.t.t.t.0.&.. q o . @ @ X o h.h.h.h.h.h.h.h.h.h.h.h.",
"h.h.h.h.h.h.h.h.h.h.h.h.h.  o o u q & X y.y.t.t.t.t.t.t.t.t.t.t.t.t.t.t.t.t.t.t.t.y.t.4.X w w w o o   h.h.h.h.h.h.h.h.h.h.h.h.h.",
"h.h.h.h.h.h.h.h.h.h.h.h.h.o u * p p p X y.t.t.t.t.t.t.t.t.t.t.t.t.t.t.t.t.t.t.t.t.t.t.t.. w w u * q o h.h.h.h.h.h.h.h.h.h.h.h.h.",
"h.h.h.h.h.h.h.h.h.h.h.h.h.o e u u p o 4.y.t.t.t.t.t.t.t.t.w.t.t.t.t.t.t.t.t.t.t.t.t.t.t.o w w e u e o h.h.h.h.h.h.h.h.h.h.h.h.h.",
"h.h.h.h.h.h.h.h.h.h.h.h.h.o q q u q o 4.y.t.t.0.t.t.t.r.t.t.t.t.t.t.t.t.t.t.6.t.t.t.t.t.,.o w p u q o h.h.h.h.h.h.h.h.h.h.h.h.h.",
"h.h.h.h.h.h.h.h.h.h.h.h.h.o e q p o <.<.y.5.q t.t.t.6.t.t.6.t.t.t.t.w.t.t.t.t.t.t.e t.t.<.<.X r u q o h.h.h.h.h.h.h.h.h.h.h.h.h.",
"h.h.h.h.h.h.h.h.h.h.h.h.h.o q q u o <.y.w w q q q t.t.t.t.t.t.t.t.t.t.t.t.t.t.q e e w q <.<.o e u q o h.h.h.h.h.h.h.h.h.h.h.h.h.",
"h.h.h.h.h.h.h.h.h.h.h.h.h.h.o q q o 7.y.t.y.} :.t.M q t.t.t.6.t.t.t.t.t.t.q q t.6.} y.y.e <.o q u q o h.h.h.h.h.h.h.h.h.h.h.h.h.",
"h.h.h.h.h.h.h.h.h.h.h.h.h.h.o q q o t.t.o o g.h o o N =.q t.t.t.t.t.t.q q t.. . j g.h o t.t.o q q q o h.h.h.h.h.h.h.h.h.h.h.h.h.",
"h.h.h.h.h.h.h.h.h.h.h.h.h.h.X o o m t.y.o s.3 g O 3 o o t.t.t.t.6.t.t.t.O O j O 1 3 g.o t.0.@.X q X h.h.h.h.h.h.h.h.h.h.h.h.h.h.",
"h.h.h.h.h.h.h.h.h.h.h.h.h.h.X o o *.t.t.o s.f j - j 3 a O 6.t.t.t.t.t.w.O g.L 1 f f s.X y.0.@.  X   h.h.h.h.h.h.h.h.h.h.h.h.h.h.",
"h.h.h.h.h.h.h.h.h.h.h.h.h.h.o   X o 0.t.o s.g.h P 2 g.s.o t.t.t.t.t.t.O s.g.3 P j g.d.o t.t.o o   . h.h.h.h.h.h.h.h.h.h.h.h.h.h.",
"h.h.h.h.h.h.h.h.h.h.h.h.h.h.h.  o o o w.t.o a.s.g.g.s.o t.t.t.t.t.t.w.t.o s.g.g.d.d.o m t.o o o X h.h.h.h.h.h.h.h.h.h.h.h.h.h.h.",
"h.h.h.h.h.h.h.h.h.h.h.h.h.h.h.h.o u M X t.a o a.p.3.o t.t.t.t.t.t.t.t.t.t.o o a.a.o o e.o p q o h.h.h.h.h.h.h.h.h.h.h.h.h.h.h.h.",
"h.h.h.h.h.h.h.h.h.h.h.h.h.h.h.h.o o { d o o y.^ o >.t.t.t.t.t.t.| t.t.t.t.y.t.o o t.o o D u o h.h.h.h.h.h.h.h.h.h.h.h.h.h.h.h.h.",
"h.h.h.h.h.h.h.h.h.h.h.h.h.h.h.h.h.o & u M u o o o t.y.y.o o X X . . X o X X o o o o { { u o o h.h.h.h.h.h.h.h.h.h.h.h.h.h.h.h.h.",
"h.h.h.h.h.h.h.h.h.h.h.h.h.h.h.h.h.h.X q w { u u { o o o d { { d D D D D { p { S D D p r w o h.h.h.h.h.h.h.h.h.h.h.h.h.h.h.h.h.h.",
"h.h.h.h.h.h.h.h.h.h.h.h.h.h.h.h.h.h.o o q u p p { { d D d q q X X r D M p D ! F u u e q o o h.h.h.h.h.h.h.h.h.h.h.h.h.h.h.h.h.h.",
"h.h.h.h.h.h.h.h.h.h.h.h.h.h.h.h.h.h.h.o o o + q q D u u p D d { D p p G D p p u e q o X h.h.h.h.h.h.h.h.h.h.h.h.h.h.h.h.h.h.h.h.",
"h.h.h.h.h.h.h.h.h.h.h.h.h.h.h.h.h.h.h.h.o o X o o q o q q u u e u u u q q q w o o o o h.h.h.h.h.h.h.h.h.h.h.h.h.h.h.h.h.h.h.h.h.",
"h.h.h.h.h.h.h.h.h.h.h.h.h.h.h.h.h.h.h.h.h.h.o b o o o o q q u q q q q q o o o o A o h.h.h.h.h.h.h.h.h.h.h.h.h.h.h.h.h.h.h.h.h.h.",
"h.h.h.h.h.h.h.h.h.h.h.h.h.h.h.h.h.h.h.h.h.X o / o o I o o o o o q X u o o 8 o o / v o h.h.h.h.h.h.h.h.h.h.h.h.h.h.h.h.h.h.h.h.h.",
"h.h.h.h.h.h.h.h.h.h.h.h.h.h.h.h.h.h.h.h.h.o B o - o 0 I U I E o X U X n I , o 4 o Z o X h.h.h.h.h.h.h.h.h.h.h.h.h.h.h.h.h.h.h.h.",
"h.h.h.h.h.h.h.h.h.h.h.h.h.h.h.h.h.h.h.h.o $ C o b b O , h I I X o n I 0 , X Z b o C b o h.h.h.h.h.h.h.h.h.h.h.h.h.h.h.h.h.h.h.h.",
"h.h.h.h.h.h.h.h.h.h.h.h.h.h.h.h.h.h.h.h.o o o o b b Z O O K 8 o o 0 8 X X Z C Z o b X o o h.h.h.h.h.h.h.h.h.h.h.h.h.h.h.h.h.h.h.",
"h.h.h.h.h.h.h.h.h.h.h.h.h.h.h.h.h.h.h.o i.f.u.o + b Z Z o o o b B o o o Z Z b o o o u.r.9.o h.h.h.h.h.h.h.h.h.h.h.h.h.h.h.h.h.h.",
"h.h.h.h.h.h.h.h.h.h.h.h.h.h.h.h.h.h.h.o t.u.| o < o o o 4 o C C B B o ; o o o y < m u.t.6.o h.h.h.h.h.h.h.h.h.h.h.h.h.h.h.h.h.h.",
"h.h.h.h.h.h.h.h.h.h.h.h.h.h.h.h.h.h.h.o 0.t.X o o + ] [ t o X X o o o i G s o o X X t.t.6.X h.h.h.h.h.h.h.h.h.h.h.h.h.h.h.h.h.h.",
"h.h.h.h.h.h.h.h.h.h.h.h.h.h.h.h.h.h.h.h.X 8.o 6 o o o o X X X X o o o o o o @ G o X 0.6.o h.h.h.h.h.h.h.h.h.h.h.h.h.h.h.h.h.h.h.",
"h.h.h.h.h.h.h.h.h.h.h.h.h.h.h.h.h.h.h.h.h.o X 6 b b b o o o X + + ; # + X X o o o o o o h.h.h.h.h.h.h.h.h.h.h.h.h.h.h.h.h.h.h.h.",
"h.h.h.h.h.h.h.h.h.h.h.h.h.h.h.h.h.h.h.h.h.h.o 4 k 6 b b b Z Z C x 6 5 c C b b 6 4 X h.h.h.h.h.h.h.h.h.h.h.h.h.h.h.h.h.h.h.h.h.h.",
"h.h.h.h.h.h.h.h.h.h.h.h.h.h.h.h.h.h.h.h.h.h.o 4 $ 6 6 l b l b l 6 6 b 6 5 6 b 6 4 o h.h.h.h.h.h.h.h.h.h.h.h.h.h.h.h.h.h.h.h.h.h.",
"h.h.h.h.h.h.h.h.h.h.h.h.h.h.h.h.h.h.h.h.h.h.o o + o o 6 a k g r o + 6 6 @ $ X o o o h.h.h.h.h.h.h.h.h.h.h.h.h.h.h.h.h.h.h.h.h.h.",
"h.h.h.h.h.h.h.h.h.h.h.h.h.h.h.h.h.h.h.h.h.h.h.h.o > o o o o o o o X o o o o o o h.h.h.h.h.h.h.h.h.h.h.h.h.h.h.h.h.h.h.h.h.h.h.h.",
"h.h.h.h.h.h.h.h.h.h.h.h.h.h.h.h.h.h.h.h.h.h.h.h.o o R R R o o h.h.o K 9 9 7 o o h.h.h.h.h.h.h.h.h.h.h.h.h.h.h.h.h.h.h.h.h.h.h.h.",
"h.h.h.h.h.h.h.h.h.h.h.h.h.h.h.h.h.h.h.h.h.h.h.h.o > 7 7 7 7 o h.h.o : : : - - o h.h.h.h.h.h.h.h.h.h.h.h.h.h.h.h.h.h.h.h.h.h.h.h.",
"h.h.h.h.h.h.h.h.h.h.h.h.h.h.h.h.h.h.h.h.h.h.h.h.o o o o o o o o h.o o o o o o h.h.h.h.h.h.h.h.h.h.h.h.h.h.h.h.h.h.h.h.h.h.h.h.h.",
"h.h.h.h.h.h.h.h.h.h.h.h.h.h.h.h.h.h.h.h.h.h.h.h.h.h.h.h.h.h.h.h.h.h.h.h.h.h.h.h.h.h.h.h.h.h.h.h.h.h.h.h.h.h.h.h.h.h.h.h.h.h.h.h.",
"h.h.h.h.h.h.h.h.h.h.h.h.h.h.h.h.h.h.h.h.h.h.h.h.h.h.h.h.h.h.h.h.h.h.h.h.h.h.h.h.h.h.h.h.h.h.h.h.h.h.h.h.h.h.h.h.h.h.h.h.h.h.h.h.",
"h.h.h.h.h.h.h.h.h.h.h.h.h.h.h.h.h.h.h.h.h.h.h.h.h.h.h.h.h.h.h.h.h.h.h.h.h.h.h.h.h.h.h.h.h.h.h.h.h.h.h.h.h.h.h.h.h.h.h.h.h.h.h.h.",
"h.h.h.h.h.h.h.h.h.h.h.h.h.h.h.h.h.h.h.h.h.h.h.h.h.h.h.h.h.h.h.h.h.h.h.h.h.h.h.h.h.h.h.h.h.h.h.h.h.h.h.h.h.h.h.h.h.h.h.h.h.h.h.h."
};
