/* XPM */
static char *result[] = {
/* columns rows colors chars-per-pixel */
"64 64 125 2 ",
"   c #141312",
".  c #1E1414",
"X  c #1A1917",
"o  c #1B1A18",
"O  c #251E1A",
"+  c #25241E",
"@  c #2D241E",
"#  c #222A1F",
"$  c #2A2A1E",
"%  c #342017",
"&  c #32251D",
"*  c #3C261B",
"=  c #3F281C",
"-  c #222324",
";  c #2C2926",
":  c #242529",
">  c #2D2D2D",
",  c #3B2B23",
"<  c #213423",
"1  c #203D27",
"2  c #303120",
"3  c #373825",
"4  c #3A3A26",
"5  c #37362A",
"6  c #3A332C",
"7  c #3D3D28",
"8  c #2E2F37",
"9  c #343434",
"0  c #32343D",
"q  c #3A3A3A",
"w  c #462B1F",
"e  c #472E20",
"r  c #4A2E21",
"t  c #453024",
"y  c #4D3123",
"u  c #493229",
"i  c #543525",
"p  c #583827",
"a  c #53362B",
"s  c #5E3D2B",
"d  c #433C35",
"f  c #5E3E31",
"g  c #23442B",
"h  c #2B5634",
"j  c #2C5A37",
"k  c #2D5B38",
"l  c #31653E",
"z  c #43432C",
"x  c #47492F",
"c  c #48492F",
"v  c #4B4C31",
"b  c #4F5136",
"n  c #515237",
"m  c #545639",
"M  c #55583A",
"N  c #595C3E",
"B  c #66412E",
"V  c #644234",
"C  c #6E4731",
"Z  c #6C4838",
"A  c #704A35",
"S  c #744E3A",
"D  c #7C523F",
"F  c #383A44",
"G  c #3A764C",
"H  c #3D7C51",
"J  c #434343",
"K  c #5C5E41",
"L  c #454754",
"P  c #605042",
"I  c #7C5843",
"U  c #5E6042",
"Y  c #57745E",
"T  c #646646",
"R  c #666846",
"E  c #6C6E4B",
"W  c #71734F",
"Q  c #796755",
"!  c #737550",
"~  c #7B7E54",
"^  c #7B7A5A",
"/  c #6D6D6D",
"(  c #815540",
")  c #8E5E47",
"_  c #835F4B",
"`  c #86725D",
"'  c #867361",
"]  c #997C64",
"[  c #708C77",
"{  c #DBCC3B",
"}  c #83835D",
"|  c #8C8C64",
" . c #929269",
".. c #98976E",
"X. c #99986F",
"o. c #9D9C73",
"O. c #A48A70",
"+. c #AD9175",
"@. c #B3977A",
"#. c #B39A7C",
"$. c #A3A278",
"%. c #AB998D",
"&. c #B39A81",
"*. c #9BA89E",
"=. c #BEA484",
"-. c #CCA585",
";. c #D4B392",
":. c #DCB794",
">. c #DBB895",
",. c #DCBD98",
"<. c #E4BF9B",
"1. c #E2C29C",
"2. c #F7EB94",
"3. c #DDC1A8",
"4. c #EFCAA3",
"5. c #EFCDAC",
"6. c #EFD0B6",
"7. c #BFBFC1",
"8. c #C3C3C4",
"9. c #C7C7C8",
"0. c #CDCDCD",
"q. c #D5D5D5",
"w. c #F9DFCD",
"e. c #E2E2E3",
"r. c None",
/* pixels */
"r.r.r.r.r.r.r.r.r.r.r.r.r.r.r.r.r.r.r.r.r.r.r.r.r.r.r.r.r.r.r.r.r.r.r.r.r.r.r.r.r.r.r.r.r.r.r.r.r.r.r.r.r.r.r.r.r.r.r.r.r.r.r.r.",
"r.r.r.r.r.r.r.r.r.r.r.r.r.r.r.r.r.r.r.r.r.r.r.r.r.r.r.r.r.r.r.r.r.r.r.r.r.r.r.r.r.r.r.r.r.r.r.r.r.r.r.r.r.r.r.r.r.r.r.r.r.r.r.r.",
"r.r.r.r.r.r.r.r.r.r.r.r.r.r.r.r.r.r.r.r.r.r.r.r.r.r.r.r.r.r.r.r.r.r.r.r.r.r.r.r.r.r.r.r.r.r.r.r.r.r.r.r.r.r.r.r.r.r.r.r.r.r.r.r.",
"r.r.r.r.r.r.r.r.r.r.r.r.r.r.r.r.r.r.r.r.r.r.r.r.r.r.r.r.r.r.r.r.r.r.r.r.r.r.r.r.r.r.r.r.r.r.r.r.r.r.r.r.r.r.r.r.r.r.r.r.r.r.r.r.",
"r.r.r.r.r.r.r.r.r.r.r.r.r.r.r.r.r.r.r.r.r.r.r.r.r.r.r.r.r.r.r.r.r.r.r.r.r.r.r.r.r.r.r.r.r.r.r.r.r.r.r.r.r.r.r.r.r.r.r.r.r.r.r.r.",
"r.r.r.r.r.r.r.r.r.r.r.r.r.r.r.r.r.r.r.r.r.r.r.r.r.r.r.r.r.r.o o o o r.r.r.r.r.r.r.r.r.r.r.r.r.r.r.r.r.r.r.r.r.r.r.r.r.r.r.r.r.r.",
"r.r.r.r.r.r.r.r.r.r.r.r.r.r.r.r.r.r.r.r.r.r.r.r.r.o o o o o ^ $.$.^ o o o o o r.r.r.r.r.r.r.r.r.r.r.r.r.r.r.r.r.r.r.r.r.r.r.r.r.",
"r.r.r.r.r.r.r.r.r.r.r.r.r.r.r.r.r.r.r.r.r.r.X X o $.X.| | ..$.$.$.$... .$.$.$.o o o r.r.r.r.r.r.r.r.r.r.r.r.r.r.r.r.r.r.r.r.r.r.",
"r.r.r.r.r.r.r.r.r.r.r.r.r.r.r.r.r.r.r.r.r.o X .. .$.! | | } } | ! ! ! ! [ | | o.$.. . r.r.r.r.r.r.r.r.r.r.r.r.r.r.r.r.r.r.r.r.r.",
"r.r.r.r.r.r.r.r.r.r.r.r.r.r.r.r.r.r.r.o X  .} } | } | ! M M W W ! ! ! ! ! ! } | R | X.O o r.r.r.r.r.r.r.r.r.r.r.r.r.r.r.r.r.r.r.",
"r.r.r.r.r.r.r.r.r.r.r.r.r.r.r.r.r.r.O $.W | | ~ K ! W ! ! ! W N U U K U M 2 M W R ! } } $.o r.r.r.r.r.r.r.r.r.r.r.r.r.r.r.r.r.r.",
"r.r.r.r.r.r.r.r.r.r.r.r.r.r.r.r.r.o } | N W W ! N U M M U U U N M m E ! E N U T N T ! ! ! | o r.r.r.r.r.r.r.r.r.r.r.r.r.r.r.r.r.",
"r.r.r.r.r.r.r.r.r.r.r.r.r.r.r.r.O | | ! ! N N U U U N 2 U N M M m N N U U b c M M U U M U M } + r.r.r.r.r.r.r.r.r.r.r.r.r.r.r.r.",
"r.r.r.r.r.r.r.r.r.r.r.r.r.r.r.o | | ! ! U U M M M M n n M M M M m m M M M M M U n z U U U M W W o r.r.r.r.r.r.r.r.r.r.r.r.r.r.r.",
"r.r.r.r.r.r.r.r.r.r.r.r.r.r.o 5 } ! R m U n M m M v m M M 4 2 2 2 2 2 ; M N M c M M M 2 M U K M 5 o r.r.r.r.r.r.r.r.r.r.r.r.r.r.",
"r.r.r.r.r.r.r.r.r.r.r.r.r.r.o ! ! M N n n M v M M M g t 4 z 2.c v c { 7 z c c x 2 M M M U U M M M o r.r.r.r.r.r.r.r.r.r.r.r.r.r.",
"r.r.r.r.r.r.r.r.r.r.r.r.r.o m M U z n v v m v 4 2 7 { 7 4 z 4 d 7 c c c g z 2.c c c v n M M M 3 3 v X r.r.r.r.r.r.r.r.r.r.r.r.r.",
"r.r.r.r.r.r.r.r.r.r.r.r.r.o M N n M m v 7 4 { 2 & , o o o X o o X . O O O o 2 2 2 z v c v M M M M m o r.r.r.r.r.r.r.r.r.r.r.r.r.",
"r.r.r.r.r.r.r.r.r.r.r.r.o 7 M M b v v 7 2 2 o o . O @.@.@.@.@.@.@.@.@.@.] @.o o o o 4 & v v c v M v 2 o r.r.r.r.r.r.r.r.r.r.r.r.",
"r.r.r.r.r.r.r.r.r.r.r.r.o v M m v x c 2 X X ` ` ` @.4.4.4.4.4.4.4.4.4.4.4.4.#.#.` ` O O g { b c v 7 7 o r.r.r.r.r.r.r.r.r.r.r.r.",
"r.r.r.r.r.r.r.r.r.r.r.r.X 7 { v 2.z $ o   ' #.4.4.4.4.4.4.4.4.4.4.4.4.4.4.4.4.4.5.#.    o $ x 4 7 2 4 o r.r.r.r.r.r.r.r.r.r.r.r.",
"r.r.r.r.r.r.r.r.r.r.r.r.X 7 7 4 c 2 X   &.#.4.4.4.4.4.4.4.4.4.4.4.4.4.4.4.4.4.4.4.@.#.o = o 2 3 2 2 2 o r.r.r.r.r.r.r.r.r.r.r.r.",
"r.r.r.r.r.r.r.r.r.r.r.r.o o 4 3 $ o o X &.,.4.4.4.4.4.4.4.4.4.4.4.4.4.4.4.4.4.4.4.4.#.#.o o o 2 2 2 X o r.r.r.r.r.r.r.r.r.r.r.r.",
"r.r.r.r.r.r.r.r.r.r.r.r.r.o X X X w % o &.4.4.4.4.4.4.4.4.4.4.4.4.4.4.4.4.4.4.4.4.5.4.#.o = t o o o o r.r.r.r.r.r.r.r.r.r.r.r.r.",
"r.r.r.r.r.r.r.r.r.r.r.r.r.o w w w y s X 5.4.4.4.4.4.4.4.4.4.4.4.4.4.4.4.4.4.4.4.4.5.4.-.X i i = w * o r.r.r.r.r.r.r.r.r.r.r.r.r.",
"r.r.r.r.r.r.r.r.r.r.r.r.r.o r i B s X + 5.4.4.4.4.4.4.4.4.4.4.<.4.4.4.-.4.4.4.4.4.4.4.4.X e = B i w o r.r.r.r.r.r.r.r.r.r.r.r.r.",
"r.r.r.r.r.r.r.r.r.r.r.r.r.o w w i w o &.5.4.4.4.4.4.4.4.4.4.4.4.4.4.4.4.4.4.4.4.4.4.4.4.2 X w i i w o r.r.r.r.r.r.r.r.r.r.r.r.r.",
"r.r.r.r.r.r.r.r.r.r.r.r.r.o w w s o #.&.5.4.4.4.4.4.1.4.4.4.4.4.4.4.4.4.<.4.4.4.4.4.4.4.#.X X y i w o r.r.r.r.r.r.r.r.r.r.r.r.r.",
"r.r.r.r.r.r.r.r.r.r.r.r.r.o w r p o #.5.t e w w w 4.4.4.4.4.4.4.4.4.4.4.4.4.4.w w w w w #.#.o r i w X r.r.r.r.r.r.r.r.r.r.r.r.r.",
"r.r.r.r.r.r.r.r.r.r.r.r.r.o & w w o #.5.e 4.4.4.i w w 4.4.4.<.4.4.1.4.4.4.<.w w 4.4.5.+.4.#.o w i w o r.r.r.r.r.r.r.r.r.r.r.r.r.",
"r.r.r.r.r.r.r.r.r.r.r.r.r.r.o w w o 4.4.o o o o o o 4.w 4.4.4.4.4.4.-.4.w 4.O . X X o o 5.4.o w i w o r.r.r.r.r.r.r.r.r.r.r.r.r.",
"r.r.r.r.r.r.r.r.r.r.r.r.r.r.o w r o 4.4.o q.[ k 1 j X 4.4.4.4.4.4.4.4.4.4.X h + h g e.o 4.,.Q o w o o r.r.r.r.r.r.r.r.r.r.r.r.r.",
"r.r.r.r.r.r.r.r.r.r.r.r.r.r.o o o O.4.4.o 0.g g O 1 1 X 4.4.4.4.4.<.4.4.. *.l . < 1 0.o 4.>.] o o o r.r.r.r.r.r.r.r.r.r.r.r.r.r.",
"r.r.r.r.r.r.r.r.r.r.r.r.r.r.o ]   O.,.5.o 9.e.H g G e.e.+ 4.4.4.4.4.4.. e.e.j h H Y 0.o 5.4.|   ]   r.r.r.r.r.r.r.r.r.r.r.r.r.r.",
"r.r.r.r.r.r.r.r.r.r.r.r.r.r.r.  o o 6 5.d x q.e.e.e.e.X ;.4.4.4.4.4.4.4.o 0.e.e.e.e.7.o 4.+.o o   r.r.r.r.r.r.r.r.r.r.r.r.r.r.r.",
"r.r.r.r.r.r.r.r.r.r.r.r.r.r.r.r.o A o o 5.o / 8.0.9.X X 4.4.1.4.4.4.4.-.o o 8.0.7.7.o 4.o o Z o r.r.r.r.r.r.r.r.r.r.r.r.r.r.r.r.",
"r.r.r.r.r.r.r.r.r.r.r.r.r.r.r.r.o w _ & o 4.o o o o ;.4.4.4.4.5.4.5.4.4.4.4.o o o o ` o & s o r.r.r.r.r.r.r.r.r.r.r.r.r.r.r.r.r.",
"r.r.r.r.r.r.r.r.r.r.r.r.r.r.r.r.r.o r A D o o 1.4.4.5.5.4.4.o o X X X ` 4.4.4.4.o o o _ i O o r.r.r.r.r.r.r.r.r.r.r.r.r.r.r.r.r.",
"r.r.r.r.r.r.r.r.r.r.r.r.r.r.r.r.r.r.o i y i _ o o o o o X X A S C _ C O o o o o _ C s s e o r.r.r.r.r.r.r.r.r.r.r.r.r.r.r.r.r.r.",
"r.r.r.r.r.r.r.r.r.r.r.r.r.r.r.r.r.r.o o w i s s _ C C C B B @ s B t B s s C s B C i i w o o r.r.r.r.r.r.r.r.r.r.r.r.r.r.r.r.r.r.",
"r.r.r.r.r.r.r.r.r.r.r.r.r.r.r.r.r.r.r.o w w w w y p i s s B _ C p B p Q _ B s i e e e . o r.r.r.r.r.r.r.r.r.r.r.r.r.r.r.r.r.r.r.",
"r.r.r.r.r.r.r.r.r.r.r.r.r.r.r.r.r.r.r.r.o o X y X y w i i s i i i i i i e y s e . o o r.r.r.r.r.r.r.r.r.r.r.r.r.r.r.r.r.r.r.r.r.",
"r.r.r.r.r.r.r.r.r.r.r.r.r.r.r.r.r.r.r.r.r.r.X o o @ o X w w i w s i i w e e o o o o r.r.r.r.r.r.r.r.r.r.r.r.r.r.r.r.r.r.r.r.r.r.",
"r.r.r.r.r.r.r.r.r.r.r.r.r.r.r.r.r.r.r.r.r.r.. [ o o J o o o o o w X w X o o o o E o o r.r.r.r.r.r.r.r.r.r.r.r.r.r.r.r.r.r.r.r.r.",
"r.r.r.r.r.r.r.r.r.r.r.r.r.r.r.r.r.r.r.r.r.o n N o o q J o o ; o X X X J J q o o z M o r.r.r.r.r.r.r.r.r.r.r.r.r.r.r.r.r.r.r.r.r.",
"r.r.r.r.r.r.r.r.r.r.r.r.r.r.r.r.r.r.r.r.X o m X x o o q J J J o o z J J q o o v o M x o r.r.r.r.r.r.r.r.r.r.r.r.r.r.r.r.r.r.r.r.",
"r.r.r.r.r.r.r.r.r.r.r.r.r.r.r.r.r.r.r.r.o o n X v v o o J J J o o J 0 9 o o M m o b - o X r.r.r.r.r.r.r.r.r.r.r.r.r.r.r.r.r.r.r.",
"r.r.r.r.r.r.r.r.r.r.r.r.r.r.r.r.r.r.r.o w.d o X v v m b o 9 : o o - > o b M v M o o + >.o o r.r.r.r.r.r.r.r.r.r.r.r.r.r.r.r.r.r.",
"r.r.r.r.r.r.r.r.r.r.r.r.r.r.r.r.r.r.r.o 6.6.3.o o X M M U X X b m o X m M b o o o %.6.4.-.o r.r.r.r.r.r.r.r.r.r.r.r.r.r.r.r.r.r.",
"r.r.r.r.r.r.r.r.r.r.r.r.r.r.r.r.r.r.r.o 4.4.6 o V ( X X X X X o o o X X X o ) a o X 6.4.-.o r.r.r.r.r.r.r.r.r.r.r.r.r.r.r.r.r.r.",
"r.r.r.r.r.r.r.r.r.r.r.r.r.r.r.r.r.r.r.o >.4.X o o o X o u B B A S Z V , o o o o o o <.-.o r.r.r.r.r.r.r.r.r.r.r.r.r.r.r.r.r.r.r.",
"r.r.r.r.r.r.r.r.r.r.r.r.r.r.r.r.r.r.r.r.o o X 7 7 o o o o o o o o o o $ D Z p % o o P o o r.r.r.r.r.r.r.r.r.r.r.r.r.r.r.r.r.r.r.",
"r.r.r.r.r.r.r.r.r.r.r.r.r.r.r.r.r.r.r.r.r.r.o ; v v v v v o o o o o o o o o o + 2 o r.r.r.r.r.r.r.r.r.r.r.r.r.r.r.r.r.r.r.r.r.r.",
"r.r.r.r.r.r.r.r.r.r.r.r.r.r.r.r.r.r.r.r.r.r.o 2 7 7 v v v v v c v v M m v v z 4 $ o r.r.r.r.r.r.r.r.r.r.r.r.r.r.r.r.r.r.r.r.r.r.",
"r.r.r.r.r.r.r.r.r.r.r.r.r.r.r.r.r.r.r.r.r.r.o 2 4 $ 7 7 d g i z 2 v 7 v g i 4 d 2 o r.r.r.r.r.r.r.r.r.r.r.r.r.r.r.r.r.r.r.r.r.r.",
"r.r.r.r.r.r.r.r.r.r.r.r.r.r.r.r.r.r.r.r.r.r.r.o X X o o X o o o o o o o o o o o o r.r.r.r.r.r.r.r.r.r.r.r.r.r.r.r.r.r.r.r.r.r.r.",
"r.r.r.r.r.r.r.r.r.r.r.r.r.r.r.r.r.r.r.r.r.r.r.r.o o o L o o o r.r.o o - L o o o r.r.r.r.r.r.r.r.r.r.r.r.r.r.r.r.r.r.r.r.r.r.r.r.",
"r.r.r.r.r.r.r.r.r.r.r.r.r.r.r.r.r.r.r.r.r.r.r.r.o o 8 0 8 F o r.r.o F 0 8 8 : o r.r.r.r.r.r.r.r.r.r.r.r.r.r.r.r.r.r.r.r.r.r.r.r.",
"r.r.r.r.r.r.r.r.r.r.r.r.r.r.r.r.r.r.r.r.r.r.r.r.o - - : : : - o r.o o o o o o o r.r.r.r.r.r.r.r.r.r.r.r.r.r.r.r.r.r.r.r.r.r.r.r.",
"r.r.r.r.r.r.r.r.r.r.r.r.r.r.r.r.r.r.r.r.r.r.r.r.o o o o o o o r.r.o r.r.r.r.r.r.r.r.r.r.r.r.r.r.r.r.r.r.r.r.r.r.r.r.r.r.r.r.r.r.",
"r.r.r.r.r.r.r.r.r.r.r.r.r.r.r.r.r.r.r.r.r.r.r.r.r.r.r.r.r.r.r.r.r.r.r.r.r.r.r.r.r.r.r.r.r.r.r.r.r.r.r.r.r.r.r.r.r.r.r.r.r.r.r.r.",
"r.r.r.r.r.r.r.r.r.r.r.r.r.r.r.r.r.r.r.r.r.r.r.r.r.r.r.r.r.r.r.r.r.r.r.r.r.r.r.r.r.r.r.r.r.r.r.r.r.r.r.r.r.r.r.r.r.r.r.r.r.r.r.r.",
"r.r.r.r.r.r.r.r.r.r.r.r.r.r.r.r.r.r.r.r.r.r.r.r.r.r.r.r.r.r.r.r.r.r.r.r.r.r.r.r.r.r.r.r.r.r.r.r.r.r.r.r.r.r.r.r.r.r.r.r.r.r.r.r.",
"r.r.r.r.r.r.r.r.r.r.r.r.r.r.r.r.r.r.r.r.r.r.r.r.r.r.r.r.r.r.r.r.r.r.r.r.r.r.r.r.r.r.r.r.r.r.r.r.r.r.r.r.r.r.r.r.r.r.r.r.r.r.r.r."
};
