/* XPM */
static char *result[] = {
/* columns rows colors chars-per-pixel */
"64 64 135 2 ",
"   c #141312",
".  c #181715",
"X  c #1A1917",
"o  c #1B1A18",
"O  c #231717",
"+  c #211E1A",
"@  c #24231B",
"#  c #29291F",
"$  c #342017",
"%  c #3B261C",
"&  c #3F281C",
"*  c #1F2022",
"=  c #222225",
"-  c #2B2723",
";  c #242529",
":  c #27282E",
">  c #2B2A2A",
",  c #3A2B24",
"<  c #213122",
"1  c #203C27",
"2  c #213F28",
"3  c #313121",
"4  c #393A26",
"5  c #3D3D28",
"6  c #2E2F37",
"7  c #353534",
"8  c #3E3832",
"9  c #32343D",
"0  c #3A3A3A",
"q  c #462B1F",
"w  c #472E20",
"e  c #4B2E21",
"r  c #4D3123",
"t  c #4F3628",
"y  c #543525",
"u  c #50362C",
"i  c #50392D",
"p  c #5E3D2B",
"a  c #433B32",
"s  c #623F2D",
"d  c #23442B",
"f  c #264B2F",
"g  c #2A5433",
"h  c #2C5936",
"j  c #43432C",
"k  c #48492F",
"l  c #5B5727",
"z  c #4A4136",
"x  c #474831",
"c  c #4B4C31",
"v  c #40403E",
"b  c #5B4030",
"n  c #50463B",
"m  c #4F5036",
"M  c #505236",
"N  c #545639",
"B  c #55583A",
"V  c #595C3E",
"C  c #65412D",
"Z  c #654434",
"A  c #6D4731",
"S  c #6F4C39",
"D  c #734D3A",
"F  c #7D543F",
"G  c #7B742C",
"H  c #666433",
"J  c #393B45",
"K  c #367046",
"L  c #3D7C51",
"P  c #424242",
"I  c gray30",
"U  c #5C5E40",
"Y  c #5F5E48",
"T  c #454754",
"R  c #535353",
"E  c #675A4D",
"W  c #6B5D4D",
"Q  c #7C5945",
"!  c #5E6042",
"~  c #626544",
"^  c #696C47",
"/  c #6B6D4A",
"(  c #6E714C",
")  c #71734F",
"_  c #737550",
"`  c #767853",
"'  c #797B55",
"]  c #8E5E47",
"[  c #835F4B",
"{  c #86735D",
"}  c #837365",
"|  c #997C64",
" . c #968D33",
".. c #C0B439",
"X. c #DBCC3B",
"o. c #86865F",
"O. c #8C8C64",
"+. c #9D836A",
"@. c #94946B",
"#. c #99986F",
"$. c #9D9D73",
"%. c #A3876D",
"&. c #A68C72",
"*. c #AF8D72",
"=. c #AD9377",
"-. c #A09F76",
";. c #AC9278",
":. c #B59377",
">. c #B3977A",
",. c #B39A7C",
"<. c #A3A278",
"1. c #E9DC68",
"2. c gray53",
"3. c #B39A81",
"4. c #C5A282",
"5. c #CCA585",
"6. c #C7A989",
"7. c #D0AA89",
"8. c #D1B08F",
"9. c #D8B492",
"0. c #DBB996",
"q. c #E0B996",
"w. c #E2BE9B",
"e. c #E4C19C",
"r. c #E8C39E",
"t. c #EFCAA3",
"y. c #EFCDAC",
"u. c #EFD0B6",
"i. c #BFBFC1",
"p. c #C0C0C2",
"a. c #CECECE",
"s. c #D2D2D2",
"d. c #F9DFCD",
"f. c #E2E2E3",
"g. c None",
/* pixels */
"g.g.g.g.g.g.g.g.g.g.g.g.g.g.g.g.g.g.g.g.g.g.g.g.g.g.g.g.g.g.g.g.g.g.g.g.g.g.g.g.g.g.g.g.g.g.g.g.g.g.g.g.g.g.g.g.g.g.g.g.g.g.g.g.",
"g.g.g.g.g.g.g.g.g.g.g.g.g.g.g.g.g.g.g.g.g.g.g.g.g.g.g.g.g.g.g.g.g.g.g.g.g.g.g.g.g.g.g.g.g.g.g.g.g.g.g.g.g.g.g.g.g.g.g.g.g.g.g.g.",
"g.g.g.g.g.g.g.g.g.g.g.g.g.g.g.g.g.g.g.g.g.g.g.g.g.g.g.g.g.g.g.g.g.g.g.g.g.g.g.g.g.g.g.g.g.g.g.g.g.g.g.g.g.g.g.g.g.g.g.g.g.g.g.g.",
"g.g.g.g.g.g.g.g.g.g.g.g.g.g.g.g.g.g.g.g.g.g.g.g.g.g.g.g.g.g.g.g.g.g.g.g.g.g.g.g.g.g.g.g.g.g.g.g.g.g.g.g.g.g.g.g.g.g.g.g.g.g.g.g.",
"g.g.g.g.g.g.g.g.g.g.g.g.g.g.g.g.g.g.g.g.g.g.g.g.g.g.g.g.g.g.g.g.g.g.g.g.g.g.g.g.g.g.g.g.g.g.g.g.g.g.g.g.g.g.g.g.g.g.g.g.g.g.g.g.",
"g.g.g.g.g.g.g.g.g.g.g.g.g.g.g.g.g.g.g.g.g.g.g.g.g.g.g.g.g.g.g.g.g.g.g.g.g.g.g.g.g.g.g.g.g.g.g.g.g.g.g.g.g.g.g.g.g.g.g.g.g.g.g.g.",
"g.g.g.g.g.g.g.g.g.g.g.g.g.g.g.g.g.g.g.g.g.g.g.g.g.g.g.o o o o o o o o o o g.g.g.g.g.g.g.g.g.g.g.g.g.g.g.g.g.g.g.g.g.g.g.g.g.g.g.",
"g.g.g.g.g.g.g.g.g.g.g.g.g.g.g.g.g.g.g.g.g.g.g.g.o o o Y <.<.@.O.<.<.$.@.Y o o o g.g.g.g.g.g.g.g.g.g.g.g.g.g.g.g.g.g.g.g.g.g.g.g.",
"g.g.g.g.g.g.g.g.g.g.g.g.g.g.g.g.g.g.g.g.g.g.o o <.@.O.<.<.<.<.$.$.$.<.<.<.<.<.<.o o g.g.g.g.g.g.g.g.g.g.g.g.g.g.g.g.g.g.g.g.g.g.",
"g.g.g.g.g.g.g.g.g.g.g.g.g.g.g.g.g.g.g.g.o o <.O.) ` O._ ) o.O.O.O.O.O.O.O./ O.O.$.<.o o g.g.g.g.g.g.g.g.g.g.g.g.g.g.g.g.g.g.g.g.",
"g.g.g.g.g.g.g.g.g.g.g.g.g.g.g.g.g.g.g.o <.O.` O.O.' _ B ) _ ) _ B B B B ~ _ ~ _ O.O.O.<.o g.g.g.g.g.g.g.g.g.g.g.g.g.g.g.g.g.g.g.",
"g.g.g.g.g.g.g.g.g.g.g.g.g.g.g.g.g.o o O.O.O.O.) ) ) _ ) ! ! ~ V ! ! ! ! ! ! V m _ B _ _ @.o o g.g.g.g.g.g.g.g.g.g.g.g.g.g.g.g.g.",
"g.g.g.g.g.g.g.g.g.g.g.g.g.g.g.g.o o O.O.) _ _ / B V ! ! ! ! ! ! c x m B B B _ ! U B 3 _ _ O.o o g.g.g.g.g.g.g.g.g.g.g.g.g.g.g.g.",
"g.g.g.g.g.g.g.g.g.g.g.g.g.g.g.o o O._ _ 3 B ! U ~ 3 ~ V B M M B B N B N M M M ! V V U U N _ _ o o g.g.g.g.g.g.g.g.g.g.g.g.g.g.g.",
"g.g.g.g.g.g.g.g.g.g.g.g.g.g.g.o O._ _ _ V U 4 N B m N N M c c c c c B B B B B B B B c ! / U _ _ o g.g.g.g.g.g.g.g.g.g.g.g.g.g.g.",
"g.g.g.g.g.g.g.g.g.g.g.g.g.g.o _ _ _ U U 3 M M B c c k 5 M c c c c c c c c j B B B B B B 4 B ! _ _ o g.g.g.g.g.g.g.g.g.g.g.g.g.g.",
"g.g.g.g.g.g.g.g.g.g.g.g.g.g.o ) ` ! 3 M B c B B k 5 k k 4 k 1.k j j 1.k b f j c c 3 c B B M U H B o g.g.g.g.g.g.g.g.g.g.g.g.g.g.",
"g.g.g.g.g.g.g.g.g.g.g.g.g.o B 3 4 M B B 4 k t f 3 5 G 3 3 3 3 @ @ 3 3 3 3 3 X.x x c c 4 B B B B B c o g.g.g.g.g.g.g.g.g.g.g.g.g.",
"g.g.g.g.g.g.g.g.g.g.g.g.g.o B B B k c k 3 3 l % o o + O o o o a a X o o o o o o 3 5  .c N x V B c B o g.g.g.g.g.g.g.g.g.g.g.g.g.",
"g.g.g.g.g.g.g.g.g.g.g.g.o c B B N 3 j H 3 o o o z +.,.:.>.>.7.t.t.8.>.>.,.>.>.a o o o 5 5 X.3 k c c 5 o g.g.g.g.g.g.g.g.g.g.g.g.",
"g.g.g.g.g.g.g.g.g.g.g.g.X b # c 3 4 5 o o   { { :.t.t.t.t.t.t.t.t.t.t.t.t.t.t.t.>.{   o o f b k 5 c 5 o g.g.g.g.g.g.g.g.g.g.g.g.",
"g.g.g.g.g.g.g.g.g.g.g.g.X f X.3 ..5 o o   ,.,.t.t.t.t.t.t.t.t.t.t.t.t.t.t.t.t.t.t.,.,.  o o k 5 5 3 3 o g.g.g.g.g.g.g.g.g.g.g.g.",
"g.g.g.g.g.g.g.g.g.g.g.g.o a 4 5 5 3 o   ,.>.t.t.t.t.t.t.t.t.t.t.t.t.t.t.t.t.t.t.t.t.,.E   o 3 3 3 3 3 o g.g.g.g.g.g.g.g.g.g.g.g.",
"g.g.g.g.g.g.g.g.g.g.g.g.o . @ @ o o $ o 3.t.t.t.w.t.t.t.t.t.t.t.t.t.t.t.t.t.t.t.t.t.0.%.o % X o @ o o o g.g.g.g.g.g.g.g.g.g.g.g.",
"g.g.g.g.g.g.g.g.g.g.g.g.g.  o o y & % o y.y.t.r.t.t.t.t.t.t.w.t.t.t.r.t.t.t.t.t.t.y.t.,.o w w q o o   g.g.g.g.g.g.g.g.g.g.g.g.g.",
"g.g.g.g.g.g.g.g.g.g.g.g.g.o y & p p p o y.t.t.t.t.t.t.t.t.t.t.t.t.t.t.t.t.t.t.t.t.t.t.t.o w q y & w o g.g.g.g.g.g.g.g.g.g.g.g.g.",
"g.g.g.g.g.g.g.g.g.g.g.g.g.o e y y p o 3.y.t.t.t.t.t.t.t.t.t.t.t.t.t.t.t.t.t.t.t.t.t.t.t.o w q r y e o g.g.g.g.g.g.g.g.g.g.g.g.g.",
"g.g.g.g.g.g.g.g.g.g.g.g.g.o q q y q o 3.y.t.t.0.t.t.t.t.t.t.t.t.t.t.t.t.t.t.5.t.t.t.t.t.,.o q p y q o g.g.g.g.g.g.g.g.g.g.g.g.g.",
"g.g.g.g.g.g.g.g.g.g.g.g.g.o e q p o ,.3.y.6.q t.t.t.5.t.t.5.t.t.t.t.t.t.t.t.t.t.t.q t.t.,.,.o r y q o g.g.g.g.g.g.g.g.g.g.g.g.g.",
"g.g.g.g.g.g.g.g.g.g.g.g.g.o q q y o ,.y.q q q q q t.t.t.t.t.t.t.t.w.t.t.t.t.t.q w w w w ,.,.o e y q o g.g.g.g.g.g.g.g.g.g.g.g.g.",
"g.g.g.g.g.g.g.g.g.g.g.g.g.g.o q q o 6.t.t.y.{ =.t.b q t.t.t.5.t.t.t.t.t.t.q q t.6.{ t.y.w ,.o q y q o g.g.g.g.g.g.g.g.g.g.g.g.g.",
"g.g.g.g.g.g.g.g.g.g.g.g.g.g.o q q o t.t.o o f.g o o n *.q t.t.t.t.t.t.q q t.. O h f.v o t.t.o q q q o g.g.g.g.g.g.g.g.g.g.g.g.g.",
"g.g.g.g.g.g.g.g.g.g.g.g.g.g.X o o x t.t.o a.1 f O 2 o o t.t.t.t.5.t.t.t.O . h O 1 1 f.o t.0.+.o q o g.g.g.g.g.g.g.g.g.g.g.g.g.g.",
"g.g.g.g.g.g.g.g.g.g.g.g.g.g.o o o &.y.t.o a.d h * h 2 a X 5.t.t.t.t.t.q.. f.K < 1 d a.o t.0.+.  o   g.g.g.g.g.g.g.g.g.g.g.g.g.g.",
"g.g.g.g.g.g.g.g.g.g.g.g.g.g.o   X o 0.t.o a.f.g L 1 f.a.o t.t.t.t.t.t.O a.f.1 ~ h f.s.o t.t.o o     g.g.g.g.g.g.g.g.g.g.g.g.g.g.",
"g.g.g.g.g.g.g.g.g.g.g.g.g.g.g.  o o o e.t.o p.a.f.f.a.o t.t.t.t.t.t.t.t.o a.f.f.s.a.o n t.o o o o g.g.g.g.g.g.g.g.g.g.g.g.g.g.g.",
"g.g.g.g.g.g.g.g.g.g.g.g.g.g.g.g.o y p o t.j o i.p.2.o t.t.t.t.t.t.t.t.t.y.. X i.i.o o e.o p w o g.g.g.g.g.g.g.g.g.g.g.g.g.g.g.g.",
"g.g.g.g.g.g.g.g.g.g.g.g.g.g.g.g.o o [ p o o y.W o :.y.t.t.t.t.t.{ t.t.t.y.y.t.X o t.o o A y o g.g.g.g.g.g.g.g.g.g.g.g.g.g.g.g.g.",
"g.g.g.g.g.g.g.g.g.g.g.g.g.g.g.g.g.o % y p u o o o t.t.y.o o o o o o o o o o o o X o [ [ u o o g.g.g.g.g.g.g.g.g.g.g.g.g.g.g.g.g.",
"g.g.g.g.g.g.g.g.g.g.g.g.g.g.g.g.g.g.o q w [ y y [ o o o C [ [ s A A Z A [ b Q l A A p y q o g.g.g.g.g.g.g.g.g.g.g.g.g.g.g.g.g.g.",
"g.g.g.g.g.g.g.g.g.g.g.g.g.g.g.g.g.g.o o q y p p [ [ p A p w q o o r A b s A Q S y r e e o o g.g.g.g.g.g.g.g.g.g.g.g.g.g.g.g.g.g.",
"g.g.g.g.g.g.g.g.g.g.g.g.g.g.g.g.g.g.g.o o o o q w A y y p A s [ A C C D A y s y e w . . g.g.g.g.g.g.g.g.g.g.g.g.g.g.g.g.g.g.g.g.",
"g.g.g.g.g.g.g.g.g.g.g.g.g.g.g.g.g.g.g.g.o o o + o w o w q y y e y y y q w w w o o o O g.g.g.g.g.g.g.g.g.g.g.g.g.g.g.g.g.g.g.g.g.",
"g.g.g.g.g.g.g.g.g.g.g.g.g.g.g.g.g.g.g.g.g.g.o 5 o o o o q q y q q q q q o o X o / o g.g.g.g.g.g.g.g.g.g.g.g.g.g.g.g.g.g.g.g.g.g.",
"g.g.g.g.g.g.g.g.g.g.g.g.g.g.g.g.g.g.g.g.g.o + ( X o P o o o o o q o y X X 9 o o / 5 o g.g.g.g.g.g.g.g.g.g.g.g.g.g.g.g.g.g.g.g.g.",
"g.g.g.g.g.g.g.g.g.g.g.g.g.g.g.g.g.g.g.g.g.o N o - o 7 P I P R o o I X P P > o 4 o M o g.g.g.g.g.g.g.g.g.g.g.g.g.g.g.g.g.g.g.g.g.",
"g.g.g.g.g.g.g.g.g.g.g.g.g.g.g.g.g.g.g.g.o m B o c c o : a P P o X v g 0 > o N m o M x o g.g.g.g.g.g.g.g.g.g.g.g.g.g.g.g.g.g.g.g.",
"g.g.g.g.g.g.g.g.g.g.g.g.g.g.g.g.g.g.g.o o o c o c c B o o 0 7 o o 7 7 O O N M B o o o - o g.g.g.g.g.g.g.g.g.g.g.g.g.g.g.g.g.g.g.",
"g.g.g.g.g.g.g.g.g.g.g.g.g.g.g.g.g.g.o 0.d.u.o o o c N N o o o c m o o o B B c o o d.y.9.o g.g.g.g.g.g.g.g.g.g.g.g.g.g.g.g.g.g.g.",
"g.g.g.g.g.g.g.g.g.g.g.g.g.g.g.g.g.g.o e.u.u.} o Z o o o o o m N m m o o o o o D , 8 u.e.o g.g.g.g.g.g.g.g.g.g.g.g.g.g.g.g.g.g.g.",
"g.g.g.g.g.g.g.g.g.g.g.g.g.g.g.g.g.g.o &.t.t.o o o o D ] F + o o o o = F A t o o o o t.5.o g.g.g.g.g.g.g.g.g.g.g.g.g.g.g.g.g.g.g.",
"g.g.g.g.g.g.g.g.g.g.g.g.g.g.g.g.g.g.g.o 9.0.o 5 o o o o o o o o o o o o o o i D o o 5.o g.g.g.g.g.g.g.g.g.g.g.g.g.g.g.g.g.g.g.g.",
"g.g.g.g.g.g.g.g.g.g.g.g.g.g.g.g.g.g.g.g.o o o 5 k c k @ o o o o o o o o o o o o o o o g.g.g.g.g.g.g.g.g.g.g.g.g.g.g.g.g.g.g.g.g.",
"g.g.g.g.g.g.g.g.g.g.g.g.g.g.g.g.g.g.g.g.g.g.o 3 j 5 k m k B B V N M c B B c c 5 3 o g.g.g.g.g.g.g.g.g.g.g.g.g.g.g.g.g.g.g.g.g.g.",
"g.g.g.g.g.g.g.g.g.g.g.g.g.g.g.g.g.g.g.g.g.g.o 3 # 5 5 k m j k k 5 5 c a 5 5 c 5 3 o g.g.g.g.g.g.g.g.g.g.g.g.g.g.g.g.g.g.g.g.g.g.",
"g.g.g.g.g.g.g.g.g.g.g.g.g.g.g.g.g.g.g.g.g.g.o o o o o # 4 5 4 3 o X 4 3 o o o o o o g.g.g.g.g.g.g.g.g.g.g.g.g.g.g.g.g.g.g.g.g.g.",
"g.g.g.g.g.g.g.g.g.g.g.g.g.g.g.g.g.g.g.g.g.g.g.g.o o o o o o o o o X o o o o = o g.g.g.g.g.g.g.g.g.g.g.g.g.g.g.g.g.g.g.g.g.g.g.g.",
"g.g.g.g.g.g.g.g.g.g.g.g.g.g.g.g.g.g.g.g.g.g.g.g.o o 6 9 6 J o g.g.o o T J T o o g.g.g.g.g.g.g.g.g.g.g.g.g.g.g.g.g.g.g.g.g.g.g.g.",
"g.g.g.g.g.g.g.g.g.g.g.g.g.g.g.g.g.g.g.g.g.g.g.g.o = = ; = = = o g.o 6 6 6 6 : o g.g.g.g.g.g.g.g.g.g.g.g.g.g.g.g.g.g.g.g.g.g.g.g.",
"g.g.g.g.g.g.g.g.g.g.g.g.g.g.g.g.g.g.g.g.g.g.g.g.o o o o o o o g.g.o o o o o o o g.g.g.g.g.g.g.g.g.g.g.g.g.g.g.g.g.g.g.g.g.g.g.g.",
"g.g.g.g.g.g.g.g.g.g.g.g.g.g.g.g.g.g.g.g.g.g.g.g.g.g.g.g.g.g.g.g.g.g.g.g.g.g.g.g.g.g.g.g.g.g.g.g.g.g.g.g.g.g.g.g.g.g.g.g.g.g.g.g.",
"g.g.g.g.g.g.g.g.g.g.g.g.g.g.g.g.g.g.g.g.g.g.g.g.g.g.g.g.g.g.g.g.g.g.g.g.g.g.g.g.g.g.g.g.g.g.g.g.g.g.g.g.g.g.g.g.g.g.g.g.g.g.g.g.",
"g.g.g.g.g.g.g.g.g.g.g.g.g.g.g.g.g.g.g.g.g.g.g.g.g.g.g.g.g.g.g.g.g.g.g.g.g.g.g.g.g.g.g.g.g.g.g.g.g.g.g.g.g.g.g.g.g.g.g.g.g.g.g.g.",
"g.g.g.g.g.g.g.g.g.g.g.g.g.g.g.g.g.g.g.g.g.g.g.g.g.g.g.g.g.g.g.g.g.g.g.g.g.g.g.g.g.g.g.g.g.g.g.g.g.g.g.g.g.g.g.g.g.g.g.g.g.g.g.g."
};
