/* XPM */
static char *result[] = {
/* columns rows colors chars-per-pixel */
"64 64 130 2 ",
"   c #141312",
".  c #1E1414",
"X  c #1B1A17",
"o  c #1B1A18",
"O  c #241E1B",
"+  c #22221C",
"@  c #342017",
"#  c #35251E",
"$  c #3C261B",
"%  c #3F281C",
"&  c #212225",
"*  c #292521",
"=  c #2A2A20",
"-  c #232429",
";  c #27282E",
":  c #3C2C24",
">  c #203D27",
",  c #213F28",
"<  c #303020",
"1  c #393926",
"2  c #373829",
"3  c #3D3D28",
"4  c #343434",
"5  c #393430",
"6  c #31323A",
"7  c #3B3B3B",
"8  c #462B1F",
"9  c #472E20",
"0  c #4B2F21",
"q  c #453026",
"w  c #4E3224",
"e  c #543525",
"r  c #53372D",
"t  c #56392E",
"y  c #5F3D2B",
"u  c #5B3C30",
"i  c #3F402B",
"p  c #2B5634",
"a  c #2C5936",
"s  c #30643D",
"d  c #44442D",
"f  c #48492F",
"g  c #464536",
"h  c #4B4237",
"j  c #474831",
"k  c #4B4C31",
"l  c #5C4032",
"z  c #54493D",
"x  c #4F5036",
"c  c #515236",
"v  c #545639",
"b  c #55583A",
"n  c #595C3E",
"m  c #64412E",
"M  c #68432E",
"N  c #6E4731",
"B  c #6D4837",
"V  c #764E3B",
"C  c #76523F",
"Z  c #6E6A2E",
"A  c #363741",
"S  c #383A45",
"D  c #336940",
"F  c #39744A",
"G  c #3D7C51",
"H  c #424242",
"J  c #5E5245",
"K  c #5C5E40",
"L  c #775542",
"P  c #785441",
"I  c #7F5B47",
"U  c #5E6042",
"Y  c #636646",
"T  c #666847",
"R  c #6A6D49",
"E  c #72614E",
"W  c #706F54",
"Q  c #737550",
"!  c #7A7C55",
"~  c #7D7F59",
"^  c #597A60",
"/  c #8D5D46",
"(  c #835F4B",
")  c #866851",
"_  c #837E51",
"`  c #86735D",
"'  c #9A7B63",
"]  c #957E68",
"[  c #6E8774",
"{  c #9C9437",
"}  c #DBCC3B",
"|  c #81825B",
" . c #8C8C64",
".. c #9C8067",
"X. c #95946C",
"o. c #918070",
"O. c #A48B71",
"+. c #A09F76",
"@. c #B3977A",
"#. c #B39A7C",
"$. c #A2A177",
"%. c #A3A278",
"&. c #C1B975",
"*. c #B39A81",
"=. c #BEA484",
"-. c #9EAFA2",
";. c #A2A2A3",
":. c #A9B7AD",
">. c #C5A282",
",. c #CCA585",
"<. c #C2A78C",
"1. c #D3AC8B",
"2. c #CFAE92",
"3. c #D6B592",
"4. c #DBB895",
"5. c #E3BE9B",
"6. c #B5C0B8",
"7. c #E8C29D",
"8. c #EAC6A0",
"9. c #EFCAA3",
"0. c #EFCDAB",
"q. c #EFD0B6",
"w. c #BFBFC1",
"e. c #C2C2C3",
"r. c #CECECE",
"t. c #D4D4D5",
"y. c #DCDCDD",
"u. c #F5D8C3",
"i. c #E2E2E3",
"p. c None",
/* pixels */
"p.p.p.p.p.p.p.p.p.p.p.p.p.p.p.p.p.p.p.p.p.p.p.p.p.p.p.p.p.p.p.p.p.p.p.p.p.p.p.p.p.p.p.p.p.p.p.p.p.p.p.p.p.p.p.p.p.p.p.p.p.p.p.p.",
"p.p.p.p.p.p.p.p.p.p.p.p.p.p.p.p.p.p.p.p.p.p.p.p.p.p.p.p.p.p.p.p.p.p.p.p.p.p.p.p.p.p.p.p.p.p.p.p.p.p.p.p.p.p.p.p.p.p.p.p.p.p.p.p.",
"p.p.p.p.p.p.p.p.p.p.p.p.p.p.p.p.p.p.p.p.p.p.p.p.p.p.p.p.p.p.p.p.p.p.p.p.p.p.p.p.p.p.p.p.p.p.p.p.p.p.p.p.p.p.p.p.p.p.p.p.p.p.p.p.",
"p.p.p.p.p.p.p.p.p.p.p.p.p.p.p.p.p.p.p.p.p.p.p.p.p.p.p.p.p.p.p.p.p.p.p.p.p.p.p.p.p.p.p.p.p.p.p.p.p.p.p.p.p.p.p.p.p.p.p.p.p.p.p.p.",
"p.p.p.p.p.p.p.p.p.p.p.p.p.p.p.p.p.p.p.p.p.p.p.p.p.p.p.p.p.p.p.p.p.p.p.p.p.p.p.p.p.p.p.p.p.p.p.p.p.p.p.p.p.p.p.p.p.p.p.p.p.p.p.p.",
"p.p.p.p.p.p.p.p.p.p.p.p.p.p.p.p.p.p.p.p.p.p.p.p.p.p.p.p.p.p.p.p.p.p.p.p.p.p.p.p.p.p.p.p.p.p.p.p.p.p.p.p.p.p.p.p.p.p.p.p.p.p.p.p.",
"p.p.p.p.p.p.p.p.p.p.p.p.p.p.p.p.p.p.p.p.p.p.p.p.p.p.p.p.p.p.p.p.p.p.p.p.p.p.p.p.p.p.p.p.p.p.p.p.p.p.p.p.p.p.p.p.p.p.p.p.p.p.p.p.",
"p.p.p.p.p.p.p.p.p.p.p.p.p.p.p.p.p.p.p.p.p.p.p.p.p.p.o o o o o o o o o o o o p.p.p.p.p.p.p.p.p.p.p.p.p.p.p.p.p.p.p.p.p.p.p.p.p.p.",
"p.p.p.p.p.p.p.p.p.p.p.p.p.p.p.p.p.p.p.p.p.p.p.o O . . $.+. . . .%.%.%.%. .o o o o p.p.p.p.p.p.p.p.p.p.p.p.p.p.p.p.p.p.p.p.p.p.p.",
"p.p.p.p.p.p.p.p.p.p.p.p.p.p.p.p.p.p.p.p.p.o o g X. .$.+.Q  . . . . . . . .%.%.%.g o o p.p.p.p.p.p.p.p.p.p.p.p.p.p.p.p.p.p.p.p.p.",
"p.p.p.p.p.p.p.p.p.p.p.p.p.p.p.p.p.p.p.p.o Q  .~ Q | W [  ._ b R Q Q Q Q |  .R ~  . .W o p.p.p.p.p.p.p.p.p.p.p.p.p.p.p.p.p.p.p.p.",
"p.p.p.p.p.p.p.p.p.p.p.p.p.p.p.p.p.p.X X  .Q  . .Q ! K Q Q Q < < < < 1 b b b Q R Q  .!  .o o p.p.p.p.p.p.p.p.p.p.p.p.p.p.p.p.p.p.",
"p.p.p.p.p.p.p.p.p.p.p.p.p.p.p.p.p.X + !  . .Q Q Q < T n T Q b K K U U U U U U U b Q Q Q Q & o p.p.p.p.p.p.p.p.p.p.p.p.p.p.p.p.p.",
"p.p.p.p.p.p.p.p.p.p.p.p.p.p.p.p.X !  .n Q ! n U n n T n K v < k U U j < 1 b b b U U b k b Q Q X p.p.p.p.p.p.p.p.p.p.p.p.p.p.p.p.",
"p.p.p.p.p.p.p.p.p.p.p.p.p.p.p.o + < Q < n U n b < b n v c v b b b b b b b b c c b K U U b # < + o p.p.p.p.p.p.p.p.p.p.p.p.p.p.p.",
"p.p.p.p.p.p.p.p.p.p.p.p.p.p.p.o  .Q Q U U c c v c b n f x b b b b b b b v b b b b b 1 K Y K Y b o p.p.p.p.p.p.p.p.p.p.p.p.p.p.p.",
"p.p.p.p.p.p.p.p.p.p.p.p.p.p.X Q Q U b i c c b f k b b k k f d d d k k k k k k b b k v K n b U Q U o p.p.p.p.p.p.p.p.p.p.p.p.p.p.",
"p.p.p.p.p.p.p.p.p.p.p.p.p.o + Q b U c b b k b k 3 k } k < 3 } 3 i i } i < k &.k k k k n v b x K v + o p.p.p.p.p.p.p.p.p.p.p.p.p.",
"p.p.p.p.p.p.p.p.p.p.p.p.p.o b U v b x k v d } i = < : = + X X X X X o + < # < < 1 k k k x v b b b k o p.p.p.p.p.p.p.p.p.p.p.p.p.",
"p.p.p.p.p.p.p.p.p.p.p.p.p.o v x b v b f < < < X o o . O h @.@.@.@.#.#.z o o X X X i { 1 f < f k k 3 o p.p.p.p.p.p.p.p.p.p.p.p.p.",
"p.p.p.p.p.p.p.p.p.p.p.p.X k b v k k i < X X o E ' @.@.@.9.9.9.9.9.9.9.9.#.#.@.#.E + X X 3 } k < < k i X p.p.p.p.p.p.p.p.p.p.p.p.",
"p.p.p.p.p.p.p.p.p.p.p.p.X i < # ! d < o X   ` @.5.9.9.9.9.9.9.9.9.7.9.9.9.9.9.9.7.`   X X 3 3 k k 3 i X p.p.p.p.p.p.p.p.p.p.p.p.",
"p.p.p.p.p.p.p.p.p.p.p.p.X i Z 3 i < X   # #.7.0.9.9.9.9.9.9.9.9.9.9.9.9.9.9.9.9.9.#.#.  9 X i i 3 < # X p.p.p.p.p.p.p.p.p.p.p.p.",
"p.p.p.p.p.p.p.p.p.p.p.p.X < < < < X X   *.#.9.9.9.9.9.9.9.9.9.9.9.9.9.9.9.9.9.9.9.9.#.#.  X X < < < < X p.p.p.p.p.p.p.p.p.p.p.p.",
"p.p.p.p.p.p.p.p.p.p.p.p.p.o o o X X @ X *.9.9.9.9.9.9.8.9.9.5.9.9.9.9.9.9.9.9.9.9.0.9.#.X % X o o o o p.p.p.p.p.p.p.p.p.p.p.p.p.",
"p.p.p.p.p.p.p.p.p.p.p.p.p.  % 9 8 8 8 X 0.9.9.9.9.9.9.9.9.9.9.9.9.0.9.9.9.9.9.9.9.9.9.#.X e 9 $ % $   p.p.p.p.p.p.p.p.p.p.p.p.p.",
"p.p.p.p.p.p.p.p.p.p.p.p.p.o e e y y y X 0.0.8.9.9.9.9.9.9.9.9.9.9.9.9.7.9.9.9.9.9.9.9.0.o 9 8 e e 8 o p.p.p.p.p.p.p.p.p.p.p.p.p.",
"p.p.p.p.p.p.p.p.p.p.p.p.p.o 0 e e 8 o #.0.9.9.9.9.9.9.9.9.9.9.9.9.9.9.9.9.9.9.9.9.9.9.9.o 9 8 8 e w o p.p.p.p.p.p.p.p.p.p.p.p.p.",
"p.p.p.p.p.p.p.p.p.p.p.p.p.o 8 8 y o o *.0.9.9.9.9.9.9.9.9.9.9.9.9.9.9.9.9.9.9.9.9.9.9.9.#.X 8 y e 8 X p.p.p.p.p.p.p.p.p.p.p.p.p.",
"p.p.p.p.p.p.p.p.p.p.p.p.p.o 8 8 y o #.<.0.9 8 8 8 9.9.9.9.,.9.9.9.9.9.9.9.9.8.8 8 9 9 ) #.#.X w e 8 o p.p.p.p.p.p.p.p.p.p.p.p.p.",
"p.p.p.p.p.p.p.p.p.p.p.p.p.o 8 8 e o #.0.9 ' 9.8 8 9 9.9.9.9.9.9.8.9.9.9.9.9.8 8 9 9.2.9 9.#.o 8 e 8 o p.p.p.p.p.p.p.p.p.p.p.p.p.",
"p.p.p.p.p.p.p.p.p.p.p.p.p.p.o 8 9 o 9.9.5.o o o . 9.8 >.9.8.9.8.9.9.1.9.9.8 9.. o o o J 9.=.o 8 e 8 o p.p.p.p.p.p.p.p.p.p.p.p.p.",
"p.p.p.p.p.p.p.p.p.p.p.p.p.p.o 9 9 X 9.0.o y.i.G > o o 9.9.9.9.9.9.9.9.9.9.O . > p p y.X 9.9.X 8 8 8 X p.p.p.p.p.p.p.p.p.p.p.p.p.",
"p.p.p.p.p.p.p.p.p.p.p.p.p.p.  o X O.9.9.o r.> > . > > o 9.8.9.9.5.9.9.7.O :.s . > > r.X 0.4...X X X p.p.p.p.p.p.p.p.p.p.p.p.p.p.",
"p.p.p.p.p.p.p.p.p.p.p.p.p.p.o o   O.9.0.o e.-.s O D :.i.o 9.9.9.9.9.9.O i.i.F > p > r.o 9.7...  O.  p.p.p.p.p.p.p.p.p.p.p.p.p.p.",
"p.p.p.p.p.p.p.p.p.p.p.p.p.p.p.  X X 4.9.o e.i.^ > [ i.r.o 9.9.9.9.9.9.9.X i.i.> p y.e.o 9.4.+ X   o p.p.p.p.p.p.p.p.p.p.p.p.p.p.",
"p.p.p.p.p.p.p.p.p.p.p.p.p.p.p.p.X E O 4.9.o r.y.y.r.i.o 9.9.9.9.9.9.9.0.X ;.r.y.i.e.o 0.4.X ( o p.p.p.p.p.p.p.p.p.p.p.p.p.p.p.p.",
"p.p.p.p.p.p.p.p.p.p.p.p.p.p.p.p.X w M X o 0.o o o o o 9.9.9.9.9.9.7.0.9.9.o X X o o 0.o o N # o p.p.p.p.p.p.p.p.p.p.p.p.p.p.p.p.",
"p.p.p.p.p.p.p.p.p.p.p.p.p.p.p.p.p.X w M o o 3.9.9.9.9.9.9.9.9.o o J 9.9.9.9.0.9.9.o o w e e o p.p.p.p.p.p.p.p.p.p.p.p.p.p.p.p.p.",
"p.p.p.p.p.p.p.p.p.p.p.p.p.p.p.p.p.X . e y ( o o o o o o o o o N ( + o o o o o o o q N ( 8 o o p.p.p.p.p.p.p.p.p.p.p.p.p.p.p.p.p.",
"p.p.p.p.p.p.p.p.p.p.p.p.p.p.p.p.p.p.o % m ( l N P N ( ( ( ( N y N N y N N N N M N y y e 8 o p.p.p.p.p.p.p.p.p.p.p.p.p.p.p.p.p.p.",
"p.p.p.p.p.p.p.p.p.p.p.p.p.p.p.p.p.p.o o 8 8 y y I y e y y y y ( 8 m N C e N ( y e 8 8 8 o o p.p.p.p.p.p.p.p.p.p.p.p.p.p.p.p.p.p.",
"p.p.p.p.p.p.p.p.p.p.p.p.p.p.p.p.p.p.p.p.X X X 8 9 w 8 e y N e P e e e y y e y e 8 O X o p.p.p.p.p.p.p.p.p.p.p.p.p.p.p.p.p.p.p.p.",
"p.p.p.p.p.p.p.p.p.p.p.p.p.p.p.p.p.p.p.p.X X X X X 9 X 9 8 e e w 8 e e 8 8 8 8 o X o o p.p.p.p.p.p.p.p.p.p.p.p.p.p.p.p.p.p.p.p.p.",
"p.p.p.p.p.p.p.p.p.p.p.p.p.p.p.p.p.p.p.p.p.p.o [ o o o o 8 8 e o 8 8 8 O o o o o R X p.p.p.p.p.p.p.p.p.p.p.p.p.p.p.p.p.p.p.p.p.p.",
"p.p.p.p.p.p.p.p.p.p.p.p.p.p.p.p.p.p.p.p.p.o v k o o 7 o o o o o 8 X o X H 7 o X 2 b o p.p.p.p.p.p.p.p.p.p.p.p.p.p.p.p.p.p.p.p.p.",
"p.p.p.p.p.p.p.p.p.p.p.p.p.p.p.p.p.p.p.p.o k Z O k o o A H i H O X S g 6 7 o o k X x o p.p.p.p.p.p.p.p.p.p.p.p.p.p.p.p.p.p.p.p.p.",
"p.p.p.p.p.p.p.p.p.p.p.p.p.p.p.p.p.p.p.o o c b X k k = o H H S o X g 7 4 o + b b o 3 o o p.p.p.p.p.p.p.p.p.p.p.p.p.p.p.p.p.p.p.p.",
"p.p.p.p.p.p.p.p.p.p.p.p.p.p.p.p.p.p.o 5 o o d o k k b b o & o o o o o o b b k b o o 4...o p.p.p.p.p.p.p.p.p.p.p.p.p.p.p.p.p.p.p.",
"p.p.p.p.p.p.p.p.p.p.p.p.p.p.p.p.p.p.o q.u.q.X o o o + b K o o k c o o b b o o o o o.9.,.o p.p.p.p.p.p.p.p.p.p.p.p.p.p.p.p.p.p.p.",
"p.p.p.p.p.p.p.p.p.p.p.p.p.p.p.p.p.p.o 9.q.q.X o r / : o o o o o o o o o o l B # o o 9.,.o p.p.p.p.p.p.p.p.p.p.p.p.p.p.p.p.p.p.p.",
"p.p.p.p.p.p.p.p.p.p.p.p.p.p.p.p.p.p.o 4.9.9.o o o o o o o 9 t u u t : o o o X X o o ,.o p.p.p.p.p.p.p.p.p.p.p.p.p.p.p.p.p.p.p.p.",
"p.p.p.p.p.p.p.p.p.p.p.p.p.p.p.p.p.p.p.o ,.3.X 3 d d o o o o o o o o : C B t : X o o o X p.p.p.p.p.p.p.p.p.p.p.p.p.p.p.p.p.p.p.p.",
"p.p.p.p.p.p.p.p.p.p.p.p.p.p.p.p.p.p.p.p.X o o < d k k k k d X X o o o o o X + d < o p.p.p.p.p.p.p.p.p.p.p.p.p.p.p.p.p.p.p.p.p.p.",
"p.p.p.p.p.p.p.p.p.p.p.p.p.p.p.p.p.p.p.p.p.p.X < 1 3 k c k k k k k k b k k k 3 i < o p.p.p.p.p.p.p.p.p.p.p.p.p.p.p.p.p.p.p.p.p.p.",
"p.p.p.p.p.p.p.p.p.p.p.p.p.p.p.p.p.p.p.p.p.p.X + 1 X 3 3 3 3 3 d + 3 3 k 3 1 3 < + o p.p.p.p.p.p.p.p.p.p.p.p.p.p.p.p.p.p.p.p.p.p.",
"p.p.p.p.p.p.p.p.p.p.p.p.p.p.p.p.p.p.p.p.p.p.p.o o o o o o o o o o o o o o o o o o p.p.p.p.p.p.p.p.p.p.p.p.p.p.p.p.p.p.p.p.p.p.p.",
"p.p.p.p.p.p.p.p.p.p.p.p.p.p.p.p.p.p.p.p.p.p.p.p.o o A S 6 S o p.p.o o o o o o o p.p.p.p.p.p.p.p.p.p.p.p.p.p.p.p.p.p.p.p.p.p.p.p.",
"p.p.p.p.p.p.p.p.p.p.p.p.p.p.p.p.p.p.p.p.p.p.p.p.o - ; ; ; ; & o p.o S S S S o o p.p.p.p.p.p.p.p.p.p.p.p.p.p.p.p.p.p.p.p.p.p.p.p.",
"p.p.p.p.p.p.p.p.p.p.p.p.p.p.p.p.p.p.p.p.p.p.p.p.o o o o o o o p.p.o ; ; ; ; ; o p.p.p.p.p.p.p.p.p.p.p.p.p.p.p.p.p.p.p.p.p.p.p.p.",
"p.p.p.p.p.p.p.p.p.p.p.p.p.p.p.p.p.p.p.p.p.p.p.p.p.p.p.p.p.p.p.p.p.o o o o o o o p.p.p.p.p.p.p.p.p.p.p.p.p.p.p.p.p.p.p.p.p.p.p.p.",
"p.p.p.p.p.p.p.p.p.p.p.p.p.p.p.p.p.p.p.p.p.p.p.p.p.p.p.p.p.p.p.p.p.p.p.p.p.p.p.p.p.p.p.p.p.p.p.p.p.p.p.p.p.p.p.p.p.p.p.p.p.p.p.p.",
"p.p.p.p.p.p.p.p.p.p.p.p.p.p.p.p.p.p.p.p.p.p.p.p.p.p.p.p.p.p.p.p.p.p.p.p.p.p.p.p.p.p.p.p.p.p.p.p.p.p.p.p.p.p.p.p.p.p.p.p.p.p.p.p.",
"p.p.p.p.p.p.p.p.p.p.p.p.p.p.p.p.p.p.p.p.p.p.p.p.p.p.p.p.p.p.p.p.p.p.p.p.p.p.p.p.p.p.p.p.p.p.p.p.p.p.p.p.p.p.p.p.p.p.p.p.p.p.p.p."
};
