/* XPM */
static char *result[] = {
/* columns rows colors chars-per-pixel */
"64 64 137 2 ",
"   c #141312",
".  c #1E1414",
"X  c #1B1A17",
"o  c #1B1A18",
"O  c #211D1A",
"+  c #24221C",
"@  c #2F241F",
"#  c #2D2D1F",
"$  c #342017",
"%  c #33251E",
"&  c #3D271B",
"*  c #3F281C",
"=  c #222323",
"-  c #282521",
";  c #2E2C23",
":  c #232429",
">  c #27282E",
",  c #2B2A2A",
"<  c #302620",
"1  c #352B25",
"2  c #203D27",
"3  c #213F28",
"4  c #313120",
"5  c #3A3A26",
"6  c #30302F",
"7  c #3D3D28",
"8  c #353535",
"9  c #31323A",
"0  c #3A3A3A",
"q  c #462B1F",
"w  c #472E20",
"e  c #492E21",
"r  c #473027",
"t  c #4D3123",
"y  c #543525",
"u  c #51362C",
"i  c #56392B",
"p  c #5D3C2B",
"a  c #5C3D31",
"s  c #603F32",
"d  c #23442B",
"f  c #25492E",
"g  c #3F412B",
"h  c #2C5936",
"j  c #2D5C38",
"k  c #2F623C",
"l  c #43442D",
"z  c #47482F",
"x  c #494A2F",
"c  c #474931",
"v  c #4B4C31",
"b  c #4F5135",
"n  c #515236",
"m  c #54563A",
"M  c #55583A",
"N  c #58593D",
"B  c #64402D",
"V  c #644233",
"C  c #6E4731",
"Z  c #694E3E",
"A  c #754E3A",
"S  c #77513C",
"D  c #363741",
"F  c #373943",
"G  c #383A44",
"H  c #3E404B",
"J  c #377148",
"K  c #3D7C51",
"L  c #424242",
"P  c #5C5E41",
"I  c #434552",
"U  c #705240",
"Y  c #7A5641",
"T  c #7E5945",
"R  c #5E6042",
"E  c #4E7356",
"W  c #57765E",
"Q  c #636645",
"!  c #656846",
"~  c #6A6D49",
"^  c #71604F",
"/  c #6F714D",
"(  c #7A6A57",
")  c #737550",
"_  c #797C54",
"`  c #7C7E58",
"'  c #815641",
"]  c #875A44",
"[  c #835F4B",
"{  c #866750",
"}  c #86735D",
"|  c #8C765F",
" . c #997C64",
".. c #7F805A",
"X. c #798E7E",
"o. c #B4A937",
"O. c #D1C33A",
"+. c #DBCC3B",
"@. c #83835D",
"#. c #8C8C64",
"$. c #9C8067",
"%. c #94946B",
"&. c #98976E",
"*. c #928277",
"=. c #9D8A79",
"-. c #9F9E74",
";. c #A48A70",
":. c #A09F76",
">. c #B3977A",
",. c #B39A7C",
"<. c #BB9D7F",
"1. c #A3A278",
"2. c #879E8D",
"3. c #979797",
"4. c #B39A81",
"5. c #9BA39D",
"6. c #C2A484",
"7. c #CCA585",
"8. c #CFAD8B",
"9. c #D1B08F",
"0. c #D5B391",
"q. c #D8B592",
"w. c #DBB895",
"e. c #E2BF9B",
"r. c #E6C19C",
"t. c #E8C29D",
"y. c #EDC7A1",
"u. c #EFCAA3",
"i. c #EFCDAC",
"p. c #EFD0B6",
"a. c #BFBFC1",
"s. c #CDCDCD",
"d. c #D4D4D4",
"f. c #D9D9DA",
"g. c #F7DCC9",
"h. c #E2E2E3",
"j. c None",
/* pixels */
"j.j.j.j.j.j.j.j.j.j.j.j.j.j.j.j.j.j.j.j.j.j.j.j.j.j.j.j.j.j.j.j.j.j.j.j.j.j.j.j.j.j.j.j.j.j.j.j.j.j.j.j.j.j.j.j.j.j.j.j.j.j.j.j.",
"j.j.j.j.j.j.j.j.j.j.j.j.j.j.j.j.j.j.j.j.j.j.j.j.j.j.j.j.j.j.j.j.j.j.j.j.j.j.j.j.j.j.j.j.j.j.j.j.j.j.j.j.j.j.j.j.j.j.j.j.j.j.j.j.",
"j.j.j.j.j.j.j.j.j.j.j.j.j.j.j.j.j.j.j.j.j.j.j.j.j.j.j.j.j.j.j.j.j.j.j.j.j.j.j.j.j.j.j.j.j.j.j.j.j.j.j.j.j.j.j.j.j.j.j.j.j.j.j.j.",
"j.j.j.j.j.j.j.j.j.j.j.j.j.j.j.j.j.j.j.j.j.j.j.j.j.j.j.j.j.j.j.j.j.j.j.j.j.j.j.j.j.j.j.j.j.j.j.j.j.j.j.j.j.j.j.j.j.j.j.j.j.j.j.j.",
"j.j.j.j.j.j.j.j.j.j.j.j.j.j.j.j.j.j.j.j.j.j.j.j.j.j.j.j.j.j.j.j.j.j.j.j.j.j.j.j.j.j.j.j.j.j.j.j.j.j.j.j.j.j.j.j.j.j.j.j.j.j.j.j.",
"j.j.j.j.j.j.j.j.j.j.j.j.j.j.j.j.j.j.j.j.j.j.j.j.j.j.j.j.j.j.j.j.j.j.j.j.j.j.j.j.j.j.j.j.j.j.j.j.j.j.j.j.j.j.j.j.j.j.j.j.j.j.j.j.",
"j.j.j.j.j.j.j.j.j.j.j.j.j.j.j.j.j.j.j.j.j.j.j.j.j.j.j.j.j.j.j.j.j.j.j.j.j.j.j.j.j.j.j.j.j.j.j.j.j.j.j.j.j.j.j.j.j.j.j.j.j.j.j.j.",
"j.j.j.j.j.j.j.j.j.j.j.j.j.j.j.j.j.j.j.j.j.j.j.j.j.j.X o o o o o o o o o o X j.j.j.j.j.j.j.j.j.j.j.j.j.j.j.j.j.j.j.j.j.j.j.j.j.j.",
"j.j.j.j.j.j.j.j.j.j.j.j.j.j.j.j.j.j.j.j.j.j.j.o o o o 1.1.%.#.#.1.1.1.&.&.X o o X j.j.j.j.j.j.j.j.j.j.j.j.j.j.j.j.j.j.j.j.j.j.j.",
"j.j.j.j.j.j.j.j.j.j.j.j.j.j.j.j.j.j.j.j.j.o o o 1.#.1.1.` _ #.#.#.#.#.#.-.1.1.1.o o o j.j.j.j.j.j.j.j.j.j.j.j.j.j.j.j.j.j.j.j.j.",
"j.j.j.j.j.j.j.j.j.j.j.j.j.j.j.j.j.j.j.j.o o #.#.) #.) ) #.#.) M ) ) ) ` #.#.M #.#.#.o o j.j.j.j.j.j.j.j.j.j.j.j.j.j.j.j.j.j.j.j.",
"j.j.j.j.j.j.j.j.j.j.j.j.j.j.j.j.j.j.o o :.) #.#.#.) M ) ) ) Q 4 4 l M M M ) ) ) @.#.#.#.o o j.j.j.j.j.j.j.j.j.j.j.j.j.j.j.j.j.j.",
"j.j.j.j.j.j.j.j.j.j.j.j.j.j.j.j.j.o o #.#.@.) ) / 7 ) R R ~ M M R R R R R R R M ! ) ) ) ) o o j.j.j.j.j.j.j.j.j.j.j.j.j.j.j.j.j.",
"j.j.j.j.j.j.j.j.j.j.j.j.j.j.j.j.o + #.Q ) ) ) M M P R R R R 5 4 4 4 4 # M M M ) R R M R M ) + X j.j.j.j.j.j.j.j.j.j.j.j.j.j.j.j.",
"j.j.j.j.j.j.j.j.j.j.j.j.j.j.j.o o 4 ) ) M R R M 4 M R M n n M M M M M M M n n n R M R R M 4 4 o o j.j.j.j.j.j.j.j.j.j.j.j.j.j.j.",
"j.j.j.j.j.j.j.j.j.j.j.j.j.j.j.o #.) ) R P M n m m m M v v n M M M M M M v M M M M M 4 R R R / M o j.j.j.j.j.j.j.j.j.j.j.j.j.j.j.",
"j.j.j.j.j.j.j.j.j.j.j.j.j.j.o ) ) ~ M R n b M v v v 7 m v v v v v v v v v v v M M v M R l M R ) ) o j.j.j.j.j.j.j.j.j.j.j.j.j.j.",
"j.j.j.j.j.j.j.j.j.j.j.j.j.o X ) M R z M M v M b 7 v +.v ; 7 +.7 7 5 +.z 4 v g x v x v M M M 4 R M o o j.j.j.j.j.j.j.j.j.j.j.j.j.",
"j.j.j.j.j.j.j.j.j.j.j.j.j.o M P 4 n M v M v O.7 5 4 4 1 4 X X o o o X 4 4 4 4 g g x v v M M M M M v o j.j.j.j.j.j.j.j.j.j.j.j.j.",
"j.j.j.j.j.j.j.j.j.j.j.j.j.o M n M v v v 4 4 4 + o o o . X ^ >.>.>.,.( X X X o X + g o.v v 4 b M v l o j.j.j.j.j.j.j.j.j.j.j.j.j.",
"j.j.j.j.j.j.j.j.j.j.j.j.X v M M v 5 7 4 # X o o } >.>.<.7.u.u.u.u.u.u.6.,.>.>.,.X X X 5 5 +.l 5 # v 7 X j.j.j.j.j.j.j.j.j.j.j.j.",
"j.j.j.j.j.j.j.j.j.j.j.j.X 7 4 4 7 7 4 o X   } | 9.u.u.u.y.u.u.u.u.u.u.u.u.u.u.u.<.}   X X g g b v 7 7 o j.j.j.j.j.j.j.j.j.j.j.j.",
"j.j.j.j.j.j.j.j.j.j.j.j.o 7 +.4 7 4 o     ,.0.u.u.u.u.u.y.y.u.u.u.u.u.u.u.u.u.u.u.>.,.  w X g z 7 4 # o j.j.j.j.j.j.j.j.j.j.j.j.",
"j.j.j.j.j.j.j.j.j.j.j.j.X ; 4 4 5 ; o   4.,.u.u.u.u.u.u.u.u.u.y.u.u.u.y.u.u.u.u.u.u.,.,.  X # 4 4 4 4 X j.j.j.j.j.j.j.j.j.j.j.j.",
"j.j.j.j.j.j.j.j.j.j.j.j.j.o o o X o $ o 4.u.u.u.u.u.u.u.u.u.y.u.u.u.u.u.u.y.u.u.u.i.u.,.O * X X o o o j.j.j.j.j.j.j.j.j.j.j.j.j.",
"j.j.j.j.j.j.j.j.j.j.j.j.j.  * w q * q o i.u.u.u.u.u.u.u.y.u.u.u.u.u.u.u.u.u.u.u.u.u.u.,.X y w * q &   j.j.j.j.j.j.j.j.j.j.j.j.j.",
"j.j.j.j.j.j.j.j.j.j.j.j.j.o y y B p p o i.u.u.u.u.y.u.u.y.u.u.u.u.u.u.u.u.u.u.u.u.u.u.i.X w w y y q o j.j.j.j.j.j.j.j.j.j.j.j.j.",
"j.j.j.j.j.j.j.j.j.j.j.j.j.o e y y i o 4.i.u.u.u.u.u.u.u.u.u.u.u.u.u.u.u.u.u.u.u.u.u.u.u.X w q w y e o j.j.j.j.j.j.j.j.j.j.j.j.j.",
"j.j.j.j.j.j.j.j.j.j.j.j.j.o q q p O o 4.i.u.u.u.u.u.y.u.u.u.u.u.u.y.u.u.u.u.e.u.u.u.u.u.,.o q p y q X j.j.j.j.j.j.j.j.j.j.j.j.j.",
"j.j.j.j.j.j.j.j.j.j.j.j.j.o q q p X ,.4.i.w q q q u.u.u.y.7.u.u.u.u.u.u.u.u.y.8.q q q u.,.,.o t y q o j.j.j.j.j.j.j.j.j.j.j.j.j.",
"j.j.j.j.j.j.j.j.j.j.j.j.j.o q q y X ,.i.q q U q q q u.u.u.u.u.u.u.u.u.u.u.y.p e q q q q u.,.o q y q o j.j.j.j.j.j.j.j.j.j.j.j.j.",
"j.j.j.j.j.j.j.j.j.j.j.j.j.j.o q q X u.u.u.X o o X u.q u.u.y.y.y.y.u.e.u.u.w u.o o X X i.9.,.o q y q o j.j.j.j.j.j.j.j.j.j.j.j.j.",
"j.j.j.j.j.j.j.j.j.j.j.j.j.j.o q w X i.i.X h.h.K 2 o o y.{ u.u.u.u.u.u.U u.O . 2 j 2.h.X u.u.X w w q o j.j.j.j.j.j.j.j.j.j.j.j.j.",
"j.j.j.j.j.j.j.j.j.j.j.j.j.j.  o X ;.u.u.X s.d 3 O 2 2 o u.y.u.u.7.u.y.u.O 3.j . 2 2 f.X u.w.$.X X X j.j.j.j.j.j.j.j.j.j.j.j.j.j.",
"j.j.j.j.j.j.j.j.j.j.j.j.j.j.o o X ;.u.u.X s.E j O j W h.o y.u.u.u.u.u.O 3.h.J 2 h 2 s.o u.r.$.  *.  j.j.j.j.j.j.j.j.j.j.j.j.j.j.",
"j.j.j.j.j.j.j.j.j.j.j.j.j.j.o   X X w.u.X a.s.d h f h.d.o u.u.u.y.u.u.e.o h.X.h 2 h.s.o i.e.X X   X j.j.j.j.j.j.j.j.j.j.j.j.j.j.",
"j.j.j.j.j.j.j.j.j.j.j.j.j.j.j.j.X i X w.u.o s.h.s.f.s.X u.u.u.u.u.u.u.u.o d.s.s.h.a.o u.w.o U o j.j.j.j.j.j.j.j.j.j.j.j.j.j.j.j.",
"j.j.j.j.j.j.j.j.j.j.j.j.j.j.j.j.X y B X o i.X X O . o u.u.u.u.u.u.u.u.u.u.o o o o o i.X o C * o j.j.j.j.j.j.j.j.j.j.j.j.j.j.j.j.",
"j.j.j.j.j.j.j.j.j.j.j.j.j.j.j.j.X X B B o o u.u.u.u.u.u.u.u.u.o o u.u.u.u.u.u.i.u.- o o C y o j.j.j.j.j.j.j.j.j.j.j.j.j.j.j.j.j.",
"j.j.j.j.j.j.j.j.j.j.j.j.j.j.j.j.j.X X y p [ o o X o o o o o o % [ o o o o o o o o o A [ w o o j.j.j.j.j.j.j.j.j.j.j.j.j.j.j.j.j.",
"j.j.j.j.j.j.j.j.j.j.j.j.j.j.j.j.j.j.o w t [ y y [ t 1 U A [ Y p C C p C T s S B C B p y w o j.j.j.j.j.j.j.j.j.j.j.j.j.j.j.j.j.j.",
"j.j.j.j.j.j.j.j.j.j.j.j.j.j.j.j.j.j.o o q t i p S Y p p p w t [ e p C p y C [ s y q q q o o j.j.j.j.j.j.j.j.j.j.j.j.j.j.j.j.j.j.",
"j.j.j.j.j.j.j.j.j.j.j.j.j.j.j.j.j.j.j.j.o o o q q y q y p C p [ i y p C p y p y e q O X j.j.j.j.j.j.j.j.j.j.j.j.j.j.j.j.j.j.j.j.",
"j.j.j.j.j.j.j.j.j.j.j.j.j.j.j.j.j.j.j.j.o o o o o q o q q y y y y y y w q q q X o X X j.j.j.j.j.j.j.j.j.j.j.j.j.j.j.j.j.j.j.j.j.",
"j.j.j.j.j.j.j.j.j.j.j.j.j.j.j.j.j.j.j.j.j.j.o _ o o o o q q y % q q e w o o o o ~ o j.j.j.j.j.j.j.j.j.j.j.j.j.j.j.j.j.j.j.j.j.j.",
"j.j.j.j.j.j.j.j.j.j.j.j.j.j.j.j.j.j.j.j.j.o M N o o 0 o X X X X q X o o , 0 o X l v o j.j.j.j.j.j.j.j.j.j.j.j.j.j.j.j.j.j.j.j.j.",
"j.j.j.j.j.j.j.j.j.j.j.j.j.j.j.j.j.j.j.j.X b / X x X X 8 c G I X X L 8 0 0 o o v o n o j.j.j.j.j.j.j.j.j.j.j.j.j.j.j.j.j.j.j.j.j.",
"j.j.j.j.j.j.j.j.j.j.j.j.j.j.j.j.j.j.j.X X n M X v v o X I L L o X L 8 8 X X M m o v o o j.j.j.j.j.j.j.j.j.j.j.j.j.j.j.j.j.j.j.j.",
"j.j.j.j.j.j.j.j.j.j.j.j.j.j.j.j.j.j.o o o o v X v v m m o 8 + o o + , o m M v M o o w.o o j.j.j.j.j.j.j.j.j.j.j.j.j.j.j.j.j.j.j.",
"j.j.j.j.j.j.j.j.j.j.j.j.j.j.j.j.j.j.o p.g.p.X o o o l M P o o v m o o M M g o o o =.u.7.o j.j.j.j.j.j.j.j.j.j.j.j.j.j.j.j.j.j.j.",
"j.j.j.j.j.j.j.j.j.j.j.j.j.j.j.j.j.j.o u.p.p.; o a ] O o o o o o o o o o o ; ' r o o u.7.o j.j.j.j.j.j.j.j.j.j.j.j.j.j.j.j.j.j.j.",
"j.j.j.j.j.j.j.j.j.j.j.j.j.j.j.j.j.j.o r.u.u.o o o o o o < i a V V s u O o o o o o o 7.o j.j.j.j.j.j.j.j.j.j.j.j.j.j.j.j.j.j.j.j.",
"j.j.j.j.j.j.j.j.j.j.j.j.j.j.j.j.j.j.j.o q.w.X 7 l 4 o o o o o o o o o V S s i . o o o o j.j.j.j.j.j.j.j.j.j.j.j.j.j.j.j.j.j.j.j.",
"j.j.j.j.j.j.j.j.j.j.j.j.j.j.j.j.j.j.j.j.X o X 4 v v v v v ; o o o o o o X X o 5 4 o j.j.j.j.j.j.j.j.j.j.j.j.j.j.j.j.j.j.j.j.j.j.",
"j.j.j.j.j.j.j.j.j.j.j.j.j.j.j.j.j.j.j.j.j.j.o 4 7 7 v v v v v v v v N v v v 7 7 4 o j.j.j.j.j.j.j.j.j.j.j.j.j.j.j.j.j.j.j.j.j.j.",
"j.j.j.j.j.j.j.j.j.j.j.j.j.j.j.j.j.j.j.j.j.j.o ; 5 o 7 7 7 7 7 7 - 7 7 N 7 5 7 5 # o j.j.j.j.j.j.j.j.j.j.j.j.j.j.j.j.j.j.j.j.j.j.",
"j.j.j.j.j.j.j.j.j.j.j.j.j.j.j.j.j.j.j.j.j.j.j.o o o o o o o o o o o o o o o o o o j.j.j.j.j.j.j.j.j.j.j.j.j.j.j.j.j.j.j.j.j.j.j.",
"j.j.j.j.j.j.j.j.j.j.j.j.j.j.j.j.j.j.j.j.j.j.j.j.o o D G 9 G o j.j.o o o o o o o j.j.j.j.j.j.j.j.j.j.j.j.j.j.j.j.j.j.j.j.j.j.j.j.",
"j.j.j.j.j.j.j.j.j.j.j.j.j.j.j.j.j.j.j.j.j.j.j.j.o : > > > > = o j.o I H G G o o j.j.j.j.j.j.j.j.j.j.j.j.j.j.j.j.j.j.j.j.j.j.j.j.",
"j.j.j.j.j.j.j.j.j.j.j.j.j.j.j.j.j.j.j.j.j.j.j.j.o o o o o o o j.j.o > > > > > o j.j.j.j.j.j.j.j.j.j.j.j.j.j.j.j.j.j.j.j.j.j.j.j.",
"j.j.j.j.j.j.j.j.j.j.j.j.j.j.j.j.j.j.j.j.j.j.j.j.j.j.j.j.j.j.j.j.j.o o o o o o o j.j.j.j.j.j.j.j.j.j.j.j.j.j.j.j.j.j.j.j.j.j.j.j.",
"j.j.j.j.j.j.j.j.j.j.j.j.j.j.j.j.j.j.j.j.j.j.j.j.j.j.j.j.j.j.j.j.j.j.j.j.j.j.j.j.j.j.j.j.j.j.j.j.j.j.j.j.j.j.j.j.j.j.j.j.j.j.j.j.",
"j.j.j.j.j.j.j.j.j.j.j.j.j.j.j.j.j.j.j.j.j.j.j.j.j.j.j.j.j.j.j.j.j.j.j.j.j.j.j.j.j.j.j.j.j.j.j.j.j.j.j.j.j.j.j.j.j.j.j.j.j.j.j.j.",
"j.j.j.j.j.j.j.j.j.j.j.j.j.j.j.j.j.j.j.j.j.j.j.j.j.j.j.j.j.j.j.j.j.j.j.j.j.j.j.j.j.j.j.j.j.j.j.j.j.j.j.j.j.j.j.j.j.j.j.j.j.j.j.j."
};
