/* XPM */
static char *_e776f8065e4483bde38b7c0c79ec19fOzjMEcKt4Ry9qyTQ[] = {
/* columns rows colors chars-per-pixel */
"64 64 128 2 ",
"   c None",
".  c #141312",
"X  c #191716",
"o  c #1C1A17",
"O  c #1B1A18",
"+  c #221713",
"@  c #2E1C15",
"#  c #221D19",
"$  c #281F1A",
"%  c #23211C",
"&  c #29251D",
"*  c #2A2A1F",
"=  c #342017",
"-  c #3D261C",
";  c #1F2025",
":  c #252321",
">  c #212F21",
",  c #2F2C23",
"<  c #27282E",
"1  c #2E2E2E",
"2  c #3C2E25",
"3  c #203D27",
"4  c #313121",
"5  c #373825",
"6  c #393926",
"7  c #3D3D28",
"8  c #2E2F36",
"9  c gray22",
"0  c #452B1F",
"q  c #472E20",
"w  c #492E21",
"e  c #4D3123",
"r  c #543525",
"t  c #573827",
"y  c #5E3C2A",
"u  c #5B3C30",
"i  c #623F2C",
"p  c #2C5936",
"a  c #44452D",
"s  c #4B4C31",
"d  c #50473B",
"f  c #5C4538",
"g  c #574B3F",
"h  c #4F5134",
"j  c #515437",
"k  c #535538",
"l  c #55583A",
"z  c #5A5C3E",
"x  c #65412E",
"c  c #68432F",
"v  c #674435",
"b  c #6E4731",
"n  c #62493B",
"m  c #734C3A",
"M  c #73503D",
"N  c #373943",
"B  c #3C5A43",
"V  c #3D7C51",
"C  c #575642",
"Z  c #5C5F41",
"A  c #454754",
"S  c #675A4A",
"D  c #6B5C4C",
"F  c #7B5C47",
"G  c #5E6042",
"H  c #636545",
"J  c #626148",
"K  c #6B6D4A",
"L  c #74604F",
"P  c #72744F",
"I  c #737550",
"U  c #7A7C54",
"Y  c #6E6D6C",
"T  c #8E5E47",
"R  c #835F4B",
"E  c #89705C",
"W  c #8D7A63",
"Q  c #957B63",
"!  c #9C7C64",
"~  c #7F805C",
"^  c #DBCC3B",
"/  c #83845D",
"(  c #868660",
")  c #8C8C64",
"_  c #988069",
"`  c #93936A",
"'  c #98976E",
"]  c #9F9E74",
"[  c #A48A70",
"{  c #AE8C71",
"}  c #AA9276",
"|  c #A09F76",
" . c #B3977A",
".. c #B49A7C",
"X. c #BB9D7F",
"o. c #A2A177",
"O. c #A3A278",
"+. c #C29D7F",
"@. c #B39A81",
"#. c #B7A191",
"$. c #BEA897",
"%. c #BBA79A",
"&. c #ACAAAA",
"*. c #C6A787",
"=. c #CCA585",
"-. c #CEA887",
";. c #C5A989",
":. c #D2AC8B",
">. c #D1B494",
",. c #DBB895",
"<. c #DFBB98",
"1. c #E1BE9A",
"2. c #C1BFBF",
"3. c #E6C39D",
"4. c #E8C49E",
"5. c #F7EB94",
"6. c #DEC1A8",
"7. c #EAC6A0",
"8. c #EFCBA4",
"9. c #EFCDAB",
"0. c #EFCEB2",
"q. c #EFD0B6",
"w. c #F1D1B4",
"e. c #F3D5BA",
"r. c #C4C3C3",
"t. c #CECECE",
"y. c #F9DFCD",
"u. c #E3E2E2",
/* pixels */
"                                                                                                                                ",
"                                                                                                                                ",
"                                                                                                                                ",
"                                                                                                                                ",
"                                                                                                                                ",
"                                                                                                                                ",
"                                                                                                                                ",
"                                                      O O O O O O O O O O O                                                     ",
"                                                O O O O.O.O.~ ) ) | O.O.O.O O O o                                               ",
"                                            O o j G I I ) ( ) ) O.O.O.O.O.O.O.O.O O O                                           ",
"                                          O O G G I I j h ) ) ) ) O.O.O.` K O.' ] O.C O O                                       ",
"                                        o O l l l 4 I I ) I 4 ) U ) O.O.O.O.O.O.) O.) O.O O                                     ",
"                                        + p l G G G P s P P ) I ( ) ) ) ) ' O.O.O.O.) ) ` J O                                   ",
"                                        + k 4 l l Z G I 4 K I I ) / ) ) ) ) ) / ) ) ) ) ) I s O                                 ",
"                                      O 2 s s s k l l G G I G P I G I ) ) / I I U ( ) I l 4 l o O                               ",
"                                      X , ^ s l s G G l G 5 l P J P I I I l H I I l l I I z G j O                               ",
"                                        O 7 a s l l s G G l z G G G P P P P P K H Z I K l l Z k 7 O                             ",
"                                        O O 5 7 4 s s l l l G l G G G 4 H G G G G Z S Z l l l 4 s o                             ",
"                                      O #.O o O 7 5.s s l h l l l l l G Z G Z G G G 4 4 5 Z l j s * O                           ",
"                                      O y.7.@.O O % a 7 s s l s l l l l l l l l l l l l l k s k s 7 O                           ",
"                                    O y.0.e.-.>.@.O O 7 a a s s a l s s s s j l l l l s s k j l a s O                           ",
"                                    O y.q.8.9.9.8.. O O 4 7 7 7 s s s s 4 a s s s s h s 5 s k s s s O O                         ",
"                                    O 9.9.9.9.9.8.O - o o 7 5.s s 7 7 s s s s s s s s s 7 7 7 7 k 4 7 O                         ",
"                                    o 9.9.*.8.8.8.O 0 r # o 4 s 4 7 5.7 7 4 7 7 7 7 7 4 7 7 4 7 7 7 6 O                         ",
"                                  O $.9.9.8.8.8.8.o q 0 - q o O o * 4 p e q p q 7 7 7 7 4 4 4 4 4 O O                           ",
"                                  O 8.8.8.8.-.8.8.# o 0 0 r = = = o o o X o o o o X o o O O o X O                               ",
"                                  O 8.8.8.8.8.8.8.W o 0 0 0 0 0 0 0 = = = = 0 0 q q 0 = = @ = @ X                               ",
"                                  O 9.8.8.8.8.4.8...O - 0 0 0 y y 0 0 0 0 i 0 0 t i 0 i q q r - O                               ",
"                                  O 1.8.8.8.+ + 8.*.O - 0 0 - 0 - O & - 0 0 0 0 0 i i 0 0 q r 0 - O                             ",
"                                  O =.8.Q + + o + 8.o - - 0 0 O O . O O - q 0 0 0 0 0 0 0 0 0 0 0 O                             ",
"                                  O 8.+ 2 8.8.8.3.8.O - - - # O %.0.. ..X 0 - t w 0 t 0 0 w - 0 - O                             ",
"                                  O + 8.o o o o o 8...o - - o y.F F ..O ..o 0 - 0 0 0 w 0 q 0 - O                               ",
"                                  O 8.O p 3 u.t.2.1.8.S + 2 O q.9.8.3.O @.o o - - q q - q - - - X                               ",
"                                  O O < + p u.t.r.8.8. .O O O 7.F ,.O 8.8...o o - - q - = q - - O                               ",
"                                  O O 3 V B u.t.+ 8.8.8.} O O =.{ O O 8.8.8. ...O O q q w - q - o                               ",
"                                  O O t.u.u.u.2.O 8.8.8.4.8.8.O O D 8.8.8.8.8.>.[ O X - - - - - O                               ",
"                                  O ,.O Y 2.&.O 8.8.O O + O d 8.8.8.8.8.8.8.8.8.8.[ O O - - w $ O                               ",
"                                  O : ,.=.X ! 9.O O m i R r O 8.8.8.8.8.8.,.,.8.<.,.[ O - - - O                                 ",
"                                  o f o X X O O T i T i i t X 8.8.8.3.,.8.1.8.8.,.,.=.! O - O O                                 ",
"                                  o c b S i b i R R i t i e 2 C ,.,.,.8.8.4.,.,.=.=.=.! O # O                                   ",
"                                  O O R b y y i R y r t q e X O ,.,.,.,.,.,.=.,.=.=.! o   o                                     ",
"                                  O O R b q b r m r y i t q O ,.,.,.,.,.=.=.=.=.o O o                                           ",
"                                    O r r y y R y r r 0 w o O =.=.=.=.L O O O O                                                 ",
"                                    O O 0 0 r q r 0 r q w o O O O O o o I G s O                                                 ",
"                                      O O O O 0 t q q X O < O O K O I I G z s O                                                 ",
"                                        O O o o O O O : 1 O O U U O K K Z G l s O                                               ",
"                                              O O 9 9 1 O I O U z O G G G l l h O                                               ",
"                                              O s O : O G G O K l 5 O l G l l l O                                               ",
"                                              O O a O C G % 6 l l s O G l l s O O                                               ",
"                                              O m O O O O O s h s s O O O O O m : O                                             ",
"                                            O O O O % u m O O O O O O T T v o o o o                                             ",
"                                            O 7 7 l : O O O ,.0.y.7., o O O k s 4 o                                             ",
"                                            O 7 s s s s 7 E 8.9.q.8.<.X l s s a 4 O                                             ",
"                                            O 4 7 7 s s s O :.7.8.:.O l l s s 7 4 O                                             ",
"                                            O 4 4 7 7 s s O O { *.o O 7 7 7 s 7 4 o                                             ",
"                                            O O o o O O * 7 5 # X o , , O O O O O o                                             ",
"                                                    O O O O O O O 8 X O O O O                                                   ",
"                                                  O N O ; ; : O A O < 8 < < O                                                   ",
"                                                  O O O O O o O o O o O O O O                                                   ",
"                                                                                                                                ",
"                                                                                                                                ",
"                                                                                                                                ",
"                                                                                                                                ",
"                                                                                                                                "
};
