/* XPM */
static char *result[] = {
/* columns rows colors chars-per-pixel */
"64 64 127 2 ",
"   c #141312",
".  c #191716",
"X  c #1C1A17",
"o  c #1B1A18",
"O  c #221712",
"+  c #2E1C15",
"@  c #221D19",
"#  c #281F1A",
"$  c #23211C",
"%  c #29251D",
"&  c #2A2A1F",
"*  c #342017",
"=  c #3D261C",
"-  c #201F22",
";  c #242324",
":  c #2F2C23",
">  c #24252A",
",  c #27282E",
"<  c #2D2D2E",
"1  c #342F28",
"2  c #203D27",
"3  c #313121",
"4  c #373825",
"5  c #393926",
"6  c #363029",
"7  c #3D3D28",
"8  c #2E2F37",
"9  c #34353A",
"0  c gray22",
"q  c #452B1F",
"w  c #472E20",
"e  c #492E21",
"r  c #4D3123",
"t  c #543525",
"y  c #573827",
"u  c #5E3C2A",
"i  c #5B3C30",
"p  c #623F2C",
"a  c #24462C",
"s  c #295232",
"d  c #2C5936",
"f  c #44452D",
"g  c #4B4C31",
"h  c #50473B",
"j  c #5C4538",
"k  c #574B3F",
"l  c #4F5134",
"z  c #515437",
"x  c #535538",
"c  c #55583A",
"v  c #5A5C3E",
"b  c #65412E",
"n  c #68432F",
"m  c #674435",
"M  c #6E4731",
"N  c #734C3A",
"B  c #73503D",
"V  c #373943",
"C  c #3B5942",
"Z  c #3B784E",
"A  c #575642",
"S  c #5C5F41",
"D  c #675A4A",
"F  c #6B5C4C",
"G  c #765645",
"H  c #7B5C47",
"J  c #5E6042",
"K  c #636545",
"L  c #626148",
"P  c #6B6D4A",
"I  c #74604F",
"U  c #72744F",
"Y  c #737550",
"T  c #7A7C54",
"R  c #8E5E47",
"E  c #835F4B",
"W  c #89705C",
"Q  c #8D7A63",
"!  c #9C7C64",
"~  c #7F805C",
"^  c #DBCC3B",
"/  c #83845D",
"(  c #868660",
")  c #8C8C64",
"_  c #93936A",
"`  c #98976E",
"'  c #9F9E74",
"]  c #A48A70",
"[  c #AE8C71",
"{  c #AD9276",
"}  c #A09F76",
"|  c #B3977A",
" . c #B49A7C",
".. c #BB9D7F",
"X. c #A2A177",
"o. c #A3A278",
"O. c #C29D7F",
"+. c #B39A81",
"@. c #B7A191",
"#. c #BEA897",
"$. c #BBA79A",
"%. c #C6A787",
"&. c #CCA585",
"*. c #CEA887",
"=. c #D2AC8B",
"-. c #D1B494",
";. c #DBB895",
":. c #DFBB98",
">. c #E1BE9A",
",. c #C1BFBF",
"<. c #E6C39D",
"1. c #E8C49E",
"2. c #F7EB94",
"3. c #DEC1A8",
"4. c #EAC6A0",
"5. c #EFCBA4",
"6. c #EFCDAB",
"7. c #EFCEB2",
"8. c #EFD0B6",
"9. c #F1D1B4",
"0. c #F3D5BA",
"q. c #C5C3C3",
"w. c #CECECE",
"e. c #DEDDDD",
"r. c #F9DFCD",
"t. c #E3E2E2",
"y. c None",
/* pixels */
"y.y.y.y.y.y.y.y.y.y.y.y.y.y.y.y.y.y.y.y.y.y.y.y.y.y.y.y.y.y.y.y.y.y.y.y.y.y.y.y.y.y.y.y.y.y.y.y.y.y.y.y.y.y.y.y.y.y.y.y.y.y.y.y.",
"y.y.y.y.y.y.y.y.y.y.y.y.y.y.y.y.y.y.y.y.y.y.y.y.y.y.y.y.y.y.y.y.y.y.y.y.y.y.y.y.y.y.y.y.y.y.y.y.y.y.y.y.y.y.y.y.y.y.y.y.y.y.y.y.",
"y.y.y.y.y.y.y.y.y.y.y.y.y.y.y.y.y.y.y.y.y.y.y.y.y.y.y.y.y.y.y.y.y.y.y.y.y.y.y.y.y.y.y.y.y.y.y.y.y.y.y.y.y.y.y.y.y.y.y.y.y.y.y.y.",
"y.y.y.y.y.y.y.y.y.y.y.y.y.y.y.y.y.y.y.y.y.y.y.y.y.y.y.y.y.y.y.y.y.y.y.y.y.y.y.y.y.y.y.y.y.y.y.y.y.y.y.y.y.y.y.y.y.y.y.y.y.y.y.y.",
"y.y.y.y.y.y.y.y.y.y.y.y.y.y.y.y.y.y.y.y.y.y.y.y.y.y.y.y.y.y.y.y.y.y.y.y.y.y.y.y.y.y.y.y.y.y.y.y.y.y.y.y.y.y.y.y.y.y.y.y.y.y.y.y.",
"y.y.y.y.y.y.y.y.y.y.y.y.y.y.y.y.y.y.y.y.y.y.y.y.y.y.y.y.y.y.y.y.y.y.y.y.y.y.y.y.y.y.y.y.y.y.y.y.y.y.y.y.y.y.y.y.y.y.y.y.y.y.y.y.",
"y.y.y.y.y.y.y.y.y.y.y.y.y.y.y.y.y.y.y.y.y.y.y.y.y.y.y.y.y.y.y.y.y.y.y.y.y.y.y.y.y.y.y.y.y.y.y.y.y.y.y.y.y.y.y.y.y.y.y.y.y.y.y.y.",
"y.y.y.y.y.y.y.y.y.y.y.y.y.y.y.y.y.y.y.y.y.y.y.y.y.y.y.o o o o o o o o o o o y.y.y.y.y.y.y.y.y.y.y.y.y.y.y.y.y.y.y.y.y.y.y.y.y.y.",
"y.y.y.y.y.y.y.y.y.y.y.y.y.y.y.y.y.y.y.y.y.y.y.y.o o o o.o.o.~ ) ) } o.o.o.o o o X y.y.y.y.y.y.y.y.y.y.y.y.y.y.y.y.y.y.y.y.y.y.y.",
"y.y.y.y.y.y.y.y.y.y.y.y.y.y.y.y.y.y.y.y.y.y.o X z J Y Y ) ( ) ) o.o.o.o.o.o.o.o.o o o y.y.y.y.y.y.y.y.y.y.y.y.y.y.y.y.y.y.y.y.y.",
"y.y.y.y.y.y.y.y.y.y.y.y.y.y.y.y.y.y.y.y.y.o o J J Y Y z l ) ) ) ) o.o.o._ P o.` X.o.A o o y.y.y.y.y.y.y.y.y.y.y.y.y.y.y.y.y.y.y.",
"y.y.y.y.y.y.y.y.y.y.y.y.y.y.y.y.y.y.y.y.X o c c c 3 Y Y ) Y 3 ) T ) o.o.o.o.o.o.) o.) o.o o y.y.y.y.y.y.y.y.y.y.y.y.y.y.y.y.y.y.",
"y.y.y.y.y.y.y.y.y.y.y.y.y.y.y.y.y.y.y.y.o f c J J J U g U Y ) Y ( ) ) ) ) ` o.o.o.o.) ) _ L o y.y.y.y.y.y.y.y.y.y.y.y.y.y.y.y.y.",
"y.y.y.y.y.y.y.y.y.y.y.y.y.y.y.y.y.y.y.y.o z 3 c c S J Y 3 P Y Y ) / ) ) ) ) ) / ) ) ) ) ) Y g X y.y.y.y.y.y.y.y.y.y.y.y.y.y.y.y.",
"y.y.y.y.y.y.y.y.y.y.y.y.y.y.y.y.y.y.y.o 7 g g g z c c J J Y J U Y J U ) ) / U Y T / ) Y v 3 v X o y.y.y.y.y.y.y.y.y.y.y.y.y.y.y.",
"y.y.y.y.y.y.y.y.y.y.y.y.y.y.y.y.y.y.y.o & ^ g c g J J c J 4 c U L U Y Y Y c K Y U c c Y U v J l o y.y.y.y.y.y.y.y.y.y.y.y.y.y.y.",
"y.y.y.y.y.y.y.y.y.y.y.y.y.y.y.y.y.y.y.y.o 7 f g c c g J J c v J J J Y U Y U U P K J U P c c v x 7 o y.y.y.y.y.y.y.y.y.y.y.y.y.y.",
"y.y.y.y.y.y.y.y.y.y.y.y.y.y.y.y.y.y.y.y.o o 4 7 3 g g c c c J c J J J 3 J J J J J J J K c c c 3 g X y.y.y.y.y.y.y.y.y.y.y.y.y.y.",
"y.y.y.y.y.y.y.y.y.y.y.y.y.y.y.y.y.y.y.o @.o X o 7 2.g l c l x c c c c J J J J J J J 3 & 3 K c z g & o y.y.y.y.y.y.y.y.y.y.y.y.y.",
"y.y.y.y.y.y.y.y.y.y.y.y.y.y.y.y.y.y.y.o r.4.+.o o $ f t g g c g c c c c c c c c c c c c c c g x g 7 o y.y.y.y.y.y.y.y.y.y.y.y.y.",
"y.y.y.y.y.y.y.y.y.y.y.y.y.y.y.y.y.y.o r.7.0.*.-.+.o o a f g g g f c g g g g c c c c c g g c x c f g o y.y.y.y.y.y.y.y.y.y.y.y.y.",
"y.y.y.y.y.y.y.y.y.y.y.y.y.y.y.y.y.y.o r.8.5.6.6.5.  o o 3 7 7 7 g g g g = s g g g g l g 4 g c g g g o o y.y.y.y.y.y.y.y.y.y.y.y.",
"y.y.y.y.y.y.y.y.y.y.y.y.y.y.y.y.y.y.o 6.6.6.6.6.5.o = X X 7 2.g g 7 7 g l g g g g g g g 7 7 7 7 x 3 7 o y.y.y.y.y.y.y.y.y.y.y.y.",
"y.y.y.y.y.y.y.y.y.y.y.y.y.y.y.y.y.y.X 6.6.%.5.5.5.X q r @ X & g 3 7 2.7 w 3 7 7 7 7 7 3 7 7 : 7 7 7 5 o y.y.y.y.y.y.y.y.y.y.y.y.",
"y.y.y.y.y.y.y.y.y.y.y.y.y.y.y.y.y.o #.6.6.5.5.5.5.o e q = w X o X 3 3 a t a t 7 7 7 7 7 : & 3 3 3 o o y.y.y.y.y.y.y.y.y.y.y.y.y.",
"y.y.y.y.y.y.y.y.y.y.y.y.y.y.y.y.y.o 5.5.5.5.*.5.5.o X q q t * * * X X X X X X X o . o o X @ X X o y.y.y.y.y.y.y.y.y.y.y.y.y.y.y.",
"y.y.y.y.y.y.y.y.y.y.y.y.y.y.y.y.y.o 5.5.5.5.5.5.5.Q o q q q q q q q * * * * r q e w q * * * * +   y.y.y.y.y.y.y.y.y.y.y.y.y.y.y.",
"y.y.y.y.y.y.y.y.y.y.y.y.y.y.y.y.y.o 5.6.5.5.5.1.5.| X q q q q u y q q q = b q q y p q p q q t = o y.y.y.y.y.y.y.y.y.y.y.y.y.y.y.",
"y.y.y.y.y.y.y.y.y.y.y.y.y.y.y.y.y.o >.5.5.5.O O 5.%.o = q q = q = o % = q q q q q p p q w q y = q o y.y.y.y.y.y.y.y.y.y.y.y.y.y.",
"y.y.y.y.y.y.y.y.y.y.y.y.y.y.y.y.y.o *.5.{ O O X O 5.o = = q q X o   o o = w q q q q q q q q w q q . y.y.y.y.y.y.y.y.y.y.y.y.y.y.",
"y.y.y.y.y.y.y.y.y.y.y.y.y.y.y.y.y.o 5.O O 5.5.5.<.5.o = = = $ X $.8.   .X q = y q q y q q e = w = o y.y.y.y.y.y.y.y.y.y.y.y.y.y.",
"y.y.y.y.y.y.y.y.y.y.y.y.y.y.y.y.y.o O 5.X X X X o 5.| o = = X r.H H  ..  .X q = q q e q q e w = o y.y.y.y.y.y.y.y.y.y.y.y.y.y.y.",
"y.y.y.y.y.y.y.y.y.y.y.y.y.y.y.y.y.o 6.o d 2 t.w.,.1.5.D @ = o 9.6.5.<.X ..X X = = q q = q = = = . y.y.y.y.y.y.y.y.y.y.y.y.y.y.y.",
"y.y.y.y.y.y.y.y.y.y.y.y.y.y.y.y.y.o o 2 # s t.w.q.5.5. .X o o 4.I ;.X 5.5.| X X = 1 q q = q = q . y.y.y.y.y.y.y.y.y.y.y.y.y.y.y.",
"y.y.y.y.y.y.y.y.y.y.y.y.y.y.y.y.y.X o 2 Z C t.w.X 5.4.5.{ o X &.[ X X 5.5.5.|  .o o e w q = q = X y.y.y.y.y.y.y.y.y.y.y.y.y.y.y.",
"y.y.y.y.y.y.y.y.y.y.y.y.y.y.y.y.y.X o w.t.t.e.,.X 5.5.5.1.5.5.o X F 5.5.5.5.5.-.] . . = = = = = X y.y.y.y.y.y.y.y.y.y.y.y.y.y.y.",
"y.y.y.y.y.y.y.y.y.y.y.y.y.y.y.y.y.o ;.o ,.,.,.X 5.5.o o X X h 5.5.5.5.5.5.5.5.5.5.] . X = = e % X y.y.y.y.y.y.y.y.y.y.y.y.y.y.y.",
"y.y.y.y.y.y.y.y.y.y.y.y.y.y.y.y.y.o ; ;.1 X 1 5.o o M M E t o 6.5.5.5.5.4.;.;.5.>.;.] X = = = o y.y.y.y.y.y.y.y.y.y.y.y.y.y.y.y.",
"y.y.y.y.y.y.y.y.y.y.y.y.y.y.y.y.y.X j X @ X X X E M E M p y X 5.5.5.1.;.5.>.5.5.;.;.&.! o = o . y.y.y.y.y.y.y.y.y.y.y.y.y.y.y.y.",
"y.y.y.y.y.y.y.y.y.y.y.y.y.y.y.y.y.X m M G p M p E H p t u t = k ;.;.;.5.5.4.;.;.&.&.&.! o @ o y.y.y.y.y.y.y.y.y.y.y.y.y.y.y.y.y.",
"y.y.y.y.y.y.y.y.y.y.y.y.y.y.y.y.y.X o E M u u p E p t u q r X X ;.;.;.;.;.;.&.;.&.&.! X y.X y.y.y.y.y.y.y.y.y.y.y.y.y.y.y.y.y.y.",
"y.y.y.y.y.y.y.y.y.y.y.y.y.y.y.y.y.X X E M w M t B t u u y q X ;.;.;.;.;.*.%.&.&.X X X y.y.y.y.y.y.y.y.y.y.y.y.y.y.y.y.y.y.y.y.y.",
"y.y.y.y.y.y.y.y.y.y.y.y.y.y.y.y.y.y.X t t u u E u t t q r X o %.&.%.&.I o o o o y.y.y.y.y.y.y.y.y.y.y.y.y.y.y.y.y.y.y.y.y.y.y.y.",
"y.y.y.y.y.y.y.y.y.y.y.y.y.y.y.y.y.y.X X e e t w t q t q q X o o X o X X Y J g o y.y.y.y.y.y.y.y.y.y.y.y.y.y.y.y.y.y.y.y.y.y.y.y.",
"y.y.y.y.y.y.y.y.y.y.y.y.y.y.y.y.y.y.y.o . o o w t q q X X < o o P X Y Y J v g o y.y.y.y.y.y.y.y.y.y.y.y.y.y.y.y.y.y.y.y.y.y.y.y.",
"y.y.y.y.y.y.y.y.y.y.y.y.y.y.y.y.y.y.y.y.. . o o o o o ; < o o T T X P P J J c g X y.y.y.y.y.y.y.y.y.y.y.y.y.y.y.y.y.y.y.y.y.y.y.",
"y.y.y.y.y.y.y.y.y.y.y.y.y.y.y.y.y.y.y.y.y.y.y.o o 0 0 < o Y o T v X J J J c c l X y.y.y.y.y.y.y.y.y.y.y.y.y.y.y.y.y.y.y.y.y.y.y.",
"y.y.y.y.y.y.y.y.y.y.y.y.y.y.y.y.y.y.y.y.y.y.y.o l o ; o J J o P c 5 o c J c c c X y.y.y.y.y.y.y.y.y.y.y.y.y.y.y.y.y.y.y.y.y.y.y.",
"y.y.y.y.y.y.y.y.y.y.y.y.y.y.y.y.y.y.y.y.y.y.y.o o f o c J ; 5 c c g o S c c g X X y.y.y.y.y.y.y.y.y.y.y.y.y.y.y.y.y.y.y.y.y.y.y.",
"y.y.y.y.y.y.y.y.y.y.y.y.y.y.y.y.y.y.y.y.y.y.y.o N o o o o o g g g g o o o o X N ; X y.y.y.y.y.y.y.y.y.y.y.y.y.y.y.y.y.y.y.y.y.y.",
"y.y.y.y.y.y.y.y.y.y.y.y.y.y.y.y.y.y.y.y.y.y.o o o o @ i N o o o o o o R R m o o X X y.y.y.y.y.y.y.y.y.y.y.y.y.y.y.y.y.y.y.y.y.y.",
"y.y.y.y.y.y.y.y.y.y.y.y.y.y.y.y.y.y.y.y.y.y.o 7 7 z : X o o ;.7.r.4.: X o o c g : X y.y.y.y.y.y.y.y.y.y.y.y.y.y.y.y.y.y.y.y.y.y.",
"y.y.y.y.y.y.y.y.y.y.y.y.y.y.y.y.y.y.y.y.y.y.o 7 g g g g 7 W 5.6.8.5.:.. c g g f 3 X y.y.y.y.y.y.y.y.y.y.y.y.y.y.y.y.y.y.y.y.y.y.",
"y.y.y.y.y.y.y.y.y.y.y.y.y.y.y.y.y.y.y.y.y.y.o 3 7 7 g g g o =.4.5.=.o c c g g 7 3 X y.y.y.y.y.y.y.y.y.y.y.y.y.y.y.y.y.y.y.y.y.y.",
"y.y.y.y.y.y.y.y.y.y.y.y.y.y.y.y.y.y.y.y.y.y.o 3 3 7 7 g g $ . [ %.X o 7 7 7 g 7 3 X y.y.y.y.y.y.y.y.y.y.y.y.y.y.y.y.y.y.y.y.y.y.",
"y.y.y.y.y.y.y.y.y.y.y.y.y.y.y.y.y.y.y.y.y.y.o o o o o o % 7 4 o . X : : o X X X X X y.y.y.y.y.y.y.y.y.y.y.y.y.y.y.y.y.y.y.y.y.y.",
"y.y.y.y.y.y.y.y.y.y.y.y.y.y.y.y.y.y.y.y.y.y.y.y.y.y.o o o o o o . 9 o o o - o y.y.y.y.y.y.y.y.y.y.y.y.y.y.y.y.y.y.y.y.y.y.y.y.y.",
"y.y.y.y.y.y.y.y.y.y.y.y.y.y.y.y.y.y.y.y.y.y.y.y.y.o V o , > ; o X X , , , , o y.y.y.y.y.y.y.y.y.y.y.y.y.y.y.y.y.y.y.y.y.y.y.y.y.",
"y.y.y.y.y.y.y.y.y.y.y.y.y.y.y.y.y.y.y.y.y.y.y.y.y.o o o o o o o 8 - o > > , o y.y.y.y.y.y.y.y.y.y.y.y.y.y.y.y.y.y.y.y.y.y.y.y.y.",
"y.y.y.y.y.y.y.y.y.y.y.y.y.y.y.y.y.y.y.y.y.y.y.y.y.y.y.y.y.y.y.o X X o o o o o y.y.y.y.y.y.y.y.y.y.y.y.y.y.y.y.y.y.y.y.y.y.y.y.y.",
"y.y.y.y.y.y.y.y.y.y.y.y.y.y.y.y.y.y.y.y.y.y.y.y.y.y.y.y.y.y.y.y.y.y.y.y.y.y.y.y.y.y.y.y.y.y.y.y.y.y.y.y.y.y.y.y.y.y.y.y.y.y.y.y.",
"y.y.y.y.y.y.y.y.y.y.y.y.y.y.y.y.y.y.y.y.y.y.y.y.y.y.y.y.y.y.y.y.y.y.y.y.y.y.y.y.y.y.y.y.y.y.y.y.y.y.y.y.y.y.y.y.y.y.y.y.y.y.y.y.",
"y.y.y.y.y.y.y.y.y.y.y.y.y.y.y.y.y.y.y.y.y.y.y.y.y.y.y.y.y.y.y.y.y.y.y.y.y.y.y.y.y.y.y.y.y.y.y.y.y.y.y.y.y.y.y.y.y.y.y.y.y.y.y.y.",
"y.y.y.y.y.y.y.y.y.y.y.y.y.y.y.y.y.y.y.y.y.y.y.y.y.y.y.y.y.y.y.y.y.y.y.y.y.y.y.y.y.y.y.y.y.y.y.y.y.y.y.y.y.y.y.y.y.y.y.y.y.y.y.y."
};
