/* XPM */
static char *result[] = {
/* columns rows colors chars-per-pixel */
"64 64 148 2 ",
"   c #141312",
".  c #181716",
"X  c #1A1917",
"o  c #1B1A18",
"O  c #221713",
"+  c #241D19",
"@  c #2B1E19",
"#  c #23211D",
"$  c #28221E",
"%  c #2A2A1E",
"&  c #342017",
"*  c #36231B",
"=  c #3D261C",
"-  c #3D281E",
";  c #1D1E22",
":  c #1F2025",
">  c #2D2C22",
",  c #25252B",
"<  c #27282E",
"1  c #2D2D2F",
"2  c #372921",
"3  c #3B2C23",
"4  c #342E28",
"5  c #213323",
"6  c #203D27",
"7  c #313121",
"8  c #3A3A26",
"9  c #3D3D28",
"0  c #2E2F37",
"q  c #2F3035",
"w  c #343434",
"e  c #333439",
"r  c #3A3A39",
"t  c #462B1F",
"y  c #482C1F",
"u  c #472E20",
"i  c #492D20",
"p  c #4E3224",
"a  c #533525",
"s  c #593827",
"d  c #543728",
"f  c #5E3C2A",
"g  c #5B3C30",
"h  c #603F2C",
"j  c #3F402B",
"k  c #2B5634",
"l  c #2F623C",
"z  c #31643D",
"x  c #43442C",
"c  c #47482E",
"v  c #48492F",
"b  c #5B592B",
"n  c #454730",
"m  c #4A4137",
"M  c #4B4C31",
"N  c #504F33",
"B  c #5C4B3E",
"V  c #4F5035",
"C  c #515236",
"Z  c #535639",
"A  c #55583A",
"S  c #5A5C3E",
"D  c #65412D",
"F  c #674535",
"G  c #6E4731",
"H  c #6B4834",
"J  c #704933",
"K  c #76523F",
"L  c #79533F",
"P  c #676228",
"I  c #76712F",
"U  c #5C5E40",
"Y  c #454754",
"T  c #645344",
"R  c #7F5540",
"E  c #755F4D",
"W  c #5E6042",
"Q  c #646746",
"!  c #676A46",
"~  c #686A47",
"^  c #6B6D4A",
"/  c #7F624C",
"(  c #6F714D",
")  c #72744F",
"_  c #7A6553",
"`  c #756453",
"'  c #737550",
"]  c #777853",
"[  c #7B7E54",
"{  c #7C7D59",
"}  c #8E5E47",
"|  c #835F4A",
" . c #81644E",
".. c #826854",
"X. c #8C6E58",
"o. c #8A7764",
"O. c #8F7963",
"+. c #948C32",
"@. c #82835C",
"#. c #878760",
"$. c #8C8C64",
"%. c #9E8064",
"&. c #9D866D",
"*. c #96966E",
"=. c #9E9D74",
"-. c #A1886F",
";. c #A58B71",
":. c #A08D7C",
">. c #A09F76",
",. c #B79074",
"<. c #B3977A",
"1. c #B39A7C",
"2. c #A2A177",
"3. c #A3A278",
"4. c #AA998C",
"5. c #B49B83",
"6. c #BA9F81",
"7. c #B7A191",
"8. c #C59F80",
"9. c #CCA585",
"0. c #C4A887",
"q. c #CCAA89",
"w. c #C3A484",
"e. c #D2AD8B",
"r. c #D1B28F",
"t. c #DAB693",
"y. c #DBB895",
"u. c #E1BF9A",
"i. c #D1B8A5",
"p. c #C1BFBF",
"a. c #E4C19C",
"s. c #E8C59F",
"d. c #F7EB94",
"f. c #E9C7A0",
"g. c #EFCBA4",
"h. c #E1C5AD",
"j. c #EFCDAC",
"k. c #E3C3A3",
"l. c #EFD0B6",
"z. c #C1C8C2",
"x. c #CECECE",
"c. c #C3C2C2",
"v. c #D0D0D0",
"b. c #DCDCDC",
"n. c #F4D7C1",
"m. c #F9DFCD",
"M. c #E3E2E2",
"N. c None",
/* pixels */
"N.N.N.N.N.N.N.N.N.N.N.N.N.N.N.N.N.N.N.N.N.N.N.N.N.N.N.N.N.N.N.N.N.N.N.N.N.N.N.N.N.N.N.N.N.N.N.N.N.N.N.N.N.N.N.N.N.N.N.N.N.N.N.N.",
"N.N.N.N.N.N.N.N.N.N.N.N.N.N.N.N.N.N.N.N.N.N.N.N.N.N.N.N.N.N.N.N.N.N.N.N.N.N.N.N.N.N.N.N.N.N.N.N.N.N.N.N.N.N.N.N.N.N.N.N.N.N.N.N.",
"N.N.N.N.N.N.N.N.N.N.N.N.N.N.N.N.N.N.N.N.N.N.N.N.N.N.N.N.N.N.N.N.N.N.N.N.N.N.N.N.N.N.N.N.N.N.N.N.N.N.N.N.N.N.N.N.N.N.N.N.N.N.N.N.",
"N.N.N.N.N.N.N.N.N.N.N.N.N.N.N.N.N.N.N.N.N.N.N.N.N.N.N.N.N.N.N.N.N.N.N.N.N.N.N.N.N.N.N.N.N.N.N.N.N.N.N.N.N.N.N.N.N.N.N.N.N.N.N.N.",
"N.N.N.N.N.N.N.N.N.N.N.N.N.N.N.N.N.N.N.N.N.N.N.N.N.N.N.N.N.N.N.N.N.N.N.N.N.N.N.N.N.N.N.N.N.N.N.N.N.N.N.N.N.N.N.N.N.N.N.N.N.N.N.N.",
"N.N.N.N.N.N.N.N.N.N.N.N.N.N.N.N.N.N.N.N.N.N.N.N.N.N.N.N.N.N.N.N.N.N.N.N.N.N.N.N.N.N.N.N.N.N.N.N.N.N.N.N.N.N.N.N.N.N.N.N.N.N.N.N.",
"N.N.N.N.N.N.N.N.N.N.N.N.N.N.N.N.N.N.N.N.N.N.N.N.N.N.N.N.N.N.N.N.N.N.N.N.N.N.N.N.N.N.N.N.N.N.N.N.N.N.N.N.N.N.N.N.N.N.N.N.N.N.N.N.",
"N.N.N.N.N.N.N.N.N.N.N.N.N.N.N.N.N.N.N.N.N.N.N.N.N.N.N.o o o o o o o o o N.N.N.N.N.N.N.N.N.N.N.N.N.N.N.N.N.N.N.N.N.N.N.N.N.N.N.N.",
"N.N.N.N.N.N.N.N.N.N.N.N.N.N.N.N.N.N.N.N.N.N.N.N.N.o o o $.=.3.3.=.$.3.o o o o N.N.N.N.N.N.N.N.N.N.N.N.N.N.N.N.N.N.N.N.N.N.N.N.N.",
"N.N.N.N.N.N.N.N.N.N.N.N.N.N.N.N.N.N.N.N.N.N.X X o =.' $.' 2.3.3.2.3.3.=.3.3.*.o o o N.N.N.N.N.N.N.N.N.N.N.N.N.N.N.N.N.N.N.N.N.N.",
"N.N.N.N.N.N.N.N.N.N.N.N.N.N.N.N.N.N.N.N.N.o o W A 7 ' ( $.$.$.$.2.3.3.$.$.3.=.3.3.o o N.N.N.N.N.N.N.N.N.N.N.N.N.N.N.N.N.N.N.N.N.",
"N.N.N.N.N.N.N.N.N.N.N.N.N.N.N.N.N.N.N.N.o # 8 W A ' ' ' A $.$.$.$.2.*.3.3.3.3.2.3.$.3.o o N.N.N.N.N.N.N.N.N.N.N.N.N.N.N.N.N.N.N.",
"N.N.N.N.N.N.N.N.N.N.N.N.N.N.N.N.N.N.N.o o A W A W 7 ' ' @.] c $.@.$.$.=.2.=.$.*.3.=.$.$.{ o N.N.N.N.N.N.N.N.N.N.N.N.N.N.N.N.N.N.",
"N.N.N.N.N.N.N.N.N.N.N.N.N.N.N.N.N.N.N.o 7 A A U A W ~ A ) ) ' @.{ $.$.$.$.$.$.$.$.$.$.$.$.C o N.N.N.N.N.N.N.N.N.N.N.N.N.N.N.N.N.",
"N.N.N.N.N.N.N.N.N.N.N.N.N.N.N.N.N.N.N.o j v 4 A A U U ^ W A ) ) ] $.$.' ' ' ' ' ' ' $.' C ~ M o N.N.N.N.N.N.N.N.N.N.N.N.N.N.N.N.",
"N.N.N.N.N.N.N.N.N.N.N.N.N.N.N.N.N.N.N.o d.v A n U A Z Q 7 ^ ) ' ) ' Q A Q ( Q ^ V Z A S ' W A o o N.N.N.N.N.N.N.N.N.N.N.N.N.N.N.",
"N.N.N.N.N.N.N.N.N.N.N.N.N.N.N.N.N.N.N.o I 9 M A v S Q U W 7 W U ' ) ) ) ) ) ) ) ) ) ) S Z Q A v o N.N.N.N.N.N.N.N.N.N.N.N.N.N.N.",
"N.N.N.N.N.N.N.N.N.N.N.N.N.N.N.N.N.N.N.o 7 9 9 M A A v C W S U S 9 A Q S S S Q U W W W U S U C v o o N.N.N.N.N.N.N.N.N.N.N.N.N.N.",
"N.N.N.N.N.N.N.N.N.N.N.N.N.N.N.N.N.N.N.  o o % 7 C M M M v A A W U W W W S S A A S W c 7 7 Z v v v o N.N.N.N.N.N.N.N.N.N.N.N.N.N.",
"N.N.N.N.N.N.N.N.N.N.N.N.N.N.N.N.N.N.o i.5.> o o P c v v A v M A A A A A A A A A A A A A A A S v 9 o N.N.N.N.N.N.N.N.N.N.N.N.N.N.",
"N.N.N.N.N.N.N.N.N.N.N.N.N.N.N.N.N.N.o m.j.k.7.o.X o 7 9 M v Z A M M M A A A A S A A A v M A M x 9 7 o N.N.N.N.N.N.N.N.N.N.N.N.N.",
"N.N.N.N.N.N.N.N.N.N.N.N.N.N.N.N.N.N.o m.n.g.j.j.1.o o 9 M j v v M M 7 M M v M M V A A V v A M A M 9 o N.N.N.N.N.N.N.N.N.N.N.N.N.",
"N.N.N.N.N.N.N.N.N.N.N.N.N.N.N.N.N.o 4.j.g.j.j.g.o y o o 7 C c j c M x 9 x v M M M M v M v c 9 j M 9 X N.N.N.N.N.N.N.N.N.N.N.N.N.",
"N.N.N.N.N.N.N.N.N.N.N.N.N.N.N.N.N.o m.j.j.g.g.g.o y * X X 7 v 7 9 M x x j x 9 9 9 9 8 9 9 9 % c 9 9 o N.N.N.N.N.N.N.N.N.N.N.N.N.",
"N.N.N.N.N.N.N.N.N.N.N.N.N.N.N.N.N.o n.g.g.g.j.g.o - p & = X X 7 9 b +.j M 7 9 9 9 9 9 9 8 % 7 7 $ o o N.N.N.N.N.N.N.N.N.N.N.N.N.",
"N.N.N.N.N.N.N.N.N.N.N.N.N.N.N.N.N.o j.g.r.g.g.g.o o t a s t t X X X o X o o o o o o o o o o o o X N.N.N.N.N.N.N.N.N.N.N.N.N.N.N.",
"N.N.N.N.N.N.N.N.N.N.N.N.N.N.N.N.N.o g.g.g.g.g.g.g.o = t t t t & & & & & t u u t i u i & & & & & . N.N.N.N.N.N.N.N.N.N.N.N.N.N.N.",
"N.N.N.N.N.N.N.N.N.N.N.N.N.N.N.N.N.# j.g.g.g.9.g.g.o = f a t f t f = a t i t t f y s t d t t t t o N.N.N.N.N.N.N.N.N.N.N.N.N.N.N.",
"N.N.N.N.N.N.N.N.N.N.N.N.N.N.N.N.N.o g.g.g.g.g.g.g.o = a t t = t = = t t t = t t a f f i t t t t o N.N.N.N.N.N.N.N.N.N.N.N.N.N.N.",
"N.N.N.N.N.N.N.N.N.N.N.N.N.N.N.N.N.M g.g.r.O O O g.O.X t t t t + o o X + = t = t t i i t t i = t + N.N.N.N.N.N.N.N.N.N.N.N.N.N.N.",
"N.N.N.N.N.N.N.N.N.N.N.N.N.N.N.N.o ` g.g.O 2 g...@ w.o t = t o o :.    o X = t t t s t y t h = t o N.N.N.N.N.N.N.N.N.N.N.N.N.N.N.",
"N.N.N.N.N.N.N.N.N.N.N.N.N.N.N.N.o 6.f.O g.X o + g.g.o = = = o h. .m.o 1.o - = t y t t t t t t t o N.N.N.N.N.N.N.N.N.N.N.N.N.N.N.",
"N.N.N.N.N.N.N.N.N.N.N.N.N.N.N.N.o O j.o o b.x.p.o g.1.o - O O  .l.q.X g.<.. = = t = = t t t t * o N.N.N.N.N.N.N.N.N.N.N.N.N.N.N.",
"N.N.N.N.N.N.N.N.N.N.N.N.N.N.N.N.o T o 5 l b.M.p.o g.y.o * o o O.g.y.X g.s.<.o * = t t t * t = = o N.N.N.N.N.N.N.N.N.N.N.N.N.N.N.",
"N.N.N.N.N.N.N.N.N.N.N.N.N.N.N.N.N.o M.O k z.M.p.o g.g.1.o o o y.y.+ o g.g.w.<.o o = i i t = = = o N.N.N.N.N.N.N.N.N.N.N.N.N.N.N.",
"N.N.N.N.N.N.N.N.N.N.N.N.N.N.N.N.N.o r 6 l M.M.p.o g.9.g.1.1.o o o o g.g.g.g.g.1.;.o * - = = = = o N.N.N.N.N.N.N.N.N.N.N.N.N.N.N.",
"N.N.N.N.N.N.N.N.N.N.N.N.N.N.N.N.N.o o b.v.b.c.o g.g.g.-.o o g.g.g.g.g.g.g.g.g.g.f.;.o = = = i o N.N.N.N.N.N.N.N.N.N.N.N.N.N.N.N.",
"N.N.N.N.N.N.N.N.N.N.N.N.N.N.N.N.o B 9.X o o o y.g.. o = h X X g.g.g.g.g.g.g.u.g.y.y.;.o = = = o N.N.N.N.N.N.N.N.N.N.N.N.N.N.N.N.",
"N.N.N.N.N.N.N.N.N.N.N.N.N.N.N.N.o o o 4 f.a.4 o O J G G G t o g.g.g.g.a.s.y.g.g.y.y.8.T o t o N.N.N.N.N.N.N.N.N.N.N.N.N.N.N.N.N.",
"N.N.N.N.N.N.N.N.N.N.N.N.N.N.N.N.N.o G H o o # R | G | h h h o a.y.g.g.y.g.y.y.y.9.9.9.X.o o o N.N.N.N.N.N.N.N.N.N.N.N.N.N.N.N.N.",
"N.N.N.N.N.N.N.N.N.N.N.N.N.N.N.N.N.o p o H G G G G G h a p y + &.y.g.g.a.y.y.9.q.9.9.,.o N.o N.N.N.N.N.N.N.N.N.N.N.N.N.N.N.N.N.N.",
"N.N.N.N.N.N.N.N.N.N.N.N.N.N.N.N.N.o d K H h G f h a f f a t X q.y.y.y.t.y.9.9.9./ o o N.N.N.N.N.N.N.N.N.N.N.N.N.N.N.N.N.N.N.N.N.",
"N.N.N.N.N.N.N.N.N.N.N.N.N.N.N.N.N.o = F h J G f  .a d d f y X 9.9.9.9.9.e.o o o o N.N.N.N.N.N.N.N.N.N.N.N.N.N.N.N.N.N.N.N.N.N.N.",
"N.N.N.N.N.N.N.N.N.N.N.N.N.N.N.N.N.N.o i a s d t a y a t s X E o o X o o o S V o N.N.N.N.N.N.N.N.N.N.N.N.N.N.N.N.N.N.N.N.N.N.N.N.",
"N.N.N.N.N.N.N.N.N.N.N.N.N.N.N.N.N.N.o o t y t t f t t a o o o o o ) ' ' ^ S M o N.N.N.N.N.N.N.N.N.N.N.N.N.N.N.N.N.N.N.N.N.N.N.N.",
"N.N.N.N.N.N.N.N.N.N.N.N.N.N.N.N.N.N.N.o X X X t o t o o e o o [ c > $.' U W V o o N.N.N.N.N.N.N.N.N.N.N.N.N.N.N.N.N.N.N.N.N.N.N.",
"N.N.N.N.N.N.N.N.N.N.N.N.N.N.N.N.N.N.N.N.N.X N.X o o r e X o [ ( V o ' W W U Z M o N.N.N.N.N.N.N.N.N.N.N.N.N.N.N.N.N.N.N.N.N.N.N.",
"N.N.N.N.N.N.N.N.N.N.N.N.N.N.N.N.N.N.N.N.N.N.N.o o # 1 o C o ! A V o W A S A V Z o N.N.N.N.N.N.N.N.N.N.N.N.N.N.N.N.N.N.N.N.N.N.N.",
"N.N.N.N.N.N.N.N.N.N.N.N.N.N.N.N.N.N.N.N.N.N.N.o M o o A o C A Z x X A Q A A M Z o N.N.N.N.N.N.N.N.N.N.N.N.N.N.N.N.N.N.N.N.N.N.N.",
"N.N.N.N.N.N.N.N.N.N.N.N.N.N.N.N.N.N.N.N.N.N.X o o o o x o M C C % 4 S A 7 o o o o N.N.N.N.N.N.N.N.N.N.N.N.N.N.N.N.N.N.N.N.N.N.N.",
"N.N.N.N.N.N.N.N.N.N.N.N.N.N.N.N.N.N.N.N.N.N.o o o g R o o o o o o o o o 3  .F o o o N.N.N.N.N.N.N.N.N.N.N.N.N.N.N.N.N.N.N.N.N.N.",
"N.N.N.N.N.N.N.N.N.N.N.N.N.N.N.N.N.N.N.N.N.N.o 9 7 o o o y.g.m.l.# o o o o O o c 7 o N.N.N.N.N.N.N.N.N.N.N.N.N.N.N.N.N.N.N.N.N.N.",
"N.N.N.N.N.N.N.N.N.N.N.N.N.N.N.N.N.N.N.N.N.N.X 9 x M M + g.g.l.g.g.o A A A V v v % o N.N.N.N.N.N.N.N.N.N.N.N.N.N.N.N.N.N.N.N.N.N.",
"N.N.N.N.N.N.N.N.N.N.N.N.N.N.N.N.N.N.N.N.N.N.X 7 c M M o q.g.g.y.d 1 V V V M M j 7 o N.N.N.N.N.N.N.N.N.N.N.N.N.N.N.N.N.N.N.N.N.N.",
"N.N.N.N.N.N.N.N.N.N.N.N.N.N.N.N.N.N.N.N.N.N.o 7 7 9 M > o 0.q._ X v V M c v j p 7 o N.N.N.N.N.N.N.N.N.N.N.N.N.N.N.N.N.N.N.N.N.N.",
"N.N.N.N.N.N.N.N.N.N.N.N.N.N.N.N.N.N.N.N.N.N.o o > o 8 9 p o o o j 8 j j 7 7 5 o o o N.N.N.N.N.N.N.N.N.N.N.N.N.N.N.N.N.N.N.N.N.N.",
"N.N.N.N.N.N.N.N.N.N.N.N.N.N.N.N.N.N.N.N.N.N.N.o X X o o o o o o . X o o o o o o N.N.N.N.N.N.N.N.N.N.N.N.N.N.N.N.N.N.N.N.N.N.N.N.",
"N.N.N.N.N.N.N.N.N.N.N.N.N.N.N.N.N.N.N.N.N.N.N.o , 0 o : : : : o N.o , e q < < o N.N.N.N.N.N.N.N.N.N.N.N.N.N.N.N.N.N.N.N.N.N.N.N.",
"N.N.N.N.N.N.N.N.N.N.N.N.N.N.N.N.N.N.N.N.N.N.N.o X o o o ; ; o o o Y o e q < , o N.N.N.N.N.N.N.N.N.N.N.N.N.N.N.N.N.N.N.N.N.N.N.N.",
"N.N.N.N.N.N.N.N.N.N.N.N.N.N.N.N.N.N.N.N.N.N.N.N.N.N.N.N.o o o N.o o o o o o o o N.N.N.N.N.N.N.N.N.N.N.N.N.N.N.N.N.N.N.N.N.N.N.N.",
"N.N.N.N.N.N.N.N.N.N.N.N.N.N.N.N.N.N.N.N.N.N.N.N.N.N.N.N.N.N.N.N.o N.N.N.N.N.N.N.N.N.N.N.N.N.N.N.N.N.N.N.N.N.N.N.N.N.N.N.N.N.N.N.",
"N.N.N.N.N.N.N.N.N.N.N.N.N.N.N.N.N.N.N.N.N.N.N.N.N.N.N.N.N.N.N.N.N.N.N.N.N.N.N.N.N.N.N.N.N.N.N.N.N.N.N.N.N.N.N.N.N.N.N.N.N.N.N.N.",
"N.N.N.N.N.N.N.N.N.N.N.N.N.N.N.N.N.N.N.N.N.N.N.N.N.N.N.N.N.N.N.N.N.N.N.N.N.N.N.N.N.N.N.N.N.N.N.N.N.N.N.N.N.N.N.N.N.N.N.N.N.N.N.N.",
"N.N.N.N.N.N.N.N.N.N.N.N.N.N.N.N.N.N.N.N.N.N.N.N.N.N.N.N.N.N.N.N.N.N.N.N.N.N.N.N.N.N.N.N.N.N.N.N.N.N.N.N.N.N.N.N.N.N.N.N.N.N.N.N."
};
