/* XPM */
static char *result[] = {
/* columns rows colors chars-per-pixel */
"64 64 149 2 ",
"   c #141312",
".  c #1A1917",
"X  c #1B1A18",
"o  c #221713",
"O  c #211C19",
"+  c #291F1A",
"@  c #311D16",
"#  c #1B201A",
"$  c #25231D",
"%  c #2D201A",
"&  c #2F2F1F",
"*  c #342017",
"=  c #35231A",
"-  c #3D261C",
";  c #3F291C",
":  c #1C1C20",
">  c #1F2025",
",  c #212124",
"<  c #2E2D22",
"1  c #242529",
"2  c #27282E",
"3  c #28292F",
"4  c #2B2622",
"5  c #362720",
"6  c #203724",
"7  c #203D27",
"8  c #313121",
"9  c #3A3A26",
"0  c #34302B",
"q  c #39362D",
"w  c #3D3D28",
"e  c #2B2C33",
"r  c #2F3038",
"t  c #333436",
"y  c #3F3830",
"u  c gray22",
"i  c #40271D",
"p  c #462B1F",
"a  c #482C1F",
"s  c #472E20",
"d  c #4A2D21",
"f  c #4F3123",
"g  c #473128",
"h  c #543525",
"j  c #583727",
"k  c #593827",
"l  c #5E3C2A",
"z  c #443B32",
"x  c #5B3C30",
"c  c #3F402B",
"v  c #43442C",
"b  c #48492F",
"n  c #464731",
"m  c #494137",
"M  c #4B4C31",
"N  c #574B3F",
"B  c #4F5135",
"V  c #515437",
"C  c #545739",
"Z  c #55583A",
"A  c #595C3E",
"S  c #65412D",
"D  c #68432E",
"F  c #614032",
"G  c #6D4632",
"H  c #6F4832",
"J  c #6F4B39",
"K  c #714C36",
"L  c #704C3A",
"P  c #77523D",
"I  c #79543E",
"U  c #3A774D",
"Y  c #3C7B50",
"T  c #584C40",
"R  c #5C5F41",
"E  c #6C5D4E",
"W  c #7C5C47",
"Q  c #5E6042",
"!  c #646645",
"~  c #666947",
"^  c #686B47",
"/  c #676948",
"(  c #6B6D4A",
")  c #6F714D",
"_  c #71734E",
"`  c #7D6C5A",
"'  c #737550",
"]  c #757850",
"[  c #7A7D55",
"{  c #7D7D59",
"}  c #835F4B",
"|  c #8B5C46",
" . c #81634C",
".. c #886B54",
"X. c #86715C",
"o. c #907660",
"O. c #947E67",
"+. c #997C64",
"@. c #6F8173",
"#. c #A69C34",
"$. c #878761",
"%. c #8C8C64",
"&. c #95956C",
"*. c #82807F",
"=. c #9D9D73",
"-. c #A48A70",
";. c #AB9176",
":. c #B09577",
">. c #BB9477",
",. c #B3977A",
"<. c #B49A7C",
"1. c #A1A077",
"2. c #A3A278",
"3. c #DCCD42",
"4. c #E8DB66",
"5. c #B39A81",
"6. c #B7A191",
"7. c #B4B3B2",
"8. c #C5A687",
"9. c #CCA585",
"0. c #CCAE8C",
"q. c #D2AD8C",
"w. c #D3B18F",
"e. c #C0AB9E",
"r. c #D7B491",
"t. c #DAB693",
"y. c #D6B894",
"u. c #DBB895",
"i. c #E1BF9A",
"p. c #C1BFBF",
"a. c #BEC5BF",
"s. c #E6C29D",
"d. c #F7EB94",
"f. c #EAC6A0",
"g. c #EFCBA4",
"h. c #E7C8AE",
"j. c #EFCDAC",
"k. c #E7CCB7",
"l. c #EFD0B6",
"z. c #F2D4B9",
"x. c #C7C6C6",
"c. c #C8C7C7",
"v. c #CECECE",
"b. c #D4D4D3",
"n. c #F3D7C0",
"m. c #F6DBC6",
"M. c #F9DFCD",
"N. c #E3E2E2",
"B. c None",
/* pixels */
"B.B.B.B.B.B.B.B.B.B.B.B.B.B.B.B.B.B.B.B.B.B.B.B.B.B.B.B.B.B.B.B.B.B.B.B.B.B.B.B.B.B.B.B.B.B.B.B.B.B.B.B.B.B.B.B.B.B.B.B.B.B.B.B.",
"B.B.B.B.B.B.B.B.B.B.B.B.B.B.B.B.B.B.B.B.B.B.B.B.B.B.B.B.B.B.B.B.B.B.B.B.B.B.B.B.B.B.B.B.B.B.B.B.B.B.B.B.B.B.B.B.B.B.B.B.B.B.B.B.",
"B.B.B.B.B.B.B.B.B.B.B.B.B.B.B.B.B.B.B.B.B.B.B.B.B.B.B.B.B.B.B.B.B.B.B.B.B.B.B.B.B.B.B.B.B.B.B.B.B.B.B.B.B.B.B.B.B.B.B.B.B.B.B.B.",
"B.B.B.B.B.B.B.B.B.B.B.B.B.B.B.B.B.B.B.B.B.B.B.B.B.B.B.B.B.B.B.B.B.B.B.B.B.B.B.B.B.B.B.B.B.B.B.B.B.B.B.B.B.B.B.B.B.B.B.B.B.B.B.B.",
"B.B.B.B.B.B.B.B.B.B.B.B.B.B.B.B.B.B.B.B.B.B.B.B.B.B.B.B.B.B.B.B.B.B.B.B.B.B.B.B.B.B.B.B.B.B.B.B.B.B.B.B.B.B.B.B.B.B.B.B.B.B.B.B.",
"B.B.B.B.B.B.B.B.B.B.B.B.B.B.B.B.B.B.B.B.B.B.B.B.B.B.B.B.B.B.B.B.B.B.B.B.B.B.B.B.B.B.B.B.B.B.B.B.B.B.B.B.B.B.B.B.B.B.B.B.B.B.B.B.",
"B.B.B.B.B.B.B.B.B.B.B.B.B.B.B.B.B.B.B.B.B.B.B.B.B.B.B.B.B.B.B.B.B.B.B.B.B.B.B.B.B.B.B.B.B.B.B.B.B.B.B.B.B.B.B.B.B.B.B.B.B.B.B.B.",
"B.B.B.B.B.B.B.B.B.B.B.B.B.B.B.B.B.B.B.B.B.B.B.B.B.B.B.B.B.. X . . B.B.B.B.B.B.B.B.B.B.B.B.B.B.B.B.B.B.B.B.B.B.B.B.B.B.B.B.B.B.B.",
"B.B.B.B.B.B.B.B.B.B.B.B.B.B.B.B.B.B.B.B.B.B.B.B.B.X X X X < %.' X X X X X B.B.B.B.B.B.B.B.B.B.B.B.B.B.B.B.B.B.B.B.B.B.B.B.B.B.B.",
"B.B.B.B.B.B.B.B.B.B.B.B.B.B.B.B.B.B.B.B.B.B.B.. X q 2.2.2.&.%.2.2.=.2.2.1.X X X B.B.B.B.B.B.B.B.B.B.B.B.B.B.B.B.B.B.B.B.B.B.B.B.",
"B.B.B.B.B.B.B.B.B.B.B.B.B.B.B.B.B.B.B.B.B.. X R R ' %.%.R %.%.2.2.2.=.=.2.2.2.2.X X B.B.B.B.B.B.B.B.B.B.B.B.B.B.B.B.B.B.B.B.B.B.",
"B.B.B.B.B.B.B.B.B.B.B.B.B.B.B.B.B.B.B.B.X w Q Z ' ' ! M %.%.%.%.=.2.2.2.2.1.2.%.&.2.X X B.B.B.B.B.B.B.B.B.B.B.B.B.B.B.B.B.B.B.B.",
"B.B.B.B.B.B.B.B.B.B.B.B.B.B.B.B.B.B.B.X n Q A c / _ ] ] Z [ %.[ &.;.1.1.2.2.2.2.2.%.%.$.. B.B.B.B.B.B.B.B.B.B.B.B.B.B.B.B.B.B.B.",
"B.B.B.B.B.B.B.B.B.B.B.B.B.B.B.B.B.B.B.X Z Z Z Q ' 0 ' ' _ %.( %.%.%.%.%.%.%.%.%.%.%.%.%.! # B.B.B.B.B.B.B.B.B.B.B.B.B.B.B.B.B.B.",
"B.B.B.B.B.B.B.B.B.B.B.B.B.B.B.B.B.B.X 8 8 C R C Q Q _ ' ] _ _ %.%.] $.%.%.%.%.%.@.%.] ~ 8 M X B.B.B.B.B.B.B.B.B.B.B.B.B.B.B.B.B.",
"B.B.B.B.B.B.B.B.B.B.B.B.B.B.B.B.B.B.X v M V 8 Z Z R R 8 _ Q _ ] Q ' c & B c M 8 ; 8 ! ^ R Z v X B.B.B.B.B.B.B.B.B.B.B.B.B.B.B.B.",
"B.B.B.B.B.B.B.B.B.B.B.B.B.B.B.B.B.B.. 4.v Z C 8 R Z Z Q v Z ] ( ' ] ] _ _ ] ] ] _ ] ] C Q Z M . B.B.B.B.B.B.B.B.B.B.B.B.B.B.B.B.",
"B.B.B.B.B.B.B.B.B.B.B.B.B.B.B.B.B.B.. 8 9 v M V w Z Q R R A R A R Z ^ _ _ Z ! Q R R R A Z C 8 c X B.B.B.B.B.B.B.B.B.B.B.B.B.B.B.",
"B.B.B.B.B.B.B.B.B.B.B.B.B.B.B.B.B.B.  . 8 w v M b B b Z Z Q R R Q Q Q Q R ! Z Z R R Q 9 9 Z Z v X B.B.B.B.B.B.B.B.B.B.B.B.B.B.B.",
"B.B.B.B.B.B.B.B.B.B.B.B.B.B.B.B.B.B.. 6.. . & #.3.B b b b C C Z Z Z Q Q R R R Z Z Z Z Z Z b b b w X B.B.B.B.B.B.B.B.B.B.B.B.B.B.",
"B.B.B.B.B.B.B.B.B.B.B.B.B.B.B.B.B.B.X M.5.` X X 8 w v b M Z M M V Z Z Z Z Z Z Z Z Z Z M C Z C 9 b X B.B.B.B.B.B.B.B.B.B.B.B.B.B.",
"B.B.B.B.B.B.B.B.B.B.B.B.B.B.B.B.B.X M.j.z.9.5.5.. # w v b M b 8 w B B V V C B b M V V C M Z M c v X B.B.B.B.B.B.B.B.B.B.B.B.B.B.",
"B.B.B.B.B.B.B.B.B.B.B.B.B.B.B.B.B.X M.z.g.j.j.j.  X . w z w w w M v v b 9 9 v C Z Z b M b b c M 8 9 X B.B.B.B.B.B.B.B.B.B.B.B.B.",
"B.B.B.B.B.B.B.B.B.B.B.B.B.B.B.B.B.X j.g.j.j.g.0.. * . . 9 d.M M w w w w w w c w w w w c c & c v w $ X B.B.B.B.B.B.B.B.B.B.B.B.B.",
"B.B.B.B.B.B.B.B.B.B.B.B.B.B.B.B.B.X j.g.j.g.g.M $ p = X X < v 8 w d.M b 8 c v w w w w z c & 8 & X X B.B.B.B.B.B.B.B.B.B.B.B.B.B.",
"B.B.B.B.B.B.B.B.B.B.B.B.B.B.B.B.X 0 j.j.g.g.g.s.X s a - d X . X X . . . . . . . X X . X X X X X . B.B.B.B.B.B.B.B.B.B.B.B.B.B.B.",
"B.B.B.B.B.B.B.B.B.B.B.B.B.B.B.B.# k.g.g.g.i.g.g.. . p h f @ @ @ = * p a s a - s @ j p i * * @   B.B.B.B.B.B.B.B.B.B.B.B.B.B.B.B.",
"B.B.B.B.B.B.B.B.B.B.B.B.B.B.B.B.X j.g.g.g.g.g.g.y.. - p d d d f l h a p a d l k l p p p a a - X . B.B.B.B.B.B.B.B.B.B.B.B.B.B.B.",
"B.B.B.B.B.B.B.B.B.B.B.B.B.B.B.B.X g.g.g.g.g.g.g.q.X - h h p h s i s s d p h s p p l h p s l - p . B.B.B.B.B.B.B.B.B.B.B.B.B.B.B.",
"B.B.B.B.B.B.B.B.B.B.B.B.B.B.B.B.X g.g.g.g.g.g.g.g.X - - p - s - X X + l p p f p p p p p p p i s X B.B.B.B.B.B.B.B.B.B.B.B.B.B.B.",
"B.B.B.B.B.B.B.B.B.B.B.B.B.B.B.B.X u.s.9.o o o o g.. - - - s O .     O X - h l p d p p p p l p p X B.B.B.B.B.B.B.B.B.B.B.B.B.B.B.",
"B.B.B.B.B.B.B.B.B.B.B.B.B.B.B.B.X u.g.o :.s.g.s.g.X.X i - - . e.m.z   %.X - - p p p p p d - s - X B.B.B.B.B.B.B.B.B.B.B.B.B.B.B.",
"B.B.B.B.B.B.B.B.B.B.B.B.B.B.B.B.X u.o f.X X X . E u.. - i X   W h.u.X >.. + 5 i s - s p p p s + X B.B.B.B.B.B.B.B.B.B.B.B.B.B.B.",
"B.B.B.B.B.B.B.B.B.B.B.B.B.B.B.B.X u.. . 7 N.v.p.. g.<.X - X u. .g.u.X g.,.. X i - d - p - p i . B.B.B.B.B.B.B.B.B.B.B.B.B.B.B.B.",
"B.B.B.B.B.B.B.B.B.B.B.B.B.B.B.B.. z X X Y N.v.c.. g.g.X + X <.u.u.4 X g.g.,.X X + i s s s - i . B.B.B.B.B.B.B.B.B.B.B.B.B.B.B.B.",
"B.B.B.B.B.B.B.B.B.B.B.B.B.B.B.B.X O x.6 U N.v.p.X f.g.<.X 0.X ..X X g.g.g.g.,.,.. . - - - - - . B.B.B.B.B.B.B.B.B.B.B.B.B.B.B.B.",
"B.B.B.B.B.B.B.B.B.B.B.B.B.B.B.B.X T 7.@.N.N.v.: f.g.g.g.q.g.i.X +.g.g.g.g.g.g.g.;.` . - - - ; X B.B.B.B.B.B.B.B.B.B.B.B.B.B.B.B.",
"B.B.B.B.B.B.B.B.B.B.B.B.B.B.B.B.X q.X b.c.p.*.X f.T . . X X g.g.f.g.g.j.g.g.s.g.i.-.z . - - - . B.B.B.B.B.B.B.B.B.B.B.B.B.B.B.B.",
"B.B.B.B.B.B.B.B.B.B.B.B.B.B.B.B.X >.s.X X X < 9.. . D } P h X g.g.g.g.g.u.u.g.g.u.u.+.. - - . B.B.B.B.B.B.B.B.B.B.B.B.B.B.B.B.B.",
"B.B.B.B.B.B.B.B.B.B.B.B.B.B.B.B.X X X X X X X . } H K D D d X j.g.u.i.f.f.f.s.u.y.9.9.... . . B.B.B.B.B.B.B.B.B.B.B.B.B.B.B.B.B.",
"B.B.B.B.B.B.B.B.B.B.B.B.B.B.B.B.X j J } } I P H } G L h l l . u.i.u.f.s.g.u.w.9.9.9.>.  X X B.B.B.B.B.B.B.B.B.B.B.B.B.B.B.B.B.B.",
"B.B.B.B.B.B.B.B.B.B.B.B.B.B.B.B.X . . G G D S S K h k d p s . u.u.u.u.u.u.w.t.9.9.. X B.B.B.B.B.B.B.B.B.B.B.B.B.B.B.B.B.B.B.B.B.",
"B.B.B.B.B.B.B.B.B.B.B.B.B.B.B.B.B.X l W G } S l } l l l l s + u.r.q.u.9.9.9.X X X B.B.B.B.B.B.B.B.B.B.B.B.B.B.B.B.B.B.B.B.B.B.B.",
"B.B.B.B.B.B.B.B.B.B.B.B.B.B.B.B.B.X = j k G l K l j f j a . z >.q.X.X X X X X B.B.B.B.B.B.B.B.B.B.B.B.B.B.B.B.B.B.B.B.B.B.B.B.B.",
"B.B.B.B.B.B.B.B.B.B.B.B.B.B.B.B.B.B.X a h p k a h s h s f X X X X X _ ] _ Q M X B.B.B.B.B.B.B.B.B.B.B.B.B.B.B.B.B.B.B.B.B.B.B.B.",
"B.B.B.B.B.B.B.B.B.B.B.B.B.B.B.B.B.B.. X p p p a j s s . . X w [ X $._ ) Q Q M . B.B.B.B.B.B.B.B.B.B.B.B.B.B.B.B.B.B.B.B.B.B.B.B.",
"B.B.B.B.B.B.B.B.B.B.B.B.B.B.B.B.B.B.B.B.X X . X . X . t . X ] / X / ' R Q A B 8 X B.B.B.B.B.B.B.B.B.B.B.B.B.B.B.B.B.B.B.B.B.B.B.",
"B.B.B.B.B.B.B.B.B.B.B.B.B.B.B.B.B.B.B.B.B.B.B.. . u u X . Z ( B X ) E A Q Z M M X B.B.B.B.B.B.B.B.B.B.B.B.B.B.B.B.B.B.B.B.B.B.B.",
"B.B.B.B.B.B.B.B.B.B.B.B.B.B.B.B.B.B.B.B.B.B.B.X M X X X V Z C M X A C ! Z Z M C X B.B.B.B.B.B.B.B.B.B.B.B.B.B.B.B.B.B.B.B.B.B.B.",
"B.B.B.B.B.B.B.B.B.B.B.B.B.B.B.B.B.B.B.B.B.B.. X X X X X X V B . A A E Z Z M . O X B.B.B.B.B.B.B.B.B.B.B.B.B.B.B.B.B.B.B.B.B.B.B.",
"B.B.B.B.B.B.B.B.B.B.B.B.B.B.B.B.B.B.B.B.B.B.X 5 G X 9.u.z X X X # X X X X X  .l X . B.B.B.B.B.B.B.B.B.B.B.B.B.B.B.B.B.B.B.B.B.B.",
"B.B.B.B.B.B.B.B.B.B.B.B.B.B.B.B.B.B.B.B.B.B.X X X X u.g.z.M.9 X J J F g X X X X & X B.B.B.B.B.B.B.B.B.B.B.B.B.B.B.B.B.B.B.B.B.B.",
"B.B.B.B.B.B.B.B.B.B.B.B.B.B.B.B.B.B.B.B.B.B.. w w X u.f.l.g.u.X . . . X V M Z b 8 X B.B.B.B.B.B.B.B.B.B.B.B.B.B.B.B.B.B.B.B.B.B.",
"B.B.B.B.B.B.B.B.B.B.B.B.B.B.B.B.B.B.B.B.B.B.X w M X 8.u.g.u.E X Z Z Z M M M b c 8 . B.B.B.B.B.B.B.B.B.B.B.B.B.B.B.B.B.B.B.B.B.B.",
"B.B.B.B.B.B.B.B.B.B.B.B.B.B.B.B.B.B.B.B.B.B.X 8 w w . . o.. . b b V Z Z b M w w 8 X B.B.B.B.B.B.B.B.B.B.B.B.B.B.B.B.B.B.B.B.B.B.",
"B.B.B.B.B.B.B.B.B.B.B.B.B.B.B.B.B.B.B.B.B.B.. 8 < 9 w w 4 w z w b b w M w w w 9 < X B.B.B.B.B.B.B.B.B.B.B.B.B.B.B.B.B.B.B.B.B.B.",
"B.B.B.B.B.B.B.B.B.B.B.B.B.B.B.B.B.B.B.B.B.B.. X X X X X . w X X X X X $ X . . . X B.B.B.B.B.B.B.B.B.B.B.B.B.B.B.B.B.B.B.B.B.B.B.",
"B.B.B.B.B.B.B.B.B.B.B.B.B.B.B.B.B.B.B.B.B.B.. , > X > > , X X B.B.B.X , t r 3 3 X B.B.B.B.B.B.B.B.B.B.B.B.B.B.B.B.B.B.B.B.B.B.B.",
"B.B.B.B.B.B.B.B.B.B.B.B.B.B.B.B.B.B.B.B.B.B.B.X X X : , 1 X B.B.B.X X . 3 e e 1 X B.B.B.B.B.B.B.B.B.B.B.B.B.B.B.B.B.B.B.B.B.B.B.",
"B.B.B.B.B.B.B.B.B.B.B.B.B.B.B.B.B.B.B.B.B.B.B.B.B.B.X X X X B.B.B.X r , . . . . X B.B.B.B.B.B.B.B.B.B.B.B.B.B.B.B.B.B.B.B.B.B.B.",
"B.B.B.B.B.B.B.B.B.B.B.B.B.B.B.B.B.B.B.B.B.B.B.B.B.B.B.B.B.B.B.B.B.X X . . B.B.B.B.B.B.B.B.B.B.B.B.B.B.B.B.B.B.B.B.B.B.B.B.B.B.B.",
"B.B.B.B.B.B.B.B.B.B.B.B.B.B.B.B.B.B.B.B.B.B.B.B.B.B.B.B.B.B.B.B.B.B.B.B.B.B.B.B.B.B.B.B.B.B.B.B.B.B.B.B.B.B.B.B.B.B.B.B.B.B.B.B.",
"B.B.B.B.B.B.B.B.B.B.B.B.B.B.B.B.B.B.B.B.B.B.B.B.B.B.B.B.B.B.B.B.B.B.B.B.B.B.B.B.B.B.B.B.B.B.B.B.B.B.B.B.B.B.B.B.B.B.B.B.B.B.B.B.",
"B.B.B.B.B.B.B.B.B.B.B.B.B.B.B.B.B.B.B.B.B.B.B.B.B.B.B.B.B.B.B.B.B.B.B.B.B.B.B.B.B.B.B.B.B.B.B.B.B.B.B.B.B.B.B.B.B.B.B.B.B.B.B.B."
};
