/* XPM */
static char *result[] = {
/* columns rows colors chars-per-pixel */
"64 64 150 2 ",
"   c #141312",
".  c #191715",
"X  c #1A1917",
"o  c #1B1A18",
"O  c #221713",
"+  c #2F1D15",
"@  c #221D19",
"#  c #321F17",
"$  c #24221D",
"%  c #2E211A",
"&  c #2E2E1F",
"*  c #342017",
"=  c #33221A",
"-  c #3D261C",
";  c #3E291D",
":  c #1C1C20",
">  c #1F2025",
",  c #222124",
"<  c #2A2622",
"1  c #2D2C21",
"2  c #232429",
"3  c #27282E",
"4  c #2C2C2D",
"5  c #322C27",
"6  c #392921",
"7  c #203122",
"8  c #203D27",
"9  c #313121",
"0  c #383725",
"q  c #393A26",
"w  c #353029",
"e  c #39322B",
"r  c #3D3D28",
"t  c #2B2C32",
"y  c #373737",
"u  c #313238",
"i  c gray22",
"p  c #452B1F",
"a  c #472E20",
"s  c #492E20",
"d  c #4E3123",
"f  c #42372F",
"g  c #4D342A",
"h  c #543525",
"j  c #583727",
"k  c #553728",
"l  c #5E3C2A",
"z  c #483E35",
"x  c #5B3C30",
"c  c #613F2C",
"v  c #3F4029",
"b  c #38523E",
"n  c #43442C",
"m  c #47482F",
"M  c #48492F",
"N  c #444531",
"B  c #454831",
"V  c #4B4C31",
"C  c #4B4239",
"Z  c #4F5136",
"A  c #515336",
"S  c #545639",
"D  c #55583A",
"F  c #595C3E",
"G  c #66412D",
"H  c #68432F",
"J  c #634133",
"K  c #6D4732",
"L  c #6F4933",
"P  c #6E4938",
"I  c #724B36",
"U  c #724C3A",
"Y  c #387349",
"T  c #3B794E",
"R  c #5C5E41",
"E  c #645547",
"W  c #645648",
"Q  c #6C5D4D",
"!  c #7A5541",
"~  c #7B5A45",
"^  c #5E6042",
"/  c #636545",
"(  c #666946",
")  c #696C47",
"_  c #6A6C4A",
"`  c #6E704D",
"'  c #72744E",
"]  c #706F54",
"[  c #70645A",
"{  c #737550",
"}  c #777954",
"|  c #7D7D59",
" . c #7B7E54",
".. c #835F4B",
"X. c #8A5B45",
"o. c #846853",
"O. c #8A6C53",
"+. c #8E755E",
"@. c #937C65",
"#. c #997C64",
"$. c #B5AA36",
"%. c #84845E",
"&. c #BAAF4C",
"*. c #8C8C64",
"=. c #9F896F",
"-. c #95946B",
";. c #9C9C72",
":. c #A48A70",
">. c #AA9075",
",. c #BC9477",
"<. c #B3977A",
"1. c #BE9679",
"2. c #B3997C",
"3. c #A1A077",
"4. c #A3A278",
"5. c #898786",
"6. c #AB9687",
"7. c #B39A81",
"8. c #99A89C",
"9. c #BFAB9D",
"0. c #CCA585",
"q. c #C3A888",
"w. c #CAA989",
"e. c #C2A384",
"r. c #D2AE8C",
"t. c #D4B08E",
"y. c #D5B391",
"u. c #DAB794",
"i. c #DBB895",
"p. c #DFBC98",
"a. c #E0BD99",
"s. c #C1BFBF",
"d. c #E6C29D",
"f. c #E9C49F",
"g. c #F3E687",
"h. c #F7EB94",
"j. c #EBC7A1",
"k. c #EFCBA4",
"l. c #E1C2A9",
"z. c #EFCDAC",
"x. c #F0CFB0",
"c. c #EFD0B6",
"v. c #F1D4BB",
"b. c #C8C7C7",
"n. c #CDCDCD",
"m. c #DEDDDD",
"M. c #F7DCC8",
"N. c #F9DFCD",
"B. c #E3E2E2",
"V. c None",
/* pixels */
"V.V.V.V.V.V.V.V.V.V.V.V.V.V.V.V.V.V.V.V.V.V.V.V.V.V.V.V.V.V.V.V.V.V.V.V.V.V.V.V.V.V.V.V.V.V.V.V.V.V.V.V.V.V.V.V.V.V.V.V.V.V.V.V.",
"V.V.V.V.V.V.V.V.V.V.V.V.V.V.V.V.V.V.V.V.V.V.V.V.V.V.V.V.V.V.V.V.V.V.V.V.V.V.V.V.V.V.V.V.V.V.V.V.V.V.V.V.V.V.V.V.V.V.V.V.V.V.V.V.",
"V.V.V.V.V.V.V.V.V.V.V.V.V.V.V.V.V.V.V.V.V.V.V.V.V.V.V.V.V.V.V.V.V.V.V.V.V.V.V.V.V.V.V.V.V.V.V.V.V.V.V.V.V.V.V.V.V.V.V.V.V.V.V.V.",
"V.V.V.V.V.V.V.V.V.V.V.V.V.V.V.V.V.V.V.V.V.V.V.V.V.V.V.V.V.V.V.V.V.V.V.V.V.V.V.V.V.V.V.V.V.V.V.V.V.V.V.V.V.V.V.V.V.V.V.V.V.V.V.V.",
"V.V.V.V.V.V.V.V.V.V.V.V.V.V.V.V.V.V.V.V.V.V.V.V.V.V.V.V.V.V.V.V.V.V.V.V.V.V.V.V.V.V.V.V.V.V.V.V.V.V.V.V.V.V.V.V.V.V.V.V.V.V.V.V.",
"V.V.V.V.V.V.V.V.V.V.V.V.V.V.V.V.V.V.V.V.V.V.V.V.V.V.V.V.V.V.V.V.V.V.V.V.V.V.V.V.V.V.V.V.V.V.V.V.V.V.V.V.V.V.V.V.V.V.V.V.V.V.V.V.",
"V.V.V.V.V.V.V.V.V.V.V.V.V.V.V.V.V.V.V.V.V.V.V.V.V.V.V.V.V.V.V.V.V.V.V.V.V.V.V.V.V.V.V.V.V.V.V.V.V.V.V.V.V.V.V.V.V.V.V.V.V.V.V.V.",
"V.V.V.V.V.V.V.V.V.V.V.V.V.V.V.V.V.V.V.V.V.V.V.V.V.V.V.V.V.X o o X V.V.V.V.V.V.V.V.V.V.V.V.V.V.V.V.V.V.V.V.V.V.V.V.V.V.V.V.V.V.V.",
"V.V.V.V.V.V.V.V.V.V.V.V.V.V.V.V.V.V.V.V.V.V.V.V.V.X X X X $ ] R o o o o o V.V.V.V.V.V.V.V.V.V.V.V.V.V.V.V.V.V.V.V.V.V.V.V.V.V.V.",
"V.V.V.V.V.V.V.V.V.V.V.V.V.V.V.V.V.V.V.V.V.V.V.X X 1 4.4.4.-.*.4.4.;.4.4.;.o o o V.V.V.V.V.V.V.V.V.V.V.V.V.V.V.V.V.V.V.V.V.V.V.V.",
"V.V.V.V.V.V.V.V.V.V.V.V.V.V.V.V.V.V.V.V.V.o o F _ { *.*._ *.-.4.4.4.;.4.4.4.4.4.o o V.V.V.V.V.V.V.V.V.V.V.V.V.V.V.V.V.V.V.V.V.V.",
"V.V.V.V.V.V.V.V.V.V.V.V.V.V.V.V.V.V.V.V.o r ^ D { { F R *.*.*.*.-.4.4.4.4.;.4.*.;.4.o o V.V.V.V.V.V.V.V.V.V.V.V.V.V.V.V.V.V.V.V.",
"V.V.V.V.V.V.V.V.V.V.V.V.V.V.V.V.V.V.V.o B ^ R 9 ` { | { D *.*.%.-.4.4.4.4.4.4.4.4.*.*.| o V.V.V.V.V.V.V.V.V.V.V.V.V.V.V.V.V.V.V.",
"V.V.V.V.V.V.V.V.V.V.V.V.V.V.V.V.V.V.V.o D F D ^ { 9 { { } %.^ *.*.*.*.*.*.*.*.*.*.*.*.*.F o V.V.V.V.V.V.V.V.V.V.V.V.V.V.V.V.V.V.",
"V.V.V.V.V.V.V.V.V.V.V.V.V.V.V.V.V.V.o 9 & D R D ^ ^ _ { { { { *.*.} *.*.*.*.*.*.*.*.' / q V X V.V.V.V.V.V.V.V.V.V.V.V.V.V.V.V.V.",
"V.V.V.V.V.V.V.V.V.V.V.V.V.V.V.V.V.V.o r V Z 9 D D ^ R 9 ` ^ { ' / ' 9 9 F Z V 0 1 1 / ` R F r X V.V.V.V.V.V.V.V.V.V.V.V.V.V.V.V.",
"V.V.V.V.V.V.V.V.V.V.V.V.V.V.V.V.V.V.X g.m D A 9 ^ D D ^ Z D { ) { { { { { { { ' { { { D ^ D M o V.V.V.V.V.V.V.V.V.V.V.V.V.V.V.V.",
"V.V.V.V.V.V.V.V.V.V.V.V.V.V.V.V.V.V.X 9 q V V S q D ^ ^ ^ F ^ F ^ D _ { ' D ) / ^ ^ ^ D F D 9 r o V.V.V.V.V.V.V.V.V.V.V.V.V.V.V.",
"V.V.V.V.V.V.V.V.V.V.V.V.V.V.V.V.V.V.  X 9 n m V M n Z D D ^ ^ ^ ^ ^ ^ ^ ^ ^ F D ^ ^ ^ q 0 D D n o V.V.V.V.V.V.V.V.V.V.V.V.V.V.V.",
"V.V.V.V.V.V.V.V.V.V.V.V.V.V.V.V.V.V.X 6.X X & &.$.M n M M D D D D D ^ ^ ^ ^ ^ D D D D D D M V M 0 o V.V.V.V.V.V.V.V.V.V.V.V.V.V.",
"V.V.V.V.V.V.V.V.V.V.V.V.V.V.V.V.V.V.o N.7.C X X 9 r m M Z D M M S D D D D D D D D D D V D D A 0 V X V.V.V.V.V.V.V.V.V.V.V.V.V.V.",
"V.V.V.V.V.V.V.V.V.V.V.V.V.V.V.V.V.o N.x.v.0.7.2.X $ r r M V M 9 n Z A S A Z Z M M A A A M F V v r o V.V.V.V.V.V.V.V.V.V.V.V.V.V.",
"V.V.V.V.V.V.V.V.V.V.V.V.V.V.V.V.V.o N.v.k.z.z.k.  o X r v r v v M m m m q 0 m A D A V M M M r M 9 0 X V.V.V.V.V.V.V.V.V.V.V.V.V.",
"V.V.V.V.V.V.V.V.V.V.V.V.V.V.V.V.V.o x.k.x.z.k.=.o * o X r h.M M r r r r r r v r v r v v r 9 r n r o o V.V.V.V.V.V.V.V.V.V.V.V.V.",
"V.V.V.V.V.V.V.V.V.V.V.V.V.V.V.V.V.o z.k.k.k.z.& @ a * X o 9 m 9 r h.V m 9 v n r f r r f n 9 9 9 o o V.V.V.V.V.V.V.V.V.V.V.V.V.V.",
"V.V.V.V.V.V.V.V.V.V.V.V.V.V.V.V.X [ z.x.k.k.k.w.o a p = a o o o o X o o X o o X X X X X o X o X   V.V.V.V.V.V.V.V.V.V.V.V.V.V.V.",
"V.V.V.V.V.V.V.V.V.V.V.V.V.V.V.V.o v.k.k.k.d.k.k.o o p a d * * * * * ; ; a p p a + h s # * * #   V.V.V.V.V.V.V.V.V.V.V.V.V.V.V.V.",
"V.V.V.V.V.V.V.V.V.V.V.V.V.V.V.V.o k.k.k.k.k.k.k.w.o p p p p p h l h p p p d l k c s s p p p - X V.V.V.V.V.V.V.V.V.V.V.V.V.V.V.V.",
"V.V.V.V.V.V.V.V.V.V.V.V.V.V.V.V.o k.k.k.k.k.k.k.w.X - d a p j p p p p p p h p p p c s s a l - p o V.V.V.V.V.V.V.V.V.V.V.V.V.V.V.",
"V.V.V.V.V.V.V.V.V.V.V.V.V.V.V.V.o z.k.f.k.k.k.k.k.o - - p - p - o X = k p p d p p p s p p p p p o V.V.V.V.V.V.V.V.V.V.V.V.V.V.V.",
"V.V.V.V.V.V.V.V.V.V.V.V.V.V.V.V.o a.f.0.O O O O k.o - - p p @ o     X X - h l p p a p a p l a p o V.V.V.V.V.V.V.V.V.V.V.V.V.V.V.",
"V.V.V.V.V.V.V.V.V.V.V.V.V.V.V.V.o i.k.@ +.k.k.k.k.E o - - - X 9.M.w X Q X - ; p p p p p a - a ; o V.V.V.V.V.V.V.V.V.V.V.V.V.V.V.",
"V.V.V.V.V.V.V.V.V.V.V.V.V.V.V.V.o i.o j.o o o o @.w.o - ; o   ~ l.p.o <.o = ; ; s - s s a s s O . V.V.V.V.V.V.V.V.V.V.V.V.V.V.V.",
"V.V.V.V.V.V.V.V.V.V.V.V.V.V.V.V.o i.o o v B.n.s.o k.2.o ; o i.O.k.i.o k.<.o @ - - s # s # p a X V.V.V.V.V.V.V.V.V.V.V.V.V.V.V.V.",
"V.V.V.V.V.V.V.V.V.V.V.V.V.V.V.V.o N o o T m.n.b.o k.k.o % o t.w.i.$ o k.k.<.X X # 6 a a s - s X V.V.V.V.V.V.V.V.V.V.V.V.V.V.V.V.",
"V.V.V.V.V.V.V.V.V.V.V.V.V.V.V.V.o o 8.7 Y B.n.s.o j.k.2.o t.o O.X o k.k.k.k.2.2.X X - ; - - # @ V.V.V.V.V.V.V.V.V.V.V.V.V.V.V.V.",
"V.V.V.V.V.V.V.V.V.V.V.V.V.V.V.V.o 5 b.b B.B.n.o f.j.k.k.e.j.p.o Q k.k.k.k.k.k.k.>.Q X ; - ; ; o V.V.V.V.V.V.V.V.V.V.V.V.V.V.V.V.",
"V.V.V.V.V.V.V.V.V.V.V.V.V.V.V.V.o r.o m.n.s.5.o k.W o o o o k.k.k.k.k.k.k.k.a.k.a.:.e X - ; - o V.V.V.V.V.V.V.V.V.V.V.V.V.V.V.V.",
"V.V.V.V.V.V.V.V.V.V.V.V.V.V.V.V.o ,.d.X o o < f.o o H ..~ h o k.k.k.k.k.i.i.k.k.u.i.#.X - - X V.V.V.V.V.V.V.V.V.V.V.V.V.V.V.V.V.",
"V.V.V.V.V.V.V.V.V.V.V.V.V.V.V.V.o o o o o o o o ..L I H G d o j.k.i.a.j.j.j.f.i.u.0.0.o.X X X V.V.V.V.V.V.V.V.V.V.V.V.V.V.V.V.V.",
"V.V.V.V.V.V.V.V.V.V.V.V.V.V.V.V.o k I ....! ! L ..K U k l l o p.a.i.j.f.k.i.u.0.0.0.,.  o o V.V.V.V.V.V.V.V.V.V.V.V.V.V.V.V.V.V.",
"V.V.V.V.V.V.V.V.V.V.V.V.V.V.V.V.X o X K K K G G L h G p p p o i.i.i.i.i.i.r.u.0.0.X X V.V.V.V.V.V.V.V.V.V.V.V.V.V.V.V.V.V.V.V.V.",
"V.V.V.V.V.V.V.V.V.V.V.V.V.V.V.V.V.o l ~ K ..c c ..l l l G p 5 i.u.t.i.0.0.0.X X X V.V.V.V.V.V.V.V.V.V.V.V.V.V.V.V.V.V.V.V.V.V.V.",
"V.V.V.V.V.V.V.V.V.V.V.V.V.V.V.V.V.o - k l K l K l k h j p X f 1.w.#.X X o o o V.V.V.V.V.V.V.V.V.V.V.V.V.V.V.V.V.V.V.V.V.V.V.V.V.",
"V.V.V.V.V.V.V.V.V.V.V.V.V.V.V.V.V.V.o s h p j p d a k p a o o o X X { { { ^ V X V.V.V.V.V.V.V.V.V.V.V.V.V.V.V.V.V.V.V.V.V.V.V.V.",
"V.V.V.V.V.V.V.V.V.V.V.V.V.V.V.V.V.V.o o p p p p h a p o X o N  .X *.{ _ ^ ^ V X V.V.V.V.V.V.V.V.V.V.V.V.V.V.V.V.V.V.V.V.V.V.V.V.",
"V.V.V.V.V.V.V.V.V.V.V.V.V.V.V.V.V.V.V.V.o o o o o o o 4 o @ { ( X _ ' ^ ^ F Z 1 o V.V.V.V.V.V.V.V.V.V.V.V.V.V.V.V.V.V.V.V.V.V.V.",
"V.V.V.V.V.V.V.V.V.V.V.V.V.V.V.V.V.V.V.V.V.V.V.o o i i X o D ) Z X ' ^ ^ ^ D V V o V.V.V.V.V.V.V.V.V.V.V.V.V.V.V.V.V.V.V.V.V.V.V.",
"V.V.V.V.V.V.V.V.V.V.V.V.V.V.V.V.V.V.V.V.V.V.V.o V o o o Z D S B o ^ D ^ D D V F o V.V.V.V.V.V.V.V.V.V.V.V.V.V.V.V.V.V.V.V.V.V.V.",
"V.V.V.V.V.V.V.V.V.V.V.V.V.V.V.V.V.V.V.V.V.V.X o X o o o $ A Z X ^ ^ ^ D D Z X o o V.V.V.V.V.V.V.V.V.V.V.V.V.V.V.V.V.V.V.V.V.V.V.",
"V.V.V.V.V.V.V.V.V.V.V.V.V.V.V.V.V.V.V.V.V.V.o 6 P X 0.i.< o @ X o o o o X X X.l o o V.V.V.V.V.V.V.V.V.V.V.V.V.V.V.V.V.V.V.V.V.V.",
"V.V.V.V.V.V.V.V.V.V.V.V.V.V.V.V.V.V.V.V.V.V.o o X X f.k.M.M.$ X P P J g o o o o 1 o V.V.V.V.V.V.V.V.V.V.V.V.V.V.V.V.V.V.V.V.V.V.",
"V.V.V.V.V.V.V.V.V.V.V.V.V.V.V.V.V.V.V.V.V.V.o r r X i.k.c.k.d.X o o o o Z V D M 9 o V.V.V.V.V.V.V.V.V.V.V.V.V.V.V.V.V.V.V.V.V.V.",
"V.V.V.V.V.V.V.V.V.V.V.V.V.V.V.V.V.V.V.V.V.V.o r V X 0.i.k.t.$ v F D D V M Z V r 5 o V.V.V.V.V.V.V.V.V.V.V.V.V.V.V.V.V.V.V.V.V.V.",
"V.V.V.V.V.V.V.V.V.V.V.V.V.V.V.V.V.V.V.V.V.V.X 9 r r X X +.o X M V Z D D V V r r 9 o V.V.V.V.V.V.V.V.V.V.V.V.V.V.V.V.V.V.V.V.V.V.",
"V.V.V.V.V.V.V.V.V.V.V.V.V.V.V.V.V.V.V.V.V.V.X 9 9 q r r w r f v m V r V r r r q 9 X V.V.V.V.V.V.V.V.V.V.V.V.V.V.V.V.V.V.V.V.V.V.",
"V.V.V.V.V.V.V.V.V.V.V.V.V.V.V.V.V.V.V.V.V.V.o o o o o o o r o o o o X $ o o o o o V.V.V.V.V.V.V.V.V.V.V.V.V.V.V.V.V.V.V.V.V.V.V.",
"V.V.V.V.V.V.V.V.V.V.V.V.V.V.V.V.V.V.V.V.V.V.o 2 o o > > 2 o X V.V.V.X , u u t 4 o V.V.V.V.V.V.V.V.V.V.V.V.V.V.V.V.V.V.V.V.V.V.V.",
"V.V.V.V.V.V.V.V.V.V.V.V.V.V.V.V.V.V.V.V.V.V.V.o o o : > 4 X V.V.V.o o X 3 t 4 2 o V.V.V.V.V.V.V.V.V.V.V.V.V.V.V.V.V.V.V.V.V.V.V.",
"V.V.V.V.V.V.V.V.V.V.V.V.V.V.V.V.V.V.V.V.V.V.V.V.V.V.o X X X V.V.V.o u 2 X X X X o V.V.V.V.V.V.V.V.V.V.V.V.V.V.V.V.V.V.V.V.V.V.V.",
"V.V.V.V.V.V.V.V.V.V.V.V.V.V.V.V.V.V.V.V.V.V.V.V.V.V.V.V.V.V.V.V.V.X o o o V.V.V.V.V.V.V.V.V.V.V.V.V.V.V.V.V.V.V.V.V.V.V.V.V.V.V.",
"V.V.V.V.V.V.V.V.V.V.V.V.V.V.V.V.V.V.V.V.V.V.V.V.V.V.V.V.V.V.V.V.V.V.V.V.V.V.V.V.V.V.V.V.V.V.V.V.V.V.V.V.V.V.V.V.V.V.V.V.V.V.V.V.",
"V.V.V.V.V.V.V.V.V.V.V.V.V.V.V.V.V.V.V.V.V.V.V.V.V.V.V.V.V.V.V.V.V.V.V.V.V.V.V.V.V.V.V.V.V.V.V.V.V.V.V.V.V.V.V.V.V.V.V.V.V.V.V.V.",
"V.V.V.V.V.V.V.V.V.V.V.V.V.V.V.V.V.V.V.V.V.V.V.V.V.V.V.V.V.V.V.V.V.V.V.V.V.V.V.V.V.V.V.V.V.V.V.V.V.V.V.V.V.V.V.V.V.V.V.V.V.V.V.V."
};
