/* XPM */
static char *result[] = {
/* columns rows colors chars-per-pixel */
"64 64 156 2 ",
"   c #141312",
".  c #181716",
"X  c #1A1917",
"o  c #1B1A18",
"O  c #221713",
"+  c #221D19",
"@  c #24231C",
"#  c #2B221C",
"$  c #28281E",
"%  c #342017",
"&  c #33231A",
"*  c #3D261C",
"=  c #1D1E23",
"-  c #1F2025",
";  c #2A2621",
":  c #2D2D21",
">  c #25262B",
",  c #27282E",
"<  c #2B2B2E",
"1  c #242322",
"2  c #302F21",
"3  c #352F28",
"4  c #203624",
"5  c #203D27",
"6  c #313121",
"7  c #373825",
"8  c #3A3A26",
"9  c #3A332C",
"0  c #373928",
"q  c #3D3D28",
"w  c #2E2F37",
"e  c #333435",
"r  c #323339",
"t  c gray22",
"y  c #40271D",
"u  c #462B1F",
"i  c #472E20",
"p  c #492D20",
"a  c #4E3122",
"s  c #533525",
"d  c #583827",
"f  c #53392A",
"g  c #5E3C2A",
"h  c #513F32",
"j  c #5B3C30",
"k  c #603E2B",
"l  c #2A5634",
"z  c #31663E",
"x  c #43432B",
"c  c #47482F",
"v  c #49492F",
"b  c #464730",
"n  c #474931",
"m  c #4B4C31",
"M  c #52463A",
"N  c #584A3D",
"B  c #4F5135",
"V  c #515336",
"C  c #535639",
"Z  c #55583A",
"A  c #5A5C3E",
"S  c #64412D",
"D  c #6A442F",
"F  c #6E4731",
"G  c #6E4832",
"H  c #6E4A38",
"J  c #714A34",
"K  c #73513E",
"L  c #77722F",
"P  c #594E43",
"I  c #5C5E40",
"U  c #5D5143",
"Y  c #454754",
"T  c #635042",
"R  c #6C5A4A",
"E  c #7E5945",
"W  c #7B5E48",
"Q  c #5E6042",
"!  c #646645",
"~  c #686641",
"^  c #676947",
"/  c #696C47",
"(  c #6A6C4A",
")  c #6F714D",
"_  c #71734F",
"`  c #766552",
"'  c #737550",
"]  c #7A7C54",
"[  c #7D7E58",
"{  c #636362",
"}  c #845842",
"|  c #8E5E47",
" . c #835F4A",
".. c #806A57",
"X. c #886B55",
"o. c #876D59",
"O. c #8B6D58",
"+. c #807F5F",
"@. c #93755C",
"#. c #8B7A6A",
"$. c #937D66",
"%. c #7F805A",
"&. c #938A2F",
"*. c #8B8431",
"=. c #A79D35",
"-. c #82835C",
";. c #868661",
":. c #8C8C64",
">. c #909067",
",. c #93936A",
"<. c #9B9B71",
"1. c #A58B71",
"2. c #A98E73",
"3. c #A09F75",
"4. c #BC9477",
"5. c #B3977A",
"6. c #B39A7C",
"7. c #BA9A7B",
"8. c #A1A076",
"9. c #A3A278",
"0. c #C19C7E",
"q. c #B49C83",
"w. c #BB9F80",
"e. c #BEA283",
"r. c #B7A394",
"t. c #C3A587",
"y. c #CCA585",
"u. c #CEA887",
"i. c #C9AA8A",
"p. c #D0AA89",
"a. c #CFB08D",
"s. c #D7B593",
"d. c #D9B693",
"f. c #DBB895",
"g. c #D5B799",
"h. c #E1BF99",
"j. c #C1BFBF",
"k. c #E5C39D",
"l. c #EAC59F",
"z. c #F7EB94",
"x. c #DEC5B1",
"c. c #EDC7A1",
"v. c #EFCBA4",
"b. c #EFCDAC",
"n. c #E6CAB6",
"m. c #EFCFB3",
"M. c #EFD0B6",
"N. c #CECECE",
"B. c #C3C6C3",
"V. c #D4D4D4",
"C. c #D8D6D6",
"Z. c #DDDDDD",
"A. c #F4D7C1",
"S. c #F9DFCC",
"D. c #E3E2E2",
"F. c None",
/* pixels */
"F.F.F.F.F.F.F.F.F.F.F.F.F.F.F.F.F.F.F.F.F.F.F.F.F.F.F.F.F.F.F.F.F.F.F.F.F.F.F.F.F.F.F.F.F.F.F.F.F.F.F.F.F.F.F.F.F.F.F.F.F.F.F.F.",
"F.F.F.F.F.F.F.F.F.F.F.F.F.F.F.F.F.F.F.F.F.F.F.F.F.F.F.F.F.F.F.F.F.F.F.F.F.F.F.F.F.F.F.F.F.F.F.F.F.F.F.F.F.F.F.F.F.F.F.F.F.F.F.F.",
"F.F.F.F.F.F.F.F.F.F.F.F.F.F.F.F.F.F.F.F.F.F.F.F.F.F.F.F.F.F.F.F.F.F.F.F.F.F.F.F.F.F.F.F.F.F.F.F.F.F.F.F.F.F.F.F.F.F.F.F.F.F.F.F.",
"F.F.F.F.F.F.F.F.F.F.F.F.F.F.F.F.F.F.F.F.F.F.F.F.F.F.F.F.F.F.F.F.F.F.F.F.F.F.F.F.F.F.F.F.F.F.F.F.F.F.F.F.F.F.F.F.F.F.F.F.F.F.F.F.",
"F.F.F.F.F.F.F.F.F.F.F.F.F.F.F.F.F.F.F.F.F.F.F.F.F.F.F.F.F.F.F.F.F.F.F.F.F.F.F.F.F.F.F.F.F.F.F.F.F.F.F.F.F.F.F.F.F.F.F.F.F.F.F.F.",
"F.F.F.F.F.F.F.F.F.F.F.F.F.F.F.F.F.F.F.F.F.F.F.F.F.F.F.F.F.F.F.F.F.F.F.F.F.F.F.F.F.F.F.F.F.F.F.F.F.F.F.F.F.F.F.F.F.F.F.F.F.F.F.F.",
"F.F.F.F.F.F.F.F.F.F.F.F.F.F.F.F.F.F.F.F.F.F.F.F.F.F.F.F.F.F.F.F.F.F.F.F.F.F.F.F.F.F.F.F.F.F.F.F.F.F.F.F.F.F.F.F.F.F.F.F.F.F.F.F.",
"F.F.F.F.F.F.F.F.F.F.F.F.F.F.F.F.F.F.F.F.F.F.F.F.F.F.F.F.o o o o o o o o F.F.F.F.F.F.F.F.F.F.F.F.F.F.F.F.F.F.F.F.F.F.F.F.F.F.F.F.",
"F.F.F.F.F.F.F.F.F.F.F.F.F.F.F.F.F.F.F.F.F.F.F.F.F.o o o :.<.9.9.<.>.9.o o o o F.F.F.F.F.F.F.F.F.F.F.F.F.F.F.F.F.F.F.F.F.F.F.F.F.",
"F.F.F.F.F.F.F.F.F.F.F.F.F.F.F.F.F.F.F.F.F.F.X o o 8.' :.-.9.9.9.9.9.9.<.9.9.-.o o o F.F.F.F.F.F.F.F.F.F.F.F.F.F.F.F.F.F.F.F.F.F.",
"F.F.F.F.F.F.F.F.F.F.F.F.F.F.F.F.F.F.F.F.F.o o I Z 6 ' %.:.:.:.:.9.9.9.:.:.9.8.8.9.o o F.F.F.F.F.F.F.F.F.F.F.F.F.F.F.F.F.F.F.F.F.",
"F.F.F.F.F.F.F.F.F.F.F.F.F.F.F.F.F.F.F.F.o o 8 ! A ' ' ' Q :.>.:.:.9.,.9.9.9.9.8.9.:.9.o o F.F.F.F.F.F.F.F.F.F.F.F.F.F.F.F.F.F.F.",
"F.F.F.F.F.F.F.F.F.F.F.F.F.F.F.F.F.F.F.o o Z Q Z Q 6 ' ' :.' 6 -._ :.:.3.9.<.:.<.9.<.:.,.( o F.F.F.F.F.F.F.F.F.F.F.F.F.F.F.F.F.F.",
"F.F.F.F.F.F.F.F.F.F.F.F.F.F.F.F.F.F.F.o 6 Z Z Q A Q A / ' ' %.%.-.:.:.:.:.:.:.:.:.:.:.:.:.m o F.F.F.F.F.F.F.F.F.F.F.F.F.F.F.F.F.",
"F.F.F.F.F.F.F.F.F.F.F.F.F.F.F.F.F.F.F.O l m 6 Z Z Q Q ' Q Z ' ) [ :.:.' ' _ ' _ ' ] :._ m ^ b o F.F.F.F.F.F.F.F.F.F.F.F.F.F.F.F.",
"F.F.F.F.F.F.F.F.F.F.F.F.F.F.F.F.F.F.F.O z.m Z 7 Q Z Z Q 6 _ ) ' ' ' Q Z ( ( ! ^ m V C Z ' Q Z o o F.F.F.F.F.F.F.F.F.F.F.F.F.F.F.",
"F.F.F.F.F.F.F.F.F.F.F.F.F.F.F.F.F.F.F.o =.q m Z m A I A T 6 Q A _ _ _ _ ' _ _ _ ' ' ' A Z Q Z x o F.F.F.F.F.F.F.F.F.F.F.F.F.F.F.",
"F.F.F.F.F.F.F.F.F.F.F.F.F.F.F.F.F.F.F.o 6 8 q m Z Z m Z Q Z Q A c A Q Q A A Q ! Q Q Q Q Z A V v o o F.F.F.F.F.F.F.F.F.F.F.F.F.F.",
"F.F.F.F.F.F.F.F.F.F.F.F.F.F.F.F.F.F.F.  o o 6 2 Z m m m B Z Z Q A Q Q Q Q Z Z Z A Q m 2 6 Z m m c o F.F.F.F.F.F.F.F.F.F.F.F.F.F.",
"F.F.F.F.F.F.F.F.F.F.F.F.F.F.F.F.F.F.o n.e.o X X &.c m m Z m v Z Z Z Z Z Z Z Z Z Z Z Z Z Z Z Z v q o F.F.F.F.F.F.F.F.F.F.F.F.F.F.",
"F.F.F.F.F.F.F.F.F.F.F.F.F.F.F.F.F.F.o S.b.g.r.P o @ 2 q B B Z Z m m m Z Z Z Z Z Z Z Z m m Z m x q : o F.F.F.F.F.F.F.F.F.F.F.F.F.",
"F.F.F.F.F.F.F.F.F.F.F.F.F.F.F.F.F.F.o S.A.v.b.b.7.o o q m i v m m c 2 m m v B v m Z Z B v Z m Z m q o F.F.F.F.F.F.F.F.F.F.F.F.F.",
"F.F.F.F.F.F.F.F.F.F.F.F.F.F.F.F.F.o r.m.v.b.b.v.X u X X 6 A l i v m x q x v m v B B m m c x q x m x o F.F.F.F.F.F.F.F.F.F.F.F.F.",
"F.F.F.F.F.F.F.F.F.F.F.F.F.F.F.F.F.o S.v.b.v.v.v.X u % O O l v 7 x v x x q x q q q 8 7 q q q 6 c 8 q X F.F.F.F.F.F.F.F.F.F.F.F.F.",
"F.F.F.F.F.F.F.F.F.F.F.F.F.F.F.F.F.o A.v.v.v.v.b.o * u % & o o 6 q L *.l S $ x q q q q q 7 $ 6 2 @ o o F.F.F.F.F.F.F.F.F.F.F.F.F.",
"F.F.F.F.F.F.F.F.F.F.F.F.F.F.F.F.F.o m.v.h.v.v.v.o + u s s u u o o o o o X X o o o o o o o o o + X F.F.F.F.F.F.F.F.F.F.F.F.F.F.F.",
"F.F.F.F.F.F.F.F.F.F.F.F.F.F.F.F.F.o v.v.v.v.v.v.v.o * u u u u % % % % % u i u u p i p % % % % % . F.F.F.F.F.F.F.F.F.F.F.F.F.F.F.",
"F.F.F.F.F.F.F.F.F.F.F.F.F.F.F.F.F.@ v.v.c.v.u.v.v.o * g s u k u g u s u u u u k u d p s u u u u o F.F.F.F.F.F.F.F.F.F.F.F.F.F.F.",
"F.F.F.F.F.F.F.F.F.F.F.F.F.F.F.F.F.o v.v.v.v.v.v.v.X * s u u * u y y u u u y u u s g g u u u u u o F.F.F.F.F.F.F.F.F.F.F.F.F.F.F.",
"F.F.F.F.F.F.F.F.F.F.F.F.F.F.F.F.o U v.c.p.O O O v.` X u u u u + o o o # * u * u u u u u p p * u + F.F.F.F.F.F.F.F.F.F.F.F.F.F.F.",
"F.F.F.F.F.F.F.F.F.F.F.F.F.F.F.F.o :.v.v.O O v.h N 0.o u * u + o #.    o o * u u u d u u u k * u o F.F.F.F.F.F.F.F.F.F.F.F.F.F.F.",
"F.F.F.F.F.F.F.F.F.F.F.F.F.F.F.F.o e.c.O v.o o 9 v.v.o * * * X x.X.S.o 6.o * * u u u u u u u u u o F.F.F.F.F.F.F.F.F.F.F.F.F.F.F.",
"F.F.F.F.F.F.F.F.F.F.F.F.F.F.F.F.o O b.o . C.N.j.o v.5.X u o   W m.7.o c.5.o y y i * * p u y * * o F.F.F.F.F.F.F.F.F.F.F.F.F.F.F.",
"F.F.F.F.F.F.F.F.F.F.F.F.F.F.F.F.X ..o 4 z D.D.j.o v.k.X * o X @.v.f.o v.h.2.X * * p u * * u * * o F.F.F.F.F.F.F.F.F.F.F.F.F.F.F.",
"F.F.F.F.F.F.F.F.F.F.F.F.F.F.F.F.F.o D.O l B.D.j.o v.v.5.X X o h.f.$ o v.v.7.5.o . * u u u * * * o F.F.F.F.F.F.F.F.F.F.F.F.F.F.F.",
"F.F.F.F.F.F.F.F.F.F.F.F.F.F.F.F.F.o { 5 z D.D.B.X v.i.v.6.7.o o o o v.v.v.v.v.5.1.o * * * * * * o F.F.F.F.F.F.F.F.F.F.F.F.F.F.F.",
"F.F.F.F.F.F.F.F.F.F.F.F.F.F.F.F.F.o o V.V.Z.B.o v.v.c.i.X o v.v.v.v.v.v.v.v.v.v.c.1.o * * * p o F.F.F.F.F.F.F.F.F.F.F.F.F.F.F.F.",
"F.F.F.F.F.F.F.F.F.F.F.F.F.F.F.F.o T y.o o o o t.v.. o # f o o v.v.v.v.v.v.v.h.v.f.f.1.o * * * o F.F.F.F.F.F.F.F.F.F.F.F.F.F.F.F.",
"F.F.F.F.F.F.F.F.F.F.F.F.F.F.F.F.o o o N k.v.9 o o J F F D u X v.v.v.v.k.k.f.v.v.f.f.0.M o u o F.F.F.F.F.F.F.F.F.F.F.F.F.F.F.F.F.",
"F.F.F.F.F.F.F.F.F.F.F.F.F.F.F.F.F.o G f o o o }  .F  .S k g X l.f.v.v.f.v.f.f.f.y.y.y.o.o o o F.F.F.F.F.F.F.F.F.F.F.F.F.F.F.F.F.",
"F.F.F.F.F.F.F.F.F.F.F.F.F.F.F.F.F.o S o F F F F J J k s s u + t.f.v.v.k.f.f.y.y.y.y.4.o   o F.F.F.F.F.F.F.F.F.F.F.F.F.F.F.F.F.F.",
"F.F.F.F.F.F.F.F.F.F.F.F.F.F.F.F.F.o d H F g F s k s g k s u o i.d.f.f.f.f.y.y.y.o.o o F.F.F.F.F.F.F.F.F.F.F.F.F.F.F.F.F.F.F.F.F.",
"F.F.F.F.F.F.F.F.F.F.F.F.F.F.F.F.F.o u K g F F g  .s d s g u o y.y.y.y.y.i.o o o o F.F.F.F.F.F.F.F.F.F.F.F.F.F.F.F.F.F.F.F.F.F.F.",
"F.F.F.F.F.F.F.F.F.F.F.F.F.F.F.F.F.o o p s g s p s u s u d o @.o X o X o o C B o F.F.F.F.F.F.F.F.F.F.F.F.F.F.F.F.F.F.F.F.F.F.F.F.",
"F.F.F.F.F.F.F.F.F.F.F.F.F.F.F.F.F.F.o o u u u i k u u s o o o o o ' ' ' ( I m o F.F.F.F.F.F.F.F.F.F.F.F.F.F.F.F.F.F.F.F.F.F.F.F.",
"F.F.F.F.F.F.F.F.F.F.F.F.F.F.F.F.F.F.F.o o o o u o u + o e o o ] q q :.' I Q B o o F.F.F.F.F.F.F.F.F.F.F.F.F.F.F.F.F.F.F.F.F.F.F.",
"F.F.F.F.F.F.F.F.F.F.F.F.F.F.F.F.F.F.F.F.F.X F.o o o t t o o [ ( B o ' I Q I C m o F.F.F.F.F.F.F.F.F.F.F.F.F.F.F.F.F.F.F.F.F.F.F.",
"F.F.F.F.F.F.F.F.F.F.F.F.F.F.F.F.F.F.F.F.F.F.F.o o 1 < o m o ^ Z n o Q I I C B C o F.F.F.F.F.F.F.F.F.F.F.F.F.F.F.F.F.F.F.F.F.F.F.",
"F.F.F.F.F.F.F.F.F.F.F.F.F.F.F.F.F.F.F.F.F.F.F.o m o o Z o B Z C 6 : Z Q Z Z m C o F.F.F.F.F.F.F.F.F.F.F.F.F.F.F.F.F.F.F.F.F.F.F.",
"F.F.F.F.F.F.F.F.F.F.F.F.F.F.F.F.F.F.F.F.F.F.o + o o o n o m B B o C Q Z 0 o o o o F.F.F.F.F.F.F.F.F.F.F.F.F.F.F.F.F.F.F.F.F.F.F.",
"F.F.F.F.F.F.F.F.F.F.F.F.F.F.F.F.F.F.F.F.F.F.o o o j } o M o o o o o o o # | G o o o F.F.F.F.F.F.F.F.F.F.F.F.F.F.F.F.F.F.F.F.F.F.",
"F.F.F.F.F.F.F.F.F.F.F.F.F.F.F.F.F.F.F.F.F.F.o q 6 o X o f.c.S.m.o o o o o o o v 6 o F.F.F.F.F.F.F.F.F.F.F.F.F.F.F.F.F.F.F.F.F.F.",
"F.F.F.F.F.F.F.F.F.F.F.F.F.F.F.F.F.F.F.F.F.F.o q q m q R v.m.M.v.g.@ Z Z Z v B v 2 X F.F.F.F.F.F.F.F.F.F.F.F.F.F.F.F.F.F.F.F.F.F.",
"F.F.F.F.F.F.F.F.F.F.F.F.F.F.F.F.F.F.F.F.F.F.o 6 v m m o d.v.v.d.o m m m V v v q 2 X F.F.F.F.F.F.F.F.F.F.F.F.F.F.F.F.F.F.F.F.F.F.",
"F.F.F.F.F.F.F.F.F.F.F.F.F.F.F.F.F.F.F.F.F.F.o 6 8 q m X X y.y.3 o m C m v v x q 6 o F.F.F.F.F.F.F.F.F.F.F.F.F.F.F.F.F.F.F.F.F.F.",
"F.F.F.F.F.F.F.F.F.F.F.F.F.F.F.F.F.F.F.F.F.F.o o : X 8 q q o o $ q q q q 7 $ 6 o o o F.F.F.F.F.F.F.F.F.F.F.F.F.F.F.F.F.F.F.F.F.F.",
"F.F.F.F.F.F.F.F.F.F.F.F.F.F.F.F.F.F.F.F.F.F.F.o o . o o o o o o o o o o o o o o F.F.F.F.F.F.F.F.F.F.F.F.F.F.F.F.F.F.F.F.F.F.F.F.",
"F.F.F.F.F.F.F.F.F.F.F.F.F.F.F.F.F.F.F.F.F.F.F.o > w o - = 1 = o F.o , r w , , o F.F.F.F.F.F.F.F.F.F.F.F.F.F.F.F.F.F.F.F.F.F.F.F.",
"F.F.F.F.F.F.F.F.F.F.F.F.F.F.F.F.F.F.F.F.F.F.F.o o o o o = = o F.o Y o r r , > X F.F.F.F.F.F.F.F.F.F.F.F.F.F.F.F.F.F.F.F.F.F.F.F.",
"F.F.F.F.F.F.F.F.F.F.F.F.F.F.F.F.F.F.F.F.F.F.F.F.F.F.F.F.o o o F.o o o o X o o o F.F.F.F.F.F.F.F.F.F.F.F.F.F.F.F.F.F.F.F.F.F.F.F.",
"F.F.F.F.F.F.F.F.F.F.F.F.F.F.F.F.F.F.F.F.F.F.F.F.F.F.F.F.F.F.F.F.o F.F.F.F.F.F.F.F.F.F.F.F.F.F.F.F.F.F.F.F.F.F.F.F.F.F.F.F.F.F.F.",
"F.F.F.F.F.F.F.F.F.F.F.F.F.F.F.F.F.F.F.F.F.F.F.F.F.F.F.F.F.F.F.F.F.F.F.F.F.F.F.F.F.F.F.F.F.F.F.F.F.F.F.F.F.F.F.F.F.F.F.F.F.F.F.F.",
"F.F.F.F.F.F.F.F.F.F.F.F.F.F.F.F.F.F.F.F.F.F.F.F.F.F.F.F.F.F.F.F.F.F.F.F.F.F.F.F.F.F.F.F.F.F.F.F.F.F.F.F.F.F.F.F.F.F.F.F.F.F.F.F.",
"F.F.F.F.F.F.F.F.F.F.F.F.F.F.F.F.F.F.F.F.F.F.F.F.F.F.F.F.F.F.F.F.F.F.F.F.F.F.F.F.F.F.F.F.F.F.F.F.F.F.F.F.F.F.F.F.F.F.F.F.F.F.F.F."
};
