/* XPM */
static char *result[] = {
/* columns rows colors chars-per-pixel */
"64 64 144 2 ",
"   c #151413",
".  c #181715",
"X  c #1A1917",
"o  c #1B1A18",
"O  c #221712",
"+  c #251914",
"@  c #2E1C15",
"#  c #221D19",
"$  c #291F19",
"%  c #311F17",
"&  c #23221C",
"*  c #2C211B",
"=  c #2A2A1E",
"-  c #342017",
";  c #33231C",
":  c #3D261C",
">  c #222325",
",  c #2F2E21",
"<  c #23242A",
"1  c #27282E",
"2  c #2C2C2D",
"3  c #332621",
"4  c #302C26",
"5  c #3E2F26",
"6  c #342F28",
"7  c #203D27",
"8  c #323221",
"9  c #393926",
"0  c #37312A",
"q  c #3D3D28",
"w  c #2D2E36",
"e  c #303136",
"r  c gray22",
"t  c #452B1F",
"y  c #472E20",
"u  c #4A2E21",
"i  c #4D3123",
"p  c #45362C",
"a  c #543525",
"s  c #583827",
"d  c #5E3C2A",
"f  c #443A31",
"g  c #5E3E31",
"h  c #603E2C",
"j  c #274A2F",
"k  c #295232",
"l  c #2C5936",
"z  c #37553E",
"x  c #43442C",
"c  c #48492F",
"v  c #464535",
"b  c #4B4237",
"n  c #474930",
"m  c #4B4C31",
"M  c #4F5135",
"N  c #505236",
"B  c #535639",
"V  c #55583A",
"C  c #595C3E",
"Z  c #65412E",
"A  c #69442F",
"S  c #654334",
"D  c #6E4731",
"F  c #6F4933",
"G  c #62493B",
"H  c #6F4C39",
"J  c #704A34",
"K  c #744D3B",
"L  c #79543F",
"P  c #353741",
"I  c #387249",
"U  c #5C5E41",
"Y  c #645647",
"T  c #6C5C4C",
"R  c #7C5C46",
"E  c #7D5B48",
"W  c #5E6042",
"Q  c #636645",
"!  c #666946",
"~  c #6A6C49",
"^  c #6E704C",
"/  c #71734F",
"(  c #716251",
")  c #7D6754",
"_  c #776855",
"`  c #737550",
"'  c #777854",
"]  c #7A7C54",
"[  c #7C7D59",
"{  c #8C5D46",
"}  c #835F4B",
"|  c #86745E",
" . c #94755F",
".. c #927E67",
"X. c #997A62",
"o. c #86865F",
"O. c #878860",
"+. c #8C8C64",
"@. c #919169",
"#. c #99996F",
"$. c #989770",
"%. c #9C9B72",
"&. c #A1896E",
"*. c #A48A70",
"=. c #AF8C70",
"-. c #AB9276",
";. c #A09F76",
":. c #B29377",
">. c #B3977A",
",. c #B39A7C",
"<. c #B89B7D",
"1. c #A2A177",
"2. c #A3A278",
"3. c #DED046",
"4. c #B39A81",
"5. c #BFA182",
"6. c #B7A191",
"7. c #BBA79A",
"8. c #CCA585",
"9. c #C3A88D",
"0. c #CDAB8A",
"q. c #D1AA89",
"w. c #CDB18F",
"e. c #C7AD96",
"r. c #C6AE9D",
"t. c #DAB794",
"y. c #DBB995",
"u. c #C1BFBF",
"i. c #E5C29D",
"p. c #F7EB94",
"a. c #EBC6A0",
"s. c #EFCBA4",
"d. c #EFCDAC",
"f. c #EFD0B6",
"g. c #F2D3B6",
"h. c #F0D2B9",
"j. c #C4C2C2",
"k. c #CDCDCD",
"l. c #DCDBDB",
"z. c #F2D8C5",
"x. c #F5DCCA",
"c. c #F9DFCD",
"v. c #E3E2E2",
"b. c None",
/* pixels */
"b.b.b.b.b.b.b.b.b.b.b.b.b.b.b.b.b.b.b.b.b.b.b.b.b.b.b.b.b.b.b.b.b.b.b.b.b.b.b.b.b.b.b.b.b.b.b.b.b.b.b.b.b.b.b.b.b.b.b.b.b.b.b.b.",
"b.b.b.b.b.b.b.b.b.b.b.b.b.b.b.b.b.b.b.b.b.b.b.b.b.b.b.b.b.b.b.b.b.b.b.b.b.b.b.b.b.b.b.b.b.b.b.b.b.b.b.b.b.b.b.b.b.b.b.b.b.b.b.b.",
"b.b.b.b.b.b.b.b.b.b.b.b.b.b.b.b.b.b.b.b.b.b.b.b.b.b.b.b.b.b.b.b.b.b.b.b.b.b.b.b.b.b.b.b.b.b.b.b.b.b.b.b.b.b.b.b.b.b.b.b.b.b.b.b.",
"b.b.b.b.b.b.b.b.b.b.b.b.b.b.b.b.b.b.b.b.b.b.b.b.b.b.b.b.b.b.b.b.b.b.b.b.b.b.b.b.b.b.b.b.b.b.b.b.b.b.b.b.b.b.b.b.b.b.b.b.b.b.b.b.",
"b.b.b.b.b.b.b.b.b.b.b.b.b.b.b.b.b.b.b.b.b.b.b.b.b.b.b.b.b.b.b.b.b.b.b.b.b.b.b.b.b.b.b.b.b.b.b.b.b.b.b.b.b.b.b.b.b.b.b.b.b.b.b.b.",
"b.b.b.b.b.b.b.b.b.b.b.b.b.b.b.b.b.b.b.b.b.b.b.b.b.b.b.b.b.b.b.b.b.b.b.b.b.b.b.b.b.b.b.b.b.b.b.b.b.b.b.b.b.b.b.b.b.b.b.b.b.b.b.b.",
"b.b.b.b.b.b.b.b.b.b.b.b.b.b.b.b.b.b.b.b.b.b.b.b.b.b.b.b.b.b.b.b.b.b.b.b.b.b.b.b.b.b.b.b.b.b.b.b.b.b.b.b.b.b.b.b.b.b.b.b.b.b.b.b.",
"b.b.b.b.b.b.b.b.b.b.b.b.b.b.b.b.b.b.b.b.b.b.b.b.b.b.b.o o o o o o o o o o X b.b.b.b.b.b.b.b.b.b.b.b.b.b.b.b.b.b.b.b.b.b.b.b.b.b.",
"b.b.b.b.b.b.b.b.b.b.b.b.b.b.b.b.b.b.b.b.b.b.b.b.o o o #.2.2.| +.+.;.2.2.2.X X o b.b.b.b.b.b.b.b.b.b.b.b.b.b.b.b.b.b.b.b.b.b.b.b.",
"b.b.b.b.b.b.b.b.b.b.b.b.b.b.b.b.b.b.b.b.b.b.X X M W ` / +.` +.+.2.2.2.2.2.2.2.2.o o X b.b.b.b.b.b.b.b.b.b.b.b.b.b.b.b.b.b.b.b.b.",
"b.b.b.b.b.b.b.b.b.b.b.b.b.b.b.b.b.b.b.b.b.o o Q U ` / m c +.+.+.+.%.2.2.+.] 2.@.%.2.q o b.b.b.b.b.b.b.b.b.b.b.b.b.b.b.b.b.b.b.b.",
"b.b.b.b.b.b.b.b.b.b.b.b.b.b.b.b.b.b.b.b.X o V V V 8 / / +./ 9 +.' +.2.2.2.2.2.2.+.2.+.2.o o b.b.b.b.b.b.b.b.b.b.b.b.b.b.b.b.b.b.",
"b.b.b.b.b.b.b.b.b.b.b.b.b.b.b.b.b.b.b.b.o x V W U W ! W / / +.` +.+.O.+.+.%.2.2.2.2.+.+.%.v o b.b.b.b.b.b.b.b.b.b.b.b.b.b.b.b.b.",
"b.b.b.b.b.b.b.b.b.b.b.b.b.b.b.b.b.b.b.b.o M 8 B V W W ` 8 / ` / +.' +.+.+.+.+.o.+.+.+.+.+.` q X b.b.b.b.b.b.b.b.b.b.b.b.b.b.b.b.",
"b.b.b.b.b.b.b.b.b.b.b.b.b.b.b.b.b.b.b.X j m M M B V V W W ` W ` / U ~ +.+.[ / / [ O.+.` B 4 V X o b.b.b.b.b.b.b.b.b.b.b.b.b.b.b.",
"b.b.b.b.b.b.b.b.b.b.b.b.b.b.b.b.b.b.b.X : 3.m V m W W V W 8 V ` ! ` ' / ^ V ! / / B B ` ` V W M o b.b.b.b.b.b.b.b.b.b.b.b.b.b.b.",
"b.b.b.b.b.b.b.b.b.b.b.b.b.b.b.b.b.b.b.b.o q x m B B m W C C C W W U ` ` ` ` ` ~ ! W ` ! V V C V q o b.b.b.b.b.b.b.b.b.b.b.b.b.b.",
"b.b.b.b.b.b.b.b.b.b.b.b.b.b.b.b.b.b.b.b.o o 9 q 5 m m N V V W C U W C 9 W W W W W W W W V V V , m X b.b.b.b.b.b.b.b.b.b.b.b.b.b.",
"b.b.b.b.b.b.b.b.b.b.b.b.b.b.b.b.b.b.b.o 6.o X & j p.m m B m V V V V V W W W W W W W , 8 9 W V V m & o b.b.b.b.b.b.b.b.b.b.b.b.b.",
"b.b.b.b.b.b.b.b.b.b.b.b.b.b.b.b.b.b.b.o c.e.4.o X = x q c m B m V V V V V V V B V V V V V V c N m q o b.b.b.b.b.b.b.b.b.b.b.b.b.",
"b.b.b.b.b.b.b.b.b.b.b.b.b.b.b.b.b.b.o c.d.g.8.9.<.o o q x c c c c B m m m m B B V V V m c V N V x m o b.b.b.b.b.b.b.b.b.b.b.b.b.",
"b.b.b.b.b.b.b.b.b.b.b.b.b.b.b.b.b.b.o c.g.s.d.d.s.  o o 8 q q x m m m m 8 x m m c m M m 9 c V c c m o b.b.b.b.b.b.b.b.b.b.b.b.b.",
"b.b.b.b.b.b.b.b.b.b.b.b.b.b.b.b.b.b.o d.s.d.d.s.s.o : X o x p.c m q q m m m c c m c c m q q q q V 8 q X b.b.b.b.b.b.b.b.b.b.b.b.",
"b.b.b.b.b.b.b.b.b.b.b.b.b.b.b.b.b.b.o d.d.w.s.s.w.X t t X X 8 c 8 q p.q p 8 x q x q q 9 q q , q q q = X b.b.b.b.b.b.b.b.b.b.b.b.",
"b.b.b.b.b.b.b.b.b.b.b.b.b.b.b.b.b.o r.d.d.s.s.d.s.X t t : y X X X 8 9 q q q q q p j i j : 8 8 8 8 o o b.b.b.b.b.b.b.b.b.b.b.b.b.",
"b.b.b.b.b.b.b.b.b.b.b.b.b.b.b.b.b.o s.s.s.s.q.s.d.& & t t a - - % X X X X X X X o X o o o O o o X b.b.b.b.b.b.b.b.b.b.b.b.b.b.b.",
"b.b.b.b.b.b.b.b.b.b.b.b.b.b.b.b.b.o s.s.s.s.s.s.s.( O t t t t t y : - - - - y y t u t % - - - @ X b.b.b.b.b.b.b.b.b.b.b.b.b.b.b.",
"b.b.b.b.b.b.b.b.b.b.b.b.b.b.b.b.b.# d.s.s.i.s.s.i.&.o : t t t s s y u t t d t y s h t h t t s : o b.b.b.b.b.b.b.b.b.b.b.b.b.b.b.",
"b.b.b.b.b.b.b.b.b.b.b.b.b.b.b.b.b.o i.s.s.s.O 5 s.8.o : t y : t : o $ t t t t t t h h t t t a t : X b.b.b.b.b.b.b.b.b.b.b.b.b.b.",
"b.b.b.b.b.b.b.b.b.b.b.b.b.b.b.b.b.o 8.s.:.O O O O s.o : : t t o o   o O : u t t t t t t t t t y t X b.b.b.b.b.b.b.b.b.b.b.b.b.b.",
"b.b.b.b.b.b.b.b.b.b.b.b.b.b.b.b.b.o s.O O s.s.s.i.s.o : : : & X 7.h.  >.X : : s y t s t t i : t : o b.b.b.b.b.b.b.b.b.b.b.b.b.b.",
"b.b.b.b.b.b.b.b.b.b.b.b.b.b.b.b.b.o O s.o o o o # s.,.o : : X z.R R +.8 >.X t : t t y t t t t : o b.b.b.b.b.b.b.b.b.b.b.b.b.b.b.",
"b.b.b.b.b.b.b.b.b.b.b.b.b.b.b.b.b.o s.o l j v.k.j.y.d.b $ : X f.d.s.t.o <.o o : : y y y y % : : # b.b.b.b.b.b.b.b.b.b.b.b.b.b.b.",
"b.b.b.b.b.b.b.b.b.b.b.b.b.b.b.b.b.o o 7 # k v.k.j.s.a.>.X X X s.R y.o s.s.>.o o : : y % : u % y o b.b.b.b.b.b.b.b.b.b.b.b.b.b.b.",
"b.b.b.b.b.b.b.b.b.b.b.b.b.b.b.b.b.o o 7 I z v.k.# s.a.s.| o X 8.=.o o s.s.s.>.-.X X y y u % u : o b.b.b.b.b.b.b.b.b.b.b.b.b.b.b.",
"b.b.b.b.b.b.b.b.b.b.b.b.b.b.b.b.b.o o k.v.v.l.u.o a.s.s.t.s.s.X o T s.s.s.s.s.w.*.X X : % y : : o b.b.b.b.b.b.b.b.b.b.b.b.b.b.b.",
"b.b.b.b.b.b.b.b.b.b.b.b.b.b.b.b.b.o y.o j.j.u.o s.s.o o o o ) s.s.s.s.s.s.s.s.s.s.*.o o : : y $ o b.b.b.b.b.b.b.b.b.b.b.b.b.b.b.",
"b.b.b.b.b.b.b.b.b.b.b.b.b.b.b.b.b.o Y y.6 o 4 a.o o D F } s o d.s.s.s.s.a.y.y.s.i.y.*.o : : : o b.b.b.b.b.b.b.b.b.b.b.b.b.b.b.b.",
"b.b.b.b.b.b.b.b.b.b.b.b.b.b.b.b.b.o p o # o O . } D } D h s o s.s.s.i.y.s.y.s.s.t.y.8.X.o : o . b.b.b.b.b.b.b.b.b.b.b.b.b.b.b.b.",
"b.b.b.b.b.b.b.b.b.b.b.b.b.b.b.b.b.o D J G h D h } E h a h s % ( y.y.y.s.s.i.y.y.8.8.8.X.o # o b.b.b.b.b.b.b.b.b.b.b.b.b.b.b.b.b.",
"b.b.b.b.b.b.b.b.b.b.b.b.b.b.b.b.b.X * E D d h h } d a s y i o o i.y.y.t.t.t.8.t.8.8.X.X b.o b.b.b.b.b.b.b.b.b.b.b.b.b.b.b.b.b.b.",
"b.b.b.b.b.b.b.b.b.b.b.b.b.b.b.b.b.o o } A a D a H a d d s y o y.t.y.y.y.0.8.8.8.o o o b.b.b.b.b.b.b.b.b.b.b.b.b.b.b.b.b.b.b.b.b.",
"b.b.b.b.b.b.b.b.b.b.b.b.b.b.b.b.b.b.o a a d d E d a i y u o o 8.8.8.8._ o o o o b.b.b.b.b.b.b.b.b.b.b.b.b.b.b.b.b.b.b.b.b.b.b.b.",
"b.b.b.b.b.b.b.b.b.b.b.b.b.b.b.b.b.b.o o t t a t a y a y y o o o o o X X / W m o b.b.b.b.b.b.b.b.b.b.b.b.b.b.b.b.b.b.b.b.b.b.b.b.",
"b.b.b.b.b.b.b.b.b.b.b.b.b.b.b.b.b.b.b.o X $ X t a t t X o > o o ! X / ` U U m o b.b.b.b.b.b.b.b.b.b.b.b.b.b.b.b.b.b.b.b.b.b.b.b.",
"b.b.b.b.b.b.b.b.b.b.b.b.b.b.b.b.b.b.b.b.X X X o o o o & 0 o o ] ] X ~ ! U U V q o b.b.b.b.b.b.b.b.b.b.b.b.b.b.b.b.b.b.b.b.b.b.b.",
"b.b.b.b.b.b.b.b.b.b.b.b.b.b.b.b.b.b.b.b.b.b.b.o o r r 2 o / o ] V o W W W V V M o b.b.b.b.b.b.b.b.b.b.b.b.b.b.b.b.b.b.b.b.b.b.b.",
"b.b.b.b.b.b.b.b.b.b.b.b.b.b.b.b.b.b.b.b.b.b.b.o m X > X W U o ~ V = 9 V W V N V o b.b.b.b.b.b.b.b.b.b.b.b.b.b.b.b.b.b.b.b.b.b.b.",
"b.b.b.b.b.b.b.b.b.b.b.b.b.b.b.b.b.b.b.b.b.b.b.o o 8 o V Q o n V B c o W V V m X o b.b.b.b.b.b.b.b.b.b.b.b.b.b.b.b.b.b.b.b.b.b.b.",
"b.b.b.b.b.b.b.b.b.b.b.b.b.b.b.b.b.b.b.b.b.b.X & K o o o o o m m M m o o o o o K # o b.b.b.b.b.b.b.b.b.b.b.b.b.b.b.b.b.b.b.b.b.b.",
"b.b.b.b.b.b.b.b.b.b.b.b.b.b.b.b.b.b.b.b.b.b.o o o o 3 g K o O X o o o { { S X X o o b.b.b.b.b.b.b.b.b.b.b.b.b.b.b.b.b.b.b.b.b.b.",
"b.b.b.b.b.b.b.b.b.b.b.b.b.b.b.b.b.b.b.b.b.b.o q q V & o o f y.f.c.y.o o o o V c 6 o b.b.b.b.b.b.b.b.b.b.b.b.b.b.b.b.b.b.b.b.b.b.",
"b.b.b.b.b.b.b.b.b.b.b.b.b.b.b.b.b.b.b.b.b.b.X q m m m m O 8.s.f.f.s.=.q V m m x 8 o b.b.b.b.b.b.b.b.b.b.b.b.b.b.b.b.b.b.b.b.b.b.",
"b.b.b.b.b.b.b.b.b.b.b.b.b.b.b.b.b.b.b.b.b.b.o 8 p q m c M o t.a.s.8.o V V m m q , X b.b.b.b.b.b.b.b.b.b.b.b.b.b.b.b.b.b.b.b.b.b.",
"b.b.b.b.b.b.b.b.b.b.b.b.b.b.b.b.b.b.b.b.b.b.o 8 8 j p c c + O 8.8.o o q q q m q 8 o b.b.b.b.b.b.b.b.b.b.b.b.b.b.b.b.b.b.b.b.b.b.",
"b.b.b.b.b.b.b.b.b.b.b.b.b.b.b.b.b.b.b.b.b.b.o o o o X & , j 9 . . o 8 8 o o o o X o b.b.b.b.b.b.b.b.b.b.b.b.b.b.b.b.b.b.b.b.b.b.",
"b.b.b.b.b.b.b.b.b.b.b.b.b.b.b.b.b.b.b.b.b.b.b.b.b.o o o o o o o o w o X o o o b.b.b.b.b.b.b.b.b.b.b.b.b.b.b.b.b.b.b.b.b.b.b.b.b.",
"b.b.b.b.b.b.b.b.b.b.b.b.b.b.b.b.b.b.b.b.b.b.b.b.b.o P o 1 > < o o o 1 1 1 1 o b.b.b.b.b.b.b.b.b.b.b.b.b.b.b.b.b.b.b.b.b.b.b.b.b.",
"b.b.b.b.b.b.b.b.b.b.b.b.b.b.b.b.b.b.b.b.b.b.b.b.b.o o o o o o o w < X < < 1 o b.b.b.b.b.b.b.b.b.b.b.b.b.b.b.b.b.b.b.b.b.b.b.b.b.",
"b.b.b.b.b.b.b.b.b.b.b.b.b.b.b.b.b.b.b.b.b.b.b.b.b.b.b.b.b.b.b.o o o X o o o o b.b.b.b.b.b.b.b.b.b.b.b.b.b.b.b.b.b.b.b.b.b.b.b.b.",
"b.b.b.b.b.b.b.b.b.b.b.b.b.b.b.b.b.b.b.b.b.b.b.b.b.b.b.b.b.b.b.b.b.b.b.b.b.b.b.b.b.b.b.b.b.b.b.b.b.b.b.b.b.b.b.b.b.b.b.b.b.b.b.b.",
"b.b.b.b.b.b.b.b.b.b.b.b.b.b.b.b.b.b.b.b.b.b.b.b.b.b.b.b.b.b.b.b.b.b.b.b.b.b.b.b.b.b.b.b.b.b.b.b.b.b.b.b.b.b.b.b.b.b.b.b.b.b.b.b.",
"b.b.b.b.b.b.b.b.b.b.b.b.b.b.b.b.b.b.b.b.b.b.b.b.b.b.b.b.b.b.b.b.b.b.b.b.b.b.b.b.b.b.b.b.b.b.b.b.b.b.b.b.b.b.b.b.b.b.b.b.b.b.b.b.",
"b.b.b.b.b.b.b.b.b.b.b.b.b.b.b.b.b.b.b.b.b.b.b.b.b.b.b.b.b.b.b.b.b.b.b.b.b.b.b.b.b.b.b.b.b.b.b.b.b.b.b.b.b.b.b.b.b.b.b.b.b.b.b.b."
};
