/* XPM */
static char *result[] = {
/* columns rows colors chars-per-pixel */
"64 64 137 2 ",
"   c #151412",
".  c #181716",
"X  c #1A1917",
"o  c #1B1A18",
"O  c #221713",
"+  c #241D19",
"@  c #301F17",
"#  c #25211E",
"$  c #2F211A",
"%  c #2C2C1F",
"&  c #342017",
"*  c #32221A",
"=  c #3D261C",
"-  c #3D281E",
";  c #232220",
":  c #282521",
">  c #2D2C23",
",  c #26272D",
"<  c #27282E",
"1  c #2F2D2C",
"2  c #322D26",
"3  c #3B2C24",
"4  c #203D27",
"5  c #313121",
"6  c #3A3A27",
"7  c #363329",
"8  c #3D3D28",
"9  c #2C2D35",
"0  c #323131",
"q  c #34353A",
"w  c gray22",
"e  c #40271D",
"r  c #462B1F",
"t  c #462E21",
"y  c #4B2E21",
"u  c #4D3224",
"i  c #4B332A",
"p  c #42382F",
"a  c #543525",
"s  c #583727",
"d  c #573829",
"f  c #5E3C2A",
"g  c #4D3D31",
"h  c #5B3C30",
"j  c #603D2B",
"k  c #2A5434",
"l  c #44442C",
"z  c #48492F",
"x  c #5F5C2C",
"c  c #474831",
"v  c #4B4C31",
"b  c #4E4E3C",
"n  c #52483C",
"m  c #4F5135",
"M  c #515336",
"N  c #545639",
"B  c #55583A",
"V  c #5A5C3E",
"C  c #65412E",
"Z  c #6A452F",
"A  c #6E4731",
"S  c #6C4A37",
"D  c #734D37",
"F  c #373943",
"G  c #356E45",
"H  c #367046",
"J  c #5D5F41",
"K  c #605345",
"L  c #6C5E4E",
"P  c #7B5C47",
"I  c #5E6042",
"U  c #626444",
"Y  c #666946",
"T  c #6C6E4A",
"R  c #6F714D",
"E  c #72744F",
"W  c #716351",
"Q  c #7E6A55",
"!  c #737550",
"~  c #7A7C56",
"^  c #777658",
"/  c #855843",
"(  c #8D5D46",
")  c #825E4A",
"_  c #8A7761",
"`  c #928A32",
"'  c #B1A636",
"]  c #81825B",
"[  c #8C8C64",
"{  c #8F8F68",
"}  c #9C846B",
"|  c #93936A",
" . c #98976E",
".. c #9E9D74",
"X. c #A1866E",
"o. c #A58B70",
"O. c #A09F75",
"+. c #BC9477",
"@. c #B29679",
"#. c #B39A7C",
"$. c #B99D7F",
"%. c #A2A177",
"&. c #A3A278",
"*. c #C29C7E",
"=. c #C7BF79",
"-. c #DFD14A",
";. c #9B9999",
":. c #B39A81",
">. c #BAA086",
",. c #BBA79A",
"<. c #B1B8B2",
"1. c #CCA585",
"2. c #CFAA8A",
"3. c #D9B492",
"4. c #DBB895",
"5. c #DFBD98",
"6. c #E2BF9A",
"7. c #C1BFBF",
"8. c #E6C39D",
"9. c #E9C49E",
"0. c #F7EB94",
"q. c #E8C6A0",
"w. c #EFCBA4",
"e. c #EFCDAC",
"r. c #EFCDB0",
"t. c #EFD0B6",
"y. c #F1D1B2",
"u. c #F2D4BB",
"i. c #CCCCCC",
"p. c #D3D2D2",
"a. c #DCDCDC",
"s. c #F3D7C0",
"d. c #F5D9C5",
"f. c #F4DBC9",
"g. c #F9DECC",
"h. c #E3E2E2",
"j. c None",
/* pixels */
"j.j.j.j.j.j.j.j.j.j.j.j.j.j.j.j.j.j.j.j.j.j.j.j.j.j.j.j.j.j.j.j.j.j.j.j.j.j.j.j.j.j.j.j.j.j.j.j.j.j.j.j.j.j.j.j.j.j.j.j.j.j.j.j.",
"j.j.j.j.j.j.j.j.j.j.j.j.j.j.j.j.j.j.j.j.j.j.j.j.j.j.j.j.j.j.j.j.j.j.j.j.j.j.j.j.j.j.j.j.j.j.j.j.j.j.j.j.j.j.j.j.j.j.j.j.j.j.j.j.",
"j.j.j.j.j.j.j.j.j.j.j.j.j.j.j.j.j.j.j.j.j.j.j.j.j.j.j.j.j.j.j.j.j.j.j.j.j.j.j.j.j.j.j.j.j.j.j.j.j.j.j.j.j.j.j.j.j.j.j.j.j.j.j.j.",
"j.j.j.j.j.j.j.j.j.j.j.j.j.j.j.j.j.j.j.j.j.j.j.j.j.j.j.j.j.j.j.j.j.j.j.j.j.j.j.j.j.j.j.j.j.j.j.j.j.j.j.j.j.j.j.j.j.j.j.j.j.j.j.j.",
"j.j.j.j.j.j.j.j.j.j.j.j.j.j.j.j.j.j.j.j.j.j.j.j.j.j.j.j.j.j.j.j.j.j.j.j.j.j.j.j.j.j.j.j.j.j.j.j.j.j.j.j.j.j.j.j.j.j.j.j.j.j.j.j.",
"j.j.j.j.j.j.j.j.j.j.j.j.j.j.j.j.j.j.j.j.j.j.j.j.j.j.j.j.j.j.j.j.j.j.j.j.j.j.j.j.j.j.j.j.j.j.j.j.j.j.j.j.j.j.j.j.j.j.j.j.j.j.j.j.",
"j.j.j.j.j.j.j.j.j.j.j.j.j.j.j.j.j.j.j.j.j.j.j.j.j.j.j.j.j.j.j.j.j.j.j.j.j.j.j.j.j.j.j.j.j.j.j.j.j.j.j.j.j.j.j.j.j.j.j.j.j.j.j.j.",
"j.j.j.j.j.j.j.j.j.j.j.j.j.j.j.j.j.j.j.j.j.j.j.j.j.j.j.o o o o o o o o o j.j.j.j.j.j.j.j.j.j.j.j.j.j.j.j.j.j.j.j.j.j.j.j.j.j.j.j.",
"j.j.j.j.j.j.j.j.j.j.j.j.j.j.j.j.j.j.j.j.j.j.j.j.X X X b  .&.&.%.| &.&.o o o X j.j.j.j.j.j.j.j.j.j.j.j.j.j.j.j.j.j.j.j.j.j.j.j.j.",
"j.j.j.j.j.j.j.j.j.j.j.j.j.j.j.j.j.j.j.j.j.j.o o 6 O.[ { { &.&.O.&.&.&.&.&.&.^ o o j.j.j.j.j.j.j.j.j.j.j.j.j.j.j.j.j.j.j.j.j.j.j.",
"j.j.j.j.j.j.j.j.j.j.j.j.j.j.j.j.j.j.j.j.j.o B I ! U U [ [ [ [ [ &.&.&.R [ &.| &.&.o o j.j.j.j.j.j.j.j.j.j.j.j.j.j.j.j.j.j.j.j.j.",
"j.j.j.j.j.j.j.j.j.j.j.j.j.j.j.j.j.j.j.j.o 6 l I T ! U E ^ [ [ [ [ &.| &.&.&.[ &.&.[ %.o o j.j.j.j.j.j.j.j.j.j.j.j.j.j.j.j.j.j.j.",
"j.j.j.j.j.j.j.j.j.j.j.j.j.j.j.j.j.j.j.o v B B I B ! Y ! [ ! 6 [ U [ [ ..&.&.%.&.&.[ [ %.o o j.j.j.j.j.j.j.j.j.j.j.j.j.j.j.j.j.j.",
"j.j.j.j.j.j.j.j.j.j.j.j.j.j.j.j.j.j.j.o v B I B J ! 8 ! E E [ ! ] [ [ [ [ [ [ [ [ [ [ [ ! 5 o j.j.j.j.j.j.j.j.j.j.j.j.j.j.j.j.j.",
"j.j.j.j.j.j.j.j.j.j.j.j.j.j.j.j.j.j.X 6 v z B B B J J 5 U T ! T ] [ [ ! ! ! ! ! ~ [ ! B U B o o j.j.j.j.j.j.j.j.j.j.j.j.j.j.j.j.",
"j.j.j.j.j.j.j.j.j.j.j.j.j.j.j.j.j.j.X 8 =.m v 2 V B J J B E E E ! ! U B Y ! ! B B B ! ! B J v o j.j.j.j.j.j.j.j.j.j.j.j.j.j.j.j.",
"j.j.j.j.j.j.j.j.j.j.j.j.j.j.j.j.j.j.o 5 ' z B B v U V B U N U V E E ! ! ! ! ! ! U ! U V J B B 5 o j.j.j.j.j.j.j.j.j.j.j.j.j.j.j.",
"j.j.j.j.j.j.j.j.j.j.j.j.j.j.j.j.j.j.j.o > 5 l z v 5 m V U N V V z U J J J I I J J J J B B B 5 m o j.j.j.j.j.j.j.j.j.j.j.j.j.j.j.",
"j.j.j.j.j.j.j.j.j.j.j.j.j.j.j.j.j.j.o . X 5 k = S z 5 m M N B U B U J J V V J J J 5 5 l J B B z 6 o j.j.j.j.j.j.j.j.j.j.j.j.j.j.",
"j.j.j.j.j.j.j.j.j.j.j.j.j.j.j.j.j.j.o d.,.X X * ` k z l N M z B N B B B B B B B B B B B B z m z c o j.j.j.j.j.j.j.j.j.j.j.j.j.j.",
"j.j.j.j.j.j.j.j.j.j.j.j.j.j.j.j.j.j.o g.y.$.#.o X 5 5 l v z B N z m z N B B B B B B z z B z B B v o j.j.j.j.j.j.j.j.j.j.j.j.j.j.",
"j.j.j.j.j.j.j.j.j.j.j.j.j.j.j.j.j.o f.e.w.y.e.>.  X % 8 l l v v z z 5 z m z v v M m m 6 z M z m v 6 o j.j.j.j.j.j.j.j.j.j.j.j.j.",
"j.j.j.j.j.j.j.j.j.j.j.j.j.j.j.j.j.o g.e.w.e.e.w.o = X % 5 0.8 8 l z z z z z m z z z z l 8 8 l B 2 6 X j.j.j.j.j.j.j.j.j.j.j.j.j.",
"j.j.j.j.j.j.j.j.j.j.j.j.j.j.j.j.j.o u.e.e.w.w.w.X r & o X x z 5 l l 6 l l l 6 6 l 6 5 6 8 6 8 8 8 6 X j.j.j.j.j.j.j.j.j.j.j.j.j.",
"j.j.j.j.j.j.j.j.j.j.j.j.j.j.j.j.j.o e.e.9.w.w.e.o e r & X X o 5 k -.6 l l 6 p 6 p k t 5 5 5 % X o o j.j.j.j.j.j.j.j.j.j.j.j.j.j.",
"j.j.j.j.j.j.j.j.j.j.j.j.j.j.j.j.j.o e.w.w.w.w.w.o r r r = r * X O O O . X X X X o o O X X X X @   j.j.j.j.j.j.j.j.j.j.j.j.j.j.j.",
"j.j.j.j.j.j.j.j.j.j.j.j.j.j.j.j.X W w.w.w.w.w.w.w.o e r r r r & @ & & & = t t t t t & & & & = r X j.j.j.j.j.j.j.j.j.j.j.j.j.j.j.",
"j.j.j.j.j.j.j.j.j.j.j.j.j.j.j.j.o q.w.w.w.w.6.w.w.X = j r r r r j e e r s r r r j r j r r r e r o j.j.j.j.j.j.j.j.j.j.j.j.j.j.j.",
"j.j.j.j.j.j.j.j.j.j.j.j.j.j.j.j.o 8.w.w.w.w.w.w.w.X = r y y e r = = r t f e r r j j s r r f = r o j.j.j.j.j.j.j.j.j.j.j.j.j.j.j.",
"j.j.j.j.j.j.j.j.j.j.j.j.j.j.j.j.o 6.w.w.$ O O c w.X = r r e r X X X X & = r = r r r r r r r = r o j.j.j.j.j.j.j.j.j.j.j.j.j.j.j.",
"j.j.j.j.j.j.j.j.j.j.j.j.j.j.j.j.o 4.w.w.O 3 w.O w.n X = = e X X ,.  } X $ = r r r s r r r r r r o j.j.j.j.j.j.j.j.j.j.j.j.j.j.j.",
"j.j.j.j.j.j.j.j.j.j.j.j.j.j.j.j.o 4.Q c w.o o Q w.$.X e = * X s.P f.X #.X e e r r r t r r = r = o j.j.j.j.j.j.j.j.j.j.j.j.j.j.j.",
"j.j.j.j.j.j.j.j.j.j.j.j.j.j.j.j.o O w.o < a.i.;.o w.#.o - o 1 P y.5.. w.@.o e = t = = r = e = = . j.j.j.j.j.j.j.j.j.j.j.j.j.j.j.",
"j.j.j.j.j.j.j.j.j.j.j.j.j.j.j.j.o 4.o 4 G h.i.7.o w.w.o = o 2.P w.5.. w.:._ X = = t r = = r e + j.j.j.j.j.j.j.j.j.j.j.j.j.j.j.j.",
"j.j.j.j.j.j.j.j.j.j.j.j.j.j.j.j.o o <.O H h.i.7.o w.w.o.o 2 o 4.4.. @.w.w.#.@.o o = r r r = e @ o j.j.j.j.j.j.j.j.j.j.j.j.j.j.j.",
"j.j.j.j.j.j.j.j.j.j.j.j.j.j.j.j.o o p.k k h.h.7.o w.1.4.#.w.o o X J w.w.w.w.w.#.#.o = = = = = o j.j.j.j.j.j.j.j.j.j.j.j.j.j.j.j.",
"j.j.j.j.j.j.j.j.j.j.j.j.j.j.j.j.o 2.X i.a.a.7.o w.w.w.L X + w.w.w.w.w.w.w.w.w.6.4.#.X = = = = o j.j.j.j.j.j.j.j.j.j.j.j.j.j.j.j.",
"j.j.j.j.j.j.j.j.j.j.j.j.j.j.j.j.o +.2.o o ; o w.w.o X 3 ) o W w.w.w.w.w.w.4.3.w.w.4.o.o = = + o j.j.j.j.j.j.j.j.j.j.j.j.j.j.j.j.",
"j.j.j.j.j.j.j.j.j.j.j.j.j.j.j.j.o o X $.4.w.: o X A A A Z r o w.w.w.w.4.w.9.6.6.4.4.*.: o = o j.j.j.j.j.j.j.j.j.j.j.j.j.j.j.j.j.",
"j.j.j.j.j.j.j.j.j.j.j.j.j.j.j.j.X u D # o o o / ) A ) s j j o 4.6.w.q.6.w.9.4.3.2.1.1.  o o j.j.j.j.j.j.j.j.j.j.j.j.j.j.j.j.j.j.",
"j.j.j.j.j.j.j.j.j.j.j.j.j.j.j.j.o - A X C A A A A j f f a r o 4.4.w.8.4.4.4.1.4.1.*.o o j.. j.j.j.j.j.j.j.j.j.j.j.j.j.j.j.j.j.j.",
"j.j.j.j.j.j.j.j.j.j.j.j.j.j.j.j.j.X f j A f C a S a f j f r o 4.4.4.4.4.2.1.1.1.. o o j.j.j.j.j.j.j.j.j.j.j.j.j.j.j.j.j.j.j.j.j.",
"j.j.j.j.j.j.j.j.j.j.j.j.j.j.j.j.j.o r ) A A A f ) a s a t r o 1.1.1.1.3.7 o o o j.j.j.j.j.j.j.j.j.j.j.j.j.j.j.j.j.j.j.j.j.j.j.j.",
"j.j.j.j.j.j.j.j.j.j.j.j.j.j.j.j.j.o o a a f a d a t a t s o p X X o o o 5 I c o j.j.j.j.j.j.j.j.j.j.j.j.j.j.j.j.j.j.j.j.j.j.j.j.",
"j.j.j.j.j.j.j.j.j.j.j.j.j.j.j.j.j.j.o o r r t r r r r = o o o o 7 X ! ! I I v o j.j.j.j.j.j.j.j.j.j.j.j.j.j.j.j.j.j.j.j.j.j.j.j.",
"j.j.j.j.j.j.j.j.j.j.j.j.j.j.j.j.j.j.j.o X o o e o r + o 0 . [ o ~ X 6 R I I v o j.j.j.j.j.j.j.j.j.j.j.j.j.j.j.j.j.j.j.j.j.j.j.j.",
"j.j.j.j.j.j.j.j.j.j.j.j.j.j.j.j.j.j.j.j.j.o j.X X o w 0 o ! B . T m X I I B m c o j.j.j.j.j.j.j.j.j.j.j.j.j.j.j.j.j.j.j.j.j.j.j.",
"j.j.j.j.j.j.j.j.j.j.j.j.j.j.j.j.j.j.j.j.j.j.j.o o 0 9 o J J V o T N X + I B v m o j.j.j.j.j.j.j.j.j.j.j.j.j.j.j.j.j.j.j.j.j.j.j.",
"j.j.j.j.j.j.j.j.j.j.j.j.j.j.j.j.j.j.j.j.j.j.j.o v o o B J J J o Y B m o B B v 5 o j.j.j.j.j.j.j.j.j.j.j.j.j.j.j.j.j.j.j.j.j.j.j.",
"j.j.j.j.j.j.j.j.j.j.j.j.j.j.j.j.j.j.j.j.j.j.o 3 o o o v V J J o B m v o o o X # o j.j.j.j.j.j.j.j.j.j.j.j.j.j.j.j.j.j.j.j.j.j.j.",
"j.j.j.j.j.j.j.j.j.j.j.j.j.j.j.j.j.j.j.j.j.j.o o o h / o o o o o o o o } o ( i o o o j.j.j.j.j.j.j.j.j.j.j.j.j.j.j.j.j.j.j.j.j.j.",
"j.j.j.j.j.j.j.j.j.j.j.j.j.j.j.j.j.j.j.j.j.j.o 8 > o o o o o o o 4.r.g.w.9.o o v 5 o j.j.j.j.j.j.j.j.j.j.j.j.j.j.j.j.j.j.j.j.j.j.",
"j.j.j.j.j.j.j.j.j.j.j.j.j.j.j.j.j.j.j.j.j.j.o 8 8 v v B M v N o 4.w.r.w.1.o v l > X j.j.j.j.j.j.j.j.j.j.j.j.j.j.j.j.j.j.j.j.j.j.",
"j.j.j.j.j.j.j.j.j.j.j.j.j.j.j.j.j.j.j.j.j.j.o 5 v v v v v B B o 1.w.w.4.X.o v 8 5 X j.j.j.j.j.j.j.j.j.j.j.j.j.j.j.j.j.j.j.j.j.j.",
"j.j.j.j.j.j.j.j.j.j.j.j.j.j.j.j.j.j.j.j.j.j.o 5 8 8 v B v v v l X 1.1.. o l z 8 5 o j.j.j.j.j.j.j.j.j.j.j.j.j.j.j.j.j.j.j.j.j.j.",
"j.j.j.j.j.j.j.j.j.j.j.j.j.j.j.j.j.j.j.j.j.j.o o 5 o 8 8 l M 8 8 8 X X 8 5 5 o o o o j.j.j.j.j.j.j.j.j.j.j.j.j.j.j.j.j.j.j.j.j.j.",
"j.j.j.j.j.j.j.j.j.j.j.j.j.j.j.j.j.j.j.j.j.j.j.o o j.o o o o o o o o o o o o o j.j.j.j.j.j.j.j.j.j.j.j.j.j.j.j.j.j.j.j.j.j.j.j.j.",
"j.j.j.j.j.j.j.j.j.j.j.j.j.j.j.j.j.j.j.j.j.j.j.j.j.j.j.j.o o o o 9 9 9 9 o o j.j.j.j.j.j.j.j.j.j.j.j.j.j.j.j.j.j.j.j.j.j.j.j.j.j.",
"j.j.j.j.j.j.j.j.j.j.j.j.j.j.j.j.j.j.j.j.j.j.j.j.j.j.j.o F o 9 < o q 9 < o j.j.j.j.j.j.j.j.j.j.j.j.j.j.j.j.j.j.j.j.j.j.j.j.j.j.j.",
"j.j.j.j.j.j.j.j.j.j.j.j.j.j.j.j.j.j.j.j.j.j.j.j.j.j.j.o o o o o o o X X o j.j.j.j.j.j.j.j.j.j.j.j.j.j.j.j.j.j.j.j.j.j.j.j.j.j.j.",
"j.j.j.j.j.j.j.j.j.j.j.j.j.j.j.j.j.j.j.j.j.j.j.j.j.j.j.j.j.j.j.j.j.j.j.j.o j.j.j.j.j.j.j.j.j.j.j.j.j.j.j.j.j.j.j.j.j.j.j.j.j.j.j.",
"j.j.j.j.j.j.j.j.j.j.j.j.j.j.j.j.j.j.j.j.j.j.j.j.j.j.j.j.j.j.j.j.j.j.j.j.j.j.j.j.j.j.j.j.j.j.j.j.j.j.j.j.j.j.j.j.j.j.j.j.j.j.j.j.",
"j.j.j.j.j.j.j.j.j.j.j.j.j.j.j.j.j.j.j.j.j.j.j.j.j.j.j.j.j.j.j.j.j.j.j.j.j.j.j.j.j.j.j.j.j.j.j.j.j.j.j.j.j.j.j.j.j.j.j.j.j.j.j.j.",
"j.j.j.j.j.j.j.j.j.j.j.j.j.j.j.j.j.j.j.j.j.j.j.j.j.j.j.j.j.j.j.j.j.j.j.j.j.j.j.j.j.j.j.j.j.j.j.j.j.j.j.j.j.j.j.j.j.j.j.j.j.j.j.j."
};
