/* XPM */
static char *result[] = {
/* columns rows colors chars-per-pixel */
"64 64 142 2 ",
"   c #11110F",
".  c #151412",
"X  c #1A1917",
"o  c #1B1A18",
"O  c #221712",
"+  c #241B15",
"@  c #241D19",
"#  c #291F19",
"$  c #301F17",
"%  c #1D241C",
"&  c #22211B",
"*  c #28231D",
"=  c #212B1F",
"-  c #2B2B1E",
";  c #342017",
":  c #32221A",
">  c #3D261C",
",  c #39281E",
"<  c #1F3C26",
"1  c #202022",
"2  c #292521",
"3  c #2D2D22",
"4  c #232429",
"5  c #27282E",
"6  c #203A26",
"7  c #213F28",
"8  c #313121",
"9  c #383725",
"0  c #373825",
"q  c #3C3C27",
"w  c #373729",
"e  c #3A342E",
"r  c #3D3D28",
"t  c #2D2E35",
"y  c #353535",
"u  c #34353A",
"i  c #393939",
"p  c #40271D",
"a  c #462B1F",
"s  c #472E20",
"d  c #492D20",
"f  c #453125",
"g  c #4D3022",
"h  c #40382F",
"j  c #543525",
"k  c #583827",
"l  c #54372C",
"z  c #54382D",
"x  c #5D3C2A",
"c  c #613F2B",
"v  c #274E30",
"b  c #295332",
"n  c #43432C",
"m  c #46482F",
"M  c #48492F",
"N  c #4B4C31",
"B  c #4D4339",
"V  c #554134",
"C  c #4F5135",
"Z  c #515236",
"A  c #545639",
"S  c #55583A",
"D  c #595C3E",
"F  c #64402E",
"G  c #624133",
"H  c #6E4731",
"J  c #6E4934",
"K  c #734D37",
"L  c #734C3A",
"P  c #484746",
"I  c #4F4E4D",
"U  c #5C5E41",
"Y  c #7C5C47",
"T  c #745F4C",
"R  c #5E6042",
"E  c #626444",
"W  c #66654D",
"Q  c #6B6D4A",
"!  c #6F714D",
"~  c #72744F",
"^  c #737550",
"/  c #777953",
"(  c #7A7C54",
")  c #7E7F59",
"_  c #7D7168",
"`  c #825E4A",
"'  c #87755E",
"]  c #88745F",
"[  c #8C7662",
"{  c #937B64",
"}  c #997C64",
"|  c #7F805A",
" . c #918A35",
".. c #81815B",
"X. c #8C8C64",
"o. c #919168",
"O. c #99996F",
"+. c #9C9C72",
"@. c #A3846C",
"#. c #A48A70",
"$. c #AA9175",
"%. c #A09F75",
"&. c #BC9477",
"*. c #B3977A",
"=. c #B3997C",
"-. c #A2A177",
";. c #A3A278",
":. c #869289",
">. c #AF9A8B",
",. c #B39A81",
"<. c #BBA79A",
"1. c #CCA585",
"2. c #CEA887",
"3. c #C6A788",
"4. c #D2AD8C",
"5. c #D4B08E",
"6. c #D4B291",
"7. c #D9B693",
"8. c #DBB895",
"9. c #E0BA97",
"0. c #E2BF9A",
"q. c #C1BFBF",
"w. c #E7C39E",
"e. c #E9C49F",
"r. c #F1E583",
"t. c #F6EA92",
"y. c #E5C5A6",
"u. c #ECC7A1",
"i. c #EFCBA4",
"p. c #EFCDAC",
"a. c #EFCFB1",
"s. c #E5CDBC",
"d. c #F0CFB0",
"f. c #EFD0B6",
"g. c #F1D2B5",
"h. c #C2C0C0",
"j. c #CDCDCD",
"k. c #D8D7D7",
"l. c #F4D7C1",
"z. c #F9DFCD",
"x. c #E3E2E2",
"c. c None",
/* pixels */
"c.c.c.c.c.c.c.c.c.c.c.c.c.c.c.c.c.c.c.c.c.c.c.c.c.c.c.c.c.c.c.c.c.c.c.c.c.c.c.c.c.c.c.c.c.c.c.c.c.c.c.c.c.c.c.c.c.c.c.c.c.c.c.c.",
"c.c.c.c.c.c.c.c.c.c.c.c.c.c.c.c.c.c.c.c.c.c.c.c.c.c.c.c.c.c.c.c.c.c.c.c.c.c.c.c.c.c.c.c.c.c.c.c.c.c.c.c.c.c.c.c.c.c.c.c.c.c.c.c.",
"c.c.c.c.c.c.c.c.c.c.c.c.c.c.c.c.c.c.c.c.c.c.c.c.c.c.c.c.c.c.c.c.c.c.c.c.c.c.c.c.c.c.c.c.c.c.c.c.c.c.c.c.c.c.c.c.c.c.c.c.c.c.c.c.",
"c.c.c.c.c.c.c.c.c.c.c.c.c.c.c.c.c.c.c.c.c.c.c.c.c.c.c.c.c.c.c.c.c.c.c.c.c.c.c.c.c.c.c.c.c.c.c.c.c.c.c.c.c.c.c.c.c.c.c.c.c.c.c.c.",
"c.c.c.c.c.c.c.c.c.c.c.c.c.c.c.c.c.c.c.c.c.c.c.c.c.c.c.c.c.c.c.c.c.c.c.c.c.c.c.c.c.c.c.c.c.c.c.c.c.c.c.c.c.c.c.c.c.c.c.c.c.c.c.c.",
"c.c.c.c.c.c.c.c.c.c.c.c.c.c.c.c.c.c.c.c.c.c.c.c.c.c.c.c.c.c.c.c.c.c.c.c.c.c.c.c.c.c.c.c.c.c.c.c.c.c.c.c.c.c.c.c.c.c.c.c.c.c.c.c.",
"c.c.c.c.c.c.c.c.c.c.c.c.c.c.c.c.c.c.c.c.c.c.c.c.c.c.c.c.c.c.c.c.c.c.c.c.c.c.c.c.c.c.c.c.c.c.c.c.c.c.c.c.c.c.c.c.c.c.c.c.c.c.c.c.",
"c.c.c.c.c.c.c.c.c.c.c.c.c.c.c.c.c.c.c.c.c.c.c.c.c.c.c.c.o o o o o c.c.c.c.c.c.c.c.c.c.c.c.c.c.c.c.c.c.c.c.c.c.c.c.c.c.c.c.c.c.c.",
"c.c.c.c.c.c.c.c.c.c.c.c.c.c.c.c.c.c.c.c.c.c.c.c.c.o o o 0 ;.;./ o o o o o c.c.c.c.c.c.c.c.c.c.c.c.c.c.c.c.c.c.c.c.c.c.c.c.c.c.c.",
"c.c.c.c.c.c.c.c.c.c.c.c.c.c.c.c.c.c.c.c.c.c.o o o ;.;.;.O.X.;.;.o.+.;.;.~ o o o c.c.c.c.c.c.c.c.c.c.c.c.c.c.c.c.c.c.c.c.c.c.c.c.",
"c.c.c.c.c.c.c.c.c.c.c.c.c.c.c.c.c.c.c.c.o o S / ^ X.X.E X.X.-.;.;.X.X.;.;.;.;.W o o c.c.c.c.c.c.c.c.c.c.c.c.c.c.c.c.c.c.c.c.c.c.",
"c.c.c.c.c.c.c.c.c.c.c.c.c.c.c.c.c.c.c.o o R S ^ T v Z X.X.X.X.-.%.;.;.;.;.%.;.X.+.+.o o c.c.c.c.c.c.c.c.c.c.c.c.c.c.c.c.c.c.c.c.",
"c.c.c.c.c.c.c.c.c.c.c.c.c.c.c.c.c.c.o o S R 0 ^ / ..~ S Q X.S X.+.;.;.+.+.X.;.;.X.X.+.o o c.c.c.c.c.c.c.c.c.c.c.c.c.c.c.c.c.c.c.",
"c.c.c.c.c.c.c.c.c.c.c.c.c.c.c.c.c.c.o S D S U ~ , ^ ^ ^ X.^ X.X.X.X.X.X.X.X.X.X.X.X.X.^ o o c.c.c.c.c.c.c.c.c.c.c.c.c.c.c.c.c.c.",
"c.c.c.c.c.c.c.c.c.c.c.c.c.c.c.c.c.o - 0 S R S R R Q ^ ^ ~ ^ X.X./ ^ / ) ) ^ ^ / X.^ m ^ S o o c.c.c.c.c.c.c.c.c.c.c.c.c.c.c.c.c.",
"c.c.c.c.c.c.c.c.c.c.c.c.c.c.c.c.c.X q N N 0 S S R U n ^ R Q ~ ~ E ~ N n r R Z S S ^ ^ U S N o c.c.c.c.c.c.c.c.c.c.c.c.c.c.c.c.c.",
"c.c.c.c.c.c.c.c.c.c.c.c.c.c.c.c.c.o Z  .S S - E S S R 8 S ! ^ ! ^ ~ ~ ~ ~ ~ / E ~ D S E S A - o c.c.c.c.c.c.c.c.c.c.c.c.c.c.c.c.",
"c.c.c.c.c.c.c.c.c.c.c.c.c.c.c.c.c.o 8 q m N S m S R U S D N D R R R E D U R R R R E S S S C M o c.c.c.c.c.c.c.c.c.c.c.c.c.c.c.c.",
"c.c.c.c.c.c.c.c.c.c.c.c.c.c.c.c.c.c.o 8 n n M N Z N S S R R R D R R R R S S S R , 8 C D S S N q o c.c.c.c.c.c.c.c.c.c.c.c.c.c.c.",
"c.c.c.c.c.c.c.c.c.c.c.c.c.c.c.c.c.o >.o & - 9 r.N N Z Z N S S S S S D S S S S S S S S S N M M C o c.c.c.c.c.c.c.c.c.c.c.c.c.c.c.",
"c.c.c.c.c.c.c.c.c.c.c.c.c.c.c.c.c.o z.<.e o o 3 q h N N S M Z N S S S S S S S S S N C A M S A M o c.c.c.c.c.c.c.c.c.c.c.c.c.c.c.",
"c.c.c.c.c.c.c.c.c.c.c.c.c.c.c.c.c.o g.l.i.,.=.o X q m q N M m 8 n M N N M Z N A S C 0 M m Z n M q o c.c.c.c.c.c.c.c.c.c.c.c.c.c.",
"c.c.c.c.c.c.c.c.c.c.c.c.c.c.c.c.o s.p.i.i.p.p.. X X 8 0 m q f N N q q r F M N V N N q q q N Z 8 q o c.c.c.c.c.c.c.c.c.c.c.c.c.c.",
"c.c.c.c.c.c.c.c.c.c.c.c.c.c.c.c.o z.d.i.p.p.i.o j * X 8 t.M V v r r r r v f n v f 8 f v n q q h - o c.c.c.c.c.c.c.c.c.c.c.c.c.c.",
"c.c.c.c.c.c.c.c.c.c.c.c.c.c.c.c.o g.g.p.i.i.i.o a x : X o q 8 n t.n v a 9 f v f r r 8 8 8 @ o o o c.c.c.c.c.c.c.c.c.c.c.c.c.c.c.",
"c.c.c.c.c.c.c.c.c.c.c.c.c.c.c.c.o g.i.i.i.i.i.% > g a s @ o o o % + X X X X X + o o X X o @ $ . c.c.c.c.c.c.c.c.c.c.c.c.c.c.c.c.",
"c.c.c.c.c.c.c.c.c.c.c.c.c.c.c.c.o p.i.i.i.p.i.+ X a a j a ; > s ; ; ; a s p s s d a $ $ $ a a o c.c.c.c.c.c.c.c.c.c.c.c.c.c.c.c.",
"c.c.c.c.c.c.c.c.c.c.c.c.c.c.c.c.o i.i.i.i.i.i.i.X > a a a x a x x k a a a a x g a k a a a a a o c.c.c.c.c.c.c.c.c.c.c.c.c.c.c.c.",
"c.c.c.c.c.c.c.c.c.c.c.c.c.c.c.c.o i.i.i.i.u.i.i.o > x g a a a a a a a > a a a j x x d a s a a @ c.c.c.c.c.c.c.c.c.c.c.c.c.c.c.c.",
"c.c.c.c.c.c.c.c.c.c.c.c.c.c.c.c.% i.i.i.i.i.i.i.o : p a a a > o X X > > a > a a d a a a a > a o c.c.c.c.c.c.c.c.c.c.c.c.c.c.c.c.",
"c.c.c.c.c.c.c.c.c.c.c.c.c.c.c.c.o i.i.T O O O i.=.o > > > > o . . h X X > a a a x k a a j > > o c.c.c.c.c.c.c.c.c.c.c.c.c.c.c.c.",
"c.c.c.c.c.c.c.c.c.c.c.c.c.c.c.c.2 i.i.O e.i.1.O i.o > p > o . z.i.X *.X > p p s s d d d p a s o c.c.c.c.c.c.c.c.c.c.c.c.c.c.c.c.",
"c.c.c.c.c.c.c.c.c.c.c.c.c.c.c.c.o u.+ 3.o o o o i.$.o p > X f.f.Y % i.*.X > p a > a > a a a > o c.c.c.c.c.c.c.c.c.c.c.c.c.c.c.c.",
"c.c.c.c.c.c.c.c.c.c.c.c.c.c.c.c.X i.X % x.x.q.o 2.i.o > o . y.i.e.o 8.i.*.o # > p a > > a > > o c.c.c.c.c.c.c.c.c.c.c.c.c.c.c.c.",
"c.c.c.c.c.c.c.c.c.c.c.c.c.c.c.c.o o < 2 7 x.j.I i.9.=.X o o 8.Y 8.o i.i.e.*.X o @ a a a > > > o c.c.c.c.c.c.c.c.c.c.c.c.c.c.c.c.",
"c.c.c.c.c.c.c.c.c.c.c.c.c.c.c.c.o P 6 < b x.j.o i.i.i.$.' o o @.o e.i.i.i.i.*.#.o o > > a > > o c.c.c.c.c.c.c.c.c.c.c.c.c.c.c.c.",
"c.c.c.c.c.c.c.c.c.c.c.c.c.c.c.c.o o :.v x.x.j.o i.u.i.u.u.i.B & i.i.i.i.i.i.i.i.#.e o > > a @ o c.c.c.c.c.c.c.c.c.c.c.c.c.c.c.c.",
"c.c.c.c.c.c.c.c.c.c.c.c.c.c.c.c.o ' o j.k.q.o 4.i.o o + o o i.i.i.i.i.i.i.8.i.8.8.#.o o > > o c.c.c.c.c.c.c.c.c.c.c.c.c.c.c.c.c.",
"c.c.c.c.c.c.c.c.c.c.c.c.c.c.c.c.o 8.#.o o o $.[ o * H ` H o { i.i.i.i.8.i.i.8.8.8.4.} o > o o c.c.c.c.c.c.c.c.c.c.c.c.c.c.c.c.c.",
"c.c.c.c.c.c.c.c.c.c.c.c.c.c.c.c.o o o o o o o o ` K H x H o i.i.8.w.i.8.i.e.8.4.7.1.&.. o o c.c.c.c.c.c.c.c.c.c.c.c.c.c.c.c.c.c.",
"c.c.c.c.c.c.c.c.c.c.c.c.c.c.c.c.o K ` V o f J K x F H j x a o i.8.w.e.i.8.8.2.8.1.&.o   . c.c.c.c.c.c.c.c.c.c.c.c.c.c.c.c.c.c.c.",
"c.c.c.c.c.c.c.c.c.c.c.c.c.c.c.c.o , o J c J c Y F k H c x o o 8.8.8.8.8.2.5.1.1.o o c.c.c.c.c.c.c.c.c.c.c.c.c.c.c.c.c.c.c.c.c.c.",
"c.c.c.c.c.c.c.c.c.c.c.c.c.c.c.c.o o x x H H c x F x x j a o 8.6.1.8.1.1.2.X X X c.c.c.c.c.c.c.c.c.c.c.c.c.c.c.c.c.c.c.c.c.c.c.c.",
"c.c.c.c.c.c.c.c.c.c.c.c.c.c.c.c.c.o g ` H c x ` j j a x a o &.&.#.X X X o S X c.c.c.c.c.c.c.c.c.c.c.c.c.c.c.c.c.c.c.c.c.c.c.c.c.",
"c.c.c.c.c.c.c.c.c.c.c.c.c.c.c.c.c.o > j a j k j j a j a @ o o o X X ! ~ R R A X c.c.c.c.c.c.c.c.c.c.c.c.c.c.c.c.c.c.c.c.c.c.c.c.",
"c.c.c.c.c.c.c.c.c.c.c.c.c.c.c.c.c.c.o @ a a a a g a a o o o ^ o | S % ~ R D M X c.c.c.c.c.c.c.c.c.c.c.c.c.c.c.c.c.c.c.c.c.c.c.c.",
"c.c.c.c.c.c.c.c.c.c.c.c.c.c.c.c.c.c.c.o o o o o o o o i o U E o | Q C X R A N X o c.c.c.c.c.c.c.c.c.c.c.c.c.c.c.c.c.c.c.c.c.c.c.",
"c.c.c.c.c.c.c.c.c.c.c.c.c.c.c.c.c.c.c.c.c.c.c.o o i y o & Q ~ o D Q C m X S N m o c.c.c.c.c.c.c.c.c.c.c.c.c.c.c.c.c.c.c.c.c.c.c.",
"c.c.c.c.c.c.c.c.c.c.c.c.c.c.c.c.c.c.c.c.c.c.c.o o o o o R R R U o E S Z 3 o N m o c.c.c.c.c.c.c.c.c.c.c.c.c.c.c.c.c.c.c.c.c.c.c.",
"c.c.c.c.c.c.c.c.c.c.c.c.c.c.c.c.c.c.c.c.c.c.o o o * S S R R R R o C Z X o 0.o o o c.c.c.c.c.c.c.c.c.c.c.c.c.c.c.c.c.c.c.c.c.c.c.",
"c.c.c.c.c.c.c.c.c.c.c.c.c.c.c.c.c.c.c.c.c.c.o z L o o o o o o o o o X _ z.u.7.o o c.c.c.c.c.c.c.c.c.c.c.c.c.c.c.c.c.c.c.c.c.c.c.",
"c.c.c.c.c.c.c.c.c.c.c.c.c.c.c.c.c.c.c.c.c.c.o o o o o z G L L K J o 8.i.d.i.1.o - o c.c.c.c.c.c.c.c.c.c.c.c.c.c.c.c.c.c.c.c.c.c.",
"c.c.c.c.c.c.c.c.c.c.c.c.c.c.c.c.c.c.c.c.c.c.o q v S A o o o O + o o 7.i.i.i.1.o 8 o c.c.c.c.c.c.c.c.c.c.c.c.c.c.c.c.c.c.c.c.c.c.",
"c.c.c.c.c.c.c.c.c.c.c.c.c.c.c.c.c.c.c.c.c.c.o q n V N M S M N N S 3 o 1.8.1.o r 8 o c.c.c.c.c.c.c.c.c.c.c.c.c.c.c.c.c.c.c.c.c.c.",
"c.c.c.c.c.c.c.c.c.c.c.c.c.c.c.c.c.c.c.c.c.c.o 8 n n M M M M Z N N N 3 o o o q q 8 o c.c.c.c.c.c.c.c.c.c.c.c.c.c.c.c.c.c.c.c.c.c.",
"c.c.c.c.c.c.c.c.c.c.c.c.c.c.c.c.c.c.c.c.c.c.o 8 , q n q M n v f m N r Z q q q 8 o o c.c.c.c.c.c.c.c.c.c.c.c.c.c.c.c.c.c.c.c.c.c.",
"c.c.c.c.c.c.c.c.c.c.c.c.c.c.c.c.c.c.c.c.c.c.o o o o o o o q o o o o o o o o o o o c.c.c.c.c.c.c.c.c.c.c.c.c.c.c.c.c.c.c.c.c.c.c.",
"c.c.c.c.c.c.c.c.c.c.c.c.c.c.c.c.c.c.c.c.c.c.c.c.c.c.c.o 1 o o t u u t o o o c.c.c.c.c.c.c.c.c.c.c.c.c.c.c.c.c.c.c.c.c.c.c.c.c.c.",
"c.c.c.c.c.c.c.c.c.c.c.c.c.c.c.c.c.c.c.c.c.c.c.c.c.c.c.o o 4 o t 5 5 1 o c.c.c.c.c.c.c.c.c.c.c.c.c.c.c.c.c.c.c.c.c.c.c.c.c.c.c.c.",
"c.c.c.c.c.c.c.c.c.c.c.c.c.c.c.c.c.c.c.c.c.c.c.c.c.c.c.c.c.o o o 4 4 o c.c.c.c.c.c.c.c.c.c.c.c.c.c.c.c.c.c.c.c.c.c.c.c.c.c.c.c.c.",
"c.c.c.c.c.c.c.c.c.c.c.c.c.c.c.c.c.c.c.c.c.c.c.c.c.c.c.c.c.c.o o o o o c.c.c.c.c.c.c.c.c.c.c.c.c.c.c.c.c.c.c.c.c.c.c.c.c.c.c.c.c.",
"c.c.c.c.c.c.c.c.c.c.c.c.c.c.c.c.c.c.c.c.c.c.c.c.c.c.c.c.c.c.c.c.c.c.c.c.c.c.c.c.c.c.c.c.c.c.c.c.c.c.c.c.c.c.c.c.c.c.c.c.c.c.c.c.",
"c.c.c.c.c.c.c.c.c.c.c.c.c.c.c.c.c.c.c.c.c.c.c.c.c.c.c.c.c.c.c.c.c.c.c.c.c.c.c.c.c.c.c.c.c.c.c.c.c.c.c.c.c.c.c.c.c.c.c.c.c.c.c.c.",
"c.c.c.c.c.c.c.c.c.c.c.c.c.c.c.c.c.c.c.c.c.c.c.c.c.c.c.c.c.c.c.c.c.c.c.c.c.c.c.c.c.c.c.c.c.c.c.c.c.c.c.c.c.c.c.c.c.c.c.c.c.c.c.c."
};
