/* XPM */
static char *result[] = {
/* columns rows colors chars-per-pixel */
"64 64 136 2 ",
"   c #0D0D0C",
".  c #141412",
"X  c #1B1917",
"o  c #1B1A18",
"O  c #221713",
"+  c #281C16",
"@  c #201E1B",
"#  c #24231C",
"$  c #2E2019",
"%  c #2A2A1E",
"&  c #342017",
"*  c #352219",
"=  c #3D261C",
"-  c #1F3C26",
";  c #242425",
":  c #2B2A24",
">  c #24252A",
",  c #27282E",
"<  c #342F28",
"1  c #203C26",
"2  c #323221",
"3  c #373825",
"4  c #393926",
"5  c #3A342D",
"6  c #3D3D28",
"7  c #2D2E36",
"8  c #373737",
"9  c #34353A",
"0  c #393939",
"q  c #462B1F",
"w  c #472E20",
"e  c #4A2E21",
"r  c #4E3123",
"t  c #473328",
"y  c #533525",
"u  c #5E3C2B",
"i  c #473E34",
"p  c #5F3E31",
"a  c #633F2D",
"s  c #25482D",
"d  c #295031",
"f  c #2D5D38",
"g  c #43442C",
"h  c #46482F",
"j  c #48492F",
"k  c #56552E",
"l  c #4B4237",
"z  c #4B4C31",
"x  c #4C4438",
"c  c #5C4538",
"v  c #4F5136",
"b  c #515336",
"n  c #545639",
"m  c #55583A",
"M  c #595B3E",
"N  c #69442F",
"B  c #6D4732",
"V  c #704933",
"C  c #734C3A",
"Z  c #75503C",
"A  c #79503D",
"S  c #383A44",
"D  c #4E4D4B",
"F  c #5C5E40",
"G  c #6E5E4E",
"H  c #7A5642",
"J  c #7C5B46",
"K  c #705E4E",
"L  c #5E6042",
"P  c #646646",
"I  c #6B6D4A",
"U  c #77634F",
"Y  c #6E714D",
"T  c #72744F",
"R  c #6B6A50",
"E  c #7B6A57",
"W  c #7C6A58",
"Q  c #737550",
"!  c #777953",
"~  c #7A7C55",
"^  c #78775A",
"/  c #7D7E58",
"(  c #835741",
")  c #805B47",
"_  c #835F4B",
"`  c #826B56",
"'  c #8B6D54",
"]  c #816E5A",
"[  c #937E67",
"{  c #997C64",
"}  c #83845D",
"|  c #8C8C64",
" . c #94946B",
".. c #9C9C72",
"X. c #A9896F",
"o. c #A58B71",
"O. c #AB8D75",
"+. c #AB9175",
"@. c #A09F75",
"#. c #BC9477",
"$. c #B3977A",
"%. c #B3997C",
"&. c #A2A177",
"*. c #A3A278",
"=. c #8A8888",
"-. c #B49B82",
";. c #BBA79A",
":. c #C2A484",
">. c #CCA585",
",. c #CEAB8A",
"<. c #D2AC8B",
"1. c #D6B18F",
"2. c #D6B391",
"3. c #D9B693",
"4. c #DBB895",
"5. c #DFBC98",
"6. c #E1BE9A",
"7. c #C1BFBF",
"8. c #E6C49E",
"9. c #E8C39E",
"0. c #F7EB94",
"q. c #D9C2B3",
"w. c #EDC7A1",
"e. c #EFCBA4",
"r. c #EFCDAC",
"t. c #ECCDB2",
"y. c #EFD0B6",
"u. c #F2D4BA",
"i. c #C4C2C2",
"p. c #CDCDCD",
"a. c gray82",
"s. c #F4D7C1",
"d. c #F7DCC6",
"f. c #F9DFCD",
"g. c #E3E2E2",
"h. c None",
/* pixels */
"h.h.h.h.h.h.h.h.h.h.h.h.h.h.h.h.h.h.h.h.h.h.h.h.h.h.h.h.h.h.h.h.h.h.h.h.h.h.h.h.h.h.h.h.h.h.h.h.h.h.h.h.h.h.h.h.h.h.h.h.h.h.h.h.",
"h.h.h.h.h.h.h.h.h.h.h.h.h.h.h.h.h.h.h.h.h.h.h.h.h.h.h.h.h.h.h.h.h.h.h.h.h.h.h.h.h.h.h.h.h.h.h.h.h.h.h.h.h.h.h.h.h.h.h.h.h.h.h.h.",
"h.h.h.h.h.h.h.h.h.h.h.h.h.h.h.h.h.h.h.h.h.h.h.h.h.h.h.h.h.h.h.h.h.h.h.h.h.h.h.h.h.h.h.h.h.h.h.h.h.h.h.h.h.h.h.h.h.h.h.h.h.h.h.h.",
"h.h.h.h.h.h.h.h.h.h.h.h.h.h.h.h.h.h.h.h.h.h.h.h.h.h.h.h.h.h.h.h.h.h.h.h.h.h.h.h.h.h.h.h.h.h.h.h.h.h.h.h.h.h.h.h.h.h.h.h.h.h.h.h.",
"h.h.h.h.h.h.h.h.h.h.h.h.h.h.h.h.h.h.h.h.h.h.h.h.h.h.h.h.h.h.h.h.h.h.h.h.h.h.h.h.h.h.h.h.h.h.h.h.h.h.h.h.h.h.h.h.h.h.h.h.h.h.h.h.",
"h.h.h.h.h.h.h.h.h.h.h.h.h.h.h.h.h.h.h.h.h.h.h.h.h.h.h.h.h.h.h.h.h.h.h.h.h.h.h.h.h.h.h.h.h.h.h.h.h.h.h.h.h.h.h.h.h.h.h.h.h.h.h.h.",
"h.h.h.h.h.h.h.h.h.h.h.h.h.h.h.h.h.h.h.h.h.h.h.h.h.h.h.h.h.h.h.h.h.h.h.h.h.h.h.h.h.h.h.h.h.h.h.h.h.h.h.h.h.h.h.h.h.h.h.h.h.h.h.h.",
"h.h.h.h.h.h.h.h.h.h.h.h.h.h.h.h.h.h.h.h.h.h.h.h.h.h.h.h.X X o o h.h.h.h.h.h.h.h.h.h.h.h.h.h.h.h.h.h.h.h.h.h.h.h.h.h.h.h.h.h.h.h.",
"h.h.h.h.h.h.h.h.h.h.h.h.h.h.h.h.h.h.h.h.h.h.h.h.h.X X X o ^ I : o X o o o h.h.h.h.h.h.h.h.h.h.h.h.h.h.h.h.h.h.h.h.h.h.h.h.h.h.h.",
"h.h.h.h.h.h.h.h.h.h.h.h.h.h.h.h.h.h.h.h.h.h.X . o *.&. . .| *.*.| *.*.*.: o o o h.h.h.h.h.h.h.h.h.h.h.h.h.h.h.h.h.h.h.h.h.h.h.h.",
"h.h.h.h.h.h.h.h.h.h.h.h.h.h.h.h.h.h.h.h.X X n | Q | } | | ..*.*.*.|  .*.*.*.*.o o o h.h.h.h.h.h.h.h.h.h.h.h.h.h.h.h.h.h.h.h.h.h.",
"h.h.h.h.h.h.h.h.h.h.h.h.h.h.h.h.h.h.h.X X L m Q Q 4 | | | | .. .*.*.*.*.*.*.*.| *.: o h.h.h.h.h.h.h.h.h.h.h.h.h.h.h.h.h.h.h.h.h.",
"h.h.h.h.h.h.h.h.h.h.h.h.h.h.h.h.h.h.X # 6 L m Q Q | Q Y | | } | *.*.....&.| *. .| | | X X h.h.h.h.h.h.h.h.h.h.h.h.h.h.h.h.h.h.h.",
"h.h.h.h.h.h.h.h.h.h.h.h.h.h.h.h.h.h.X m L L L M M Q Q } ~ j | | | | | | | | | | | | } Q X X h.h.h.h.h.h.h.h.h.h.h.h.h.h.h.h.h.h.",
"h.h.h.h.h.h.h.h.h.h.h.h.h.h.h.h.h.X 3 n m L m L Y 6 Q Q Q Q | } ! ^ } } } ! Q / | I 2 Y z o h.h.h.h.h.h.h.h.h.h.h.h.h.h.h.h.h.h.",
"h.h.h.h.h.h.h.h.h.h.h.h.h.h.h.h.h.X 6 z 3 m m m L F 2 P L Q ! P I F 4 3 2 M v m m T Q P m z o h.h.h.h.h.h.h.h.h.h.h.h.h.h.h.h.h.",
"h.h.h.h.h.h.h.h.h.h.h.h.h.h.h.h.h.X 0.z m z g F m M L m m Q I T T T T T Q T T P ! m m F m z X X h.h.h.h.h.h.h.h.h.h.h.h.h.h.h.h.",
"h.h.h.h.h.h.h.h.h.h.h.h.h.h.h.h.h.X 2 6 z b b z M L L L m L M L L P P M L L L L F F F F z m 6 X h.h.h.h.h.h.h.h.h.h.h.h.h.h.h.h.",
"h.h.h.h.h.h.h.h.h.h.h.h.h.h.h.h.h.. o 4 6 6 z z 2 z m M L M L L L L L L m m M n 2 : n m m m j X o h.h.h.h.h.h.h.h.h.h.h.h.h.h.h.",
"h.h.h.h.h.h.h.h.h.h.h.h.h.h.h.h.h.o o o 3 g 2 b j 6 z j m m m m m M L m m m m m m m m m b z z g o h.h.h.h.h.h.h.h.h.h.h.h.h.h.h.",
"h.h.h.h.h.h.h.h.h.h.h.h.h.h.h.h.h.o q.;.X o o 4 g j j j m z v b m M m m m m m M m z z m z h h z o h.h.h.h.h.h.h.h.h.h.h.h.h.h.h.",
"h.h.h.h.h.h.h.h.h.h.h.h.h.h.h.h.h.: r.s.-.%.5 o % g g j j j 2 2 j z z j j b j m m z 2 v z b 6 h 3 o h.h.h.h.h.h.h.h.h.h.h.h.h.h.",
"h.h.h.h.h.h.h.h.h.h.h.h.h.h.h.h.o f.r.e.u.r.r.. X X r s g 6 t j y s g 6 j v v j z z 6 6 6 b h 2 6 X h.h.h.h.h.h.h.h.h.h.h.h.h.h.",
"h.h.h.h.h.h.h.h.h.h.h.h.h.h.h.h.o f.r.e.r.r.e.X & X @ 6 0.j k s t 6 6 6 6 6 6 6 6 2 6 6 g 6 6 4 X X h.h.h.h.h.h.h.h.h.h.h.h.h.h.",
"h.h.h.h.h.h.h.h.h.h.h.h.h.h.h.h.o u.r.r.e.e.e.o w * o o % s = t 0.h s = g 6 6 6 t 4 2 : 2 o X X X h.h.h.h.h.h.h.h.h.h.h.h.h.h.h.",
"h.h.h.h.h.h.h.h.h.h.h.h.h.h.h.h.o r.r.e.e.e.e.# = r q w o X @ X X X X X X X X X X X X X X * & . h.h.h.h.h.h.h.h.h.h.h.h.h.h.h.h.",
"h.h.h.h.h.h.h.h.h.h.h.h.h.h.h.h.o r.e.r.e.r.e.X o q N u * & * q * * * w w & q w e = & & * q q X h.h.h.h.h.h.h.h.h.h.h.h.h.h.h.h.",
"h.h.h.h.h.h.h.h.h.h.h.h.h.h.h.h.o e.e.e.e.e.e.e.o * q q q u q u N w q w q r q y w y q q w q q X h.h.h.h.h.h.h.h.h.h.h.h.h.h.h.h.",
"h.h.h.h.h.h.h.h.h.h.h.h.h.h.h.h.3 e.e.e.e.w.e.e.o = u u q q q q q q q = q q q w a u q q w = w o h.h.h.h.h.h.h.h.h.h.h.h.h.h.h.h.",
"h.h.h.h.h.h.h.h.h.h.h.h.h.h.h.X x e.e.e.w.e.w.e.o = = q q q = X X X = q q q q q q w q q w = w o h.h.h.h.h.h.h.h.h.h.h.h.h.h.h.h.",
"h.h.h.h.h.h.h.h.h.h.h.h.h.h.h.X G e.e.U O O O e.%.o = = q = o . . +.X $ q r q q u y q q w q = X h.h.h.h.h.h.h.h.h.h.h.h.h.h.h.h.",
"h.h.h.h.h.h.h.h.h.h.h.h.h.h.h.X ] e.e.O ` e.<.+ 5.o = q = X . f.d.X $.X = = q q q w e w = q w X h.h.h.h.h.h.h.h.h.h.h.h.h.h.h.h.",
"h.h.h.h.h.h.h.h.h.h.h.h.h.h.h.X E w.O w.o o o K e.5 X w = X t.y.J o e.$.X q = q = q = q w q = X h.h.h.h.h.h.h.h.h.h.h.h.h.h.h.h.",
"h.h.h.h.h.h.h.h.h.h.h.h.h.h.h.h.X -.o o g.a.7.o 6.8.X = X X O.e.8.o e.8.+.X * = w w = = e * = X h.h.h.h.h.h.h.h.h.h.h.h.h.h.h.h.",
"h.h.h.h.h.h.h.h.h.h.h.h.h.h.h.h.X o 1 d s g.i.X e.>.%.X X X w.' 1.o e.e.,.%.X X $ w w w = = = X h.h.h.h.h.h.h.h.h.h.h.h.h.h.h.h.",
"h.h.h.h.h.h.h.h.h.h.h.h.h.h.h.h.o D O 1 1 g.p.X e.e.e.5 x X K X.o e.e.9.e.e.%.o.X X = = q = = X h.h.h.h.h.h.h.h.h.h.h.h.h.h.h.h.",
"h.h.h.h.h.h.h.h.h.h.h.h.h.h.h.h.o o 1 f g.g.p.X w.e.e.:.e.e.o o e.e.e.e.e.e.w.r.o.@ X = = r X X h.h.h.h.h.h.h.h.h.h.h.h.h.h.h.h.",
"h.h.h.h.h.h.h.h.h.h.h.h.h.h.h.h.o o =.p.g.p.X 5.e.i o o o o e.e.e.e.e.e.e.5.e.4.4.o.X o = = X h.h.h.h.h.h.h.h.h.h.h.h.h.h.h.h.h.",
"h.h.h.h.h.h.h.h.h.h.h.h.h.h.h.h.o 4.o o o o K 2.o o B _ u X 4.e.e.e.e.5.e.e.4.4.4.,.{ X = X X h.h.h.h.h.h.h.h.h.h.h.h.h.h.h.h.h.",
"h.h.h.h.h.h.h.h.h.h.h.h.h.h.h.h.o o o W [ < o o _ H B a u X w.e.4.4.e.5.e.9.4.<.2.>.#.. X X h.h.h.h.h.h.h.h.h.h.h.h.h.h.h.h.h.h.",
"h.h.h.h.h.h.h.h.h.h.h.h.h.h.h.h.o _ c o o X H B u N B y a q X 6.5.4.e.8.4.4.>.1.>.#.o   . h.h.h.h.h.h.h.h.h.h.h.h.h.h.h.h.h.h.h.",
"h.h.h.h.h.h.h.h.h.h.h.h.h.h.h.h.o y t H a B B ( N u B e u X o 4.4.4.4.5.>.3.>.>.X X h.h.h.h.h.h.h.h.h.h.h.h.h.h.h.h.h.h.h.h.h.h.",
"h.h.h.h.h.h.h.h.h.h.h.h.h.h.h.h.o o u a B C u u u u a e q o 4.3.,.4.>.>.>.X X X h.h.h.h.h.h.h.h.h.h.h.h.h.h.h.h.h.h.h.h.h.h.h.h.",
"h.h.h.h.h.h.h.h.h.h.h.h.h.h.h.h.h.o y _ B B a J y y q y q o #.#.1.@ o o X M X h.h.h.h.h.h.h.h.h.h.h.h.h.h.h.h.h.h.h.h.h.h.h.h.h.",
"h.h.h.h.h.h.h.h.h.h.h.h.h.h.h.h.h.o w y e y y y y w y w o o o o X o Q Q L L b X h.h.h.h.h.h.h.h.h.h.h.h.h.h.h.h.h.h.h.h.h.h.h.h.",
"h.h.h.h.h.h.h.h.h.h.h.h.h.h.h.h.h.h.X = w w e q q w q X o o Q o ~ m o Q L M j X h.h.h.h.h.h.h.h.h.h.h.h.h.h.h.h.h.h.h.h.h.h.h.h.",
"h.h.h.h.h.h.h.h.h.h.h.h.h.h.h.h.h.h.h.o o X o o o o o 0 o L R o ~ I b X L m z + h.h.h.h.h.h.h.h.h.h.h.h.h.h.h.h.h.h.h.h.h.h.h.h.",
"h.h.h.h.h.h.h.h.h.h.h.h.h.h.h.h.h.h.h.h.h.X h.o o 0 0 o o Q Q o M I n z X m z s o h.h.h.h.h.h.h.h.h.h.h.h.h.h.h.h.h.h.h.h.h.h.h.",
"h.h.h.h.h.h.h.h.h.h.h.h.h.h.h.h.h.h.h.h.h.h.h.X o o o o L L L L o n n b h X % h o h.h.h.h.h.h.h.h.h.h.h.h.h.h.h.h.h.h.h.h.h.h.h.",
"h.h.h.h.h.h.h.h.h.h.h.h.h.h.h.h.h.h.h.h.h.h.o o o o v m L F L L o v b o o 3.@ X X h.h.h.h.h.h.h.h.h.h.h.h.h.h.h.h.h.h.h.h.h.h.h.",
"h.h.h.h.h.h.h.h.h.h.h.h.h.h.h.h.h.h.h.h.h.h.o p C o o o o o o o o o X 5 f.y.1.X o h.h.h.h.h.h.h.h.h.h.h.h.h.h.h.h.h.h.h.h.h.h.h.",
"h.h.h.h.h.h.h.h.h.h.h.h.h.h.h.h.h.h.h.h.h.h.o o o o o p B H ( C C o 4.w.y.y.6.X % o h.h.h.h.h.h.h.h.h.h.h.h.h.h.h.h.h.h.h.h.h.h.",
"h.h.h.h.h.h.h.h.h.h.h.h.h.h.h.h.h.h.h.h.h.h.X g g m g X X X X X o o >.e.e.w.>.X 3 o h.h.h.h.h.h.h.h.h.h.h.h.h.h.h.h.h.h.h.h.h.h.",
"h.h.h.h.h.h.h.h.h.h.h.h.h.h.h.h.h.h.h.h.h.h.o 6 6 z z z m z z z n n o >.>.>.X 4 : X h.h.h.h.h.h.h.h.h.h.h.h.h.h.h.h.h.h.h.h.h.h.",
"h.h.h.h.h.h.h.h.h.h.h.h.h.h.h.h.h.h.h.h.h.h.o 2 z j z z z z b z v b m o + O t s 2 o h.h.h.h.h.h.h.h.h.h.h.h.h.h.h.h.h.h.h.h.h.h.",
"h.h.h.h.h.h.h.h.h.h.h.h.h.h.h.h.h.h.h.h.h.h.o 2 : 6 6 j z 6 g 6 j z t z s g t 2 o X h.h.h.h.h.h.h.h.h.h.h.h.h.h.h.h.h.h.h.h.h.h.",
"h.h.h.h.h.h.h.h.h.h.h.h.h.h.h.h.h.h.h.h.h.h.o o o o o o # 6 X # o o o @ o o o o o h.h.h.h.h.h.h.h.h.h.h.h.h.h.h.h.h.h.h.h.h.h.h.",
"h.h.h.h.h.h.h.h.h.h.h.h.h.h.h.h.h.h.h.h.h.h.h.h.h.h.h.X # X 7 > 9 S 7 X o o h.h.h.h.h.h.h.h.h.h.h.h.h.h.h.h.h.h.h.h.h.h.h.h.h.h.",
"h.h.h.h.h.h.h.h.h.h.h.h.h.h.h.h.h.h.h.h.h.h.h.h.h.h.h.o X @ ; , , 7 o o h.h.h.h.h.h.h.h.h.h.h.h.h.h.h.h.h.h.h.h.h.h.h.h.h.h.h.h.",
"h.h.h.h.h.h.h.h.h.h.h.h.h.h.h.h.h.h.h.h.h.h.h.h.h.h.h.h.h.o o o > > o h.h.h.h.h.h.h.h.h.h.h.h.h.h.h.h.h.h.h.h.h.h.h.h.h.h.h.h.h.",
"h.h.h.h.h.h.h.h.h.h.h.h.h.h.h.h.h.h.h.h.h.h.h.h.h.h.h.h.h.h.h.o o o o h.h.h.h.h.h.h.h.h.h.h.h.h.h.h.h.h.h.h.h.h.h.h.h.h.h.h.h.h.",
"h.h.h.h.h.h.h.h.h.h.h.h.h.h.h.h.h.h.h.h.h.h.h.h.h.h.h.h.h.h.h.h.h.h.h.h.h.h.h.h.h.h.h.h.h.h.h.h.h.h.h.h.h.h.h.h.h.h.h.h.h.h.h.h.",
"h.h.h.h.h.h.h.h.h.h.h.h.h.h.h.h.h.h.h.h.h.h.h.h.h.h.h.h.h.h.h.h.h.h.h.h.h.h.h.h.h.h.h.h.h.h.h.h.h.h.h.h.h.h.h.h.h.h.h.h.h.h.h.h.",
"h.h.h.h.h.h.h.h.h.h.h.h.h.h.h.h.h.h.h.h.h.h.h.h.h.h.h.h.h.h.h.h.h.h.h.h.h.h.h.h.h.h.h.h.h.h.h.h.h.h.h.h.h.h.h.h.h.h.h.h.h.h.h.h."
};
