/* XPM */
static char *df03008b5cca4abf9a7c4918f0594c2a01VXWAony2xKXEuZ[] = {
/* columns rows colors chars-per-pixel */
"64 64 130 2 ",
"   c None",
".  c black",
"X  c #0B0B09",
"o  c #131312",
"O  c #191716",
"+  c #1B1A17",
"@  c #1B1A18",
"#  c #221713",
"$  c #2E1C15",
"%  c #221D19",
"&  c #281F1A",
"*  c #23211C",
"=  c #29251D",
"-  c #2A2A1F",
";  c #342017",
":  c #3D261C",
">  c #1F2025",
",  c #252321",
"<  c #212F21",
"1  c #2F2C23",
"2  c #27282E",
"3  c #2E2E2E",
"4  c #3C2E25",
"5  c #203D27",
"6  c #313121",
"7  c #373825",
"8  c #393926",
"9  c #3D3D28",
"0  c #2E2F36",
"q  c gray22",
"w  c #452B1F",
"e  c #472E20",
"r  c #492E21",
"t  c #4D3123",
"y  c #543525",
"u  c #573827",
"i  c #5E3C2A",
"p  c #5B3C30",
"a  c #623F2C",
"s  c #2C5936",
"d  c #44452D",
"f  c #4B4C31",
"g  c #50473B",
"h  c #5C4538",
"j  c #574B3F",
"k  c #4F5134",
"l  c #515437",
"z  c #535538",
"x  c #55583A",
"c  c #5A5C3E",
"v  c #65412E",
"b  c #68432F",
"n  c #674435",
"m  c #6E4731",
"M  c #62493B",
"N  c #734C3A",
"B  c #73503D",
"V  c #373943",
"C  c #3C5A43",
"Z  c #3D7C51",
"A  c #575642",
"S  c #5C5F41",
"D  c #454754",
"F  c #675A4A",
"G  c #6B5C4C",
"H  c #7B5C47",
"J  c #5E6042",
"K  c #636545",
"L  c #626148",
"P  c #6B6D4A",
"I  c #74604F",
"U  c #72744F",
"Y  c #737550",
"T  c #7A7C54",
"R  c #6E6D6C",
"E  c #8E5E47",
"W  c #835F4B",
"Q  c #89705C",
"!  c #8D7A63",
"~  c #957B63",
"^  c #9C7C64",
"/  c #7F805C",
"(  c #DBCC3B",
")  c #83845D",
"_  c #868660",
"`  c #8C8C64",
"'  c #988069",
"]  c #93936A",
"[  c #98976E",
"{  c #9F9E74",
"}  c #A48A70",
"|  c #AE8C71",
" . c #AA9276",
".. c #A09F76",
"X. c #B3977A",
"o. c #B49A7C",
"O. c #BB9D7F",
"+. c #A2A177",
"@. c #A3A278",
"#. c #C29D7F",
"$. c #B39A81",
"%. c #B7A191",
"&. c #BEA897",
"*. c #BBA79A",
"=. c #ACAAAA",
"-. c #C6A787",
";. c #CCA585",
":. c #CEA887",
">. c #C5A989",
",. c #D2AC8B",
"<. c #D1B494",
"1. c #DBB895",
"2. c #DFBB98",
"3. c #E1BE9A",
"4. c #C1BFBF",
"5. c #E6C39D",
"6. c #E8C49E",
"7. c #F7EB94",
"8. c #DEC1A8",
"9. c #EAC6A0",
"0. c #EFCBA4",
"q. c #EFCDAB",
"w. c #EFCEB2",
"e. c #EFD0B6",
"r. c #F1D1B4",
"t. c #F3D5BA",
"y. c #C4C3C3",
"u. c #CECECE",
"i. c #F9DFCD",
"p. c #E3E2E2",
/* pixels */
"                                                                                                                                ",
"                                                                                                                                ",
"                                                                                                                                ",
"                                                                                                                                ",
"                                                                                                                                ",
"                                                                                                                                ",
"                                                                                                                                ",
"                                                    + @ @ @ @ @ @ @ @ @ @                                                       ",
"                                              + @ + + @.@.@...` ` _ ..@.@.@ @ @                                                 ",
"                                          + + + @.@.@...@.@.@.@.` ` ` ` Y Y S l @ @                                             ",
"                                      + + A @...[ ..U ] @.@.@.` ` ` ` f l Y Y J J @ @                                           ",
"                                    + + @.` @.` @.@.@.@.@.@.` T ` 1 Y ` Y Y 6 x x x @ +                                         ",
"                                  + L ] ` ` @.@.@.@.[ ` ` ` ` ) Y ` Y Y f U J J J x 9 @                                         ",
"                                O f Y ` ` ` ` ` _ ` ` ` ` ` ) ` Y Y P 6 Y S J x x 6 l @                                         ",
"                              @ O c 1 x Y ` ) T Y Y ) ` ` Y c U Y J Y J S x x l f f f 9 @                                       ",
"                              @ l J c Y Y c x Y Y K x Y Y Y U K Y x 7 J x J J f x f ( 1 @                                       ",
"                            + 9 x J x x P Y J K P U U U U U c K S c x S J f x x f d 9 @ .                                       ",
"                            + f 6 x x x J J J J J J K S 6 K K S c S x x x f f 1 9 8 @ @                                         ",
"                          @ - f l x J 6 6 6 J J J J J J c x x x x z l z f f 7.9 % + @ %.@                                       ",
"                          @ 9 f l f x x x x x x x x x x c z x x f x f f 9 d & @ + $.8.i.@                                       ",
"                          + f d x l x f f c x x z z f f f f x d f f d d s # O X.<.:.t.q.i.+                                     ",
"                        + O f f f x f 7 f f f f f f d - f f f f 9 9 e 6 @ + o 0.q.q.0.e.i.+                                     ",
"                        + 9 - c 9 9 9 9 f f f f f f f f f 9 9 f f 7.s # @ : @ 0.0.q.q.q.w.+                                     ",
"                        @ 8 9 9 e - 9 9 6 9 9 9 9 9 7 9 9 7.9 6 f 1 + # y e @ q.0.0.;.q.w.@                                     ",
"                        . @ @ 6 7 6 6 6 9 9 9 9 9 9 9 9 9 7 - @ + + r : w r @ 0.0.0.0.q.q.>.@                                   ",
"                          . X @ @ @ @ @ + + + + + @ @ @ @ @ @ ; ; ; t w w + + 0.0.;.0.0.q.q.@                                   ",
"                              O $ ; = ; ; w e e e e ; ; ; ; : e r e w w e + ! 0.0.0.0.0.0.0.@                                   ",
"                            @ @ : y w w a w a u w w i w w w e i a w w w : + X.0.9.0.0.0.0.0.@                                   ",
"                            @ : : u w w w v v w w w e e : & @ : e ; e w : @ -.0.# # 0.0.0.3.@                                   ",
"                            @ w w w w w w w w w w w e : @ @ o @ @ w w : : @ 0.# # # # ~ 0.;.@                                   ",
"                            @ : w : t w w u w w u : w O o.o r.*.@ % : : : @ 0.9.0.0.0.4 # 0.@                                   ",
"                            @ @ : w w w w w w w : w O o.@ $.H H i.@ : : @ X.0.@ + + + + 0.+ @                                   ",
"                              @ : : : e : w e : : @ O O.@ 5.0.q.e.@ 4 # F 0.9.4.u.p.5 s @ q.@                                   ",
"                              @ w : w : : e : : @ @ X.0.0.@ 1.H 0.@ @ @ X.0.0.y.u.p.s # < + @                                   ",
"                              @ : w : w w w @ @ X.X.0.0.0.@ @ | ;.@ @ | 0.0.0.@ u.p.C Z 5 + +                                   ",
"                              @ : : : : : @ O } <.0.0.0.0.0.F @ @ 9.0.6.9.0.9.@ 4.p.p.p.u.+ +                                   ",
"                              + & e : : @ @ } 0.0.0.0.0.0.0.0.0.9.A @ # % @ 9.0.+ =.4.R + 1.@                                   ",
"                                O : : : O } 1.5.0.1.1.0.0.0.0.0.0.@ y W m m @ % 0.' + >.1., @                                   ",
"                                O @ : @ ^ ;.1.1.0.0.1.0.1.9.0.0.0.O u a a W m W + + + + + h @                                   ",
"                                  @ % @ ^ ;.;.;.1.1.0.0.0.1.1.1.A : y a u i W W a m v M m n @                                   ",
"                                    @ . @ ^ ;.;.1.;.1.2.1.1.1.1.O O t r u y a W a i i m W @ @                                   ",
"                                    .     @ + + ;.;.;.;.1.1.1.1.1.O w p i i y N y m e m W @ @                                   ",
"                                                + @ @ @ I ;.;.;.;.% O r e y y i W i i y u @ @                                   ",
"                                                + f S Y @ @ @ @ O O O r e y e y w y e e + +                                     ",
"                                                @ f S S Y Y O P O @ 3 O @ w e y w @ + @ @                                       ",
"                                              + f x S S P P @ T T @ @ 0 , @ @ @ @ @ + +                                         ",
"                                              + k x x J S S @ S T @ Y @ 3 q q @ @                                               ",
"                                              + x x x J x + 7 x I @ J J @ , @ f @                                               ",
"                                              @ @ f x x S @ f x x 7 , S x @ d @ @                                               ",
"                                            @ = N @ @ + @ @ f f f f @ @ @ @ @ N @ @                                             ",
"                                            @ @ @ @ n E E @ @ @ @ @ @ N p % + + + @                                             ",
"                                            @ 6 f x @ @ @ 1 6.i.w.1.@ @ @ 1 x 9 9 @                                             ",
"                                            O 6 d f f x @ 2.0.w.q.0.Q 9 f f f f 9 @                                             ",
"                                            + 1 9 f f x x @ ,.0.9.,.@ f f f 9 9 6 @                                             ",
"                                            @ 6 9 f 9 9 9 + @ #.| + > f f 9 9 6 6 @                                             ",
"                                            @ @ + @ @ @ 6 1 @ @ % 6 9 = @ @ + @ @ @                                             ",
"                                                  @ > @ @ @ 0 @ @ @ @ @ @ @                                                     ",
"                                                  @ 2 2 2 2 @ D @ > > > @ V @                                                   ",
"                                                  @ @ @ @ @ @ @ @ @ @ @ @ @ @                                                   ",
"                                                          o @ @ @                                                               ",
"                                                                                                                                ",
"                                                                                                                                ",
"                                                                                                                                ",
"                                                                                                                                "
};
