/* XPM */
static char *result[] = {
/* columns rows colors chars-per-pixel */
"64 64 127 2 ",
"   c #141312",
".  c #191716",
"X  c #1C1A17",
"o  c #1B1A18",
"O  c #221712",
"+  c #2E1C15",
"@  c #221D19",
"#  c #281F1A",
"$  c #23211C",
"%  c #29251D",
"&  c #2A2A1F",
"*  c #342017",
"=  c #3D261C",
"-  c #201F22",
";  c #242324",
":  c #2F2C23",
">  c #24252A",
",  c #27282E",
"<  c #2D2D2E",
"1  c #342F28",
"2  c #203D27",
"3  c #313121",
"4  c #373825",
"5  c #393926",
"6  c #363029",
"7  c #3D3D28",
"8  c #2E2F37",
"9  c #34353A",
"0  c gray22",
"q  c #452B1F",
"w  c #472E20",
"e  c #492E21",
"r  c #4D3123",
"t  c #543525",
"y  c #573827",
"u  c #5E3C2A",
"i  c #5B3C30",
"p  c #623F2C",
"a  c #24462C",
"s  c #295232",
"d  c #2C5936",
"f  c #44452D",
"g  c #4B4C31",
"h  c #50473B",
"j  c #5C4538",
"k  c #574B3F",
"l  c #4F5134",
"z  c #515437",
"x  c #535538",
"c  c #55583A",
"v  c #5A5C3E",
"b  c #65412E",
"n  c #68432F",
"m  c #674435",
"M  c #6E4731",
"N  c #734C3A",
"B  c #73503D",
"V  c #373943",
"C  c #3B5942",
"Z  c #3B784E",
"A  c #575642",
"S  c #5C5F41",
"D  c #675A4A",
"F  c #6B5C4C",
"G  c #765645",
"H  c #7B5C47",
"J  c #5E6042",
"K  c #636545",
"L  c #626148",
"P  c #6B6D4A",
"I  c #74604F",
"U  c #72744F",
"Y  c #737550",
"T  c #7A7C54",
"R  c #8E5E47",
"E  c #835F4B",
"W  c #89705C",
"Q  c #8D7A63",
"!  c #9C7C64",
"~  c #7F805C",
"^  c #DBCC3B",
"/  c #83845D",
"(  c #868660",
")  c #8C8C64",
"_  c #93936A",
"`  c #98976E",
"'  c #9F9E74",
"]  c #A48A70",
"[  c #AE8C71",
"{  c #AD9276",
"}  c #A09F76",
"|  c #B3977A",
" . c #B49A7C",
".. c #BB9D7F",
"X. c #A2A177",
"o. c #A3A278",
"O. c #C29D7F",
"+. c #B39A81",
"@. c #B7A191",
"#. c #BEA897",
"$. c #BBA79A",
"%. c #C6A787",
"&. c #CCA585",
"*. c #CEA887",
"=. c #D2AC8B",
"-. c #D1B494",
";. c #DBB895",
":. c #DFBB98",
">. c #E1BE9A",
",. c #C1BFBF",
"<. c #E6C39D",
"1. c #E8C49E",
"2. c #F7EB94",
"3. c #DEC1A8",
"4. c #EAC6A0",
"5. c #EFCBA4",
"6. c #EFCDAB",
"7. c #EFCEB2",
"8. c #EFD0B6",
"9. c #F1D1B4",
"0. c #F3D5BA",
"q. c #C5C3C3",
"w. c #CECECE",
"e. c #DEDDDD",
"r. c #F9DFCD",
"t. c #E3E2E2",
"y. c None",
/* pixels */
"y.y.y.y.y.y.y.y.y.y.y.y.y.y.y.y.y.y.y.y.y.y.y.y.y.y.y.y.y.y.y.y.y.y.y.y.y.y.y.y.y.y.y.y.y.y.y.y.y.y.y.y.y.y.y.y.y.y.y.y.y.y.y.y.",
"y.y.y.y.y.y.y.y.y.y.y.y.y.y.y.y.y.y.y.y.y.y.y.y.y.y.y.y.y.y.y.y.y.y.y.y.y.y.y.y.y.y.y.y.y.y.y.y.y.y.y.y.y.y.y.y.y.y.y.y.y.y.y.y.",
"y.y.y.y.y.y.y.y.y.y.y.y.y.y.y.y.y.y.y.y.y.y.y.y.y.y.y.y.y.y.y.y.y.y.y.y.y.y.y.y.y.y.y.y.y.y.y.y.y.y.y.y.y.y.y.y.y.y.y.y.y.y.y.y.",
"y.y.y.y.y.y.y.y.y.y.y.y.y.y.y.y.y.y.y.y.y.y.y.y.y.y.y.y.y.y.y.y.y.y.y.y.y.y.y.y.y.y.y.y.y.y.y.y.y.y.y.y.y.y.y.y.y.y.y.y.y.y.y.y.",
"y.y.y.y.y.y.y.y.y.y.y.y.y.y.y.y.y.y.y.y.y.y.y.y.y.y.y.y.y.y.y.y.y.y.y.y.y.y.y.y.y.y.y.y.y.y.y.y.y.y.y.y.y.y.y.y.y.y.y.y.y.y.y.y.",
"y.y.y.y.y.y.y.y.y.y.y.y.y.y.y.y.y.y.y.y.y.y.y.y.y.y.y.y.y.y.y.y.y.y.y.y.y.y.y.y.y.y.y.y.y.y.y.y.y.y.y.y.y.y.y.y.y.y.y.y.y.y.y.y.",
"y.y.y.y.y.y.y.y.y.y.y.y.y.y.y.y.y.y.y.y.y.y.y.y.y.y.y.y.y.y.y.y.y.y.y.y.y.y.y.y.y.y.y.y.y.y.y.y.y.y.y.y.y.y.y.y.y.y.y.y.y.y.y.y.",
"y.y.y.y.y.y.y.y.y.y.y.y.y.y.y.y.y.y.y.y.y.y.y.y.y.y.y.y.y.y.y.o o o o o o o o o o o y.y.y.y.y.y.y.y.y.y.y.y.y.y.y.y.y.y.y.y.y.y.",
"y.y.y.y.y.y.y.y.y.y.y.y.y.y.y.y.y.y.y.y.y.y.y.y.y.y.y.y.X X X X o.o.o.} ) ) ~ X.o.o.o o o y.y.y.y.y.y.y.y.y.y.y.y.y.y.y.y.y.y.y.",
"y.y.y.y.y.y.y.y.y.y.y.y.y.y.y.y.y.y.y.y.y.y.y.y.y.y.o o X o.o.o.o.o.o.o.o.) ) ) ) Y Y S x . o y.y.y.y.y.y.y.y.y.y.y.y.y.y.y.y.y.",
"y.y.y.y.y.y.y.y.y.y.y.y.y.y.y.y.y.y.y.y.y.y.y.y.o o A o.} ` o.P _ o.o.o.) ) ) ) g z Y Y S K o X y.y.y.y.y.y.y.y.y.y.y.y.y.y.y.y.",
"y.y.y.y.y.y.y.y.y.y.y.y.y.y.y.y.y.y.y.y.y.y.y.o o o.) o.) o.X.X.o.o.o.) T ) : Y ) Y Y 3 c c c X X y.y.y.y.y.y.y.y.y.y.y.y.y.y.y.",
"y.y.y.y.y.y.y.y.y.y.y.y.y.y.y.y.y.y.y.y.y.y.X L _ ) ) o.o.o.o.' ) ) ) ) ( Y ) Y Y g Y S S J c 7 o y.y.y.y.y.y.y.y.y.y.y.y.y.y.y.",
"y.y.y.y.y.y.y.y.y.y.y.y.y.y.y.y.y.y.y.y.y.X g Y ) ) ) ) ) / ) ) ) ) ) ~ ) Y Y P 3 Y J S c c 3 z o y.y.y.y.y.y.y.y.y.y.y.y.y.y.y.",
"y.y.y.y.y.y.y.y.y.y.y.y.y.y.y.y.y.y.y.y.X o c 3 c Y ) ( T Y U / ) ) Y S Y Y S Y J J c c c g g g 7 o y.y.y.y.y.y.y.y.y.y.y.y.y.y.",
"y.y.y.y.y.y.y.y.y.y.y.y.y.y.y.y.y.y.y.y.o l J v Y Y c c Y U K c Y Y Y Y K Y c 4 J c J J g c g ^ : o y.y.y.y.y.y.y.y.y.y.y.y.y.y.",
"y.y.y.y.y.y.y.y.y.y.y.y.y.y.y.y.y.y.y.o 7 c S c c P U J K P Y Y U U U L J J v c J J g x v l f a o y.y.y.y.y.y.y.y.y.y.y.y.y.y.y.",
"y.y.y.y.y.y.y.y.y.y.y.y.y.y.y.y.y.y.y.o g 3 c c c J J J J J J J J 3 J S J c S c c x g g = a w o o y.y.y.y.y.y.y.y.y.y.y.y.y.y.y.",
"y.y.y.y.y.y.y.y.y.y.y.y.y.y.y.y.y.y.o & g z c S = 3 3 v J J J S J J c c c c c l c g g 2.f @ o o @.o y.y.y.y.y.y.y.y.y.y.y.y.y.y.",
"y.y.y.y.y.y.y.y.y.y.y.y.y.y.y.y.y.y.o 7 g c g c v x v c c c c c c c c c c g c g g 7 f $ X X +.3.r.o y.y.y.y.y.y.y.y.y.y.y.y.y.y.",
"y.y.y.y.y.y.y.y.y.y.y.y.y.y.y.y.y.y.X g f c z c g g c x c c z g g g g c f g g f f a O @ +.-.=.0.6.r.o y.y.y.y.y.y.y.y.y.y.y.y.y.",
"y.y.y.y.y.y.y.y.y.y.y.y.y.y.y.y.y.X X l g g c g 5 l l g g g g f 3 g g g g 7 7 7 3 X O   5.6.6.5.9.r.o y.y.y.y.y.y.y.y.y.y.y.y.y.",
"y.y.y.y.y.y.y.y.y.y.y.y.y.y.y.y.y.X 7 & c 7 5 7 s g g g g g g g g g 7 7 g g 2.7 o o = X 5.5.6.6.6.6.o y.y.y.y.y.y.y.y.y.y.y.y.y.",
"y.y.y.y.y.y.y.y.y.y.y.y.y.y.y.y.y.X 5 7 7 f & 7 w & 7 7 7 7 7 6 7 7 2.7 : g 3 o X t e X 6.5.5.&.6.6.o y.y.y.y.y.y.y.y.y.y.y.y.y.",
"y.y.y.y.y.y.y.y.y.y.y.y.y.y.y.y.y.y.X X 3 3 3 3 3 7 7 7 7 7 7 7 7 7 4 & X X X r = q q o 5.5.5.5.6.6.#.o y.y.y.y.y.y.y.y.y.y.y.y.",
"y.y.y.y.y.y.y.y.y.y.y.y.y.y.y.y.y.y.y.y.X . . X X X X X X . X X X X X X * * * t q q X o 5.5.&.5.5.6.5.o y.y.y.y.y.y.y.y.y.y.y.y.",
"y.y.y.y.y.y.y.y.y.y.y.y.y.y.y.y.y.y.y.y.. + * * * * e e e e e + * + * q q q q q q w o Q 5.5.5.5.5.5.5.o y.y.y.y.y.y.y.y.y.y.y.y.",
"y.y.y.y.y.y.y.y.y.y.y.y.y.y.y.y.y.y.y.y.. = t q e u e u t e w u q q q q u u q q q = o | 5.5.5.5.5.5.5.o y.y.y.y.y.y.y.y.y.y.y.y.",
"y.y.y.y.y.y.y.y.y.y.y.y.y.y.y.y.y.y.y.X 6 q y q q q p u q q q q w q $ o = q = q q = X %.5.O O 5.5.5.<.o y.y.y.y.y.y.y.y.y.y.y.y.",
"y.y.y.y.y.y.y.y.y.y.y.y.y.y.y.y.y.y.y.X q q q q w q q q q q e w = X X   X X q q = = o 5.O O O O { 5.&.o y.y.y.y.y.y.y.y.y.y.y.y.",
"y.y.y.y.y.y.y.y.y.y.y.y.y.y.y.y.y.y.y.X = q q q q q y w q t = q o  .  8.$.o @ = = = o 5.1.5.5.5.O O 4.o y.y.y.y.y.y.y.y.y.y.y.y.",
"y.y.y.y.y.y.y.y.y.y.y.y.y.y.y.y.y.y.y.y.. = q q q q w q e = q .  .o  .H H r.X = = o | 5.X X o o o 5.O o y.y.y.y.y.y.y.y.y.y.y.y.",
"y.y.y.y.y.y.y.y.y.y.y.y.y.y.y.y.y.y.y.y.. = = = q = q q = = o o ... <.5.6.8.o = @ D 5.1.,.w.t.a d X 5.X y.y.y.y.y.y.y.y.y.y.y.y.",
"y.y.y.y.y.y.y.y.y.y.y.y.y.y.y.y.y.y.y.y.o q = q = = w = = o o | 5.5.o ;.H 4.o o X ..5.5.q.w.t.s @ 2 o o y.y.y.y.y.y.y.y.y.y.y.y.",
"y.y.y.y.y.y.y.y.y.y.y.y.y.y.y.y.y.y.y.y.o = q = q q q o o  . .5.5.5.. o [ &.o o { 5.5.4.X w.t.C Z 2 o o y.y.y.y.y.y.y.y.y.y.y.y.",
"y.y.y.y.y.y.y.y.y.y.y.y.y.y.y.y.y.y.y.y.o = = = = = o o ] -.5.5.5.5.5.F o o 5.5.>.5.5.5.X ,.e.t.t.w.o o y.y.y.y.y.y.y.y.y.y.y.y.",
"y.y.y.y.y.y.y.y.y.y.y.y.y.y.y.y.y.y.y.y.o % q = = X X ] 5.4.5.5.5.5.5.5.5.5.h o o o o 5.5.o ,.,.,.o ;.X y.y.y.y.y.y.y.y.y.y.y.y.",
"y.y.y.y.y.y.y.y.y.y.y.y.y.y.y.y.y.y.y.y.y.o = = = X ] ;.<.5.;.;.4.5.5.5.5.5.o y E M M X o 4.6 o 1 :.; X y.y.y.y.y.y.y.y.y.y.y.y.",
"y.y.y.y.y.y.y.y.y.y.y.y.y.y.y.y.y.y.y.y.y.. o = o ! &.;.;.5.5.:.5.;.<.5.5.4.o y b M E M E o X X X X j X y.y.y.y.y.y.y.y.y.y.y.y.",
"y.y.y.y.y.y.y.y.y.y.y.y.y.y.y.y.y.y.y.y.y.y.o @ o ! &.&.&.;.;.4.6.5.;.;.;.A = t u t u H E b M b G M m X y.y.y.y.y.y.y.y.y.y.y.y.",
"y.y.y.y.y.y.y.y.y.y.y.y.y.y.y.y.y.y.y.y.y.y.y.o y.X ! *.&.;.*.;.;.;.;.;.;.o o r q y t b E u u b M E X X y.y.y.y.y.y.y.y.y.y.y.y.",
"y.y.y.y.y.y.y.y.y.y.y.y.y.y.y.y.y.y.y.y.y.y.y.y.y.y.o o o &.&.&.*.;.;.;.;.;.o w y b b r B t M q M E X X y.y.y.y.y.y.y.y.y.y.y.y.",
"y.y.y.y.y.y.y.y.y.y.y.y.y.y.y.y.y.y.y.y.y.y.y.y.y.y.y.y.y.o o o o H &.&.&.&.o . r q r t u E b u t t X y.y.y.y.y.y.y.y.y.y.y.y.y.",
"y.y.y.y.y.y.y.y.y.y.y.y.y.y.y.y.y.y.y.y.y.y.y.y.y.y.y.y.y.o g J Y X X X o o o X q q t w t q t q e o X y.y.y.y.y.y.y.y.y.y.y.y.y.",
"y.y.y.y.y.y.y.y.y.y.y.y.y.y.y.y.y.y.y.y.y.y.y.y.y.y.y.y.y.X g v J Y Y o P o . < X X w w y q o o o o y.y.y.y.y.y.y.y.y.y.y.y.y.y.",
"y.y.y.y.y.y.y.y.y.y.y.y.y.y.y.y.y.y.y.y.y.y.y.y.y.y.y.y.X g c S S P P o T T X X < - o o X X o o o y.y.y.y.y.y.y.y.y.y.y.y.y.y.y.",
"y.y.y.y.y.y.y.y.y.y.y.y.y.y.y.y.y.y.y.y.y.y.y.y.y.y.y.y.X z c c J J J o v ~ . Y X < 0 0 o o y.y.y.y.y.y.y.y.y.y.y.y.y.y.y.y.y.y.",
"y.y.y.y.y.y.y.y.y.y.y.y.y.y.y.y.y.y.y.y.y.y.y.y.y.y.y.y.. c c c J A o 4 c P . J J o ; o g o y.y.y.y.y.y.y.y.y.y.y.y.y.y.y.y.y.y.",
"y.y.y.y.y.y.y.y.y.y.y.y.y.y.y.y.y.y.y.y.y.y.y.y.y.y.y.y.X X g v c S . g c c 5 ; J c o f o o y.y.y.y.y.y.y.y.y.y.y.y.y.y.y.y.y.y.",
"y.y.y.y.y.y.y.y.y.y.y.y.y.y.y.y.y.y.y.y.y.y.y.y.y.y.y.o - N X X o o o g g g g X o o o o N o y.y.y.y.y.y.y.y.y.y.y.y.y.y.y.y.y.y.",
"y.y.y.y.y.y.y.y.y.y.y.y.y.y.y.y.y.y.y.y.y.y.y.y.y.y.y.o o o o m R R . X o o X X N i @ o o o o y.y.y.y.y.y.y.y.y.y.y.y.y.y.y.y.y.",
"y.y.y.y.y.y.y.y.y.y.y.y.y.y.y.y.y.y.y.y.y.y.y.y.y.y.y.o 3 g c o o o : 4.r.8.;.X o o & c 7 7 o y.y.y.y.y.y.y.y.y.y.y.y.y.y.y.y.y.",
"y.y.y.y.y.y.y.y.y.y.y.y.y.y.y.y.y.y.y.y.y.y.y.y.y.y.y.o 3 f g g c o >.5.8.6.5.W 7 g g g g 7 X y.y.y.y.y.y.y.y.y.y.y.y.y.y.y.y.y.",
"y.y.y.y.y.y.y.y.y.y.y.y.y.y.y.y.y.y.y.y.y.y.y.y.y.y.y.o 3 7 g g c c . =.4.<.=.X g g g 7 7 3 X y.y.y.y.y.y.y.y.y.y.y.y.y.y.y.y.y.",
"y.y.y.y.y.y.y.y.y.y.y.y.y.y.y.y.y.y.y.y.y.y.y.y.y.y.y.o 3 7 g 7 7 7 o o %.[ o o g g 7 7 3 : o y.y.y.y.y.y.y.y.y.y.y.y.y.y.y.y.y.",
"y.y.y.y.y.y.y.y.y.y.y.y.y.y.y.y.y.y.y.y.y.y.y.y.y.y.y.o o o o o X 3 : o o @ 4 7 & o o o o o o y.y.y.y.y.y.y.y.y.y.y.y.y.y.y.y.y.",
"y.y.y.y.y.y.y.y.y.y.y.y.y.y.y.y.y.y.y.y.y.y.y.y.y.y.y.y.y.y.o o X o o 9 o o o o . o o y.y.y.y.y.y.y.y.y.y.y.y.y.y.y.y.y.y.y.y.y.",
"y.y.y.y.y.y.y.y.y.y.y.y.y.y.y.y.y.y.y.y.y.y.y.y.y.y.y.y.y.y.o , , , , o o o > > 8 o V o y.y.y.y.y.y.y.y.y.y.y.y.y.y.y.y.y.y.y.y.",
"y.y.y.y.y.y.y.y.y.y.y.y.y.y.y.y.y.y.y.y.y.y.y.y.y.y.y.y.y.y.o , > > o - 8 o . X o o o o y.y.y.y.y.y.y.y.y.y.y.y.y.y.y.y.y.y.y.y.",
"y.y.y.y.y.y.y.y.y.y.y.y.y.y.y.y.y.y.y.y.y.y.y.y.y.y.y.y.y.y.o o . o o o o o y.y.y.y.y.y.y.y.y.y.y.y.y.y.y.y.y.y.y.y.y.y.y.y.y.y.",
"y.y.y.y.y.y.y.y.y.y.y.y.y.y.y.y.y.y.y.y.y.y.y.y.y.y.y.y.y.y.y.y.y.y.y.y.y.y.y.y.y.y.y.y.y.y.y.y.y.y.y.y.y.y.y.y.y.y.y.y.y.y.y.y.",
"y.y.y.y.y.y.y.y.y.y.y.y.y.y.y.y.y.y.y.y.y.y.y.y.y.y.y.y.y.y.y.y.y.y.y.y.y.y.y.y.y.y.y.y.y.y.y.y.y.y.y.y.y.y.y.y.y.y.y.y.y.y.y.y.",
"y.y.y.y.y.y.y.y.y.y.y.y.y.y.y.y.y.y.y.y.y.y.y.y.y.y.y.y.y.y.y.y.y.y.y.y.y.y.y.y.y.y.y.y.y.y.y.y.y.y.y.y.y.y.y.y.y.y.y.y.y.y.y.y.",
"y.y.y.y.y.y.y.y.y.y.y.y.y.y.y.y.y.y.y.y.y.y.y.y.y.y.y.y.y.y.y.y.y.y.y.y.y.y.y.y.y.y.y.y.y.y.y.y.y.y.y.y.y.y.y.y.y.y.y.y.y.y.y.y."
};
