/* XPM */
static char *result[] = {
/* columns rows colors chars-per-pixel */
"64 64 148 2 ",
"   c #141312",
".  c #181716",
"X  c #1A1917",
"o  c #1B1A18",
"O  c #221713",
"+  c #241D19",
"@  c #2B1E19",
"#  c #23211D",
"$  c #28221E",
"%  c #2A2A1E",
"&  c #342017",
"*  c #36231B",
"=  c #3D261C",
"-  c #3D281E",
";  c #1D1E22",
":  c #1F2025",
">  c #2D2C22",
",  c #25252B",
"<  c #27282E",
"1  c #2D2D2F",
"2  c #372921",
"3  c #3B2C23",
"4  c #342E28",
"5  c #213323",
"6  c #203D27",
"7  c #313121",
"8  c #3A3A26",
"9  c #3D3D28",
"0  c #2E2F37",
"q  c #2F3035",
"w  c #343434",
"e  c #333439",
"r  c #3A3A39",
"t  c #462B1F",
"y  c #482C1F",
"u  c #472E20",
"i  c #492D20",
"p  c #4E3224",
"a  c #533525",
"s  c #593827",
"d  c #543728",
"f  c #5E3C2A",
"g  c #5B3C30",
"h  c #603F2C",
"j  c #3F402B",
"k  c #2B5634",
"l  c #2F623C",
"z  c #31643D",
"x  c #43442C",
"c  c #47482E",
"v  c #48492F",
"b  c #5B592B",
"n  c #454730",
"m  c #4A4137",
"M  c #4B4C31",
"N  c #504F33",
"B  c #5C4B3E",
"V  c #4F5035",
"C  c #515236",
"Z  c #535639",
"A  c #55583A",
"S  c #5A5C3E",
"D  c #65412D",
"F  c #674535",
"G  c #6E4731",
"H  c #6B4834",
"J  c #704933",
"K  c #76523F",
"L  c #79533F",
"P  c #676228",
"I  c #76712F",
"U  c #5C5E40",
"Y  c #454754",
"T  c #645344",
"R  c #7F5540",
"E  c #755F4D",
"W  c #5E6042",
"Q  c #646746",
"!  c #676A46",
"~  c #686A47",
"^  c #6B6D4A",
"/  c #7F624C",
"(  c #6F714D",
")  c #72744F",
"_  c #7A6553",
"`  c #756453",
"'  c #737550",
"]  c #777853",
"[  c #7B7E54",
"{  c #7C7D59",
"}  c #8E5E47",
"|  c #835F4A",
" . c #81644E",
".. c #826854",
"X. c #8C6E58",
"o. c #8A7764",
"O. c #8F7963",
"+. c #948C32",
"@. c #82835C",
"#. c #878760",
"$. c #8C8C64",
"%. c #9E8064",
"&. c #9D866D",
"*. c #96966E",
"=. c #9E9D74",
"-. c #A1886F",
";. c #A58B71",
":. c #A08D7C",
">. c #A09F76",
",. c #B79074",
"<. c #B3977A",
"1. c #B39A7C",
"2. c #A2A177",
"3. c #A3A278",
"4. c #AA998C",
"5. c #B49B83",
"6. c #BA9F81",
"7. c #B7A191",
"8. c #C59F80",
"9. c #CCA585",
"0. c #C4A887",
"q. c #CCAA89",
"w. c #C3A484",
"e. c #D2AD8B",
"r. c #D1B28F",
"t. c #DAB693",
"y. c #DBB895",
"u. c #E1BF9A",
"i. c #D1B8A5",
"p. c #C1BFBF",
"a. c #E4C19C",
"s. c #E8C59F",
"d. c #F7EB94",
"f. c #E9C7A0",
"g. c #EFCBA4",
"h. c #E1C5AD",
"j. c #EFCDAC",
"k. c #E3C3A3",
"l. c #EFD0B6",
"z. c #C1C8C2",
"x. c #CECECE",
"c. c #C3C2C2",
"v. c #D0D0D0",
"b. c #DCDCDC",
"n. c #F4D7C1",
"m. c #F9DFCD",
"M. c #E3E2E2",
"N. c None",
/* pixels */
"N.N.N.N.N.N.N.N.N.N.N.N.N.N.N.N.N.N.N.N.N.N.N.N.N.N.N.N.N.N.N.N.N.N.N.N.N.N.N.N.N.N.N.N.N.N.N.N.N.N.N.N.N.N.N.N.N.N.N.N.N.N.N.N.",
"N.N.N.N.N.N.N.N.N.N.N.N.N.N.N.N.N.N.N.N.N.N.N.N.N.N.N.N.N.N.N.N.N.N.N.N.N.N.N.N.N.N.N.N.N.N.N.N.N.N.N.N.N.N.N.N.N.N.N.N.N.N.N.N.",
"N.N.N.N.N.N.N.N.N.N.N.N.N.N.N.N.N.N.N.N.N.N.N.N.N.N.N.N.N.N.N.N.N.N.N.N.N.N.N.N.N.N.N.N.N.N.N.N.N.N.N.N.N.N.N.N.N.N.N.N.N.N.N.N.",
"N.N.N.N.N.N.N.N.N.N.N.N.N.N.N.N.N.N.N.N.N.N.N.N.N.N.N.N.N.N.N.N.N.N.N.N.N.N.N.N.N.N.N.N.N.N.N.N.N.N.N.N.N.N.N.N.N.N.N.N.N.N.N.N.",
"N.N.N.N.N.N.N.N.N.N.N.N.N.N.N.N.N.N.N.N.N.N.N.N.N.N.N.N.N.N.N.N.N.N.N.N.N.N.N.N.N.N.N.N.N.N.N.N.N.N.N.N.N.N.N.N.N.N.N.N.N.N.N.N.",
"N.N.N.N.N.N.N.N.N.N.N.N.N.N.N.N.N.N.N.N.N.N.N.N.N.N.N.N.N.N.N.N.N.N.N.N.N.N.N.N.N.N.N.N.N.N.N.N.N.N.N.N.N.N.N.N.N.N.N.N.N.N.N.N.",
"N.N.N.N.N.N.N.N.N.N.N.N.N.N.N.N.N.N.N.N.N.N.N.N.N.N.N.N.N.N.N.N.N.N.N.N.N.N.N.N.N.N.N.N.N.N.N.N.N.N.N.N.N.N.N.N.N.N.N.N.N.N.N.N.",
"N.N.N.N.N.N.N.N.N.N.N.N.N.N.N.N.N.N.N.N.N.N.N.N.N.N.N.N.N.N.N.o o o o o o o o o N.N.N.N.N.N.N.N.N.N.N.N.N.N.N.N.N.N.N.N.N.N.N.N.",
"N.N.N.N.N.N.N.N.N.N.N.N.N.N.N.N.N.N.N.N.N.N.N.N.N.N.N.N.o o o o 3.$.=.3.3.=.$.o o o N.N.N.N.N.N.N.N.N.N.N.N.N.N.N.N.N.N.N.N.N.N.",
"N.N.N.N.N.N.N.N.N.N.N.N.N.N.N.N.N.N.N.N.N.N.N.N.N.o o o *.3.3.>.3.3.3.3.3.3.' $.' =.o o . N.N.N.N.N.N.N.N.N.N.N.N.N.N.N.N.N.N.N.",
"N.N.N.N.N.N.N.N.N.N.N.N.N.N.N.N.N.N.N.N.N.N.N.N.o o 3.3.=.3.$.$.3.3.3.$.$.$.$.^ ' 7 A W X o N.N.N.N.N.N.N.N.N.N.N.N.N.N.N.N.N.N.",
"N.N.N.N.N.N.N.N.N.N.N.N.N.N.N.N.N.N.N.N.N.N.o o 3.$.3.>.3.3.3.3.*.>.$.$.$.$.A ) ' ' A W 8 # o N.N.N.N.N.N.N.N.N.N.N.N.N.N.N.N.N.",
"N.N.N.N.N.N.N.N.N.N.N.N.N.N.N.N.N.N.N.N.N.o { $.$.=.3.*.$.2.3.=.$.$.@.$.x ' $.) ' 7 W A W A o o N.N.N.N.N.N.N.N.N.N.N.N.N.N.N.N.",
"N.N.N.N.N.N.N.N.N.N.N.N.N.N.N.N.N.N.N.N.o C $.$.$.$.$.$.$.$.$.$.$.$.{ @.' ' ' Z ~ W A W A A 7 o N.N.N.N.N.N.N.N.N.N.N.N.N.N.N.N.",
"N.N.N.N.N.N.N.N.N.N.N.N.N.N.N.N.N.N.N.o M ~ Z ) $.] ) ) ) ) ] ) $.$.] ) ' A W ^ W W A A 7 M 9 o N.N.N.N.N.N.N.N.N.N.N.N.N.N.N.N.",
"N.N.N.N.N.N.N.N.N.N.N.N.N.N.N.N.N.N.X o A W ) S A Z V ^ Q ( ! A Q ) ' ) ( ^ 7 W A A W n A M d.o N.N.N.N.N.N.N.N.N.N.N.N.N.N.N.N.",
"N.N.N.N.N.N.N.N.N.N.N.N.N.N.N.N.N.N.o c A U A S ) ) ) ) ) ) ) ) ) ) ) U U 8 W S W A v A v j I o N.N.N.N.N.N.N.N.N.N.N.N.N.N.N.N.",
"N.N.N.N.N.N.N.N.N.N.N.N.N.N.N.N.N.X o v Z S S W W W W W W W U U W A j S W A W A V A A v j j 7 o N.N.N.N.N.N.N.N.N.N.N.N.N.N.N.N.",
"N.N.N.N.N.N.N.N.N.N.N.N.N.N.N.N.N.o v M M A 7 7 c W S A A A U W W W S W A A N v v M A 7 7 . o   N.N.N.N.N.N.N.N.N.N.N.N.N.N.N.N.",
"N.N.N.N.N.N.N.N.N.N.N.N.N.N.N.N.N.o 9 M A A A Z A A A A A A A A A A A A M v Z v v x P o . > 6.i.o N.N.N.N.N.N.N.N.N.N.N.N.N.N.N.",
"N.N.N.N.N.N.N.N.N.N.N.N.N.N.N.N.o 7 9 x M A M M A A A A A Z Z Z M M M A Z M M 8 7 o o o.7.f.g.m.o N.N.N.N.N.N.N.N.N.N.N.N.N.N.N.",
"N.N.N.N.N.N.N.N.N.N.N.N.N.N.N.N.o 9 v Z M A M M A Z N M N N v v 7 M M M v j M j o o 1.j.j.g.n.m.o N.N.N.N.N.N.N.N.N.N.N.N.N.N.N.",
"N.N.N.N.N.N.N.N.N.N.N.N.N.N.N.N.o 9 M x 9 c v M v M N v v N x 9 x M c j x N 7 o o u o j.j.j.g.j.4.o N.N.N.N.N.N.N.N.N.N.N.N.N.N.",
"N.N.N.N.N.N.N.N.N.N.N.N.N.N.N.N.X 9 9 c % 9 9 9 8 8 j 9 9 j j x c M j 7 c 7 X X * u o g.j.g.j.g.m.o N.N.N.N.N.N.N.N.N.N.N.N.N.N.",
"N.N.N.N.N.N.N.N.N.N.N.N.N.N.N.N.o o $ 7 4 % 8 9 9 9 9 9 9 7 V j +.b 8 7 X X - & y t X g.g.g.g.g.n.o N.N.N.N.N.N.N.N.N.N.N.N.N.N.",
"N.N.N.N.N.N.N.N.N.N.N.N.N.N.N.N.N.N.X o o . X o X X o X X o X X X X X X u u s p y o X g.g.j.r.g.j.o N.N.N.N.N.N.N.N.N.N.N.N.N.N.",
"N.N.N.N.N.N.N.N.N.N.N.N.N.N.N.N.N.N.. & & & & & u t u t t u t & & & & & y t t t = o g.g.g.g.g.g.g.o N.N.N.N.N.N.N.N.N.N.N.N.N.N.",
"N.N.N.N.N.N.N.N.N.N.N.N.N.N.N.N.N.N.X t y y u a t f t f t t y y p - D t f t p f = o g.g.9.g.g.g.g.o N.N.N.N.N.N.N.N.N.N.N.N.N.N.",
"N.N.N.N.N.N.N.N.N.N.N.N.N.N.N.N.N.N.o t t t t u D f a t t - t t t t 2 i = t t p = o g.g.g.f.g.g.g.o N.N.N.N.N.N.N.N.N.N.N.N.N.N.",
"N.N.N.N.N.N.N.N.N.N.N.N.N.N.N.N.N.N.+ t = i t t t t t t - t = + . o o + t t t y o O.g.O O O r.g.j.m N.N.N.N.N.N.N.N.N.N.N.N.N.N.",
"N.N.N.N.N.N.N.N.N.N.N.N.N.N.N.N.N.N.o t = h y y t s t t t = o o     =.. O t = t o w.@ ..g.- O g.j.` o N.N.N.N.N.N.N.N.N.N.N.N.N.",
"N.N.N.N.N.N.N.N.N.N.N.N.N.N.N.N.N.N.o t t t y y t t t t - = o 1.. m./ h.o = = = X g.g.# o o g.O s.6.o N.N.N.N.N.N.N.N.N.N.N.N.N.",
"N.N.N.N.N.N.N.N.N.N.N.N.N.N.N.N.N.N.X = = t t t = = y - = o <.g.o 9.l. .. o t o 1.g.+ p.x.b.o o j.O o N.N.N.N.N.N.N.N.N.N.N.N.N.",
"N.N.N.N.N.N.N.N.N.N.N.N.N.N.N.N.N.N.o = = t * t y y * - o ,.a.g.o y.j.O.O o & o t.g.. p.M.b.z 5 o T o N.N.N.N.N.N.N.N.N.N.N.N.N.",
"N.N.N.N.N.N.N.N.N.N.N.N.N.N.N.N.N.N.X = = = y y y * o o <.w.g.g.o + y.y.o o o <.g.s.o p.M.c.k O M.o N.N.N.N.N.N.N.N.N.N.N.N.N.N.",
"N.N.N.N.N.N.N.N.N.N.N.N.N.N.N.N.N.N.X = = = = = * o ;.1.g.g.g.g.g.o . o o 1.1.g.9.g.o p.M.M.l 6 r o N.N.N.N.N.N.N.N.N.N.N.N.N.N.",
"N.N.N.N.N.N.N.N.N.N.N.N.N.N.N.N.N.N.N.o y = = = o ;.f.g.g.g.g.g.g.g.g.g.g.o o ;.g.g.g.. c.b.x.b.o o N.N.N.N.N.N.N.N.N.N.N.N.N.N.",
"N.N.N.N.N.N.N.N.N.N.N.N.N.N.N.N.N.N.N.o = = = o ;.y.u.g.u.g.g.g.g.g.g.g.o o f 3 o o g.t.o o o o 9.B o N.N.N.N.N.N.N.N.N.N.N.N.N.",
"N.N.N.N.N.N.N.N.N.N.N.N.N.N.N.N.N.N.N.N.o t o T 8.y.y.g.g.y.s.u.g.g.g.g.o u G G G J o . 4 a.f.4 o o X N.N.N.N.N.N.N.N.N.N.N.N.N.",
"N.N.N.N.N.N.N.N.N.N.N.N.N.N.N.N.N.N.N.N.o o o X.9.9.9.y.y.y.g.t.g.g.t.s.o f f D | G | K > o o H J o N.N.N.N.N.N.N.N.N.N.N.N.N.N.",
"N.N.N.N.N.N.N.N.N.N.N.N.N.N.N.N.N.N.N.N.N.o N.o ,.9.9.q.9.y.y.s.g.g.y.&.@ t p a f G G G G G G o p X N.N.N.N.N.N.N.N.N.N.N.N.N.N.",
"N.N.N.N.N.N.N.N.N.N.N.N.N.N.N.N.N.N.N.N.N.N.N.N.o o _ 9.9.9.y.y.y.y.y.q.X t a f f a f D G h G K d o N.N.N.N.N.N.N.N.N.N.N.N.N.N.",
"N.N.N.N.N.N.N.N.N.N.N.N.N.N.N.N.N.N.N.N.N.N.N.N.N.N.o o o o e.9.9.9.9.9.X t f a a p  .f G G f F - o N.N.N.N.N.N.N.N.N.N.N.N.N.N.",
"N.N.N.N.N.N.N.N.N.N.N.N.N.N.N.N.N.N.N.N.N.N.N.N.N.N.N.o M U o o o o o o ` o s t a y a y a s a i o N.N.N.N.N.N.N.N.N.N.N.N.N.N.N.",
"N.N.N.N.N.N.N.N.N.N.N.N.N.N.N.N.N.N.N.N.N.N.N.N.N.N.N.o M U ^ ' ' ' o o o o o a y y h y y y y o o N.N.N.N.N.N.N.N.N.N.N.N.N.N.N.",
"N.N.N.N.N.N.N.N.N.N.N.N.N.N.N.N.N.N.N.N.N.N.N.N.N.N.o o M W U ' $.> n [ o o e o X y o - o X o o N.N.N.N.N.N.N.N.N.N.N.N.N.N.N.N.",
"N.N.N.N.N.N.N.N.N.N.N.N.N.N.N.N.N.N.N.N.N.N.N.N.N.N.o M A U W W ( o V ^ [ o o e r X o o N.X N.N.N.N.N.N.N.N.N.N.N.N.N.N.N.N.N.N.",
"N.N.N.N.N.N.N.N.N.N.N.N.N.N.N.N.N.N.N.N.N.N.N.N.N.N.o Z V A S A W o V A ~ o Z o 1 # o X N.N.N.N.N.N.N.N.N.N.N.N.N.N.N.N.N.N.N.N.",
"N.N.N.N.N.N.N.N.N.N.N.N.N.N.N.N.N.N.N.N.N.N.N.N.N.N.o Z M A A W S o x Z A V X A o o M o N.N.N.N.N.N.N.N.N.N.N.N.N.N.N.N.N.N.N.N.",
"N.N.N.N.N.N.N.N.N.N.N.N.N.N.N.N.N.N.N.N.N.N.N.N.N.N.o o o o 7 A U > > V V v o x o o o o o N.N.N.N.N.N.N.N.N.N.N.N.N.N.N.N.N.N.N.",
"N.N.N.N.N.N.N.N.N.N.N.N.N.N.N.N.N.N.N.N.N.N.N.N.N.X o o F } 3 o o o o o o o o o R g . o o N.N.N.N.N.N.N.N.N.N.N.N.N.N.N.N.N.N.N.",
"N.N.N.N.N.N.N.N.N.N.N.N.N.N.N.N.N.N.N.N.N.N.N.N.N.o 7 v o o o o o o $ l.m.g.y.X o o 8 9 o N.N.N.N.N.N.N.N.N.N.N.N.N.N.N.N.N.N.N.",
"N.N.N.N.N.N.N.N.N.N.N.N.N.N.N.N.N.N.N.N.N.N.N.N.N.o 7 v M M A A A o g.g.l.g.g.+ M M 9 9 o N.N.N.N.N.N.N.N.N.N.N.N.N.N.N.N.N.N.N.",
"N.N.N.N.N.N.N.N.N.N.N.N.N.N.N.N.N.N.N.N.N.N.N.N.N.o 7 9 M M V V M 7 g t.g.s.e.o M M c 4 o N.N.N.N.N.N.N.N.N.N.N.N.N.N.N.N.N.N.N.",
"N.N.N.N.N.N.N.N.N.N.N.N.N.N.N.N.N.N.N.N.N.N.N.N.N.o 7 9 x v x M V c . ` 9.9.o > v 9 8 7 o N.N.N.N.N.N.N.N.N.N.N.N.N.N.N.N.N.N.N.",
"N.N.N.N.N.N.N.N.N.N.N.N.N.N.N.N.N.N.N.N.N.N.N.N.N.o X o % 7 7 9 j j j : X X x 9 8 X % X o N.N.N.N.N.N.N.N.N.N.N.N.N.N.N.N.N.N.N.",
"N.N.N.N.N.N.N.N.N.N.N.N.N.N.N.N.N.N.N.N.N.N.N.N.N.N.N.o o o o o . o o o o o o o o X o o N.N.N.N.N.N.N.N.N.N.N.N.N.N.N.N.N.N.N.N.",
"N.N.N.N.N.N.N.N.N.N.N.N.N.N.N.N.N.N.N.N.N.N.N.N.N.N.N.o < < 0 e , o N.o : : : : o 1 , o N.N.N.N.N.N.N.N.N.N.N.N.N.N.N.N.N.N.N.N.",
"N.N.N.N.N.N.N.N.N.N.N.N.N.N.N.N.N.N.N.N.N.N.N.N.N.N.N.o , < q e o Y o . o : : o o o o o N.N.N.N.N.N.N.N.N.N.N.N.N.N.N.N.N.N.N.N.",
"N.N.N.N.N.N.N.N.N.N.N.N.N.N.N.N.N.N.N.N.N.N.N.N.N.N.N.o o o o o o o o N.o o o N.N.N.N.N.N.N.N.N.N.N.N.N.N.N.N.N.N.N.N.N.N.N.N.N.",
"N.N.N.N.N.N.N.N.N.N.N.N.N.N.N.N.N.N.N.N.N.N.N.N.N.N.N.N.N.N.N.N.N.N.o N.N.N.N.N.N.N.N.N.N.N.N.N.N.N.N.N.N.N.N.N.N.N.N.N.N.N.N.N.",
"N.N.N.N.N.N.N.N.N.N.N.N.N.N.N.N.N.N.N.N.N.N.N.N.N.N.N.N.N.N.N.N.N.N.N.N.N.N.N.N.N.N.N.N.N.N.N.N.N.N.N.N.N.N.N.N.N.N.N.N.N.N.N.N.",
"N.N.N.N.N.N.N.N.N.N.N.N.N.N.N.N.N.N.N.N.N.N.N.N.N.N.N.N.N.N.N.N.N.N.N.N.N.N.N.N.N.N.N.N.N.N.N.N.N.N.N.N.N.N.N.N.N.N.N.N.N.N.N.N.",
"N.N.N.N.N.N.N.N.N.N.N.N.N.N.N.N.N.N.N.N.N.N.N.N.N.N.N.N.N.N.N.N.N.N.N.N.N.N.N.N.N.N.N.N.N.N.N.N.N.N.N.N.N.N.N.N.N.N.N.N.N.N.N.N."
};
