/* XPM */
static char *result[] = {
/* columns rows colors chars-per-pixel */
"64 64 149 2 ",
"   c #141312",
".  c #1A1917",
"X  c #1B1A18",
"o  c #221713",
"O  c #211C19",
"+  c #291F1A",
"@  c #311D16",
"#  c #1B201A",
"$  c #25231D",
"%  c #2D201A",
"&  c #2F2F1F",
"*  c #342017",
"=  c #35231A",
"-  c #3D261C",
";  c #3F291C",
":  c #1C1C20",
">  c #1F2025",
",  c #212124",
"<  c #2E2D22",
"1  c #242529",
"2  c #27282E",
"3  c #28292F",
"4  c #2B2622",
"5  c #362720",
"6  c #203724",
"7  c #203D27",
"8  c #313121",
"9  c #3A3A26",
"0  c #34302B",
"q  c #39362D",
"w  c #3D3D28",
"e  c #2B2C33",
"r  c #2F3038",
"t  c #333436",
"y  c #3F3830",
"u  c gray22",
"i  c #40271D",
"p  c #462B1F",
"a  c #482C1F",
"s  c #472E20",
"d  c #4A2D21",
"f  c #4F3123",
"g  c #473128",
"h  c #543525",
"j  c #583727",
"k  c #593827",
"l  c #5E3C2A",
"z  c #443B32",
"x  c #5B3C30",
"c  c #3F402B",
"v  c #43442C",
"b  c #48492F",
"n  c #464731",
"m  c #494137",
"M  c #4B4C31",
"N  c #574B3F",
"B  c #4F5135",
"V  c #515437",
"C  c #545739",
"Z  c #55583A",
"A  c #595C3E",
"S  c #65412D",
"D  c #68432E",
"F  c #614032",
"G  c #6D4632",
"H  c #6F4832",
"J  c #6F4B39",
"K  c #714C36",
"L  c #704C3A",
"P  c #77523D",
"I  c #79543E",
"U  c #3A774D",
"Y  c #3C7B50",
"T  c #584C40",
"R  c #5C5F41",
"E  c #6C5D4E",
"W  c #7C5C47",
"Q  c #5E6042",
"!  c #646645",
"~  c #666947",
"^  c #686B47",
"/  c #676948",
"(  c #6B6D4A",
")  c #6F714D",
"_  c #71734E",
"`  c #7D6C5A",
"'  c #737550",
"]  c #757850",
"[  c #7A7D55",
"{  c #7D7D59",
"}  c #835F4B",
"|  c #8B5C46",
" . c #81634C",
".. c #886B54",
"X. c #86715C",
"o. c #907660",
"O. c #947E67",
"+. c #997C64",
"@. c #6F8173",
"#. c #A69C34",
"$. c #878761",
"%. c #8C8C64",
"&. c #95956C",
"*. c #82807F",
"=. c #9D9D73",
"-. c #A48A70",
";. c #AB9176",
":. c #B09577",
">. c #BB9477",
",. c #B3977A",
"<. c #B49A7C",
"1. c #A1A077",
"2. c #A3A278",
"3. c #DCCD42",
"4. c #E8DB66",
"5. c #B39A81",
"6. c #B7A191",
"7. c #B4B3B2",
"8. c #C5A687",
"9. c #CCA585",
"0. c #CCAE8C",
"q. c #D2AD8C",
"w. c #D3B18F",
"e. c #C0AB9E",
"r. c #D7B491",
"t. c #DAB693",
"y. c #D6B894",
"u. c #DBB895",
"i. c #E1BF9A",
"p. c #C1BFBF",
"a. c #BEC5BF",
"s. c #E6C29D",
"d. c #F7EB94",
"f. c #EAC6A0",
"g. c #EFCBA4",
"h. c #E7C8AE",
"j. c #EFCDAC",
"k. c #E7CCB7",
"l. c #EFD0B6",
"z. c #F2D4B9",
"x. c #C7C6C6",
"c. c #C8C7C7",
"v. c #CECECE",
"b. c #D4D4D3",
"n. c #F3D7C0",
"m. c #F6DBC6",
"M. c #F9DFCD",
"N. c #E3E2E2",
"B. c None",
/* pixels */
"B.B.B.B.B.B.B.B.B.B.B.B.B.B.B.B.B.B.B.B.B.B.B.B.B.B.B.B.B.B.B.B.B.B.B.B.B.B.B.B.B.B.B.B.B.B.B.B.B.B.B.B.B.B.B.B.B.B.B.B.B.B.B.B.",
"B.B.B.B.B.B.B.B.B.B.B.B.B.B.B.B.B.B.B.B.B.B.B.B.B.B.B.B.B.B.B.B.B.B.B.B.B.B.B.B.B.B.B.B.B.B.B.B.B.B.B.B.B.B.B.B.B.B.B.B.B.B.B.B.",
"B.B.B.B.B.B.B.B.B.B.B.B.B.B.B.B.B.B.B.B.B.B.B.B.B.B.B.B.B.B.B.B.B.B.B.B.B.B.B.B.B.B.B.B.B.B.B.B.B.B.B.B.B.B.B.B.B.B.B.B.B.B.B.B.",
"B.B.B.B.B.B.B.B.B.B.B.B.B.B.B.B.B.B.B.B.B.B.B.B.B.B.B.B.B.B.B.B.B.B.B.B.B.B.B.B.B.B.B.B.B.B.B.B.B.B.B.B.B.B.B.B.B.B.B.B.B.B.B.B.",
"B.B.B.B.B.B.B.B.B.B.B.B.B.B.B.B.B.B.B.B.B.B.B.B.B.B.B.B.B.B.B.B.B.B.B.B.B.B.B.B.B.B.B.B.B.B.B.B.B.B.B.B.B.B.B.B.B.B.B.B.B.B.B.B.",
"B.B.B.B.B.B.B.B.B.B.B.B.B.B.B.B.B.B.B.B.B.B.B.B.B.B.B.B.B.B.B.B.B.B.B.B.B.B.B.B.B.B.B.B.B.B.B.B.B.B.B.B.B.B.B.B.B.B.B.B.B.B.B.B.",
"B.B.B.B.B.B.B.B.B.B.B.B.B.B.B.B.B.B.B.B.B.B.B.B.B.B.B.B.B.B.B.B.B.B.B.B.B.B.B.B.B.B.B.B.B.B.B.B.B.B.B.B.B.B.B.B.B.B.B.B.B.B.B.B.",
"B.B.B.B.B.B.B.B.B.B.B.B.B.B.B.B.B.B.B.B.B.B.B.B.B.B.B.B.B.B.B.B.B.B.X X X X B.B.B.B.B.B.B.B.B.B.B.B.B.B.B.B.B.B.B.B.B.B.B.B.B.B.",
"B.B.B.B.B.B.B.B.B.B.B.B.B.B.B.B.B.B.B.B.B.B.B.B.B.B.B.B.B.B.. # X X X ' %.< X X X X B.B.B.B.B.B.B.B.B.B.B.B.B.B.B.B.B.B.B.B.B.B.",
"B.B.B.B.B.B.B.B.B.B.B.B.B.B.B.B.B.B.B.B.B.B.B.B.B.B.B.X X . 1.2.2.1.2.2.%.&.2.2.2.t X X B.B.B.B.B.B.B.B.B.B.B.B.B.B.B.B.B.B.B.B.",
"B.B.B.B.B.B.B.B.B.B.B.B.B.B.B.B.B.B.B.B.B.B.B.B.B.X X 2.2.2.2.;.&.2.2.2.%.%.R %.%.' R A X X B.B.B.B.B.B.B.B.B.B.B.B.B.B.B.B.B.B.",
"B.B.B.B.B.B.B.B.B.B.B.B.B.B.B.B.B.B.B.B.B.B.B.X X 2.&.%.2.1.2.2.2.2.=.%.%.%.%.M ~ ' _ C Q w X B.B.B.B.B.B.B.B.B.B.B.B.B.B.B.B.B.",
"B.B.B.B.B.B.B.B.B.B.B.B.B.B.B.B.B.B.B.B.B.B.# $.%.%.2.2.2.2.2.2.2.2.&.] %.{ Z ' ' ' / v A R n X B.B.B.B.B.B.B.B.B.B.B.B.B.B.B.B.",
"B.B.B.B.B.B.B.B.B.B.B.B.B.B.B.B.B.B.B.B.B.o ! %.%.%.%.%.%.%.%.%.%.%.%.%.( $.' ' ' 8 ' R Z Z Z X B.B.B.B.B.B.B.B.B.B.B.B.B.B.B.B.",
"B.B.B.B.B.B.B.B.B.B.B.B.B.B.B.B.B.B.B.B.X B 8 ^ ] %.@.%.%.%.%.%.$.] %.%.' ' ' ' _ R Q Z R C 8 8 X B.B.B.B.B.B.B.B.B.B.B.B.B.B.B.",
"B.B.B.B.B.B.B.B.B.B.B.B.B.B.B.B.B.B.B.X v C Q ^ ! & & ; M n M 8 9 ) ~ ' ' R ' < ! R Z Z 8 C M w X B.B.B.B.B.B.B.B.B.B.B.B.B.B.B.",
"B.B.B.B.B.B.B.B.B.B.B.B.B.B.B.B.B.B.B.X M Z Q Z ] _ _ _ ] _ _ ] ] ] ] ( ] C v Q Z C Q 8 Z Z c 4.X B.B.B.B.B.B.B.B.B.B.B.B.B.B.B.",
"B.B.B.B.B.B.B.B.B.B.B.B.B.B.B.B.B.B.X w 8 C A A Q Q Q ! ~ Z _ _ ~ Z Q A R A Q Q Q C c V M v 9 8 X B.B.B.B.B.B.B.B.B.B.B.B.B.B.B.",
"B.B.B.B.B.B.B.B.B.B.B.B.B.B.B.B.B.B.X v Z C 8 9 Q Q Q Z A Q Q Q Q Q Q Q A Q Z Z M M b M v c 8 X   B.B.B.B.B.B.B.B.B.B.B.B.B.B.B.",
"B.B.B.B.B.B.B.B.B.B.B.B.B.B.B.B.B.X 9 M M M Z C Z Z Z Z A Q Q Q Q C Z C Z V M M b M 3.#.& . X 6.X B.B.B.B.B.B.B.B.B.B.B.B.B.B.B.",
"B.B.B.B.B.B.B.B.B.B.B.B.B.B.B.B.B.X b 9 C C C M C C Z Z Z Z C C C C V b M C M b v c & . # ` 5.M.X B.B.B.B.B.B.B.B.B.B.B.B.B.B.B.",
"B.B.B.B.B.B.B.B.B.B.B.B.B.B.B.B.B.X v w M Z M V V V M M V C C V V B c 8 b b b c c # . <.<.q.z.l.M.X B.B.B.B.B.B.B.B.B.B.B.B.B.B.",
"B.B.B.B.B.B.B.B.B.B.B.B.B.B.B.B.X 9 8 M w M M M b C C C n 9 9 b v v M c c c c w X X   g.j.j.g.z.M.X B.B.B.B.B.B.B.B.B.B.B.B.B.B.",
"B.B.B.B.B.B.B.B.B.B.B.B.B.B.B.B.X $ w v w & w w w w w z 9 9 w w c c c b b d.9 X X * X 0.g.j.j.g.j.X B.B.B.B.B.B.B.B.B.B.B.B.B.B.",
"B.B.B.B.B.B.B.B.B.B.B.B.B.B.B.B.B.X X 8 8 8 v w 9 w w w v w 8 b b d.c & v & . . = a O m g.g.j.g.j.X B.B.B.B.B.B.B.B.B.B.B.B.B.B.",
"B.B.B.B.B.B.B.B.B.B.B.B.B.B.B.B.B.B.  X X X X X X X X X X X . X . . . . . . a i p p X s.g.g.g.j.j.0 X B.B.B.B.B.B.B.B.B.B.B.B.B.",
"B.B.B.B.B.B.B.B.B.B.B.B.B.B.B.B.B.B.B.  @ * * - a j @ s - p s p i * * * * * h f p X X g.j.u.g.g.g.k.X B.B.B.B.B.B.B.B.B.B.B.B.B.",
"B.B.B.B.B.B.B.B.B.B.B.B.B.B.B.B.B.B.X X - p p p p s l k l d p p a h S h p p p s i X y.g.g.g.g.g.g.g.X B.B.B.B.B.B.B.B.B.B.B.B.B.",
"B.B.B.B.B.B.B.B.B.B.B.B.B.B.B.B.B.B.X p - l p p h l p p p j i d p a p a h p f h ; X w.f.g.g.g.g.j.g.X B.B.B.B.B.B.B.B.B.B.B.B.B.",
"B.B.B.B.B.B.B.B.B.B.B.B.B.B.B.B.B.B.X a i a p p p p p p f p s l % X X - p ; p ; i X g.g.g.g.g.g.g.g.X B.B.B.B.B.B.B.B.B.B.B.B.B.",
"B.B.B.B.B.B.B.B.B.B.B.B.B.B.B.B.B.B.X a s l p p s p s p l h - X .     X o p ; - i X g.o o o o 9.s.u.X B.B.B.B.B.B.B.B.B.B.B.B.B.",
"B.B.B.B.B.B.B.B.B.B.B.B.B.B.B.B.B.B.X i p - s p p p p p i - X O.  z m.e.X - - - X X.g.s.g.s.:.o g.u.X B.B.B.B.B.B.B.B.B.B.B.B.B.",
"B.B.B.B.B.B.B.B.B.B.B.B.B.B.B.B.B.B.X + p s i p p - s - - + X ,.X u.h.W   X ; - X t.E . X X X f.o u.X B.B.B.B.B.B.B.B.B.B.B.B.B.",
"B.B.B.B.B.B.B.B.B.B.B.B.B.B.B.B.B.B.B.X - s - p - p - - X X ,.g.X u.g. .u.X - X ,.g.. p.v.N.7 X X u.X B.B.B.B.B.B.B.B.B.B.B.B.B.",
"B.B.B.B.B.B.B.B.B.B.B.B.B.B.B.B.B.B.B.X i - s p p - * X X ,.g.g.X 4 u.r.<.X $ X g.g.X x.v.N.Y o X m X B.B.B.B.B.B.B.B.B.B.B.B.B.",
"B.B.B.B.B.B.B.B.B.B.B.B.B.B.B.B.B.B.B.X - - - - - X X <.<.g.g.g.g.X X ..X 0.X <.g.g.X p.v.N.U 6 a.X X B.B.B.B.B.B.B.B.B.B.B.B.B.",
"B.B.B.B.B.B.B.B.B.B.B.B.B.B.B.B.B.B.B.X - - - - X ` ;.f.g.g.g.g.g.g.O.X s.g.0.g.g.g.i.O v.N.N.@.7.T X B.B.B.B.B.B.B.B.B.B.B.B.B.",
"B.B.B.B.B.B.B.B.B.B.B.B.B.B.B.B.B.B.B.X - - - X z -.i.g.s.g.g.g.g.g.g.g.g.X X X X N g.O *.p.c.b.X q.X B.B.B.B.B.B.B.B.B.B.B.B.B.",
"B.B.B.B.B.B.B.B.B.B.B.B.B.B.B.B.B.B.B.B.X - - X +.u.u.g.g.u.u.g.g.g.g.g.X h P } D . X 8.< X X X f.>.X B.B.B.B.B.B.B.B.B.B.B.B.B.",
"B.B.B.B.B.B.B.B.B.B.B.B.B.B.B.B.B.B.B.B.. X X ..9.9.t.u.s.g.s.g.i.t.g.g.X d S D K H } X X X X X X X X B.B.B.B.B.B.B.B.B.B.B.B.B.",
"B.B.B.B.B.B.B.B.B.B.B.B.B.B.B.B.B.B.B.B.B.X X   >.8.9.9.r.t.g.s.g.u.i.i.X l l j L D } H P I } } H h X B.B.B.B.B.B.B.B.B.B.B.B.B.",
"B.B.B.B.B.B.B.B.B.B.B.B.B.B.B.B.B.B.B.B.B.B.B.B.X X 9.9.t.q.u.u.t.u.t.t.X p p p k j K S S G G H X X X B.B.B.B.B.B.B.B.B.B.B.B.B.",
"B.B.B.B.B.B.B.B.B.B.B.B.B.B.B.B.B.B.B.B.B.B.B.B.B.B.X X X 9.9.9.t.q.r.u.$ p l l l l } l S } D W l X B.B.B.B.B.B.B.B.B.B.B.B.B.B.",
"B.B.B.B.B.B.B.B.B.B.B.B.B.B.B.B.B.B.B.B.B.B.B.B.B.B.B.B.X X X X X X.q.>.z X a k h j l K S D k j = X B.B.B.B.B.B.B.B.B.B.B.B.B.B.",
"B.B.B.B.B.B.B.B.B.B.B.B.B.B.B.B.B.B.B.B.B.B.B.B.B.B.B.X b R _ _ _ O X X X X d a h a h p k p h p X B.B.B.B.B.B.B.B.B.B.B.B.B.B.B.",
"B.B.B.B.B.B.B.B.B.B.B.B.B.B.B.B.B.B.B.B.B.B.B.B.B.B.B.X M ! Q _ _ $.X [ w X X X p p j p p p p X X B.B.B.B.B.B.B.B.B.B.B.B.B.B.B.",
"B.B.B.B.B.B.B.B.B.B.B.B.B.B.B.B.B.B.B.B.B.B.B.B.B.B.X 8 V A A Q _ ^ X / ] X X t X X X X X X X B.B.B.B.B.B.B.B.B.B.B.B.B.B.B.B.B.",
"B.B.B.B.B.B.B.B.B.B.B.B.B.B.B.B.B.B.B.B.B.B.B.B.B.B.X M M C ! A ! ( X V ( C X X u u X X B.B.B.B.B.B.B.B.B.B.B.B.B.B.B.B.B.B.B.B.",
"B.B.B.B.B.B.B.B.B.B.B.B.B.B.B.B.B.B.B.B.B.B.B.B.B.B.X Z b Z Z ! Z R X M C C B X X X M X B.B.B.B.B.B.B.B.B.B.B.B.B.B.B.B.B.B.B.B.",
"B.B.B.B.B.B.B.B.B.B.B.B.B.B.B.B.B.B.B.B.B.B.B.B.B.B.X X X B Z Z E R R X V V X X X X X X X B.B.B.B.B.B.B.B.B.B.B.B.B.B.B.B.B.B.B.",
"B.B.B.B.B.B.B.B.B.B.B.B.B.B.B.B.B.B.B.B.B.B.B.B.B.X X x  .o X X . . X X . X z t.9.X G 5 X B.B.B.B.B.B.B.B.B.B.B.B.B.B.B.B.B.B.B.",
"B.B.B.B.B.B.B.B.B.B.B.B.B.B.B.B.B.B.B.B.B.B.B.B.B.X & X X X X g N G J X q M.z.g.u.X X X X B.B.B.B.B.B.B.B.B.B.B.B.B.B.B.B.B.B.B.",
"B.B.B.B.B.B.B.B.B.B.B.B.B.B.B.B.B.B.B.B.B.B.B.B.B.X 8 b Z M V X . X X X u.g.l.g.u.. w w X B.B.B.B.B.B.B.B.B.B.B.B.B.B.B.B.B.B.B.",
"B.B.B.B.B.B.B.B.B.B.B.B.B.B.B.B.B.B.B.B.B.B.B.B.B.X < w B b M M V C C O E r.g.u.8.. n w X B.B.B.B.B.B.B.B.B.B.B.B.B.B.B.B.B.B.B.",
"B.B.B.B.B.B.B.B.B.B.B.B.B.B.B.B.B.B.B.B.B.B.B.B.B.X 8 w w b b Z C V b M X X o.X X c z 8 X B.B.B.B.B.B.B.B.B.B.B.B.B.B.B.B.B.B.B.",
"B.B.B.B.B.B.B.B.B.B.B.B.B.B.B.B.B.B.B.B.B.B.B.B.B.X & 9 w w v b c b v z w w & w w 8 8 & X B.B.B.B.B.B.B.B.B.B.B.B.B.B.B.B.B.B.B.",
"B.B.B.B.B.B.B.B.B.B.B.B.B.B.B.B.B.B.B.B.B.B.B.B.B.B.X X X X X $ . . X X X w X X X X X X X B.B.B.B.B.B.B.B.B.B.B.B.B.B.B.B.B.B.B.",
"B.B.B.B.B.B.B.B.B.B.B.B.B.B.B.B.B.B.B.B.B.B.B.B.B.B.X 2 2 r t , X B.B.B.X X , > > X > , X B.B.B.B.B.B.B.B.B.B.B.B.B.B.B.B.B.B.B.",
"B.B.B.B.B.B.B.B.B.B.B.B.B.B.B.B.B.B.B.B.B.B.B.B.B.B.X 1 e 3 2 X X X B.B.B.X 1 > : X X X B.B.B.B.B.B.B.B.B.B.B.B.B.B.B.B.B.B.B.B.",
"B.B.B.B.B.B.B.B.B.B.B.B.B.B.B.B.B.B.B.B.B.B.B.B.B.B.X X X X X , t X B.B.B.X X X X B.B.B.B.B.B.B.B.B.B.B.B.B.B.B.B.B.B.B.B.B.B.B.",
"B.B.B.B.B.B.B.B.B.B.B.B.B.B.B.B.B.B.B.B.B.B.B.B.B.B.B.B.B.B.X X X X B.B.B.B.B.B.B.B.B.B.B.B.B.B.B.B.B.B.B.B.B.B.B.B.B.B.B.B.B.B.",
"B.B.B.B.B.B.B.B.B.B.B.B.B.B.B.B.B.B.B.B.B.B.B.B.B.B.B.B.B.B.B.B.B.B.B.B.B.B.B.B.B.B.B.B.B.B.B.B.B.B.B.B.B.B.B.B.B.B.B.B.B.B.B.B.",
"B.B.B.B.B.B.B.B.B.B.B.B.B.B.B.B.B.B.B.B.B.B.B.B.B.B.B.B.B.B.B.B.B.B.B.B.B.B.B.B.B.B.B.B.B.B.B.B.B.B.B.B.B.B.B.B.B.B.B.B.B.B.B.B.",
"B.B.B.B.B.B.B.B.B.B.B.B.B.B.B.B.B.B.B.B.B.B.B.B.B.B.B.B.B.B.B.B.B.B.B.B.B.B.B.B.B.B.B.B.B.B.B.B.B.B.B.B.B.B.B.B.B.B.B.B.B.B.B.B."
};
