/* XPM */
static char *result[] = {
/* columns rows colors chars-per-pixel */
"64 64 150 2 ",
"   c #141312",
".  c #191715",
"X  c #1A1917",
"o  c #1B1A18",
"O  c #221713",
"+  c #2F1D15",
"@  c #221D19",
"#  c #321F17",
"$  c #24221D",
"%  c #2E211A",
"&  c #2E2E1F",
"*  c #342017",
"=  c #33221A",
"-  c #3D261C",
";  c #3E291D",
":  c #1C1C20",
">  c #1F2025",
",  c #222124",
"<  c #2A2622",
"1  c #2D2C21",
"2  c #232429",
"3  c #27282E",
"4  c #2C2C2D",
"5  c #322C27",
"6  c #392921",
"7  c #203122",
"8  c #203D27",
"9  c #313121",
"0  c #383725",
"q  c #393A26",
"w  c #353029",
"e  c #39322B",
"r  c #3D3D28",
"t  c #2B2C32",
"y  c #373737",
"u  c #313238",
"i  c gray22",
"p  c #452B1F",
"a  c #472E20",
"s  c #492E20",
"d  c #4E3123",
"f  c #42372F",
"g  c #4D342A",
"h  c #543525",
"j  c #583727",
"k  c #553728",
"l  c #5E3C2A",
"z  c #483E35",
"x  c #5B3C30",
"c  c #613F2C",
"v  c #3F4029",
"b  c #38523E",
"n  c #43442C",
"m  c #47482F",
"M  c #48492F",
"N  c #444531",
"B  c #454831",
"V  c #4B4C31",
"C  c #4B4239",
"Z  c #4F5136",
"A  c #515336",
"S  c #545639",
"D  c #55583A",
"F  c #595C3E",
"G  c #66412D",
"H  c #68432F",
"J  c #634133",
"K  c #6D4732",
"L  c #6F4933",
"P  c #6E4938",
"I  c #724B36",
"U  c #724C3A",
"Y  c #387349",
"T  c #3B794E",
"R  c #5C5E41",
"E  c #645547",
"W  c #645648",
"Q  c #6C5D4D",
"!  c #7A5541",
"~  c #7B5A45",
"^  c #5E6042",
"/  c #636545",
"(  c #666946",
")  c #696C47",
"_  c #6A6C4A",
"`  c #6E704D",
"'  c #72744E",
"]  c #706F54",
"[  c #70645A",
"{  c #737550",
"}  c #777954",
"|  c #7D7D59",
" . c #7B7E54",
".. c #835F4B",
"X. c #8A5B45",
"o. c #846853",
"O. c #8A6C53",
"+. c #8E755E",
"@. c #937C65",
"#. c #997C64",
"$. c #B5AA36",
"%. c #84845E",
"&. c #BAAF4C",
"*. c #8C8C64",
"=. c #9F896F",
"-. c #95946B",
";. c #9C9C72",
":. c #A48A70",
">. c #AA9075",
",. c #BC9477",
"<. c #B3977A",
"1. c #BE9679",
"2. c #B3997C",
"3. c #A1A077",
"4. c #A3A278",
"5. c #898786",
"6. c #AB9687",
"7. c #B39A81",
"8. c #99A89C",
"9. c #BFAB9D",
"0. c #CCA585",
"q. c #C3A888",
"w. c #CAA989",
"e. c #C2A384",
"r. c #D2AE8C",
"t. c #D4B08E",
"y. c #D5B391",
"u. c #DAB794",
"i. c #DBB895",
"p. c #DFBC98",
"a. c #E0BD99",
"s. c #C1BFBF",
"d. c #E6C29D",
"f. c #E9C49F",
"g. c #F3E687",
"h. c #F7EB94",
"j. c #EBC7A1",
"k. c #EFCBA4",
"l. c #E1C2A9",
"z. c #EFCDAC",
"x. c #F0CFB0",
"c. c #EFD0B6",
"v. c #F1D4BB",
"b. c #C8C7C7",
"n. c #CDCDCD",
"m. c #DEDDDD",
"M. c #F7DCC8",
"N. c #F9DFCD",
"B. c #E3E2E2",
"V. c None",
/* pixels */
"V.V.V.V.V.V.V.V.V.V.V.V.V.V.V.V.V.V.V.V.V.V.V.V.V.V.V.V.V.V.V.V.V.V.V.V.V.V.V.V.V.V.V.V.V.V.V.V.V.V.V.V.V.V.V.V.V.V.V.V.V.V.V.V.",
"V.V.V.V.V.V.V.V.V.V.V.V.V.V.V.V.V.V.V.V.V.V.V.V.V.V.V.V.V.V.V.V.V.V.V.V.V.V.V.V.V.V.V.V.V.V.V.V.V.V.V.V.V.V.V.V.V.V.V.V.V.V.V.V.",
"V.V.V.V.V.V.V.V.V.V.V.V.V.V.V.V.V.V.V.V.V.V.V.V.V.V.V.V.V.V.V.V.V.V.V.V.V.V.V.V.V.V.V.V.V.V.V.V.V.V.V.V.V.V.V.V.V.V.V.V.V.V.V.V.",
"V.V.V.V.V.V.V.V.V.V.V.V.V.V.V.V.V.V.V.V.V.V.V.V.V.V.V.V.V.V.V.V.V.V.V.V.V.V.V.V.V.V.V.V.V.V.V.V.V.V.V.V.V.V.V.V.V.V.V.V.V.V.V.V.",
"V.V.V.V.V.V.V.V.V.V.V.V.V.V.V.V.V.V.V.V.V.V.V.V.V.V.V.V.V.V.V.V.V.V.V.V.V.V.V.V.V.V.V.V.V.V.V.V.V.V.V.V.V.V.V.V.V.V.V.V.V.V.V.V.",
"V.V.V.V.V.V.V.V.V.V.V.V.V.V.V.V.V.V.V.V.V.V.V.V.V.V.V.V.V.V.V.V.V.V.V.V.V.V.V.V.V.V.V.V.V.V.V.V.V.V.V.V.V.V.V.V.V.V.V.V.V.V.V.V.",
"V.V.V.V.V.V.V.V.V.V.V.V.V.V.V.V.V.V.V.V.V.V.V.V.V.V.V.V.V.V.V.V.V.V.V.V.V.V.V.V.V.V.V.V.V.V.V.V.V.V.V.V.V.V.V.V.V.V.V.V.V.V.V.V.",
"V.V.V.V.V.V.V.V.V.V.V.V.V.V.V.V.V.V.V.V.V.V.V.V.V.V.V.V.V.V.V.V.V.V.o o o o V.V.V.V.V.V.V.V.V.V.V.V.V.V.V.V.V.V.V.V.V.V.V.V.V.V.",
"V.V.V.V.V.V.V.V.V.V.V.V.V.V.V.V.V.V.V.V.V.V.V.V.V.V.V.V.V.V.o o o o o R ] @ o o o X V.V.V.V.V.V.V.V.V.V.V.V.V.V.V.V.V.V.V.V.V.V.",
"V.V.V.V.V.V.V.V.V.V.V.V.V.V.V.V.V.V.V.V.V.V.V.V.V.V.V.o o o ;.4.4.;.4.4.*.-.4.4.4.1 o o V.V.V.V.V.V.V.V.V.V.V.V.V.V.V.V.V.V.V.V.",
"V.V.V.V.V.V.V.V.V.V.V.V.V.V.V.V.V.V.V.V.V.V.V.V.V.o o 2.4.4.4.4.;.4.4.4.-.*._ *.*.{ _ F o o V.V.V.V.V.V.V.V.V.V.V.V.V.V.V.V.V.V.",
"V.V.V.V.V.V.V.V.V.V.V.V.V.V.V.V.V.V.V.V.V.V.V.o o 4.;.*.4.;.4.4.4.4.-.*.*.*.*.R F { { D ^ r o V.V.V.V.V.V.V.V.V.V.V.V.V.V.V.V.V.",
"V.V.V.V.V.V.V.V.V.V.V.V.V.V.V.V.V.V.V.V.V.V.o | *.*.4.4.4.4.4.4.4.4.-.*.*.*.F { | { ` 9 R ^ B o V.V.V.V.V.V.V.V.V.V.V.V.V.V.V.V.",
"V.V.V.V.V.V.V.V.V.V.V.V.V.V.V.V.V.V.V.V.V.o F *.*.*.*.*.*.*.*.*.*.*.*.*.R %.{ { { 9 { ^ D F D o V.V.V.V.V.V.V.V.V.V.V.V.V.V.V.V.",
"V.V.V.V.V.V.V.V.V.V.V.V.V.V.V.V.V.V.V.V.o V 0 ( ' *.*.*.*.*.*.*.*.} *.*.' { { { ( ^ ^ S R D 9 9 o V.V.V.V.V.V.V.V.V.V.V.V.V.V.V.",
"V.V.V.V.V.V.V.V.V.V.V.V.V.V.V.V.V.V.V.o r D ^ ` / 9 1 0 V Z D 0 9 { ^ { { R _ 9 ^ ^ F S 9 Z M r o V.V.V.V.V.V.V.V.V.V.V.V.V.V.V.",
"V.V.V.V.V.V.V.V.V.V.V.V.V.V.V.V.V.V.V.o V S ^ S ' ' { ' { { { { { { { ( ' D Z ^ D D ^ 9 S D n g.o V.V.V.V.V.V.V.V.V.V.V.V.V.V.V.",
"V.V.V.V.V.V.V.V.V.V.V.V.V.V.V.V.V.V.X r 5 S R F ^ ^ ^ ( ( F ' { _ D ^ ^ ^ R F ^ ^ D q D M M r 9 o V.V.V.V.V.V.V.V.V.V.V.V.V.V.V.",
"V.V.V.V.V.V.V.V.V.V.V.V.V.V.V.V.V.V.o n D D 0 0 ^ ^ ^ D F ^ ^ ^ ^ ^ ^ ^ F ^ D D M n M M m n 9 X   V.V.V.V.V.V.V.V.V.V.V.V.V.V.V.",
"V.V.V.V.V.V.V.V.V.V.V.V.V.V.V.V.V.o 0 V V M D D D D D D F ^ ^ ^ ^ D D D D D V V n M $.&.9 X X 6.o V.V.V.V.V.V.V.V.V.V.V.V.V.V.V.",
"V.V.V.V.V.V.V.V.V.V.V.V.V.V.V.V.V.X M 0 D D D M D D D D D S D D D D D V V D V V M r 9 X @ V 7.N.o V.V.V.V.V.V.V.V.V.V.V.V.V.V.V.",
"V.V.V.V.V.V.V.V.V.V.V.V.V.V.V.V.V.X v v M D V A Z Z M V V S S S Z Z n 9 m V V r v $ X 2.2.w.v.x.N.o V.V.V.V.V.V.V.V.V.V.V.V.V.V.",
"V.V.V.V.V.V.V.V.V.V.V.V.V.V.V.V.o 0 & V v M V V M D D S m 0 q M m n V r r r r r o o   k.x.z.k.v.N.o V.V.V.V.V.V.V.V.V.V.V.V.V.V.",
"V.V.V.V.V.V.V.V.V.V.V.V.V.V.V.V.o o r n r & v v r r r r r r r r r r r V V h.r o o * o =.k.z.x.k.z.o V.V.V.V.V.V.V.V.V.V.V.V.V.V.",
"V.V.V.V.V.V.V.V.V.V.V.V.V.V.V.V.V.o o 9 9 9 n v r r r r n v 9 m V h.r 9 m 9 X o * a $ $ k.k.z.k.z.o V.V.V.V.V.V.V.V.V.V.V.V.V.V.",
"V.V.V.V.V.V.V.V.V.V.V.V.V.V.V.V.V.V.  o X X X X o o o o o o X o X X o o X X d = p p o q.k.k.k.z.z.[ o V.V.V.V.V.V.V.V.V.V.V.V.V.",
"V.V.V.V.V.V.V.V.V.V.V.V.V.V.V.V.V.V.V.  + * # p p k # a ; p p p ; = * * * * d p p o o k.k.d.k.k.k.v.o V.V.V.V.V.V.V.V.V.V.V.V.V.",
"V.V.V.V.V.V.V.V.V.V.V.V.V.V.V.V.V.V.V.o - p p p p p l j l d p p p d l h p p p p p o w.k.z.k.k.k.z.k.o V.V.V.V.V.V.V.V.V.V.V.V.V.",
"V.V.V.V.V.V.V.V.V.V.V.V.V.V.V.V.V.V.o p ; c p p d c p p p j p p p p p p l p d d - o 0.f.k.k.k.k.k.k.o V.V.V.V.V.V.V.V.V.V.V.V.V.",
"V.V.V.V.V.V.V.V.V.V.V.V.V.V.V.V.V.V.o p p p p p p p s p s p p k = X X - p - p - - o k.k.k.f.k.k.k.k.o V.V.V.V.V.V.V.V.V.V.V.V.V.",
"V.V.V.V.V.V.V.V.V.V.V.V.V.V.V.V.V.V.o p p l p p p p p p c d - o X     X @ p p - ; o k.O O O O w.j.p.o V.V.V.V.V.V.V.V.V.V.V.V.V.",
"V.V.V.V.V.V.V.V.V.V.V.V.V.V.V.V.V.V.o ; p - p p p p p p p - X Q X w M.9.X - - - X E k.k.k.k.+.O k.p.o V.V.V.V.V.V.V.V.V.V.V.V.V.",
"V.V.V.V.V.V.V.V.V.V.V.V.V.V.V.V.V.V.o @ p p p p p - p p - = o 2.X p.l.~   o ; ; o w.@.X o o o j.O p.o V.V.V.V.V.V.V.V.V.V.V.V.V.",
"V.V.V.V.V.V.V.V.V.V.V.V.V.V.V.V.V.V.V.o p p - p - p - - @ o <.k.o u.k.O.u.o - o <.k.X s.n.B.8 o o i.o V.V.V.V.V.V.V.V.V.V.V.V.V.",
"V.V.V.V.V.V.V.V.V.V.V.V.V.V.V.V.V.V.V.o p - p p p - = o X <.k.k.o $ p.w.r.o % o k.k.X b.n.B.T O o z o V.V.V.V.V.V.V.V.V.V.V.V.V.",
"V.V.V.V.V.V.V.V.V.V.V.V.V.V.V.V.V.V.V.X - - - - - X X 2.2.k.k.k.k.X X O.o y.o 2.k.k.o s.n.B.Y 7 8.o o V.V.V.V.V.V.V.V.V.V.V.V.V.",
"V.V.V.V.V.V.V.V.V.V.V.V.V.V.V.V.V.V.V.o - - - - o Q >.j.k.k.k.k.k.k.[ o i.k.e.k.k.k.f.@ n.B.B.b b.5 o V.V.V.V.V.V.V.V.V.V.V.V.V.",
"V.V.V.V.V.V.V.V.V.V.V.V.V.V.V.V.V.V.V.o = p - o e :.a.k.d.k.k.k.k.k.f.k.k.o o o o W k.X 5.s.b.m.o y.o V.V.V.V.V.V.V.V.V.V.V.V.V.",
"V.V.V.V.V.V.V.V.V.V.V.V.V.V.V.V.V.V.V.V.X - - o #.u.p.k.k.u.u.k.k.k.k.k.o k ~ ..H o o j.1 o o o d.,.o V.V.V.V.V.V.V.V.V.V.V.V.V.",
"V.V.V.V.V.V.V.V.V.V.V.V.V.V.V.V.V.V.V.V.X o o o.0.0.u.u.d.j.j.k.a.u.k.k.o s G H I K ..o o o o X o o o V.V.V.V.V.V.V.V.V.V.V.V.V.",
"V.V.V.V.V.V.V.V.V.V.V.V.V.V.V.V.V.V.V.V.V.o o   ,.0.0.0.y.p.k.d.f.u.a.u.o l l h ! K ..K U X.....U k o V.V.V.V.V.V.V.V.V.V.V.V.V.",
"V.V.V.V.V.V.V.V.V.V.V.V.V.V.V.V.V.V.V.V.V.V.V.V.o o 0.0.u.r.u.p.a.u.u.u.X a a a l h L c H K K K o o o V.V.V.V.V.V.V.V.V.V.V.V.V.",
"V.V.V.V.V.V.V.V.V.V.V.V.V.V.V.V.V.V.V.V.V.V.V.V.V.V.o o X 0.0.0.u.t.u.a.5 a l l l l ..c c ..K ~ l o V.V.V.V.V.V.V.V.V.V.V.V.V.V.",
"V.V.V.V.V.V.V.V.V.V.V.V.V.V.V.V.V.V.V.V.V.V.V.V.V.V.V.V.X X o o o #.0.1.f o a j d h l K c H l k - o V.V.V.V.V.V.V.V.V.V.V.V.V.V.",
"V.V.V.V.V.V.V.V.V.V.V.V.V.V.V.V.V.V.V.V.V.V.V.V.V.V.V.o V ^ { ' ' o X o o o a a h s d s l p h p o V.V.V.V.V.V.V.V.V.V.V.V.V.V.V.",
"V.V.V.V.V.V.V.V.V.V.V.V.V.V.V.V.V.V.V.V.V.V.V.V.V.V.V.o V ^ ^ ` { %.X  .N o o o p s h s a p p o X V.V.V.V.V.V.V.V.V.V.V.V.V.V.V.",
"V.V.V.V.V.V.V.V.V.V.V.V.V.V.V.V.V.V.V.V.V.V.V.V.V.V.X 1 Z F ^ ^ ' _ X ( { o o w . o o o X o o V.V.V.V.V.V.V.V.V.V.V.V.V.V.V.V.V.",
"V.V.V.V.V.V.V.V.V.V.V.V.V.V.V.V.V.V.V.V.V.V.V.V.V.V.o M V D ^ ^ / ' o A ) D o o y y o o V.V.V.V.V.V.V.V.V.V.V.V.V.V.V.V.V.V.V.V.",
"V.V.V.V.V.V.V.V.V.V.V.V.V.V.V.V.V.V.V.V.V.V.V.V.V.V.o D V D D ^ F R o n S D Z o o o V o V.V.V.V.V.V.V.V.V.V.V.V.V.V.V.V.V.V.V.V.",
"V.V.V.V.V.V.V.V.V.V.V.V.V.V.V.V.V.V.V.V.V.V.V.V.V.V.o o X Z D D R / R o Z Z @ X X o o X o V.V.V.V.V.V.V.V.V.V.V.V.V.V.V.V.V.V.V.",
"V.V.V.V.V.V.V.V.V.V.V.V.V.V.V.V.V.V.V.V.V.V.V.V.V.X o x X.o o X o o X o : o < p.0.o P 6 o V.V.V.V.V.V.V.V.V.V.V.V.V.V.V.V.V.V.V.",
"V.V.V.V.V.V.V.V.V.V.V.V.V.V.V.V.V.V.V.V.V.V.V.V.V.o & o o o o g J P U X < M.M.k.d.o o o o V.V.V.V.V.V.V.V.V.V.V.V.V.V.V.V.V.V.V.",
"V.V.V.V.V.V.V.V.V.V.V.V.V.V.V.V.V.V.V.V.V.V.V.V.V.o 9 V D V Z X o o o o a.k.x.j.u.o r r o V.V.V.V.V.V.V.V.V.V.V.V.V.V.V.V.V.V.V.",
"V.V.V.V.V.V.V.V.V.V.V.V.V.V.V.V.V.V.V.V.V.V.V.V.V.o & r V V V V D D D r $ t.k.p.0.o V r o V.V.V.V.V.V.V.V.V.V.V.V.V.V.V.V.V.V.V.",
"V.V.V.V.V.V.V.V.V.V.V.V.V.V.V.V.V.V.V.V.V.V.V.V.V.o 9 r r V V D D V V V o o +.X X r r 9 o V.V.V.V.V.V.V.V.V.V.V.V.V.V.V.V.V.V.V.",
"V.V.V.V.V.V.V.V.V.V.V.V.V.V.V.V.V.V.V.V.V.V.V.V.V.o & r r r r V r V V r r r 0 r r q 9 1 o V.V.V.V.V.V.V.V.V.V.V.V.V.V.V.V.V.V.V.",
"V.V.V.V.V.V.V.V.V.V.V.V.V.V.V.V.V.V.V.V.V.V.V.V.V.V.o o o o o $ o o o o o r o o o o o o o V.V.V.V.V.V.V.V.V.V.V.V.V.V.V.V.V.V.V.",
"V.V.V.V.V.V.V.V.V.V.V.V.V.V.V.V.V.V.V.V.V.V.V.V.V.V.o 3 t u y : o V.V.V.X o , > , o : , o V.V.V.V.V.V.V.V.V.V.V.V.V.V.V.V.V.V.V.",
"V.V.V.V.V.V.V.V.V.V.V.V.V.V.V.V.V.V.V.V.V.V.V.V.V.V.o 2 t 3 t o o o V.V.V.o 3 , : o o o V.V.V.V.V.V.V.V.V.V.V.V.V.V.V.V.V.V.V.V.",
"V.V.V.V.V.V.V.V.V.V.V.V.V.V.V.V.V.V.V.V.V.V.V.V.V.V.o o o o o , u o V.V.V.o o o o V.V.V.V.V.V.V.V.V.V.V.V.V.V.V.V.V.V.V.V.V.V.V.",
"V.V.V.V.V.V.V.V.V.V.V.V.V.V.V.V.V.V.V.V.V.V.V.V.V.V.V.V.V.V.o o o o V.V.V.V.V.V.V.V.V.V.V.V.V.V.V.V.V.V.V.V.V.V.V.V.V.V.V.V.V.V.",
"V.V.V.V.V.V.V.V.V.V.V.V.V.V.V.V.V.V.V.V.V.V.V.V.V.V.V.V.V.V.V.V.V.V.V.V.V.V.V.V.V.V.V.V.V.V.V.V.V.V.V.V.V.V.V.V.V.V.V.V.V.V.V.V.",
"V.V.V.V.V.V.V.V.V.V.V.V.V.V.V.V.V.V.V.V.V.V.V.V.V.V.V.V.V.V.V.V.V.V.V.V.V.V.V.V.V.V.V.V.V.V.V.V.V.V.V.V.V.V.V.V.V.V.V.V.V.V.V.V.",
"V.V.V.V.V.V.V.V.V.V.V.V.V.V.V.V.V.V.V.V.V.V.V.V.V.V.V.V.V.V.V.V.V.V.V.V.V.V.V.V.V.V.V.V.V.V.V.V.V.V.V.V.V.V.V.V.V.V.V.V.V.V.V.V."
};
