/* XPM */
static char *result[] = {
/* columns rows colors chars-per-pixel */
"64 64 156 2 ",
"   c #141312",
".  c #181716",
"X  c #1A1917",
"o  c #1B1A18",
"O  c #221713",
"+  c #221D19",
"@  c #24231C",
"#  c #2B221C",
"$  c #28281E",
"%  c #342017",
"&  c #33231A",
"*  c #3D261C",
"=  c #1D1E23",
"-  c #1F2025",
";  c #2A2621",
":  c #2D2D21",
">  c #25262B",
",  c #27282E",
"<  c #2B2B2E",
"1  c #242322",
"2  c #302F21",
"3  c #352F28",
"4  c #203624",
"5  c #203D27",
"6  c #313121",
"7  c #373825",
"8  c #3A3A26",
"9  c #3A332C",
"0  c #373928",
"q  c #3D3D28",
"w  c #2E2F37",
"e  c #333435",
"r  c #323339",
"t  c gray22",
"y  c #40271D",
"u  c #462B1F",
"i  c #472E20",
"p  c #492D20",
"a  c #4E3122",
"s  c #533525",
"d  c #583827",
"f  c #53392A",
"g  c #5E3C2A",
"h  c #513F32",
"j  c #5B3C30",
"k  c #603E2B",
"l  c #2A5634",
"z  c #31663E",
"x  c #43432B",
"c  c #47482F",
"v  c #49492F",
"b  c #464730",
"n  c #474931",
"m  c #4B4C31",
"M  c #52463A",
"N  c #584A3D",
"B  c #4F5135",
"V  c #515336",
"C  c #535639",
"Z  c #55583A",
"A  c #5A5C3E",
"S  c #64412D",
"D  c #6A442F",
"F  c #6E4731",
"G  c #6E4832",
"H  c #6E4A38",
"J  c #714A34",
"K  c #73513E",
"L  c #77722F",
"P  c #594E43",
"I  c #5C5E40",
"U  c #5D5143",
"Y  c #454754",
"T  c #635042",
"R  c #6C5A4A",
"E  c #7E5945",
"W  c #7B5E48",
"Q  c #5E6042",
"!  c #646645",
"~  c #686641",
"^  c #676947",
"/  c #696C47",
"(  c #6A6C4A",
")  c #6F714D",
"_  c #71734F",
"`  c #766552",
"'  c #737550",
"]  c #7A7C54",
"[  c #7D7E58",
"{  c #636362",
"}  c #845842",
"|  c #8E5E47",
" . c #835F4A",
".. c #806A57",
"X. c #886B55",
"o. c #876D59",
"O. c #8B6D58",
"+. c #807F5F",
"@. c #93755C",
"#. c #8B7A6A",
"$. c #937D66",
"%. c #7F805A",
"&. c #938A2F",
"*. c #8B8431",
"=. c #A79D35",
"-. c #82835C",
";. c #868661",
":. c #8C8C64",
">. c #909067",
",. c #93936A",
"<. c #9B9B71",
"1. c #A58B71",
"2. c #A98E73",
"3. c #A09F75",
"4. c #BC9477",
"5. c #B3977A",
"6. c #B39A7C",
"7. c #BA9A7B",
"8. c #A1A076",
"9. c #A3A278",
"0. c #C19C7E",
"q. c #B49C83",
"w. c #BB9F80",
"e. c #BEA283",
"r. c #B7A394",
"t. c #C3A587",
"y. c #CCA585",
"u. c #CEA887",
"i. c #C9AA8A",
"p. c #D0AA89",
"a. c #CFB08D",
"s. c #D7B593",
"d. c #D9B693",
"f. c #DBB895",
"g. c #D5B799",
"h. c #E1BF99",
"j. c #C1BFBF",
"k. c #E5C39D",
"l. c #EAC59F",
"z. c #F7EB94",
"x. c #DEC5B1",
"c. c #EDC7A1",
"v. c #EFCBA4",
"b. c #EFCDAC",
"n. c #E6CAB6",
"m. c #EFCFB3",
"M. c #EFD0B6",
"N. c #CECECE",
"B. c #C3C6C3",
"V. c #D4D4D4",
"C. c #D8D6D6",
"Z. c #DDDDDD",
"A. c #F4D7C1",
"S. c #F9DFCC",
"D. c #E3E2E2",
"F. c None",
/* pixels */
"F.F.F.F.F.F.F.F.F.F.F.F.F.F.F.F.F.F.F.F.F.F.F.F.F.F.F.F.F.F.F.F.F.F.F.F.F.F.F.F.F.F.F.F.F.F.F.F.F.F.F.F.F.F.F.F.F.F.F.F.F.F.F.F.",
"F.F.F.F.F.F.F.F.F.F.F.F.F.F.F.F.F.F.F.F.F.F.F.F.F.F.F.F.F.F.F.F.F.F.F.F.F.F.F.F.F.F.F.F.F.F.F.F.F.F.F.F.F.F.F.F.F.F.F.F.F.F.F.F.",
"F.F.F.F.F.F.F.F.F.F.F.F.F.F.F.F.F.F.F.F.F.F.F.F.F.F.F.F.F.F.F.F.F.F.F.F.F.F.F.F.F.F.F.F.F.F.F.F.F.F.F.F.F.F.F.F.F.F.F.F.F.F.F.F.",
"F.F.F.F.F.F.F.F.F.F.F.F.F.F.F.F.F.F.F.F.F.F.F.F.F.F.F.F.F.F.F.F.F.F.F.F.F.F.F.F.F.F.F.F.F.F.F.F.F.F.F.F.F.F.F.F.F.F.F.F.F.F.F.F.",
"F.F.F.F.F.F.F.F.F.F.F.F.F.F.F.F.F.F.F.F.F.F.F.F.F.F.F.F.F.F.F.F.F.F.F.F.F.F.F.F.F.F.F.F.F.F.F.F.F.F.F.F.F.F.F.F.F.F.F.F.F.F.F.F.",
"F.F.F.F.F.F.F.F.F.F.F.F.F.F.F.F.F.F.F.F.F.F.F.F.F.F.F.F.F.F.F.F.F.F.F.F.F.F.F.F.F.F.F.F.F.F.F.F.F.F.F.F.F.F.F.F.F.F.F.F.F.F.F.F.",
"F.F.F.F.F.F.F.F.F.F.F.F.F.F.F.F.F.F.F.F.F.F.F.F.F.F.F.F.F.F.F.F.F.F.F.F.F.F.F.F.F.F.F.F.F.F.F.F.F.F.F.F.F.F.F.F.F.F.F.F.F.F.F.F.",
"F.F.F.F.F.F.F.F.F.F.F.F.F.F.F.F.F.F.F.F.F.F.F.F.F.F.F.F.F.F.F.o o o o o o o o F.F.F.F.F.F.F.F.F.F.F.F.F.F.F.F.F.F.F.F.F.F.F.F.F.",
"F.F.F.F.F.F.F.F.F.F.F.F.F.F.F.F.F.F.F.F.F.F.F.F.F.F.F.F.o o o o 9.>.<.9.9.<.:.X X X F.F.F.F.F.F.F.F.F.F.F.F.F.F.F.F.F.F.F.F.F.F.",
"F.F.F.F.F.F.F.F.F.F.F.F.F.F.F.F.F.F.F.F.F.F.F.F.F.o o o -.9.9.<.9.9.9.9.9.9.;.:.' 9.o X X F.F.F.F.F.F.F.F.F.F.F.F.F.F.F.F.F.F.F.",
"F.F.F.F.F.F.F.F.F.F.F.F.F.F.F.F.F.F.F.F.F.F.F.F.o o 9.9.3.9.:.:.9.9.9.:.:.:.:.[ ' : A I o o F.F.F.F.F.F.F.F.F.F.F.F.F.F.F.F.F.F.",
"F.F.F.F.F.F.F.F.F.F.F.F.F.F.F.F.F.F.F.F.F.F.o o 9.:.9.9.9.9.9.9.,.9.:.:.:.:.Q ' ' ' I I 8 o X F.F.F.F.F.F.F.F.F.F.F.F.F.F.F.F.F.",
"F.F.F.F.F.F.F.F.F.F.F.F.F.F.F.F.F.F.F.F.F.o ( ,.:.<.9.,.:.<.9.3.:.:.' :.6 ' :.' ' 6 I Z Q Z X X F.F.F.F.F.F.F.F.F.F.F.F.F.F.F.F.",
"F.F.F.F.F.F.F.F.F.F.F.F.F.F.F.F.F.F.F.F.o m :.:.:.:.:.:.:.:.:.:.:.:.-.[ ] ' ' ^ I Q A Q A Z 7 o F.F.F.F.F.F.F.F.F.F.F.F.F.F.F.F.",
"F.F.F.F.F.F.F.F.F.F.F.F.F.F.F.F.F.F.F.X b ! B ' :.] ' ' ' ' ' ' :.:.[ ( ' A I ' Q Q Z Z : m q X F.F.F.F.F.F.F.F.F.F.F.F.F.F.F.F.",
"F.F.F.F.F.F.F.F.F.F.F.F.F.F.F.F.F.F.X X I I ' C C V m / ! / ( Z ! ' ' ' ) ) 6 I A C Q 7 Z m z.X F.F.F.F.F.F.F.F.F.F.F.F.F.F.F.F.",
"F.F.F.F.F.F.F.F.F.F.F.F.F.F.F.F.F.F.o c C Q Z I _ _ _ ' ' ' ' ' _ _ ' A A * A A Q A v Z v 8 =.o F.F.F.F.F.F.F.F.F.F.F.F.F.F.F.F.",
"F.F.F.F.F.F.F.F.F.F.F.F.F.F.F.F.F.X X n V Z A Q ! ~ Q Q I I A I Q A v A A A A Z m Z Z v i l 6 o F.F.F.F.F.F.F.F.F.F.F.F.F.F.F.F.",
"F.F.F.F.F.F.F.F.F.F.F.F.F.F.F.F.F.X c m m Z 6 : v A A Z Z Z I Q Q Q A Q A A m m m v A 6 6 + o   F.F.F.F.F.F.F.F.F.F.F.F.F.F.F.F.",
"F.F.F.F.F.F.F.F.F.F.F.F.F.F.F.F.F.X q m Z Z Z Z Z Z Z Z Z Z Z Z Z Z Z A m m Z m B v &.o o o e.n.o F.F.F.F.F.F.F.F.F.F.F.F.F.F.F.",
"F.F.F.F.F.F.F.F.F.F.F.F.F.F.F.F.o $ q x m Z m v Z Z Z Z Z Z Z Z v v m Z C v m l 6 @ X P r.g.v.S.o F.F.F.F.F.F.F.F.F.F.F.F.F.F.F.",
"F.F.F.F.F.F.F.F.F.F.F.F.F.F.F.F.o q v Z m Z v V Z Z m v m m v v 6 v m v v x m i X X 6.b.b.v.A.S.o F.F.F.F.F.F.F.F.F.F.F.F.F.F.F.",
"F.F.F.F.F.F.F.F.F.F.F.F.F.F.F.F.o x v x q c v m m B B v m m l f x m v l l K 6 o o i o b.b.b.v.b.r.o F.F.F.F.F.F.F.F.F.F.F.F.F.F.",
"F.F.F.F.F.F.F.F.F.F.F.F.F.F.F.F.X x q v $ q q q y l i i l x i q c m x y c 7 o o % u o v.v.v.b.v.S.o F.F.F.F.F.F.F.F.F.F.F.F.F.F.",
"F.F.F.F.F.F.F.F.F.F.F.F.F.F.F.F.X o @ 6 2 2 8 8 q q q q q 6 B x *.L q 6 o o # % u * o v.v.v.v.v.A.o F.F.F.F.F.F.F.F.F.F.F.F.F.F.",
"F.F.F.F.F.F.F.F.F.F.F.F.F.F.F.F.F.F.X o X X o o o o o o o o o o o O o X u i s a p o o v.b.v.k.v.b.o F.F.F.F.F.F.F.F.F.F.F.F.F.F.",
"F.F.F.F.F.F.F.F.F.F.F.F.F.F.F.F.F.F.X % % % % % p p u u u i u % % % % % u u u u * o v.v.v.v.v.v.b.o F.F.F.F.F.F.F.F.F.F.F.F.F.F.",
"F.F.F.F.F.F.F.F.F.F.F.F.F.F.F.F.F.F.X u u p p s u d u k u u u u s u g u g u s k * o v.v.u.v.v.v.b.o F.F.F.F.F.F.F.F.F.F.F.F.F.F.",
"F.F.F.F.F.F.F.F.F.F.F.F.F.F.F.F.F.F.X u u u u u k g s u u * u u u * y u * u u s * o v.c.v.v.v.c.v.o F.F.F.F.F.F.F.F.F.F.F.F.F.F.",
"F.F.F.F.F.F.F.F.F.F.F.F.F.F.F.F.F.F.+ u * p u u u u u u * u y # o o o + u u u u o ` v.O O O p.v.v.A o F.F.F.F.F.F.F.F.F.F.F.F.F.",
"F.F.F.F.F.F.F.F.F.F.F.F.F.F.F.F.F.F.X i * g u i u d u u u * o o     #.o + u * u o e.N h v.O O v.v.$.o F.F.F.F.F.F.F.F.F.F.F.F.F.",
"F.F.F.F.F.F.F.F.F.F.F.F.F.F.F.F.F.F.X i u u u u u u u u * * o 6.o S.X.x.X * * * O v.v.9 o o v.O c.e.o F.F.F.F.F.F.F.F.F.F.F.F.F.",
"F.F.F.F.F.F.F.F.F.F.F.F.F.F.F.F.F.F.X * * u u u * * u * y o 5.c.o 7.M.W   X u o 7.v.o j.N.C.o o v.O o F.F.F.F.F.F.F.F.F.F.F.F.F.",
"F.F.F.F.F.F.F.F.F.F.F.F.F.F.F.F.F.F.X * * u * u u u y * o 2.h.v.o f.v.@.X X * o h.v.o B.D.D.z 4 o ..X F.F.F.F.F.F.F.F.F.F.F.F.F.",
"F.F.F.F.F.F.F.F.F.F.F.F.F.F.F.F.F.F.X * * * u u u * o o 5.7.v.v.o # f.h.o o X 5.v.c.o j.D.B.l O D.o F.F.F.F.F.F.F.F.F.F.F.F.F.F.",
"F.F.F.F.F.F.F.F.F.F.F.F.F.F.F.F.F.F.X * * * * * * o 1.6.v.v.v.v.v.o o o o 7.6.b.y.c.o j.D.D.z 5 { o F.F.F.F.F.F.F.F.F.F.F.F.F.F.",
"F.F.F.F.F.F.F.F.F.F.F.F.F.F.F.F.F.F.F.X u * * * o 1.k.c.v.b.v.v.v.v.v.v.v.o o i.v.c.c.o B.Z.V.V.o o F.F.F.F.F.F.F.F.F.F.F.F.F.F.",
"F.F.F.F.F.F.F.F.F.F.F.F.F.F.F.F.F.F.F.o * * * X 1.f.k.v.f.c.v.v.v.v.v.v.o o f $ o o v.t.o o o o u.T o F.F.F.F.F.F.F.F.F.F.F.F.F.",
"F.F.F.F.F.F.F.F.F.F.F.F.F.F.F.F.F.F.F.F.o u X M 0.f.f.v.b.d.k.k.v.v.v.v.o u D F F J o o 9 v.k.M X X o F.F.F.F.F.F.F.F.F.F.F.F.F.",
"F.F.F.F.F.F.F.F.F.F.F.F.F.F.F.F.F.F.F.F.o X X O.y.y.y.f.f.f.v.s.v.c.f.l.o k k S  .F  . .o o o f G o F.F.F.F.F.F.F.F.F.F.F.F.F.F.",
"F.F.F.F.F.F.F.F.F.F.F.F.F.F.F.F.F.F.F.F.F.o   X 4.u.y.u.y.f.f.c.v.v.f.e.+ i s s g J J F F F F X S o F.F.F.F.F.F.F.F.F.F.F.F.F.F.",
"F.F.F.F.F.F.F.F.F.F.F.F.F.F.F.F.F.F.F.F.F.F.F.F.o o o.y.y.y.f.f.f.f.f.i.X i s k g s g s F g F H f o F.F.F.F.F.F.F.F.F.F.F.F.F.F.",
"F.F.F.F.F.F.F.F.F.F.F.F.F.F.F.F.F.F.F.F.F.F.F.F.F.F.o o X o p.u.y.y.y.y.o p g s d s  .g F F g E i X F.F.F.F.F.F.F.F.F.F.F.F.F.F.",
"F.F.F.F.F.F.F.F.F.F.F.F.F.F.F.F.F.F.F.F.F.F.F.F.F.F.F.o B C o o o o X X @.o d i s i s p s g a p X X F.F.F.F.F.F.F.F.F.F.F.F.F.F.",
"F.F.F.F.F.F.F.F.F.F.F.F.F.F.F.F.F.F.F.F.F.F.F.F.F.F.F.X m I ( ' _ ' O . . O o s p p g i p u i X X F.F.F.F.F.F.F.F.F.F.F.F.F.F.F.",
"F.F.F.F.F.F.F.F.F.F.F.F.F.F.F.F.F.F.F.F.F.F.F.F.F.F.X X B Q Q ' :.q l ] o X e o X i X u X X X X F.F.F.F.F.F.F.F.F.F.F.F.F.F.F.F.",
"F.F.F.F.F.F.F.F.F.F.F.F.F.F.F.F.F.F.F.F.F.F.F.F.F.F.X m C I I I ' o V ( [ X X e t X X o F.X F.F.F.F.F.F.F.F.F.F.F.F.F.F.F.F.F.F.",
"F.F.F.F.F.F.F.F.F.F.F.F.F.F.F.F.F.F.F.F.F.F.F.F.F.F.X C B Z A A Q o n A / X M X w @ X o F.F.F.F.F.F.F.F.F.F.F.F.F.F.F.F.F.F.F.F.",
"F.F.F.F.F.F.F.F.F.F.F.F.F.F.F.F.F.F.F.F.F.F.F.F.F.F.o C m Z Z I A : 6 C Z B o Z o o m X F.F.F.F.F.F.F.F.F.F.F.F.F.F.F.F.F.F.F.F.",
"F.F.F.F.F.F.F.F.F.F.F.F.F.F.F.F.F.F.F.F.F.F.F.F.F.F.o o X X 0 Z I C o B B v o v o o o + o F.F.F.F.F.F.F.F.F.F.F.F.F.F.F.F.F.F.F.",
"F.F.F.F.F.F.F.F.F.F.F.F.F.F.F.F.F.F.F.F.F.F.F.F.F.X X o H | # o X X X o o o M o } j o o o F.F.F.F.F.F.F.F.F.F.F.F.F.F.F.F.F.F.F.",
"F.F.F.F.F.F.F.F.F.F.F.F.F.F.F.F.F.F.F.F.F.F.F.F.F.X 6 n o o o o X X X M.S.v.f.o X o 6 q o F.F.F.F.F.F.F.F.F.F.F.F.F.F.F.F.F.F.F.",
"F.F.F.F.F.F.F.F.F.F.F.F.F.F.F.F.F.F.F.F.F.F.F.F.F.o 6 n m m Z Z A @ s.v.M.m.v.R q m q q o F.F.F.F.F.F.F.F.F.F.F.F.F.F.F.F.F.F.F.",
"F.F.F.F.F.F.F.F.F.F.F.F.F.F.F.F.F.F.F.F.F.F.F.F.F.o 6 q m m V m m n X s.v.l.f.o m n n 6 o F.F.F.F.F.F.F.F.F.F.F.F.F.F.F.F.F.F.F.",
"F.F.F.F.F.F.F.F.F.F.F.F.F.F.F.F.F.F.F.F.F.F.F.F.F.o 6 q x n v m C m X 3 t.y.o X m q 8 6 o F.F.F.F.F.F.F.F.F.F.F.F.F.F.F.F.F.F.F.",
"F.F.F.F.F.F.F.F.F.F.F.F.F.F.F.F.F.F.F.F.F.F.F.F.F.o X o 2 6 6 q q q q $ . . h q 8 o 6 o o F.F.F.F.F.F.F.F.F.F.F.F.F.F.F.F.F.F.F.",
"F.F.F.F.F.F.F.F.F.F.F.F.F.F.F.F.F.F.F.F.F.F.F.F.F.F.F.X o o o o X X o o o o o o X X X X F.F.F.F.F.F.F.F.F.F.F.F.F.F.F.F.F.F.F.F.",
"F.F.F.F.F.F.F.F.F.F.F.F.F.F.F.F.F.F.F.F.F.F.F.F.F.F.F.o , , w r , X F.o 1 = - - . w , X F.F.F.F.F.F.F.F.F.F.F.F.F.F.F.F.F.F.F.F.",
"F.F.F.F.F.F.F.F.F.F.F.F.F.F.F.F.F.F.F.F.F.F.F.F.F.F.F.o > , r r o Y o F.o = = o o o o o F.F.F.F.F.F.F.F.F.F.F.F.F.F.F.F.F.F.F.F.",
"F.F.F.F.F.F.F.F.F.F.F.F.F.F.F.F.F.F.F.F.F.F.F.F.F.F.F.o X X o o o o o F.o o X F.F.F.F.F.F.F.F.F.F.F.F.F.F.F.F.F.F.F.F.F.F.F.F.F.",
"F.F.F.F.F.F.F.F.F.F.F.F.F.F.F.F.F.F.F.F.F.F.F.F.F.F.F.F.F.F.F.F.F.F.o F.F.F.F.F.F.F.F.F.F.F.F.F.F.F.F.F.F.F.F.F.F.F.F.F.F.F.F.F.",
"F.F.F.F.F.F.F.F.F.F.F.F.F.F.F.F.F.F.F.F.F.F.F.F.F.F.F.F.F.F.F.F.F.F.F.F.F.F.F.F.F.F.F.F.F.F.F.F.F.F.F.F.F.F.F.F.F.F.F.F.F.F.F.F.",
"F.F.F.F.F.F.F.F.F.F.F.F.F.F.F.F.F.F.F.F.F.F.F.F.F.F.F.F.F.F.F.F.F.F.F.F.F.F.F.F.F.F.F.F.F.F.F.F.F.F.F.F.F.F.F.F.F.F.F.F.F.F.F.F.",
"F.F.F.F.F.F.F.F.F.F.F.F.F.F.F.F.F.F.F.F.F.F.F.F.F.F.F.F.F.F.F.F.F.F.F.F.F.F.F.F.F.F.F.F.F.F.F.F.F.F.F.F.F.F.F.F.F.F.F.F.F.F.F.F."
};
