/* XPM */
static char *result[] = {
/* columns rows colors chars-per-pixel */
"64 64 144 2 ",
"   c #151413",
".  c #181715",
"X  c #1A1917",
"o  c #1B1A18",
"O  c #221712",
"+  c #251914",
"@  c #2E1C15",
"#  c #221D19",
"$  c #291F19",
"%  c #311F17",
"&  c #23221C",
"*  c #2C211B",
"=  c #2A2A1E",
"-  c #342017",
";  c #33231C",
":  c #3D261C",
">  c #222325",
",  c #2F2E21",
"<  c #23242A",
"1  c #27282E",
"2  c #2C2C2D",
"3  c #332621",
"4  c #302C26",
"5  c #3E2F26",
"6  c #342F28",
"7  c #203D27",
"8  c #323221",
"9  c #393926",
"0  c #37312A",
"q  c #3D3D28",
"w  c #2D2E36",
"e  c #303136",
"r  c gray22",
"t  c #452B1F",
"y  c #472E20",
"u  c #4A2E21",
"i  c #4D3123",
"p  c #45362C",
"a  c #543525",
"s  c #583827",
"d  c #5E3C2A",
"f  c #443A31",
"g  c #5E3E31",
"h  c #603E2C",
"j  c #274A2F",
"k  c #295232",
"l  c #2C5936",
"z  c #37553E",
"x  c #43442C",
"c  c #48492F",
"v  c #464535",
"b  c #4B4237",
"n  c #474930",
"m  c #4B4C31",
"M  c #4F5135",
"N  c #505236",
"B  c #535639",
"V  c #55583A",
"C  c #595C3E",
"Z  c #65412E",
"A  c #69442F",
"S  c #654334",
"D  c #6E4731",
"F  c #6F4933",
"G  c #62493B",
"H  c #6F4C39",
"J  c #704A34",
"K  c #744D3B",
"L  c #79543F",
"P  c #353741",
"I  c #387249",
"U  c #5C5E41",
"Y  c #645647",
"T  c #6C5C4C",
"R  c #7C5C46",
"E  c #7D5B48",
"W  c #5E6042",
"Q  c #636645",
"!  c #666946",
"~  c #6A6C49",
"^  c #6E704C",
"/  c #71734F",
"(  c #716251",
")  c #7D6754",
"_  c #776855",
"`  c #737550",
"'  c #777854",
"]  c #7A7C54",
"[  c #7C7D59",
"{  c #8C5D46",
"}  c #835F4B",
"|  c #86745E",
" . c #94755F",
".. c #927E67",
"X. c #997A62",
"o. c #86865F",
"O. c #878860",
"+. c #8C8C64",
"@. c #919169",
"#. c #99996F",
"$. c #989770",
"%. c #9C9B72",
"&. c #A1896E",
"*. c #A48A70",
"=. c #AF8C70",
"-. c #AB9276",
";. c #A09F76",
":. c #B29377",
">. c #B3977A",
",. c #B39A7C",
"<. c #B89B7D",
"1. c #A2A177",
"2. c #A3A278",
"3. c #DED046",
"4. c #B39A81",
"5. c #BFA182",
"6. c #B7A191",
"7. c #BBA79A",
"8. c #CCA585",
"9. c #C3A88D",
"0. c #CDAB8A",
"q. c #D1AA89",
"w. c #CDB18F",
"e. c #C7AD96",
"r. c #C6AE9D",
"t. c #DAB794",
"y. c #DBB995",
"u. c #C1BFBF",
"i. c #E5C29D",
"p. c #F7EB94",
"a. c #EBC6A0",
"s. c #EFCBA4",
"d. c #EFCDAC",
"f. c #EFD0B6",
"g. c #F2D3B6",
"h. c #F0D2B9",
"j. c #C4C2C2",
"k. c #CDCDCD",
"l. c #DCDBDB",
"z. c #F2D8C5",
"x. c #F5DCCA",
"c. c #F9DFCD",
"v. c #E3E2E2",
"b. c None",
/* pixels */
"b.b.b.b.b.b.b.b.b.b.b.b.b.b.b.b.b.b.b.b.b.b.b.b.b.b.b.b.b.b.b.b.b.b.b.b.b.b.b.b.b.b.b.b.b.b.b.b.b.b.b.b.b.b.b.b.b.b.b.b.b.b.b.b.",
"b.b.b.b.b.b.b.b.b.b.b.b.b.b.b.b.b.b.b.b.b.b.b.b.b.b.b.b.b.b.b.b.b.b.b.b.b.b.b.b.b.b.b.b.b.b.b.b.b.b.b.b.b.b.b.b.b.b.b.b.b.b.b.b.",
"b.b.b.b.b.b.b.b.b.b.b.b.b.b.b.b.b.b.b.b.b.b.b.b.b.b.b.b.b.b.b.b.b.b.b.b.b.b.b.b.b.b.b.b.b.b.b.b.b.b.b.b.b.b.b.b.b.b.b.b.b.b.b.b.",
"b.b.b.b.b.b.b.b.b.b.b.b.b.b.b.b.b.b.b.b.b.b.b.b.b.b.b.b.b.b.b.b.b.b.b.b.b.b.b.b.b.b.b.b.b.b.b.b.b.b.b.b.b.b.b.b.b.b.b.b.b.b.b.b.",
"b.b.b.b.b.b.b.b.b.b.b.b.b.b.b.b.b.b.b.b.b.b.b.b.b.b.b.b.b.b.b.b.b.b.b.b.b.b.b.b.b.b.b.b.b.b.b.b.b.b.b.b.b.b.b.b.b.b.b.b.b.b.b.b.",
"b.b.b.b.b.b.b.b.b.b.b.b.b.b.b.b.b.b.b.b.b.b.b.b.b.b.b.b.b.b.b.b.b.b.b.b.b.b.b.b.b.b.b.b.b.b.b.b.b.b.b.b.b.b.b.b.b.b.b.b.b.b.b.b.",
"b.b.b.b.b.b.b.b.b.b.b.b.b.b.b.b.b.b.b.b.b.b.b.b.b.b.b.b.b.b.b.b.b.b.b.b.b.b.b.b.b.b.b.b.b.b.b.b.b.b.b.b.b.b.b.b.b.b.b.b.b.b.b.b.",
"b.b.b.b.b.b.b.b.b.b.b.b.b.b.b.b.b.b.b.b.b.b.b.b.b.b.b.b.b.b.b.X o o o o o o o o o o b.b.b.b.b.b.b.b.b.b.b.b.b.b.b.b.b.b.b.b.b.b.",
"b.b.b.b.b.b.b.b.b.b.b.b.b.b.b.b.b.b.b.b.b.b.b.b.b.b.b.b.b.X X O 1.2.2.%.+.+.[ 2.2.$.o o X b.b.b.b.b.b.b.b.b.b.b.b.b.b.b.b.b.b.b.",
"b.b.b.b.b.b.b.b.b.b.b.b.b.b.b.b.b.b.b.b.b.b.b.b.b.b.X + o 2.2.2.1.2.2.2.2.+.+.` +.` ` W m X X b.b.b.b.b.b.b.b.b.b.b.b.b.b.b.b.b.",
"b.b.b.b.b.b.b.b.b.b.b.b.b.b.b.b.b.b.b.b.b.b.b.b.b.o j 2.1.@.2.] +.2.2.%.+.+.+.+.n n ` ` W W X X b.b.b.b.b.b.b.b.b.b.b.b.b.b.b.b.",
"b.b.b.b.b.b.b.b.b.b.b.b.b.b.b.b.b.b.b.b.b.b.b.o o 2.+.2.+.2.2.2.2.2.1.+.' +.9 / +.` ` 9 B B C . X b.b.b.b.b.b.b.b.b.b.b.b.b.b.b.",
"b.b.b.b.b.b.b.b.b.b.b.b.b.b.b.b.b.b.b.b.b.b.X v #.+.+.2.2.2.2.#.+.+.O.+.+./ +.` ^ Q ! W U U V c o b.b.b.b.b.b.b.b.b.b.b.b.b.b.b.",
"b.b.b.b.b.b.b.b.b.b.b.b.b.b.b.b.b.b.b.b.b.o f ` +.+.+.+.+.o.+.+.+.+.+.] +.` ` ^ , ` W U V V 8 M o b.b.b.b.b.b.b.b.b.b.b.b.b.b.b.",
"b.b.b.b.b.b.b.b.b.b.b.b.b.b.b.b.b.b.b.b.o o V = V ` +.o.] ` ` ] +.+.~ W ` / W ` W W V V V m M m q o b.b.b.b.b.b.b.b.b.b.b.b.b.b.",
"b.b.b.b.b.b.b.b.b.b.b.b.b.b.b.b.b.b.b.b.o M Q C / / V V / ` ! V / / ` ` ! ` V 8 W V U W m V m 3., o b.b.b.b.b.b.b.b.b.b.b.b.b.b.",
"b.b.b.b.b.b.b.b.b.b.b.b.b.b.b.b.b.b.b.X q V C C V ! ` W ! ~ / ` / / / W W W C V W W m B B m c j X b.b.b.b.b.b.b.b.b.b.b.b.b.b.b.",
"b.b.b.b.b.b.b.b.b.b.b.b.b.b.b.b.b.b.b.X m 8 V B V W W W W W W W W 9 C W C C W V V N m m 8 p 5 o X b.b.b.b.b.b.b.b.b.b.b.b.b.b.b.",
"b.b.b.b.b.b.b.b.b.b.b.b.b.b.b.b.b.b.X & m B V W 8 8 8 U W W W W W W V V V V B m N m c p.x = o o 6.o b.b.b.b.b.b.b.b.b.b.b.b.b.b.",
"b.b.b.b.b.b.b.b.b.b.b.b.b.b.b.b.b.b.X q m M m V V V V V V V V V V V V V V M B m m j x = X . <.e.c.X b.b.b.b.b.b.b.b.b.b.b.b.b.b.",
"b.b.b.b.b.b.b.b.b.b.b.b.b.b.b.b.b.b.X c x V M V c m V V V V V m m m m V c c m c a j O O <.9.0.g.f.x.o b.b.b.b.b.b.b.b.b.b.b.b.b.",
"b.b.b.b.b.b.b.b.b.b.b.b.b.b.b.b.b.b.o c c m B m 9 m M m m m m x 8 c m m c x x p 9 . +   s.d.d.s.g.c.o b.b.b.b.b.b.b.b.b.b.b.b.b.",
"b.b.b.b.b.b.b.b.b.b.b.b.b.b.b.b.b.o q 8 V f q q p c m m m m Z c m c j i c c p.j o o : . s.s.d.d.s.d.X b.b.b.b.b.b.b.b.b.b.b.b.b.",
"b.b.b.b.b.b.b.b.b.b.b.b.b.b.b.b.b.o 8 i j q = q x 8 q q i j j y x q p.x 8 c : o o t t o w.s.s.q.d.d.o b.b.b.b.b.b.b.b.b.b.b.b.b.",
"b.b.b.b.b.b.b.b.b.b.b.b.b.b.b.b.b.b.o o 8 8 8 = 8 q q q j i p j 9 9 9 8 . X X y : t t X s.s.s.s.d.d.r.o b.b.b.b.b.b.b.b.b.b.b.b.",
"b.b.b.b.b.b.b.b.b.b.b.b.b.b.b.b.b.b.b.b.o X X X o o o o o o X o X X X . - - - i t t o X s.d.q.s.d.s.d.o b.b.b.b.b.b.b.b.b.b.b.b.",
"b.b.b.b.b.b.b.b.b.b.b.b.b.b.b.b.b.b.b.b.X @ - - - - y y y t t - - - - t t t t t t t # ( s.s.s.s.s.s.s.o b.b.b.b.b.b.b.b.b.b.b.b.",
"b.b.b.b.b.b.b.b.b.b.b.b.b.b.b.b.b.b.b.b.o : a t t Z t d s t t d t t u t d s i t t : X &.s.s.s.s.s.s.s.o b.b.b.b.b.b.b.b.b.b.b.b.",
"b.b.b.b.b.b.b.b.b.b.b.b.b.b.b.b.b.b.b.o t : a t t t Z d t t t t y t $ # : t t t t : X 5.s.y O s.s.s.i.o b.b.b.b.b.b.b.b.b.b.b.b.",
"b.b.b.b.b.b.b.b.b.b.b.b.b.b.b.b.b.b.b.o t t t t t t t t t t t i % o o   X X : t : : X s.O O O & :.s.8.o b.b.b.b.b.b.b.b.b.b.b.b.",
"b.b.b.b.b.b.b.b.b.b.b.b.b.b.b.b.b.b.b.o : t : i t t s t t a : t # >.  h.7.o & : : : o s.i.s.i.s.+ O i.# b.b.b.b.b.b.b.b.b.b.b.b.",
"b.b.b.b.b.b.b.b.b.b.b.b.b.b.b.b.b.b.b.b.X : t t t t t t t t : o >.0 +.R R h.X : t o ,.s.o o o o o s.+ o b.b.b.b.b.b.b.b.b.b.b.b.",
"b.b.b.b.b.b.b.b.b.b.b.b.b.b.b.b.b.b.b.b.o ; : : t : t t : : X X 4.# y.s.d.f.X ; @ f d.y.j.k.v.j l o s.o b.b.b.b.b.b.b.b.b.b.b.b.",
"b.b.b.b.b.b.b.b.b.b.b.b.b.b.b.b.b.b.b.b.o t : u : : u : : X X ,.s.s.o y.E s.o o o <.s.s.j.k.v.k # 7 o o b.b.b.b.b.b.b.b.b.b.b.b.",
"b.b.b.b.b.b.b.b.b.b.b.b.b.b.b.b.b.b.b.b.o t t ; t t t o o -.,.s.s.a.o o =.8.o # | s.a.s.# k.v.z I 7 o o b.b.b.b.b.b.b.b.b.b.b.b.",
"b.b.b.b.b.b.b.b.b.b.b.b.b.b.b.b.b.b.b.b.. : : : : : o o &.w.s.s.s.s.s.T o o s.a.y.s.s.s.X u.l.v.v.k.o o b.b.b.b.b.b.b.b.b.b.b.b.",
"b.b.b.b.b.b.b.b.b.b.b.b.b.b.b.b.b.b.b.b.X * y : t X X *.s.a.s.s.s.s.s.s.s.s._ o # X o a.s.# u.u.j.o y.X b.b.b.b.b.b.b.b.b.b.b.b.",
"b.b.b.b.b.b.b.b.b.b.b.b.b.b.b.b.b.b.b.b.b.X : : : X *.y.i.s.y.y.a.s.s.s.s.s.o s } J D o o i.6 o 6 y.Y o b.b.b.b.b.b.b.b.b.b.b.b.",
"b.b.b.b.b.b.b.b.b.b.b.b.b.b.b.b.b.b.b.b.b.. X : X X.8.y.y.s.d.y.s.y.a.s.s.s.o s h D } D E o X o o o p o b.b.b.b.b.b.b.b.b.b.b.b.",
"b.b.b.b.b.b.b.b.b.b.b.b.b.b.b.b.b.b.b.b.b.b.X # X X.8.8.8.y.y.a.s.s.y.y.y.( ; a h a A L } h A S G J D X b.b.b.b.b.b.b.b.b.b.b.b.",
"b.b.b.b.b.b.b.b.b.b.b.b.b.b.b.b.b.b.b.b.b.b.b.o b.X X.8.8.t.8.y.y.t.y.y.y.o o a t s a d } d d d D E * X b.b.b.b.b.b.b.b.b.b.b.b.",
"b.b.b.b.b.b.b.b.b.b.b.b.b.b.b.b.b.b.b.b.b.b.b.b.b.b.X X X 8.8.8.q.y.y.t.y.y.o t s d d a H a D a D } X o b.b.b.b.b.b.b.b.b.b.b.b.",
"b.b.b.b.b.b.b.b.b.b.b.b.b.b.b.b.b.b.b.b.b.b.b.b.b.b.b.b.b.X X o o ) 8.8.8.8.o o i t a a d E d d a a o b.b.b.b.b.b.b.b.b.b.b.b.b.",
"b.b.b.b.b.b.b.b.b.b.b.b.b.b.b.b.b.b.b.b.b.b.b.b.b.b.b.b.b.X m W ` o o X o o o o t t a t a y a y y X o b.b.b.b.b.b.b.b.b.b.b.b.b.",
"b.b.b.b.b.b.b.b.b.b.b.b.b.b.b.b.b.b.b.b.b.b.b.b.b.b.b.b.b.X m C U ` / o ! X o > o o t y a t o * X o b.b.b.b.b.b.b.b.b.b.b.b.b.b.",
"b.b.b.b.b.b.b.b.b.b.b.b.b.b.b.b.b.b.b.b.b.b.b.b.b.b.b.b.X q V U U ! ~ o ] ] o X 2 & o o X X X X X b.b.b.b.b.b.b.b.b.b.b.b.b.b.b.",
"b.b.b.b.b.b.b.b.b.b.b.b.b.b.b.b.b.b.b.b.b.b.b.b.b.b.b.b.X N C B W U W o V ] o / o 2 r r X o b.b.b.b.b.b.b.b.b.b.b.b.b.b.b.b.b.b.",
"b.b.b.b.b.b.b.b.b.b.b.b.b.b.b.b.b.b.b.b.b.b.b.b.b.b.b.b.X C M V W C 9 > V ~ o U Q X & X m o b.b.b.b.b.b.b.b.b.b.b.b.b.b.b.b.b.b.",
"b.b.b.b.b.b.b.b.b.b.b.b.b.b.b.b.b.b.b.b.b.b.b.b.b.b.b.b.X X m C C W X n B C m o W V o 8 o o b.b.b.b.b.b.b.b.b.b.b.b.b.b.b.b.b.b.",
"b.b.b.b.b.b.b.b.b.b.b.b.b.b.b.b.b.b.b.b.b.b.b.b.b.b.b.o # K X X X X X m m m n o o o o X K & o b.b.b.b.b.b.b.b.b.b.b.b.b.b.b.b.b.",
"b.b.b.b.b.b.b.b.b.b.b.b.b.b.b.b.b.b.b.b.b.b.b.b.b.b.b.o X o o S { { X o X o o o L g 3 X o o o b.b.b.b.b.b.b.b.b.b.b.b.b.b.b.b.b.",
"b.b.b.b.b.b.b.b.b.b.b.b.b.b.b.b.b.b.b.b.b.b.b.b.b.b.b.o 8 m V o X X X y.c.h.t.f X X & V q q X b.b.b.b.b.b.b.b.b.b.b.b.b.b.b.b.b.",
"b.b.b.b.b.b.b.b.b.b.b.b.b.b.b.b.b.b.b.b.b.b.b.b.b.b.b.o 8 x m m C q -.s.f.f.a.8.o m m m c q X b.b.b.b.b.b.b.b.b.b.b.b.b.b.b.b.b.",
"b.b.b.b.b.b.b.b.b.b.b.b.b.b.b.b.b.b.b.b.b.b.b.b.b.b.b.o , q m m B V X 8.s.a.t.o m m m q x 8 X b.b.b.b.b.b.b.b.b.b.b.b.b.b.b.b.b.",
"b.b.b.b.b.b.b.b.b.b.b.b.b.b.b.b.b.b.b.b.b.b.b.b.b.b.b.o , q m q q q X o 8.8.X X m m q q 8 4 o b.b.b.b.b.b.b.b.b.b.b.b.b.b.b.b.b.",
"b.b.b.b.b.b.b.b.b.b.b.b.b.b.b.b.b.b.b.b.b.b.b.b.b.b.b.o X X o o o , 8 o . X 9 q , & o o o o o b.b.b.b.b.b.b.b.b.b.b.b.b.b.b.b.b.",
"b.b.b.b.b.b.b.b.b.b.b.b.b.b.b.b.b.b.b.b.b.b.b.b.b.b.b.b.b.b.X o o o X e X o o o o o X X b.b.b.b.b.b.b.b.b.b.b.b.b.b.b.b.b.b.b.b.",
"b.b.b.b.b.b.b.b.b.b.b.b.b.b.b.b.b.b.b.b.b.b.b.b.b.b.b.b.b.b.o 1 1 1 1 X X X < < 1 o P o b.b.b.b.b.b.b.b.b.b.b.b.b.b.b.b.b.b.b.b.",
"b.b.b.b.b.b.b.b.b.b.b.b.b.b.b.b.b.b.b.b.b.b.b.b.b.b.b.b.b.b.o 1 < < X < w X X X o o o o b.b.b.b.b.b.b.b.b.b.b.b.b.b.b.b.b.b.b.b.",
"b.b.b.b.b.b.b.b.b.b.b.b.b.b.b.b.b.b.b.b.b.b.b.b.b.b.b.b.b.b.o o o o o o X X b.b.b.b.b.b.b.b.b.b.b.b.b.b.b.b.b.b.b.b.b.b.b.b.b.b.",
"b.b.b.b.b.b.b.b.b.b.b.b.b.b.b.b.b.b.b.b.b.b.b.b.b.b.b.b.b.b.b.b.b.b.b.b.b.b.b.b.b.b.b.b.b.b.b.b.b.b.b.b.b.b.b.b.b.b.b.b.b.b.b.b.",
"b.b.b.b.b.b.b.b.b.b.b.b.b.b.b.b.b.b.b.b.b.b.b.b.b.b.b.b.b.b.b.b.b.b.b.b.b.b.b.b.b.b.b.b.b.b.b.b.b.b.b.b.b.b.b.b.b.b.b.b.b.b.b.b.",
"b.b.b.b.b.b.b.b.b.b.b.b.b.b.b.b.b.b.b.b.b.b.b.b.b.b.b.b.b.b.b.b.b.b.b.b.b.b.b.b.b.b.b.b.b.b.b.b.b.b.b.b.b.b.b.b.b.b.b.b.b.b.b.b.",
"b.b.b.b.b.b.b.b.b.b.b.b.b.b.b.b.b.b.b.b.b.b.b.b.b.b.b.b.b.b.b.b.b.b.b.b.b.b.b.b.b.b.b.b.b.b.b.b.b.b.b.b.b.b.b.b.b.b.b.b.b.b.b.b."
};
