/* XPM */
static char *result[] = {
/* columns rows colors chars-per-pixel */
"64 64 137 2 ",
"   c #151412",
".  c #181716",
"X  c #1A1917",
"o  c #1B1A18",
"O  c #221713",
"+  c #241D19",
"@  c #301F17",
"#  c #25211E",
"$  c #2F211A",
"%  c #2C2C1F",
"&  c #342017",
"*  c #32221A",
"=  c #3D261C",
"-  c #3D281E",
";  c #232220",
":  c #282521",
">  c #2D2C23",
",  c #26272D",
"<  c #27282E",
"1  c #2F2D2C",
"2  c #322D26",
"3  c #3B2C24",
"4  c #203D27",
"5  c #313121",
"6  c #3A3A27",
"7  c #363329",
"8  c #3D3D28",
"9  c #2C2D35",
"0  c #323131",
"q  c #34353A",
"w  c gray22",
"e  c #40271D",
"r  c #462B1F",
"t  c #462E21",
"y  c #4B2E21",
"u  c #4D3224",
"i  c #4B332A",
"p  c #42382F",
"a  c #543525",
"s  c #583727",
"d  c #573829",
"f  c #5E3C2A",
"g  c #4D3D31",
"h  c #5B3C30",
"j  c #603D2B",
"k  c #2A5434",
"l  c #44442C",
"z  c #48492F",
"x  c #5F5C2C",
"c  c #474831",
"v  c #4B4C31",
"b  c #4E4E3C",
"n  c #52483C",
"m  c #4F5135",
"M  c #515336",
"N  c #545639",
"B  c #55583A",
"V  c #5A5C3E",
"C  c #65412E",
"Z  c #6A452F",
"A  c #6E4731",
"S  c #6C4A37",
"D  c #734D37",
"F  c #373943",
"G  c #356E45",
"H  c #367046",
"J  c #5D5F41",
"K  c #605345",
"L  c #6C5E4E",
"P  c #7B5C47",
"I  c #5E6042",
"U  c #626444",
"Y  c #666946",
"T  c #6C6E4A",
"R  c #6F714D",
"E  c #72744F",
"W  c #716351",
"Q  c #7E6A55",
"!  c #737550",
"~  c #7A7C56",
"^  c #777658",
"/  c #855843",
"(  c #8D5D46",
")  c #825E4A",
"_  c #8A7761",
"`  c #928A32",
"'  c #B1A636",
"]  c #81825B",
"[  c #8C8C64",
"{  c #8F8F68",
"}  c #9C846B",
"|  c #93936A",
" . c #98976E",
".. c #9E9D74",
"X. c #A1866E",
"o. c #A58B70",
"O. c #A09F75",
"+. c #BC9477",
"@. c #B29679",
"#. c #B39A7C",
"$. c #B99D7F",
"%. c #A2A177",
"&. c #A3A278",
"*. c #C29C7E",
"=. c #C7BF79",
"-. c #DFD14A",
";. c #9B9999",
":. c #B39A81",
">. c #BAA086",
",. c #BBA79A",
"<. c #B1B8B2",
"1. c #CCA585",
"2. c #CFAA8A",
"3. c #D9B492",
"4. c #DBB895",
"5. c #DFBD98",
"6. c #E2BF9A",
"7. c #C1BFBF",
"8. c #E6C39D",
"9. c #E9C49E",
"0. c #F7EB94",
"q. c #E8C6A0",
"w. c #EFCBA4",
"e. c #EFCDAC",
"r. c #EFCDB0",
"t. c #EFD0B6",
"y. c #F1D1B2",
"u. c #F2D4BB",
"i. c #CCCCCC",
"p. c #D3D2D2",
"a. c #DCDCDC",
"s. c #F3D7C0",
"d. c #F5D9C5",
"f. c #F4DBC9",
"g. c #F9DECC",
"h. c #E3E2E2",
"j. c None",
/* pixels */
"j.j.j.j.j.j.j.j.j.j.j.j.j.j.j.j.j.j.j.j.j.j.j.j.j.j.j.j.j.j.j.j.j.j.j.j.j.j.j.j.j.j.j.j.j.j.j.j.j.j.j.j.j.j.j.j.j.j.j.j.j.j.j.j.",
"j.j.j.j.j.j.j.j.j.j.j.j.j.j.j.j.j.j.j.j.j.j.j.j.j.j.j.j.j.j.j.j.j.j.j.j.j.j.j.j.j.j.j.j.j.j.j.j.j.j.j.j.j.j.j.j.j.j.j.j.j.j.j.j.",
"j.j.j.j.j.j.j.j.j.j.j.j.j.j.j.j.j.j.j.j.j.j.j.j.j.j.j.j.j.j.j.j.j.j.j.j.j.j.j.j.j.j.j.j.j.j.j.j.j.j.j.j.j.j.j.j.j.j.j.j.j.j.j.j.",
"j.j.j.j.j.j.j.j.j.j.j.j.j.j.j.j.j.j.j.j.j.j.j.j.j.j.j.j.j.j.j.j.j.j.j.j.j.j.j.j.j.j.j.j.j.j.j.j.j.j.j.j.j.j.j.j.j.j.j.j.j.j.j.j.",
"j.j.j.j.j.j.j.j.j.j.j.j.j.j.j.j.j.j.j.j.j.j.j.j.j.j.j.j.j.j.j.j.j.j.j.j.j.j.j.j.j.j.j.j.j.j.j.j.j.j.j.j.j.j.j.j.j.j.j.j.j.j.j.j.",
"j.j.j.j.j.j.j.j.j.j.j.j.j.j.j.j.j.j.j.j.j.j.j.j.j.j.j.j.j.j.j.j.j.j.j.j.j.j.j.j.j.j.j.j.j.j.j.j.j.j.j.j.j.j.j.j.j.j.j.j.j.j.j.j.",
"j.j.j.j.j.j.j.j.j.j.j.j.j.j.j.j.j.j.j.j.j.j.j.j.j.j.j.j.j.j.j.j.j.j.j.j.j.j.j.j.j.j.j.j.j.j.j.j.j.j.j.j.j.j.j.j.j.j.j.j.j.j.j.j.",
"j.j.j.j.j.j.j.j.j.j.j.j.j.j.j.j.j.j.j.j.j.j.j.j.j.j.j.j.j.j.j.o o o o o o o o o j.j.j.j.j.j.j.j.j.j.j.j.j.j.j.j.j.j.j.j.j.j.j.j.",
"j.j.j.j.j.j.j.j.j.j.j.j.j.j.j.j.j.j.j.j.j.j.j.j.j.j.j.j.X o o X &.&.| &.&.&. .b X X X j.j.j.j.j.j.j.j.j.j.j.j.j.j.j.j.j.j.j.j.j.",
"j.j.j.j.j.j.j.j.j.j.j.j.j.j.j.j.j.j.j.j.j.j.j.j.j.j.o o ^ &.&.%.&.&.&.&.&.%.{ { [ %.7 X o j.j.j.j.j.j.j.j.j.j.j.j.j.j.j.j.j.j.j.",
"j.j.j.j.j.j.j.j.j.j.j.j.j.j.j.j.j.j.j.j.j.j.j.j.o o &.&.| %.[ E &.&.&.[ [ [ [ [ U Y ! I N o j.j.j.j.j.j.j.j.j.j.j.j.j.j.j.j.j.j.",
"j.j.j.j.j.j.j.j.j.j.j.j.j.j.j.j.j.j.j.j.j.j.o o %.[ &.&.[ &.&.%.| &.[ [ [ [ ~ ! I E R I z 6 o j.j.j.j.j.j.j.j.j.j.j.j.j.j.j.j.j.",
"j.j.j.j.j.j.j.j.j.j.j.j.j.j.j.j.j.j.j.j.j.o o %.[ [ &.&.%.&.&...[ [ Y [ 7 E { ! Y E B I B B v o j.j.j.j.j.j.j.j.j.j.j.j.j.j.j.j.",
"j.j.j.j.j.j.j.j.j.j.j.j.j.j.j.j.j.j.j.j.o 5 ! [ [ [ [ [ [ [ [ [ [ [ ] ! [ ! ! ! 8 E I B I B v o j.j.j.j.j.j.j.j.j.j.j.j.j.j.j.j.",
"j.j.j.j.j.j.j.j.j.j.j.j.j.j.j.j.j.j.j.o o B U B E [ ~ ! ! ! ! ! [ [ ] T E R I 5 I I B B B z v 6 o j.j.j.j.j.j.j.j.j.j.j.j.j.j.j.",
"j.j.j.j.j.j.j.j.j.j.j.j.j.j.j.j.j.j.j.o v J B ! ! B B B ! ! Y B U ! ! ! E E M V I B B 5 v m =.8 o j.j.j.j.j.j.j.j.j.j.j.j.j.j.j.",
"j.j.j.j.j.j.j.j.j.j.j.j.j.j.j.j.j.j.o 5 B B J V U E J E E E ! ! ! E ! V I N I B V U z N B z ' 5 o j.j.j.j.j.j.j.j.j.j.j.j.j.j.j.",
"j.j.j.j.j.j.j.j.j.j.j.j.j.j.j.j.j.j.X v > B B B V U U V U U I V J I z I J B I V M 5 v v l 5 5 X j.j.j.j.j.j.j.j.j.j.j.j.j.j.j.j.",
"j.j.j.j.j.j.j.j.j.j.j.j.j.j.j.j.j.o 6 v B B I l 5 5 U U V V V I I I B J B B M m 5 z B 5 8 5 X X o j.j.j.j.j.j.j.j.j.j.j.j.j.j.j.",
"j.j.j.j.j.j.j.j.j.j.j.j.j.j.j.j.j.o z v m z B B N N N B N B B N B B B B z M N z C k ` % X X ,.s.o j.j.j.j.j.j.j.j.j.j.j.j.j.j.j.",
"j.j.j.j.j.j.j.j.j.j.j.j.j.j.j.j.j.X v N N z B m z B B B N N x M v v v N N v v l % 5 X X #.#.y.g.o j.j.j.j.j.j.j.j.j.j.j.j.j.j.j.",
"j.j.j.j.j.j.j.j.j.j.j.j.j.j.j.j.X 8 v z z M z 6 M M M z m z m z 5 z v z z l z 6 % X   >.e.y.e.e.f.o j.j.j.j.j.j.j.j.j.j.j.j.j.j.",
"j.j.j.j.j.j.j.j.j.j.j.j.j.j.j.j.X k 5 N l 8 8 8 z z v z z v v z z v z k 8 0.5 % X = X w.y.e.w.e.g.o j.j.j.j.j.j.j.j.j.j.j.j.j.j.",
"j.j.j.j.j.j.j.j.j.j.j.j.j.j.j.j.X t 8 8 6 8 8 8 5 6 l 6 u k 8 p k u l - z x X X & r X w.w.w.e.e.u.o j.j.j.j.j.j.j.j.j.j.j.j.j.j.",
"j.j.j.j.j.j.j.j.j.j.j.j.j.j.j.j.j.+ X o % % 5 5 p k t u k t l l t -.k = O o o & r e o w.w.w.q.y.e.o j.j.j.j.j.j.j.j.j.j.j.j.j.j.",
"j.j.j.j.j.j.j.j.j.j.j.j.j.j.j.j.j.j.  @ o o o o X X X X X X X X X O X X @ r & r r e o w.w.w.w.w.e.o j.j.j.j.j.j.j.j.j.j.j.j.j.j.",
"j.j.j.j.j.j.j.j.j.j.j.j.j.j.j.j.j.j.X e = @ & & & t t t r t = & & & & & r r r r e X w.w.w.w.w.w.w.L o j.j.j.j.j.j.j.j.j.j.j.j.j.",
"j.j.j.j.j.j.j.j.j.j.j.j.j.j.j.j.j.j.o r r r r r f r C t r r a r e = C r r r r C = X w.w.9.w.w.w.w.8.o j.j.j.j.j.j.j.j.j.j.j.j.j.",
"j.j.j.j.j.j.j.j.j.j.j.j.j.j.j.j.j.j.o r = f r r a C C r r = f r r = - r e y u r = o w.w.w.w.w.w.e.8.X j.j.j.j.j.j.j.j.j.j.j.j.j.",
"j.j.j.j.j.j.j.j.j.j.j.j.j.j.j.j.j.j.o r = r r r r r r r = r = * X o o X r = r e = o w.g O O * w.e.8.X j.j.j.j.j.j.j.j.j.j.j.j.j.",
"j.j.j.j.j.j.j.j.j.j.j.j.j.j.j.j.j.j.o r r r r r r a r r r = $ X }   ,.X X e e = o n w.+ w.3 O w.w.4.X j.j.j.j.j.j.j.j.j.j.j.j.j.",
"j.j.j.j.j.j.j.j.j.j.j.j.j.j.j.j.j.j.o e r = r r r r r r = r . #.o g.P s.X & = = o :.w.) X X w.c Q 4.o j.j.j.j.j.j.j.j.j.j.j.j.j.",
"j.j.j.j.j.j.j.j.j.j.j.j.j.j.j.j.j.j.. = e r @ t = = t = e X @.w.o 4.t.P 1 o = o +.w.. ;.i.a.1 . w.O o j.j.j.j.j.j.j.j.j.j.j.j.j.",
"j.j.j.j.j.j.j.j.j.j.j.j.j.j.j.j.j.j.j.+ e y e = t t = = X _ $.q.o 4.w.P 2.o = o w.w.o 7.i.h.G 4 o 4.o j.j.j.j.j.j.j.j.j.j.j.j.j.",
"j.j.j.j.j.j.j.j.j.j.j.j.j.j.j.j.j.j.o @ = = t t t = o o +.@.w.w.#.. 4.4.o 2 o o.w.w.X 7.i.h.H O <.o o j.j.j.j.j.j.j.j.j.j.j.j.j.",
"j.j.j.j.j.j.j.j.j.j.j.j.j.j.j.j.j.j.j.o = = = = @ o #.@.w.w.w.w.w.J o o X e.#.4.1.w.X 7.h.h.k k p.o o j.j.j.j.j.j.j.j.j.j.j.j.j.",
"j.j.j.j.j.j.j.j.j.j.j.j.j.j.j.j.j.j.j.o = = = = + #.4.6.w.w.w.w.w.w.w.w.w.+ o L w.w.w.X i.a.a.i.o 2.o j.j.j.j.j.j.j.j.j.j.j.j.j.",
"j.j.j.j.j.j.j.j.j.j.j.j.j.j.j.j.j.j.j.o + = = o o.4.w.w.4.4.w.w.w.w.w.w.W o P t o o w.w.  # o o 2.+.o j.j.j.j.j.j.j.j.j.j.j.j.j.",
"j.j.j.j.j.j.j.j.j.j.j.j.j.j.j.j.j.j.j.j.o = . @ >.4.4.4.8.q.w.4.e.w.w.w.o t A A A A o o # w.4.$.. o o j.j.j.j.j.j.j.j.j.j.j.j.j.",
"j.j.j.j.j.j.j.j.j.j.j.j.j.j.j.j.j.j.j.j.j.o o   1.1.2.3.4.9.w.4.w.w.6.4.o f f a ) A ) P o o o + D i o j.j.j.j.j.j.j.j.j.j.j.j.j.",
"j.j.j.j.j.j.j.j.j.j.j.j.j.j.j.j.j.j.j.j.j.. j.o o *.1.4.1.4.4.4.6.w.4.4.o r s f f f A A A A j o A - o j.j.j.j.j.j.j.j.j.j.j.j.j.",
"j.j.j.j.j.j.j.j.j.j.j.j.j.j.j.j.j.j.j.j.j.j.j.j.o o o 1.1.1.2.4.4.4.4.4.o r f f f a S a C f D j s o j.j.j.j.j.j.j.j.j.j.j.j.j.j.",
"j.j.j.j.j.j.j.j.j.j.j.j.j.j.j.j.j.j.j.j.j.j.j.j.j.j.j.o X o 7 3.1.1.1.1.o r t a a a ) f Z A Z ) r o j.j.j.j.j.j.j.j.j.j.j.j.j.j.",
"j.j.j.j.j.j.j.j.j.j.j.j.j.j.j.j.j.j.j.j.j.j.j.j.j.j.j.o z J 7 . X o o X p o s t a t s a s j a s o o j.j.j.j.j.j.j.j.j.j.j.j.j.j.",
"j.j.j.j.j.j.j.j.j.j.j.j.j.j.j.j.j.j.j.j.j.j.j.j.j.j.j.o v I I ! E o 7 X X o . - t r t t y r r o o j.j.j.j.j.j.j.j.j.j.j.j.j.j.j.",
"j.j.j.j.j.j.j.j.j.j.j.j.j.j.j.j.j.j.j.j.j.j.j.j.j.j.j.o v I I R 8 o ~ o [ o 0 o o r . t o o o o j.j.j.j.j.j.j.j.j.j.j.j.j.j.j.j.",
"j.j.j.j.j.j.j.j.j.j.j.j.j.j.j.j.j.j.j.j.j.j.j.j.j.j.o z m B I J o m T o N R o 0 w o o o j.o j.j.j.j.j.j.j.j.j.j.j.j.j.j.j.j.j.j.",
"j.j.j.j.j.j.j.j.j.j.j.j.j.j.j.j.j.j.j.j.j.j.j.j.j.j.o m v B I + o N T o J I J o 1 0 o o j.j.j.j.j.j.j.j.j.j.j.j.j.j.j.j.j.j.j.j.",
"j.j.j.j.j.j.j.j.j.j.j.j.j.j.j.j.j.j.j.j.j.j.j.j.j.j.o 5 v B B o m B Y o J J I B o X z o j.j.j.j.j.j.j.j.j.j.j.j.j.j.j.j.j.j.j.j.",
"j.j.j.j.j.j.j.j.j.j.j.j.j.j.j.j.j.j.j.j.j.j.j.j.j.j.o + o o o o v M B o J J V m o X + 3 o j.j.j.j.j.j.j.j.j.j.j.j.j.j.j.j.j.j.j.",
"j.j.j.j.j.j.j.j.j.j.j.j.j.j.j.j.j.j.j.j.j.j.j.j.j.o o o i ( o } o o o o X X X X / h o o o j.j.j.j.j.j.j.j.j.j.j.j.j.j.j.j.j.j.j.",
"j.j.j.j.j.j.j.j.j.j.j.j.j.j.j.j.j.j.j.j.j.j.j.j.j.o 5 v o o 9.w.g.e.4.o X X X X o o > 8 o j.j.j.j.j.j.j.j.j.j.j.j.j.j.j.j.j.j.j.",
"j.j.j.j.j.j.j.j.j.j.j.j.j.j.j.j.j.j.j.j.j.j.j.j.j.o > z v X 1.w.t.w.4.. N z M N v v 8 8 o j.j.j.j.j.j.j.j.j.j.j.j.j.j.j.j.j.j.j.",
"j.j.j.j.j.j.j.j.j.j.j.j.j.j.j.j.j.j.j.j.j.j.j.j.j.o 5 8 v X X.4.w.w.1.o N V m v v v v 5 o j.j.j.j.j.j.j.j.j.j.j.j.j.j.j.j.j.j.j.",
"j.j.j.j.j.j.j.j.j.j.j.j.j.j.j.j.j.j.j.j.j.j.j.j.j.o 5 8 z l o o 1.1.o c z z z N C k 8 5 o j.j.j.j.j.j.j.j.j.j.j.j.j.j.j.j.j.j.j.",
"j.j.j.j.j.j.j.j.j.j.j.j.j.j.j.j.j.j.j.j.j.j.j.j.j.o o o o 5 5 6 o o 8 8 8 M l 6 6 o 5 o o j.j.j.j.j.j.j.j.j.j.j.j.j.j.j.j.j.j.j.",
"j.j.j.j.j.j.j.j.j.j.j.j.j.j.j.j.j.j.j.j.j.j.j.j.j.j.j.j.o o o o o o . o o o o o o j.o o j.j.j.j.j.j.j.j.j.j.j.j.j.j.j.j.j.j.j.j.",
"j.j.j.j.j.j.j.j.j.j.j.j.j.j.j.j.j.j.j.j.j.j.j.j.j.j.j.j.j.o o 9 9 9 9 o o o o j.j.j.j.j.j.j.j.j.j.j.j.j.j.j.j.j.j.j.j.j.j.j.j.j.",
"j.j.j.j.j.j.j.j.j.j.j.j.j.j.j.j.j.j.j.j.j.j.j.j.j.j.j.j.j.j.o < 9 q o , 9 o F o j.j.j.j.j.j.j.j.j.j.j.j.j.j.j.j.j.j.j.j.j.j.j.j.",
"j.j.j.j.j.j.j.j.j.j.j.j.j.j.j.j.j.j.j.j.j.j.j.j.j.j.j.j.j.j.o o o o o o o o o o j.j.j.j.j.j.j.j.j.j.j.j.j.j.j.j.j.j.j.j.j.j.j.j.",
"j.j.j.j.j.j.j.j.j.j.j.j.j.j.j.j.j.j.j.j.j.j.j.j.j.j.j.j.j.j.o j.j.j.j.j.j.j.j.j.j.j.j.j.j.j.j.j.j.j.j.j.j.j.j.j.j.j.j.j.j.j.j.j.",
"j.j.j.j.j.j.j.j.j.j.j.j.j.j.j.j.j.j.j.j.j.j.j.j.j.j.j.j.j.j.j.j.j.j.j.j.j.j.j.j.j.j.j.j.j.j.j.j.j.j.j.j.j.j.j.j.j.j.j.j.j.j.j.j.",
"j.j.j.j.j.j.j.j.j.j.j.j.j.j.j.j.j.j.j.j.j.j.j.j.j.j.j.j.j.j.j.j.j.j.j.j.j.j.j.j.j.j.j.j.j.j.j.j.j.j.j.j.j.j.j.j.j.j.j.j.j.j.j.j.",
"j.j.j.j.j.j.j.j.j.j.j.j.j.j.j.j.j.j.j.j.j.j.j.j.j.j.j.j.j.j.j.j.j.j.j.j.j.j.j.j.j.j.j.j.j.j.j.j.j.j.j.j.j.j.j.j.j.j.j.j.j.j.j.j."
};
