/* XPM */
static char *result[] = {
/* columns rows colors chars-per-pixel */
"64 64 142 2 ",
"   c #11110F",
".  c #151412",
"X  c #1A1917",
"o  c #1B1A18",
"O  c #221712",
"+  c #241B15",
"@  c #241D19",
"#  c #291F19",
"$  c #301F17",
"%  c #1D241C",
"&  c #22211B",
"*  c #28231D",
"=  c #212B1F",
"-  c #2B2B1E",
";  c #342017",
":  c #32221A",
">  c #3D261C",
",  c #39281E",
"<  c #1F3C26",
"1  c #202022",
"2  c #292521",
"3  c #2D2D22",
"4  c #232429",
"5  c #27282E",
"6  c #203A26",
"7  c #213F28",
"8  c #313121",
"9  c #383725",
"0  c #373825",
"q  c #3C3C27",
"w  c #373729",
"e  c #3A342E",
"r  c #3D3D28",
"t  c #2D2E35",
"y  c #353535",
"u  c #34353A",
"i  c #393939",
"p  c #40271D",
"a  c #462B1F",
"s  c #472E20",
"d  c #492D20",
"f  c #453125",
"g  c #4D3022",
"h  c #40382F",
"j  c #543525",
"k  c #583827",
"l  c #54372C",
"z  c #54382D",
"x  c #5D3C2A",
"c  c #613F2B",
"v  c #274E30",
"b  c #295332",
"n  c #43432C",
"m  c #46482F",
"M  c #48492F",
"N  c #4B4C31",
"B  c #4D4339",
"V  c #554134",
"C  c #4F5135",
"Z  c #515236",
"A  c #545639",
"S  c #55583A",
"D  c #595C3E",
"F  c #64402E",
"G  c #624133",
"H  c #6E4731",
"J  c #6E4934",
"K  c #734D37",
"L  c #734C3A",
"P  c #484746",
"I  c #4F4E4D",
"U  c #5C5E41",
"Y  c #7C5C47",
"T  c #745F4C",
"R  c #5E6042",
"E  c #626444",
"W  c #66654D",
"Q  c #6B6D4A",
"!  c #6F714D",
"~  c #72744F",
"^  c #737550",
"/  c #777953",
"(  c #7A7C54",
")  c #7E7F59",
"_  c #7D7168",
"`  c #825E4A",
"'  c #87755E",
"]  c #88745F",
"[  c #8C7662",
"{  c #937B64",
"}  c #997C64",
"|  c #7F805A",
" . c #918A35",
".. c #81815B",
"X. c #8C8C64",
"o. c #919168",
"O. c #99996F",
"+. c #9C9C72",
"@. c #A3846C",
"#. c #A48A70",
"$. c #AA9175",
"%. c #A09F75",
"&. c #BC9477",
"*. c #B3977A",
"=. c #B3997C",
"-. c #A2A177",
";. c #A3A278",
":. c #869289",
">. c #AF9A8B",
",. c #B39A81",
"<. c #BBA79A",
"1. c #CCA585",
"2. c #CEA887",
"3. c #C6A788",
"4. c #D2AD8C",
"5. c #D4B08E",
"6. c #D4B291",
"7. c #D9B693",
"8. c #DBB895",
"9. c #E0BA97",
"0. c #E2BF9A",
"q. c #C1BFBF",
"w. c #E7C39E",
"e. c #E9C49F",
"r. c #F1E583",
"t. c #F6EA92",
"y. c #E5C5A6",
"u. c #ECC7A1",
"i. c #EFCBA4",
"p. c #EFCDAC",
"a. c #EFCFB1",
"s. c #E5CDBC",
"d. c #F0CFB0",
"f. c #EFD0B6",
"g. c #F1D2B5",
"h. c #C2C0C0",
"j. c #CDCDCD",
"k. c #D8D7D7",
"l. c #F4D7C1",
"z. c #F9DFCD",
"x. c #E3E2E2",
"c. c None",
/* pixels */
"c.c.c.c.c.c.c.c.c.c.c.c.c.c.c.c.c.c.c.c.c.c.c.c.c.c.c.c.c.c.c.c.c.c.c.c.c.c.c.c.c.c.c.c.c.c.c.c.c.c.c.c.c.c.c.c.c.c.c.c.c.c.c.c.",
"c.c.c.c.c.c.c.c.c.c.c.c.c.c.c.c.c.c.c.c.c.c.c.c.c.c.c.c.c.c.c.c.c.c.c.c.c.c.c.c.c.c.c.c.c.c.c.c.c.c.c.c.c.c.c.c.c.c.c.c.c.c.c.c.",
"c.c.c.c.c.c.c.c.c.c.c.c.c.c.c.c.c.c.c.c.c.c.c.c.c.c.c.c.c.c.c.c.c.c.c.c.c.c.c.c.c.c.c.c.c.c.c.c.c.c.c.c.c.c.c.c.c.c.c.c.c.c.c.c.",
"c.c.c.c.c.c.c.c.c.c.c.c.c.c.c.c.c.c.c.c.c.c.c.c.c.c.c.c.c.c.c.c.c.c.c.c.c.c.c.c.c.c.c.c.c.c.c.c.c.c.c.c.c.c.c.c.c.c.c.c.c.c.c.c.",
"c.c.c.c.c.c.c.c.c.c.c.c.c.c.c.c.c.c.c.c.c.c.c.c.c.c.c.c.c.c.c.c.c.c.c.c.c.c.c.c.c.c.c.c.c.c.c.c.c.c.c.c.c.c.c.c.c.c.c.c.c.c.c.c.",
"c.c.c.c.c.c.c.c.c.c.c.c.c.c.c.c.c.c.c.c.c.c.c.c.c.c.c.c.c.c.c.c.c.c.c.c.c.c.c.c.c.c.c.c.c.c.c.c.c.c.c.c.c.c.c.c.c.c.c.c.c.c.c.c.",
"c.c.c.c.c.c.c.c.c.c.c.c.c.c.c.c.c.c.c.c.c.c.c.c.c.c.c.c.c.c.c.c.c.c.c.c.c.c.c.c.c.c.c.c.c.c.c.c.c.c.c.c.c.c.c.c.c.c.c.c.c.c.c.c.",
"c.c.c.c.c.c.c.c.c.c.c.c.c.c.c.c.c.c.c.c.c.c.c.c.c.c.c.c.c.c.c.c.o o o o o c.c.c.c.c.c.c.c.c.c.c.c.c.c.c.c.c.c.c.c.c.c.c.c.c.c.c.",
"c.c.c.c.c.c.c.c.c.c.c.c.c.c.c.c.c.c.c.c.c.c.c.c.c.c.c.c.o X X X o ^ ;.;.w o o o c.c.c.c.c.c.c.c.c.c.c.c.c.c.c.c.c.c.c.c.c.c.c.c.",
"c.c.c.c.c.c.c.c.c.c.c.c.c.c.c.c.c.c.c.c.c.c.c.c.c.o o X ^ ;.;.-.o.-.;.X.+.;.;.;.o o o c.c.c.c.c.c.c.c.c.c.c.c.c.c.c.c.c.c.c.c.c.",
"c.c.c.c.c.c.c.c.c.c.c.c.c.c.c.c.c.c.c.c.c.c.c.o o W ;.;.-.;.X.X.;.;.;.X.X.E X.X.^ ^ S o o c.c.c.c.c.c.c.c.c.c.c.c.c.c.c.c.c.c.c.",
"c.c.c.c.c.c.c.c.c.c.c.c.c.c.c.c.c.c.c.c.c.o o +.-.X.-.%.;.;.;.;.%.%.X.X.X.X.Z r Q ^ S R o o c.c.c.c.c.c.c.c.c.c.c.c.c.c.c.c.c.c.",
"c.c.c.c.c.c.c.c.c.c.c.c.c.c.c.c.c.c.c.c.o X +.X.X.-.;.X.O.O.;.;.+.X.S X.Q S ^ ..^ ^ 0 R S o o c.c.c.c.c.c.c.c.c.c.c.c.c.c.c.c.c.",
"c.c.c.c.c.c.c.c.c.c.c.c.c.c.c.c.c.c.c.o o ~ X.X.X.X.X.X.o...X.X.X.X.X.^ X.^ ^ ^ 8 ~ R S D A o c.c.c.c.c.c.c.c.c.c.c.c.c.c.c.c.c.",
"c.c.c.c.c.c.c.c.c.c.c.c.c.c.c.c.c.c.o o S ^ M ^ X./ ^ ^ ..| | ~ ( X.X.^ ^ ^ ^ Q R R S U A 8 - o c.c.c.c.c.c.c.c.c.c.c.c.c.c.c.c.",
"c.c.c.c.c.c.c.c.c.c.c.c.c.c.c.c.c.c.o N S D ~ ~ S S A R n n N ~ E ^ ^ W U ^ n U R S S 0 C N r o c.c.c.c.c.c.c.c.c.c.c.c.c.c.c.c.",
"c.c.c.c.c.c.c.c.c.c.c.c.c.c.c.c.c.o 3 A S R S D ~ E / ~ ~ ~ ~ ~ ~ ! ~ ! A 8 R S S R 8 A S  .Z o c.c.c.c.c.c.c.c.c.c.c.c.c.c.c.c.",
"c.c.c.c.c.c.c.c.c.c.c.c.c.c.c.c.c.o N N S S D R R R R R U U R R R U D C D D U R S M S N M q 8 o c.c.c.c.c.c.c.c.c.c.c.c.c.c.c.c.",
"c.c.c.c.c.c.c.c.c.c.c.c.c.c.c.c.o 9 N A S U N 8 8 U D S S R R R R D R U R A A N A M M n n 8 o c.c.c.c.c.c.c.c.c.c.c.c.c.c.c.c.c.",
"c.c.c.c.c.c.c.c.c.c.c.c.c.c.c.c.o N N N N S S S S S A A S S D S S S A A C Z C C M r.8 8 & o >.o c.c.c.c.c.c.c.c.c.c.c.c.c.c.c.c.",
"c.c.c.c.c.c.c.c.c.c.c.c.c.c.c.c.o N A A N S N N S S S A A A S S A M Z M S N M h q 8 o o w <.z.o c.c.c.c.c.c.c.c.c.c.c.c.c.c.c.c.",
"c.c.c.c.c.c.c.c.c.c.c.c.c.c.c.o q N n N N N 0 Z S A N Z C M C C n 8 m C M q M q o o =.,.p.g.g.% c.c.c.c.c.c.c.c.c.c.c.c.c.c.c.c.",
"c.c.c.c.c.c.c.c.c.c.c.c.c.c.c.o r 8 Z C q r q N M N N N M v f f M M q q n 0 - o o . p.p.p.i.p.s.o c.c.c.c.c.c.c.c.c.c.c.c.c.c.c.",
"c.c.c.c.c.c.c.c.c.c.c.c.c.c.c.o - q q q n r r - q n g v f g v q n n N M t.8 o * k o i.p.p.p.p.z.o c.c.c.c.c.c.c.c.c.c.c.c.c.c.c.",
"c.c.c.c.c.c.c.c.c.c.c.c.c.c.c.c.o o o & 8 8 , r r r r r 0 0 q n t.n 8 v O X $ c a o i.i.i.d.p.l.o c.c.c.c.c.c.c.c.c.c.c.c.c.c.c.",
"c.c.c.c.c.c.c.c.c.c.c.c.c.c.c.c.c.. ; + o o o o o o o o o X o o X X o X $ a a a > o i.i.i.i.i.d.o c.c.c.c.c.c.c.c.c.c.c.c.c.c.c.",
"c.c.c.c.c.c.c.c.c.c.c.c.c.c.c.c.c.o a a $ ; $ s s s f > g a ; ; ; a ; ; a j a a o @ i.i.i.i.i.p.o c.c.c.c.c.c.c.c.c.c.c.c.c.c.c.",
"c.c.c.c.c.c.c.c.c.c.c.c.c.c.c.c.c.o a a a a a k a d x a a a a k x c s x a a a p o i.i.i.i.i.i.p.o c.c.c.c.c.c.c.c.c.c.c.c.c.c.c.",
"c.c.c.c.c.c.c.c.c.c.c.c.c.c.c.c.c.@ a a a a a x F j a a a > a a p s a a a a c p o i.i.i.i.i.i.i.o c.c.c.c.c.c.c.c.c.c.c.c.c.c.c.",
"c.c.c.c.c.c.c.c.c.c.c.c.c.c.c.c.c.o a > a a a s a a a > a > > o o X > d a a p $ o i.i.i.i.i.i.i.o c.c.c.c.c.c.c.c.c.c.c.c.c.c.c.",
"c.c.c.c.c.c.c.c.c.c.c.c.c.c.c.c.c.o > p j a a k x a a a > o X h . . X > > p p X *.i.O O O T i.i.o c.c.c.c.c.c.c.c.c.c.c.c.c.c.c.",
"c.c.c.c.c.c.c.c.c.c.c.c.c.c.c.c.c.o a a a a g a a a p > > X *.o p.z.. o > p p o i.O 1.i.u.O i.i.2 c.c.c.c.c.c.c.c.c.c.c.c.c.c.c.",
"c.c.c.c.c.c.c.c.c.c.c.c.c.c.c.c.c.o > a a a p a p a p p o *.i.o Y d.g.o > a o $.i.X X o X 3.+ u.o c.c.c.c.c.c.c.c.c.c.c.c.c.c.c.",
"c.c.c.c.c.c.c.c.c.c.c.c.c.c.c.c.c.o > > a > > a p > * o *.i.7.o i.i.y.. o > o i.1.o q.x.x.% o i.X c.c.c.c.c.c.c.c.c.c.c.c.c.c.c.",
"c.c.c.c.c.c.c.c.c.c.c.c.c.c.c.c.c.o > > > a a a + o o *.e.i.i.o 7.Y 8.o o o =.9.i.I j.x.7 2 < o o c.c.c.c.c.c.c.c.c.c.c.c.c.c.c.",
"c.c.c.c.c.c.c.c.c.c.c.c.c.c.c.c.c.o > > a > > o o #.*.i.i.i.i.e.o @.o o ] $.i.i.i.o j.x.b 6 < P o c.c.c.c.c.c.c.c.c.c.c.c.c.c.c.",
"c.c.c.c.c.c.c.c.c.c.c.c.c.c.c.c.c.o @ a > > o e #.i.i.i.i.i.i.i.i.% z i.u.u.i.i.i.o j.x.x.v :.o o c.c.c.c.c.c.c.c.c.c.c.c.c.c.c.",
"c.c.c.c.c.c.c.c.c.c.c.c.c.c.c.c.c.c.o > > o o #.7.7.i.9.i.p.i.i.i.p.p.X o o X X i.6.X q.k.j.o [ o c.c.c.c.c.c.c.c.c.c.c.c.c.c.c.",
"c.c.c.c.c.c.c.c.c.c.c.c.c.c.c.c.c.c.o X > o } 4.8.8.8.i.i.8.i.i.i.i.{ X H ` H * o [ $.o o o #.8.o c.c.c.c.c.c.c.c.c.c.c.c.c.c.c.",
"c.c.c.c.c.c.c.c.c.c.c.c.c.c.c.c.c.c.c.X o   &.2.5.5.8.i.i.8.i.8.8.p.u.X H c H K Y o o o o o o o o c.c.c.c.c.c.c.c.c.c.c.c.c.c.c.",
"c.c.c.c.c.c.c.c.c.c.c.c.c.c.c.c.c.c.c.c..   o &.1.7.1.8.8.u.i.8.8.i.o s k j K c c H K s o V ` K o c.c.c.c.c.c.c.c.c.c.c.c.c.c.c.",
"c.c.c.c.c.c.c.c.c.c.c.c.c.c.c.c.c.c.c.c.c.c.c.o o 1.1.5.2.8.8.8.8.8.o o x c H k c ` c H c J o , o c.c.c.c.c.c.c.c.c.c.c.c.c.c.c.",
"c.c.c.c.c.c.c.c.c.c.c.c.c.c.c.c.c.c.c.c.c.c.c.c.c.o o o 2.1.1.7.1.6.8.o a j x c F x c J H x x o o c.c.c.c.c.c.c.c.c.c.c.c.c.c.c.",
"c.c.c.c.c.c.c.c.c.c.c.c.c.c.c.c.c.c.c.c.c.c.c.c.c.c.o S o o o o #.&.&.o a k a j j ` x c H ` g o c.c.c.c.c.c.c.c.c.c.c.c.c.c.c.c.",
"c.c.c.c.c.c.c.c.c.c.c.c.c.c.c.c.c.c.c.c.c.c.c.c.c.o A R R ~ ~ o o o o o * a j a j j j j d j > o c.c.c.c.c.c.c.c.c.c.c.c.c.c.c.c.",
"c.c.c.c.c.c.c.c.c.c.c.c.c.c.c.c.c.c.c.c.c.c.c.c.c.o M D R ~ o A ) o ~ o o o a a d a a d a @ o c.c.c.c.c.c.c.c.c.c.c.c.c.c.c.c.c.",
"c.c.c.c.c.c.c.c.c.c.c.c.c.c.c.c.c.c.c.c.c.c.c.c.o o N A R o C Q ( o E D o i o o o o o o o o c.c.c.c.c.c.c.c.c.c.c.c.c.c.c.c.c.c.",
"c.c.c.c.c.c.c.c.c.c.c.c.c.c.c.c.c.c.c.c.c.c.c.c.o m M S o M C Q R o ~ ! & o y i o o c.c.c.c.c.c.c.c.c.c.c.c.c.c.c.c.c.c.c.c.c.c.",
"c.c.c.c.c.c.c.c.c.c.c.c.c.c.c.c.c.c.c.c.c.c.c.c.o M N o - Z A E X R R R R o o X o o c.c.c.c.c.c.c.c.c.c.c.c.c.c.c.c.c.c.c.c.c.c.",
"c.c.c.c.c.c.c.c.c.c.c.c.c.c.c.c.c.c.c.c.c.c.c.c.o o o 0.o o Z Z X R R R R S S & o o o c.c.c.c.c.c.c.c.c.c.c.c.c.c.c.c.c.c.c.c.c.",
"c.c.c.c.c.c.c.c.c.c.c.c.c.c.c.c.c.c.c.c.c.c.c.c.o o 8.u.z._ X % o o o o o X o @ K z o c.c.c.c.c.c.c.c.c.c.c.c.c.c.c.c.c.c.c.c.c.",
"c.c.c.c.c.c.c.c.c.c.c.c.c.c.c.c.c.c.c.c.c.c.c.o - o 1.i.g.i.7.X J L L L G z o o o o o c.c.c.c.c.c.c.c.c.c.c.c.c.c.c.c.c.c.c.c.c.",
"c.c.c.c.c.c.c.c.c.c.c.c.c.c.c.c.c.c.c.c.c.c.c.o 8 o 1.i.i.i.7.X o o o o o o A S h v O c.c.c.c.c.c.c.c.c.c.c.c.c.c.c.c.c.c.c.c.c.",
"c.c.c.c.c.c.c.c.c.c.c.c.c.c.c.c.c.c.c.c.c.c.c.o , q o 1.7.1.X 8 S N N N S M M M n q + c.c.c.c.c.c.c.c.c.c.c.c.c.c.c.c.c.c.c.c.c.",
"c.c.c.c.c.c.c.c.c.c.c.c.c.c.c.c.c.c.c.c.c.c.c.o 8 v f o o X 8 N N N C N M M N n n 8 o c.c.c.c.c.c.c.c.c.c.c.c.c.c.c.c.c.c.c.c.c.",
"c.c.c.c.c.c.c.c.c.c.c.c.c.c.c.c.c.c.c.c.c.c.c.o X 8 q q h C h N n r r q M n h q 8 8 o c.c.c.c.c.c.c.c.c.c.c.c.c.c.c.c.c.c.c.c.c.",
"c.c.c.c.c.c.c.c.c.c.c.c.c.c.c.c.c.c.c.c.c.c.c.c.o o o o o o o o o o o r o o o o o o o c.c.c.c.c.c.c.c.c.c.c.c.c.c.c.c.c.c.c.c.c.",
"c.c.c.c.c.c.c.c.c.c.c.c.c.c.c.c.c.c.c.c.c.c.c.c.c.c.c.o o o t u u t o o % X c.c.c.c.c.c.c.c.c.c.c.c.c.c.c.c.c.c.c.c.c.c.c.c.c.c.",
"c.c.c.c.c.c.c.c.c.c.c.c.c.c.c.c.c.c.c.c.c.c.c.c.c.c.c.c.c.o 1 5 5 t X 4 o o c.c.c.c.c.c.c.c.c.c.c.c.c.c.c.c.c.c.c.c.c.c.c.c.c.c.",
"c.c.c.c.c.c.c.c.c.c.c.c.c.c.c.c.c.c.c.c.c.c.c.c.c.c.c.c.c.c.o 4 4 o X o c.c.c.c.c.c.c.c.c.c.c.c.c.c.c.c.c.c.c.c.c.c.c.c.c.c.c.c.",
"c.c.c.c.c.c.c.c.c.c.c.c.c.c.c.c.c.c.c.c.c.c.c.c.c.c.c.c.c.c.o o o o o c.c.c.c.c.c.c.c.c.c.c.c.c.c.c.c.c.c.c.c.c.c.c.c.c.c.c.c.c.",
"c.c.c.c.c.c.c.c.c.c.c.c.c.c.c.c.c.c.c.c.c.c.c.c.c.c.c.c.c.c.c.c.c.c.c.c.c.c.c.c.c.c.c.c.c.c.c.c.c.c.c.c.c.c.c.c.c.c.c.c.c.c.c.c.",
"c.c.c.c.c.c.c.c.c.c.c.c.c.c.c.c.c.c.c.c.c.c.c.c.c.c.c.c.c.c.c.c.c.c.c.c.c.c.c.c.c.c.c.c.c.c.c.c.c.c.c.c.c.c.c.c.c.c.c.c.c.c.c.c.",
"c.c.c.c.c.c.c.c.c.c.c.c.c.c.c.c.c.c.c.c.c.c.c.c.c.c.c.c.c.c.c.c.c.c.c.c.c.c.c.c.c.c.c.c.c.c.c.c.c.c.c.c.c.c.c.c.c.c.c.c.c.c.c.c."
};
