/* XPM */
static char *result[] = {
/* columns rows colors chars-per-pixel */
"64 64 136 2 ",
"   c #0D0D0C",
".  c #141412",
"X  c #1B1917",
"o  c #1B1A18",
"O  c #221713",
"+  c #281C16",
"@  c #201E1B",
"#  c #24231C",
"$  c #2E2019",
"%  c #2A2A1E",
"&  c #342017",
"*  c #352219",
"=  c #3D261C",
"-  c #1F3C26",
";  c #242425",
":  c #2B2A24",
">  c #24252A",
",  c #27282E",
"<  c #342F28",
"1  c #203C26",
"2  c #323221",
"3  c #373825",
"4  c #393926",
"5  c #3A342D",
"6  c #3D3D28",
"7  c #2D2E36",
"8  c #373737",
"9  c #34353A",
"0  c #393939",
"q  c #462B1F",
"w  c #472E20",
"e  c #4A2E21",
"r  c #4E3123",
"t  c #473328",
"y  c #533525",
"u  c #5E3C2B",
"i  c #473E34",
"p  c #5F3E31",
"a  c #633F2D",
"s  c #25482D",
"d  c #295031",
"f  c #2D5D38",
"g  c #43442C",
"h  c #46482F",
"j  c #48492F",
"k  c #56552E",
"l  c #4B4237",
"z  c #4B4C31",
"x  c #4C4438",
"c  c #5C4538",
"v  c #4F5136",
"b  c #515336",
"n  c #545639",
"m  c #55583A",
"M  c #595B3E",
"N  c #69442F",
"B  c #6D4732",
"V  c #704933",
"C  c #734C3A",
"Z  c #75503C",
"A  c #79503D",
"S  c #383A44",
"D  c #4E4D4B",
"F  c #5C5E40",
"G  c #6E5E4E",
"H  c #7A5642",
"J  c #7C5B46",
"K  c #705E4E",
"L  c #5E6042",
"P  c #646646",
"I  c #6B6D4A",
"U  c #77634F",
"Y  c #6E714D",
"T  c #72744F",
"R  c #6B6A50",
"E  c #7B6A57",
"W  c #7C6A58",
"Q  c #737550",
"!  c #777953",
"~  c #7A7C55",
"^  c #78775A",
"/  c #7D7E58",
"(  c #835741",
")  c #805B47",
"_  c #835F4B",
"`  c #826B56",
"'  c #8B6D54",
"]  c #816E5A",
"[  c #937E67",
"{  c #997C64",
"}  c #83845D",
"|  c #8C8C64",
" . c #94946B",
".. c #9C9C72",
"X. c #A9896F",
"o. c #A58B71",
"O. c #AB8D75",
"+. c #AB9175",
"@. c #A09F75",
"#. c #BC9477",
"$. c #B3977A",
"%. c #B3997C",
"&. c #A2A177",
"*. c #A3A278",
"=. c #8A8888",
"-. c #B49B82",
";. c #BBA79A",
":. c #C2A484",
">. c #CCA585",
",. c #CEAB8A",
"<. c #D2AC8B",
"1. c #D6B18F",
"2. c #D6B391",
"3. c #D9B693",
"4. c #DBB895",
"5. c #DFBC98",
"6. c #E1BE9A",
"7. c #C1BFBF",
"8. c #E6C49E",
"9. c #E8C39E",
"0. c #F7EB94",
"q. c #D9C2B3",
"w. c #EDC7A1",
"e. c #EFCBA4",
"r. c #EFCDAC",
"t. c #ECCDB2",
"y. c #EFD0B6",
"u. c #F2D4BA",
"i. c #C4C2C2",
"p. c #CDCDCD",
"a. c gray82",
"s. c #F4D7C1",
"d. c #F7DCC6",
"f. c #F9DFCD",
"g. c #E3E2E2",
"h. c None",
/* pixels */
"h.h.h.h.h.h.h.h.h.h.h.h.h.h.h.h.h.h.h.h.h.h.h.h.h.h.h.h.h.h.h.h.h.h.h.h.h.h.h.h.h.h.h.h.h.h.h.h.h.h.h.h.h.h.h.h.h.h.h.h.h.h.h.h.",
"h.h.h.h.h.h.h.h.h.h.h.h.h.h.h.h.h.h.h.h.h.h.h.h.h.h.h.h.h.h.h.h.h.h.h.h.h.h.h.h.h.h.h.h.h.h.h.h.h.h.h.h.h.h.h.h.h.h.h.h.h.h.h.h.",
"h.h.h.h.h.h.h.h.h.h.h.h.h.h.h.h.h.h.h.h.h.h.h.h.h.h.h.h.h.h.h.h.h.h.h.h.h.h.h.h.h.h.h.h.h.h.h.h.h.h.h.h.h.h.h.h.h.h.h.h.h.h.h.h.",
"h.h.h.h.h.h.h.h.h.h.h.h.h.h.h.h.h.h.h.h.h.h.h.h.h.h.h.h.h.h.h.h.h.h.h.h.h.h.h.h.h.h.h.h.h.h.h.h.h.h.h.h.h.h.h.h.h.h.h.h.h.h.h.h.",
"h.h.h.h.h.h.h.h.h.h.h.h.h.h.h.h.h.h.h.h.h.h.h.h.h.h.h.h.h.h.h.h.h.h.h.h.h.h.h.h.h.h.h.h.h.h.h.h.h.h.h.h.h.h.h.h.h.h.h.h.h.h.h.h.",
"h.h.h.h.h.h.h.h.h.h.h.h.h.h.h.h.h.h.h.h.h.h.h.h.h.h.h.h.h.h.h.h.h.h.h.h.h.h.h.h.h.h.h.h.h.h.h.h.h.h.h.h.h.h.h.h.h.h.h.h.h.h.h.h.",
"h.h.h.h.h.h.h.h.h.h.h.h.h.h.h.h.h.h.h.h.h.h.h.h.h.h.h.h.h.h.h.h.h.h.h.h.h.h.h.h.h.h.h.h.h.h.h.h.h.h.h.h.h.h.h.h.h.h.h.h.h.h.h.h.",
"h.h.h.h.h.h.h.h.h.h.h.h.h.h.h.h.h.h.h.h.h.h.h.h.h.h.h.h.h.h.h.h.h.o o o o h.h.h.h.h.h.h.h.h.h.h.h.h.h.h.h.h.h.h.h.h.h.h.h.h.h.h.",
"h.h.h.h.h.h.h.h.h.h.h.h.h.h.h.h.h.h.h.h.h.h.h.h.h.h.h.h.o o o o o : R ^ o o o o h.h.h.h.h.h.h.h.h.h.h.h.h.h.h.h.h.h.h.h.h.h.h.h.",
"h.h.h.h.h.h.h.h.h.h.h.h.h.h.h.h.h.h.h.h.h.h.h.h.h.o o o : *.*.*.| *.*.|  . .*.*.o o o h.h.h.h.h.h.h.h.h.h.h.h.h.h.h.h.h.h.h.h.h.",
"h.h.h.h.h.h.h.h.h.h.h.h.h.h.h.h.h.h.h.h.h.h.h.o o @ *.*.@.*. .| *.*.*...| | } | Q } n o o h.h.h.h.h.h.h.h.h.h.h.h.h.h.h.h.h.h.h.",
"h.h.h.h.h.h.h.h.h.h.h.h.h.h.h.h.h.h.h.h.h.h.o : *.| *.*.*.*.*.*.*. . .| | | | 4 Q Q m L o o h.h.h.h.h.h.h.h.h.h.h.h.h.h.h.h.h.h.",
"h.h.h.h.h.h.h.h.h.h.h.h.h.h.h.h.h.h.h.h.o o | | |  .*.| @.....*.*.| | | | I Q | Q Q m L 6 # o h.h.h.h.h.h.h.h.h.h.h.h.h.h.h.h.h.",
"h.h.h.h.h.h.h.h.h.h.h.h.h.h.h.h.h.h.h.o o Q } | | | | | | | | | | | | z ! } Q Q F m L L F m o h.h.h.h.h.h.h.h.h.h.h.h.h.h.h.h.h.",
"h.h.h.h.h.h.h.h.h.h.h.h.h.h.h.h.h.h.h.o z Q 3 P | / Q ~ } } } ~ Q | | Q Q Q Q 6 Y F m L m n 3 o h.h.h.h.h.h.h.h.h.h.h.h.h.h.h.h.",
"h.h.h.h.h.h.h.h.h.h.h.h.h.h.h.h.h.h.o z m F Q Q n n b M 2 3 4 M I P Q Q F P 2 F L m m n 4 z 6 o h.h.h.h.h.h.h.h.h.h.h.h.h.h.h.h.",
"h.h.h.h.h.h.h.h.h.h.h.h.h.h.h.h.h.o o z m L m m T P Q T Q Q Q Q T T I T m m L F m L g c m k 0.o h.h.h.h.h.h.h.h.h.h.h.h.h.h.h.h.",
"h.h.h.h.h.h.h.h.h.h.h.h.h.h.h.h.h.o 6 m z F F L M P P F F M P F L L M L b L L P M j b k z s 2 o h.h.h.h.h.h.h.h.h.h.h.h.h.h.h.h.",
"h.h.h.h.h.h.h.h.h.h.h.h.h.h.h.h.X X j n m m n : 2 n M m m P F P L L L L L M m j 2 j j s t 3 o . h.h.h.h.h.h.h.h.h.h.h.h.h.h.h.h.",
"h.h.h.h.h.h.h.h.h.h.h.h.h.h.h.h.o g z z b m m m m m m m m m M F m m m m m j j 6 z k 2 g 3 X o o h.h.h.h.h.h.h.h.h.h.h.h.h.h.h.h.",
"h.h.h.h.h.h.h.h.h.h.h.h.h.h.h.h.o j j h z m j z m m m m m m m k m b z j m z z z j 3 X X # ;.q.o h.h.h.h.h.h.h.h.h.h.h.h.h.h.h.h.",
"h.h.h.h.h.h.h.h.h.h.h.h.h.h.h.o 3 g 6 b j b 2 v m m j b b z z c j 2 3 z j j s r % o 5 %.%.d.r.: h.h.h.h.h.h.h.h.h.h.h.h.h.h.h.h.",
"h.h.h.h.h.h.h.h.h.h.h.h.h.h.h.o 6 2 h b 6 6 6 j j j b j j 6 6 s g j g 6 6 6 6 o o . r.r.u.e.r.f.o h.h.h.h.h.h.h.h.h.h.h.h.h.h.h.",
"h.h.h.h.h.h.h.h.h.h.h.h.h.h.h.X o 3 6 6 g 6 g 2 6 6 6 6 6 6 6 6 6 g j j 0.6 o o & o e.r.r.e.r.f.o h.h.h.h.h.h.h.h.h.h.h.h.h.h.h.",
"h.h.h.h.h.h.h.h.h.h.h.h.h.h.h.h.o o o o 2 % 2 6 6 6 6 6 6 2 6 h 0.6 2 s = o o * q o e.e.e.r.r.u.o h.h.h.h.h.h.h.h.h.h.h.h.h.h.h.",
"h.h.h.h.h.h.h.h.h.h.h.h.h.h.h.h.h.. & & X X X o o o o o X o X o X X o o O w q y = o e.e.e.e.r.r.o h.h.h.h.h.h.h.h.h.h.h.h.h.h.h.",
"h.h.h.h.h.h.h.h.h.h.h.h.h.h.h.h.h.o q q & & & = w w w & q w & = & q & & & a u q o o e.e.e.e.e.r.o h.h.h.h.h.h.h.h.h.h.h.h.h.h.h.",
"h.h.h.h.h.h.h.h.h.h.h.h.h.h.h.h.h.o q q q q q u q y q r q q q r u a q y q q q = @ r.e.e.e.r.e.r.o h.h.h.h.h.h.h.h.h.h.h.h.h.h.h.",
"h.h.h.h.h.h.h.h.h.h.h.h.h.h.h.h.h.o q = q q q a a w q q q = w q q q q q q a a = o w.e.w.e.e.e.e.< h.h.h.h.h.h.h.h.h.h.h.h.h.h.h.",
"h.h.h.h.h.h.h.h.h.h.h.h.h.h.h.h.h.o q = q q q q q q q = q q = X o o = q q q = = o e.w.e.e.e.e.e.l o h.h.h.h.h.h.h.h.h.h.h.h.h.h.",
"h.h.h.h.h.h.h.h.h.h.h.h.h.h.h.h.h.o = q r q q y u q q y = $ X +.. . X = = = = X $.e.O O O U e.e.G X h.h.h.h.h.h.h.h.h.h.h.h.h.h.",
"h.h.h.h.h.h.h.h.h.h.h.h.h.h.h.h.h.o q q = q r q q q q = = X $.X d.f.. X = q = X 6.+ <.w.` O e.e.] o h.h.h.h.h.h.h.h.h.h.h.h.h.h.",
"h.h.h.h.h.h.h.h.h.h.h.h.h.h.h.h.h.o = q q q = q = q = = X $.e.o J y.t.X = q X 5 w.K o o o w.O w.E o h.h.h.h.h.h.h.h.h.h.h.h.h.h.",
"h.h.h.h.h.h.h.h.h.h.h.h.h.h.h.h.h.o = = q = = q q = = X O.9.e.X 8.e.O.X X = o 8.6.o 7.a.g.@ o $.X h.h.h.h.h.h.h.h.h.h.h.h.h.h.h.",
"h.h.h.h.h.h.h.h.h.h.h.h.h.h.h.h.h.o = = = w q q $ o o $.,.e.e.X 1.' 8.o X X %.>.r.o 7.g.s d 1 o o h.h.h.h.h.h.h.h.h.h.h.h.h.h.h.",
"h.h.h.h.h.h.h.h.h.h.h.h.h.h.h.h.h.o = = q = = o o o.$.e.e.e.e.w.o X.U o x 5 e.e.w.o p.g.1 1 O D o h.h.h.h.h.h.h.h.h.h.h.h.h.h.h.",
"h.h.h.h.h.h.h.h.h.h.h.h.h.h.h.h.h.o o w = = o @ o.e.e.e.e.e.e.e.e.o o e.e.:.e.e.w.o a.g.g.f 1 o o h.h.h.h.h.h.h.h.h.h.h.h.h.h.h.",
"h.h.h.h.h.h.h.h.h.h.h.h.h.h.h.h.h.h.o = = o o o.4.4.e.5.e.e.e.e.e.e.e.o X X X i w.6.o p.g.p.=.o o h.h.h.h.h.h.h.h.h.h.h.h.h.h.h.",
"h.h.h.h.h.h.h.h.h.h.h.h.h.h.h.h.h.h.X o = o { >.4.4.4.e.e.5.w.e.e.e.4.X u _ B X o 2.K o o o o 4.o h.h.h.h.h.h.h.h.h.h.h.h.h.h.h.",
"h.h.h.h.h.h.h.h.h.h.h.h.h.h.h.h.h.h.h.o X . #.>.3.,.3.e.e.5.e.4.5.e.9.X a u B J _ o o < | W o X o h.h.h.h.h.h.h.h.h.h.h.h.h.h.h.",
"h.h.h.h.h.h.h.h.h.h.h.h.h.h.h.h.h.h.h.h..   o #.>.1.>.4.4.9.e.4.5.8.X q u y B N u V A o X X c _ o h.h.h.h.h.h.h.h.h.h.h.h.h.h.h.",
"h.h.h.h.h.h.h.h.h.h.h.h.h.h.h.h.h.h.h.h.h.h.h.o o >.>.3.>.4.4.4.4.4.X X u y B a N J N B u H t y o h.h.h.h.h.h.h.h.h.h.h.h.h.h.h.",
"h.h.h.h.h.h.h.h.h.h.h.h.h.h.h.h.h.h.h.h.h.h.h.h.h.o o o >.>.>.5.,.3.4.X q q a u u u N C B N u o o h.h.h.h.h.h.h.h.h.h.h.h.h.h.h.",
"h.h.h.h.h.h.h.h.h.h.h.h.h.h.h.h.h.h.h.h.h.h.h.h.h.h.o n X o o o 2.#.#.o q y q y y H N N B _ y o h.h.h.h.h.h.h.h.h.h.h.h.h.h.h.h.",
"h.h.h.h.h.h.h.h.h.h.h.h.h.h.h.h.h.h.h.h.h.h.h.h.h.o b F L Q Q X X o o o o q y q y y y y w y q o h.h.h.h.h.h.h.h.h.h.h.h.h.h.h.h.",
"h.h.h.h.h.h.h.h.h.h.h.h.h.h.h.h.h.h.h.h.h.h.h.h.h.o z M L Q X m ~ o Q o o o q q q q r q q = o h.h.h.h.h.h.h.h.h.h.h.h.h.h.h.h.h.",
"h.h.h.h.h.h.h.h.h.h.h.h.h.h.h.h.h.h.h.h.h.h.h.h.h.@ z m L X v I ~ X Y F o 0 o o o o o o o o h.h.h.h.h.h.h.h.h.h.h.h.h.h.h.h.h.h.",
"h.h.h.h.h.h.h.h.h.h.h.h.h.h.h.h.h.h.h.h.h.h.h.h.O s z m X v n I M X T Q @ o 8 0 o o h.X h.h.h.h.h.h.h.h.h.h.h.h.h.h.h.h.h.h.h.h.",
"h.h.h.h.h.h.h.h.h.h.h.h.h.h.h.h.h.h.h.h.h.h.h.h.o h % o j v m m o L M G L o o o o o h.h.h.h.h.h.h.h.h.h.h.h.h.h.h.h.h.h.h.h.h.h.",
"h.h.h.h.h.h.h.h.h.h.h.h.h.h.h.h.h.h.h.h.h.h.h.h.o o o 4.o o v v o L F F L m b o o o o h.h.h.h.h.h.h.h.h.h.h.h.h.h.h.h.h.h.h.h.h.",
"h.h.h.h.h.h.h.h.h.h.h.h.h.h.h.h.h.h.h.h.h.h.h.h.o o 4.y.f.5 o X o o o o o o o o C p o h.h.h.h.h.h.h.h.h.h.h.h.h.h.h.h.h.h.h.h.h.",
"h.h.h.h.h.h.h.h.h.h.h.h.h.h.h.h.h.h.h.h.h.h.h.o % o 5.t.y.e.3.X C C H H B u @ @ o o o h.h.h.h.h.h.h.h.h.h.h.h.h.h.h.h.h.h.h.h.h.",
"h.h.h.h.h.h.h.h.h.h.h.h.h.h.h.h.h.h.h.h.h.h.h.o 2 o >.e.e.e.>.X X o o o @ o g m g g X h.h.h.h.h.h.h.h.h.h.h.h.h.h.h.h.h.h.h.h.h.",
"h.h.h.h.h.h.h.h.h.h.h.h.h.h.h.h.h.h.h.h.h.h.h.o : 4 X >.>.>.X m m j j v k z j j 6 6 o h.h.h.h.h.h.h.h.h.h.h.h.h.h.h.h.h.h.h.h.h.",
"h.h.h.h.h.h.h.h.h.h.h.h.h.h.h.h.h.h.h.h.h.h.h.o 2 4 6 X X o m b k j b v z z j j j 2 o h.h.h.h.h.h.h.h.h.h.h.h.h.h.h.h.h.h.h.h.h.",
"h.h.h.h.h.h.h.h.h.h.h.h.h.h.h.h.h.h.h.h.h.h.h.o # 2 6 6 6 j t v j t g s j c s 6 : 2 o h.h.h.h.h.h.h.h.h.h.h.h.h.h.h.h.h.h.h.h.h.",
"h.h.h.h.h.h.h.h.h.h.h.h.h.h.h.h.h.h.h.h.h.h.h.h.o o o o o o o o o # o 6 % o o o o o o h.h.h.h.h.h.h.h.h.h.h.h.h.h.h.h.h.h.h.h.h.",
"h.h.h.h.h.h.h.h.h.h.h.h.h.h.h.h.h.h.h.h.h.h.h.h.h.h.h.o o o 7 S 9 ; 7 o o o h.h.h.h.h.h.h.h.h.h.h.h.h.h.h.h.h.h.h.h.h.h.h.h.h.h.",
"h.h.h.h.h.h.h.h.h.h.h.h.h.h.h.h.h.h.h.h.h.h.h.h.h.h.h.h.h.o o 7 , , ; o o o h.h.h.h.h.h.h.h.h.h.h.h.h.h.h.h.h.h.h.h.h.h.h.h.h.h.",
"h.h.h.h.h.h.h.h.h.h.h.h.h.h.h.h.h.h.h.h.h.h.h.h.h.h.h.h.h.h.o > > o o o h.h.h.h.h.h.h.h.h.h.h.h.h.h.h.h.h.h.h.h.h.h.h.h.h.h.h.h.",
"h.h.h.h.h.h.h.h.h.h.h.h.h.h.h.h.h.h.h.h.h.h.h.h.h.h.h.h.h.h.o o o o h.h.h.h.h.h.h.h.h.h.h.h.h.h.h.h.h.h.h.h.h.h.h.h.h.h.h.h.h.h.",
"h.h.h.h.h.h.h.h.h.h.h.h.h.h.h.h.h.h.h.h.h.h.h.h.h.h.h.h.h.h.h.h.h.h.h.h.h.h.h.h.h.h.h.h.h.h.h.h.h.h.h.h.h.h.h.h.h.h.h.h.h.h.h.h.",
"h.h.h.h.h.h.h.h.h.h.h.h.h.h.h.h.h.h.h.h.h.h.h.h.h.h.h.h.h.h.h.h.h.h.h.h.h.h.h.h.h.h.h.h.h.h.h.h.h.h.h.h.h.h.h.h.h.h.h.h.h.h.h.h.",
"h.h.h.h.h.h.h.h.h.h.h.h.h.h.h.h.h.h.h.h.h.h.h.h.h.h.h.h.h.h.h.h.h.h.h.h.h.h.h.h.h.h.h.h.h.h.h.h.h.h.h.h.h.h.h.h.h.h.h.h.h.h.h.h."
};
